<svg class="main-svg" xmlns="http://www.w3.org/2000/svg" xmlns:xlink="http://www.w3.org/1999/xlink" width="4800" height="2700" style="" viewBox="0 0 1600 900"><rect x="0" y="0" width="1600" height="900" style="fill: rgb(255, 255, 255); fill-opacity: 1;"/><defs id="defs-a91605"><g class="clips"><clipPath id="clipa91605xyplot" class="plotclip"><rect width="1440" height="720"/></clipPath><clipPath class="axesclip" id="clipa91605x"><rect x="80" y="0" width="1440" height="900"/></clipPath><clipPath class="axesclip" id="clipa91605y"><rect x="0" y="100" width="1600" height="720"/></clipPath><clipPath class="axesclip" id="clipa91605xy"><rect x="80" y="100" width="1440" height="720"/></clipPath></g><g class="gradients"/><g class="patterns"/></defs><g class="bglayer"><rect class="bg" x="80" y="100" width="1440" height="720" style="fill: rgb(229, 236, 246); fill-opacity: 1; stroke-width: 0;"/></g><g class="layer-below"><g class="imagelayer"/><g class="shapelayer"/></g><g class="cartesianlayer"><g class="subplot xy"><g class="layer-subplot"><g class="shapelayer"/><g class="imagelayer"/></g><g class="minor-gridlayer"><g class="x"/><g class="y"/></g><g class="gridlayer"><g class="x"><path class="xgrid crisp" transform="translate(238.58,0)" d="M0,100v720" style="stroke: rgb(255, 255, 255); stroke-opacity: 1; stroke-width: 1px;"/><path class="xgrid crisp" transform="translate(398.75,0)" d="M0,100v720" style="stroke: rgb(255, 255, 255); stroke-opacity: 1; stroke-width: 1px;"/><path class="xgrid crisp" transform="translate(558.9300000000001,0)" d="M0,100v720" style="stroke: rgb(255, 255, 255); stroke-opacity: 1; stroke-width: 1px;"/><path class="xgrid crisp" transform="translate(719.11,0)" d="M0,100v720" style="stroke: rgb(255, 255, 255); stroke-opacity: 1; stroke-width: 1px;"/><path class="xgrid crisp" transform="translate(879.29,0)" d="M0,100v720" style="stroke: rgb(255, 255, 255); stroke-opacity: 1; stroke-width: 1px;"/><path class="xgrid crisp" transform="translate(1039.47,0)" d="M0,100v720" style="stroke: rgb(255, 255, 255); stroke-opacity: 1; stroke-width: 1px;"/><path class="xgrid crisp" transform="translate(1199.64,0)" d="M0,100v720" style="stroke: rgb(255, 255, 255); stroke-opacity: 1; stroke-width: 1px;"/><path class="xgrid crisp" transform="translate(1359.82,0)" d="M0,100v720" style="stroke: rgb(255, 255, 255); stroke-opacity: 1; stroke-width: 1px;"/></g><g class="y"><path class="ygrid crisp" transform="translate(0,649.44)" d="M80,0h1440" style="stroke: rgb(255, 255, 255); stroke-opacity: 1; stroke-width: 1px;"/><path class="ygrid crisp" transform="translate(0,514.88)" d="M80,0h1440" style="stroke: rgb(255, 255, 255); stroke-opacity: 1; stroke-width: 1px;"/><path class="ygrid crisp" transform="translate(0,380.31)" d="M80,0h1440" style="stroke: rgb(255, 255, 255); stroke-opacity: 1; stroke-width: 1px;"/><path class="ygrid crisp" transform="translate(0,245.75)" d="M80,0h1440" style="stroke: rgb(255, 255, 255); stroke-opacity: 1; stroke-width: 1px;"/><path class="ygrid crisp" transform="translate(0,111.19)" d="M80,0h1440" style="stroke: rgb(255, 255, 255); stroke-opacity: 1; stroke-width: 1px;"/></g></g><g class="zerolinelayer"><path class="yzl zl crisp" transform="translate(0,784)" d="M80,0h1440" style="stroke: rgb(255, 255, 255); stroke-opacity: 1; stroke-width: 2px;"/></g><g class="layer-between"><g class="shapelayer"/><g class="imagelayer"/></g><path class="xlines-below"/><path class="ylines-below"/><g class="overlines-below"/><g class="xaxislayer-below"/><g class="yaxislayer-below"/><g class="overaxes-below"/><g class="overplot"><g class="xy" transform="translate(80,100)" clip-path="url(#clipa91605xyplot)"><g class="scatterlayer mlayer"><g class="trace scatter trace562237" style="stroke-miterlimit: 2; opacity: 1;"><g class="fills"/><g class="errorbars"/><g class="lines"><path class="js-line" d="M0,684L384.43,684L386.03,607.02L387.63,520.11L389.23,515.8L563.83,515.8L565.43,514.58L568.63,347.6L570.23,347.6L797.69,347.6L799.29,346.13L800.89,344.7L802.49,337.79L804.09,334.07L805.7,318.04L807.3,137.72L808.9,132.51L810.5,114.97L812.1,109.07L816.91,40.58L818.51,38.3L820.11,36L821.71,37.62L823.31,36.51L824.92,36.43L826.52,36.94L828.12,38.47L831.32,39.65L832.93,189.95L834.53,207.6L836.13,208.61L837.73,208.36L839.33,210.37L840.93,210.79L842.54,213.45L844.14,218.28L845.74,244.94L847.34,244.94L848.94,258.4L850.55,313.1L852.15,327L853.75,346.63L855.35,347.6L914.62,347.97L916.22,486.7L917.82,515.8L919.42,515.8L943.45,515.8L945.05,531.41L946.65,667.46L948.25,667.46L949.86,684L951.46,684L1166.1,684L1167.7,675.04L1169.3,633.9L1170.9,515.8L1390.34,515.8L1391.95,537.69L1393.55,684L1395.15,684L1440,684" style="vector-effect: none; fill: none; stroke: rgb(99, 110, 250); stroke-opacity: 1; stroke-width: 3px; opacity: 1;"/></g><g class="points"/><g class="text"/></g><g class="trace scatter trace94a056" style="stroke-miterlimit: 2; opacity: 1;"><g class="fills"/><g class="errorbars"/><g class="lines"><path class="js-line" d="M0,684L257.89,684L259.49,671.95L261.09,671.95L262.69,622.71L264.29,541.46L265.9,515.8L578.24,515.8L579.84,347.6L840.93,347.6L842.54,372.4L845.74,515.8L847.34,515.8L1156.49,515.8L1158.09,511.36L1159.69,465.08L1161.29,347.6L1299.04,347.6L1300.65,439.19L1302.25,495.37L1303.85,515.8L1440,515.8" style="vector-effect: none; fill: none; stroke: rgb(239, 85, 59); stroke-opacity: 1; stroke-width: 3px; opacity: 1;"/></g><g class="points"/><g class="text"/></g><g class="trace scatter trace6094fa" style="stroke-miterlimit: 2; opacity: 1;"><g class="fills"/><g class="errorbars"/><g class="lines"><path class="js-line" d="M0,684L467.72,684L469.32,683L470.92,676.69L472.53,631.31L474.13,529.64L475.73,515.8L515.77,515.8L517.38,373.34L518.98,347.6L520.58,347.6L583.05,347.6L584.65,264.65L586.25,179.39L587.85,179.39L783.27,179.39L784.87,228L786.47,331.51L788.08,347.6L792.88,347.6L794.48,515.8L935.44,515.8L937.04,528.85L938.64,578.5L940.25,678.68L941.85,684L943.45,684L1172.5,684L1174.1,681.79L1175.71,673.73L1177.31,672.03L1180.51,673.05L1182.11,679.56L1183.72,681.73L1185.32,680.28L1188.52,660.34L1190.12,608.77L1193.33,515.8L1194.93,515.8L1324.67,515.8L1326.27,684L1440,684" style="vector-effect: none; fill: none; stroke: rgb(0, 204, 150); stroke-opacity: 1; stroke-width: 3px; opacity: 1;"/></g><g class="points"/><g class="text"/></g><g class="trace scatter tracee84534" style="stroke-miterlimit: 2; opacity: 1;"><g class="fills"/><g class="errorbars"/><g class="lines"><path class="js-line" d="M0,684L267.5,684L269.1,681.23L270.7,677.72L272.3,658.4L273.91,647.99L275.51,596.35L278.71,536.74L280.31,530.97L283.52,524.55L285.12,524.64L286.72,522.93L288.32,523.38L289.92,522.66L291.52,525L294.73,524.46L296.33,524.28L297.93,526.53L299.53,527.24L301.13,526.62L302.74,527.33L309.14,528.05L310.74,528.13L312.35,529.47L313.95,528.05L317.15,532.03L318.75,532.29L321.96,536.65L323.56,535.96L325.16,537.34L326.76,537.08L329.97,539.24L331.57,538.98L334.77,540.01L336.37,540.86L339.58,544.76L341.18,546.02L342.78,547.53L344.38,546.86L345.98,545.94L347.59,547.61L350.79,548.61L352.39,548.11L357.2,550.1L358.8,553.3L360.4,555.5L362,566.66L366.81,577.1L368.41,579.23L371.61,582.93L373.22,587.98L378.02,591.52L379.62,593.1L384.43,602.29L386.03,603.13L392.44,618.47L394.04,623.56L395.64,628.87L397.24,630.89L398.84,634.61L400.44,635.87L402.05,639.95L403.65,640.67L406.85,643.35L408.46,643.49L411.66,643.21L413.26,643.31L416.46,644.14L418.07,644.27L421.27,644.32L422.87,645.09L426.07,645.32L427.68,646.22L429.28,645.68L430.88,646.26L432.48,648.82L434.08,649.42L437.29,662.1L438.89,678.5L442.09,684L443.69,684L525.38,684L526.99,670.61L528.59,515.8L530.19,515.8L563.83,515.16L565.43,514.5L568.63,512.9L570.23,511.62L571.84,510.18L573.44,505.57L576.64,500.78L578.24,492.92L581.45,482.79L583.05,480.4L586.25,473.28L587.85,465.49L589.46,462.95L591.06,291.88L592.66,290.03L594.26,289.37L597.46,287.99L599.07,286.87L600.67,285.8L602.27,286.14L608.68,285L610.28,285.46L615.08,283.4L616.69,284.55L619.89,284.55L621.49,288.99L623.09,290.85L624.69,295.11L626.3,296.26L627.9,300.42L629.5,302.44L631.1,308.55L632.7,311.28L634.31,318.97L635.91,334.15L637.51,338.91L639.11,179.39L640.71,179.39L701.58,179.49L703.18,316.98L704.78,347.6L706.39,347.6L796.08,347.6L797.69,344.18L799.29,330.12L800.89,179.39L810.5,179.39L812.1,265.56L813.7,347.6L815.31,347.6L879.38,347.6L880.98,349.53L882.58,485.1L884.18,515.75L908.21,515.8L909.81,515.8L1177.31,515.8L1178.91,508.72L1180.51,360.02L1182.11,347.6L1204.54,347.6L1206.14,342.18L1209.35,265.49L1210.94,180.96L1212.55,179.39L1214.15,179.39L1244.58,179.01L1246.18,176.3L1247.79,175.31L1249.39,171.53L1254.19,166.53L1255.8,166.12L1257.4,171.58L1259,241.22L1262.2,277.7L1263.8,283.69L1265.41,263.86L1267.01,181.54L1270.21,296.34L1271.81,310.92L1273.41,310.97L1275.02,312.84L1278.22,310.88L1279.82,310.48L1284.63,308.83L1286.23,309.05L1291.03,307.78L1292.64,308.1L1300.64,309.46L1302.25,310.57L1303.85,316.16L1305.45,330.28L1310.26,344.93L1311.86,347.44L1316.66,347.6L1318.27,357.97L1319.87,477.39L1321.47,477.39L1323.07,515.8L1324.67,515.8L1332.68,515.8L1334.28,520.48L1335.88,538.98L1337.49,545.77L1339.09,588.4L1340.69,602.22L1342.29,638.45L1343.89,643.4L1345.5,642.33L1347.1,640.29L1348.7,641.2L1350.3,643.4L1351.9,644.46L1353.5,664.4L1356.71,684L1358.31,684L1440,684" style="vector-effect: none; fill: none; stroke: rgb(171, 99, 250); stroke-opacity: 1; stroke-width: 3px; opacity: 1;"/></g><g class="points"/><g class="text"/></g><g class="trace scatter trace2032df" style="stroke-miterlimit: 2; opacity: 1;"><g class="fills"/><g class="errorbars"/><g class="lines"><path class="js-line" d="M0,684L9.61,683.4L11.21,662.83L12.82,515.8L14.42,515.8L16.02,515.8L17.62,540.26L20.82,683.89L22.43,684L150.57,683.99L152.17,679.81L153.77,678.58L155.37,671.6L156.98,671.6L158.58,667.55L161.78,661.93L163.38,656.31L164.98,655.96L166.59,654.58L168.19,654.31L169.79,651.24L171.39,642.56L172.99,639.81L174.59,633.39L176.2,631.57L179.4,624.56L181,589.1L182.6,589.1L184.21,554.6L185.81,537.08L187.41,534.13L189.01,515.8L190.61,515.8L195.42,515.8L197.02,518.28L200.22,529.56L201.82,535.7L203.43,536.56L205.03,536.56L206.63,535.78L208.23,536.74L209.83,534.83L211.44,536.56L214.64,540.86L216.24,540.86L219.44,544.43L221.05,551.09L224.25,608.33L225.85,666.9L229.06,684L230.66,684L579.84,684L581.45,680.05L583.05,676.93L584.65,667.03L587.85,618.99L589.46,546.86L591.06,537.08L592.66,515.8L599.07,515.8L600.67,529.64L602.27,536.39L603.87,554.03L605.47,565.1L607.07,569.96L608.68,576.8L610.28,579.96L611.88,594.19L613.48,594.67L616.69,596.08L618.29,600.59L621.49,614.99L623.09,622.49L624.69,624.34L626.3,633.64L627.9,637.47L629.5,646.62L631.1,647.29L632.7,650.06L635.91,651.53L637.51,651.28L642.31,651.32L643.92,650.65L647.12,649.12L648.72,648.56L650.32,648.56L651.92,646.44L656.73,644.32L658.33,644.73L659.93,642.38L661.54,642.11L663.14,640.52L664.74,642.64L667.94,642.52L669.54,642.8L672.75,643.45L674.35,644.82L675.95,644.91L677.55,646.84L680.76,648.16L682.36,648.08L683.96,648.6L685.56,635.57L688.77,481.47L690.37,481.6L691.97,481.34L693.57,482.24L696.77,482.79L698.38,483.66L699.98,484.73L701.58,489.1L703.18,490.46L704.78,495.13L707.99,499.22L709.59,500.4L714.39,505.65L716,506.31L717.6,509.85L719.2,511.46L724.01,513.76L725.61,514.18L727.21,515.8L728.81,515.8L730.41,509.19L732.01,509.19L733.62,502.83L735.22,502.02L736.82,500.84L738.42,498.7L740.02,498.7L741.62,433.96L744.83,379.66L746.43,376.9L749.63,377.48L751.24,378.07L752.84,357.7L754.44,349.81L756.04,347.6L757.64,347.6L797.69,347.6L799.29,515.8L824.92,515.8L826.52,536.13L828.12,549.11L829.72,652.03L831.32,673.07L832.93,684L1191.72,684L1193.33,671.65L1194.93,671.65L1196.53,515.8L1206.14,515.8L1207.74,502.94L1209.34,347.6L1210.95,347.6L1265.41,347.6L1267.01,398.69L1268.61,398.69L1270.21,515.8L1329.48,515.8L1331.08,618.36L1332.68,663.71L1334.28,684L1440,684" style="vector-effect: none; fill: none; stroke: rgb(255, 161, 90); stroke-opacity: 1; stroke-width: 3px; opacity: 1;"/></g><g class="points"/><g class="text"/></g></g></g></g><path class="xlines-above crisp" d="M0,0" style="fill: none;"/><path class="ylines-above crisp" d="M0,0" style="fill: none;"/><g class="overlines-above"/><g class="xaxislayer-above"><g class="xtick"><text text-anchor="middle" x="0" y="841" transform="translate(238.58,0)" style="font-family: 'Open Sans', verdana, arial, sans-serif; font-size: 20px; fill: rgb(42, 63, 95); fill-opacity: 1; white-space: pre; opacity: 1;">2</text></g><g class="xtick"><text text-anchor="middle" x="0" y="841" style="font-family: 'Open Sans', verdana, arial, sans-serif; font-size: 20px; fill: rgb(42, 63, 95); fill-opacity: 1; white-space: pre; opacity: 1;" transform="translate(398.75,0)">4</text></g><g class="xtick"><text text-anchor="middle" x="0" y="841" style="font-family: 'Open Sans', verdana, arial, sans-serif; font-size: 20px; fill: rgb(42, 63, 95); fill-opacity: 1; white-space: pre; opacity: 1;" transform="translate(558.9300000000001,0)">6</text></g><g class="xtick"><text text-anchor="middle" x="0" y="841" style="font-family: 'Open Sans', verdana, arial, sans-serif; font-size: 20px; fill: rgb(42, 63, 95); fill-opacity: 1; white-space: pre; opacity: 1;" transform="translate(719.11,0)">8</text></g><g class="xtick"><text text-anchor="middle" x="0" y="841" style="font-family: 'Open Sans', verdana, arial, sans-serif; font-size: 20px; fill: rgb(42, 63, 95); fill-opacity: 1; white-space: pre; opacity: 1;" transform="translate(879.29,0)">10</text></g><g class="xtick"><text text-anchor="middle" x="0" y="841" style="font-family: 'Open Sans', verdana, arial, sans-serif; font-size: 20px; fill: rgb(42, 63, 95); fill-opacity: 1; white-space: pre; opacity: 1;" transform="translate(1039.47,0)">12</text></g><g class="xtick"><text text-anchor="middle" x="0" y="841" style="font-family: 'Open Sans', verdana, arial, sans-serif; font-size: 20px; fill: rgb(42, 63, 95); fill-opacity: 1; white-space: pre; opacity: 1;" transform="translate(1199.64,0)">14</text></g><g class="xtick"><text text-anchor="middle" x="0" y="841" style="font-family: 'Open Sans', verdana, arial, sans-serif; font-size: 20px; fill: rgb(42, 63, 95); fill-opacity: 1; white-space: pre; opacity: 1;" transform="translate(1359.82,0)">16</text></g><g class="xtick"><text text-anchor="middle" x="0" y="841" style="font-family: 'Open Sans', verdana, arial, sans-serif; font-size: 20px; fill: rgb(42, 63, 95); fill-opacity: 1; white-space: pre; opacity: 1;" transform="translate(1520,0)">18</text></g></g><g class="yaxislayer-above"><g class="ytick"><text text-anchor="end" x="79" y="7" transform="translate(0,784)" style="font-family: 'Open Sans', verdana, arial, sans-serif; font-size: 20px; fill: rgb(42, 63, 95); fill-opacity: 1; white-space: pre; opacity: 1;">0</text></g><g class="ytick"><text text-anchor="end" x="79" y="7" style="font-family: 'Open Sans', verdana, arial, sans-serif; font-size: 20px; fill: rgb(42, 63, 95); fill-opacity: 1; white-space: pre; opacity: 1;" transform="translate(0,649.44)">0.1</text></g><g class="ytick"><text text-anchor="end" x="79" y="7" style="font-family: 'Open Sans', verdana, arial, sans-serif; font-size: 20px; fill: rgb(42, 63, 95); fill-opacity: 1; white-space: pre; opacity: 1;" transform="translate(0,514.88)">0.2</text></g><g class="ytick"><text text-anchor="end" x="79" y="7" style="font-family: 'Open Sans', verdana, arial, sans-serif; font-size: 20px; fill: rgb(42, 63, 95); fill-opacity: 1; white-space: pre; opacity: 1;" transform="translate(0,380.31)">0.3</text></g><g class="ytick"><text text-anchor="end" x="79" y="7" style="font-family: 'Open Sans', verdana, arial, sans-serif; font-size: 20px; fill: rgb(42, 63, 95); fill-opacity: 1; white-space: pre; opacity: 1;" transform="translate(0,245.75)">0.4</text></g><g class="ytick"><text text-anchor="end" x="79" y="7" style="font-family: 'Open Sans', verdana, arial, sans-serif; font-size: 20px; fill: rgb(42, 63, 95); fill-opacity: 1; white-space: pre; opacity: 1;" transform="translate(0,111.19)">0.5</text></g></g><g class="overaxes-above"/></g></g><g class="polarlayer"/><g class="smithlayer"/><g class="ternarylayer"/><g class="geolayer"/><g class="funnelarealayer"/><g class="pielayer"/><g class="iciclelayer"/><g class="treemaplayer"/><g class="sunburstlayer"/><g class="glimages"/><defs id="topdefs-a91605"><g class="clips"/><clipPath id="legenda91605"><rect width="84" height="181" x="0" y="0"/></clipPath></defs><g class="layer-above"><g class="imagelayer"/><g class="shapelayer"/></g><g class="infolayer"><g class="legend" pointer-events="all" transform="translate(242.72,110.08000000000001)"><rect class="bg" shape-rendering="crispEdges" width="84" height="181" x="0" y="0" style="stroke: rgb(68, 68, 68); stroke-opacity: 1; fill: rgb(255, 255, 255); fill-opacity: 1; stroke-width: 0px;"/><g class="scrollbox" transform="" clip-path="url(#legenda91605)"><g class="groups"><g class="traces" transform="translate(0,22.1)" style="opacity: 1;"><text class="legendtext" text-anchor="start" x="40" y="9.360000000000001" style="font-family: 'Open Sans', verdana, arial, sans-serif; font-size: 24px; fill: rgb(42, 63, 95); fill-opacity: 1; white-space: pre;">1m</text><g class="layers" style="opacity: 1;"><g class="legendfill"/><g class="legendlines"><path class="js-line" d="M5,0h30" style="fill: none; stroke: rgb(99, 110, 250); stroke-opacity: 1; stroke-width: 3px;"/></g><g class="legendsymbols"><g class="legendpoints"/></g></g><rect class="legendtoggle" x="0" y="-17.1" width="78.609375" height="34.2" style="fill: rgb(0, 0, 0); fill-opacity: 0;"/></g><g class="traces" transform="translate(0,56.300000000000004)" style="opacity: 1;"><text class="legendtext" text-anchor="start" x="40" y="9.360000000000001" style="font-family: 'Open Sans', verdana, arial, sans-serif; font-size: 24px; fill: rgb(42, 63, 95); fill-opacity: 1; white-space: pre;">2m</text><g class="layers" style="opacity: 1;"><g class="legendfill"/><g class="legendlines"><path class="js-line" d="M5,0h30" style="fill: none; stroke: rgb(239, 85, 59); stroke-opacity: 1; stroke-width: 3px;"/></g><g class="legendsymbols"><g class="legendpoints"/></g></g><rect class="legendtoggle" x="0" y="-17.1" width="78.609375" height="34.2" style="fill: rgb(0, 0, 0); fill-opacity: 0;"/></g><g class="traces" transform="translate(0,90.5)" style="opacity: 1;"><text class="legendtext" text-anchor="start" x="40" y="9.360000000000001" style="font-family: 'Open Sans', verdana, arial, sans-serif; font-size: 24px; fill: rgb(42, 63, 95); fill-opacity: 1; white-space: pre;">3m</text><g class="layers" style="opacity: 1;"><g class="legendfill"/><g class="legendlines"><path class="js-line" d="M5,0h30" style="fill: none; stroke: rgb(0, 204, 150); stroke-opacity: 1; stroke-width: 3px;"/></g><g class="legendsymbols"><g class="legendpoints"/></g></g><rect class="legendtoggle" x="0" y="-17.1" width="78.609375" height="34.2" style="fill: rgb(0, 0, 0); fill-opacity: 0;"/></g><g class="traces" transform="translate(0,124.70000000000002)" style="opacity: 1;"><text class="legendtext" text-anchor="start" x="40" y="9.360000000000001" style="font-family: 'Open Sans', verdana, arial, sans-serif; font-size: 24px; fill: rgb(42, 63, 95); fill-opacity: 1; white-space: pre;">4m</text><g class="layers" style="opacity: 1;"><g class="legendfill"/><g class="legendlines"><path class="js-line" d="M5,0h30" style="fill: none; stroke: rgb(171, 99, 250); stroke-opacity: 1; stroke-width: 3px;"/></g><g class="legendsymbols"><g class="legendpoints"/></g></g><rect class="legendtoggle" x="0" y="-17.1" width="78.609375" height="34.2" style="fill: rgb(0, 0, 0); fill-opacity: 0;"/></g><g class="traces" transform="translate(0,158.9)" style="opacity: 1;"><text class="legendtext" text-anchor="start" x="40" y="9.360000000000001" style="font-family: 'Open Sans', verdana, arial, sans-serif; font-size: 24px; fill: rgb(42, 63, 95); fill-opacity: 1; white-space: pre;">5m</text><g class="layers" style="opacity: 1;"><g class="legendfill"/><g class="legendlines"><path class="js-line" d="M5,0h30" style="fill: none; stroke: rgb(255, 161, 90); stroke-opacity: 1; stroke-width: 3px;"/></g><g class="legendsymbols"><g class="legendpoints"/></g></g><rect class="legendtoggle" x="0" y="-17.1" width="78.609375" height="34.2" style="fill: rgb(0, 0, 0); fill-opacity: 0;"/></g></g></g><rect class="scrollbar" rx="20" ry="3" width="0" height="0" x="0" y="0" style="fill: rgb(128, 139, 164); fill-opacity: 1;"/></g><g class="g-gtitle"><text class="gtitle" x="800" y="50" text-anchor="middle" dy="0.7em" style="opacity: 1; font-family: 'Open Sans', verdana, arial, sans-serif; font-size: 20px; fill: rgb(42, 63, 95); fill-opacity: 1; font-weight: bold; white-space: pre;">Yielding, Front and no eHMI</text></g><g class="g-xtitle"><text class="xtitle" x="800" y="873.5" text-anchor="middle" style="opacity: 1; font-family: 'Open Sans', verdana, arial, sans-serif; font-size: 20px; fill: rgb(42, 63, 95); fill-opacity: 1; white-space: pre;">Time (in seconds)</text></g><g class="g-ytitle"><text class="ytitle" transform="rotate(-90,24.78125,460)" x="24.78125" y="460" text-anchor="middle" style="opacity: 1; font-family: 'Open Sans', verdana, arial, sans-serif; font-size: 20px; fill: rgb(42, 63, 95); fill-opacity: 1; white-space: pre;">Trigger press</text></g></g></svg>