<svg class="main-svg" xmlns="http://www.w3.org/2000/svg" xmlns:xlink="http://www.w3.org/1999/xlink" width="4800" height="2700" style="" viewBox="0 0 1600 900"><rect x="0" y="0" width="1600" height="900" style="fill: rgb(255, 255, 255); fill-opacity: 1;"/><defs id="defs-032196"><g class="clips"><clipPath id="clip032196xyplot" class="plotclip"><rect width="1433" height="720"/></clipPath><clipPath class="axesclip" id="clip032196x"><rect x="87" y="0" width="1433" height="900"/></clipPath><clipPath class="axesclip" id="clip032196y"><rect x="0" y="100" width="1600" height="720"/></clipPath><clipPath class="axesclip" id="clip032196xy"><rect x="87" y="100" width="1433" height="720"/></clipPath></g><g class="gradients"/><g class="patterns"/></defs><g class="bglayer"><rect class="bg" x="87" y="100" width="1433" height="720" style="fill: rgb(229, 236, 246); fill-opacity: 1; stroke-width: 0;"/></g><g class="layer-below"><g class="imagelayer"/><g class="shapelayer"/></g><g class="cartesianlayer"><g class="subplot xy"><g class="layer-subplot"><g class="shapelayer"/><g class="imagelayer"/></g><g class="minor-gridlayer"><g class="x"/><g class="y"/></g><g class="gridlayer"><g class="x"><path class="xgrid crisp" transform="translate(244.81,0)" d="M0,100v720" style="stroke: rgb(255, 255, 255); stroke-opacity: 1; stroke-width: 1px;"/><path class="xgrid crisp" transform="translate(404.21,0)" d="M0,100v720" style="stroke: rgb(255, 255, 255); stroke-opacity: 1; stroke-width: 1px;"/><path class="xgrid crisp" transform="translate(563.61,0)" d="M0,100v720" style="stroke: rgb(255, 255, 255); stroke-opacity: 1; stroke-width: 1px;"/><path class="xgrid crisp" transform="translate(723,0)" d="M0,100v720" style="stroke: rgb(255, 255, 255); stroke-opacity: 1; stroke-width: 1px;"/><path class="xgrid crisp" transform="translate(882.4,0)" d="M0,100v720" style="stroke: rgb(255, 255, 255); stroke-opacity: 1; stroke-width: 1px;"/><path class="xgrid crisp" transform="translate(1041.8,0)" d="M0,100v720" style="stroke: rgb(255, 255, 255); stroke-opacity: 1; stroke-width: 1px;"/><path class="xgrid crisp" transform="translate(1201.2,0)" d="M0,100v720" style="stroke: rgb(255, 255, 255); stroke-opacity: 1; stroke-width: 1px;"/><path class="xgrid crisp" transform="translate(1360.6,0)" d="M0,100v720" style="stroke: rgb(255, 255, 255); stroke-opacity: 1; stroke-width: 1px;"/></g><g class="y"><path class="ygrid crisp" transform="translate(0,697.6)" d="M87,0h1433" style="stroke: rgb(255, 255, 255); stroke-opacity: 1; stroke-width: 1px;"/><path class="ygrid crisp" transform="translate(0,611.2)" d="M87,0h1433" style="stroke: rgb(255, 255, 255); stroke-opacity: 1; stroke-width: 1px;"/><path class="ygrid crisp" transform="translate(0,524.8)" d="M87,0h1433" style="stroke: rgb(255, 255, 255); stroke-opacity: 1; stroke-width: 1px;"/><path class="ygrid crisp" transform="translate(0,438.4)" d="M87,0h1433" style="stroke: rgb(255, 255, 255); stroke-opacity: 1; stroke-width: 1px;"/><path class="ygrid crisp" transform="translate(0,352)" d="M87,0h1433" style="stroke: rgb(255, 255, 255); stroke-opacity: 1; stroke-width: 1px;"/><path class="ygrid crisp" transform="translate(0,265.6)" d="M87,0h1433" style="stroke: rgb(255, 255, 255); stroke-opacity: 1; stroke-width: 1px;"/><path class="ygrid crisp" transform="translate(0,179.2)" d="M87,0h1433" style="stroke: rgb(255, 255, 255); stroke-opacity: 1; stroke-width: 1px;"/></g></g><g class="zerolinelayer"><path class="yzl zl crisp" transform="translate(0,784)" d="M87,0h1433" style="stroke: rgb(255, 255, 255); stroke-opacity: 1; stroke-width: 2px;"/></g><g class="layer-between"><g class="shapelayer"/><g class="imagelayer"/></g><path class="xlines-below"/><path class="ylines-below"/><g class="overlines-below"/><g class="xaxislayer-below"/><g class="yaxislayer-below"/><g class="overaxes-below"/><g class="overplot"><g class="xy" transform="translate(87,100)" clip-path="url(#clip032196xyplot)"><g class="scatterlayer mlayer"><g class="trace scatter traced51e1d" style="stroke-miterlimit: 2; opacity: 1;"><g class="fills"/><g class="errorbars"/><g class="lines"><path class="js-line" d="M0,684L355.46,684L357.06,680.16L358.65,672.31L360.24,674.94L363.43,680.52L365.03,684L444.73,684L446.32,468L457.48,468L459.07,651.55L460.67,684L462.26,684L492.55,684L494.14,640.9L495.73,523.01L497.33,468L855.98,468L857.57,493.89L859.16,622.91L860.76,684L1147.67,684L1149.27,674.33L1150.86,468L1152.46,468L1295.92,468L1297.51,515.74L1300.7,679.46L1302.29,684L1433,684" style="vector-effect: none; fill: none; stroke: rgb(99, 110, 250); stroke-opacity: 1; stroke-width: 3px; opacity: 1;"/></g><g class="points"/><g class="text"/></g><g class="trace scatter traceeab9a4" style="stroke-miterlimit: 2; opacity: 1;"><g class="fills"/><g class="errorbars"/><g class="lines"><path class="js-line" d="M0,684L275.76,684L277.36,683.06L278.95,678.84L280.55,677.46L282.14,677.56L283.73,679.63L285.33,680.66L286.92,682.63L288.52,683.49L290.11,683.45L301.27,684L302.86,683.42L310.83,683.32L312.42,683.91L326.77,684L328.36,684L516.46,684L518.05,674.44L519.64,674.44L521.24,482.58L522.83,468L524.43,468L592.97,468L594.56,463.72L597.75,396.93L599.34,291.03L600.94,291.03L602.53,285.94L605.72,290.06L607.31,296.05L608.91,296.05L610.5,309.77L612.09,334.31L613.69,375.12L615.28,410.85L616.88,378.93L618.47,252L620.06,252L677.45,252L679.04,332.71L680.64,459.91L682.23,468L720.49,468L722.08,576.89L723.68,660.34L725.27,684L1154.05,684L1155.65,468L1182.74,468L1184.34,466.24L1185.93,463.93L1187.53,454.39L1190.71,439.93L1192.31,419.66L1193.9,411L1195.5,385.04L1197.09,378.77L1198.68,367.68L1200.28,361.98L1201.87,345.68L1203.47,341.61L1205.06,340.15L1206.65,341.15L1208.25,340.97L1211.44,341.88L1213.03,342.98L1216.22,344.6L1217.81,348.36L1219.41,349.07L1221,348.36L1222.59,347.02L1224.19,347.29L1225.78,348.45L1227.38,348.36L1228.97,348.71L1230.56,347.83L1233.75,351.1L1235.35,359.46L1236.94,379.15L1238.53,411.19L1240.13,444.26L1241.72,456.12L1243.32,468L1244.91,468L1308.67,468L1310.26,476.81L1313.45,652.26L1315.05,683.8L1321.42,684L1323.02,684L1433,684" style="vector-effect: none; fill: none; stroke: rgb(239, 85, 59); stroke-opacity: 1; stroke-width: 3px; opacity: 1;"/></g><g class="points"/><g class="text"/></g><g class="trace scatter trace407b07" style="stroke-miterlimit: 2; opacity: 1;"><g class="fills"/><g class="errorbars"/><g class="lines"><path class="js-line" d="M0,684L1138.11,684L1139.71,670.19L1141.3,639.65L1142.89,532.32L1144.49,468L1146.08,468L1149.27,467.7L1150.86,455.09L1154.05,305.36L1155.65,252L1222.59,252L1224.19,245.49L1225.78,234.92L1227.38,200.87L1228.97,196.24L1230.56,196.18L1232.16,43.06L1233.75,36L1244.91,36L1246.5,119.62L1248.1,210.36L1249.69,252L1265.63,252L1267.23,254.13L1272.01,276.55L1273.6,283.75L1275.2,285.5L1276.79,296.9L1278.38,302.98L1279.98,325.45L1281.57,335.99L1283.16,365.39L1284.76,376.21L1286.35,568.85L1287.95,630.67L1289.54,638.82L1291.13,661.96L1292.73,669.47L1294.32,681.2L1295.92,684L1433,684" style="vector-effect: none; fill: none; stroke: rgb(0, 204, 150); stroke-opacity: 1; stroke-width: 3px; opacity: 1;"/></g><g class="points"/><g class="text"/></g><g class="trace scatter trace56fbcb" style="stroke-miterlimit: 2; opacity: 1;"><g class="fills"/><g class="errorbars"/><g class="lines"><path class="js-line" d="M0,684L240.69,684L242.29,682.84L245.48,673L247.07,660.95L248.66,654.89L250.26,641.23L251.85,615.05L253.44,604.64L255.04,574.01L256.63,566.66L258.23,549.74L259.82,543.48L261.42,514.48L263.01,508.53L264.6,507.78L266.2,506.17L267.79,507.57L269.38,506.6L270.98,506.27L272.57,507.35L278.95,505.41L280.54,506.6L282.14,507.03L283.73,506.6L291.7,507.03L293.29,507.67L294.89,507.89L296.48,506.81L298.08,506.17L299.67,507.67L301.27,508.21L302.86,506.27L306.05,508L307.64,506.6L309.23,507.89L310.83,507.57L312.42,508.75L314.02,508.21L315.61,507.24L317.21,507.57L318.8,507.57L320.39,508.53L325.18,509.17L326.77,511.52L328.36,510.35L329.96,510.24L331.55,510.03L333.14,511.41L334.74,510.99L336.33,512.47L337.93,511.31L339.52,513.21L345.9,516.16L347.49,524.44L349.08,535.89L350.68,553.1L352.27,584.65L353.87,597.14L355.46,639.37L357.06,650.69L358.65,660.3L360.24,664.41L365.03,673.21L366.62,676.97L368.21,678.43L369.81,681.1L372.99,684L374.59,684L643.97,684L645.57,562.49L647.16,485.67L648.75,468L957.99,468L959.58,495.11L961.18,665.61L962.77,681.71L964.37,684L965.96,684L1185.93,684L1187.52,674.02L1189.12,665.76L1190.71,630.67L1193.9,609.09L1195.49,551.37L1197.09,400.13L1198.68,419.54L1200.28,419.54L1201.87,336.65L1205.06,79.09L1206.65,74.17L1208.25,71.68L1209.84,66.21L1211.43,66.1L1213.03,66.87L1216.22,68.41L1217.81,67.64L1221,69.5L1222.59,70.7L1225.78,70.59L1227.37,71.24L1228.97,73.63L1230.56,73.09L1232.16,73.74L1233.75,72.22L1235.34,72.76L1236.94,71.79L1238.53,72.11L1240.13,70.92L1241.72,72.98L1243.32,71.79L1244.91,72.55L1246.5,70.7L1248.1,72L1249.69,70.37L1256.07,72.22L1257.66,71.03L1262.44,74.6L1264.04,74.27L1265.63,75.35L1267.22,74.49L1268.82,78.13L1270.41,78.67L1272.01,80.9L1273.6,110.35L1275.19,164.72L1276.79,294.72L1278.38,297.85L1279.98,296.9L1281.57,298.8L1283.16,297.53L1284.76,297.64L1286.35,298.8L1287.95,298.59L1289.54,301.52L1295.92,309.56L1297.51,329.8L1299.1,404.72L1300.7,532.93L1305.48,533.61L1307.07,532.82L1308.67,534.01L1310.26,532.12L1315.04,534.11L1316.64,535.49L1321.42,543.19L1323.01,550.78L1324.61,553.94L1326.2,564L1327.8,573.59L1329.39,588.27L1334.17,640.47L1335.77,648.93L1337.36,671.6L1338.95,681.2L1340.55,684L1342.14,684L1433,684" style="vector-effect: none; fill: none; stroke: rgb(171, 99, 250); stroke-opacity: 1; stroke-width: 3px; opacity: 1;"/></g><g class="points"/><g class="text"/></g><g class="trace scatter trace65f8d1" style="stroke-miterlimit: 2; opacity: 1;"><g class="fills"/><g class="errorbars"/><g class="lines"><path class="js-line" d="M0,684L275.76,684L277.36,682.83L278.95,680.6L280.54,676.59L282.14,668.45L283.73,665.68L285.33,658.62L286.92,656.15L288.51,651.6L290.11,640.69L291.7,636.74L293.3,626.82L294.89,626.13L296.48,623.99L301.27,621.23L302.86,621.42L304.45,620.77L306.05,621.1L310.83,622.01L312.43,620.9L320.39,619.92L321.99,619.13L323.58,619.13L325.18,617.61L326.77,617.87L328.36,617.07L333.15,610.85L334.74,610.01L337.93,607.74L339.52,604.28L342.71,600.89L344.3,596.76L345.9,595.07L347.49,588.51L349.08,588.03L350.68,583.76L352.27,585.06L353.87,584.25L355.46,584.65L357.06,583.27L360.24,582.7L361.84,580.48L363.43,580.89L365.03,579.4L368.21,579.4L369.81,572.3L373,567.71L374.59,567.1L377.78,561.32L379.37,560.33L380.97,556.06L382.56,555.69L384.15,551.43L385.75,549.56L387.34,545.39L388.93,544.05L392.12,539.61L393.72,538.93L398.5,534.9L400.09,535.49L401.69,534.21L403.28,534.31L404.88,533.61L406.47,534.31L409.66,532.52L411.25,533.71L412.85,531.32L414.44,531.42L416.03,532.22L417.63,531.52L420.82,530.42L422.41,531.32L424,532.02L425.6,531.22L428.78,531.42L430.38,532.02L433.57,531.82L435.16,533.21L436.76,532.72L438.35,533.21L439.94,534.6L441.54,534.7L444.72,537.46L446.32,538.14L447.91,538.93L449.51,542.22L451.1,541.55L452.7,548.43L455.88,560.69L457.48,568.5L459.07,572.9L460.67,575.12L463.85,580.97L465.45,585.38L467.04,590.17L468.63,592.37L470.23,599.93L471.82,601.04L475.01,610.71L476.61,620.25L481.39,650.4L482.98,654.44L484.57,664.9L486.17,666.41L487.76,667.31L489.36,670.94L492.55,676.15L494.14,679.33L495.73,682.01L497.33,682.71L498.92,684L500.52,684L706.14,684L707.73,676.28L710.92,493L712.52,468L722.08,468L723.67,476L725.27,480.63L726.86,479.94L728.46,480.86L730.05,478.55L731.64,468L733.24,468L784.25,468L785.84,481.44L787.43,481.44L789.03,564L790.62,595.54L792.21,653.8L793.81,684L795.4,684L1174.77,684L1176.37,681.2L1177.96,468L1179.56,468L1185.93,468L1187.53,323.51L1189.12,252L1190.71,252L1221,252L1222.59,243.46L1225.78,243.46L1227.38,159.74L1228.97,159.74L1230.56,67.42L1233.75,67.42L1235.34,58.08L1238.53,58.08L1240.13,59.99L1243.32,59.99L1244.91,61.22L1248.1,61.22L1249.69,64L1264.04,64L1265.63,72.22L1268.82,72.22L1270.41,74.06L1275.19,75.03L1276.79,78.67L1281.57,295.09L1283.16,295.09L1284.76,294.99L1286.35,294.13L1289.54,294.35L1291.13,297L1292.73,296.37L1294.32,323.26L1295.92,484.28L1297.51,517.83L1299.1,519.71L1300.7,519.71L1305.48,541.93L1307.07,541.93L1310.26,556.15L1311.86,556.15L1313.45,558.7L1315.04,558.61L1318.23,558.34L1319.83,559.16L1323.01,559.34L1324.61,558.52L1327.8,559.34L1329.39,559.34L1334.17,559.97L1335.77,559.79L1340.55,559.97L1342.14,560.87L1345.33,561.41L1346.92,562.76L1348.52,563.74L1350.11,567.1L1351.71,567.1L1353.3,571.1L1354.89,575.46L1356.49,575.46L1358.08,581.71L1359.68,592.52L1361.27,610.71L1362.86,610.71L1366.05,664.94L1367.65,664.94L1369.24,678.62L1370.83,684L1433,684" style="vector-effect: none; fill: none; stroke: rgb(255, 161, 90); stroke-opacity: 1; stroke-width: 3px; opacity: 1;"/></g><g class="points"/><g class="text"/></g></g></g></g><path class="xlines-above crisp" d="M0,0" style="fill: none;"/><path class="ylines-above crisp" d="M0,0" style="fill: none;"/><g class="overlines-above"/><g class="xaxislayer-above"><g class="xtick"><text text-anchor="middle" x="0" y="841" transform="translate(244.81,0)" style="font-family: 'Open Sans', verdana, arial, sans-serif; font-size: 20px; fill: rgb(42, 63, 95); fill-opacity: 1; white-space: pre; opacity: 1;">2</text></g><g class="xtick"><text text-anchor="middle" x="0" y="841" style="font-family: 'Open Sans', verdana, arial, sans-serif; font-size: 20px; fill: rgb(42, 63, 95); fill-opacity: 1; white-space: pre; opacity: 1;" transform="translate(404.21,0)">4</text></g><g class="xtick"><text text-anchor="middle" x="0" y="841" style="font-family: 'Open Sans', verdana, arial, sans-serif; font-size: 20px; fill: rgb(42, 63, 95); fill-opacity: 1; white-space: pre; opacity: 1;" transform="translate(563.61,0)">6</text></g><g class="xtick"><text text-anchor="middle" x="0" y="841" style="font-family: 'Open Sans', verdana, arial, sans-serif; font-size: 20px; fill: rgb(42, 63, 95); fill-opacity: 1; white-space: pre; opacity: 1;" transform="translate(723,0)">8</text></g><g class="xtick"><text text-anchor="middle" x="0" y="841" style="font-family: 'Open Sans', verdana, arial, sans-serif; font-size: 20px; fill: rgb(42, 63, 95); fill-opacity: 1; white-space: pre; opacity: 1;" transform="translate(882.4,0)">10</text></g><g class="xtick"><text text-anchor="middle" x="0" y="841" style="font-family: 'Open Sans', verdana, arial, sans-serif; font-size: 20px; fill: rgb(42, 63, 95); fill-opacity: 1; white-space: pre; opacity: 1;" transform="translate(1041.8,0)">12</text></g><g class="xtick"><text text-anchor="middle" x="0" y="841" style="font-family: 'Open Sans', verdana, arial, sans-serif; font-size: 20px; fill: rgb(42, 63, 95); fill-opacity: 1; white-space: pre; opacity: 1;" transform="translate(1201.2,0)">14</text></g><g class="xtick"><text text-anchor="middle" x="0" y="841" style="font-family: 'Open Sans', verdana, arial, sans-serif; font-size: 20px; fill: rgb(42, 63, 95); fill-opacity: 1; white-space: pre; opacity: 1;" transform="translate(1360.6,0)">16</text></g><g class="xtick"><text text-anchor="middle" x="0" y="841" style="font-family: 'Open Sans', verdana, arial, sans-serif; font-size: 20px; fill: rgb(42, 63, 95); fill-opacity: 1; white-space: pre; opacity: 1;" transform="translate(1520,0)">18</text></g></g><g class="yaxislayer-above"><g class="ytick"><text text-anchor="end" x="86" y="7" transform="translate(0,784)" style="font-family: 'Open Sans', verdana, arial, sans-serif; font-size: 20px; fill: rgb(42, 63, 95); fill-opacity: 1; white-space: pre; opacity: 1;">0</text></g><g class="ytick"><text text-anchor="end" x="86" y="7" style="font-family: 'Open Sans', verdana, arial, sans-serif; font-size: 20px; fill: rgb(42, 63, 95); fill-opacity: 1; white-space: pre; opacity: 1;" transform="translate(0,697.6)">0.05</text></g><g class="ytick"><text text-anchor="end" x="86" y="7" style="font-family: 'Open Sans', verdana, arial, sans-serif; font-size: 20px; fill: rgb(42, 63, 95); fill-opacity: 1; white-space: pre; opacity: 1;" transform="translate(0,611.2)">0.1</text></g><g class="ytick"><text text-anchor="end" x="86" y="7" style="font-family: 'Open Sans', verdana, arial, sans-serif; font-size: 20px; fill: rgb(42, 63, 95); fill-opacity: 1; white-space: pre; opacity: 1;" transform="translate(0,524.8)">0.15</text></g><g class="ytick"><text text-anchor="end" x="86" y="7" style="font-family: 'Open Sans', verdana, arial, sans-serif; font-size: 20px; fill: rgb(42, 63, 95); fill-opacity: 1; white-space: pre; opacity: 1;" transform="translate(0,438.4)">0.2</text></g><g class="ytick"><text text-anchor="end" x="86" y="7" style="font-family: 'Open Sans', verdana, arial, sans-serif; font-size: 20px; fill: rgb(42, 63, 95); fill-opacity: 1; white-space: pre; opacity: 1;" transform="translate(0,352)">0.25</text></g><g class="ytick"><text text-anchor="end" x="86" y="7" style="font-family: 'Open Sans', verdana, arial, sans-serif; font-size: 20px; fill: rgb(42, 63, 95); fill-opacity: 1; white-space: pre; opacity: 1;" transform="translate(0,265.6)">0.3</text></g><g class="ytick"><text text-anchor="end" x="86" y="7" style="font-family: 'Open Sans', verdana, arial, sans-serif; font-size: 20px; fill: rgb(42, 63, 95); fill-opacity: 1; white-space: pre; opacity: 1;" transform="translate(0,179.2)">0.35</text></g></g><g class="overaxes-above"/></g></g><g class="polarlayer"/><g class="smithlayer"/><g class="ternarylayer"/><g class="geolayer"/><g class="funnelarealayer"/><g class="pielayer"/><g class="iciclelayer"/><g class="treemaplayer"/><g class="sunburstlayer"/><g class="glimages"/><defs id="topdefs-032196"><g class="clips"/><clipPath id="legend032196"><rect width="84" height="181" x="0" y="0"/></clipPath></defs><g class="layer-above"><g class="imagelayer"/><g class="shapelayer"/></g><g class="infolayer"><g class="legend" pointer-events="all" transform="translate(248.929,110.08000000000001)"><rect class="bg" shape-rendering="crispEdges" width="84" height="181" x="0" y="0" style="stroke: rgb(68, 68, 68); stroke-opacity: 1; fill: rgb(255, 255, 255); fill-opacity: 1; stroke-width: 0px;"/><g class="scrollbox" transform="" clip-path="url(#legend032196)"><g class="groups"><g class="traces" transform="translate(0,22.1)" style="opacity: 1;"><text class="legendtext" text-anchor="start" x="40" y="9.360000000000001" style="font-family: 'Open Sans', verdana, arial, sans-serif; font-size: 24px; fill: rgb(42, 63, 95); fill-opacity: 1; white-space: pre;">1m</text><g class="layers" style="opacity: 1;"><g class="legendfill"/><g class="legendlines"><path class="js-line" d="M5,0h30" style="fill: none; stroke: rgb(99, 110, 250); stroke-opacity: 1; stroke-width: 3px;"/></g><g class="legendsymbols"><g class="legendpoints"/></g></g><rect class="legendtoggle" x="0" y="-17.1" width="78.609375" height="34.2" style="fill: rgb(0, 0, 0); fill-opacity: 0;"/></g><g class="traces" transform="translate(0,56.300000000000004)" style="opacity: 1;"><text class="legendtext" text-anchor="start" x="40" y="9.360000000000001" style="font-family: 'Open Sans', verdana, arial, sans-serif; font-size: 24px; fill: rgb(42, 63, 95); fill-opacity: 1; white-space: pre;">2m</text><g class="layers" style="opacity: 1;"><g class="legendfill"/><g class="legendlines"><path class="js-line" d="M5,0h30" style="fill: none; stroke: rgb(239, 85, 59); stroke-opacity: 1; stroke-width: 3px;"/></g><g class="legendsymbols"><g class="legendpoints"/></g></g><rect class="legendtoggle" x="0" y="-17.1" width="78.609375" height="34.2" style="fill: rgb(0, 0, 0); fill-opacity: 0;"/></g><g class="traces" transform="translate(0,90.5)" style="opacity: 1;"><text class="legendtext" text-anchor="start" x="40" y="9.360000000000001" style="font-family: 'Open Sans', verdana, arial, sans-serif; font-size: 24px; fill: rgb(42, 63, 95); fill-opacity: 1; white-space: pre;">3m</text><g class="layers" style="opacity: 1;"><g class="legendfill"/><g class="legendlines"><path class="js-line" d="M5,0h30" style="fill: none; stroke: rgb(0, 204, 150); stroke-opacity: 1; stroke-width: 3px;"/></g><g class="legendsymbols"><g class="legendpoints"/></g></g><rect class="legendtoggle" x="0" y="-17.1" width="78.609375" height="34.2" style="fill: rgb(0, 0, 0); fill-opacity: 0;"/></g><g class="traces" transform="translate(0,124.70000000000002)" style="opacity: 1;"><text class="legendtext" text-anchor="start" x="40" y="9.360000000000001" style="font-family: 'Open Sans', verdana, arial, sans-serif; font-size: 24px; fill: rgb(42, 63, 95); fill-opacity: 1; white-space: pre;">4m</text><g class="layers" style="opacity: 1;"><g class="legendfill"/><g class="legendlines"><path class="js-line" d="M5,0h30" style="fill: none; stroke: rgb(171, 99, 250); stroke-opacity: 1; stroke-width: 3px;"/></g><g class="legendsymbols"><g class="legendpoints"/></g></g><rect class="legendtoggle" x="0" y="-17.1" width="78.609375" height="34.2" style="fill: rgb(0, 0, 0); fill-opacity: 0;"/></g><g class="traces" transform="translate(0,158.9)" style="opacity: 1;"><text class="legendtext" text-anchor="start" x="40" y="9.360000000000001" style="font-family: 'Open Sans', verdana, arial, sans-serif; font-size: 24px; fill: rgb(42, 63, 95); fill-opacity: 1; white-space: pre;">5m</text><g class="layers" style="opacity: 1;"><g class="legendfill"/><g class="legendlines"><path class="js-line" d="M5,0h30" style="fill: none; stroke: rgb(255, 161, 90); stroke-opacity: 1; stroke-width: 3px;"/></g><g class="legendsymbols"><g class="legendpoints"/></g></g><rect class="legendtoggle" x="0" y="-17.1" width="78.609375" height="34.2" style="fill: rgb(0, 0, 0); fill-opacity: 0;"/></g></g></g><rect class="scrollbar" rx="20" ry="3" width="0" height="0" x="0" y="0" style="fill: rgb(128, 139, 164); fill-opacity: 1;"/></g><g class="g-gtitle"><text class="gtitle" x="800" y="50" text-anchor="middle" dy="0.7em" style="opacity: 1; font-family: 'Open Sans', verdana, arial, sans-serif; font-size: 20px; fill: rgb(42, 63, 95); fill-opacity: 1; font-weight: bold; white-space: pre;">Yieding, Front and eHMI</text></g><g class="g-xtitle"><text class="xtitle" x="803.5" y="873.5" text-anchor="middle" style="opacity: 1; font-family: 'Open Sans', verdana, arial, sans-serif; font-size: 20px; fill: rgb(42, 63, 95); fill-opacity: 1; white-space: pre;">Time (in seconds)</text></g><g class="g-ytitle" transform="translate(0.921875,0)"><text class="ytitle" transform="rotate(-90,19.078125,460)" x="19.078125" y="460" text-anchor="middle" style="opacity: 1; font-family: 'Open Sans', verdana, arial, sans-serif; font-size: 20px; fill: rgb(42, 63, 95); fill-opacity: 1; white-space: pre;">Trigger press</text></g></g></svg>