<svg class="main-svg" xmlns="http://www.w3.org/2000/svg" xmlns:xlink="http://www.w3.org/1999/xlink" width="4800" height="2700" style="" viewBox="0 0 1600 900"><rect x="0" y="0" width="1600" height="900" style="fill: rgb(255, 255, 255); fill-opacity: 1;"/><defs id="defs-a46182"><g class="clips"><clipPath id="clipa46182xyplot" class="plotclip"><rect width="1440" height="720"/></clipPath><clipPath class="axesclip" id="clipa46182x"><rect x="80" y="0" width="1440" height="900"/></clipPath><clipPath class="axesclip" id="clipa46182y"><rect x="0" y="100" width="1600" height="720"/></clipPath><clipPath class="axesclip" id="clipa46182xy"><rect x="80" y="100" width="1440" height="720"/></clipPath></g><g class="gradients"/><g class="patterns"/></defs><g class="bglayer"><rect class="bg" x="80" y="100" width="1440" height="720" style="fill: rgb(229, 236, 246); fill-opacity: 1; stroke-width: 0;"/></g><g class="layer-below"><g class="imagelayer"/><g class="shapelayer"/></g><g class="cartesianlayer"><g class="subplot xy"><g class="layer-subplot"><g class="shapelayer"/><g class="imagelayer"/></g><g class="minor-gridlayer"><g class="x"/><g class="y"/></g><g class="gridlayer"><g class="x"><path class="xgrid crisp" transform="translate(238.58,0)" d="M0,100v720" style="stroke: rgb(255, 255, 255); stroke-opacity: 1; stroke-width: 1px;"/><path class="xgrid crisp" transform="translate(398.75,0)" d="M0,100v720" style="stroke: rgb(255, 255, 255); stroke-opacity: 1; stroke-width: 1px;"/><path class="xgrid crisp" transform="translate(558.9300000000001,0)" d="M0,100v720" style="stroke: rgb(255, 255, 255); stroke-opacity: 1; stroke-width: 1px;"/><path class="xgrid crisp" transform="translate(719.11,0)" d="M0,100v720" style="stroke: rgb(255, 255, 255); stroke-opacity: 1; stroke-width: 1px;"/><path class="xgrid crisp" transform="translate(879.29,0)" d="M0,100v720" style="stroke: rgb(255, 255, 255); stroke-opacity: 1; stroke-width: 1px;"/><path class="xgrid crisp" transform="translate(1039.47,0)" d="M0,100v720" style="stroke: rgb(255, 255, 255); stroke-opacity: 1; stroke-width: 1px;"/><path class="xgrid crisp" transform="translate(1199.64,0)" d="M0,100v720" style="stroke: rgb(255, 255, 255); stroke-opacity: 1; stroke-width: 1px;"/><path class="xgrid crisp" transform="translate(1359.82,0)" d="M0,100v720" style="stroke: rgb(255, 255, 255); stroke-opacity: 1; stroke-width: 1px;"/></g><g class="y"><path class="ygrid crisp" transform="translate(0,673.4)" d="M80,0h1440" style="stroke: rgb(255, 255, 255); stroke-opacity: 1; stroke-width: 1px;"/><path class="ygrid crisp" transform="translate(0,562.8)" d="M80,0h1440" style="stroke: rgb(255, 255, 255); stroke-opacity: 1; stroke-width: 1px;"/><path class="ygrid crisp" transform="translate(0,452.19)" d="M80,0h1440" style="stroke: rgb(255, 255, 255); stroke-opacity: 1; stroke-width: 1px;"/><path class="ygrid crisp" transform="translate(0,341.59000000000003)" d="M80,0h1440" style="stroke: rgb(255, 255, 255); stroke-opacity: 1; stroke-width: 1px;"/><path class="ygrid crisp" transform="translate(0,230.99)" d="M80,0h1440" style="stroke: rgb(255, 255, 255); stroke-opacity: 1; stroke-width: 1px;"/><path class="ygrid crisp" transform="translate(0,120.39)" d="M80,0h1440" style="stroke: rgb(255, 255, 255); stroke-opacity: 1; stroke-width: 1px;"/></g></g><g class="zerolinelayer"><path class="yzl zl crisp" transform="translate(0,784)" d="M80,0h1440" style="stroke: rgb(255, 255, 255); stroke-opacity: 1; stroke-width: 2px;"/></g><g class="layer-between"><g class="shapelayer"/><g class="imagelayer"/></g><path class="xlines-below"/><path class="ylines-below"/><g class="overlines-below"/><g class="xaxislayer-below"/><g class="yaxislayer-below"/><g class="overaxes-below"/><g class="overplot"><g class="xy" transform="translate(80,100)" clip-path="url(#clipa46182xyplot)"><g class="scatterlayer mlayer"><g class="trace scatter tracef95626" style="stroke-miterlimit: 2; opacity: 1;"><g class="fills"/><g class="errorbars"/><g class="lines"><path class="js-line" d="M0,684L195.42,683.71L197.02,682.49L200.22,680.73L201.83,680.41L208.23,679.37L209.83,679.47L214.64,680.58L216.24,682.29L222.65,684L224.25,684L528.59,684L530.19,655.47L531.79,552.87L533.39,545.75L547.81,545.42L549.41,544.59L562.23,540.74L563.83,494.94L565.43,410.96L567.03,401.61L568.63,399.04L570.23,309.25L573.44,261.02L575.04,260.72L579.84,260.66L581.45,260.53L586.25,260.03L587.85,259.94L592.66,259.64L594.26,259.53L597.46,258.89L599.07,259.21L605.47,259.21L607.08,259.16L623.09,259.27L624.69,259.42L640.71,259.88L642.31,260.09L655.13,260.39L656.73,260.32L664.74,260.72L666.34,122.75L672.75,122.77L674.35,122.57L677.55,122.26L679.16,121.24L682.36,120.71L683.96,120.28L685.56,119.1L687.16,118.98L688.77,117.57L690.37,117.17L691.97,115.13L693.57,111.07L695.17,109.76L696.78,106.71L698.38,105.46L699.98,102.85L703.18,101L704.78,98.49L706.39,97.35L707.99,95.26L709.59,94.27L711.19,91.6L712.79,91.06L714.39,89.13L717.6,88.15L719.2,86.29L720.8,86.25L722.4,84.84L725.61,83.94L727.21,83.04L728.81,82.54L730.41,80.66L732.01,79.45L733.62,76.94L735.22,76.55L736.82,74.96L740.02,73.83L741.62,73.63L744.83,73.28L746.43,72.94L757.64,68.49L759.24,66.41L760.85,66.26L762.45,64.09L772.06,58.28L773.66,56.56L775.26,56.78L776.86,55.38L780.07,53.67L781.67,53.9L784.87,52.87L786.47,53.27L788.08,53.1L789.68,71.84L791.28,71.38L792.88,189.74L797.69,190.38L799.29,189.86L800.89,190.32L802.49,189.8L804.09,190.49L805.7,190.03L808.9,188.99L810.5,189.97L812.1,188.46L813.7,188.7L818.51,186.23L820.11,186.59L821.71,184.39L823.32,183.79L824.92,184.21L826.52,182.65L828.12,182.29L829.72,120.57L831.32,51.67L832.93,42.94L834.53,42.88L836.13,41.91L837.73,41.29L839.33,39.38L842.54,38.26L844.14,37.45L845.74,36.32L847.34,36.88L848.94,36L850.54,36.06L853.75,37.01L855.35,39.01L858.55,47.98L860.16,60.87L861.76,65.42L863.36,76.31L871.37,129.38L872.97,130.97L874.57,130.99L876.17,170.17L877.78,243.44L879.38,269.24L890.59,269.24L892.19,321.32L893.79,400.53L895.4,406.37L897,407.5L898.6,407.5L908.21,407.5L909.81,504.61L911.41,545.75L913.01,545.75L1154.88,545.75L1156.49,542.02L1158.09,507.91L1159.69,407.5L1161.29,406L1162.89,269.24L1233.37,269.24L1234.97,353.01L1236.57,407.5L1238.18,407.5L1255.8,407.5L1257.4,444.4L1260.6,545.75L1262.2,545.75L1273.41,545.75L1275.02,540.52L1276.62,534.09L1278.22,482.78L1281.42,419.17L1283.03,407.5L1287.83,407.5L1289.43,411.19L1291.03,413.36L1292.64,417.78L1295.84,424.56L1297.44,425.63L1299.04,425.98L1300.65,425.35L1302.25,426.48L1303.85,425.77L1305.45,426.83L1307.05,426.2L1313.46,433.09L1315.06,441.52L1316.66,448.47L1318.27,477.19L1319.87,504.82L1321.47,518.75L1323.07,531.33L1324.67,531.33L1326.27,531.33L1327.88,545.75L1440,545.75" style="vector-effect: none; fill: none; stroke: rgb(99, 110, 250); stroke-opacity: 1; stroke-width: 3px; opacity: 1;"/></g><g class="points"/><g class="text"/></g><g class="trace scatter traceba1eb4" style="stroke-miterlimit: 2; opacity: 1;"><g class="fills"/><g class="errorbars"/><g class="lines"><path class="js-line" d="M0,684L144.16,684L145.76,682.9L148.97,678.72L150.57,675.18L153.77,668.72L155.37,668L158.58,662.43L160.18,656.66L161.78,647.2L163.38,645.1L164.98,638.2L166.59,635.64L168.19,624.85L169.79,621.29L171.39,606.8L172.99,601.23L174.59,599.98L176.2,597.65L177.8,597.41L179.4,595.46L181,594.06L182.61,589.32L184.2,587.74L185.81,584.22L187.41,582.59L189.01,582.07L190.61,577.71L192.22,577.11L193.81,574.21L195.42,573.67L201.83,571.55L203.43,570.73L205.03,569.83L206.63,569.9L208.23,569.21L209.83,569.49L211.44,566.63L213.04,566.14L214.64,565.65L216.24,562.82L224.25,561.46L225.85,562.1L229.06,561.53L230.66,561.6L233.86,562.46L235.46,562.75L241.87,565.15L243.47,565.08L246.68,567.19L248.28,567.26L251.48,569.97L253.08,573.06L254.68,578.04L256.29,580.5L257.89,584.35L259.49,599.39L262.69,619L264.29,624.35L265.9,632.6L267.5,634.46L269.1,635.69L270.7,638.51L272.3,639.17L273.9,640.73L278.71,648.39L280.31,653.97L283.52,655.19L285.12,657.55L286.72,659.59L288.32,662.96L289.92,664.14L291.52,668.43L297.93,670.68L299.53,671.92L302.74,672.84L304.34,672.74L305.94,672.44L307.54,673.09L312.35,673.41L313.95,673.63L318.75,674.46L320.36,674.32L323.56,675.41L325.16,675.68L329.97,675.68L331.57,675.76L373.22,676.36L374.82,676.67L394.04,677.63L395.64,677.86L406.85,678.86L408.45,678.81L421.27,679.55L422.87,679.58L430.88,679.59L432.48,679.88L446.9,679.77L448.5,679.68L451.7,679.43L453.31,679.88L469.32,679.7L470.92,679.88L494.95,680.69L496.55,680.66L517.37,680.61L518.98,677.78L522.18,677.82L523.78,542.35L526.99,542.24L528.59,525.82L530.19,265.93L531.79,265.86L543.01,265.9L544.6,265.99L551.01,265.89L552.62,265.93L565.43,266.2L567.03,266.14L583.05,266.18L584.65,292.88L586.25,336.57L587.85,404.73L621.49,405.81L623.09,405.94L629.5,406.31L631.1,406.45L690.37,407.09L691.97,406.98L704.78,407.2L706.39,407.1L744.83,407.5L746.43,406.29L748.03,397.55L749.63,377.14L751.23,269.24L752.84,269.24L880.98,269.24L882.58,289.56L885.78,536.36L887.39,536.36L888.99,536.36L890.59,545.75L1172.5,545.75L1174.11,509.47L1175.71,407.5L1177.31,407.5L1220.55,407.5L1222.16,397.5L1223.76,397.5L1225.36,381.96L1226.96,292.98L1228.56,292.98L1230.17,273.39L1231.77,269.24L1279.82,269.24L1281.42,346.78L1283.03,389.1L1284.63,407.5L1329.48,407.5L1331.08,410.07L1335.88,410.07L1337.49,427.75L1342.29,441.38L1343.89,441.38L1345.49,445.06L1347.1,456.05L1350.3,474.2L1351.9,497.26L1353.5,513.21L1355.1,513.21L1356.71,525.97L1358.31,528.34L1363.12,543.5L1364.72,545.75L1440,545.75" style="vector-effect: none; fill: none; stroke: rgb(239, 85, 59); stroke-opacity: 1; stroke-width: 3px; opacity: 1;"/></g><g class="points"/><g class="text"/></g><g class="trace scatter trace783c05" style="stroke-miterlimit: 2; opacity: 1;"><g class="fills"/><g class="errorbars"/><g class="lines"><path class="js-line" d="M0,684L321.96,684L323.56,674.53L325.16,547.94L326.76,545.75L549.41,545.75L551.01,455.13L552.61,407.5L554.22,407.5L567.03,407.5L568.63,427.54L570.23,509.31L571.84,545.75L586.25,545.75L587.85,543.06L589.46,539.45L591.06,496.63L592.66,388.69L594.26,381.25L595.86,361.34L597.46,308.23L599.07,293.26L600.67,291.66L602.27,282.08L603.87,278.72L605.47,276.74L607.07,277.84L608.68,287.8L610.28,291.52L611.88,292.84L613.48,292.63L616.69,291.87L618.29,292.7L619.89,297.1L621.49,298.66L624.69,304.91L626.3,304.78L629.5,308.61L631.1,319.14L632.7,322.04L634.31,337.37L635.91,347.74L637.51,352.14L639.11,350.97L640.71,350.92L642.31,351.9L643.92,354.68L645.52,356.8L647.12,361.21L648.72,365.17L650.32,366.06L651.92,372.04L653.53,372.82L655.13,373.36L656.73,375.52L664.74,382.59L666.34,382.49L669.54,382.53L671.15,384.32L674.35,388.49L675.95,389.38L679.16,389.95L680.76,389.13L693.57,391.69L695.17,392.9L696.77,376.17L698.38,261.32L699.98,264.81L701.58,266.28L703.18,269.16L704.78,269.24L767.25,269.24L768.85,144.11L770.46,130.99L772.06,130.99L913.01,130.99L914.62,171.13L917.82,480.23L919.42,545.75L1150.08,545.75L1151.68,407.5L1406.36,407.5L1407.96,473.21L1411.17,545.75L1412.77,545.75L1440,545.75" style="vector-effect: none; fill: none; stroke: rgb(0, 204, 150); stroke-opacity: 1; stroke-width: 3px; opacity: 1;"/></g><g class="points"/><g class="text"/></g><g class="trace scatter trace96a320" style="stroke-miterlimit: 2; opacity: 1;"><g class="fills"/><g class="errorbars"/><g class="lines"><path class="js-line" d="M0,684L541.4,684L543,682.31L544.61,550.8L546.21,540.95L547.81,538.11L549.41,529.8L551.01,515.13L552.61,482.37L554.22,469.62L555.82,433.92L557.42,430.75L559.02,425.42L562.22,418.55L563.83,417.24L565.43,417.46L567.03,419.13L568.63,297.08L570.23,298.3L571.84,285.96L573.44,288.37L575.04,290.62L576.64,290.41L581.45,293.53L583.05,293.4L586.25,294.77L587.85,294.84L589.46,294.22L591.06,295.6L594.26,295.6L595.86,296.42L597.46,296.82L599.07,290.12L600.67,179.12L602.27,164.85L603.87,160.81L605.47,163.09L608.68,177.76L610.28,188.99L613.48,198.24L615.08,210.59L616.69,215.76L618.29,235.6L621.49,266.2L623.09,269.24L706.39,269.24L707.99,290.13L709.59,407.5L711.19,407.5L791.28,407.5L792.88,396.26L796.09,269.24L797.69,269.24L834.53,269.24L836.13,255.59L837.73,144.4L839.33,130.99L852.15,130.99L853.75,171.07L855.35,260.18L856.95,269.24L885.79,269.24L887.39,272.11L888.99,300.27L890.59,375.93L892.19,407.5L893.79,407.5L903.4,407.5L905.01,436.1L906.61,544L908.21,545.75L1158.09,545.75L1159.69,458.73L1161.29,407.5L1162.89,407.5L1164.49,400.55L1166.1,269.24L1202.94,269.24L1204.54,263.46L1207.74,223.89L1209.34,202.93L1210.95,149.48L1212.55,144.26L1214.15,135.14L1215.75,133.56L1217.35,133.26L1218.95,136.7L1220.56,277.4L1222.16,283.81L1223.76,284.88L1225.36,287.31L1226.96,290.06L1228.57,295.39L1230.17,350.99L1231.77,440.79L1233.37,508.58L1234.97,522.02L1236.57,543.22L1238.17,545.75L1339.09,545.75L1340.69,625.05L1342.29,664.85L1343.89,684L1440,684" style="vector-effect: none; fill: none; stroke: rgb(171, 99, 250); stroke-opacity: 1; stroke-width: 3px; opacity: 1;"/></g><g class="points"/><g class="text"/></g><g class="trace scatter trace2c45c4" style="stroke-miterlimit: 2; opacity: 1;"><g class="fills"/><g class="errorbars"/><g class="lines"><path class="js-line" d="M0,684L238.67,683.89L240.27,673.5L241.87,658.3L243.47,634.5L246.68,572.44L248.28,557.42L251.48,545.75L253.08,545.75L381.22,546.13L382.83,547.04L387.63,549.22L389.23,549.67L392.44,551.16L394.04,550.64L395.64,551.16L397.24,550.87L398.84,551.46L400.45,550.42L402.05,551.24L403.65,550.87L405.25,549.74L406.85,550.19L408.45,550.64L410.06,550.27L411.66,549.3L413.26,549.45L416.46,550.49L418.06,550.57L421.27,550.12L422.87,549.59L427.68,550.94L429.28,551.98L432.48,555.6L434.08,563.31L435.68,566.84L437.29,589.14L438.89,601.23L440.49,644.4L443.69,665.51L445.29,667.35L446.9,671.07L448.5,676.82L450.1,678.45L451.7,681.73L453.3,681.86L454.91,682.77L458.11,683.63L459.71,684L551.01,684L552.62,658.5L554.22,545.75L555.82,545.75L711.19,545.75L712.79,544L716,525.19L717.6,469.96L720.8,414.4L722.4,407.5L860.16,407.44L861.76,268.22L863.36,269.24L864.96,269.24L882.58,269.24L884.18,359.41L885.78,402.52L887.39,407.5L890.59,407.5L892.19,522.57L893.79,539.93L895.4,625.28L897,681.3L898.6,684L1161.29,684L1162.89,673.76L1164.49,545.75L1166.1,545.75L1259,545.75L1260.6,582.79L1262.2,582.79L1263.81,672.51L1265.41,684L1267.01,684L1440,684" style="vector-effect: none; fill: none; stroke: rgb(255, 161, 90); stroke-opacity: 1; stroke-width: 3px; opacity: 1;"/></g><g class="points"/><g class="text"/></g></g></g></g><path class="xlines-above crisp" d="M0,0" style="fill: none;"/><path class="ylines-above crisp" d="M0,0" style="fill: none;"/><g class="overlines-above"/><g class="xaxislayer-above"><g class="xtick"><text text-anchor="middle" x="0" y="841" transform="translate(238.58,0)" style="font-family: 'Open Sans', verdana, arial, sans-serif; font-size: 20px; fill: rgb(42, 63, 95); fill-opacity: 1; white-space: pre; opacity: 1;">2</text></g><g class="xtick"><text text-anchor="middle" x="0" y="841" style="font-family: 'Open Sans', verdana, arial, sans-serif; font-size: 20px; fill: rgb(42, 63, 95); fill-opacity: 1; white-space: pre; opacity: 1;" transform="translate(398.75,0)">4</text></g><g class="xtick"><text text-anchor="middle" x="0" y="841" style="font-family: 'Open Sans', verdana, arial, sans-serif; font-size: 20px; fill: rgb(42, 63, 95); fill-opacity: 1; white-space: pre; opacity: 1;" transform="translate(558.9300000000001,0)">6</text></g><g class="xtick"><text text-anchor="middle" x="0" y="841" style="font-family: 'Open Sans', verdana, arial, sans-serif; font-size: 20px; fill: rgb(42, 63, 95); fill-opacity: 1; white-space: pre; opacity: 1;" transform="translate(719.11,0)">8</text></g><g class="xtick"><text text-anchor="middle" x="0" y="841" style="font-family: 'Open Sans', verdana, arial, sans-serif; font-size: 20px; fill: rgb(42, 63, 95); fill-opacity: 1; white-space: pre; opacity: 1;" transform="translate(879.29,0)">10</text></g><g class="xtick"><text text-anchor="middle" x="0" y="841" style="font-family: 'Open Sans', verdana, arial, sans-serif; font-size: 20px; fill: rgb(42, 63, 95); fill-opacity: 1; white-space: pre; opacity: 1;" transform="translate(1039.47,0)">12</text></g><g class="xtick"><text text-anchor="middle" x="0" y="841" style="font-family: 'Open Sans', verdana, arial, sans-serif; font-size: 20px; fill: rgb(42, 63, 95); fill-opacity: 1; white-space: pre; opacity: 1;" transform="translate(1199.64,0)">14</text></g><g class="xtick"><text text-anchor="middle" x="0" y="841" style="font-family: 'Open Sans', verdana, arial, sans-serif; font-size: 20px; fill: rgb(42, 63, 95); fill-opacity: 1; white-space: pre; opacity: 1;" transform="translate(1359.82,0)">16</text></g><g class="xtick"><text text-anchor="middle" x="0" y="841" style="font-family: 'Open Sans', verdana, arial, sans-serif; font-size: 20px; fill: rgb(42, 63, 95); fill-opacity: 1; white-space: pre; opacity: 1;" transform="translate(1520,0)">18</text></g></g><g class="yaxislayer-above"><g class="ytick"><text text-anchor="end" x="79" y="7" transform="translate(0,784)" style="font-family: 'Open Sans', verdana, arial, sans-serif; font-size: 20px; fill: rgb(42, 63, 95); fill-opacity: 1; white-space: pre; opacity: 1;">0</text></g><g class="ytick"><text text-anchor="end" x="79" y="7" style="font-family: 'Open Sans', verdana, arial, sans-serif; font-size: 20px; fill: rgb(42, 63, 95); fill-opacity: 1; white-space: pre; opacity: 1;" transform="translate(0,673.4)">0.1</text></g><g class="ytick"><text text-anchor="end" x="79" y="7" style="font-family: 'Open Sans', verdana, arial, sans-serif; font-size: 20px; fill: rgb(42, 63, 95); fill-opacity: 1; white-space: pre; opacity: 1;" transform="translate(0,562.8)">0.2</text></g><g class="ytick"><text text-anchor="end" x="79" y="7" style="font-family: 'Open Sans', verdana, arial, sans-serif; font-size: 20px; fill: rgb(42, 63, 95); fill-opacity: 1; white-space: pre; opacity: 1;" transform="translate(0,452.19)">0.3</text></g><g class="ytick"><text text-anchor="end" x="79" y="7" style="font-family: 'Open Sans', verdana, arial, sans-serif; font-size: 20px; fill: rgb(42, 63, 95); fill-opacity: 1; white-space: pre; opacity: 1;" transform="translate(0,341.59000000000003)">0.4</text></g><g class="ytick"><text text-anchor="end" x="79" y="7" style="font-family: 'Open Sans', verdana, arial, sans-serif; font-size: 20px; fill: rgb(42, 63, 95); fill-opacity: 1; white-space: pre; opacity: 1;" transform="translate(0,230.99)">0.5</text></g><g class="ytick"><text text-anchor="end" x="79" y="7" style="font-family: 'Open Sans', verdana, arial, sans-serif; font-size: 20px; fill: rgb(42, 63, 95); fill-opacity: 1; white-space: pre; opacity: 1;" transform="translate(0,120.39)">0.6</text></g></g><g class="overaxes-above"/></g></g><g class="polarlayer"/><g class="smithlayer"/><g class="ternarylayer"/><g class="geolayer"/><g class="funnelarealayer"/><g class="pielayer"/><g class="iciclelayer"/><g class="treemaplayer"/><g class="sunburstlayer"/><g class="glimages"/><defs id="topdefs-a46182"><g class="clips"/><clipPath id="legenda46182"><rect width="84" height="181" x="0" y="0"/></clipPath></defs><g class="layer-above"><g class="imagelayer"/><g class="shapelayer"/></g><g class="infolayer"><g class="legend" pointer-events="all" transform="translate(242.72,110.08000000000001)"><rect class="bg" shape-rendering="crispEdges" width="84" height="181" x="0" y="0" style="stroke: rgb(68, 68, 68); stroke-opacity: 1; fill: rgb(255, 255, 255); fill-opacity: 1; stroke-width: 0px;"/><g class="scrollbox" transform="" clip-path="url(#legenda46182)"><g class="groups"><g class="traces" transform="translate(0,22.1)" style="opacity: 1;"><text class="legendtext" text-anchor="start" x="40" y="9.360000000000001" style="font-family: 'Open Sans', verdana, arial, sans-serif; font-size: 24px; fill: rgb(42, 63, 95); fill-opacity: 1; white-space: pre;">1m</text><g class="layers" style="opacity: 1;"><g class="legendfill"/><g class="legendlines"><path class="js-line" d="M5,0h30" style="fill: none; stroke: rgb(99, 110, 250); stroke-opacity: 1; stroke-width: 3px;"/></g><g class="legendsymbols"><g class="legendpoints"/></g></g><rect class="legendtoggle" x="0" y="-17.1" width="78.609375" height="34.2" style="fill: rgb(0, 0, 0); fill-opacity: 0;"/></g><g class="traces" transform="translate(0,56.300000000000004)" style="opacity: 1;"><text class="legendtext" text-anchor="start" x="40" y="9.360000000000001" style="font-family: 'Open Sans', verdana, arial, sans-serif; font-size: 24px; fill: rgb(42, 63, 95); fill-opacity: 1; white-space: pre;">2m</text><g class="layers" style="opacity: 1;"><g class="legendfill"/><g class="legendlines"><path class="js-line" d="M5,0h30" style="fill: none; stroke: rgb(239, 85, 59); stroke-opacity: 1; stroke-width: 3px;"/></g><g class="legendsymbols"><g class="legendpoints"/></g></g><rect class="legendtoggle" x="0" y="-17.1" width="78.609375" height="34.2" style="fill: rgb(0, 0, 0); fill-opacity: 0;"/></g><g class="traces" transform="translate(0,90.5)" style="opacity: 1;"><text class="legendtext" text-anchor="start" x="40" y="9.360000000000001" style="font-family: 'Open Sans', verdana, arial, sans-serif; font-size: 24px; fill: rgb(42, 63, 95); fill-opacity: 1; white-space: pre;">3m</text><g class="layers" style="opacity: 1;"><g class="legendfill"/><g class="legendlines"><path class="js-line" d="M5,0h30" style="fill: none; stroke: rgb(0, 204, 150); stroke-opacity: 1; stroke-width: 3px;"/></g><g class="legendsymbols"><g class="legendpoints"/></g></g><rect class="legendtoggle" x="0" y="-17.1" width="78.609375" height="34.2" style="fill: rgb(0, 0, 0); fill-opacity: 0;"/></g><g class="traces" transform="translate(0,124.70000000000002)" style="opacity: 1;"><text class="legendtext" text-anchor="start" x="40" y="9.360000000000001" style="font-family: 'Open Sans', verdana, arial, sans-serif; font-size: 24px; fill: rgb(42, 63, 95); fill-opacity: 1; white-space: pre;">4m</text><g class="layers" style="opacity: 1;"><g class="legendfill"/><g class="legendlines"><path class="js-line" d="M5,0h30" style="fill: none; stroke: rgb(171, 99, 250); stroke-opacity: 1; stroke-width: 3px;"/></g><g class="legendsymbols"><g class="legendpoints"/></g></g><rect class="legendtoggle" x="0" y="-17.1" width="78.609375" height="34.2" style="fill: rgb(0, 0, 0); fill-opacity: 0;"/></g><g class="traces" transform="translate(0,158.9)" style="opacity: 1;"><text class="legendtext" text-anchor="start" x="40" y="9.360000000000001" style="font-family: 'Open Sans', verdana, arial, sans-serif; font-size: 24px; fill: rgb(42, 63, 95); fill-opacity: 1; white-space: pre;">5m</text><g class="layers" style="opacity: 1;"><g class="legendfill"/><g class="legendlines"><path class="js-line" d="M5,0h30" style="fill: none; stroke: rgb(255, 161, 90); stroke-opacity: 1; stroke-width: 3px;"/></g><g class="legendsymbols"><g class="legendpoints"/></g></g><rect class="legendtoggle" x="0" y="-17.1" width="78.609375" height="34.2" style="fill: rgb(0, 0, 0); fill-opacity: 0;"/></g></g></g><rect class="scrollbar" rx="20" ry="3" width="0" height="0" x="0" y="0" style="fill: rgb(128, 139, 164); fill-opacity: 1;"/></g><g class="g-gtitle"><text class="gtitle" x="800" y="50" text-anchor="middle" dy="0.7em" style="opacity: 1; font-family: 'Open Sans', verdana, arial, sans-serif; font-size: 20px; fill: rgb(42, 63, 95); fill-opacity: 1; font-weight: bold; white-space: pre;">Yielding, Back and no eHMI</text></g><g class="g-xtitle"><text class="xtitle" x="800" y="873.5" text-anchor="middle" style="opacity: 1; font-family: 'Open Sans', verdana, arial, sans-serif; font-size: 20px; fill: rgb(42, 63, 95); fill-opacity: 1; white-space: pre;">Time (in seconds)</text></g><g class="g-ytitle"><text class="ytitle" transform="rotate(-90,24.78125,460)" x="24.78125" y="460" text-anchor="middle" style="opacity: 1; font-family: 'Open Sans', verdana, arial, sans-serif; font-size: 20px; fill: rgb(42, 63, 95); fill-opacity: 1; white-space: pre;">Trigger press</text></g></g></svg>