<svg class="main-svg" xmlns="http://www.w3.org/2000/svg" xmlns:xlink="http://www.w3.org/1999/xlink" width="4800" height="2700" style="" viewBox="0 0 1600 900"><rect x="0" y="0" width="1600" height="900" style="fill: rgb(255, 255, 255); fill-opacity: 1;"/><defs id="defs-26c053"><g class="clips"><clipPath id="clip26c053xyplot" class="plotclip"><rect width="1440" height="720"/></clipPath><clipPath class="axesclip" id="clip26c053x"><rect x="80" y="0" width="1440" height="900"/></clipPath><clipPath class="axesclip" id="clip26c053y"><rect x="0" y="100" width="1600" height="720"/></clipPath><clipPath class="axesclip" id="clip26c053xy"><rect x="80" y="100" width="1440" height="720"/></clipPath></g><g class="gradients"/><g class="patterns"/></defs><g class="bglayer"><rect class="bg" x="80" y="100" width="1440" height="720" style="fill: rgb(229, 236, 246); fill-opacity: 1; stroke-width: 0;"/></g><g class="layer-below"><g class="imagelayer"/><g class="shapelayer"/></g><g class="cartesianlayer"><g class="subplot xy"><g class="layer-subplot"><g class="shapelayer"/><g class="imagelayer"/></g><g class="minor-gridlayer"><g class="x"/><g class="y"/></g><g class="gridlayer"><g class="x"><path class="xgrid crisp" transform="translate(221.41,0)" d="M0,100v720" style="stroke: rgb(255, 255, 255); stroke-opacity: 1; stroke-width: 1px;"/><path class="xgrid crisp" transform="translate(365.69,0)" d="M0,100v720" style="stroke: rgb(255, 255, 255); stroke-opacity: 1; stroke-width: 1px;"/><path class="xgrid crisp" transform="translate(509.98,0)" d="M0,100v720" style="stroke: rgb(255, 255, 255); stroke-opacity: 1; stroke-width: 1px;"/><path class="xgrid crisp" transform="translate(654.27,0)" d="M0,100v720" style="stroke: rgb(255, 255, 255); stroke-opacity: 1; stroke-width: 1px;"/><path class="xgrid crisp" transform="translate(798.56,0)" d="M0,100v720" style="stroke: rgb(255, 255, 255); stroke-opacity: 1; stroke-width: 1px;"/><path class="xgrid crisp" transform="translate(942.85,0)" d="M0,100v720" style="stroke: rgb(255, 255, 255); stroke-opacity: 1; stroke-width: 1px;"/><path class="xgrid crisp" transform="translate(1087.1399999999999,0)" d="M0,100v720" style="stroke: rgb(255, 255, 255); stroke-opacity: 1; stroke-width: 1px;"/><path class="xgrid crisp" transform="translate(1231.42,0)" d="M0,100v720" style="stroke: rgb(255, 255, 255); stroke-opacity: 1; stroke-width: 1px;"/><path class="xgrid crisp" transform="translate(1375.71,0)" d="M0,100v720" style="stroke: rgb(255, 255, 255); stroke-opacity: 1; stroke-width: 1px;"/></g><g class="y"><path class="ygrid crisp" transform="translate(0,654.4)" d="M80,0h1440" style="stroke: rgb(255, 255, 255); stroke-opacity: 1; stroke-width: 1px;"/><path class="ygrid crisp" transform="translate(0,524.8)" d="M80,0h1440" style="stroke: rgb(255, 255, 255); stroke-opacity: 1; stroke-width: 1px;"/><path class="ygrid crisp" transform="translate(0,395.2)" d="M80,0h1440" style="stroke: rgb(255, 255, 255); stroke-opacity: 1; stroke-width: 1px;"/><path class="ygrid crisp" transform="translate(0,265.6)" d="M80,0h1440" style="stroke: rgb(255, 255, 255); stroke-opacity: 1; stroke-width: 1px;"/><path class="ygrid crisp" transform="translate(0,136)" d="M80,0h1440" style="stroke: rgb(255, 255, 255); stroke-opacity: 1; stroke-width: 1px;"/></g></g><g class="zerolinelayer"><path class="yzl zl crisp" transform="translate(0,784)" d="M80,0h1440" style="stroke: rgb(255, 255, 255); stroke-opacity: 1; stroke-width: 2px;"/></g><g class="layer-between"><g class="shapelayer"/><g class="imagelayer"/></g><path class="xlines-below"/><path class="ylines-below"/><g class="overlines-below"/><g class="xaxislayer-below"/><g class="yaxislayer-below"/><g class="overaxes-below"/><g class="overplot"><g class="xy" transform="translate(80,100)" clip-path="url(#clip26c053xyplot)"><g class="scatterlayer mlayer"><g class="trace scatter trace82b7cd" style="stroke-miterlimit: 2; opacity: 1;"><g class="fills"/><g class="errorbars"/><g class="lines"><path class="js-line" d="M0,684L450.18,683.32L453.07,682.78L458.84,679.52L461.72,675.31L464.61,673.66L467.5,668.84L470.38,667.16L473.27,666.89L476.15,663.91L479.04,662.39L481.93,656.86L484.81,655.32L487.7,651.77L490.58,651.43L493.47,650.54L496.35,648.7L505.01,645.67L507.9,645.77L516.55,644.87L519.44,643.42L528.1,641.44L530.98,641.66L539.64,641.89L542.53,641.63L562.73,641.6L565.61,642.18L571.38,641.34L574.27,641.6L577.16,642.11L580.04,641.79L585.81,641.89L588.7,641.89L594.47,642.21L597.36,643.07L603.13,642.76L606.01,643.36L634.87,644.74L637.76,645.74L646.41,647.41L649.3,648.01L652.19,649.67L655.07,650.1L657.96,651.54L660.84,651.77L663.73,653.61L666.61,653.83L672.39,655.16L675.27,655.56L683.93,656.7L686.82,656.86L692.59,657.84L695.47,658.7L701.24,659.85L704.13,661.52L707.01,662.53L709.9,662.65L724.33,663.43L727.22,663.2L741.65,663.62L744.53,664.29L753.19,664.87L756.07,666.28L764.73,667.76L767.62,668.66L770.5,670.14L773.39,670.44L787.82,673.02L790.7,673.39L799.36,674.83L802.24,675.66L805.13,675.83L808.02,676.77L822.44,681.27L825.33,681.5L836.87,683.73L839.76,683.81L851.3,684L854.19,684L897.48,684L900.36,674.97L903.25,603L906.13,603L917.68,602.87L920.56,598.04L923.45,530.45L926.33,522L937.88,522L940.76,520.2L943.65,516.14L946.53,509.85L949.42,499.12L952.3,484.19L955.19,465.27L958.08,457.63L960.96,452.45L963.85,450.28L966.73,444.22L969.62,441L1021.56,440.76L1024.45,439.33L1027.34,359.93L1030.22,360L1035.99,360L1038.88,279L1079.28,278.36L1082.17,278.1L1102.37,277.75L1105.25,277.7L1113.91,277.51L1116.79,223.16L1119.68,195.87L1122.57,188.36L1125.45,181.2L1128.34,145.84L1131.22,135.45L1134.11,134.39L1136.99,133.2L1139.88,130.66L1145.65,125.79L1148.54,121.3L1154.31,118.59L1157.2,118.59L1162.97,117L1165.85,36L1171.62,36L1174.51,97.98L1177.4,117L1180.28,117L1226.45,117L1229.34,166.78L1235.11,198L1238,198L1287.05,198L1289.94,207.08L1292.83,278.73L1295.71,279L1382.28,279L1385.17,284.43L1388.06,365.43L1390.94,374.92L1393.83,378.69L1396.71,387.98L1402.49,408.45L1405.37,423L1408.26,427.44L1411.14,434.32L1414.03,435.93L1416.91,438.88L1425.57,441L1428.46,441L1440,441" style="vector-effect: none; fill: none; stroke: rgb(99, 110, 250); stroke-opacity: 1; stroke-width: 3px; opacity: 1;"/></g><g class="points"/><g class="text"/></g><g class="trace scatter trace27d086" style="stroke-miterlimit: 2; opacity: 1;"><g class="fills"/><g class="errorbars"/><g class="lines"><path class="js-line" d="M0,684L773.39,684L776.27,670.46L779.16,624.82L782.04,603.75L787.82,603L790.7,603L854.19,603L857.08,598.08L859.96,573.43L862.85,522L992.71,521.89L995.59,514.5L1004.25,401.62L1007.14,373.26L1010.02,291.52L1012.91,289.46L1021.57,284.04L1024.45,282.87L1030.22,281.47L1033.1,282.96L1035.99,300.86L1038.88,328.64L1041.76,365.43L1044.65,366.07L1047.53,366.84L1050.42,366.41L1059.08,368.2L1061.97,367.9L1070.62,369.67L1073.51,351.08L1076.4,289.71L1079.28,289.29L1087.94,290.78L1090.82,290.45L1096.59,290.86L1099.48,219.86L1102.36,210.52L1105.25,210.44L1113.91,211.05L1116.8,211.22L1125.45,210.48L1128.34,210.11L1142.77,210.77L1145.65,209.2L1151.42,209.7L1154.31,208.96L1174.51,205.77L1177.39,204.41L1180.28,194.81L1183.17,118.2L1186.05,117.98L1188.94,117L1197.6,117L1200.48,141.6L1203.37,198L1206.25,198L1261.08,198L1263.97,210.89L1266.85,279L1269.74,279L1315.91,279L1318.8,318.34L1321.68,357.1L1324.57,360L1347.66,360L1350.54,382.04L1353.43,437.97L1356.31,441L1440,441" style="vector-effect: none; fill: none; stroke: rgb(239, 85, 59); stroke-opacity: 1; stroke-width: 3px; opacity: 1;"/></g><g class="points"/><g class="text"/></g><g class="trace scatter tracec61bc0" style="stroke-miterlimit: 2; opacity: 1;"><g class="fills"/><g class="errorbars"/><g class="lines"><path class="js-line" d="M0,684L259.72,683.72L262.61,682.61L265.49,682L268.38,679.42L271.26,677.92L274.15,672.97L277.03,668.82L279.92,661.52L282.81,658.27L285.69,646.26L291.46,638L294.35,627.72L297.24,622.04L300.12,618.84L303.01,617.96L305.89,615.73L308.78,615.64L311.66,614.62L320.32,611.83L323.21,610.82L328.98,609.67L331.86,608.51L340.52,608.3L343.41,608.73L352.06,606.83L354.95,606.91L357.84,607.48L360.72,607.13L363.61,607.09L366.49,606.3L378.04,605.78L380.92,605.91L386.69,605.82L389.58,605.17L398.24,606L401.12,605.43L409.78,605.74L412.66,605.34L418.44,606L421.32,605.74L441.52,606.87L444.41,606.91L458.84,608.12L461.73,608.08L481.93,610.82L484.81,611.83L490.58,612.88L493.47,612.71L499.24,612.92L502.13,612.67L519.44,612.88L522.32,612.5L551.18,612.67L554.07,613.04L556.95,612.67L559.84,613.42L574.27,617.27L577.15,618.16L585.81,619.12L588.7,620.19L591.59,620.86L594.47,622.86L600.24,625.23L603.13,628.75L606.01,630.87L608.9,636.84L614.67,643.9L617.56,646.9L623.33,646.9L626.22,653.69L631.98,655L634.87,657.73L637.75,659.1L640.64,659.28L643.53,659.7L646.41,659.35L652.18,660.49L655.07,660.39L692.58,663.64L695.47,663.46L707.02,665.76L709.9,666.85L712.79,668.52L715.67,668.96L724.33,670.14L727.21,671.33L747.41,678.83L750.3,679.27L756.07,680.27L758.96,681.56L761.85,682.18L764.73,683.77L776.27,684L779.16,684L888.82,684L891.7,683.14L894.59,681.29L897.48,677.16L900.36,674.99L903.25,666.81L906.13,663.36L909.02,655.67L914.79,636.67L917.67,612.19L920.56,592.53L923.45,532.42L926.33,531.5L929.22,529.39L934.99,527.98L937.87,527.08L940.76,527.08L943.64,524.6L949.42,524.69L952.31,519.42L955.19,459.52L958.08,442.11L963.85,441.36L966.73,441.31L975.39,441L978.28,441L1033.11,440.59L1035.99,439.34L1038.88,439.34L1041.77,432.42L1044.65,350.14L1047.53,339.05L1050.42,245.74L1053.31,192.83L1056.19,187.64L1059.08,169.29L1061.96,169.29L1064.85,158.87L1067.74,149.64L1070.62,149.64L1073.51,149.64L1076.39,138.32L1079.28,138.32L1082.16,117L1151.42,117L1154.31,36L1174.51,36L1177.39,79.1L1180.28,114.1L1183.17,117L1197.59,117.75L1200.48,176.63L1203.37,198L1206.25,198L1324.57,198L1327.46,200.17L1330.34,200.17L1333.22,279L1399.6,279L1402.49,313.25L1405.37,360L1408.26,360L1440,360" style="vector-effect: none; fill: none; stroke: rgb(0, 204, 150); stroke-opacity: 1; stroke-width: 3px; opacity: 1;"/></g><g class="points"/><g class="text"/></g><g class="trace scatter tracebc3fa4" style="stroke-miterlimit: 2; opacity: 1;"><g class="fills"/><g class="errorbars"/><g class="lines"><path class="js-line" d="M0,684L291.46,683.79L294.35,682.66L297.23,682.66L300.12,679.56L303.01,677.45L305.89,673.46L308.78,671.96L311.66,667.37L314.55,666.09L317.43,661.64L320.32,659.45L323.21,656.25L326.09,653.86L328.98,653.64L331.86,651.71L334.75,651.51L343.41,643.55L346.29,639.7L352.06,638.33L354.95,637.62L357.84,635.88L360.72,635.12L363.61,632.24L366.49,631.63L369.38,631.27L372.26,631.7L378.04,631.16L380.92,630.54L383.81,629.67L386.69,629.74L404.01,627.98L406.89,627.27L412.67,628.46L415.55,628.35L421.32,626.67L424.21,626.86L435.75,625.84L438.64,625.23L447.3,624.89L450.18,624.89L458.84,624.43L461.72,624.93L476.15,626.33L479.04,625.95L493.47,626.14L496.35,625.95L499.24,625.42L502.13,626.37L519.44,626.37L522.32,626.78L528.1,627.04L530.98,627.53L539.64,628.35L542.53,627.38L545.41,628.05L548.3,627.72L559.84,629.16L562.72,629.16L571.38,634.01L574.27,635.64L577.15,638.9L580.04,647.56L585.81,653.61L588.7,660.04L597.35,671.49L600.24,672.79L603.13,675.93L606.01,676.48L608.9,679.06L611.78,680.58L617.55,684L620.44,684L848.42,683.37L851.3,676.21L854.19,666.17L857.07,602.39L894.59,602.47L897.47,602.45L914.79,602.2L917.68,601.43L920.56,521.15L923.44,521.2L958.08,518.74L960.96,517.63L969.62,515.99L972.51,511.12L975.39,430.69L978.27,424.49L981.16,411.13L984.05,403.71L986.93,377.67L989.82,374.27L992.7,364.22L995.59,360L1015.79,360L1018.68,341.79L1021.56,277.53L1024.45,273.51L1030.22,260.57L1033.1,248.17L1035.99,243.16L1038.88,225.54L1044.65,213.72L1047.53,209.86L1053.31,205.05L1056.19,218L1059.08,264.09L1061.97,279L1082.16,279L1085.05,277.22L1087.93,252.48L1090.82,202.35L1093.71,198L1096.59,198L1197.59,198L1200.48,194.8L1203.37,117L1206.25,117L1217.79,117L1220.68,135.45L1223.57,198L1226.45,198L1278.4,198L1281.28,203.68L1287.05,207.92L1289.94,214.6L1292.82,221.44L1295.71,243.76L1298.59,253.09L1301.48,275.44L1304.37,277.97L1307.25,279L1370.74,279L1373.63,292.38L1376.51,316.49L1379.4,432.09L1382.28,441L1385.17,441L1440,441" style="vector-effect: none; fill: none; stroke: rgb(171, 99, 250); stroke-opacity: 1; stroke-width: 3px; opacity: 1;"/></g><g class="points"/><g class="text"/></g><g class="trace scatter trace9cd4bf" style="stroke-miterlimit: 2; opacity: 1;"><g class="fills"/><g class="errorbars"/><g class="lines"><path class="js-line" d="M0,684L585.81,684L588.7,682.12L591.58,674.78L594.47,662.53L597.36,641.73L600.24,635.16L603.13,624.82L606.01,624.66L617.56,625.35L620.44,622.86L623.33,619.84L626.21,619.48L631.99,620.35L634.87,620.43L643.53,619.64L646.41,620.35L652.18,620.98L655.07,620.43L657.96,620.47L660.84,621.3L663.73,622.31L666.61,622.04L672.39,621.69L675.27,620.71L692.59,620.55L695.47,620.78L721.44,620.86L724.33,620.67L730.1,620.51L732.99,620.15L744.53,619.52L747.42,619.56L758.96,619.44L761.84,619.36L773.39,619.52L776.27,620.15L779.16,620.55L782.05,622L790.7,623.28L793.59,625.16L796.47,626.71L799.36,626.93L805.13,628.64L808.02,632.84L810.9,635.16L813.79,644.99L816.67,650.16L819.56,670.7L822.45,679.58L825.33,682.31L828.22,684L831.1,684L894.59,684L897.48,682.78L903.25,608.47L906.13,603L934.99,603L937.88,522L975.39,521.7L978.28,512.15L981.16,504.66L984.05,481.83L986.93,479.53L989.82,484.59L992.71,498.87L995.59,502.65L998.48,508.94L1001.36,509.54L1012.91,507.89L1015.79,507.1L1027.33,505.2L1030.22,503.22L1041.76,501.43L1044.65,431.82L1047.54,421.13L1050.42,420.85L1053.31,339.48L1056.19,339.02L1064.85,338.63L1067.73,338.65L1073.51,337.69L1076.39,337.73L1079.28,337.83L1082.16,337.11L1090.82,338.09L1093.71,338.32L1111.02,338.28L1113.91,338.09L1119.68,337.62L1122.56,265.34L1125.45,257.3L1128.34,256.97L1151.42,257.63L1154.31,257.28L1162.97,257.14L1165.85,257.11L1174.51,256.47L1177.39,255.58L1180.28,254.3L1183.17,207.37L1186.05,200.87L1188.94,198L1240.88,198.18L1243.77,220.69L1246.65,279L1249.54,279L1255.31,282.04L1258.2,284.38L1261.08,291.85L1263.97,306.51L1269.74,349.84L1272.63,360L1330.34,360L1333.23,361.24L1336.11,441L1339,441L1396.71,441L1399.6,505.78L1402.48,522L1405.37,522L1440,522" style="vector-effect: none; fill: none; stroke: rgb(255, 161, 90); stroke-opacity: 1; stroke-width: 3px; opacity: 1;"/></g><g class="points"/><g class="text"/></g></g></g></g><path class="xlines-above crisp" d="M0,0" style="fill: none;"/><path class="ylines-above crisp" d="M0,0" style="fill: none;"/><g class="overlines-above"/><g class="xaxislayer-above"><g class="xtick"><text text-anchor="middle" x="0" y="841" transform="translate(221.41,0)" style="font-family: 'Open Sans', verdana, arial, sans-serif; font-size: 20px; fill: rgb(42, 63, 95); fill-opacity: 1; white-space: pre; opacity: 1;">1</text></g><g class="xtick"><text text-anchor="middle" x="0" y="841" style="font-family: 'Open Sans', verdana, arial, sans-serif; font-size: 20px; fill: rgb(42, 63, 95); fill-opacity: 1; white-space: pre; opacity: 1;" transform="translate(365.69,0)">2</text></g><g class="xtick"><text text-anchor="middle" x="0" y="841" style="font-family: 'Open Sans', verdana, arial, sans-serif; font-size: 20px; fill: rgb(42, 63, 95); fill-opacity: 1; white-space: pre; opacity: 1;" transform="translate(509.98,0)">3</text></g><g class="xtick"><text text-anchor="middle" x="0" y="841" style="font-family: 'Open Sans', verdana, arial, sans-serif; font-size: 20px; fill: rgb(42, 63, 95); fill-opacity: 1; white-space: pre; opacity: 1;" transform="translate(654.27,0)">4</text></g><g class="xtick"><text text-anchor="middle" x="0" y="841" style="font-family: 'Open Sans', verdana, arial, sans-serif; font-size: 20px; fill: rgb(42, 63, 95); fill-opacity: 1; white-space: pre; opacity: 1;" transform="translate(798.56,0)">5</text></g><g class="xtick"><text text-anchor="middle" x="0" y="841" style="font-family: 'Open Sans', verdana, arial, sans-serif; font-size: 20px; fill: rgb(42, 63, 95); fill-opacity: 1; white-space: pre; opacity: 1;" transform="translate(942.85,0)">6</text></g><g class="xtick"><text text-anchor="middle" x="0" y="841" style="font-family: 'Open Sans', verdana, arial, sans-serif; font-size: 20px; fill: rgb(42, 63, 95); fill-opacity: 1; white-space: pre; opacity: 1;" transform="translate(1087.1399999999999,0)">7</text></g><g class="xtick"><text text-anchor="middle" x="0" y="841" style="font-family: 'Open Sans', verdana, arial, sans-serif; font-size: 20px; fill: rgb(42, 63, 95); fill-opacity: 1; white-space: pre; opacity: 1;" transform="translate(1231.42,0)">8</text></g><g class="xtick"><text text-anchor="middle" x="0" y="841" style="font-family: 'Open Sans', verdana, arial, sans-serif; font-size: 20px; fill: rgb(42, 63, 95); fill-opacity: 1; white-space: pre; opacity: 1;" transform="translate(1375.71,0)">9</text></g><g class="xtick"><text text-anchor="middle" x="0" y="841" style="font-family: 'Open Sans', verdana, arial, sans-serif; font-size: 20px; fill: rgb(42, 63, 95); fill-opacity: 1; white-space: pre; opacity: 1;" transform="translate(1520,0)">10</text></g></g><g class="yaxislayer-above"><g class="ytick"><text text-anchor="end" x="79" y="7" transform="translate(0,784)" style="font-family: 'Open Sans', verdana, arial, sans-serif; font-size: 20px; fill: rgb(42, 63, 95); fill-opacity: 1; white-space: pre; opacity: 1;">0</text></g><g class="ytick"><text text-anchor="end" x="79" y="7" style="font-family: 'Open Sans', verdana, arial, sans-serif; font-size: 20px; fill: rgb(42, 63, 95); fill-opacity: 1; white-space: pre; opacity: 1;" transform="translate(0,654.4)">0.2</text></g><g class="ytick"><text text-anchor="end" x="79" y="7" style="font-family: 'Open Sans', verdana, arial, sans-serif; font-size: 20px; fill: rgb(42, 63, 95); fill-opacity: 1; white-space: pre; opacity: 1;" transform="translate(0,524.8)">0.4</text></g><g class="ytick"><text text-anchor="end" x="79" y="7" style="font-family: 'Open Sans', verdana, arial, sans-serif; font-size: 20px; fill: rgb(42, 63, 95); fill-opacity: 1; white-space: pre; opacity: 1;" transform="translate(0,395.2)">0.6</text></g><g class="ytick"><text text-anchor="end" x="79" y="7" style="font-family: 'Open Sans', verdana, arial, sans-serif; font-size: 20px; fill: rgb(42, 63, 95); fill-opacity: 1; white-space: pre; opacity: 1;" transform="translate(0,265.6)">0.8</text></g><g class="ytick"><text text-anchor="end" x="79" y="7" style="font-family: 'Open Sans', verdana, arial, sans-serif; font-size: 20px; fill: rgb(42, 63, 95); fill-opacity: 1; white-space: pre; opacity: 1;" transform="translate(0,136)">1</text></g></g><g class="overaxes-above"/></g></g><g class="polarlayer"/><g class="smithlayer"/><g class="ternarylayer"/><g class="geolayer"/><g class="funnelarealayer"/><g class="pielayer"/><g class="iciclelayer"/><g class="treemaplayer"/><g class="sunburstlayer"/><g class="glimages"/><defs id="topdefs-26c053"><g class="clips"/><clipPath id="legend26c053"><rect width="84" height="181" x="0" y="0"/></clipPath></defs><g class="layer-above"><g class="imagelayer"/><g class="shapelayer"/></g><g class="infolayer"><g class="legend" pointer-events="all" transform="translate(242.72,110.08000000000001)"><rect class="bg" shape-rendering="crispEdges" width="84" height="181" x="0" y="0" style="stroke: rgb(68, 68, 68); stroke-opacity: 1; fill: rgb(255, 255, 255); fill-opacity: 1; stroke-width: 0px;"/><g class="scrollbox" transform="" clip-path="url(#legend26c053)"><g class="groups"><g class="traces" transform="translate(0,22.1)" style="opacity: 1;"><text class="legendtext" text-anchor="start" x="40" y="9.360000000000001" style="font-family: 'Open Sans', verdana, arial, sans-serif; font-size: 24px; fill: rgb(42, 63, 95); fill-opacity: 1; white-space: pre;">1m</text><g class="layers" style="opacity: 1;"><g class="legendfill"/><g class="legendlines"><path class="js-line" d="M5,0h30" style="fill: none; stroke: rgb(99, 110, 250); stroke-opacity: 1; stroke-width: 3px;"/></g><g class="legendsymbols"><g class="legendpoints"/></g></g><rect class="legendtoggle" x="0" y="-17.1" width="78.609375" height="34.2" style="fill: rgb(0, 0, 0); fill-opacity: 0;"/></g><g class="traces" transform="translate(0,56.300000000000004)" style="opacity: 1;"><text class="legendtext" text-anchor="start" x="40" y="9.360000000000001" style="font-family: 'Open Sans', verdana, arial, sans-serif; font-size: 24px; fill: rgb(42, 63, 95); fill-opacity: 1; white-space: pre;">2m</text><g class="layers" style="opacity: 1;"><g class="legendfill"/><g class="legendlines"><path class="js-line" d="M5,0h30" style="fill: none; stroke: rgb(239, 85, 59); stroke-opacity: 1; stroke-width: 3px;"/></g><g class="legendsymbols"><g class="legendpoints"/></g></g><rect class="legendtoggle" x="0" y="-17.1" width="78.609375" height="34.2" style="fill: rgb(0, 0, 0); fill-opacity: 0;"/></g><g class="traces" transform="translate(0,90.5)" style="opacity: 1;"><text class="legendtext" text-anchor="start" x="40" y="9.360000000000001" style="font-family: 'Open Sans', verdana, arial, sans-serif; font-size: 24px; fill: rgb(42, 63, 95); fill-opacity: 1; white-space: pre;">3m</text><g class="layers" style="opacity: 1;"><g class="legendfill"/><g class="legendlines"><path class="js-line" d="M5,0h30" style="fill: none; stroke: rgb(0, 204, 150); stroke-opacity: 1; stroke-width: 3px;"/></g><g class="legendsymbols"><g class="legendpoints"/></g></g><rect class="legendtoggle" x="0" y="-17.1" width="78.609375" height="34.2" style="fill: rgb(0, 0, 0); fill-opacity: 0;"/></g><g class="traces" transform="translate(0,124.70000000000002)" style="opacity: 1;"><text class="legendtext" text-anchor="start" x="40" y="9.360000000000001" style="font-family: 'Open Sans', verdana, arial, sans-serif; font-size: 24px; fill: rgb(42, 63, 95); fill-opacity: 1; white-space: pre;">4m</text><g class="layers" style="opacity: 1;"><g class="legendfill"/><g class="legendlines"><path class="js-line" d="M5,0h30" style="fill: none; stroke: rgb(171, 99, 250); stroke-opacity: 1; stroke-width: 3px;"/></g><g class="legendsymbols"><g class="legendpoints"/></g></g><rect class="legendtoggle" x="0" y="-17.1" width="78.609375" height="34.2" style="fill: rgb(0, 0, 0); fill-opacity: 0;"/></g><g class="traces" transform="translate(0,158.9)" style="opacity: 1;"><text class="legendtext" text-anchor="start" x="40" y="9.360000000000001" style="font-family: 'Open Sans', verdana, arial, sans-serif; font-size: 24px; fill: rgb(42, 63, 95); fill-opacity: 1; white-space: pre;">5m</text><g class="layers" style="opacity: 1;"><g class="legendfill"/><g class="legendlines"><path class="js-line" d="M5,0h30" style="fill: none; stroke: rgb(255, 161, 90); stroke-opacity: 1; stroke-width: 3px;"/></g><g class="legendsymbols"><g class="legendpoints"/></g></g><rect class="legendtoggle" x="0" y="-17.1" width="78.609375" height="34.2" style="fill: rgb(0, 0, 0); fill-opacity: 0;"/></g></g></g><rect class="scrollbar" rx="20" ry="3" width="0" height="0" x="0" y="0" style="fill: rgb(128, 139, 164); fill-opacity: 1;"/></g><g class="g-gtitle"><text class="gtitle" x="800" y="50" text-anchor="middle" dy="0.7em" style="opacity: 1; font-family: 'Open Sans', verdana, arial, sans-serif; font-size: 20px; fill: rgb(42, 63, 95); fill-opacity: 1; font-weight: bold; white-space: pre;">No Yielding, Back and eHMI</text></g><g class="g-xtitle"><text class="xtitle" x="800" y="873.5" text-anchor="middle" style="opacity: 1; font-family: 'Open Sans', verdana, arial, sans-serif; font-size: 20px; fill: rgb(42, 63, 95); fill-opacity: 1; white-space: pre;">Time (in seconds)</text></g><g class="g-ytitle"><text class="ytitle" transform="rotate(-90,24.78125,460)" x="24.78125" y="460" text-anchor="middle" style="opacity: 1; font-family: 'Open Sans', verdana, arial, sans-serif; font-size: 20px; fill: rgb(42, 63, 95); fill-opacity: 1; white-space: pre;">Trigger press</text></g></g></svg>