<svg class="main-svg" xmlns="http://www.w3.org/2000/svg" xmlns:xlink="http://www.w3.org/1999/xlink" width="4800" height="2700" style="" viewBox="0 0 1600 900"><rect x="0" y="0" width="1600" height="900" style="fill: rgb(255, 255, 255); fill-opacity: 1;"/><defs id="defs-ff3985"><g class="clips"><clipPath id="clipff3985xyplot" class="plotclip"><rect width="1440" height="720"/></clipPath><clipPath class="axesclip" id="clipff3985x"><rect x="80" y="0" width="1440" height="900"/></clipPath><clipPath class="axesclip" id="clipff3985y"><rect x="0" y="100" width="1600" height="720"/></clipPath><clipPath class="axesclip" id="clipff3985xy"><rect x="80" y="100" width="1440" height="720"/></clipPath></g><g class="gradients"/><g class="patterns"/></defs><g class="bglayer"><rect class="bg" x="80" y="100" width="1440" height="720" style="fill: rgb(229, 236, 246); fill-opacity: 1; stroke-width: 0;"/></g><g class="layer-below"><g class="imagelayer"/><g class="shapelayer"/></g><g class="cartesianlayer"><g class="subplot xy"><g class="layer-subplot"><g class="shapelayer"/><g class="imagelayer"/></g><g class="minor-gridlayer"><g class="x"/><g class="y"/></g><g class="gridlayer"><g class="x"><path class="xgrid crisp" transform="translate(238.58,0)" d="M0,100v720" style="stroke: rgb(255, 255, 255); stroke-opacity: 1; stroke-width: 1px;"/><path class="xgrid crisp" transform="translate(398.76,0)" d="M0,100v720" style="stroke: rgb(255, 255, 255); stroke-opacity: 1; stroke-width: 1px;"/><path class="xgrid crisp" transform="translate(558.9300000000001,0)" d="M0,100v720" style="stroke: rgb(255, 255, 255); stroke-opacity: 1; stroke-width: 1px;"/><path class="xgrid crisp" transform="translate(719.11,0)" d="M0,100v720" style="stroke: rgb(255, 255, 255); stroke-opacity: 1; stroke-width: 1px;"/><path class="xgrid crisp" transform="translate(879.29,0)" d="M0,100v720" style="stroke: rgb(255, 255, 255); stroke-opacity: 1; stroke-width: 1px;"/><path class="xgrid crisp" transform="translate(1039.47,0)" d="M0,100v720" style="stroke: rgb(255, 255, 255); stroke-opacity: 1; stroke-width: 1px;"/><path class="xgrid crisp" transform="translate(1199.64,0)" d="M0,100v720" style="stroke: rgb(255, 255, 255); stroke-opacity: 1; stroke-width: 1px;"/><path class="xgrid crisp" transform="translate(1359.82,0)" d="M0,100v720" style="stroke: rgb(255, 255, 255); stroke-opacity: 1; stroke-width: 1px;"/></g><g class="y"><path class="ygrid crisp" transform="translate(0,680.32)" d="M80,0h1440" style="stroke: rgb(255, 255, 255); stroke-opacity: 1; stroke-width: 1px;"/><path class="ygrid crisp" transform="translate(0,576.64)" d="M80,0h1440" style="stroke: rgb(255, 255, 255); stroke-opacity: 1; stroke-width: 1px;"/><path class="ygrid crisp" transform="translate(0,472.96)" d="M80,0h1440" style="stroke: rgb(255, 255, 255); stroke-opacity: 1; stroke-width: 1px;"/><path class="ygrid crisp" transform="translate(0,369.28)" d="M80,0h1440" style="stroke: rgb(255, 255, 255); stroke-opacity: 1; stroke-width: 1px;"/><path class="ygrid crisp" transform="translate(0,265.6)" d="M80,0h1440" style="stroke: rgb(255, 255, 255); stroke-opacity: 1; stroke-width: 1px;"/><path class="ygrid crisp" transform="translate(0,161.92000000000002)" d="M80,0h1440" style="stroke: rgb(255, 255, 255); stroke-opacity: 1; stroke-width: 1px;"/></g></g><g class="zerolinelayer"><path class="yzl zl crisp" transform="translate(0,784)" d="M80,0h1440" style="stroke: rgb(255, 255, 255); stroke-opacity: 1; stroke-width: 2px;"/></g><g class="layer-between"><g class="shapelayer"/><g class="imagelayer"/></g><path class="xlines-below"/><path class="ylines-below"/><g class="overlines-below"/><g class="xaxislayer-below"/><g class="yaxislayer-below"/><g class="overaxes-below"/><g class="overplot"><g class="xy" transform="translate(80,100)" clip-path="url(#clipff3985xyplot)"><g class="scatterlayer mlayer"><g class="trace scatter trace0122db" style="stroke-miterlimit: 2; opacity: 1;"><g class="fills"/><g class="errorbars"/><g class="lines"><path class="js-line" d="M0,684L205.03,683.49L206.63,681.38L208.24,680.58L209.84,678.48L211.44,677.49L213.04,675.2L217.85,667.1L219.45,665.49L221.05,662.72L222.65,661.82L224.25,656.59L225.86,654.51L229.06,654.51L230.66,646.41L232.26,645.4L233.87,645.4L238.67,643.04L240.27,643.2L245.08,641.77L246.68,641.23L249.88,640.94L251.48,640.57L257.89,641.32L259.49,641.98L269.1,644.04L270.7,644.16L278.71,645.75L280.31,646.57L294.73,649.54L296.33,650.14L304.34,651.57L305.94,652.18L315.55,654.13L317.16,654.09L320.36,655.51L321.96,656.39L334.78,658.79L336.38,658.95L337.98,658.43L339.58,658.82L347.59,658.82L349.19,658.82L357.2,657.78L358.8,657.19L363.61,657.29L365.21,656.89L371.62,657.02L373.22,656.99L376.42,657.45L378.02,656.92L387.63,659.3L389.23,660.09L390.84,661.15L392.44,663.17L398.85,669.28L400.45,669.33L403.65,670.61L405.25,670.9L410.06,672.36L411.66,672.29L414.87,672.68L416.47,672.7L422.87,673.14L424.48,673.56L426.08,673.32L427.68,673.96L430.88,674.11L432.49,674.86L438.89,675.72L440.49,676.52L445.3,678.63L446.9,679.44L454.91,680.85L456.51,674.17L459.71,674.54L461.32,552.72L464.52,553.81L466.12,554.25L475.73,554.4L477.33,554.4L523.79,553.66L525.39,553.58L531.79,553.55L533.4,553.46L535,546.67L536.6,512.75L538.2,423.78L539.8,423.87L573.44,423.05L575.04,423.06L584.65,423.04L586.25,423.14L627.9,421.71L629.5,421.79L651.93,421.17L653.53,421.11L666.34,420.88L667.95,420.91L680.76,420.65L682.36,420.79L690.37,420.65L691.97,420.82L706.39,419.08L707.99,418.18L712.8,413.63L714.4,411.6L717.6,410.43L719.2,410.97L728.81,411.58L730.41,411.21L732.02,407.96L733.62,392.2L735.22,386.86L736.82,375.7L741.63,375.42L743.23,369.89L744.83,304.72L746.43,292.02L748.03,281.74L749.63,282L765.65,282.71L767.26,282.99L772.06,282.55L773.66,282.26L776.87,282.64L778.47,282.59L784.88,282.99L786.48,283.88L789.68,284.71L791.28,285.98L796.09,288.11L797.69,290.11L799.29,291.11L800.89,294.24L802.5,295.2L804.1,295.2L818.51,295.2L820.11,165.6L848.95,165.6L850.55,256.44L853.75,256.44L855.35,295.2L866.57,295.2L868.17,323.21L871.37,377.97L872.97,422.14L874.58,424.8L876.18,424.8L895.4,424.8L897,551.09L898.6,554.4L900.2,554.4L1143.67,554.4L1145.28,547.66L1146.88,508.17L1148.48,424.8L1150.08,424.8L1151.68,398.97L1153.28,318.23L1154.89,312.73L1156.49,295.2L1158.09,295.2L1281.42,295.2L1283.03,295.98L1284.63,295.56L1286.23,296.2L1289.44,297.61L1291.04,298.24L1292.64,299.37L1294.24,299.09L1295.84,299.37L1297.44,300.97L1299.05,302.36L1300.65,304.84L1302.25,306.01L1303.85,308.79L1305.45,311.47L1307.05,312.4L1310.26,315.95L1311.86,317.26L1313.46,318.75L1315.06,322.71L1316.66,324.72L1318.27,331.02L1319.87,346.43L1321.47,351.79L1323.07,366.69L1324.68,370.84L1326.28,384.48L1327.88,388.64L1331.08,404.52L1332.68,408.09L1337.49,545.48L1339.09,546.85L1342.29,549.64L1343.9,550.64L1348.7,553.68L1350.3,554.08L1355.11,554.4L1356.71,554.4L1440,554.4" style="vector-effect: none; fill: none; stroke: rgb(99, 110, 250); stroke-opacity: 1; stroke-width: 3px; opacity: 1;"/></g><g class="points"/><g class="text"/></g><g class="trace scatter trace59b6d7" style="stroke-miterlimit: 2; opacity: 1;"><g class="fills"/><g class="errorbars"/><g class="lines"><path class="js-line" d="M0,684L443.69,683.35L445.3,682.94L480.53,680.15L482.13,680.38L483.74,678.84L485.34,674.18L486.94,621.48L488.54,621.55L490.14,550.67L491.75,550.69L502.96,550.67L504.56,421.09L512.57,421.25L514.17,421.38L517.38,422.28L518.98,424.31L522.18,424.8L523.78,424.8L539.8,424.8L541.4,445.49L543,454.57L544.61,532.4L546.21,554.04L547.81,554.4L772.06,554.4L773.66,552.89L776.86,427.49L778.47,424.8L842.53,424.8L844.14,517.47L845.74,554.4L847.34,554.4L914.62,554.4L916.22,678.03L917.82,684L919.42,684L1148.48,684L1150.08,554.4L1207.74,554.4L1209.34,544.99L1210.94,536L1212.54,521.86L1214.15,448.28L1215.75,433L1217.35,424.8L1218.95,424.8L1239.78,425.37L1241.38,426.57L1242.98,428.62L1244.58,432.72L1246.18,439.06L1247.79,441.73L1250.99,453.63L1252.59,467.53L1257.4,523.4L1259,525.77L1260.6,530.31L1262.2,531.12L1263.8,532.62L1265.41,532.89L1267.01,530.05L1268.61,524.35L1271.81,521.42L1273.41,521.24L1281.42,521.71L1283.02,521.71L1284.63,521.05L1286.23,521.6L1287.83,521.68L1289.43,522.54L1295.84,522.36L1297.44,522.62L1299.04,522.87L1300.64,522.36L1303.85,523.05L1305.45,524L1307.05,524.53L1308.65,526.42L1315.06,531.86L1316.66,661.83L1318.26,662.46L1319.87,665.01L1321.47,666.21L1323.07,672L1324.67,674.51L1326.27,681.68L1329.48,684L1331.08,684L1440,684" style="vector-effect: none; fill: none; stroke: rgb(239, 85, 59); stroke-opacity: 1; stroke-width: 3px; opacity: 1;"/></g><g class="points"/><g class="text"/></g><g class="trace scatter trace7cb1ad" style="stroke-miterlimit: 2; opacity: 1;"><g class="fills"/><g class="errorbars"/><g class="lines"><path class="js-line" d="M0,684L470.93,684L472.53,649.2L474.13,561.22L475.73,554.4L663.14,554.4L664.74,543.01L666.34,543.01L667.94,502.74L669.55,448.41L671.15,445.03L672.75,428.69L674.35,428.69L675.95,424.8L677.55,424.8L751.24,424.8L752.84,421.01L754.44,295.2L756.04,295.2L839.33,295.2L840.94,291.94L842.54,283.79L844.14,190.37L845.74,165.6L847.34,225.32L850.55,295.2L852.15,295.2L876.17,295.2L877.78,316.09L879.38,332.35L880.98,408.64L882.58,424.73L884.18,424.8L929.03,424.8L930.64,554.4L1148.48,554.4L1150.08,543.23L1151.68,507.91L1153.28,422.27L1154.88,358.55L1156.48,358.55L1158.09,295.2L1159.69,295.2L1164.49,295.2L1166.1,328.33L1167.7,406.6L1169.3,424.8L1297.44,424.8L1299.04,439.19L1300.65,457.93L1302.25,538.97L1303.85,550.52L1305.45,554.4L1358.31,554.4L1359.91,555.75L1361.51,559.76L1363.12,559.76L1367.92,574.24L1369.52,574.24L1372.73,589.3L1374.33,589.3L1375.93,594.42L1377.53,609.69L1379.13,625.41L1380.73,625.41L1383.94,651.6L1385.54,651.6L1388.74,681.63L1390.34,684L1440,684" style="vector-effect: none; fill: none; stroke: rgb(0, 204, 150); stroke-opacity: 1; stroke-width: 3px; opacity: 1;"/></g><g class="points"/><g class="text"/></g><g class="trace scatter traceaa7179" style="stroke-miterlimit: 2; opacity: 1;"><g class="fills"/><g class="errorbars"/><g class="lines"><path class="js-line" d="M0,684L203.43,684L205.03,681.35L206.63,676.12L208.23,667.53L209.83,653.25L211.44,630.6L213.04,616.57L214.64,575.02L221.05,559.34L222.65,560.1L227.45,561.7L229.06,563.22L232.26,564.11L233.86,565.68L238.67,566.23L240.27,567.58L243.47,568.46L245.07,567.85L248.28,568.93L249.88,568.52L254.68,569.4L256.29,568.79L259.49,569.4L261.09,568.59L262.69,568.52L264.3,569.4L270.7,568.79L272.3,569.06L277.11,569.26L278.71,570.07L281.92,569.67L283.52,569.53L291.53,570.4L293.13,569.53L294.73,569.4L296.33,570.47L299.54,569.4L301.14,569.26L304.34,569.87L305.94,570.53L309.15,570.6L310.75,571.2L312.35,570.73L313.95,571.13L317.15,571.53L318.76,570.87L320.36,571.4L321.96,570.87L323.56,572.06L325.16,572.26L331.57,575.15L333.17,576.33L336.38,576.98L337.98,578.53L339.58,578.91L341.18,581.46L342.78,584.05L344.38,589.37L347.59,601.52L349.19,605.24L350.79,606.46L352.39,608.77L360.4,617.5L362,619.53L363.61,622.73L365.21,624.2L366.81,628.13L368.41,630.04L371.62,632.61L373.22,634.58L378.02,640.69L379.62,640.9L387.63,646.88L389.24,649.24L392.44,650.14L394.04,650.17L410.06,650.62L411.66,649.62L418.07,649.5L419.67,648.9L421.27,649.32L422.87,648.94L434.08,648.87L435.68,648.41L450.1,648.75L451.7,648.56L453.3,649.69L454.91,614.56L456.51,522.05L458.11,520.17L469.32,520.94L470.92,521.46L477.33,523.3L478.93,523.01L483.74,523.83L485.34,524.07L491.75,523.54L493.35,523.86L509.37,522.87L510.97,523.01L514.17,523.12L515.77,523.54L518.98,524.56L520.58,520.47L523.78,529.01L525.38,534.91L526.99,543.39L528.59,545.34L530.19,550.67L531.79,551.82L535,553.55L536.6,554.4L554.22,554.4L555.82,605.96L557.42,684L559.02,684L605.47,684L607.08,682.34L610.28,683.41L611.88,683.66L619.89,682.76L621.49,682.61L624.7,680.99L626.3,678.04L627.9,677.06L629.5,675.16L634.31,673.34L635.91,671.7L637.51,668.08L639.11,666.67L642.31,664.44L643.92,666.07L645.52,670.17L647.12,672.11L648.72,676.48L650.32,677.22L651.93,678.1L653.53,678.11L658.33,679.72L659.93,681.82L663.14,683.31L664.74,683.31L674.35,684L675.95,684L677.55,684L679.16,682.33L680.76,581.34L682.36,554.4L751.24,554.4L752.84,547.73L754.44,519.72L756.04,465.59L757.64,444.9L759.25,444.9L760.85,444.9L762.45,448.93L764.05,453.76L765.65,465.3L768.86,424.8L770.46,424.8L796.08,424.8L797.69,419.1L799.29,313.26L800.89,295.2L802.49,294.05L804.09,283.45L807.3,208.45L808.9,176.75L810.5,169.77L812.1,174.97L813.7,196.06L815.31,238.24L816.91,295.2L818.51,295.2L861.76,295.2L863.36,305.73L864.96,395.07L866.56,395.07L868.17,424.8L869.77,424.8L879.38,424.8L880.98,470.03L882.58,554.4L884.18,554.4L897,554.4L898.6,593.17L900.2,684L901.8,684L1146.87,684L1148.48,673.75L1150.08,569.67L1151.68,554.4L1180.51,554.4L1182.11,424.8L1210.94,425.16L1212.55,449.76L1215.75,551.6L1217.35,554.4L1250.99,554.16L1252.59,549.77L1254.19,543.03L1255.79,641.42L1257.4,650.15L1259,633.38L1260.6,627.56L1262.2,616.16L1263.8,612.27L1265.41,604.29L1267.01,590.88L1268.61,588.33L1270.21,580.45L1271.81,578.98L1273.41,573.05L1275.02,571.8L1276.62,571.13L1278.22,571.6L1279.82,573.05L1281.42,578.98L1283.03,585.11L1284.63,637.43L1286.23,654.55L1287.83,682.34L1289.43,684L1291.03,684L1440,684" style="vector-effect: none; fill: none; stroke: rgb(171, 99, 250); stroke-opacity: 1; stroke-width: 3px; opacity: 1;"/></g><g class="points"/><g class="text"/></g><g class="trace scatter trace9cd225" style="stroke-miterlimit: 2; opacity: 1;"><g class="fills"/><g class="errorbars"/><g class="lines"><path class="js-line" d="M0,684L164.99,683.8L166.59,682.33L168.19,675.97L169.79,672.74L173,651.31L174.6,634.67L177.8,583.8L179.4,579.1L182.61,575.61L184.21,575.29L189.01,567.99L190.61,567.24L198.62,564.45L200.23,565.07L203.43,563.77L205.03,565.07L214.64,565.07L216.24,565.68L219.45,565.41L221.05,565.82L224.25,565.34L225.85,566.57L229.06,566.36L230.66,567.99L232.26,567.38L233.86,567.65L237.07,567.51L238.67,567.65L240.27,568.26L241.87,568.05L245.07,568.26L246.68,568.59L249.88,567.72L251.48,568.86L262.69,568.12L264.29,568.86L265.9,567.99L267.5,568.52L272.31,568.39L273.91,567.85L278.71,568.32L280.31,568.12L288.32,568.52L289.92,568.52L291.53,567.65L293.13,567.92L299.54,568.05L301.14,569.13L304.34,568.05L305.94,568.26L307.54,568.46L309.15,567.78L310.75,567.38L312.35,567.92L315.55,568.19L317.15,568.26L326.76,568.19L328.37,568.79L331.57,569.13L333.17,568.26L334.77,568.32L336.38,569.4L337.98,568.73L339.58,569.26L341.18,568.79L342.78,569.67L344.38,568.93L345.99,569.2L347.59,569.73L349.19,568.26L350.79,568.79L352.4,568.26L355.6,569.87L357.2,569.87L358.8,570.13L360.4,569.4L362.01,570.53L363.61,569.8L365.21,569.46L366.81,570.07L370.01,570.53L371.62,570.53L373.22,571.47L374.82,571.4L376.42,571.27L378.02,573.38L382.83,573.32L384.43,574.04L387.63,574.43L389.23,575.29L390.84,575.29L392.44,576.98L395.64,578.65L397.24,581.08L398.85,588.88L400.45,605.13L403.65,634.4L405.25,641.15L408.46,646.06L410.06,654.02L411.66,656.32L413.26,660.28L418.07,664.39L419.67,665.63L424.47,667.13L426.07,668.13L442.09,670.49L443.7,670.37L454.91,670.54L456.51,618.45L458.11,618.71L459.71,541.2L477.33,541.56L478.93,541.44L507.77,541.27L509.37,541.34L517.38,541.53L518.98,542.4L520.58,542.87L522.18,546.6L525.38,547.35L526.99,547.09L538.2,547.71L539.8,548.53L546.21,550.39L547.81,550.17L552.62,550.17L554.22,550.3L563.83,551.77L565.43,553.03L568.63,554.18L570.24,554.31L602.27,554.2L603.87,554.4L667.94,554.4L669.55,484.26L671.15,424.8L672.75,424.8L720.8,424.8L722.41,417L724.01,396.31L725.61,346.71L727.21,295.2L728.81,295.2L821.71,295.2L823.32,288.37L824.92,274.92L826.52,274.92L828.12,165.6L829.72,165.6L847.34,165.6L848.94,152.85L852.15,36L853.75,36L866.56,36L868.17,74.59L869.77,146.36L871.37,165.6L874.57,165.6L876.17,271.76L877.78,295.2L879.38,295.2L908.21,295.2L909.81,305.12L911.41,389.21L913.02,424.8L914.62,472.77L916.22,548.72L917.82,554.4L919.42,554.4L1150.08,554.4L1151.68,551.29L1153.28,406.37L1154.88,406.37L1156.48,295.2L1158.09,295.2L1162.89,295.2L1164.5,293.09L1166.1,280.86L1167.7,274.87L1169.3,245.16L1170.9,231.24L1172.5,199.28L1174.11,188.31L1177.31,185.7L1178.91,186.09L1183.72,188.82L1185.32,190.69L1186.92,191.46L1188.52,197.8L1190.12,200.5L1191.72,209.96L1193.33,213.52L1194.93,213.52L1198.13,213.52L1199.73,215.38L1201.34,214.76L1202.94,215.66L1204.54,215.38L1206.14,216.22L1207.74,216.5L1209.34,215.83L1210.95,214.82L1212.55,215.1L1214.15,215.1L1215.75,214.03L1217.35,214.03L1218.95,213L1222.16,212.26L1223.76,209.5L1225.36,207.86L1226.96,200.75L1228.57,198.73L1230.17,191.58L1233.37,190.3L1234.97,189.6L1236.57,189.6L1238.18,187.66L1239.78,186.88L1241.38,184.45L1242.98,184.45L1244.58,218.85L1246.18,281.13L1247.79,427.85L1249.39,442.4L1250.99,440.87L1252.59,440.4L1254.19,441.2L1259,441.07L1260.6,442.06L1265.4,441.53L1267.01,442.46L1268.61,441L1270.21,442.06L1275.02,443.45L1276.62,443.19L1278.22,445.03L1279.82,445.03L1283.03,447.12L1284.63,447.18L1286.23,449.05L1287.83,449.57L1291.03,451.48L1292.64,453.76L1294.24,455.45L1295.84,459.77L1297.44,464.82L1299.04,464.82L1300.65,477.3L1302.25,477.3L1303.85,487.28L1305.45,491.44L1308.65,499.98L1310.26,500.95L1313.46,504.4L1315.06,509.71L1316.66,513.4L1318.26,524.14L1319.87,527.56L1321.47,537.07L1323.07,539.91L1324.67,545.46L1326.27,552.03L1327.88,553.24L1329.48,554.4L1331.08,554.4L1440,554.4" style="vector-effect: none; fill: none; stroke: rgb(255, 161, 90); stroke-opacity: 1; stroke-width: 3px; opacity: 1;"/></g><g class="points"/><g class="text"/></g></g></g></g><path class="xlines-above crisp" d="M0,0" style="fill: none;"/><path class="ylines-above crisp" d="M0,0" style="fill: none;"/><g class="overlines-above"/><g class="xaxislayer-above"><g class="xtick"><text text-anchor="middle" x="0" y="841" transform="translate(238.58,0)" style="font-family: 'Open Sans', verdana, arial, sans-serif; font-size: 20px; fill: rgb(42, 63, 95); fill-opacity: 1; white-space: pre; opacity: 1;">2</text></g><g class="xtick"><text text-anchor="middle" x="0" y="841" style="font-family: 'Open Sans', verdana, arial, sans-serif; font-size: 20px; fill: rgb(42, 63, 95); fill-opacity: 1; white-space: pre; opacity: 1;" transform="translate(398.76,0)">4</text></g><g class="xtick"><text text-anchor="middle" x="0" y="841" style="font-family: 'Open Sans', verdana, arial, sans-serif; font-size: 20px; fill: rgb(42, 63, 95); fill-opacity: 1; white-space: pre; opacity: 1;" transform="translate(558.9300000000001,0)">6</text></g><g class="xtick"><text text-anchor="middle" x="0" y="841" style="font-family: 'Open Sans', verdana, arial, sans-serif; font-size: 20px; fill: rgb(42, 63, 95); fill-opacity: 1; white-space: pre; opacity: 1;" transform="translate(719.11,0)">8</text></g><g class="xtick"><text text-anchor="middle" x="0" y="841" style="font-family: 'Open Sans', verdana, arial, sans-serif; font-size: 20px; fill: rgb(42, 63, 95); fill-opacity: 1; white-space: pre; opacity: 1;" transform="translate(879.29,0)">10</text></g><g class="xtick"><text text-anchor="middle" x="0" y="841" style="font-family: 'Open Sans', verdana, arial, sans-serif; font-size: 20px; fill: rgb(42, 63, 95); fill-opacity: 1; white-space: pre; opacity: 1;" transform="translate(1039.47,0)">12</text></g><g class="xtick"><text text-anchor="middle" x="0" y="841" style="font-family: 'Open Sans', verdana, arial, sans-serif; font-size: 20px; fill: rgb(42, 63, 95); fill-opacity: 1; white-space: pre; opacity: 1;" transform="translate(1199.64,0)">14</text></g><g class="xtick"><text text-anchor="middle" x="0" y="841" style="font-family: 'Open Sans', verdana, arial, sans-serif; font-size: 20px; fill: rgb(42, 63, 95); fill-opacity: 1; white-space: pre; opacity: 1;" transform="translate(1359.82,0)">16</text></g><g class="xtick"><text text-anchor="middle" x="0" y="841" style="font-family: 'Open Sans', verdana, arial, sans-serif; font-size: 20px; fill: rgb(42, 63, 95); fill-opacity: 1; white-space: pre; opacity: 1;" transform="translate(1520,0)">18</text></g></g><g class="yaxislayer-above"><g class="ytick"><text text-anchor="end" x="79" y="7" transform="translate(0,784)" style="font-family: 'Open Sans', verdana, arial, sans-serif; font-size: 20px; fill: rgb(42, 63, 95); fill-opacity: 1; white-space: pre; opacity: 1;">0</text></g><g class="ytick"><text text-anchor="end" x="79" y="7" style="font-family: 'Open Sans', verdana, arial, sans-serif; font-size: 20px; fill: rgb(42, 63, 95); fill-opacity: 1; white-space: pre; opacity: 1;" transform="translate(0,680.32)">0.1</text></g><g class="ytick"><text text-anchor="end" x="79" y="7" style="font-family: 'Open Sans', verdana, arial, sans-serif; font-size: 20px; fill: rgb(42, 63, 95); fill-opacity: 1; white-space: pre; opacity: 1;" transform="translate(0,576.64)">0.2</text></g><g class="ytick"><text text-anchor="end" x="79" y="7" style="font-family: 'Open Sans', verdana, arial, sans-serif; font-size: 20px; fill: rgb(42, 63, 95); fill-opacity: 1; white-space: pre; opacity: 1;" transform="translate(0,472.96)">0.3</text></g><g class="ytick"><text text-anchor="end" x="79" y="7" style="font-family: 'Open Sans', verdana, arial, sans-serif; font-size: 20px; fill: rgb(42, 63, 95); fill-opacity: 1; white-space: pre; opacity: 1;" transform="translate(0,369.28)">0.4</text></g><g class="ytick"><text text-anchor="end" x="79" y="7" style="font-family: 'Open Sans', verdana, arial, sans-serif; font-size: 20px; fill: rgb(42, 63, 95); fill-opacity: 1; white-space: pre; opacity: 1;" transform="translate(0,265.6)">0.5</text></g><g class="ytick"><text text-anchor="end" x="79" y="7" style="font-family: 'Open Sans', verdana, arial, sans-serif; font-size: 20px; fill: rgb(42, 63, 95); fill-opacity: 1; white-space: pre; opacity: 1;" transform="translate(0,161.92000000000002)">0.6</text></g></g><g class="overaxes-above"/></g></g><g class="polarlayer"/><g class="smithlayer"/><g class="ternarylayer"/><g class="geolayer"/><g class="funnelarealayer"/><g class="pielayer"/><g class="iciclelayer"/><g class="treemaplayer"/><g class="sunburstlayer"/><g class="glimages"/><defs id="topdefs-ff3985"><g class="clips"/><clipPath id="legendff3985"><rect width="84" height="181" x="0" y="0"/></clipPath></defs><g class="layer-above"><g class="imagelayer"/><g class="shapelayer"/></g><g class="infolayer"><g class="legend" pointer-events="all" transform="translate(242.72,110.08000000000001)"><rect class="bg" shape-rendering="crispEdges" width="84" height="181" x="0" y="0" style="stroke: rgb(68, 68, 68); stroke-opacity: 1; fill: rgb(255, 255, 255); fill-opacity: 1; stroke-width: 0px;"/><g class="scrollbox" transform="" clip-path="url(#legendff3985)"><g class="groups"><g class="traces" transform="translate(0,22.1)" style="opacity: 1;"><text class="legendtext" text-anchor="start" x="40" y="9.360000000000001" style="font-family: 'Open Sans', verdana, arial, sans-serif; font-size: 24px; fill: rgb(42, 63, 95); fill-opacity: 1; white-space: pre;">1m</text><g class="layers" style="opacity: 1;"><g class="legendfill"/><g class="legendlines"><path class="js-line" d="M5,0h30" style="fill: none; stroke: rgb(99, 110, 250); stroke-opacity: 1; stroke-width: 3px;"/></g><g class="legendsymbols"><g class="legendpoints"/></g></g><rect class="legendtoggle" x="0" y="-17.1" width="78.609375" height="34.2" style="fill: rgb(0, 0, 0); fill-opacity: 0;"/></g><g class="traces" transform="translate(0,56.300000000000004)" style="opacity: 1;"><text class="legendtext" text-anchor="start" x="40" y="9.360000000000001" style="font-family: 'Open Sans', verdana, arial, sans-serif; font-size: 24px; fill: rgb(42, 63, 95); fill-opacity: 1; white-space: pre;">2m</text><g class="layers" style="opacity: 1;"><g class="legendfill"/><g class="legendlines"><path class="js-line" d="M5,0h30" style="fill: none; stroke: rgb(239, 85, 59); stroke-opacity: 1; stroke-width: 3px;"/></g><g class="legendsymbols"><g class="legendpoints"/></g></g><rect class="legendtoggle" x="0" y="-17.1" width="78.609375" height="34.2" style="fill: rgb(0, 0, 0); fill-opacity: 0;"/></g><g class="traces" transform="translate(0,90.5)" style="opacity: 1;"><text class="legendtext" text-anchor="start" x="40" y="9.360000000000001" style="font-family: 'Open Sans', verdana, arial, sans-serif; font-size: 24px; fill: rgb(42, 63, 95); fill-opacity: 1; white-space: pre;">3m</text><g class="layers" style="opacity: 1;"><g class="legendfill"/><g class="legendlines"><path class="js-line" d="M5,0h30" style="fill: none; stroke: rgb(0, 204, 150); stroke-opacity: 1; stroke-width: 3px;"/></g><g class="legendsymbols"><g class="legendpoints"/></g></g><rect class="legendtoggle" x="0" y="-17.1" width="78.609375" height="34.2" style="fill: rgb(0, 0, 0); fill-opacity: 0;"/></g><g class="traces" transform="translate(0,124.70000000000002)" style="opacity: 1;"><text class="legendtext" text-anchor="start" x="40" y="9.360000000000001" style="font-family: 'Open Sans', verdana, arial, sans-serif; font-size: 24px; fill: rgb(42, 63, 95); fill-opacity: 1; white-space: pre;">4m</text><g class="layers" style="opacity: 1;"><g class="legendfill"/><g class="legendlines"><path class="js-line" d="M5,0h30" style="fill: none; stroke: rgb(171, 99, 250); stroke-opacity: 1; stroke-width: 3px;"/></g><g class="legendsymbols"><g class="legendpoints"/></g></g><rect class="legendtoggle" x="0" y="-17.1" width="78.609375" height="34.2" style="fill: rgb(0, 0, 0); fill-opacity: 0;"/></g><g class="traces" transform="translate(0,158.9)" style="opacity: 1;"><text class="legendtext" text-anchor="start" x="40" y="9.360000000000001" style="font-family: 'Open Sans', verdana, arial, sans-serif; font-size: 24px; fill: rgb(42, 63, 95); fill-opacity: 1; white-space: pre;">5m</text><g class="layers" style="opacity: 1;"><g class="legendfill"/><g class="legendlines"><path class="js-line" d="M5,0h30" style="fill: none; stroke: rgb(255, 161, 90); stroke-opacity: 1; stroke-width: 3px;"/></g><g class="legendsymbols"><g class="legendpoints"/></g></g><rect class="legendtoggle" x="0" y="-17.1" width="78.609375" height="34.2" style="fill: rgb(0, 0, 0); fill-opacity: 0;"/></g></g></g><rect class="scrollbar" rx="20" ry="3" width="0" height="0" x="0" y="0" style="fill: rgb(128, 139, 164); fill-opacity: 1;"/></g><g class="g-gtitle"><text class="gtitle" x="800" y="50" text-anchor="middle" dy="0.7em" style="opacity: 1; font-family: 'Open Sans', verdana, arial, sans-serif; font-size: 20px; fill: rgb(42, 63, 95); fill-opacity: 1; font-weight: bold; white-space: pre;">Yielding, Back and eHMI</text></g><g class="g-xtitle"><text class="xtitle" x="800" y="873.5" text-anchor="middle" style="opacity: 1; font-family: 'Open Sans', verdana, arial, sans-serif; font-size: 20px; fill: rgb(42, 63, 95); fill-opacity: 1; white-space: pre;">Time (in seconds)</text></g><g class="g-ytitle"><text class="ytitle" transform="rotate(-90,24.78125,460)" x="24.78125" y="460" text-anchor="middle" style="opacity: 1; font-family: 'Open Sans', verdana, arial, sans-serif; font-size: 20px; fill: rgb(42, 63, 95); fill-opacity: 1; white-space: pre;">Trigger press</text></g></g></svg>