<svg class="main-svg" xmlns="http://www.w3.org/2000/svg" xmlns:xlink="http://www.w3.org/1999/xlink" width="4800" height="2700" style="" viewBox="0 0 1600 900"><rect x="0" y="0" width="1600" height="900" style="fill: rgb(255, 255, 255); fill-opacity: 1;"/><defs id="defs-2dd93d"><g class="clips"><clipPath id="clip2dd93dxyplot" class="plotclip"><rect width="1440" height="720"/></clipPath><clipPath class="axesclip" id="clip2dd93dx"><rect x="80" y="0" width="1440" height="900"/></clipPath><clipPath class="axesclip" id="clip2dd93dy"><rect x="0" y="100" width="1600" height="720"/></clipPath><clipPath class="axesclip" id="clip2dd93dxy"><rect x="80" y="100" width="1440" height="720"/></clipPath></g><g class="gradients"/><g class="patterns"/></defs><g class="bglayer"><rect class="bg" x="80" y="100" width="1440" height="720" style="fill: rgb(229, 236, 246); fill-opacity: 1; stroke-width: 0;"/></g><g class="layer-below"><g class="imagelayer"/><g class="shapelayer"/></g><g class="cartesianlayer"><g class="subplot xy"><g class="layer-subplot"><g class="shapelayer"/><g class="imagelayer"/></g><g class="minor-gridlayer"><g class="x"/><g class="y"/></g><g class="gridlayer"><g class="x"><path class="xgrid crisp" transform="translate(221.4,0)" d="M0,100v720" style="stroke: rgb(255, 255, 255); stroke-opacity: 1; stroke-width: 1px;"/><path class="xgrid crisp" transform="translate(365.69,0)" d="M0,100v720" style="stroke: rgb(255, 255, 255); stroke-opacity: 1; stroke-width: 1px;"/><path class="xgrid crisp" transform="translate(509.98,0)" d="M0,100v720" style="stroke: rgb(255, 255, 255); stroke-opacity: 1; stroke-width: 1px;"/><path class="xgrid crisp" transform="translate(654.27,0)" d="M0,100v720" style="stroke: rgb(255, 255, 255); stroke-opacity: 1; stroke-width: 1px;"/><path class="xgrid crisp" transform="translate(798.56,0)" d="M0,100v720" style="stroke: rgb(255, 255, 255); stroke-opacity: 1; stroke-width: 1px;"/><path class="xgrid crisp" transform="translate(942.85,0)" d="M0,100v720" style="stroke: rgb(255, 255, 255); stroke-opacity: 1; stroke-width: 1px;"/><path class="xgrid crisp" transform="translate(1087.13,0)" d="M0,100v720" style="stroke: rgb(255, 255, 255); stroke-opacity: 1; stroke-width: 1px;"/><path class="xgrid crisp" transform="translate(1231.42,0)" d="M0,100v720" style="stroke: rgb(255, 255, 255); stroke-opacity: 1; stroke-width: 1px;"/><path class="xgrid crisp" transform="translate(1375.71,0)" d="M0,100v720" style="stroke: rgb(255, 255, 255); stroke-opacity: 1; stroke-width: 1px;"/></g><g class="y"><path class="ygrid crisp" transform="translate(0,653.28)" d="M80,0h1440" style="stroke: rgb(255, 255, 255); stroke-opacity: 1; stroke-width: 1px;"/><path class="ygrid crisp" transform="translate(0,522.56)" d="M80,0h1440" style="stroke: rgb(255, 255, 255); stroke-opacity: 1; stroke-width: 1px;"/><path class="ygrid crisp" transform="translate(0,391.84)" d="M80,0h1440" style="stroke: rgb(255, 255, 255); stroke-opacity: 1; stroke-width: 1px;"/><path class="ygrid crisp" transform="translate(0,261.12)" d="M80,0h1440" style="stroke: rgb(255, 255, 255); stroke-opacity: 1; stroke-width: 1px;"/><path class="ygrid crisp" transform="translate(0,130.4)" d="M80,0h1440" style="stroke: rgb(255, 255, 255); stroke-opacity: 1; stroke-width: 1px;"/></g></g><g class="zerolinelayer"><path class="yzl zl crisp" transform="translate(0,784)" d="M80,0h1440" style="stroke: rgb(255, 255, 255); stroke-opacity: 1; stroke-width: 2px;"/></g><g class="layer-between"><g class="shapelayer"/><g class="imagelayer"/></g><path class="xlines-below"/><path class="ylines-below"/><g class="overlines-below"/><g class="xaxislayer-below"/><g class="yaxislayer-below"/><g class="overaxes-below"/><g class="overplot"><g class="xy" transform="translate(80,100)" clip-path="url(#clip2dd93dxyplot)"><g class="scatterlayer mlayer"><g class="trace scatter trace6fc22f" style="stroke-miterlimit: 2; opacity: 1;"><g class="fills"/><g class="errorbars"/><g class="lines"><path class="js-line" d="M0,684L470.38,684L473.27,681.05L476.15,681.05L479.04,676.27L481.92,669.24L484.81,655.1L487.7,655.1L490.58,653.29L496.35,652.68L499.24,644.94L502.13,637.94L505.01,616.65L507.9,616.65L510.78,615.18L516.55,614.56L519.44,614.39L522.33,613.31L525.21,613.1L530.98,612.85L533.87,612.47L542.52,612.26L545.41,612.09L554.07,612.55L556.96,612.05L562.73,612.55L565.61,612.39L571.38,612.22L574.27,612.26L580.04,611.97L582.93,612.22L600.24,612.3L603.13,611.67L608.9,612.34L611.78,611.97L660.84,611.88L663.73,612.09L672.38,612.09L675.27,613.14L678.16,613.02L681.04,613.77L689.7,614.64L692.58,614.64L695.47,614.43L698.36,615.34L707.01,616.08L709.9,616.78L712.79,616.78L715.67,618.03L718.56,612.32L721.44,615.31L724.33,554.96L727.21,548.82L730.1,548.82L732.99,552.65L735.87,553.24L738.76,555.01L747.41,565.88L750.3,566.75L753.19,566.75L756.07,570.02L761.84,576.65L764.73,576.65L770.5,580.91L773.39,581.51L776.27,582.42L779.16,582.42L782.04,584.96L784.93,584.96L787.82,586.31L790.7,586.59L799.36,588.36L802.24,588.62L805.13,588.62L808.02,589.86L871.5,593.02L874.39,593.27L894.59,593.81L897.48,594.25L911.9,595.37L914.79,595.63L917.68,595.66L920.56,587.92L923.45,514.34L926.33,514.56L1001.36,514.93L1004.25,515.09L1021.56,516.43L1024.45,516.82L1033.11,517.09L1035.99,516.7L1067.73,516.44L1070.62,513.65L1073.51,434.86L1076.39,434.41L1087.94,433.45L1090.82,432.68L1099.48,431.93L1102.36,431.82L1113.91,431.32L1116.79,406.02L1119.68,355.16L1122.56,349.31L1134.11,348.59L1136.99,360.41L1139.88,408.32L1142.76,347.87L1157.19,346.76L1160.08,346.15L1162.97,342.83L1165.85,341.51L1168.74,329.04L1171.62,322.28L1174.51,296.75L1177.39,283.73L1180.28,258.4L1183.16,242.47L1186.05,217.87L1188.94,204.87L1194.71,201.21L1197.59,197.09L1200.48,193.8L1203.37,193.8L1295.71,193.8L1298.6,194.83L1301.48,195.23L1304.37,197.17L1307.25,196.6L1310.14,197.17L1313.03,199.96L1315.91,209.96L1318.8,263.04L1321.68,266.62L1324.57,293.13L1327.45,327.92L1330.34,346.53L1333.23,350.75L1336.11,357.2L1339,357.2L1388.06,357.2L1390.94,434.09L1393.83,434.09L1396.71,438.9L1408.26,438.9L1411.14,494L1416.91,494L1419.8,520.6L1437.11,520.6L1440,526.38" style="vector-effect: none; fill: none; stroke: rgb(99, 110, 250); stroke-opacity: 1; stroke-width: 3px; opacity: 1;"/></g><g class="points"/><g class="text"/></g><g class="trace scatter trace6f15bd" style="stroke-miterlimit: 2; opacity: 1;"><g class="fills"/><g class="errorbars"/><g class="lines"><path class="js-line" d="M0,684L458.84,683.37L461.72,682.28L467.5,683L470.38,683.99L689.7,684L692.59,684L963.85,684L966.73,682.09L969.62,675.47L972.51,675.47L975.39,605.41L978.28,605.27L981.16,569.86L984.05,433.9L986.93,431.72L989.82,427.75L992.71,428.01L995.59,430.64L1004.25,436.19L1007.13,436.16L1015.79,434.67L1018.68,434.25L1035.99,434.97L1038.88,434.96L1053.31,434.93L1056.19,434.73L1061.96,433.92L1064.85,433.57L1067.74,431.87L1070.62,431.75L1079.28,431.59L1082.16,431.17L1085.05,430.64L1087.94,426.77L1090.82,425.18L1093.71,416.68L1096.59,400.27L1099.48,361.54L1102.36,288.84L1105.25,281.84L1108.14,275.5L1111.02,275.5L1134.11,275.5L1136.99,250.16L1139.88,193.8L1142.77,193.8L1168.74,193.8L1171.62,191.51L1174.51,191.51L1177.4,135.06L1180.28,135.06L1183.17,115.87L1186.05,115.87L1188.94,118.74L1194.71,131.97L1197.6,191.66L1200.48,193.8L1203.37,193.8L1364.97,193.8L1367.86,197.74L1370.74,228.38L1373.63,277.55L1376.51,291.31L1379.4,300.09L1382.28,334.91L1385.17,337.46L1388.06,336.61L1390.94,334.64L1399.6,335.76L1402.48,338.08L1408.26,418.42L1411.14,432.37L1414.03,437.3L1416.91,438.9L1440,438.9" style="vector-effect: none; fill: none; stroke: rgb(239, 85, 59); stroke-opacity: 1; stroke-width: 3px; opacity: 1;"/></g><g class="points"/><g class="text"/></g><g class="trace scatter trace54a70f" style="stroke-miterlimit: 2; opacity: 1;"><g class="fills"/><g class="errorbars"/><g class="lines"><path class="js-line" d="M0,684L507.89,683.56L510.78,682.72L513.67,682.55L516.55,681.46L522.33,680.3L525.21,679.83L539.64,678.27L542.53,676.83L545.41,675.44L548.29,669.6L554.07,662.3L556.96,660.31L565.61,658.86L568.5,654.45L571.38,648.96L574.27,640.18L577.16,629.24L580.04,622.01L582.92,616.2L585.81,615.18L591.58,614.52L594.47,615.26L597.36,615.67L600.24,617.06L611.78,618.48L614.67,618.2L620.44,618.2L623.33,619.28L631.98,618.8L634.87,619.08L640.64,618.84L643.53,618.96L675.27,619.32L678.16,619.4L689.7,619.52L692.58,619.68L698.36,619.92L701.24,619.96L709.9,621.07L712.78,622.05L715.67,622.68L718.56,624.8L747.41,627.53L750.3,627.79L756.07,627.98L758.96,628.76L770.5,628.09L773.39,628.01L776.27,627.72L779.16,628.46L782.04,627.87L784.93,628.98L793.59,628.68L796.47,628.65L799.36,628.65L802.24,630.52L805.13,631.46L808.02,631.46L825.33,635.08L828.22,635.29L836.87,637.63L839.76,637.63L842.64,640.54L845.53,640.94L854.19,642.2L857.07,642.98L859.96,642.75L862.85,643.87L894.59,644.86L897.47,563.46L909.02,563.89L911.9,563.49L929.22,564.2L932.1,564.45L940.76,564.32L943.64,564.78L952.3,565.58L955.19,566L969.62,566.72L972.51,566.84L978.27,567.52L981.16,568.64L984.05,568.64L986.93,488.8L989.82,488.8L992.7,490.8L1001.36,492.18L1004.25,492.88L1010.02,494.11L1012.9,494.24L1018.68,494.62L1021.56,494.24L1027.34,493.74L1030.22,494.08L1050.42,493.87L1053.3,492.96L1056.19,417.91L1059.08,412.23L1073.51,411.55L1076.39,411.39L1085.05,410.96L1087.93,411.1L1111.02,409.67L1113.91,409.88L1116.79,409.78L1119.68,328.47L1122.56,327.56L1125.45,323.58L1128.34,316.14L1131.22,314.57L1136.99,276.05L1139.88,245.31L1142.76,242.88L1145.65,242.13L1151.42,235.53L1154.31,228.52L1157.19,202.52L1160.08,154.72L1162.96,86.26L1165.85,63.92L1168.74,55.32L1171.62,52.36L1174.51,46.01L1177.39,44.79L1180.28,44.79L1183.16,123.52L1186.05,121.85L1188.94,121.85L1191.82,118.82L1194.71,117.92L1197.59,113.22L1200.48,112.1L1310.14,112.72L1313.03,131.42L1315.91,173.15L1318.8,174.26L1321.68,197.35L1324.57,198.14L1327.45,201.04L1330.34,202.11L1333.23,204.26L1336.11,204.68L1339,206.39L1341.88,209.09L1344.77,210.26L1347.65,212.33L1359.2,212.65L1362.08,211.02L1367.86,211.02L1370.74,209.21L1373.63,208.8L1376.51,290.42L1379.4,289.61L1382.28,289.61L1390.94,289.16L1393.82,288.66L1399.6,289.08L1402.48,288.09L1408.26,287.26L1411.14,289.66L1414.02,291.01L1416.91,299.98L1419.8,303.45L1422.69,322.03L1428.45,389.14L1431.34,443.63L1434.23,523.2L1437.11,528.98L1440,530.27" style="vector-effect: none; fill: none; stroke: rgb(0, 204, 150); stroke-opacity: 1; stroke-width: 3px; opacity: 1;"/></g><g class="points"/><g class="text"/></g><g class="trace scatter trace0ea699" style="stroke-miterlimit: 2; opacity: 1;"><g class="fills"/><g class="errorbars"/><g class="lines"><path class="js-line" d="M0,684L750.3,684L753.19,682.49L756.07,681.62L758.96,676.42L761.85,670.62L764.73,666.97L767.61,652.06L770.5,646.02L773.39,626.48L776.27,619.48L779.16,616.33L782.05,615.38L787.82,614.27L790.7,614.47L796.48,614.43L799.36,614.68L813.79,614.72L816.67,615.67L825.33,616.08L828.22,615.88L833.99,617.14L836.88,616.82L845.53,617.14L848.42,617.75L862.85,618.44L865.73,617.32L868.62,567.93L871.5,537.86L874.39,538.58L877.27,540.12L880.16,543.26L883.05,545.23L885.93,554.29L888.82,558.58L891.7,570.5L894.59,572.12L897.48,571.19L900.36,574.19L903.25,580.14L906.13,505.15L909.02,508.09L911.9,516.68L914.79,519.78L917.68,520.6L1067.74,520.32L1070.62,519.42L1073.5,518.91L1076.39,514.71L1079.28,512.2L1082.17,497.85L1085.05,476.21L1087.94,461.4L1090.82,452.76L1093.71,448.86L1099.48,431.38L1102.37,426.44L1108.14,403.38L1111.02,396.42L1113.91,374.5L1116.79,372.89L1119.68,370.82L1122.57,355.82L1125.45,283.85L1128.33,282.52L1134.11,281.14L1136.99,281.66L1139.88,212.35L1142.77,199.7L1145.65,199.88L1148.54,198.7L1151.42,118.69L1154.31,117.74L1157.2,118.61L1160.08,118.61L1171.62,118.22L1174.51,118.69L1203.37,118.61L1206.25,72.43L1209.14,37.04L1212.03,36.74L1217.79,36.99L1220.68,36.56L1223.57,36L1226.45,118.05L1229.34,118.26L1232.23,117.44L1240.88,116.35L1243.77,115.21L1258.2,112.99L1261.08,112.28L1275.51,112.1L1278.4,112.1L1287.06,112.1L1289.94,148.51L1292.83,174.88L1295.71,193.8L1396.71,193.8L1399.6,258.85L1402.49,275.5L1405.37,275.5L1419.8,275.5L1422.69,293.95L1425.57,313.31L1428.46,348.31L1434.23,348.31L1437.11,357.2L1440,357.2" style="vector-effect: none; fill: none; stroke: rgb(171, 99, 250); stroke-opacity: 1; stroke-width: 3px; opacity: 1;"/></g><g class="points"/><g class="text"/></g><g class="trace scatter traceb4cf18" style="stroke-miterlimit: 2; opacity: 1;"><g class="fills"/><g class="errorbars"/><g class="lines"><path class="js-line" d="M0,684L467.5,683.31L470.38,682.66L476.15,681.35L479.04,681.03L490.59,677.46L493.47,675.87L499.24,674.45L502.13,671.8L505.01,670.87L507.9,668.71L516.56,666.36L519.44,666.12L528.1,665.21L530.98,665.76L536.76,666.44L539.64,666.19L577.16,669.13L580.04,669.24L597.36,671.24L600.24,671.96L606.01,672.7L608.9,672.94L614.67,673.3L617.56,673.57L637.76,676.85L640.64,678.21L649.3,681.17L652.19,681.56L660.84,682.45L663.73,683.04L672.39,684L675.27,684L906.14,684L909.02,683.22L911.9,679.39L914.79,647.79L917.68,647.79L920.57,602.3L937.88,601.94L940.77,574.52L943.65,529.29L946.53,520.6L1038.88,520.6L1041.77,514.81L1047.54,438.9L1050.42,438.9L1061.97,438.9L1064.85,432.8L1067.74,357.2L1070.62,357.2L1082.17,357.2L1085.05,363.76L1087.94,412.32L1090.82,423.55L1093.71,372.12L1096.59,372.12L1099.48,372.12L1102.37,359.56L1108.14,357.6L1111.02,357.2L1186.06,356.52L1188.94,356.41L1220.68,355.49L1223.57,353.98L1229.34,351.66L1232.23,295.21L1235.11,259.16L1238,250.49L1240.88,235.9L1243.77,211.14L1246.66,207.09L1249.54,233.91L1252.43,276.47L1255.31,279.4L1258.2,276.48L1261.08,276.79L1269.74,276.44L1272.63,275.81L1336.11,275.5L1339,275.5L1362.09,275.5L1364.97,279.05L1370.74,279.05L1373.63,357.2L1405.37,357.42L1408.26,359.65L1411.14,360.31L1414.03,367.41L1416.91,369.83L1419.8,389.21L1422.69,401.29L1425.57,423.03L1428.46,437.03L1431.34,438.56L1440,438.9" style="vector-effect: none; fill: none; stroke: rgb(255, 161, 90); stroke-opacity: 1; stroke-width: 3px; opacity: 1;"/></g><g class="points"/><g class="text"/></g></g></g></g><path class="xlines-above crisp" d="M0,0" style="fill: none;"/><path class="ylines-above crisp" d="M0,0" style="fill: none;"/><g class="overlines-above"/><g class="xaxislayer-above"><g class="xtick"><text text-anchor="middle" x="0" y="841" transform="translate(221.4,0)" style="font-family: 'Open Sans', verdana, arial, sans-serif; font-size: 20px; fill: rgb(42, 63, 95); fill-opacity: 1; white-space: pre; opacity: 1;">1</text></g><g class="xtick"><text text-anchor="middle" x="0" y="841" style="font-family: 'Open Sans', verdana, arial, sans-serif; font-size: 20px; fill: rgb(42, 63, 95); fill-opacity: 1; white-space: pre; opacity: 1;" transform="translate(365.69,0)">2</text></g><g class="xtick"><text text-anchor="middle" x="0" y="841" style="font-family: 'Open Sans', verdana, arial, sans-serif; font-size: 20px; fill: rgb(42, 63, 95); fill-opacity: 1; white-space: pre; opacity: 1;" transform="translate(509.98,0)">3</text></g><g class="xtick"><text text-anchor="middle" x="0" y="841" style="font-family: 'Open Sans', verdana, arial, sans-serif; font-size: 20px; fill: rgb(42, 63, 95); fill-opacity: 1; white-space: pre; opacity: 1;" transform="translate(654.27,0)">4</text></g><g class="xtick"><text text-anchor="middle" x="0" y="841" style="font-family: 'Open Sans', verdana, arial, sans-serif; font-size: 20px; fill: rgb(42, 63, 95); fill-opacity: 1; white-space: pre; opacity: 1;" transform="translate(798.56,0)">5</text></g><g class="xtick"><text text-anchor="middle" x="0" y="841" style="font-family: 'Open Sans', verdana, arial, sans-serif; font-size: 20px; fill: rgb(42, 63, 95); fill-opacity: 1; white-space: pre; opacity: 1;" transform="translate(942.85,0)">6</text></g><g class="xtick"><text text-anchor="middle" x="0" y="841" style="font-family: 'Open Sans', verdana, arial, sans-serif; font-size: 20px; fill: rgb(42, 63, 95); fill-opacity: 1; white-space: pre; opacity: 1;" transform="translate(1087.13,0)">7</text></g><g class="xtick"><text text-anchor="middle" x="0" y="841" style="font-family: 'Open Sans', verdana, arial, sans-serif; font-size: 20px; fill: rgb(42, 63, 95); fill-opacity: 1; white-space: pre; opacity: 1;" transform="translate(1231.42,0)">8</text></g><g class="xtick"><text text-anchor="middle" x="0" y="841" style="font-family: 'Open Sans', verdana, arial, sans-serif; font-size: 20px; fill: rgb(42, 63, 95); fill-opacity: 1; white-space: pre; opacity: 1;" transform="translate(1375.71,0)">9</text></g><g class="xtick"><text text-anchor="middle" x="0" y="841" style="font-family: 'Open Sans', verdana, arial, sans-serif; font-size: 20px; fill: rgb(42, 63, 95); fill-opacity: 1; white-space: pre; opacity: 1;" transform="translate(1520,0)">10</text></g></g><g class="yaxislayer-above"><g class="ytick"><text text-anchor="end" x="79" y="7" transform="translate(0,784)" style="font-family: 'Open Sans', verdana, arial, sans-serif; font-size: 20px; fill: rgb(42, 63, 95); fill-opacity: 1; white-space: pre; opacity: 1;">0</text></g><g class="ytick"><text text-anchor="end" x="79" y="7" style="font-family: 'Open Sans', verdana, arial, sans-serif; font-size: 20px; fill: rgb(42, 63, 95); fill-opacity: 1; white-space: pre; opacity: 1;" transform="translate(0,653.28)">0.2</text></g><g class="ytick"><text text-anchor="end" x="79" y="7" style="font-family: 'Open Sans', verdana, arial, sans-serif; font-size: 20px; fill: rgb(42, 63, 95); fill-opacity: 1; white-space: pre; opacity: 1;" transform="translate(0,522.56)">0.4</text></g><g class="ytick"><text text-anchor="end" x="79" y="7" style="font-family: 'Open Sans', verdana, arial, sans-serif; font-size: 20px; fill: rgb(42, 63, 95); fill-opacity: 1; white-space: pre; opacity: 1;" transform="translate(0,391.84)">0.6</text></g><g class="ytick"><text text-anchor="end" x="79" y="7" style="font-family: 'Open Sans', verdana, arial, sans-serif; font-size: 20px; fill: rgb(42, 63, 95); fill-opacity: 1; white-space: pre; opacity: 1;" transform="translate(0,261.12)">0.8</text></g><g class="ytick"><text text-anchor="end" x="79" y="7" style="font-family: 'Open Sans', verdana, arial, sans-serif; font-size: 20px; fill: rgb(42, 63, 95); fill-opacity: 1; white-space: pre; opacity: 1;" transform="translate(0,130.4)">1</text></g></g><g class="overaxes-above"/></g></g><g class="polarlayer"/><g class="smithlayer"/><g class="ternarylayer"/><g class="geolayer"/><g class="funnelarealayer"/><g class="pielayer"/><g class="iciclelayer"/><g class="treemaplayer"/><g class="sunburstlayer"/><g class="glimages"/><defs id="topdefs-2dd93d"><g class="clips"/><clipPath id="legend2dd93d"><rect width="84" height="181" x="0" y="0"/></clipPath></defs><g class="layer-above"><g class="imagelayer"/><g class="shapelayer"/></g><g class="infolayer"><g class="legend" pointer-events="all" transform="translate(242.72,110.08000000000001)"><rect class="bg" shape-rendering="crispEdges" width="84" height="181" x="0" y="0" style="stroke: rgb(68, 68, 68); stroke-opacity: 1; fill: rgb(255, 255, 255); fill-opacity: 1; stroke-width: 0px;"/><g class="scrollbox" transform="" clip-path="url(#legend2dd93d)"><g class="groups"><g class="traces" transform="translate(0,22.1)" style="opacity: 1;"><text class="legendtext" text-anchor="start" x="40" y="9.360000000000001" style="font-family: 'Open Sans', verdana, arial, sans-serif; font-size: 24px; fill: rgb(42, 63, 95); fill-opacity: 1; white-space: pre;">1m</text><g class="layers" style="opacity: 1;"><g class="legendfill"/><g class="legendlines"><path class="js-line" d="M5,0h30" style="fill: none; stroke: rgb(99, 110, 250); stroke-opacity: 1; stroke-width: 3px;"/></g><g class="legendsymbols"><g class="legendpoints"/></g></g><rect class="legendtoggle" x="0" y="-17.1" width="78.609375" height="34.2" style="fill: rgb(0, 0, 0); fill-opacity: 0;"/></g><g class="traces" transform="translate(0,56.300000000000004)" style="opacity: 1;"><text class="legendtext" text-anchor="start" x="40" y="9.360000000000001" style="font-family: 'Open Sans', verdana, arial, sans-serif; font-size: 24px; fill: rgb(42, 63, 95); fill-opacity: 1; white-space: pre;">2m</text><g class="layers" style="opacity: 1;"><g class="legendfill"/><g class="legendlines"><path class="js-line" d="M5,0h30" style="fill: none; stroke: rgb(239, 85, 59); stroke-opacity: 1; stroke-width: 3px;"/></g><g class="legendsymbols"><g class="legendpoints"/></g></g><rect class="legendtoggle" x="0" y="-17.1" width="78.609375" height="34.2" style="fill: rgb(0, 0, 0); fill-opacity: 0;"/></g><g class="traces" transform="translate(0,90.5)" style="opacity: 1;"><text class="legendtext" text-anchor="start" x="40" y="9.360000000000001" style="font-family: 'Open Sans', verdana, arial, sans-serif; font-size: 24px; fill: rgb(42, 63, 95); fill-opacity: 1; white-space: pre;">3m</text><g class="layers" style="opacity: 1;"><g class="legendfill"/><g class="legendlines"><path class="js-line" d="M5,0h30" style="fill: none; stroke: rgb(0, 204, 150); stroke-opacity: 1; stroke-width: 3px;"/></g><g class="legendsymbols"><g class="legendpoints"/></g></g><rect class="legendtoggle" x="0" y="-17.1" width="78.609375" height="34.2" style="fill: rgb(0, 0, 0); fill-opacity: 0;"/></g><g class="traces" transform="translate(0,124.70000000000002)" style="opacity: 1;"><text class="legendtext" text-anchor="start" x="40" y="9.360000000000001" style="font-family: 'Open Sans', verdana, arial, sans-serif; font-size: 24px; fill: rgb(42, 63, 95); fill-opacity: 1; white-space: pre;">4m</text><g class="layers" style="opacity: 1;"><g class="legendfill"/><g class="legendlines"><path class="js-line" d="M5,0h30" style="fill: none; stroke: rgb(171, 99, 250); stroke-opacity: 1; stroke-width: 3px;"/></g><g class="legendsymbols"><g class="legendpoints"/></g></g><rect class="legendtoggle" x="0" y="-17.1" width="78.609375" height="34.2" style="fill: rgb(0, 0, 0); fill-opacity: 0;"/></g><g class="traces" transform="translate(0,158.9)" style="opacity: 1;"><text class="legendtext" text-anchor="start" x="40" y="9.360000000000001" style="font-family: 'Open Sans', verdana, arial, sans-serif; font-size: 24px; fill: rgb(42, 63, 95); fill-opacity: 1; white-space: pre;">5m</text><g class="layers" style="opacity: 1;"><g class="legendfill"/><g class="legendlines"><path class="js-line" d="M5,0h30" style="fill: none; stroke: rgb(255, 161, 90); stroke-opacity: 1; stroke-width: 3px;"/></g><g class="legendsymbols"><g class="legendpoints"/></g></g><rect class="legendtoggle" x="0" y="-17.1" width="78.609375" height="34.2" style="fill: rgb(0, 0, 0); fill-opacity: 0;"/></g></g></g><rect class="scrollbar" rx="20" ry="3" width="0" height="0" x="0" y="0" style="fill: rgb(128, 139, 164); fill-opacity: 1;"/></g><g class="g-gtitle"><text class="gtitle" x="800" y="50" text-anchor="middle" dy="0.7em" style="opacity: 1; font-family: 'Open Sans', verdana, arial, sans-serif; font-size: 20px; fill: rgb(42, 63, 95); fill-opacity: 1; font-weight: bold; white-space: pre;">No Yielding, Front and eHMI</text></g><g class="g-xtitle"><text class="xtitle" x="800" y="873.5" text-anchor="middle" style="opacity: 1; font-family: 'Open Sans', verdana, arial, sans-serif; font-size: 20px; fill: rgb(42, 63, 95); fill-opacity: 1; white-space: pre;">Time (in seconds)</text></g><g class="g-ytitle"><text class="ytitle" transform="rotate(-90,24.78125,460)" x="24.78125" y="460" text-anchor="middle" style="opacity: 1; font-family: 'Open Sans', verdana, arial, sans-serif; font-size: 20px; fill: rgb(42, 63, 95); fill-opacity: 1; white-space: pre;">Trigger press</text></g></g></svg>