<svg class="main-svg" xmlns="http://www.w3.org/2000/svg" xmlns:xlink="http://www.w3.org/1999/xlink" width="4800" height="2700" style="" viewBox="0 0 1600 900"><rect x="0" y="0" width="1600" height="900" style="fill: rgb(255, 255, 255); fill-opacity: 1;"/><defs id="defs-a18143"><g class="clips"><clipPath id="clipa18143xyplot" class="plotclip"><rect width="1440" height="720"/></clipPath><clipPath class="axesclip" id="clipa18143x"><rect x="80" y="0" width="1440" height="900"/></clipPath><clipPath class="axesclip" id="clipa18143y"><rect x="0" y="100" width="1600" height="720"/></clipPath><clipPath class="axesclip" id="clipa18143xy"><rect x="80" y="100" width="1440" height="720"/></clipPath></g><g class="gradients"/><g class="patterns"/></defs><g class="bglayer"><rect class="bg" x="80" y="100" width="1440" height="720" style="fill: rgb(229, 236, 246); fill-opacity: 1; stroke-width: 0;"/></g><g class="layer-below"><g class="imagelayer"/><g class="shapelayer"/></g><g class="cartesianlayer"><g class="subplot xy"><g class="layer-subplot"><g class="shapelayer"/><g class="imagelayer"/></g><g class="minor-gridlayer"><g class="x"/><g class="y"/></g><g class="gridlayer"><g class="x"><path class="xgrid crisp" transform="translate(221.4,0)" d="M0,100v720" style="stroke: rgb(255, 255, 255); stroke-opacity: 1; stroke-width: 1px;"/><path class="xgrid crisp" transform="translate(365.69,0)" d="M0,100v720" style="stroke: rgb(255, 255, 255); stroke-opacity: 1; stroke-width: 1px;"/><path class="xgrid crisp" transform="translate(509.98,0)" d="M0,100v720" style="stroke: rgb(255, 255, 255); stroke-opacity: 1; stroke-width: 1px;"/><path class="xgrid crisp" transform="translate(654.27,0)" d="M0,100v720" style="stroke: rgb(255, 255, 255); stroke-opacity: 1; stroke-width: 1px;"/><path class="xgrid crisp" transform="translate(798.56,0)" d="M0,100v720" style="stroke: rgb(255, 255, 255); stroke-opacity: 1; stroke-width: 1px;"/><path class="xgrid crisp" transform="translate(942.85,0)" d="M0,100v720" style="stroke: rgb(255, 255, 255); stroke-opacity: 1; stroke-width: 1px;"/><path class="xgrid crisp" transform="translate(1087.13,0)" d="M0,100v720" style="stroke: rgb(255, 255, 255); stroke-opacity: 1; stroke-width: 1px;"/><path class="xgrid crisp" transform="translate(1231.42,0)" d="M0,100v720" style="stroke: rgb(255, 255, 255); stroke-opacity: 1; stroke-width: 1px;"/><path class="xgrid crisp" transform="translate(1375.71,0)" d="M0,100v720" style="stroke: rgb(255, 255, 255); stroke-opacity: 1; stroke-width: 1px;"/></g><g class="y"><path class="ygrid crisp" transform="translate(0,710.37)" d="M80,0h1440" style="stroke: rgb(255, 255, 255); stroke-opacity: 1; stroke-width: 1px;"/><path class="ygrid crisp" transform="translate(0,636.73)" d="M80,0h1440" style="stroke: rgb(255, 255, 255); stroke-opacity: 1; stroke-width: 1px;"/><path class="ygrid crisp" transform="translate(0,563.1)" d="M80,0h1440" style="stroke: rgb(255, 255, 255); stroke-opacity: 1; stroke-width: 1px;"/><path class="ygrid crisp" transform="translate(0,489.46)" d="M80,0h1440" style="stroke: rgb(255, 255, 255); stroke-opacity: 1; stroke-width: 1px;"/><path class="ygrid crisp" transform="translate(0,415.83)" d="M80,0h1440" style="stroke: rgb(255, 255, 255); stroke-opacity: 1; stroke-width: 1px;"/><path class="ygrid crisp" transform="translate(0,342.19)" d="M80,0h1440" style="stroke: rgb(255, 255, 255); stroke-opacity: 1; stroke-width: 1px;"/><path class="ygrid crisp" transform="translate(0,268.56)" d="M80,0h1440" style="stroke: rgb(255, 255, 255); stroke-opacity: 1; stroke-width: 1px;"/><path class="ygrid crisp" transform="translate(0,194.93)" d="M80,0h1440" style="stroke: rgb(255, 255, 255); stroke-opacity: 1; stroke-width: 1px;"/><path class="ygrid crisp" transform="translate(0,121.28999999999999)" d="M80,0h1440" style="stroke: rgb(255, 255, 255); stroke-opacity: 1; stroke-width: 1px;"/></g></g><g class="zerolinelayer"><path class="yzl zl crisp" transform="translate(0,784)" d="M80,0h1440" style="stroke: rgb(255, 255, 255); stroke-opacity: 1; stroke-width: 2px;"/></g><g class="layer-between"><g class="shapelayer"/><g class="imagelayer"/></g><path class="xlines-below"/><path class="ylines-below"/><g class="overlines-below"/><g class="xaxislayer-below"/><g class="yaxislayer-below"/><g class="overaxes-below"/><g class="overplot"><g class="xy" transform="translate(80,100)" clip-path="url(#clipa18143xyplot)"><g class="scatterlayer mlayer"><g class="trace scatter tracebf39db" style="stroke-miterlimit: 2; opacity: 1;"><g class="fills"/><g class="errorbars"/><g class="lines"><path class="js-line" d="M0,684L308.78,684L311.66,674.91L314.55,674.91L317.43,591.96L493.47,591.96L496.35,606.56L499.24,669.54L502.12,684L960.96,684L963.85,682.2L969.62,591.96L972.5,591.96L992.7,591.96L995.59,589.75L998.48,565.84L1001.36,499.91L1087.94,499.78L1090.82,498.99L1093.71,498.59L1096.59,406.23L1099.48,405.57L1102.36,314.17L1113.91,314.27L1116.79,312.51L1122.56,309.31L1125.45,303.62L1128.34,284.61L1131.22,284.53L1134.11,253.95L1136.99,240.97L1139.88,223.57L1142.77,135.72L1145.65,135.78L1148.54,131.79L1157.19,131.17L1160.08,132.03L1165.85,132.21L1168.74,133.18L1177.39,134.09L1180.28,134.11L1188.94,133.57L1191.82,137.17L1194.71,137.13L1197.6,141.08L1200.48,140.98L1203.37,143.26L1212.02,143.32L1214.91,143.34L1223.57,142.72L1226.45,140.59L1229.34,137.48L1232.22,129.5L1235.11,117.54L1237.99,95.87L1240.88,91.22L1243.77,90.59L1246.65,94.42L1249.54,100.22L1252.42,107.85L1255.31,113.3L1258.2,121.09L1261.08,122.75L1266.85,126.05L1269.74,127.38L1272.62,129.75L1275.51,133.11L1278.4,135.99L1281.28,137.24L1284.17,139.36L1287.05,140.16L1289.94,142.06L1292.83,142.46L1295.71,144.28L1298.6,147.63L1304.37,150.21L1307.25,150.51L1310.14,233.87L1313.03,242.01L1315.91,242.01L1318.8,283.38L1321.68,340.55L1324.57,419.06L1327.45,426.23L1330.34,427L1336.11,427L1339,433.09L1341.88,433.09L1344.77,440.93L1350.54,440.93L1353.43,443.06L1359.2,443.06L1362.08,445.12L1379.4,445.2L1382.28,447.75L1390.94,448.44L1393.83,454.74L1399.6,454.74L1402.48,466.72L1405.37,471.62L1408.26,471.62L1416.91,479.24L1419.8,479.24L1422.68,480.09L1425.57,483.47L1428.46,486.93L1431.34,486.93L1437.11,494.36L1440,473.62" style="vector-effect: none; fill: none; stroke: rgb(99, 110, 250); stroke-opacity: 1; stroke-width: 3px; opacity: 1;"/></g><g class="points"/><g class="text"/></g><g class="trace scatter traced67302" style="stroke-miterlimit: 2; opacity: 1;"><g class="fills"/><g class="errorbars"/><g class="lines"><path class="js-line" d="M0,684L438.64,683.96L441.52,682.82L444.41,682.01L447.3,678.75L450.18,677.14L453.07,669.48L455.95,666.16L458.84,652.71L461.72,637.6L464.61,627.43L467.5,606.7L470.38,604.64L473.27,600.16L476.15,597.88L479.04,594.17L481.92,594.12L484.81,593.82L487.7,594.42L490.58,594.22L493.47,595.27L499.24,595.17L502.12,596.01L507.89,595.86L510.78,596.16L519.44,595.71L522.33,595.56L530.98,594.82L533.87,594.77L554.07,594.67L556.95,594.72L562.72,594.32L565.61,594.37L574.27,593.42L577.16,594.02L582.93,593.92L585.81,594.07L588.7,593.77L591.58,594.67L594.47,593.67L597.35,594.02L614.67,594.07L617.56,595.36L623.33,596.21L626.21,595.76L634.87,595.71L637.76,596.75L640.64,596.21L643.53,597.04L649.3,596.7L652.18,596.65L655.07,597.04L657.96,596.65L666.61,596.31L669.5,595.41L675.27,596.01L678.16,595.46L686.81,595.51L689.7,595.66L698.36,594.87L701.24,594.92L707.01,593.87L709.9,593.67L715.67,593.72L718.56,593.27L741.64,592.01L744.53,592.81L747.42,592.11L750.3,592.61L753.19,592.81L756.07,591.96L764.73,592.36L767.62,592.81L770.5,592.46L773.39,593.12L802.25,594.42L805.13,595.36L808.02,596.4L810.9,595.91L816.67,597.14L819.56,597.49L822.44,598.07L825.33,597.73L868.62,599.68L871.5,599.24L880.16,600.79L883.05,600.4L885.93,602.23L888.82,602.56L900.36,604.74L903.25,606.14L906.13,608.59L909.02,617.52L911.9,631.88L914.79,651.53L917.68,660.06L920.56,674.54L923.45,677.69L926.33,683.05L929.22,684L932.1,684L958.08,684L960.96,681.35L963.85,657L966.73,591.96L1035.99,591.96L1038.88,590.58L1041.76,580.3L1044.65,507.69L1047.53,499.91L1050.42,499.91L1079.28,499.27L1082.17,465.79L1085.05,407.87L1087.94,407.87L1102.36,407.87L1105.25,315.83L1119.68,315.83L1122.57,266.24L1125.45,222.53L1128.34,157.03L1131.22,133.59L1134.11,131.35L1151.42,130.87L1154.31,130.71L1188.94,129.81L1191.82,42.22L1194.71,37.81L1197.6,37.76L1203.37,37.77L1206.25,66.42L1209.14,129.72L1212.02,129.87L1261.08,130.42L1263.97,130.58L1278.4,131.13L1281.28,185.49L1287.05,222.92L1289.94,222.47L1292.82,222.24L1295.71,220.64L1301.48,218.92L1304.37,219.31L1307.26,220.1L1310.14,221.82L1313.03,222.3L1315.91,223.58L1327.45,223.79L1330.34,223.79L1333.23,225.55L1336.11,289.11L1339,315.83L1341.88,315.83L1370.74,315.83L1373.63,405.22L1376.51,405.22L1379.4,407.87L1396.71,407.87L1399.6,410.23L1408.26,446.99L1411.14,489.59L1414.03,499.18L1416.91,499.91L1440,499.91" style="vector-effect: none; fill: none; stroke: rgb(239, 85, 59); stroke-opacity: 1; stroke-width: 3px; opacity: 1;"/></g><g class="points"/><g class="text"/></g><g class="trace scatter tracea3ea24" style="stroke-miterlimit: 2; opacity: 1;"><g class="fills"/><g class="errorbars"/><g class="lines"><path class="js-line" d="M0,684L496.35,684L499.24,682.98L502.12,682.19L505.01,680.38L507.9,676.1L510.78,673.9L513.67,664.22L516.56,659.37L519.44,638.93L522.32,632.03L525.21,610.86L528.1,609.73L536.75,608.13L539.64,607.25L554.07,607.07L556.95,607.48L574.27,607.71L577.16,608.68L580.04,607.85L582.93,608.45L588.7,610.91L591.58,622.18L594.47,629.52L597.36,663.91L600.24,680.19L603.13,683.59L608.9,684L611.78,684L686.82,683.86L689.7,681.67L695.47,677.75L698.36,678.08L701.24,678.57L704.13,681.9L707.02,684L709.9,684L989.82,684L992.71,591.96L1015.79,591.96L1018.68,584.03L1024.45,542.4L1027.33,531.66L1030.22,452.17L1033.11,480.06L1038.88,498.74L1041.76,498.66L1050.42,499.25L1053.31,499.78L1056.19,498.05L1059.08,494.6L1061.96,492.5L1064.85,484.27L1067.74,480.68L1070.62,466.9L1073.51,454.88L1076.4,448.78L1079.28,433.7L1082.17,426.33L1087.94,424.5L1090.82,421.49L1093.71,416.91L1096.59,324.72L1102.37,278.41L1105.25,232.38L1113.91,230.52L1116.79,231.27L1122.56,229.38L1125.45,229.8L1131.22,229L1134.11,227.27L1145.65,225.94L1148.54,225.57L1160.08,225.64L1162.97,224.86L1165.85,223.65L1168.74,223.49L1171.62,223.34L1174.51,222.08L1177.39,222.15L1180.28,220.96L1186.05,220.26L1188.94,221.08L1194.71,220.45L1197.59,128.61L1203.37,128.99L1206.25,128.12L1209.14,36L1212.03,125.35L1214.91,126.93L1217.8,126.96L1220.68,129.43L1223.57,140.72L1226.45,146.67L1229.34,196.01L1232.22,208.27L1235.11,217.25L1243.77,216.28L1246.65,216.37L1263.97,216.48L1266.85,216.34L1278.4,216.4L1281.28,216.99L1289.94,218.26L1292.83,219.84L1295.71,220.58L1298.6,222.17L1307.25,223.79L1310.14,223.79L1344.77,223.79L1347.66,291.06L1350.54,291.06L1353.43,315.83L1370.74,315.83L1373.63,332.83L1376.51,407.32L1379.4,407.87L1440,407.87" style="vector-effect: none; fill: none; stroke: rgb(0, 204, 150); stroke-opacity: 1; stroke-width: 3px; opacity: 1;"/></g><g class="points"/><g class="text"/></g><g class="trace scatter tracec06f4c" style="stroke-miterlimit: 2; opacity: 1;"><g class="fills"/><g class="errorbars"/><g class="lines"><path class="js-line" d="M0,684L842.65,684L845.53,682.49L848.42,676.87L851.31,649.21L854.19,628.29L857.08,628.22L859.96,628.14L862.85,591.44L914.79,590.57L917.67,590.63L937.88,591.17L940.76,591.43L1004.25,591.96L1007.13,591.96L1010.02,591.96L1012.91,590.57L1015.79,588.14L1018.68,582.41L1021.56,509.75L1024.45,499.91L1064.85,499.91L1067.74,420.56L1070.62,420.56L1073.51,406.47L1076.39,392.63L1079.28,315.83L1113.91,315.51L1116.79,314.85L1122.57,380.52L1125.45,399.31L1128.34,397.6L1131.22,389.28L1134.11,379.75L1136.99,373.31L1139.88,348.24L1142.77,337.51L1145.65,331.49L1148.54,331.49L1151.42,331.49L1154.31,320.2L1157.2,293.45L1160.08,228.23L1165.85,223.79L1168.74,223.79L1174.51,223.03L1177.4,219.14L1180.28,215.42L1183.17,182L1186.05,152.71L1188.94,135.94L1191.82,131.74L1194.71,131.74L1197.6,117.98L1200.48,39.7L1214.91,39.7L1217.8,106.33L1220.68,131.74L1223.57,131.74L1339,131.74L1341.88,221.22L1344.77,223.79L1347.65,223.79L1364.97,223.79L1367.85,131.74L1382.28,131.74L1385.17,143.01L1388.05,223.79L1390.94,223.79L1440,223.79" style="vector-effect: none; fill: none; stroke: rgb(171, 99, 250); stroke-opacity: 1; stroke-width: 3px; opacity: 1;"/></g><g class="points"/><g class="text"/></g><g class="trace scatter trace96677e" style="stroke-miterlimit: 2; opacity: 1;"><g class="fills"/><g class="errorbars"/><g class="lines"><path class="js-line" d="M0,684L611.79,683.51L614.67,680.97L617.55,679.81L620.44,675.16L626.21,665.08L629.1,648.74L634.87,648.74L637.76,619.49L640.64,609.64L643.53,608.45L646.41,606L649.3,604.83L657.95,604.27L660.84,604.03L666.62,605.44L669.5,604.83L678.16,606.19L681.04,606.19L686.81,606.84L689.7,606.51L698.35,606.84L701.24,607.25L727.22,607.85L730.1,607.9L735.87,608.04L738.76,608.59L741.64,609.18L744.53,608.63L767.61,609.27L770.5,608.95L776.27,610.05L779.16,609.41L784.93,610.73L787.82,611.58L796.47,613.68L799.36,615.66L808.02,619.11L810.9,621.1L819.56,624.24L822.44,625.38L833.99,625.75L836.87,626.99L839.76,626.43L842.64,626.87L848.42,626.87L851.3,627.71L865.73,627.39L868.62,627.63L900.36,626.99L903.25,626.31L917.68,625.58L920.56,624.65L926.33,624.65L929.22,623.46L932.1,623.46L934.99,622.01L937.88,622.01L940.76,621.1L949.42,620.89L952.3,620L960.96,620.34L963.85,577.94L966.73,528.3L969.62,528.3L978.28,528L981.16,524.01L986.93,524.01L989.82,519.59L995.59,519.59L998.48,518.55L1001.36,518.55L1004.25,513.58L1010.02,513.58L1012.91,509.13L1018.68,509.13L1021.56,499.91L1024.45,499.91L1027.34,497.69L1030.22,407.87L1033.11,407.87L1082.17,407.87L1085.05,398.87L1087.94,375.1L1090.82,316.74L1093.71,315.83L1096.59,315.83L1108.13,315.83L1111.02,312.41L1113.91,223.79L1116.8,223.79L1128.34,223.79L1131.22,269.21L1134.11,269.21L1137,304.04L1139.88,315.83L1142.77,315.83L1174.51,315.83L1177.39,226.55L1180.28,223.79L1183.17,223.79L1188.94,223.79L1191.82,312.83L1194.71,315.83L1197.6,314.04L1200.48,223.79L1203.36,223.79L1223.57,223.79L1226.45,222.4L1232.23,131.74L1235.11,131.74L1382.28,131.74L1385.17,163.04L1388.06,192.08L1390.94,213.3L1393.83,223.79L1396.71,223.79L1419.8,223.79L1422.69,303.58L1425.57,315.83L1428.46,315.83L1440,315.83" style="vector-effect: none; fill: none; stroke: rgb(255, 161, 90); stroke-opacity: 1; stroke-width: 3px; opacity: 1;"/></g><g class="points"/><g class="text"/></g></g></g></g><path class="xlines-above crisp" d="M0,0" style="fill: none;"/><path class="ylines-above crisp" d="M0,0" style="fill: none;"/><g class="overlines-above"/><g class="xaxislayer-above"><g class="xtick"><text text-anchor="middle" x="0" y="841" transform="translate(221.4,0)" style="font-family: 'Open Sans', verdana, arial, sans-serif; font-size: 20px; fill: rgb(42, 63, 95); fill-opacity: 1; white-space: pre; opacity: 1;">1</text></g><g class="xtick"><text text-anchor="middle" x="0" y="841" style="font-family: 'Open Sans', verdana, arial, sans-serif; font-size: 20px; fill: rgb(42, 63, 95); fill-opacity: 1; white-space: pre; opacity: 1;" transform="translate(365.69,0)">2</text></g><g class="xtick"><text text-anchor="middle" x="0" y="841" style="font-family: 'Open Sans', verdana, arial, sans-serif; font-size: 20px; fill: rgb(42, 63, 95); fill-opacity: 1; white-space: pre; opacity: 1;" transform="translate(509.98,0)">3</text></g><g class="xtick"><text text-anchor="middle" x="0" y="841" style="font-family: 'Open Sans', verdana, arial, sans-serif; font-size: 20px; fill: rgb(42, 63, 95); fill-opacity: 1; white-space: pre; opacity: 1;" transform="translate(654.27,0)">4</text></g><g class="xtick"><text text-anchor="middle" x="0" y="841" style="font-family: 'Open Sans', verdana, arial, sans-serif; font-size: 20px; fill: rgb(42, 63, 95); fill-opacity: 1; white-space: pre; opacity: 1;" transform="translate(798.56,0)">5</text></g><g class="xtick"><text text-anchor="middle" x="0" y="841" style="font-family: 'Open Sans', verdana, arial, sans-serif; font-size: 20px; fill: rgb(42, 63, 95); fill-opacity: 1; white-space: pre; opacity: 1;" transform="translate(942.85,0)">6</text></g><g class="xtick"><text text-anchor="middle" x="0" y="841" style="font-family: 'Open Sans', verdana, arial, sans-serif; font-size: 20px; fill: rgb(42, 63, 95); fill-opacity: 1; white-space: pre; opacity: 1;" transform="translate(1087.13,0)">7</text></g><g class="xtick"><text text-anchor="middle" x="0" y="841" style="font-family: 'Open Sans', verdana, arial, sans-serif; font-size: 20px; fill: rgb(42, 63, 95); fill-opacity: 1; white-space: pre; opacity: 1;" transform="translate(1231.42,0)">8</text></g><g class="xtick"><text text-anchor="middle" x="0" y="841" style="font-family: 'Open Sans', verdana, arial, sans-serif; font-size: 20px; fill: rgb(42, 63, 95); fill-opacity: 1; white-space: pre; opacity: 1;" transform="translate(1375.71,0)">9</text></g><g class="xtick"><text text-anchor="middle" x="0" y="841" style="font-family: 'Open Sans', verdana, arial, sans-serif; font-size: 20px; fill: rgb(42, 63, 95); fill-opacity: 1; white-space: pre; opacity: 1;" transform="translate(1520,0)">10</text></g></g><g class="yaxislayer-above"><g class="ytick"><text text-anchor="end" x="79" y="7" transform="translate(0,784)" style="font-family: 'Open Sans', verdana, arial, sans-serif; font-size: 20px; fill: rgb(42, 63, 95); fill-opacity: 1; white-space: pre; opacity: 1;">0</text></g><g class="ytick"><text text-anchor="end" x="79" y="7" style="font-family: 'Open Sans', verdana, arial, sans-serif; font-size: 20px; fill: rgb(42, 63, 95); fill-opacity: 1; white-space: pre; opacity: 1;" transform="translate(0,710.37)">0.1</text></g><g class="ytick"><text text-anchor="end" x="79" y="7" style="font-family: 'Open Sans', verdana, arial, sans-serif; font-size: 20px; fill: rgb(42, 63, 95); fill-opacity: 1; white-space: pre; opacity: 1;" transform="translate(0,636.73)">0.2</text></g><g class="ytick"><text text-anchor="end" x="79" y="7" style="font-family: 'Open Sans', verdana, arial, sans-serif; font-size: 20px; fill: rgb(42, 63, 95); fill-opacity: 1; white-space: pre; opacity: 1;" transform="translate(0,563.1)">0.3</text></g><g class="ytick"><text text-anchor="end" x="79" y="7" style="font-family: 'Open Sans', verdana, arial, sans-serif; font-size: 20px; fill: rgb(42, 63, 95); fill-opacity: 1; white-space: pre; opacity: 1;" transform="translate(0,489.46)">0.4</text></g><g class="ytick"><text text-anchor="end" x="79" y="7" style="font-family: 'Open Sans', verdana, arial, sans-serif; font-size: 20px; fill: rgb(42, 63, 95); fill-opacity: 1; white-space: pre; opacity: 1;" transform="translate(0,415.83)">0.5</text></g><g class="ytick"><text text-anchor="end" x="79" y="7" style="font-family: 'Open Sans', verdana, arial, sans-serif; font-size: 20px; fill: rgb(42, 63, 95); fill-opacity: 1; white-space: pre; opacity: 1;" transform="translate(0,342.19)">0.6</text></g><g class="ytick"><text text-anchor="end" x="79" y="7" style="font-family: 'Open Sans', verdana, arial, sans-serif; font-size: 20px; fill: rgb(42, 63, 95); fill-opacity: 1; white-space: pre; opacity: 1;" transform="translate(0,268.56)">0.7</text></g><g class="ytick"><text text-anchor="end" x="79" y="7" style="font-family: 'Open Sans', verdana, arial, sans-serif; font-size: 20px; fill: rgb(42, 63, 95); fill-opacity: 1; white-space: pre; opacity: 1;" transform="translate(0,194.93)">0.8</text></g><g class="ytick"><text text-anchor="end" x="79" y="7" style="font-family: 'Open Sans', verdana, arial, sans-serif; font-size: 20px; fill: rgb(42, 63, 95); fill-opacity: 1; white-space: pre; opacity: 1;" transform="translate(0,121.28999999999999)">0.9</text></g></g><g class="overaxes-above"/></g></g><g class="polarlayer"/><g class="smithlayer"/><g class="ternarylayer"/><g class="geolayer"/><g class="funnelarealayer"/><g class="pielayer"/><g class="iciclelayer"/><g class="treemaplayer"/><g class="sunburstlayer"/><g class="glimages"/><defs id="topdefs-a18143"><g class="clips"/><clipPath id="legenda18143"><rect width="84" height="181" x="0" y="0"/></clipPath></defs><g class="layer-above"><g class="imagelayer"/><g class="shapelayer"/></g><g class="infolayer"><g class="legend" pointer-events="all" transform="translate(242.72,110.08000000000001)"><rect class="bg" shape-rendering="crispEdges" width="84" height="181" x="0" y="0" style="stroke: rgb(68, 68, 68); stroke-opacity: 1; fill: rgb(255, 255, 255); fill-opacity: 1; stroke-width: 0px;"/><g class="scrollbox" transform="" clip-path="url(#legenda18143)"><g class="groups"><g class="traces" transform="translate(0,22.1)" style="opacity: 1;"><text class="legendtext" text-anchor="start" x="40" y="9.360000000000001" style="font-family: 'Open Sans', verdana, arial, sans-serif; font-size: 24px; fill: rgb(42, 63, 95); fill-opacity: 1; white-space: pre;">1m</text><g class="layers" style="opacity: 1;"><g class="legendfill"/><g class="legendlines"><path class="js-line" d="M5,0h30" style="fill: none; stroke: rgb(99, 110, 250); stroke-opacity: 1; stroke-width: 3px;"/></g><g class="legendsymbols"><g class="legendpoints"/></g></g><rect class="legendtoggle" x="0" y="-17.1" width="78.609375" height="34.2" style="fill: rgb(0, 0, 0); fill-opacity: 0;"/></g><g class="traces" transform="translate(0,56.300000000000004)" style="opacity: 1;"><text class="legendtext" text-anchor="start" x="40" y="9.360000000000001" style="font-family: 'Open Sans', verdana, arial, sans-serif; font-size: 24px; fill: rgb(42, 63, 95); fill-opacity: 1; white-space: pre;">2m</text><g class="layers" style="opacity: 1;"><g class="legendfill"/><g class="legendlines"><path class="js-line" d="M5,0h30" style="fill: none; stroke: rgb(239, 85, 59); stroke-opacity: 1; stroke-width: 3px;"/></g><g class="legendsymbols"><g class="legendpoints"/></g></g><rect class="legendtoggle" x="0" y="-17.1" width="78.609375" height="34.2" style="fill: rgb(0, 0, 0); fill-opacity: 0;"/></g><g class="traces" transform="translate(0,90.5)" style="opacity: 1;"><text class="legendtext" text-anchor="start" x="40" y="9.360000000000001" style="font-family: 'Open Sans', verdana, arial, sans-serif; font-size: 24px; fill: rgb(42, 63, 95); fill-opacity: 1; white-space: pre;">3m</text><g class="layers" style="opacity: 1;"><g class="legendfill"/><g class="legendlines"><path class="js-line" d="M5,0h30" style="fill: none; stroke: rgb(0, 204, 150); stroke-opacity: 1; stroke-width: 3px;"/></g><g class="legendsymbols"><g class="legendpoints"/></g></g><rect class="legendtoggle" x="0" y="-17.1" width="78.609375" height="34.2" style="fill: rgb(0, 0, 0); fill-opacity: 0;"/></g><g class="traces" transform="translate(0,124.70000000000002)" style="opacity: 1;"><text class="legendtext" text-anchor="start" x="40" y="9.360000000000001" style="font-family: 'Open Sans', verdana, arial, sans-serif; font-size: 24px; fill: rgb(42, 63, 95); fill-opacity: 1; white-space: pre;">4m</text><g class="layers" style="opacity: 1;"><g class="legendfill"/><g class="legendlines"><path class="js-line" d="M5,0h30" style="fill: none; stroke: rgb(171, 99, 250); stroke-opacity: 1; stroke-width: 3px;"/></g><g class="legendsymbols"><g class="legendpoints"/></g></g><rect class="legendtoggle" x="0" y="-17.1" width="78.609375" height="34.2" style="fill: rgb(0, 0, 0); fill-opacity: 0;"/></g><g class="traces" transform="translate(0,158.9)" style="opacity: 1;"><text class="legendtext" text-anchor="start" x="40" y="9.360000000000001" style="font-family: 'Open Sans', verdana, arial, sans-serif; font-size: 24px; fill: rgb(42, 63, 95); fill-opacity: 1; white-space: pre;">5m</text><g class="layers" style="opacity: 1;"><g class="legendfill"/><g class="legendlines"><path class="js-line" d="M5,0h30" style="fill: none; stroke: rgb(255, 161, 90); stroke-opacity: 1; stroke-width: 3px;"/></g><g class="legendsymbols"><g class="legendpoints"/></g></g><rect class="legendtoggle" x="0" y="-17.1" width="78.609375" height="34.2" style="fill: rgb(0, 0, 0); fill-opacity: 0;"/></g></g></g><rect class="scrollbar" rx="20" ry="3" width="0" height="0" x="0" y="0" style="fill: rgb(128, 139, 164); fill-opacity: 1;"/></g><g class="g-gtitle"><text class="gtitle" x="800" y="50" text-anchor="middle" dy="0.7em" style="opacity: 1; font-family: 'Open Sans', verdana, arial, sans-serif; font-size: 20px; fill: rgb(42, 63, 95); fill-opacity: 1; font-weight: bold; white-space: pre;">No Yielding, Front and no eHMI</text></g><g class="g-xtitle"><text class="xtitle" x="800" y="873.5" text-anchor="middle" style="opacity: 1; font-family: 'Open Sans', verdana, arial, sans-serif; font-size: 20px; fill: rgb(42, 63, 95); fill-opacity: 1; white-space: pre;">Time (in seconds)</text></g><g class="g-ytitle"><text class="ytitle" transform="rotate(-90,24.78125,460)" x="24.78125" y="460" text-anchor="middle" style="opacity: 1; font-family: 'Open Sans', verdana, arial, sans-serif; font-size: 20px; fill: rgb(42, 63, 95); fill-opacity: 1; white-space: pre;">Trigger press</text></g></g></svg>