<svg class="main-svg" xmlns="http://www.w3.org/2000/svg" xmlns:xlink="http://www.w3.org/1999/xlink" width="4800" height="2700" style="" viewBox="0 0 1600 900"><rect x="0" y="0" width="1600" height="900" style="fill: rgb(255, 255, 255); fill-opacity: 1;"/><defs id="defs-9ec1fd"><g class="clips"><clipPath id="clip9ec1fdxyplot" class="plotclip"><rect width="1440" height="720"/></clipPath><clipPath class="axesclip" id="clip9ec1fdx"><rect x="80" y="0" width="1440" height="900"/></clipPath><clipPath class="axesclip" id="clip9ec1fdy"><rect x="0" y="100" width="1600" height="720"/></clipPath><clipPath class="axesclip" id="clip9ec1fdxy"><rect x="80" y="100" width="1440" height="720"/></clipPath></g><g class="gradients"/><g class="patterns"/></defs><g class="bglayer"><rect class="bg" x="80" y="100" width="1440" height="720" style="fill: rgb(229, 236, 246); fill-opacity: 1; stroke-width: 0;"/></g><g class="layer-below"><g class="imagelayer"/><g class="shapelayer"/></g><g class="cartesianlayer"><g class="subplot xy"><g class="layer-subplot"><g class="shapelayer"/><g class="imagelayer"/></g><g class="minor-gridlayer"><g class="x"/><g class="y"/></g><g class="gridlayer"><g class="x"><path class="xgrid crisp" transform="translate(221.41,0)" d="M0,100v720" style="stroke: rgb(255, 255, 255); stroke-opacity: 1; stroke-width: 1px;"/><path class="xgrid crisp" transform="translate(365.7,0)" d="M0,100v720" style="stroke: rgb(255, 255, 255); stroke-opacity: 1; stroke-width: 1px;"/><path class="xgrid crisp" transform="translate(509.98,0)" d="M0,100v720" style="stroke: rgb(255, 255, 255); stroke-opacity: 1; stroke-width: 1px;"/><path class="xgrid crisp" transform="translate(654.27,0)" d="M0,100v720" style="stroke: rgb(255, 255, 255); stroke-opacity: 1; stroke-width: 1px;"/><path class="xgrid crisp" transform="translate(798.56,0)" d="M0,100v720" style="stroke: rgb(255, 255, 255); stroke-opacity: 1; stroke-width: 1px;"/><path class="xgrid crisp" transform="translate(942.85,0)" d="M0,100v720" style="stroke: rgb(255, 255, 255); stroke-opacity: 1; stroke-width: 1px;"/><path class="xgrid crisp" transform="translate(1087.1399999999999,0)" d="M0,100v720" style="stroke: rgb(255, 255, 255); stroke-opacity: 1; stroke-width: 1px;"/><path class="xgrid crisp" transform="translate(1231.42,0)" d="M0,100v720" style="stroke: rgb(255, 255, 255); stroke-opacity: 1; stroke-width: 1px;"/><path class="xgrid crisp" transform="translate(1375.71,0)" d="M0,100v720" style="stroke: rgb(255, 255, 255); stroke-opacity: 1; stroke-width: 1px;"/></g><g class="y"><path class="ygrid crisp" transform="translate(0,641.32)" d="M80,0h1440" style="stroke: rgb(255, 255, 255); stroke-opacity: 1; stroke-width: 1px;"/><path class="ygrid crisp" transform="translate(0,498.63)" d="M80,0h1440" style="stroke: rgb(255, 255, 255); stroke-opacity: 1; stroke-width: 1px;"/><path class="ygrid crisp" transform="translate(0,355.95)" d="M80,0h1440" style="stroke: rgb(255, 255, 255); stroke-opacity: 1; stroke-width: 1px;"/><path class="ygrid crisp" transform="translate(0,213.26999999999998)" d="M80,0h1440" style="stroke: rgb(255, 255, 255); stroke-opacity: 1; stroke-width: 1px;"/></g></g><g class="zerolinelayer"><path class="yzl zl crisp" transform="translate(0,784)" d="M80,0h1440" style="stroke: rgb(255, 255, 255); stroke-opacity: 1; stroke-width: 2px;"/></g><g class="layer-between"><g class="shapelayer"/><g class="imagelayer"/></g><path class="xlines-below"/><path class="ylines-below"/><g class="overlines-below"/><g class="xaxislayer-below"/><g class="yaxislayer-below"/><g class="overaxes-below"/><g class="overplot"><g class="xy" transform="translate(80,100)" clip-path="url(#clip9ec1fdxyplot)"><g class="scatterlayer mlayer"><g class="trace scatter trace22a17f" style="stroke-miterlimit: 2; opacity: 1;"><g class="fills"/><g class="errorbars"/><g class="lines"><path class="js-line" d="M0.01,684L577.16,684L580.04,682.45L582.93,681.32L585.82,678.18L588.7,672.21L591.59,663.49L594.47,640.75L597.36,631.59L600.24,610L603.13,608.11L606.02,604.73L608.9,603.19L611.79,602.59L614.67,603.57L620.45,604.22L623.33,604.87L629.1,605.92L631.99,606.06L652.19,606.34L655.07,607.3L657.96,606.93L660.85,608.25L663.73,608.65L666.62,610.13L669.5,610.54L672.39,611.78L675.27,611.6L678.16,613.05L681.05,621.58L683.93,626.5L686.82,642.82L689.7,647L692.59,656.12L695.47,658.22L698.36,661.78L701.25,666.81L704.13,668.02L707.02,671.61L709.9,671.81L712.79,673.35L715.68,674.03L718.56,675.53L724.33,676.63L727.22,678.23L735.87,680.01L738.76,680.18L758.96,681.29L761.85,681.64L776.27,684L779.16,684L946.54,684L949.42,670.54L952.31,670.54L955.19,594.82L1010.02,594.82L1012.91,556.05L1015.79,505.65L1018.68,505.65L1061.97,505.65L1064.85,503.61L1067.74,500.59L1070.62,406.76L1073.51,370.62L1076.4,316.83L1079.28,313.48L1082.17,306.52L1087.94,287.97L1090.82,271.4L1093.71,256.08L1096.59,245.83L1102.37,238.12L1105.25,238.12L1119.68,238.12L1122.57,236.91L1125.45,203L1128.34,149.53L1136.99,150.01L1139.88,151.23L1145.65,153.68L1148.54,157.22L1151.42,158.33L1154.31,153.72L1157.2,70.27L1160.08,73.46L1165.85,76.19L1168.74,79.26L1171.63,81.07L1174.51,145.87L1177.4,169.02L1180.28,168.95L1191.83,167.12L1194.71,166.91L1197.6,167.56L1200.48,245.65L1203.37,255.62L1206.25,256.3L1212.03,256.08L1214.91,256.43L1220.68,255.91L1223.57,256.21L1226.45,255.2L1229.34,255.29L1232.23,254.54L1235.11,254.76L1240.88,255.91L1243.77,256.48L1249.54,257.83L1252.43,259.76L1255.31,260.7L1258.2,264.01L1261.08,277.13L1263.97,284.55L1266.85,288.88L1269.74,288.88L1272.63,288.88L1275.51,298.29L1278.4,298.57L1281.28,302.2L1287.05,307.4L1289.94,307.99L1295.71,306.55L1298.6,306.08L1313.03,305.12L1315.91,338.77L1318.8,394.52L1321.68,394.33L1330.34,393.95L1333.23,394.75L1339,395.82L1341.88,395.96L1350.54,396.53L1353.43,396.42L1359.2,397L1362.08,396.75L1364.97,397.93L1367.86,397.86L1373.63,398.25L1376.51,488.65L1382.29,489.43L1385.17,490.59L1393.83,492.41L1396.71,492.27L1402.49,492.43L1405.37,492.81L1408.26,493.14L1411.14,494.71L1414.03,495.03L1416.91,496.56L1419.8,497.13L1422.69,498.62L1437.12,503.09L1440,503.18" style="vector-effect: none; fill: none; stroke: rgb(99, 110, 250); stroke-opacity: 1; stroke-width: 3px; opacity: 1;"/></g><g class="points"/><g class="text"/></g><g class="trace scatter traceba22be" style="stroke-miterlimit: 2; opacity: 1;"><g class="fills"/><g class="errorbars"/><g class="lines"><path class="js-line" d="M0,684L406.9,683.27L409.78,682.13L412.67,679.22L415.55,674.89L418.44,668.57L421.32,656.12L424.21,650.54L427.1,629.77L432.86,610.4L435.75,609.78L441.53,605.79L444.41,605.83L458.84,605.37L461.73,606.11L467.5,606.11L470.38,606.98L476.16,608.52L479.04,608.97L481.93,609.55L484.81,609.33L487.69,608.88L490.58,609.6L493.47,610.49L496.35,610.4L499.24,612.26L502.13,612.13L510.78,613.71L513.67,614.4L516.56,614.4L519.44,616.26L522.32,616.26L525.21,617.11L528.1,618.13L530.98,618.17L533.87,621.34L536.76,621.34L542.52,623.78L545.41,623.78L548.3,624.59L551.18,624.59L554.07,624.59L556.96,627.25L559.84,627.25L562.72,628.65L565.61,628.65L568.5,629.81L571.38,629.81L574.27,631.71L629.1,631.49L631.98,624.62L634.87,555.36L637.76,549.96L640.64,549.91L643.53,554.46L646.42,557.72L649.3,590.85L652.18,607.49L655.07,629.15L657.96,629.03L660.84,627.68L663.73,627.02L666.61,627.77L669.5,631.33L672.38,632.23L686.81,632.08L689.7,632.91L712.79,632.76L715.67,633.5L721.44,633.5L724.33,634.31L738.76,634.72L741.64,635.99L747.42,635.99L750.3,638.34L756.08,638.34L758.96,641.4L761.84,641.4L764.73,650.63L767.62,655.79L770.5,655.79L773.39,663.97L776.27,666.83L779.16,669.07L782.04,669.07L784.93,671.64L787.82,672.46L790.7,672.46L793.58,673.36L799.36,675.87L802.25,675.87L808.02,677.34L810.9,677.34L819.56,680.2L822.45,680.2L833.99,683.7L836.88,684L911.9,684L914.79,594.82L920.56,594.82L923.44,593.65L926.33,589.73L929.22,582.52L932.1,582.52L934.99,560.24L937.87,552.76L940.76,552.76L943.65,517.94L946.53,516.15L949.42,513.5L952.31,513.5L955.19,511.34L958.07,511.34L969.62,511.57L972.51,509.74L975.39,491.02L978.27,427.59L981.16,424.61L984.05,424.75L998.48,425.17L1001.36,424.42L1018.68,425.03L1021.56,425.21L1024.45,425.12L1027.33,405.73L1030.22,376.63L1033.1,335.62L1038.88,335.43L1041.76,335.43L1050.42,335.8L1053.31,335.7L1056.19,336.55L1059.08,335.6L1067.73,334.27L1070.62,332.32L1076.39,330.07L1079.28,325.84L1082.16,325.9L1085.05,241.78L1087.93,242.5L1090.82,241.91L1093.71,241.54L1096.59,251.1L1099.48,331.15L1102.36,331.16L1105.25,330.55L1108.13,245.78L1111.02,241.12L1113.91,240.9L1116.8,240.29L1119.68,240.58L1122.56,240L1125.45,240.74L1128.34,240.31L1131.22,245.35L1134.11,245.27L1136.99,327.66L1139.88,327.62L1142.76,329.17L1145.65,324.06L1148.54,239.04L1157.19,238.39L1160.08,237.44L1165.85,232.35L1168.74,217.75L1174.51,196.83L1177.39,180.11L1180.28,179.47L1183.17,181.58L1188.94,179.61L1191.82,179.55L1197.6,180.26L1200.48,178.17L1212.02,172.4L1214.91,172.5L1217.79,172.26L1220.68,167.86L1226.45,166.4L1229.34,166.62L1232.22,165.99L1235.11,163.8L1238,163.31L1240.88,163.97L1246.65,163.43L1249.54,162L1255.31,161.01L1258.2,161.75L1266.85,157.73L1269.74,157.87L1275.51,157.17L1278.4,157.87L1284.16,160.82L1287.05,164.97L1289.94,166.34L1292.82,169.94L1295.71,171.69L1298.59,181.48L1301.48,208.6L1304.37,219.51L1307.25,235.18L1310.14,236.62L1313.03,238.12L1315.91,238.12L1321.68,238.12L1324.57,286.31L1327.45,327.29L1330.34,327.29L1338.99,327.29L1341.88,328.66L1353.42,331.17L1356.31,333.03L1359.2,335.06L1362.08,335.06L1364.97,336.59L1367.86,426.37L1370.74,427.71L1373.62,427.3L1379.4,428.76L1382.28,430.07L1388.05,434.39L1390.94,444.21L1396.71,444.21L1399.6,475.01L1402.48,488.78L1405.37,498.68L1408.25,498.68L1411.14,505.65L1440,505.65" style="vector-effect: none; fill: none; stroke: rgb(239, 85, 59); stroke-opacity: 1; stroke-width: 3px; opacity: 1;"/></g><g class="points"/><g class="text"/></g><g class="trace scatter tracecf8155" style="stroke-miterlimit: 2; opacity: 1;"><g class="fills"/><g class="errorbars"/><g class="lines"><path class="js-line" d="M0.01,684L349.18,683.54L352.07,681.65L357.84,675.37L360.73,670.31L366.5,656.86L369.38,625.59L372.27,611.38L375.15,603.57L378.04,600.37L380.93,598.94L386.7,599.27L389.58,599.37L392.47,599.51L395.35,600.51L398.24,600.42L401.12,601.41L406.9,603.52L409.78,603.71L415.56,603.94L418.44,604.82L424.21,606.98L427.1,606.7L435.75,607.61L438.64,607.34L444.41,608.29L447.3,607.66L453.07,609.01L455.95,608.65L467.5,609.64L470.38,610.58L473.27,611.25L476.15,613.32L481.93,614.23L484.81,613.84L487.7,614.45L490.58,614.06L499.24,616.13L502.13,618.25L505.01,621.46L507.9,622.36L510.78,625.15L513.67,629.11L519.44,636.13L522.33,636.57L539.64,638.2L542.53,637.99L554.07,637.39L556.96,637.57L565.61,636.49L568.5,636.46L577.16,635.66L580.04,635.34L591.59,634.13L594.47,634.28L600.24,633.5L603.13,633.65L614.67,633.8L617.56,634.42L620.44,634.02L623.33,634.97L629.1,635.08L631.99,636.82L634.87,638.56L637.76,642.11L640.64,642.68L643.53,647.41L646.42,649.04L649.3,656.75L652.19,662.28L655.07,664.7L657.96,671.26L660.84,673.01L663.73,677.64L666.62,679.2L672.39,683.9L675.27,684L779.16,683.36L782.04,683.11L819.56,682.28L822.45,682.34L857.07,682.26L859.96,682.14L865.73,681.75L868.62,669.23L871.5,653.37L874.39,625.82L877.28,592.17L880.16,592.05L903.25,590.84L906.13,590.63L909.02,585.54L911.9,566.82L914.79,501.12L917.68,501.05L952.31,500.09L955.19,500.17L958.08,500.33L960.96,411.16L972.51,411.25L975.39,439.35L978.28,481L981.16,500.42L1007.14,499.7L1010.02,498.87L1015.79,495.88L1018.68,493.92L1027.34,489.62L1030.22,488.93L1033.11,481.84L1035.99,397.42L1041.77,395.92L1044.65,394.18L1047.54,393.72L1050.42,392.17L1056.19,391.15L1059.08,390.5L1087.94,387.32L1090.82,386.33L1093.71,386.6L1096.59,384.81L1116.79,381.87L1119.68,292.76L1131.22,292.18L1134.11,291.62L1137,345.47L1139.88,295.44L1142.76,291.35L1145.65,291.63L1157.19,289.45L1160.08,288.02L1165.85,285.62L1168.74,279.4L1171.62,276.56L1174.51,268.66L1183.17,255.71L1186.06,236.35L1188.94,190.39L1191.82,184.5L1194.71,177.03L1197.59,172.24L1200.48,160.59L1203.37,157.87L1206.25,152.77L1209.14,150.98L1212.02,148.94L1214.91,148.94L1217.79,151.32L1220.68,168.52L1226.45,187.17L1229.34,210.01L1232.22,227.5L1235.11,238.12L1258.2,238.12L1261.08,271.2L1263.97,312.43L1266.85,327.29L1376.51,327.29L1379.4,352.81L1382.28,416.47L1385.17,416.47L1405.37,416.47L1408.26,505.65L1440,505.65" style="vector-effect: none; fill: none; stroke: rgb(0, 204, 150); stroke-opacity: 1; stroke-width: 3px; opacity: 1;"/></g><g class="points"/><g class="text"/></g><g class="trace scatter traceb91be6" style="stroke-miterlimit: 2; opacity: 1;"><g class="fills"/><g class="errorbars"/><g class="lines"><path class="js-line" d="M0.01,684L300.13,683.85L303.01,683.12L305.9,682.86L308.78,681.82L311.67,681.38L314.55,680.09L317.44,679.84L320.33,678.8L334.75,677.58L337.64,677.53L349.18,677.03L352.07,677.05L380.93,676.9L383.81,677.18L389.58,677.2L392.47,677.11L404.01,676.78L406.9,676.74L418.44,676.89L421.33,676.6L432.87,675.44L435.76,674.87L444.41,673.01L447.3,672.63L481.93,671.83L484.81,671.91L516.56,671.59L519.44,671.76L554.07,671.55L556.96,671.4L571.39,671.05L574.27,671.19L588.7,670.09L591.59,668.78L597.36,664.82L600.24,664.84L608.9,665.14L611.79,665.37L620.44,665.76L623.33,665.71L640.65,665.87L643.53,666.19L649.3,666.45L652.19,666.79L657.96,666.41L660.85,666.21L669.5,665.25L672.39,665.39L686.82,665.62L689.7,665.82L839.76,665.37L842.65,665.12L883.05,665.3L885.94,665.19L900.36,665.41L903.25,665.35L920.56,665.28L923.45,661.34L926.33,576.19L929.22,575.99L934.99,575.94L937.88,575.96L949.42,575.78L952.31,486.55L975.39,486.24L978.28,486.13L986.94,484.56L989.82,482.11L992.71,480.99L995.59,478.95L998.48,477.96L1001.37,477.77L1004.25,477.47L1007.14,475.81L1012.91,468.2L1015.79,441.85L1018.68,424.01L1021.57,412.65L1024.45,407.86L1027.34,397.35L1056.19,397.63L1059.08,397.33L1061.97,308.34L1064.85,308.27L1067.74,307.54L1070.62,264.92L1073.51,264.99L1076.4,218.95L1096.59,218.51L1099.48,218.86L1113.91,217.92L1116.79,217.9L1125.45,217.8L1128.34,218.25L1145.65,217.66L1148.54,216.44L1151.42,211.01L1154.31,180.81L1157.2,124.79L1160.08,124.66L1162.97,125.05L1165.85,36L1177.4,37.62L1180.28,39.72L1183.17,185.76L1186.05,216.2L1194.71,216.34L1197.6,216.34L1212.03,216.69L1214.91,216.61L1223.57,216.74L1226.45,216.79L1232.22,216.52L1235.11,216.71L1243.77,216.44L1246.66,216.61L1261.08,216.42L1263.97,216.1L1266.85,216.52L1269.74,295.38L1272.63,305.59L1275.51,305.62L1301.48,305.82L1304.37,305.37L1307.26,308.28L1310.14,355.95L1313.03,369.71L1315.91,387.66L1318.8,392.37L1321.68,394.52L1330.34,394.4L1333.23,394.65L1350.54,394.23L1353.43,393.98L1359.2,394.1L1362.09,444.91L1364.97,477.65L1367.86,483.2L1379.4,483.5L1382.29,483.4L1388.06,483.05L1390.94,493.64L1393.83,542.39L1396.71,569.56L1399.6,572.26L1402.49,572.13L1422.69,571.65L1425.57,572.13L1437.12,571.95L1440,572.05" style="vector-effect: none; fill: none; stroke: rgb(171, 99, 250); stroke-opacity: 1; stroke-width: 3px; opacity: 1;"/></g><g class="points"/><g class="text"/></g><g class="trace scatter trace67619b" style="stroke-miterlimit: 2; opacity: 1;"><g class="fills"/><g class="errorbars"/><g class="lines"><path class="js-line" d="M0.01,684L574.27,684L577.16,681.21L580.04,675.03L582.93,675.03L588.7,649.17L591.59,628.53L594.47,625.27L597.36,620.26L600.24,618.29L603.13,613.01L606.02,611.25L608.9,611.25L611.79,608.83L614.67,608.83L617.56,607.61L620.45,604.08L623.33,600.56L626.22,598.7L629.1,595.9L631.99,594.82L929.22,594.82L932.11,592.62L934.99,505.65L937.88,505.65L952.31,505.65L955.19,492.66L958.08,492.66L960.96,416.47L1041.77,416.47L1044.65,415.45L1050.42,414L1053.31,393.41L1056.2,351.8L1059.08,324.96L1061.97,324.45L1064.85,322.35L1067.74,320.52L1070.62,320.69L1076.39,321.59L1079.28,321.98L1082.17,322.41L1085.05,321.83L1087.94,318.99L1090.82,299.55L1093.71,287.37L1096.6,236.99L1099.48,231.23L1102.37,142.62L1108.14,143.65L1111.02,144.74L1113.91,144.44L1116.8,145L1131.22,146.7L1134.11,147.41L1139.88,148.02L1142.77,149.52L1145.65,149.55L1148.54,150.96L1157.2,152.89L1160.08,154.73L1165.85,156.46L1168.74,158.12L1177.4,160.11L1180.28,161.63L1183.17,162.56L1186.05,173.48L1188.94,177.53L1191.82,177.53L1194.71,199.06L1197.6,211.07L1200.48,221.03L1203.37,161.22L1206.25,233.44L1209.14,233.74L1217.8,233.36L1220.68,321.81L1235.11,317.91L1238,315.92L1243.77,280.75L1246.65,243.28L1252.43,238.95L1255.31,238.12L1258.2,238.12L1261.08,240.16L1263.97,248.25L1266.85,252.85L1272.63,252.85L1275.51,298.12L1278.4,306.93L1281.28,308.82L1284.17,310.39L1287.06,318.65L1289.94,324.35L1292.83,327.29L1330.34,327.29L1333.23,345.22L1336.11,410.11L1339,416.47L1344.77,416.47L1347.66,505.65L1440,505.65" style="vector-effect: none; fill: none; stroke: rgb(255, 161, 90); stroke-opacity: 1; stroke-width: 3px; opacity: 1;"/></g><g class="points"/><g class="text"/></g></g></g></g><path class="xlines-above crisp" d="M0,0" style="fill: none;"/><path class="ylines-above crisp" d="M0,0" style="fill: none;"/><g class="overlines-above"/><g class="xaxislayer-above"><g class="xtick"><text text-anchor="middle" x="0" y="841" transform="translate(221.41,0)" style="font-family: 'Open Sans', verdana, arial, sans-serif; font-size: 20px; fill: rgb(42, 63, 95); fill-opacity: 1; white-space: pre; opacity: 1;">1</text></g><g class="xtick"><text text-anchor="middle" x="0" y="841" style="font-family: 'Open Sans', verdana, arial, sans-serif; font-size: 20px; fill: rgb(42, 63, 95); fill-opacity: 1; white-space: pre; opacity: 1;" transform="translate(365.7,0)">2</text></g><g class="xtick"><text text-anchor="middle" x="0" y="841" style="font-family: 'Open Sans', verdana, arial, sans-serif; font-size: 20px; fill: rgb(42, 63, 95); fill-opacity: 1; white-space: pre; opacity: 1;" transform="translate(509.98,0)">3</text></g><g class="xtick"><text text-anchor="middle" x="0" y="841" style="font-family: 'Open Sans', verdana, arial, sans-serif; font-size: 20px; fill: rgb(42, 63, 95); fill-opacity: 1; white-space: pre; opacity: 1;" transform="translate(654.27,0)">4</text></g><g class="xtick"><text text-anchor="middle" x="0" y="841" style="font-family: 'Open Sans', verdana, arial, sans-serif; font-size: 20px; fill: rgb(42, 63, 95); fill-opacity: 1; white-space: pre; opacity: 1;" transform="translate(798.56,0)">5</text></g><g class="xtick"><text text-anchor="middle" x="0" y="841" style="font-family: 'Open Sans', verdana, arial, sans-serif; font-size: 20px; fill: rgb(42, 63, 95); fill-opacity: 1; white-space: pre; opacity: 1;" transform="translate(942.85,0)">6</text></g><g class="xtick"><text text-anchor="middle" x="0" y="841" style="font-family: 'Open Sans', verdana, arial, sans-serif; font-size: 20px; fill: rgb(42, 63, 95); fill-opacity: 1; white-space: pre; opacity: 1;" transform="translate(1087.1399999999999,0)">7</text></g><g class="xtick"><text text-anchor="middle" x="0" y="841" style="font-family: 'Open Sans', verdana, arial, sans-serif; font-size: 20px; fill: rgb(42, 63, 95); fill-opacity: 1; white-space: pre; opacity: 1;" transform="translate(1231.42,0)">8</text></g><g class="xtick"><text text-anchor="middle" x="0" y="841" style="font-family: 'Open Sans', verdana, arial, sans-serif; font-size: 20px; fill: rgb(42, 63, 95); fill-opacity: 1; white-space: pre; opacity: 1;" transform="translate(1375.71,0)">9</text></g><g class="xtick"><text text-anchor="middle" x="0" y="841" style="font-family: 'Open Sans', verdana, arial, sans-serif; font-size: 20px; fill: rgb(42, 63, 95); fill-opacity: 1; white-space: pre; opacity: 1;" transform="translate(1520,0)">10</text></g></g><g class="yaxislayer-above"><g class="ytick"><text text-anchor="end" x="79" y="7" transform="translate(0,784)" style="font-family: 'Open Sans', verdana, arial, sans-serif; font-size: 20px; fill: rgb(42, 63, 95); fill-opacity: 1; white-space: pre; opacity: 1;">0</text></g><g class="ytick"><text text-anchor="end" x="79" y="7" style="font-family: 'Open Sans', verdana, arial, sans-serif; font-size: 20px; fill: rgb(42, 63, 95); fill-opacity: 1; white-space: pre; opacity: 1;" transform="translate(0,641.32)">0.2</text></g><g class="ytick"><text text-anchor="end" x="79" y="7" style="font-family: 'Open Sans', verdana, arial, sans-serif; font-size: 20px; fill: rgb(42, 63, 95); fill-opacity: 1; white-space: pre; opacity: 1;" transform="translate(0,498.63)">0.4</text></g><g class="ytick"><text text-anchor="end" x="79" y="7" style="font-family: 'Open Sans', verdana, arial, sans-serif; font-size: 20px; fill: rgb(42, 63, 95); fill-opacity: 1; white-space: pre; opacity: 1;" transform="translate(0,355.95)">0.6</text></g><g class="ytick"><text text-anchor="end" x="79" y="7" style="font-family: 'Open Sans', verdana, arial, sans-serif; font-size: 20px; fill: rgb(42, 63, 95); fill-opacity: 1; white-space: pre; opacity: 1;" transform="translate(0,213.26999999999998)">0.8</text></g></g><g class="overaxes-above"/></g></g><g class="polarlayer"/><g class="smithlayer"/><g class="ternarylayer"/><g class="geolayer"/><g class="funnelarealayer"/><g class="pielayer"/><g class="iciclelayer"/><g class="treemaplayer"/><g class="sunburstlayer"/><g class="glimages"/><defs id="topdefs-9ec1fd"><g class="clips"/><clipPath id="legend9ec1fd"><rect width="84" height="181" x="0" y="0"/></clipPath></defs><g class="layer-above"><g class="imagelayer"/><g class="shapelayer"/></g><g class="infolayer"><g class="legend" pointer-events="all" transform="translate(242.72,110.08000000000001)"><rect class="bg" shape-rendering="crispEdges" width="84" height="181" x="0" y="0" style="stroke: rgb(68, 68, 68); stroke-opacity: 1; fill: rgb(255, 255, 255); fill-opacity: 1; stroke-width: 0px;"/><g class="scrollbox" transform="" clip-path="url(#legend9ec1fd)"><g class="groups"><g class="traces" transform="translate(0,22.1)" style="opacity: 1;"><text class="legendtext" text-anchor="start" x="40" y="9.360000000000001" style="font-family: 'Open Sans', verdana, arial, sans-serif; font-size: 24px; fill: rgb(42, 63, 95); fill-opacity: 1; white-space: pre;">1m</text><g class="layers" style="opacity: 1;"><g class="legendfill"/><g class="legendlines"><path class="js-line" d="M5,0h30" style="fill: none; stroke: rgb(99, 110, 250); stroke-opacity: 1; stroke-width: 3px;"/></g><g class="legendsymbols"><g class="legendpoints"/></g></g><rect class="legendtoggle" x="0" y="-17.1" width="78.609375" height="34.2" style="fill: rgb(0, 0, 0); fill-opacity: 0;"/></g><g class="traces" transform="translate(0,56.300000000000004)" style="opacity: 1;"><text class="legendtext" text-anchor="start" x="40" y="9.360000000000001" style="font-family: 'Open Sans', verdana, arial, sans-serif; font-size: 24px; fill: rgb(42, 63, 95); fill-opacity: 1; white-space: pre;">2m</text><g class="layers" style="opacity: 1;"><g class="legendfill"/><g class="legendlines"><path class="js-line" d="M5,0h30" style="fill: none; stroke: rgb(239, 85, 59); stroke-opacity: 1; stroke-width: 3px;"/></g><g class="legendsymbols"><g class="legendpoints"/></g></g><rect class="legendtoggle" x="0" y="-17.1" width="78.609375" height="34.2" style="fill: rgb(0, 0, 0); fill-opacity: 0;"/></g><g class="traces" transform="translate(0,90.5)" style="opacity: 1;"><text class="legendtext" text-anchor="start" x="40" y="9.360000000000001" style="font-family: 'Open Sans', verdana, arial, sans-serif; font-size: 24px; fill: rgb(42, 63, 95); fill-opacity: 1; white-space: pre;">3m</text><g class="layers" style="opacity: 1;"><g class="legendfill"/><g class="legendlines"><path class="js-line" d="M5,0h30" style="fill: none; stroke: rgb(0, 204, 150); stroke-opacity: 1; stroke-width: 3px;"/></g><g class="legendsymbols"><g class="legendpoints"/></g></g><rect class="legendtoggle" x="0" y="-17.1" width="78.609375" height="34.2" style="fill: rgb(0, 0, 0); fill-opacity: 0;"/></g><g class="traces" transform="translate(0,124.70000000000002)" style="opacity: 1;"><text class="legendtext" text-anchor="start" x="40" y="9.360000000000001" style="font-family: 'Open Sans', verdana, arial, sans-serif; font-size: 24px; fill: rgb(42, 63, 95); fill-opacity: 1; white-space: pre;">4m</text><g class="layers" style="opacity: 1;"><g class="legendfill"/><g class="legendlines"><path class="js-line" d="M5,0h30" style="fill: none; stroke: rgb(171, 99, 250); stroke-opacity: 1; stroke-width: 3px;"/></g><g class="legendsymbols"><g class="legendpoints"/></g></g><rect class="legendtoggle" x="0" y="-17.1" width="78.609375" height="34.2" style="fill: rgb(0, 0, 0); fill-opacity: 0;"/></g><g class="traces" transform="translate(0,158.9)" style="opacity: 1;"><text class="legendtext" text-anchor="start" x="40" y="9.360000000000001" style="font-family: 'Open Sans', verdana, arial, sans-serif; font-size: 24px; fill: rgb(42, 63, 95); fill-opacity: 1; white-space: pre;">5m</text><g class="layers" style="opacity: 1;"><g class="legendfill"/><g class="legendlines"><path class="js-line" d="M5,0h30" style="fill: none; stroke: rgb(255, 161, 90); stroke-opacity: 1; stroke-width: 3px;"/></g><g class="legendsymbols"><g class="legendpoints"/></g></g><rect class="legendtoggle" x="0" y="-17.1" width="78.609375" height="34.2" style="fill: rgb(0, 0, 0); fill-opacity: 0;"/></g></g></g><rect class="scrollbar" rx="20" ry="3" width="0" height="0" x="0" y="0" style="fill: rgb(128, 139, 164); fill-opacity: 1;"/></g><g class="g-gtitle"><text class="gtitle" x="800" y="50" text-anchor="middle" dy="0.7em" style="opacity: 1; font-family: 'Open Sans', verdana, arial, sans-serif; font-size: 20px; fill: rgb(42, 63, 95); fill-opacity: 1; font-weight: bold; white-space: pre;">No Yielding, Back and no eHMI</text></g><g class="g-xtitle"><text class="xtitle" x="800" y="873.5" text-anchor="middle" style="opacity: 1; font-family: 'Open Sans', verdana, arial, sans-serif; font-size: 20px; fill: rgb(42, 63, 95); fill-opacity: 1; white-space: pre;">Time (in seconds)</text></g><g class="g-ytitle"><text class="ytitle" transform="rotate(-90,24.78125,460)" x="24.78125" y="460" text-anchor="middle" style="opacity: 1; font-family: 'Open Sans', verdana, arial, sans-serif; font-size: 20px; fill: rgb(42, 63, 95); fill-opacity: 1; white-space: pre;">Trigger press</text></g></g></svg>