<svg class="main-svg" xmlns="http://www.w3.org/2000/svg" xmlns:xlink="http://www.w3.org/1999/xlink" width="4800" height="2700" style="" viewBox="0 0 1600 900"><rect x="0" y="0" width="1600" height="900" style="fill: rgb(255, 255, 255); fill-opacity: 1;"/><defs id="defs-4ba24a"><g class="clips"><clipPath id="clip4ba24axyplot" class="plotclip"><rect width="1429" height="720"/></clipPath><clipPath class="axesclip" id="clip4ba24ax"><rect x="91" y="0" width="1429" height="900"/></clipPath><clipPath class="axesclip" id="clip4ba24ay"><rect x="0" y="100" width="1600" height="720"/></clipPath><clipPath class="axesclip" id="clip4ba24axy"><rect x="91" y="100" width="1429" height="720"/></clipPath></g><g class="gradients"/><g class="patterns"/></defs><g class="bglayer"><rect class="bg" x="91" y="100" width="1429" height="720" style="fill: rgb(229, 236, 246); fill-opacity: 1; stroke-width: 0;"/></g><g class="layer-below"><g class="imagelayer"/><g class="shapelayer"/></g><g class="cartesianlayer"><g class="subplot xy"><g class="layer-subplot"><g class="shapelayer"/><g class="imagelayer"/></g><g class="minor-gridlayer"><g class="x"/><g class="y"/></g><g class="gridlayer"><g class="x"><path class="xgrid crisp" transform="translate(231.32,0)" d="M0,100v720" style="stroke: rgb(255, 255, 255); stroke-opacity: 1; stroke-width: 1px;"/><path class="xgrid crisp" transform="translate(374.51,0)" d="M0,100v720" style="stroke: rgb(255, 255, 255); stroke-opacity: 1; stroke-width: 1px;"/><path class="xgrid crisp" transform="translate(517.7,0)" d="M0,100v720" style="stroke: rgb(255, 255, 255); stroke-opacity: 1; stroke-width: 1px;"/><path class="xgrid crisp" transform="translate(660.88,0)" d="M0,100v720" style="stroke: rgb(255, 255, 255); stroke-opacity: 1; stroke-width: 1px;"/><path class="xgrid crisp" transform="translate(804.07,0)" d="M0,100v720" style="stroke: rgb(255, 255, 255); stroke-opacity: 1; stroke-width: 1px;"/><path class="xgrid crisp" transform="translate(947.25,0)" d="M0,100v720" style="stroke: rgb(255, 255, 255); stroke-opacity: 1; stroke-width: 1px;"/><path class="xgrid crisp" transform="translate(1090.44,0)" d="M0,100v720" style="stroke: rgb(255, 255, 255); stroke-opacity: 1; stroke-width: 1px;"/><path class="xgrid crisp" transform="translate(1233.63,0)" d="M0,100v720" style="stroke: rgb(255, 255, 255); stroke-opacity: 1; stroke-width: 1px;"/><path class="xgrid crisp" transform="translate(1376.81,0)" d="M0,100v720" style="stroke: rgb(255, 255, 255); stroke-opacity: 1; stroke-width: 1px;"/></g><g class="y"><path class="ygrid crisp" transform="translate(0,763.9)" d="M91,0h1429" style="stroke: rgb(255, 255, 255); stroke-opacity: 1; stroke-width: 1px;"/><path class="ygrid crisp" transform="translate(0,684.71)" d="M91,0h1429" style="stroke: rgb(255, 255, 255); stroke-opacity: 1; stroke-width: 1px;"/><path class="ygrid crisp" transform="translate(0,605.52)" d="M91,0h1429" style="stroke: rgb(255, 255, 255); stroke-opacity: 1; stroke-width: 1px;"/><path class="ygrid crisp" transform="translate(0,447.13)" d="M91,0h1429" style="stroke: rgb(255, 255, 255); stroke-opacity: 1; stroke-width: 1px;"/><path class="ygrid crisp" transform="translate(0,367.94)" d="M91,0h1429" style="stroke: rgb(255, 255, 255); stroke-opacity: 1; stroke-width: 1px;"/><path class="ygrid crisp" transform="translate(0,288.75)" d="M91,0h1429" style="stroke: rgb(255, 255, 255); stroke-opacity: 1; stroke-width: 1px;"/><path class="ygrid crisp" transform="translate(0,209.56)" d="M91,0h1429" style="stroke: rgb(255, 255, 255); stroke-opacity: 1; stroke-width: 1px;"/><path class="ygrid crisp" transform="translate(0,130.37)" d="M91,0h1429" style="stroke: rgb(255, 255, 255); stroke-opacity: 1; stroke-width: 1px;"/></g></g><g class="zerolinelayer"><path class="yzl zl crisp" transform="translate(0,526.3199999999999)" d="M91,0h1429" style="stroke: rgb(255, 255, 255); stroke-opacity: 1; stroke-width: 2px;"/></g><g class="layer-between"><g class="shapelayer"/><g class="imagelayer"/></g><path class="xlines-below"/><path class="ylines-below"/><g class="overlines-below"/><g class="xaxislayer-below"/><g class="yaxislayer-below"/><g class="overaxes-below"/><g class="overplot"><g class="xy" transform="translate(91,100)" clip-path="url(#clip4ba24axyplot)"><g class="scatterlayer mlayer"><g class="trace scatter trace9ddc2f" style="stroke-miterlimit: 2; opacity: 1;"><g class="fills"/><g class="errorbars"/><g class="lines"><path class="js-line" d="M0,426.93L11.45,426.42L14.32,425.97L25.77,424.22L28.64,423.08L37.23,419.99L40.09,418.35L51.55,411.23L54.41,409.72L60.14,405.42L63,401.77L77.32,387.75L80.18,384.03L83.05,378.56L85.91,375.21L97.37,363.65L100.23,362.85L103.09,359.1L105.96,357.93L108.82,355.85L111.68,352.01L126,331.39L128.87,326.21L131.73,319.96L134.59,315.91L137.46,310.46L140.32,309.66L143.19,307.82L146.05,307.49L148.91,304.26L151.78,303.19L154.64,300.51L157.5,300.59L163.23,298.29L166.1,294.87L168.96,292.8L171.82,293.15L174.69,292.84L177.55,295.91L180.41,297.37L183.28,302.57L186.14,306.32L189.01,312.38L197.6,324.75L200.46,327.9L211.92,348.57L214.78,356.05L217.64,360.72L220.51,367.97L226.23,376.45L229.1,380.95L231.96,386.54L234.82,389.24L243.42,397.66L246.28,403.27L249.14,408.09L252.01,418.86L254.87,419.15L257.74,430.15L260.6,435.95L263.46,433.96L266.33,430.59L269.19,425.32L272.05,420.5L274.92,412.43L277.78,408.9L280.65,403.28L286.37,395.08L289.24,395.69L292.1,391.73L294.96,391.77L300.69,391.02L303.56,392.28L309.28,392.79L312.15,390.35L315.01,389.68L317.87,391.25L320.74,388.33L323.6,388.37L329.33,387L332.19,385.38L335.06,383.78L337.92,378.79L340.78,376.75L343.65,371.97L346.51,371.95L349.37,369.08L352.24,371.68L355.1,372.18L357.97,371.66L360.83,372.17L372.28,369.6L375.15,369.79L380.88,368.57L383.74,369.1L386.6,367.96L389.47,369.11L395.19,370.55L398.06,371.89L403.78,375.3L406.65,375.21L412.38,375.86L415.24,377.74L423.83,378.84L426.7,380.17L435.29,384.1L438.15,385.95L443.88,389.18L446.74,391.8L452.47,394.83L455.33,397.48L461.06,402.19L463.92,403.05L472.52,404.58L475.38,404.4L481.11,403.28L483.97,400.29L489.7,397.03L492.56,395.96L495.42,396.09L498.29,395L501.15,395.56L504.02,394.94L515.47,402.28L518.33,403.75L524.06,404.15L526.93,404.71L529.79,404.37L532.65,406.13L535.52,407.56L538.38,411.46L544.11,419.28L546.97,421.27L552.7,424.4L555.56,425.88L558.43,428.71L561.29,429.93L567.02,431.15L569.88,430.74L575.61,430.9L578.47,432.17L581.34,434.55L584.2,434.41L589.93,434.64L592.79,435.22L598.52,435.8L601.38,436.42L609.97,437.78L612.84,437.13L618.56,436.36L621.43,436.76L627.16,437.76L630.02,438.83L632.88,439.17L635.75,440.61L641.48,442.64L644.34,442.77L647.2,442.65L650.07,441.48L655.79,439.88L658.66,440.28L670.11,438.38L672.98,437.24L675.84,434.47L678.7,433.08L681.57,431.13L684.43,431.19L687.29,430.11L690.16,430.21L693.02,431.49L695.89,429.21L701.61,422.66L704.48,424.33L710.2,428.21L713.07,429.87L715.93,428.58L718.79,425.15L721.66,423.47L724.52,422.73L727.39,420.44L730.25,419.3L733.11,416.93L735.98,416.66L738.84,416.87L741.7,415.54L744.57,415.86L747.43,414.63L750.3,414.56L753.16,413.64L764.61,411.93L767.48,410.49L773.21,407.65L776.07,406.79L781.8,403.91L784.66,401.16L787.52,399.79L790.39,402.06L793.25,403.2L796.12,405.81L798.98,408.17L801.84,407.85L813.3,403.73L816.16,403.92L819.03,403.45L821.89,403.8L841.93,405.7L844.8,406L847.66,406.33L850.53,405.61L856.26,404.77L859.12,404.94L867.71,405.55L870.57,406.21L882.03,406.28L884.89,405.82L890.62,404.91L893.48,404.02L899.21,402.44L902.07,402.18L904.94,402.48L907.8,404.23L916.39,406.56L919.26,406.3L922.12,407.98L924.98,408.16L927.85,407.78L930.71,408.34L933.57,407.71L936.44,408.07L942.17,410.4L945.03,411.33L956.48,413.95L959.35,413.58L967.94,415.19L970.8,415.54L976.53,416.98L979.39,418L999.44,419.8L1002.3,419.52L1016.62,418.82L1019.49,419.4L1033.81,421.1L1036.67,421L1042.4,420.56L1045.26,421.19L1056.71,420.98L1059.58,421.19L1073.9,421.77L1076.76,422.2L1088.22,423.1L1091.08,422.84L1096.81,422.05L1099.67,422.87L1131.17,425.52L1134.04,425.79L1148.35,428.57L1151.22,429.6L1162.67,430.94L1165.54,431.69L1171.26,431.91L1174.13,430.74L1176.99,432.18L1179.86,431.89L1182.72,433.96L1185.58,433.72L1188.45,435.08L1191.31,434.2L1197.04,435.41L1199.9,434.99L1202.76,435.48L1205.63,434.81L1208.49,433.57L1211.36,434.04L1214.22,433.1L1217.08,433.38L1225.67,430.21L1228.54,429.41L1237.13,426.6L1239.99,426.12L1242.86,426.36L1245.72,424.81L1257.18,422.97L1260.04,422.81L1262.9,422.2L1265.77,420.74L1268.63,421.43L1271.49,420.22L1280.08,421.1L1282.95,421.72L1288.68,423.08L1291.54,423.46L1294.41,423.92L1297.27,426.38L1300.13,427.3L1303,429.95L1308.72,430.52L1311.59,433.18L1317.31,433.8L1320.18,437L1323.04,437.49L1325.91,438.95L1328.77,441.43L1331.63,441.15L1334.5,443.33L1337.36,444.45L1340.22,444.41L1343.09,445.64L1345.95,445.38L1348.82,446.42L1351.68,449.5L1354.54,449.9L1360.27,452.49L1363.13,453.03L1366,454.8L1368.86,455.63L1371.72,456.76L1374.59,456.19L1377.45,457.23L1380.32,456.76L1383.18,457.59L1386.04,456.22L1394.63,455.27L1397.5,454.12L1400.36,454.15L1403.23,453.25L1408.95,452.33L1411.82,451.87L1420.41,450.51L1423.27,449.19L1429,447.06" style="vector-effect: none; fill: none; stroke: rgb(99, 110, 250); stroke-opacity: 1; stroke-width: 3px; opacity: 1;"/></g><g class="points"/><g class="text"/></g><g class="trace scatter traceb76178" style="stroke-miterlimit: 2; opacity: 1;"><g class="fills"/><g class="errorbars"/><g class="lines"><path class="js-line" d="M0,420.91L5.73,420.48L8.59,421.68L22.91,425.13L25.77,425.52L34.37,427.28L37.23,426.99L51.55,426.24L54.41,424.63L60.14,423.28L63,421.22L65.87,420.43L68.73,418.01L71.6,416.76L74.46,412.68L77.32,409.62L80.19,404.14L88.78,394.33L91.64,391.45L103.09,385.82L105.96,386.28L108.82,382.49L111.69,381.02L120.28,369.29L123.14,366.86L126.01,366.04L128.87,361.17L131.73,362.45L134.6,358.48L137.46,359.78L140.32,355.31L143.19,353.76L146.05,358.54L148.91,359.15L151.78,358.5L154.64,365.46L157.51,369.65L160.37,375.06L163.23,374.55L166.1,374.64L168.96,372.88L171.82,369.95L174.69,369.79L177.55,364.69L180.41,362.07L183.28,356.84L186.14,355.82L189.01,356.17L191.87,358.24L194.73,358.01L197.6,362.01L200.46,368.02L203.33,371.79L206.19,375.69L209.05,376.12L211.92,379.58L214.78,381.7L217.64,381.54L220.51,380.12L229.1,370.76L231.96,371.17L234.83,365.72L237.69,362.86L240.55,363.85L243.42,359.87L246.28,359.93L249.15,363.12L254.87,364.08L257.74,363.17L260.6,364.61L263.46,364.68L266.33,365.97L269.19,370.37L277.78,380.3L280.64,380.65L283.51,379.84L286.37,380.04L289.24,382.54L292.1,381.12L294.97,379.74L297.83,379.63L300.69,382.95L303.56,385L306.42,385.88L309.28,388.16L315.01,395.41L317.87,395.68L323.6,389.8L326.47,388.96L329.33,385.47L332.19,384.37L337.92,383.53L340.79,384.35L346.51,383.59L349.38,381.98L352.24,380.94L355.1,381.06L357.97,376.84L360.83,375.45L363.69,372L366.56,366.28L369.42,362.48L372.29,360.81L380.88,356.3L383.74,357.61L389.47,358.64L392.33,357.45L398.06,354.71L400.92,352.3L403.79,351.13L406.65,347.6L409.51,348.04L412.38,345.13L415.24,342.12L418.1,340.24L420.97,338.27L423.83,337.51L426.7,334.41L429.56,333.07L432.42,329.81L435.29,328.14L441.01,318.07L443.88,314.02L446.74,314.06L449.61,311.07L455.33,301.22L458.2,296.6L461.06,298.21L463.92,296.76L466.79,296.4L469.65,294.89L475.38,298.79L478.24,299.38L481.11,301.44L483.97,301.67L486.83,301.5L489.7,302.17L495.42,303.27L498.29,306.16L504.01,312.06L506.88,316.21L509.75,322.09L512.61,326.15L515.47,331.64L518.34,331.99L524.06,338.82L526.93,340.84L529.79,343.57L532.65,340.92L535.52,344.85L538.38,342.3L546.97,346.26L549.84,349.06L555.57,355.29L558.43,356.22L564.16,360.79L567.02,360.43L572.75,366.51L575.61,369.4L578.47,371.23L581.34,378.29L587.06,386.03L589.93,393.87L601.38,416.6L604.25,419.56L607.11,426.22L609.97,428.71L612.84,431.33L615.7,436.09L627.16,447.51L630.02,448.94L635.75,452.21L638.61,452.79L644.34,453.23L647.2,452.83L652.93,450.53L655.79,450.52L661.52,444.36L664.38,443.65L670.11,440.59L672.98,436.9L675.84,435.08L678.7,428.52L681.57,425.08L684.43,423.5L690.16,411.22L693.02,408.61L695.89,401.41L698.75,398.3L701.61,388.54L704.48,386.75L707.34,378.49L710.2,376.34L715.93,374.63L718.79,372.64L727.39,371.35L730.25,371.57L733.12,381.01L735.98,381.91L738.84,382.44L741.71,387.33L744.57,386.7L747.43,388.55L756.02,386.9L758.89,385.49L761.75,384.66L764.61,382.87L767.48,381.98L770.34,382.53L773.21,381.39L776.07,381.61L778.94,381.8L781.8,381.18L784.66,382.28L787.53,382.15L793.25,382.17L796.12,382.62L798.98,382.58L801.84,378.86L804.71,379.44L807.57,379.15L810.44,380.9L813.3,380.36L816.16,382.29L819.03,381.78L824.75,382.69L827.62,382.03L830.48,382.52L833.34,381.88L836.21,383.35L839.07,383.25L841.94,382.96L844.8,383.67L847.66,383.84L850.53,381.61L861.98,376.76L864.85,377.25L867.71,375.15L870.57,374.63L873.44,381.86L876.3,382.83L884.89,382.26L887.76,382.87L896.35,383.37L899.21,383.73L902.08,391L904.94,390.82L907.8,391.13L910.67,389.25L913.53,385.5L916.39,385.08L919.26,383.71L922.12,383.51L927.85,384.88L930.71,386.02L933.57,385.46L936.44,385.85L939.3,386.76L942.17,386.62L945.03,386.64L947.9,387.9L950.76,387.91L953.62,387.11L962.21,386.18L965.08,386.15L967.94,386.87L970.8,388.48L976.53,389.18L979.39,392.65L987.99,396.91L990.85,398.39L993.72,398.95L996.58,398.45L999.44,402.35L1002.31,402.41L1005.17,403.72L1008.03,404.13L1010.9,403.73L1013.76,404.17L1022.35,405.5L1025.21,404.89L1028.08,405.92L1030.94,405.86L1042.4,409.62L1045.26,409.65L1048.12,412.31L1050.99,413.43L1053.85,415.55L1056.72,416.27L1059.58,418.61L1062.44,419L1065.31,419.36L1068.17,421.14L1076.76,420.79L1079.63,421.92L1082.49,422.21L1085.35,423.32L1099.67,426.38L1102.53,426.71L1105.4,427.54L1108.26,427.47L1113.99,427.5L1116.85,427.46L1122.58,427.17L1125.45,426.94L1128.31,427.6L1131.17,426.63L1134.04,426.35L1136.9,427.46L1151.22,429.65L1154.08,429.14L1156.95,429.99L1159.81,429.74L1162.67,428.91L1165.54,429.84L1171.27,430.24L1174.13,430.96L1179.86,431.18L1182.72,432.7L1188.45,434.66L1191.31,434.04L1194.17,434.17L1197.04,436.21L1199.9,437.4L1202.76,437.5L1214.22,439.32L1217.09,439.3L1219.95,438.49L1222.81,438.59L1228.54,438.42L1231.4,435.67L1237.13,433.68L1239.99,432.89L1242.86,431.83L1245.72,431.89L1248.59,431.48L1251.45,429.73L1257.18,429.85L1260.04,429.36L1262.9,428.71L1265.77,428.87L1274.36,428.82L1277.22,429.35L1282.95,429.96L1285.81,431.19L1288.68,431.92L1291.54,433.8L1294.4,433.93L1297.27,435.21L1303,436.23L1305.86,438.09L1314.45,439.73L1317.31,439.63L1320.18,439.24L1323.04,437.44L1328.77,435.94L1331.63,435.88L1343.09,435.44L1345.95,433.99L1348.82,433.64L1351.68,432.01L1354.54,432.81L1357.41,432.64L1368.86,437.43L1371.72,439.55L1374.59,442.55L1377.45,444.27L1380.32,446.1L1383.18,449.37L1386.04,451.21L1388.91,454.49L1391.77,455.22L1394.64,454.25L1400.36,452.3L1403.23,451.61L1411.82,450.5L1414.68,451.4L1417.54,451.63L1420.41,453.29L1429,454.64" style="vector-effect: none; fill: none; stroke: rgb(239, 85, 59); stroke-opacity: 1; stroke-width: 3px; opacity: 1;"/></g><g class="points"/><g class="text"/></g><g class="trace scatter trace293ad8" style="stroke-miterlimit: 2; opacity: 1;"><g class="fills"/><g class="errorbars"/><g class="lines"><path class="js-line" d="M0,422.09L20.05,418.07L22.91,416.37L34.36,412.2L37.23,410.32L40.09,409.8L42.96,406.97L51.55,401.49L54.41,399.35L57.28,394.39L60.14,391.54L63,388.79L65.87,387.52L68.73,380.69L71.59,376.96L80.19,364.75L83.05,362.86L85.91,358.44L88.78,356.62L94.5,355.61L97.37,356.26L100.23,357.84L103.09,357.68L105.96,354.84L108.82,353.17L111.69,348.4L114.55,349.3L126.01,340.99L128.87,337.89L137.46,325.36L140.32,324.14L143.19,320.26L146.05,318.13L148.91,317.68L151.78,314.62L154.64,313.23L157.5,310.55L160.37,310.25L163.23,308.35L168.96,307.31L171.83,308.08L180.42,311.24L183.28,315.12L186.14,318.79L189.01,321.08L191.87,320.52L194.73,323.31L200.46,326.9L203.32,330.31L206.19,328.23L209.06,328.6L214.78,329.31L217.65,332.56L220.51,333.22L223.37,335.08L229.1,339.15L231.96,338.65L234.83,339.08L237.69,344.45L240.55,346.71L243.42,350.37L246.28,355.05L249.14,355.83L257.73,369.37L260.6,369.71L266.33,376.53L269.19,381.15L272.06,384.55L274.92,386.7L280.65,390.79L283.51,392.23L286.37,393.56L289.24,391.42L292.1,390.74L294.96,391L297.83,390.35L300.69,388.42L303.56,387.47L306.42,385.48L309.28,383.99L312.15,383.56L315.01,382.47L317.87,379.57L320.74,381.04L323.6,380.22L329.33,377.49L332.19,377.21L335.06,377.24L337.92,376.29L340.79,375.69L343.65,374.29L346.51,373.85L349.38,374.26L352.24,373.76L355.1,374.34L357.97,374.18L360.83,375.26L363.69,375.83L366.56,377.35L375.15,380.2L378.01,383.07L389.47,384.95L392.33,385.27L398.06,386.75L400.92,385.65L406.65,385.92L409.51,384.9L415.24,389.55L418.1,390.51L420.97,393.93L423.83,394.16L432.43,394.13L435.29,391.61L438.15,395.6L441.02,391.2L443.88,444.32L446.74,641.42L449.61,654.69L452.47,659.67L455.33,666.71L458.2,669.89L466.79,680.22L469.65,680.51L472.51,683.26L475.38,683.93L478.24,684L481.11,62.22L486.84,62.56L489.7,64.68L492.56,64.89L495.43,68.71L501.15,69.29L504.02,72.09L506.88,72.73L509.74,72.58L512.61,72.86L515.47,72.33L521.2,69.33L524.06,68.08L532.65,64.61L535.52,62.49L538.38,59.86L541.24,50.65L544.11,46.33L546.97,43.77L558.43,42.75L561.29,45.5L567.02,51.82L569.88,52.38L578.47,54.48L581.34,56.02L587.06,55.79L589.93,55.76L592.79,55.87L595.65,55.02L598.52,53.14L601.38,52.63L604.25,52L607.11,49.61L609.98,47.07L612.84,43.38L618.57,40.54L621.43,38.6L624.29,36L627.16,657.59L630.02,652.77L632.88,650.76L635.75,646.12L638.61,645.33L641.48,643.05L644.34,636.4L647.2,632.44L650.07,632.08L655.8,602.04L658.66,595.23L661.52,574.96L664.39,561.78L667.25,550.74L670.11,526.58L672.98,517.01L675.84,496.28L678.7,496.69L681.57,479.94L687.29,459.67L690.16,455.7L693.02,452.93L695.88,446.46L698.75,445.3L701.62,441.41L707.34,438.52L710.21,435.09L713.07,433.53L715.93,430.93L718.8,429.21L721.66,429.15L727.39,423.67L730.25,422.65L735.98,420.36L738.84,420.66L741.71,420.16L744.57,420.51L750.3,421.26L753.16,422.08L770.34,428.36L773.21,427.48L776.07,427.43L778.94,426.13L787.53,424.7L790.39,424.69L793.25,424.35L796.12,425.18L801.84,426.9L804.71,427.38L807.57,428.25L810.43,428.16L816.16,428.13L819.02,428.85L824.76,429.34L827.62,429.29L839.07,428.61L841.94,429.72L850.53,432.03L853.39,432.09L856.25,432.93L859.12,432.84L867.71,435.4L870.58,435.81L876.3,437.13L879.17,437.75L882.03,435.87L884.89,436.05L890.62,436.82L893.48,435.53L899.21,436.08L902.07,436.37L910.66,437.78L913.53,436.98L930.71,441.75L933.58,442.75L939.3,443.77L942.17,443.11L947.89,443.59L950.76,444.17L956.48,444.38L959.35,444.7L965.08,445.3L967.94,446.48L970.8,447.54L973.67,445.74L976.53,446.39L979.39,446.13L982.26,446.9L985.12,446.19L990.85,446.1L993.71,445.88L999.44,447.39L1002.31,446.77L1005.17,447.13L1008.03,445.56L1013.76,447.52L1016.62,446.91L1022.35,448.02L1025.21,448.91L1030.94,452.2L1033.8,452.95L1036.67,454.36L1039.54,452.92L1042.4,453.74L1045.26,453.68L1053.85,452.57L1056.72,450.9L1071.03,448.29L1073.9,447.44L1076.76,446.73L1079.63,447.11L1093.95,448.17L1096.81,448.14L1099.67,450.17L1102.54,449.85L1108.26,448.56L1111.13,449.39L1122.58,448.83L1125.44,448.36L1128.31,447.3L1131.17,447.67L1136.9,446.71L1139.77,447.56L1145.49,447.42L1148.36,448.55L1159.81,449.08L1162.67,447.89L1165.54,448.73L1168.4,447.97L1174.13,449.68L1176.99,449.33L1182.72,451.83L1185.58,451.93L1191.31,455.66L1194.17,454.84L1197.04,454.22L1199.9,455.51L1202.77,454.66L1205.63,454.93L1208.49,454.05L1211.36,454.77L1214.22,455.52L1217.08,454.53L1219.95,455.3L1222.81,454.63L1225.68,453.99L1228.54,452.09L1234.27,451.8L1237.13,448.42L1239.99,445.3L1242.86,443.97L1245.72,445.9L1248.58,441.39L1251.45,440.91L1254.31,438.07L1257.18,437.12L1260.04,434.3L1262.91,433.66L1265.77,430.46L1268.63,428.29L1271.5,428.56L1274.36,426.32L1277.22,425.74L1280.09,422.93L1282.95,422.24L1288.68,420.61L1291.54,420.93L1297.27,421.82L1300.13,423.08L1308.73,425.3L1311.59,424.95L1314.45,425.63L1317.32,424.39L1323.04,424.18L1325.91,421.74L1331.63,422.24L1334.5,422.71L1343.09,425.35L1345.95,424.71L1348.81,425.8L1351.68,425.87L1354.55,426.44L1357.41,425.63L1368.86,426.74L1371.73,425.53L1377.45,425.47L1380.32,424.71L1386.04,424.22L1388.91,424.72L1403.23,427.75L1406.09,427.22L1411.82,428.08L1414.68,427.93L1420.41,427.5L1423.27,427.46L1426.14,427.89L1429,429.31" style="vector-effect: none; fill: none; stroke: rgb(0, 204, 150); stroke-opacity: 1; stroke-width: 3px; opacity: 1;"/></g><g class="points"/><g class="text"/></g><g class="trace scatter tracef69541" style="stroke-miterlimit: 2; opacity: 1;"><g class="fills"/><g class="errorbars"/><g class="lines"><path class="js-line" d="M0,434.17L8.59,433.1L11.46,431.84L20.05,429.92L22.91,429.43L25.77,428.85L28.64,429.17L34.36,429.7L37.23,429.57L48.68,429.3L51.55,428.52L54.41,427.32L57.28,427.69L63,428.39L65.87,427.68L68.73,428.44L71.59,428.27L74.46,432.28L77.32,433.35L80.19,439.52L83.05,439.88L88.77,439.21L91.64,437.72L94.5,435.83L97.37,429.63L100.23,424.35L103.1,421.49L105.96,424.52L108.82,419.49L111.69,417.57L114.55,417.41L123.14,410.8L126,410.48L128.87,409.14L131.73,408.65L134.6,410.28L137.46,407.66L140.32,411.07L143.19,411.99L146.05,413.16L148.92,411.72L151.78,410.83L154.64,411.16L157.51,409.31L160.37,409.77L163.23,409.21L166.1,410.02L168.96,409.22L171.83,410.13L177.55,408.74L180.42,406.93L183.28,405.38L186.14,401.27L191.87,396.13L194.73,389.89L200.46,382.72L203.33,380.73L211.92,368.19L214.78,366.8L217.65,364.48L220.51,360.59L223.37,359.92L226.23,357.91L229.1,356.57L231.96,356.75L237.69,358.71L240.55,358.58L246.28,361.86L249.14,364.55L252.01,374.07L254.87,376.35L257.74,386.5L260.6,391.79L263.46,399.66L266.33,403.72L272.06,403.23L274.92,401.86L277.78,399.86L280.65,399.52L283.51,396.5L286.37,394.76L289.24,396.04L292.1,394.83L294.97,396.36L297.83,398.77L300.69,399.81L303.55,402.48L309.28,411.72L312.15,412.46L315.01,412.86L317.87,415.33L320.74,417.62L323.6,416.22L326.47,416.3L329.33,418.54L335.06,424.32L337.92,426.08L340.78,434.2L343.65,437.67L346.51,440.22L349.38,444.87L352.24,445.69L355.1,450.6L357.97,449.44L360.83,458.01L363.7,453.22L366.56,455.24L369.42,455.5L372.29,453.59L375.15,453.05L378.01,454.53L380.88,456.83L383.74,456.05L386.6,457.64L389.47,457.63L392.33,457.84L395.2,454.53L398.06,452.98L400.92,449.66L403.79,447.47L406.65,449.99L409.51,449.29L412.38,451.15L415.24,454.39L418.11,455.82L420.97,457.73L423.83,452.97L429.56,451.85L432.43,445.25L435.29,442.65L438.15,453.08L441.01,458.8L443.88,462.86L446.74,471.26L449.61,476.19L452.47,483.87L455.33,486.6L461.06,488.12L463.92,487.63L466.79,490.45L469.65,490L472.52,487.03L475.38,485.27L481.11,477.37L483.97,476.07L486.84,471.67L489.7,468.89L492.56,470.73L495.43,471.14L498.29,461.98L501.15,460.1L509.75,455.69L512.61,453.67L515.47,450.33L518.33,444.41L524.06,442.92L526.93,438.25L535.52,435.57L538.38,434.15L541.25,431.97L544.11,428.03L546.98,425.91L549.84,420.96L552.7,419.91L555.56,421.58L558.43,418.7L561.29,418.94L569.88,410.81L572.75,411.34L578.48,412.42L581.34,412.89L584.2,413.94L587.07,413.29L592.79,411.94L595.66,412.62L598.52,414.95L601.38,422.43L604.25,428.08L607.11,431.12L615.7,433.67L618.57,435.11L621.43,434.9L624.29,433.82L627.16,433.05L630.02,434.77L632.89,439.47L635.75,441.89L638.61,442.36L641.48,439.65L644.34,440.44L647.2,439.08L650.07,440.09L652.93,442.98L655.79,445.13L658.66,444.99L661.52,444.77L664.39,449.97L667.25,453.56L670.11,455.33L672.98,452.64L675.84,451.4L678.7,450.57L681.57,450.93L690.16,453.66L693.02,457.16L698.75,457.53L701.62,454.7L704.48,452.35L707.34,451.78L713.07,456.42L715.93,457.24L721.66,454.36L724.52,448.81L730.25,439.55L733.11,428.86L735.98,423.73L738.84,416.41L744.57,412.38L747.43,413.03L756.02,412.79L758.89,409.87L761.75,409.53L764.62,411.06L767.48,413.06L770.34,412.76L773.21,415.48L776.07,415.05L787.52,427.84L790.39,434.97L793.25,436.88L796.12,437.17L798.98,438.01L801.85,437.88L807.57,436.72L810.44,437.79L819.03,441.53L821.89,443.48L836.21,445.17L839.07,446.2L841.94,447.61L844.8,447.31L850.53,445.88L853.39,444.65L859.12,444.24L861.98,444.32L867.71,443.87L870.57,442.56L873.44,440.5L876.3,440.19L879.17,439.54L882.03,437.85L884.89,436.71L887.76,434.42L890.62,433.6L893.48,431.72L904.94,427.42L907.8,425.18L910.66,424.59L913.53,422.11L924.98,419.19L927.85,418.04L930.71,418.21L933.58,416.22L945.03,414.05L947.89,414.68L953.62,415.82L956.49,415.75L959.35,415.27L962.21,416.74L967.94,417.06L970.8,417.32L990.85,416.53L993.72,416.76L1005.17,417.4L1008.03,417.15L1013.76,416.77L1016.62,416.79L1019.49,416.25L1022.35,416.57L1036.67,416.12L1039.53,416.07L1059.58,416.06L1062.45,415.36L1071.03,411.93L1073.9,411.83L1082.49,410.45L1085.35,410.59L1093.95,411.24L1096.81,410.76L1102.54,411L1105.4,410.62L1113.99,410.79L1116.85,410.79L1122.58,411.11L1125.44,411.2L1136.9,411.77L1139.76,411.96L1142.63,411.99L1145.49,413.23L1156.94,414.46L1159.81,415.38L1162.67,416.75L1165.54,417.14L1174.13,421.86L1176.99,422.6L1194.17,429.55L1197.04,429.83L1199.9,430.04L1202.77,431.17L1208.5,432.96L1211.36,433.76L1231.4,432.05L1234.27,432.25L1240,433.52L1242.86,432.45L1248.58,432.42L1251.45,432.08L1265.77,429.13L1268.63,429.38L1271.5,429.09L1274.36,425.25L1277.22,423.9L1280.09,421.6L1282.95,418.84L1285.81,412.14L1288.68,409.35L1291.54,402.6L1294.41,399.46L1297.27,393.2L1305.86,386.85L1308.73,386.14L1311.59,384.43L1314.45,384.43L1317.32,383.73L1320.18,384.8L1331.63,387.52L1334.5,389.33L1340.22,390.94L1343.09,391.37L1345.95,391.12L1348.82,392.66L1357.41,395.12L1360.27,396.12L1366,398.56L1368.86,400.22L1371.72,401.38L1374.59,401.66L1383.18,404.43L1386.05,405.84L1388.91,406.51L1391.77,408.11L1394.63,407.78L1397.5,408.54L1403.23,409.78L1406.09,411.78L1417.55,417.8L1420.41,418.19L1423.28,421.03L1426.14,421.66L1429,423.96" style="vector-effect: none; fill: none; stroke: rgb(171, 99, 250); stroke-opacity: 1; stroke-width: 3px; opacity: 1;"/></g><g class="points"/><g class="text"/></g><g class="trace scatter trace802245" style="stroke-miterlimit: 2; opacity: 1;"><g class="fills"/><g class="errorbars"/><g class="lines"><path class="js-line" d="M0,406.09L31.5,404.68L34.37,405.07L45.82,404.26L48.68,403.75L51.55,403.07L54.41,403.37L60.14,400.51L63,399.17L65.87,397.22L68.73,393.93L71.6,392.09L74.46,388.42L80.18,380.62L83.05,377.29L85.91,369.32L88.78,363.56L91.64,357.46L94.5,355.28L100.23,353.03L103.09,352.82L111.69,353.11L114.55,353.99L120.27,356.06L123.14,357.43L126.01,356.31L128.87,356.13L131.73,355.8L134.59,357.15L137.46,357.06L140.32,357.89L143.19,356.6L146.05,357.91L148.92,357.91L151.78,358.91L154.64,356.48L157.5,355.49L160.37,358.16L163.23,356.12L168.96,349.86L171.82,344.9L177.55,342.25L180.42,340.68L183.28,342.09L186.14,342.47L189,343.19L191.87,345.13L194.73,346.6L197.6,346.55L200.46,348.11L203.33,346.34L211.92,354.47L214.78,359.09L220.51,366.78L223.37,369.51L226.23,375.67L229.1,379.77L234.83,389.41L237.69,392.52L240.55,392.26L243.42,390.88L246.28,391.15L249.15,386.61L252.01,389.27L254.87,386.1L260.6,379.26L263.46,371.13L266.33,366.93L269.19,361.17L274.92,358.11L277.78,358.73L280.65,359.48L283.51,362.18L286.37,364.64L289.24,369.44L292.1,373.22L294.96,382.65L297.83,387.47L300.69,396.95L303.56,401.3L306.42,400.81L309.28,393.87L312.15,392.79L317.87,389.05L320.74,389.33L323.6,380.96L326.46,385.77L329.33,383.46L332.19,385.68L335.05,386.3L337.92,386.08L340.79,387.71L343.65,387.08L346.51,389.55L349.37,388.22L352.24,390.13L355.1,388.69L360.83,388.89L363.69,387.7L366.56,384.8L369.42,385.18L372.28,383.91L375.15,383.77L378.01,384.97L380.88,385.01L383.74,384.94L386.6,383.14L389.47,382.41L392.33,383.91L398.06,382.8L400.92,385.62L403.78,386.42L406.65,388.91L412.38,393.46L415.24,393.62L418.11,392.63L420.97,388.87L429.56,395.37L432.42,400.56L435.29,400.58L438.15,401.85L446.74,401.02L449.61,399.78L452.47,398.75L455.33,402.78L458.2,400L461.06,399.8L463.93,398.14L466.79,399.89L472.52,402.98L475.38,403.2L481.11,401.63L483.97,402.18L486.83,401.81L489.7,402.34L492.56,405.88L495.42,404.06L498.29,407.5L501.15,409.16L512.61,419.26L515.47,421.39L518.34,420.68L521.2,421.17L524.06,420.69L526.92,421.2L529.79,419.64L532.65,419.32L535.52,419.41L538.38,417.05L541.24,417.9L544.11,417.83L546.97,417.79L549.83,416.02L552.7,417L555.56,416.56L558.43,417.36L561.29,415.86L564.15,413.43L567.02,412.35L569.88,407.85L572.75,406.19L575.61,403.9L578.47,402.65L584.2,399.5L587.06,398.5L589.93,397.32L592.79,397L595.66,398.29L598.52,398.5L601.38,400.23L604.25,400.59L607.11,400.81L609.97,399.93L612.84,398.65L615.7,400.85L618.56,397.98L621.43,398.23L624.29,398.42L627.16,401.13L635.75,399.46L638.61,400.46L652.93,407.85L655.79,407.14L661.52,409.56L664.39,410.68L670.11,412.81L672.98,413.37L675.84,414.31L678.71,414.32L681.57,414.88L684.43,416.25L698.75,421.68L701.61,421.94L704.48,422.36L707.34,420.72L713.07,418.75L715.93,419.12L721.66,419.08L724.52,418.46L730.25,418.77L733.12,418.78L738.84,418.03L741.7,417.73L747.43,417.22L750.3,416.38L753.16,415.01L756.02,414.48L758.89,413.94L761.75,414.2L764.61,414.36L767.48,413.53L773.21,413.33L776.07,413.8L778.93,414.52L781.8,414.4L787.53,413.15L790.39,413.02L810.44,413.22L813.3,413.22L819.02,413.44L821.89,412.45L827.62,412.48L830.48,411.08L847.66,409.7L850.53,411.38L853.39,411.41L856.25,416.29L859.12,418.99L861.98,424.42L864.85,426.25L867.71,429.35L870.57,430.88L873.44,431.01L879.17,431.76L882.03,435L884.89,436.78L887.75,439.5L893.48,446.81L896.35,452.3L899.21,454.56L902.07,455.54L916.39,459.55L919.26,459.69L922.12,461.01L924.98,460.69L933.58,455.82L936.44,450.85L939.3,446.73L942.17,446.18L945.03,446.13L947.9,447.68L950.76,449.33L953.62,452.91L962.21,458.85L965.08,459.5L970.8,462.93L973.67,464.39L982.26,467.01L985.12,467.55L993.71,466.97L996.58,465.4L1002.31,462.54L1005.17,461.36L1022.35,459.24L1025.21,459.51L1030.94,459.32L1033.8,459.17L1039.53,458.22L1042.4,458.03L1056.72,457.19L1059.58,456.34L1062.44,455.66L1065.31,455.95L1071.03,454.94L1073.9,455.51L1076.76,454.39L1079.63,454.58L1085.35,453.33L1088.22,453.91L1093.94,453.46L1096.81,454.41L1102.53,453.9L1105.4,454.87L1111.13,453.68L1113.99,453.27L1128.31,451.24L1131.17,451.29L1154.08,449.35L1156.95,448.56L1171.26,448.4L1174.13,447.68L1182.72,447.43L1185.58,447.37L1191.31,447.55L1194.17,447.69L1205.63,446.72L1208.49,446.81L1217.09,446.79L1219.95,446.9L1222.81,446.68L1225.67,447.78L1237.13,447.48L1239.99,446.68L1248.58,445.77L1251.45,445.11L1257.18,443.81L1260.04,441.87L1268.63,435.04L1271.5,433.56L1280.09,424.95L1282.95,422.97L1291.54,418.18L1294.41,416.36L1297.27,416.57L1300.13,412.66L1303,412.01L1305.86,408.8L1308.72,407.92L1311.59,404.36L1314.45,403.85L1317.31,401.58L1320.18,400.88L1323.04,398.87L1325.91,397.14L1328.77,397.92L1331.63,396.15L1334.5,396.25L1337.36,394.07L1340.23,393.51L1343.09,392.05L1345.95,392.93L1351.68,390.25L1354.54,389.9L1366,387.39L1368.86,386.45L1371.73,386.12L1374.59,386.55L1383.18,386.72L1386.04,386.35L1391.77,385.67L1394.64,385.93L1397.5,384.72L1400.36,384.5L1403.23,385.06L1406.09,384.77L1408.95,385.08L1411.82,384.22L1417.54,381.01L1420.41,379.67L1426.14,378.28L1429,375.76" style="vector-effect: none; fill: none; stroke: rgb(255, 161, 90); stroke-opacity: 1; stroke-width: 3px; opacity: 1;"/></g><g class="points"/><g class="text"/></g></g></g></g><path class="xlines-above crisp" d="M0,0" style="fill: none;"/><path class="ylines-above crisp" d="M0,0" style="fill: none;"/><g class="overlines-above"/><g class="xaxislayer-above"><g class="xtick"><text text-anchor="middle" x="0" y="841" transform="translate(231.32,0)" style="font-family: 'Open Sans', verdana, arial, sans-serif; font-size: 20px; fill: rgb(42, 63, 95); fill-opacity: 1; white-space: pre; opacity: 1;">1</text></g><g class="xtick"><text text-anchor="middle" x="0" y="841" style="font-family: 'Open Sans', verdana, arial, sans-serif; font-size: 20px; fill: rgb(42, 63, 95); fill-opacity: 1; white-space: pre; opacity: 1;" transform="translate(374.51,0)">2</text></g><g class="xtick"><text text-anchor="middle" x="0" y="841" style="font-family: 'Open Sans', verdana, arial, sans-serif; font-size: 20px; fill: rgb(42, 63, 95); fill-opacity: 1; white-space: pre; opacity: 1;" transform="translate(517.7,0)">3</text></g><g class="xtick"><text text-anchor="middle" x="0" y="841" style="font-family: 'Open Sans', verdana, arial, sans-serif; font-size: 20px; fill: rgb(42, 63, 95); fill-opacity: 1; white-space: pre; opacity: 1;" transform="translate(660.88,0)">4</text></g><g class="xtick"><text text-anchor="middle" x="0" y="841" style="font-family: 'Open Sans', verdana, arial, sans-serif; font-size: 20px; fill: rgb(42, 63, 95); fill-opacity: 1; white-space: pre; opacity: 1;" transform="translate(804.07,0)">5</text></g><g class="xtick"><text text-anchor="middle" x="0" y="841" style="font-family: 'Open Sans', verdana, arial, sans-serif; font-size: 20px; fill: rgb(42, 63, 95); fill-opacity: 1; white-space: pre; opacity: 1;" transform="translate(947.25,0)">6</text></g><g class="xtick"><text text-anchor="middle" x="0" y="841" style="font-family: 'Open Sans', verdana, arial, sans-serif; font-size: 20px; fill: rgb(42, 63, 95); fill-opacity: 1; white-space: pre; opacity: 1;" transform="translate(1090.44,0)">7</text></g><g class="xtick"><text text-anchor="middle" x="0" y="841" style="font-family: 'Open Sans', verdana, arial, sans-serif; font-size: 20px; fill: rgb(42, 63, 95); fill-opacity: 1; white-space: pre; opacity: 1;" transform="translate(1233.63,0)">8</text></g><g class="xtick"><text text-anchor="middle" x="0" y="841" style="font-family: 'Open Sans', verdana, arial, sans-serif; font-size: 20px; fill: rgb(42, 63, 95); fill-opacity: 1; white-space: pre; opacity: 1;" transform="translate(1376.81,0)">9</text></g><g class="xtick"><text text-anchor="middle" x="0" y="841" style="font-family: 'Open Sans', verdana, arial, sans-serif; font-size: 20px; fill: rgb(42, 63, 95); fill-opacity: 1; white-space: pre; opacity: 1;" transform="translate(1520,0)">10</text></g></g><g class="yaxislayer-above"><g class="ytick"><text text-anchor="end" x="90" y="7" transform="translate(0,763.9)" style="font-family: 'Open Sans', verdana, arial, sans-serif; font-size: 20px; fill: rgb(42, 63, 95); fill-opacity: 1; white-space: pre; opacity: 1;">−0.3</text></g><g class="ytick"><text text-anchor="end" x="90" y="7" style="font-family: 'Open Sans', verdana, arial, sans-serif; font-size: 20px; fill: rgb(42, 63, 95); fill-opacity: 1; white-space: pre; opacity: 1;" transform="translate(0,684.71)">−0.2</text></g><g class="ytick"><text text-anchor="end" x="90" y="7" style="font-family: 'Open Sans', verdana, arial, sans-serif; font-size: 20px; fill: rgb(42, 63, 95); fill-opacity: 1; white-space: pre; opacity: 1;" transform="translate(0,605.52)">−0.1</text></g><g class="ytick"><text text-anchor="end" x="90" y="7" style="font-family: 'Open Sans', verdana, arial, sans-serif; font-size: 20px; fill: rgb(42, 63, 95); fill-opacity: 1; white-space: pre; opacity: 1;" transform="translate(0,526.3199999999999)">0</text></g><g class="ytick"><text text-anchor="end" x="90" y="7" style="font-family: 'Open Sans', verdana, arial, sans-serif; font-size: 20px; fill: rgb(42, 63, 95); fill-opacity: 1; white-space: pre; opacity: 1;" transform="translate(0,447.13)">0.1</text></g><g class="ytick"><text text-anchor="end" x="90" y="7" style="font-family: 'Open Sans', verdana, arial, sans-serif; font-size: 20px; fill: rgb(42, 63, 95); fill-opacity: 1; white-space: pre; opacity: 1;" transform="translate(0,367.94)">0.2</text></g><g class="ytick"><text text-anchor="end" x="90" y="7" style="font-family: 'Open Sans', verdana, arial, sans-serif; font-size: 20px; fill: rgb(42, 63, 95); fill-opacity: 1; white-space: pre; opacity: 1;" transform="translate(0,288.75)">0.3</text></g><g class="ytick"><text text-anchor="end" x="90" y="7" style="font-family: 'Open Sans', verdana, arial, sans-serif; font-size: 20px; fill: rgb(42, 63, 95); fill-opacity: 1; white-space: pre; opacity: 1;" transform="translate(0,209.56)">0.4</text></g><g class="ytick"><text text-anchor="end" x="90" y="7" style="font-family: 'Open Sans', verdana, arial, sans-serif; font-size: 20px; fill: rgb(42, 63, 95); fill-opacity: 1; white-space: pre; opacity: 1;" transform="translate(0,130.37)">0.5</text></g></g><g class="overaxes-above"/></g></g><g class="polarlayer"/><g class="smithlayer"/><g class="ternarylayer"/><g class="geolayer"/><g class="funnelarealayer"/><g class="pielayer"/><g class="iciclelayer"/><g class="treemaplayer"/><g class="sunburstlayer"/><g class="glimages"/><defs id="topdefs-4ba24a"><g class="clips"/><clipPath id="legend4ba24a"><rect width="84" height="181" x="0" y="0"/></clipPath></defs><g class="layer-above"><g class="imagelayer"/><g class="shapelayer"/></g><g class="infolayer"><g class="legend" pointer-events="all" transform="translate(252.477,110.08000000000001)"><rect class="bg" shape-rendering="crispEdges" width="84" height="181" x="0" y="0" style="stroke: rgb(68, 68, 68); stroke-opacity: 1; fill: rgb(255, 255, 255); fill-opacity: 1; stroke-width: 0px;"/><g class="scrollbox" transform="" clip-path="url(#legend4ba24a)"><g class="groups"><g class="traces" transform="translate(0,22.1)" style="opacity: 1;"><text class="legendtext" text-anchor="start" x="40" y="9.360000000000001" style="font-family: 'Open Sans', verdana, arial, sans-serif; font-size: 24px; fill: rgb(42, 63, 95); fill-opacity: 1; white-space: pre;">1m</text><g class="layers" style="opacity: 1;"><g class="legendfill"/><g class="legendlines"><path class="js-line" d="M5,0h30" style="fill: none; stroke: rgb(99, 110, 250); stroke-opacity: 1; stroke-width: 3px;"/></g><g class="legendsymbols"><g class="legendpoints"/></g></g><rect class="legendtoggle" x="0" y="-17.1" width="78.609375" height="34.2" style="fill: rgb(0, 0, 0); fill-opacity: 0;"/></g><g class="traces" transform="translate(0,56.300000000000004)" style="opacity: 1;"><text class="legendtext" text-anchor="start" x="40" y="9.360000000000001" style="font-family: 'Open Sans', verdana, arial, sans-serif; font-size: 24px; fill: rgb(42, 63, 95); fill-opacity: 1; white-space: pre;">2m</text><g class="layers" style="opacity: 1;"><g class="legendfill"/><g class="legendlines"><path class="js-line" d="M5,0h30" style="fill: none; stroke: rgb(239, 85, 59); stroke-opacity: 1; stroke-width: 3px;"/></g><g class="legendsymbols"><g class="legendpoints"/></g></g><rect class="legendtoggle" x="0" y="-17.1" width="78.609375" height="34.2" style="fill: rgb(0, 0, 0); fill-opacity: 0;"/></g><g class="traces" transform="translate(0,90.5)" style="opacity: 1;"><text class="legendtext" text-anchor="start" x="40" y="9.360000000000001" style="font-family: 'Open Sans', verdana, arial, sans-serif; font-size: 24px; fill: rgb(42, 63, 95); fill-opacity: 1; white-space: pre;">3m</text><g class="layers" style="opacity: 1;"><g class="legendfill"/><g class="legendlines"><path class="js-line" d="M5,0h30" style="fill: none; stroke: rgb(0, 204, 150); stroke-opacity: 1; stroke-width: 3px;"/></g><g class="legendsymbols"><g class="legendpoints"/></g></g><rect class="legendtoggle" x="0" y="-17.1" width="78.609375" height="34.2" style="fill: rgb(0, 0, 0); fill-opacity: 0;"/></g><g class="traces" transform="translate(0,124.70000000000002)" style="opacity: 1;"><text class="legendtext" text-anchor="start" x="40" y="9.360000000000001" style="font-family: 'Open Sans', verdana, arial, sans-serif; font-size: 24px; fill: rgb(42, 63, 95); fill-opacity: 1; white-space: pre;">4m</text><g class="layers" style="opacity: 1;"><g class="legendfill"/><g class="legendlines"><path class="js-line" d="M5,0h30" style="fill: none; stroke: rgb(171, 99, 250); stroke-opacity: 1; stroke-width: 3px;"/></g><g class="legendsymbols"><g class="legendpoints"/></g></g><rect class="legendtoggle" x="0" y="-17.1" width="78.609375" height="34.2" style="fill: rgb(0, 0, 0); fill-opacity: 0;"/></g><g class="traces" transform="translate(0,158.9)" style="opacity: 1;"><text class="legendtext" text-anchor="start" x="40" y="9.360000000000001" style="font-family: 'Open Sans', verdana, arial, sans-serif; font-size: 24px; fill: rgb(42, 63, 95); fill-opacity: 1; white-space: pre;">5m</text><g class="layers" style="opacity: 1;"><g class="legendfill"/><g class="legendlines"><path class="js-line" d="M5,0h30" style="fill: none; stroke: rgb(255, 161, 90); stroke-opacity: 1; stroke-width: 3px;"/></g><g class="legendsymbols"><g class="legendpoints"/></g></g><rect class="legendtoggle" x="0" y="-17.1" width="78.609375" height="34.2" style="fill: rgb(0, 0, 0); fill-opacity: 0;"/></g></g></g><rect class="scrollbar" rx="20" ry="3" width="0" height="0" x="0" y="0" style="fill: rgb(128, 139, 164); fill-opacity: 1;"/></g><g class="g-gtitle"><text class="gtitle" x="800" y="50" text-anchor="middle" dy="0.7em" style="opacity: 1; font-family: 'Open Sans', verdana, arial, sans-serif; font-size: 20px; fill: rgb(42, 63, 95); fill-opacity: 1; font-weight: bold; white-space: pre;">No Yielding, Front and no eHMI</text></g><g class="g-xtitle"><text class="xtitle" x="805.5" y="873.5" text-anchor="middle" style="opacity: 1; font-family: 'Open Sans', verdana, arial, sans-serif; font-size: 20px; fill: rgb(42, 63, 95); fill-opacity: 1; white-space: pre;">Time (in seconds)</text></g><g class="g-ytitle" transform="translate(0.578125,0)"><text class="ytitle" transform="rotate(-90,19.421875,460)" x="19.421875" y="460" text-anchor="middle" style="opacity: 1; font-family: 'Open Sans', verdana, arial, sans-serif; font-size: 20px; fill: rgb(42, 63, 95); fill-opacity: 1; white-space: pre;">Yaw Angle (in radians)</text></g></g></svg>