<svg class="main-svg" xmlns="http://www.w3.org/2000/svg" xmlns:xlink="http://www.w3.org/1999/xlink" width="4800" height="2700" style="" viewBox="0 0 1600 900"><rect x="0" y="0" width="1600" height="900" style="fill: rgb(255, 255, 255); fill-opacity: 1;"/><defs id="defs-b72cca"><g class="clips"><clipPath id="clipb72ccaxyplot" class="plotclip"><rect width="1429" height="720"/></clipPath><clipPath class="axesclip" id="clipb72ccax"><rect x="91" y="0" width="1429" height="900"/></clipPath><clipPath class="axesclip" id="clipb72ccay"><rect x="0" y="100" width="1600" height="720"/></clipPath><clipPath class="axesclip" id="clipb72ccaxy"><rect x="91" y="100" width="1429" height="720"/></clipPath></g><g class="gradients"/><g class="patterns"/></defs><g class="bglayer"><rect class="bg" x="91" y="100" width="1429" height="720" style="fill: rgb(229, 236, 246); fill-opacity: 1; stroke-width: 0;"/></g><g class="layer-below"><g class="imagelayer"/><g class="shapelayer"/></g><g class="cartesianlayer"><g class="subplot xy"><g class="layer-subplot"><g class="shapelayer"/><g class="imagelayer"/></g><g class="minor-gridlayer"><g class="x"/><g class="y"/></g><g class="gridlayer"><g class="x"><path class="xgrid crisp" transform="translate(231.33,0)" d="M0,100v720" style="stroke: rgb(255, 255, 255); stroke-opacity: 1; stroke-width: 1px;"/><path class="xgrid crisp" transform="translate(374.51,0)" d="M0,100v720" style="stroke: rgb(255, 255, 255); stroke-opacity: 1; stroke-width: 1px;"/><path class="xgrid crisp" transform="translate(517.7,0)" d="M0,100v720" style="stroke: rgb(255, 255, 255); stroke-opacity: 1; stroke-width: 1px;"/><path class="xgrid crisp" transform="translate(660.88,0)" d="M0,100v720" style="stroke: rgb(255, 255, 255); stroke-opacity: 1; stroke-width: 1px;"/><path class="xgrid crisp" transform="translate(804.07,0)" d="M0,100v720" style="stroke: rgb(255, 255, 255); stroke-opacity: 1; stroke-width: 1px;"/><path class="xgrid crisp" transform="translate(947.26,0)" d="M0,100v720" style="stroke: rgb(255, 255, 255); stroke-opacity: 1; stroke-width: 1px;"/><path class="xgrid crisp" transform="translate(1090.44,0)" d="M0,100v720" style="stroke: rgb(255, 255, 255); stroke-opacity: 1; stroke-width: 1px;"/><path class="xgrid crisp" transform="translate(1233.63,0)" d="M0,100v720" style="stroke: rgb(255, 255, 255); stroke-opacity: 1; stroke-width: 1px;"/><path class="xgrid crisp" transform="translate(1376.81,0)" d="M0,100v720" style="stroke: rgb(255, 255, 255); stroke-opacity: 1; stroke-width: 1px;"/></g><g class="y"><path class="ygrid crisp" transform="translate(0,775.03)" d="M91,0h1429" style="stroke: rgb(255, 255, 255); stroke-opacity: 1; stroke-width: 1px;"/><path class="ygrid crisp" transform="translate(0,687.26)" d="M91,0h1429" style="stroke: rgb(255, 255, 255); stroke-opacity: 1; stroke-width: 1px;"/><path class="ygrid crisp" transform="translate(0,511.7)" d="M91,0h1429" style="stroke: rgb(255, 255, 255); stroke-opacity: 1; stroke-width: 1px;"/><path class="ygrid crisp" transform="translate(0,423.93)" d="M91,0h1429" style="stroke: rgb(255, 255, 255); stroke-opacity: 1; stroke-width: 1px;"/><path class="ygrid crisp" transform="translate(0,336.15)" d="M91,0h1429" style="stroke: rgb(255, 255, 255); stroke-opacity: 1; stroke-width: 1px;"/><path class="ygrid crisp" transform="translate(0,248.37)" d="M91,0h1429" style="stroke: rgb(255, 255, 255); stroke-opacity: 1; stroke-width: 1px;"/><path class="ygrid crisp" transform="translate(0,160.59)" d="M91,0h1429" style="stroke: rgb(255, 255, 255); stroke-opacity: 1; stroke-width: 1px;"/></g></g><g class="zerolinelayer"><path class="yzl zl crisp" transform="translate(0,599.48)" d="M91,0h1429" style="stroke: rgb(255, 255, 255); stroke-opacity: 1; stroke-width: 2px;"/></g><g class="layer-between"><g class="shapelayer"/><g class="imagelayer"/></g><path class="xlines-below"/><path class="ylines-below"/><g class="overlines-below"/><g class="xaxislayer-below"/><g class="yaxislayer-below"/><g class="overaxes-below"/><g class="overplot"><g class="xy" transform="translate(91,100)" clip-path="url(#clipb72ccaxyplot)"><g class="scatterlayer mlayer"><g class="trace scatter trace74c4c0" style="stroke-miterlimit: 2; opacity: 1;"><g class="fills"/><g class="errorbars"/><g class="lines"><path class="js-line" d="M0,524.66L17.18,523.81L20.05,522.79L28.64,520.88L31.5,521.11L34.37,520.1L37.23,519.9L42.96,517.57L45.82,518.87L48.69,516.77L51.55,516.14L63,502.83L65.87,499.43L71.6,492.02L74.46,488.27L77.32,477.29L80.19,472.61L85.91,461.29L88.78,452.98L91.64,450.25L94.51,441.89L100.23,432.45L103.1,433.65L105.96,434.85L108.83,428.25L111.69,432.43L114.55,432.85L117.41,437.08L120.28,435.95L123.14,437.08L126.01,436.71L128.87,437.21L131.73,433.09L134.6,430.54L137.46,425.95L140.33,423.34L143.19,414.28L148.92,403.85L151.78,404.3L154.64,392.48L157.51,390.38L160.37,395.48L163.24,384.77L166.1,387.74L168.96,383.29L171.82,378.26L174.69,378.02L177.55,373.27L180.42,371.28L183.28,371L186.14,372.39L189.01,361.36L191.87,360.49L194.74,351.82L197.6,349.48L200.46,343.55L203.33,340.04L206.19,334.56L209.05,316.2L211.92,307.03L214.78,290.11L217.65,280.03L220.51,251.31L223.37,238.54L226.24,201.19L231.96,154.78L234.83,119.47L237.69,103.45L240.55,81.98L252.01,42.91L254.87,37.24L260.6,36L263.47,37.32L269.19,57.92L272.05,103.77L274.92,160.35L277.78,253.65L280.65,275.57L283.51,290.55L286.38,304.44L289.24,309.03L294.97,317.31L297.83,321.25L303.56,330.75L306.42,333.18L317.88,377.19L320.74,390.43L323.6,397.85L326.47,409.08L329.33,415.2L332.19,424.29L335.06,430.76L337.92,441.9L343.65,460.36L346.51,470.81L349.38,476.75L352.24,492.22L360.83,539.02L363.7,558.44L369.42,578.76L372.29,585.17L375.15,589.44L378.02,586.35L380.88,585.47L383.74,583.73L386.6,584.62L389.47,582.96L392.33,585.01L395.2,584.65L400.92,582.11L403.79,579.94L406.65,580.48L409.52,577.2L412.38,577.24L415.24,574.24L418.11,573.9L420.97,572.43L423.83,573.67L426.7,575.77L429.56,579.18L432.42,578.25L438.15,576.31L441.01,572.93L443.88,572.37L446.74,570.21L449.61,568.41L452.47,568.21L455.33,568.27L458.2,565.85L461.06,566.72L463.93,565.35L466.79,567.09L469.65,566.5L472.52,567.43L475.38,567.03L481.11,566.39L483.97,564.29L489.7,560.91L492.56,558.93L495.43,556.51L498.29,552.42L501.15,549.84L504.02,545.91L506.88,542.9L509.74,542.04L512.61,540.35L515.47,539.71L518.34,537.38L521.2,537.35L524.06,535.9L526.93,535.76L529.79,536.17L532.66,535.13L544.11,537.8L546.97,537.17L549.84,537.68L552.7,539.13L558.43,542.32L561.29,543.64L564.16,546.5L567.02,547.77L569.88,551.9L572.75,554.02L578.48,559.6L581.34,564.45L584.2,567.46L587.06,568.9L595.66,572.83L598.52,571.8L601.38,572.6L604.25,570.82L607.11,569.88L609.98,566.35L612.84,565.75L615.7,561.44L618.57,558.57L621.43,558.31L630.02,547.65L632.88,547.13L638.61,539.35L641.48,540.04L647.2,536.56L650.07,535.58L655.79,535.37L658.66,536.65L661.52,538.26L664.39,538.03L670.11,545.25L672.98,544.56L675.84,549.73L678.71,549.48L681.57,552.49L684.43,553.66L687.29,557.77L690.16,560.42L693.02,560.54L695.89,565.45L701.61,572.12L704.48,571.91L707.34,574.6L710.21,575.61L715.93,575.44L718.8,574.9L721.66,573.65L724.52,574.25L730.25,572.76L733.12,573.26L738.84,575.64L741.71,576.03L744.57,576.78L747.43,576.19L750.3,574.64L753.16,574.31L761.75,569.21L764.62,568.34L767.48,568.03L770.34,566.26L773.21,562.75L776.07,561.2L778.93,560.59L781.8,565.66L784.66,568.13L787.53,572.86L790.39,574.28L793.25,577.38L796.12,577.24L798.98,578.08L804.71,576.34L807.57,573.96L810.44,573.44L813.3,570.38L821.89,559.36L824.76,556.59L827.62,552.09L830.48,550.93L836.21,556.66L839.07,563.3L841.94,566.59L844.8,572.02L856.26,579.84L859.12,583.92L864.85,586.8L867.71,587.69L870.57,587.98L873.44,586.38L876.3,584.31L879.17,583.28L882.03,581.19L884.89,576.45L890.62,571.7L893.48,566.86L896.35,564.49L899.21,559.95L902.07,558.15L904.94,555.1L910.67,552.68L913.53,554.33L919.26,554.92L922.12,554.5L927.85,552.22L930.71,551.82L939.3,551.38L942.17,551.38L945.03,553.06L947.89,552.32L953.62,554.47L956.49,554.61L962.21,556.36L965.08,557.45L970.8,556.2L973.67,554.93L979.4,554.89L982.26,555.07L993.71,556.67L996.58,556.51L1005.17,556.84L1008.03,555.91L1013.76,555.54L1016.62,555L1025.22,552.86L1028.08,552.11L1033.81,552.89L1036.67,552.97L1062.44,556.13L1065.31,555.68L1068.17,556.4L1071.03,556.25L1079.63,557.51L1082.49,558.55L1105.4,558.68L1108.26,559.17L1119.72,558.18L1122.58,557.83L1128.31,556.6L1131.17,556.97L1136.9,556.96L1139.76,557.32L1142.63,557.89L1145.49,557.5L1168.4,559.11L1171.26,560.01L1174.13,559.77L1176.99,560.43L1179.86,559.54L1182.72,560.27L1188.45,560.83L1191.31,560.14L1202.76,560.3L1205.63,558.09L1208.49,558.01L1211.36,556.91L1219.95,556.3L1222.81,556.12L1228.54,557.93L1231.4,557.78L1234.27,557.75L1237.13,556.78L1245.72,557.45L1248.59,556.41L1254.31,556.08L1257.18,554.54L1260.04,554.27L1262.9,552.35L1265.77,552.63L1268.63,551.66L1271.5,552.44L1274.36,552.17L1280.09,553.51L1282.95,553.37L1285.81,554.13L1288.68,553.55L1303,556.65L1305.86,556.72L1311.59,556.45L1314.45,557.17L1317.31,558.1L1320.18,558.23L1331.63,561.87L1334.5,562.85L1340.23,565.86L1343.09,566.43L1348.81,569.13L1351.68,569.32L1357.41,571.7L1360.27,575.47L1366,577.44L1368.86,578.79L1371.72,579.38L1374.59,581.16L1380.32,585.43L1383.18,586.22L1388.91,590.42L1391.77,594.1L1397.5,597.09L1400.36,597.82L1403.23,598.35L1406.09,600.28L1411.82,603.3L1414.68,604.1L1420.41,606.22L1423.27,606.13L1429,605.15" style="vector-effect: none; fill: none; stroke: rgb(99, 110, 250); stroke-opacity: 1; stroke-width: 3px; opacity: 1;"/></g><g class="points"/><g class="text"/></g><g class="trace scatter trace1cebcc" style="stroke-miterlimit: 2; opacity: 1;"><g class="fills"/><g class="errorbars"/><g class="lines"><path class="js-line" d="M0,530.34L5.73,528.56L8.6,528.49L14.32,528.1L17.19,525.78L22.91,524.48L25.78,523.86L31.5,522.25L34.37,522.62L40.09,520.45L42.96,520.17L45.82,517.11L48.69,515.58L51.55,512.34L54.41,510.49L57.28,505.92L60.14,503.16L63.01,499.76L65.87,494.1L68.73,490.28L71.6,488.76L74.46,486.9L77.32,471.45L83.05,453.39L85.91,448.06L91.64,436.85L94.5,434.01L97.37,427.28L100.23,425.36L103.1,420.12L105.96,406.72L111.69,393.74L114.55,390.76L117.42,386.91L120.28,385.74L123.14,380.32L126.01,380.98L128.87,385.28L131.73,386.37L134.6,392.3L137.46,392.36L140.33,392.81L143.19,394.26L146.05,395.46L148.91,399.74L151.78,400.66L154.65,404.75L157.51,405.3L160.37,403.63L163.23,402.19L166.1,402.61L168.96,394.68L171.83,391.87L174.69,388.93L177.55,367.77L180.42,360.78L183.28,362.79L186.14,369.95L189.01,372.71L194.74,390.97L197.6,388.17L200.46,382.77L203.33,379.49L206.19,371.55L209.06,360.05L211.92,358.74L214.78,356.08L217.64,351.71L220.51,348.9L223.37,350.37L226.24,350.24L229.1,349.37L231.97,351.84L234.83,361.5L237.69,366.17L240.56,368.84L243.42,375.52L246.28,379.93L249.15,387.09L252.01,389.75L254.87,396.81L257.74,399.03L260.6,404.83L269.19,413.07L272.05,416.02L274.92,421.36L277.79,422.18L286.38,431.28L289.24,437.23L292.1,440.59L294.97,448.66L297.83,455.82L300.69,468.47L306.42,482.9L309.28,485.64L312.15,488.88L315.01,488.23L317.87,486.93L320.74,481.33L323.6,481.28L326.47,482.74L332.2,483.05L335.06,487.42L337.92,491.07L340.79,488.77L343.65,495.37L346.51,495.49L349.38,503.76L352.24,507.12L360.83,524.09L363.69,527.17L366.56,529.15L369.42,529.07L372.29,530.89L375.15,534.26L380.88,541.1L383.74,546.87L386.61,548.98L389.47,552.22L392.33,554.5L395.2,558.88L398.06,560.73L400.92,559.84L403.79,564.12L406.65,565.5L412.38,564.08L415.24,562.69L418.11,562.28L420.97,559.6L423.84,562.05L426.7,561.33L429.56,555.32L432.42,556.4L435.29,553.75L438.15,552.7L441.02,549.64L443.88,553.47L446.75,553.02L449.61,556.81L455.34,559.69L458.2,560.73L461.06,559.54L463.93,559.64L466.79,556.43L469.65,555.15L472.52,553.67L475.38,558.48L478.25,539.56L481.11,546.57L483.97,539.67L486.83,536.51L489.7,530.69L492.56,527.68L495.43,519.46L498.29,515.8L504.02,506.05L506.88,501.18L509.75,502.62L512.61,502.37L515.47,501.21L518.34,502.55L529.79,490.93L532.65,491.62L535.52,492.15L538.38,484.78L541.25,488.8L544.11,487.84L546.98,487.36L549.84,488L555.56,489.67L558.43,491.37L564.16,499.71L567.02,500.51L572.75,509.06L575.61,509.17L581.34,516.19L584.2,516.09L587.06,514.41L589.93,514.81L592.79,513.09L595.65,515.7L598.52,516.09L601.39,510.82L607.11,515.17L609.97,515.45L615.7,514.7L618.57,514.28L624.29,510.54L627.16,509.65L632.88,506.86L635.75,505.61L641.48,503.61L644.34,500.73L647.2,500.21L650.07,498.72L652.93,497.4L655.8,494.67L661.52,495.31L664.38,494.28L667.25,492.45L670.11,491.57L672.98,489.55L675.84,489.23L678.71,487.57L681.57,488.06L690.16,486.94L693.03,487.13L698.75,486.99L701.61,488.6L704.48,488.67L707.34,490.57L710.21,490.96L713.07,492.3L715.93,492.36L718.8,493.58L721.66,499.16L724.53,499.23L727.39,501.78L730.25,502.9L735.98,505.02L738.84,504.92L741.71,506.82L744.57,506.65L747.43,507.79L750.3,507.86L753.16,507.93L756.02,509.12L758.89,509.48L761.75,507.56L764.62,505.55L767.48,505.99L770.34,507.69L773.21,506.76L776.07,506.23L778.94,507.23L781.8,506.78L784.66,507.88L787.53,508.6L790.39,510.17L793.25,514.14L796.12,515.48L798.98,517.79L801.84,518.48L804.71,519.16L807.57,517.92L810.43,516.25L813.3,513.18L819.03,511.04L821.89,504.81L827.62,500.5L830.48,499.69L833.35,501.01L836.21,500.01L841.94,496.6L844.8,498.63L847.66,498.21L850.53,500.14L853.39,500.97L856.26,500.72L859.12,502.17L861.98,501.6L864.85,501.89L867.71,500.94L870.58,501.46L873.44,498.08L876.3,496.71L879.16,496.77L882.03,489.96L884.89,487.37L887.76,484.81L890.62,483.55L893.49,484.04L896.35,483.34L902.08,482.14L904.94,483.2L910.67,484.95L913.53,484.62L919.26,486.44L922.12,488.88L924.99,489.67L927.85,489.59L936.44,490.84L939.3,492.76L942.17,492.75L945.03,494.43L950.76,495.3L953.62,496.49L959.35,497.13L962.21,496.69L970.8,499.48L973.67,501.9L976.53,503.17L979.4,503.46L985.12,506.56L987.99,506.7L999.44,505.61L1002.31,505.33L1008.03,505.09L1010.9,502.74L1013.76,500.96L1016.62,500.28L1028.08,499.41L1030.94,501.17L1033.8,501.03L1036.67,502.25L1045.26,502.82L1048.13,502.02L1050.99,500.36L1053.85,497.82L1056.72,496.6L1059.58,493.82L1062.44,491.73L1065.31,490.85L1068.17,487.87L1071.03,486.75L1073.9,483.82L1076.76,483.6L1079.62,481.95L1082.49,481.87L1085.36,480.07L1088.22,479.79L1091.08,479.27L1093.94,476.59L1096.81,475.23L1099.67,472.79L1102.54,471.7L1105.4,469.04L1113.99,463.89L1116.85,463.17L1119.72,459.86L1122.58,459.17L1125.45,456.75L1128.31,455.54L1134.04,454.14L1136.9,454.05L1139.77,452.85L1142.63,452.6L1148.35,452.17L1151.22,453.69L1154.08,454.69L1156.95,457.2L1162.68,460L1165.54,463.42L1168.4,465.86L1171.27,469.65L1176.99,474.42L1179.86,475.38L1197.04,489.24L1199.9,490.12L1202.76,492.58L1205.63,493.04L1208.49,494.32L1211.36,494.76L1217.09,496.58L1219.95,495.93L1222.81,498.11L1225.68,498.53L1228.54,500.87L1231.4,500.09L1234.27,501.95L1237.13,502.77L1242.86,505.12L1245.72,505.78L1254.31,510.28L1257.18,511.37L1268.63,517.83L1271.5,518.6L1274.36,519.42L1277.22,519.41L1280.09,519.44L1282.95,517.76L1288.68,515.59L1291.54,516.03L1294.4,516.51L1297.27,516.22L1303,515.76L1305.86,515.84L1308.72,516.98L1311.59,517.17L1320.18,517.59L1323.04,517.08L1328.77,516.62L1331.63,516.7L1337.36,516.28L1340.23,515.87L1354.55,514.31L1357.41,515.43L1360.27,516.39L1363.13,516.32L1374.59,514.65L1377.46,515.14L1380.32,515.92L1383.18,515.75L1386.04,517.75L1388.91,518.33L1391.77,519.32L1394.64,519.46L1397.5,519.97L1400.36,521.38L1411.82,521.63L1414.68,522.03L1426.14,524.36L1429,523.59" style="vector-effect: none; fill: none; stroke: rgb(239, 85, 59); stroke-opacity: 1; stroke-width: 3px; opacity: 1;"/></g><g class="points"/><g class="text"/></g><g class="trace scatter traceba5392" style="stroke-miterlimit: 2; opacity: 1;"><g class="fills"/><g class="errorbars"/><g class="lines"><path class="js-line" d="M0,530.65L8.59,529.49L11.46,528.73L22.91,528.44L25.77,527.95L34.36,527.55L37.23,527.73L40.1,527.74L42.96,524.23L54.41,524.17L57.28,521.85L60.14,520.45L63,517.15L65.87,516.14L68.73,517.18L71.59,508.57L74.46,508.36L77.32,504.24L80.19,504.44L83.05,501.3L85.91,500.83L88.78,502.4L91.64,501.02L94.5,500.11L97.37,500.74L100.23,501.68L103.1,489.22L105.96,485.48L108.82,480.5L111.69,478.06L114.55,472.76L117.41,468.72L120.28,462.73L126,456.23L128.87,453.67L134.6,430.4L137.46,423.69L140.33,412.97L143.19,406.38L148.91,390.54L151.78,387.34L157.51,382.56L160.37,374L166.1,369.74L168.96,368.85L171.83,367.47L174.69,367.01L177.55,366.34L180.42,362.19L183.28,360.37L186.14,360.14L189.01,359.29L191.87,355.96L194.73,355.74L197.6,351.41L200.46,351.31L203.32,350.43L206.19,351.94L209.05,351.02L211.92,349.84L214.78,351L217.64,348.66L220.51,352.59L226.24,356.78L229.1,354.33L234.83,344.53L237.69,330.74L240.55,321.93L243.42,307L246.28,300.56L249.14,290.69L254.87,282.62L257.74,279.64L260.6,280.6L263.47,283.96L266.33,285.05L269.19,290.75L272.06,297.03L274.92,299.09L277.78,306.78L280.65,310.71L283.51,313.91L286.37,312.59L289.24,311.53L292.1,311.57L294.97,303.68L297.83,299.66L300.69,298.73L303.55,300.94L306.42,299.63L309.28,301.03L312.15,300.81L315.01,304.2L320.74,312.78L323.6,317.56L326.47,322.15L329.33,330.78L335.06,343.39L337.92,347.14L340.78,365.69L343.65,373.22L346.51,378.75L349.38,386.3L352.24,393.3L355.1,402.52L357.97,407.25L360.83,414.37L366.56,421.47L369.42,432.58L372.29,436.9L375.15,444.56L378.01,451.13L380.88,454.99L389.47,461.76L392.33,462.57L398.06,458.18L400.92,460.5L406.65,460.3L409.51,459.19L412.38,456.1L415.24,454.81L418.1,452.53L420.97,453.66L435.28,446.07L438.15,445.69L441.02,445.7L443.88,443.54L449.61,442.49L452.47,443.06L455.33,443.32L458.2,441.69L461.06,441.34L463.92,441.93L475.38,446.35L478.25,448.42L483.97,451.6L486.84,451.66L489.7,454.07L492.56,455.3L495.43,456.78L498.29,459.28L501.15,460.67L504.02,460.35L512.61,463.26L515.47,464.8L521.2,467.22L524.06,468.54L529.79,471.4L532.66,472.97L535.52,474.72L538.38,478.88L541.25,480.96L544.11,484.01L546.97,485.18L549.84,487.59L555.56,492.3L558.43,493.01L567.02,492.61L569.88,494.77L572.74,497.46L575.61,489.38L581.34,492.6L584.2,483.29L587.07,484.99L589.93,470.9L595.66,474.56L598.52,451.09L601.38,451.54L604.25,414.04L607.11,417.48L609.97,417.5L612.84,377.49L615.7,378.2L618.57,341.85L621.43,342.63L624.29,342.33L627.16,313.77L630.02,314.03L632.88,315.08L635.75,303.73L638.61,307.17L641.48,307.85L644.34,310L647.2,318.12L650.06,318.95L652.93,321.98L655.79,323.71L658.66,346.37L661.52,346.56L664.39,400.27L667.25,400.86L670.11,403.08L672.98,482.93L678.7,491.2L681.57,547.97L684.43,552.22L687.29,554.63L690.16,577.09L693.02,570.94L695.88,569.84L698.75,584.56L701.61,585.64L704.48,590.44L710.21,592.03L713.07,592.87L715.93,591.48L718.8,590.98L721.66,590.95L724.52,593.18L730.25,595.14L733.11,597.55L738.84,599.82L741.71,597.21L747.44,595.02L750.29,596.69L758.89,591.03L761.75,580L767.48,571.74L770.34,562.82L773.21,558.47L776.07,551.78L778.93,550.04L781.8,549.23L784.66,543.67L787.52,540.72L790.39,536.53L793.25,534.47L796.12,532.62L798.98,531.83L801.85,530.8L804.71,527.44L813.3,526.03L816.16,524.57L819.03,522.8L821.89,518.16L824.75,516.59L827.62,513.17L836.21,506.18L839.07,505.59L844.8,505.27L847.66,504.04L850.53,502.04L853.39,501.21L859.12,500.38L861.98,500.42L870.57,499.38L873.44,500.47L882.03,505.49L884.89,506.09L887.76,507.77L890.62,508.26L896.35,510.34L899.21,512.72L907.8,518.98L910.66,520.64L913.53,522.71L916.39,523.76L922.12,526.71L924.99,527.99L927.85,528.63L930.71,530.38L936.44,533.02L939.3,534.89L945.03,537.11L947.89,538.14L956.48,540.42L959.35,541.25L965.07,543.32L967.94,543.34L973.67,543.27L976.53,543.18L979.4,544.4L982.26,544.34L987.99,545.28L990.85,545.35L1002.3,546.55L1005.17,545.63L1019.49,544.51L1022.35,543.75L1028.08,543.23L1030.94,542.22L1036.67,540.64L1039.53,539.01L1048.12,538.92L1050.99,537.8L1059.58,537.82L1062.44,536.84L1065.31,536.09L1068.17,536.62L1079.62,533.08L1082.49,533.23L1085.35,531.63L1088.22,531.42L1091.08,531.59L1093.94,530.79L1099.67,530.33L1102.54,529.66L1105.4,530.35L1108.26,530.13L1111.13,528.48L1113.99,528.15L1119.72,527.33L1122.58,526L1128.31,523.87L1131.17,524.6L1136.9,523.77L1139.76,522.29L1145.49,520.09L1148.35,518.6L1151.22,515.43L1154.08,514.19L1159.81,517.01L1162.67,516.15L1168.4,517.34L1171.26,515.78L1174.13,516.48L1176.99,515.78L1179.85,516.32L1182.72,517.71L1185.58,518.87L1188.45,520.88L1191.31,521.29L1194.18,526.13L1199.9,529.76L1202.77,530.53L1208.49,532.66L1211.36,533.94L1214.22,536.01L1217.08,536.91L1222.81,546.21L1225.67,556.15L1231.4,567.39L1234.26,580.99L1237.13,588.16L1239.99,603.81L1242.86,612.25L1245.72,630.06L1248.59,636.95L1251.45,653.36L1254.31,662.72L1257.18,666.96L1260.04,674.41L1262.9,677.63L1268.63,684L1271.49,674.57L1274.36,664.52L1277.22,626.76L1282.95,566.02L1285.81,523.83L1291.54,503.36L1294.4,502.55L1297.27,500.35L1300.13,502.99L1303,503.76L1305.86,505.87L1314.45,505.33L1317.32,506.35L1320.18,507.63L1323.04,508.05L1325.9,511.98L1328.77,513.61L1331.63,515.01L1334.5,517.85L1340.22,521.98L1343.09,525.75L1345.95,526.76L1348.81,529.48L1351.68,530.25L1354.54,533.15L1360.27,536.7L1363.13,537.11L1365.99,537.38L1368.86,540.71L1371.73,541.39L1374.59,541.06L1377.45,539.18L1380.32,538.94L1383.18,535.86L1386.04,534.14L1394.63,524.6L1397.5,524L1400.36,517.27L1403.22,516.51L1408.96,516.64L1411.81,517.27L1414.68,515.09L1417.54,515.07L1420.41,514L1423.27,514.6L1426.14,513.67L1429,510.15" style="vector-effect: none; fill: none; stroke: rgb(0, 204, 150); stroke-opacity: 1; stroke-width: 3px; opacity: 1;"/></g><g class="points"/><g class="text"/></g><g class="trace scatter trace80dfef" style="stroke-miterlimit: 2; opacity: 1;"><g class="fills"/><g class="errorbars"/><g class="lines"><path class="js-line" d="M0,539.3L5.73,538.81L8.59,538.14L17.18,536.4L20.05,535.68L31.5,529.27L34.37,523.45L37.23,521.06L40.09,516.78L42.96,509.46L45.82,504.83L48.68,497.37L51.55,492.1L54.41,484.76L57.27,481.43L60.14,477.95L63,473L65.87,462.67L68.73,455.39L77.32,434.89L80.18,429.69L83.05,419.73L85.91,415.16L88.78,410.69L91.64,409.03L94.5,398.03L97.37,393.39L100.23,389.14L103.1,382.19L105.96,379.54L108.82,375.58L111.68,373.75L114.55,370.46L117.41,369.75L120.28,370.75L123.14,368.28L126,363.24L128.87,357.86L131.73,358.24L134.59,356.54L137.46,359.51L140.33,364.62L143.19,361.79L146.05,363.67L148.91,360.58L151.78,358.47L154.64,361.14L157.51,359.76L160.37,363.58L163.23,365.43L166.1,375.21L168.96,376.08L171.82,383.56L174.69,385.87L177.55,389.45L180.42,389.18L183.28,389.68L186.14,386.04L189.01,379.95L194.74,372.26L197.6,367.1L200.46,360.83L203.32,357.73L206.19,353.45L209.05,347.63L211.92,342.38L214.78,332.6L217.64,327.31L220.51,320.42L223.37,315.46L226.23,314.89L229.1,315.54L231.96,314.37L237.69,305.04L240.55,303.62L246.28,291.86L249.15,288.89L252.01,281.69L254.87,279.84L263.46,267.4L266.33,260.18L269.19,256.85L272.05,249.93L274.92,244.03L277.78,234.71L280.65,232.79L283.51,228.4L286.37,226.59L289.24,228.25L292.1,227.69L294.96,232.09L300.69,218.33L303.55,220.85L306.42,220.32L309.28,214.45L312.15,209.21L315.01,207.43L320.74,201.87L323.6,197.43L329.33,190.14L332.19,189.24L335.06,188.27L337.92,186.11L340.78,185.17L343.65,181.06L346.51,178.37L349.37,176.74L352.24,176.53L355.1,178.19L357.97,179L360.83,181.21L363.69,179.8L366.56,181.25L375.15,196.76L378.01,199.48L380.88,199.56L383.74,201.46L386.6,201.88L389.47,200.23L398.06,192.3L400.92,188.22L403.78,187.11L406.65,184.89L409.52,182.82L412.38,183.44L415.24,181.99L418.1,181.9L420.97,181.92L423.83,184.85L432.42,191.12L435.28,194.35L438.15,197L441.01,203.37L443.88,209.03L446.74,217.74L449.61,222.22L452.47,236.2L458.2,248.75L461.06,256.45L463.92,262.03L466.79,272.27L469.65,277.13L472.51,286.43L475.38,288.88L478.24,294.37L481.11,300.9L483.97,305.21L486.83,314.59L489.7,319.39L492.56,331.74L495.42,335.77L498.29,339.67L501.15,341.07L504.02,327.53L506.88,329.79L512.61,342L515.47,344.3L521.2,348.29L524.06,351.64L529.79,349.58L532.65,352.3L541.24,350.72L544.11,352.72L546.97,350.22L549.84,349.57L555.56,346.76L558.42,346.61L561.29,344.08L564.15,346.28L567.02,346.86L569.88,348.77L578.47,352.11L581.34,355.32L589.93,360.74L592.79,362.3L595.65,362.33L598.52,361.2L601.38,356.73L604.25,355.13L607.11,348.2L609.97,344.99L612.84,342L615.7,340.14L618.56,339.28L621.43,340.45L624.29,343.31L627.16,345.06L630.02,344.93L632.88,345.84L635.75,348.14L638.61,349.13L641.48,351.06L644.34,351.16L647.2,352.76L650.06,353.36L655.79,357.65L658.66,359.11L661.52,362.08L664.38,363.38L670.11,369.77L672.98,373.23L678.7,376.4L681.57,379.22L684.43,380.3L687.29,383.52L690.16,384.9L693.02,387.19L698.75,389.68L701.61,391.04L713.07,394.59L715.93,399.65L724.52,401.73L727.39,402.75L730.25,403.44L733.11,402.88L744.57,406.46L747.43,406.27L750.3,406.8L753.16,408.81L756.02,410.93L758.89,411.46L764.61,411.01L767.48,410.74L773.2,410.37L776.07,411.75L778.93,413.87L781.8,413.96L787.52,416.41L790.39,417.28L796.11,418.54L798.98,417.88L804.71,417.55L807.57,417.18L810.43,415.83L813.3,415.94L816.16,418.63L819.03,420.01L827.62,429.24L830.48,431.6L833.34,435.17L836.21,436.2L841.93,439.19L844.8,440.23L847.66,446.67L850.52,447.83L853.39,450.55L856.26,451.92L861.98,454.24L864.84,455.53L867.71,456L870.57,455.4L876.3,452.93L879.16,450L882.03,446.61L884.89,445.28L887.75,442.51L890.62,442.58L902.07,438L904.94,438.8L907.8,440.31L910.67,440.58L913.53,441.01L916.39,442.26L919.25,444.17L922.12,445.13L924.98,446.53L927.85,448.83L930.71,450.26L933.58,453.79L939.3,457L942.16,460.28L947.89,464.49L950.76,464.6L953.62,466.4L956.48,466.34L962.21,465.48L965.08,465.35L967.94,464.87L970.8,465.44L976.53,466.65L979.39,466.62L985.12,465.62L987.98,464.7L1002.3,460.89L1005.17,460.63L1013.76,460.92L1016.62,461.26L1028.08,461.59L1030.94,462.3L1033.8,463.86L1036.67,464.54L1045.26,467.13L1048.12,467.55L1053.85,466.78L1056.71,466.18L1062.44,465.04L1065.3,463.22L1071.03,461.2L1073.9,460.31L1076.76,457.06L1079.62,455.78L1082.49,454.4L1085.35,450.23L1088.22,447.91L1091.08,444.14L1093.94,442L1096.81,437.69L1099.67,435.61L1102.53,430.72L1105.4,427.93L1108.26,422.01L1113.99,410.34L1116.85,405.66L1119.72,401.48L1122.58,395.17L1125.45,390.93L1128.31,381.45L1131.17,377.53L1134.03,371.88L1139.76,353.77L1142.63,335.02L1145.49,321.17L1148.35,297.92L1151.22,287.03L1154.08,263.17L1159.81,243.48L1162.67,226.65L1165.54,219.95L1168.4,211.09L1171.26,207.52L1174.13,200.9L1176.99,199.99L1179.86,197.94L1191.31,193.49L1194.17,191.48L1199.9,191.67L1202.76,191.42L1205.63,189.62L1208.49,189.16L1219.95,186.92L1222.81,188.21L1225.67,187.85L1228.54,189.32L1234.26,190.7L1237.13,190.6L1242.86,195.04L1245.72,197.98L1251.45,203.43L1254.31,208.55L1257.17,211.09L1260.04,215L1262.9,216.58L1265.77,219.82L1280.08,227.26L1282.95,227.72L1288.67,230.15L1291.54,231.07L1300.13,233.28L1303,235.89L1305.86,237.29L1308.72,236.47L1311.59,236.33L1314.45,237.49L1317.31,238.18L1320.18,239.82L1323.04,244.33L1325.9,247.24L1328.77,259.22L1331.63,386.75L1334.49,478.65L1337.36,524.31L1343.09,542.38L1345.95,544.67L1351.68,549.27L1354.54,547.73L1357.41,554.45L1360.27,556.6L1363.13,563.45L1365.99,567.87L1371.72,576.88L1374.59,577.72L1380.32,573.84L1383.18,569.83L1388.91,566.8L1391.77,565.51L1394.63,565.2L1397.5,563.5L1411.82,565.15L1414.68,564.92L1417.54,563.25L1420.41,560.55L1423.27,557.19L1426.13,556.72L1429,555.7" style="vector-effect: none; fill: none; stroke: rgb(171, 99, 250); stroke-opacity: 1; stroke-width: 3px; opacity: 1;"/></g><g class="points"/><g class="text"/></g><g class="trace scatter trace46ed91" style="stroke-miterlimit: 2; opacity: 1;"><g class="fills"/><g class="errorbars"/><g class="lines"><path class="js-line" d="M0,507.22L11.46,506.33L14.32,506.19L28.64,505.08L31.5,504.89L40.09,503.73L42.96,502.39L48.68,499.83L51.55,497.62L60.14,492.06L63,488.69L68.73,483.31L71.6,478.19L74.46,474.43L77.32,468.26L83.05,457.33L85.91,448.03L94.5,432.36L97.37,426.78L103.1,421.3L105.96,418.21L108.82,416.6L111.69,413.21L114.55,410.87L117.42,404.95L120.28,401.78L123.14,396.05L128.87,387.68L131.73,380.97L134.6,377.54L137.46,366.09L140.33,361.66L143.19,359.23L146.05,354.25L148.92,350.85L151.78,348.03L154.64,343.54L157.51,339.28L160.37,337.91L171.83,324.67L174.69,323.23L177.55,320.68L180.42,320.47L183.28,317.44L186.14,316.78L197.6,317.77L200.46,319.49L206.19,320.44L209.05,323.3L211.92,324.71L214.78,328.42L217.64,329.51L220.51,332.15L223.37,333.91L226.24,331.05L229.1,332.63L231.96,335.41L234.83,336.75L237.69,339.69L240.55,342.04L243.42,338.95L246.28,337.99L249.15,339.01L254.87,340.04L257.74,339.51L263.46,338.56L266.33,339.4L269.19,340.08L272.05,339.17L280.65,339.62L283.51,338.18L286.37,337.46L289.24,338.1L297.83,338.35L300.69,338.89L306.42,341.79L309.28,342.43L312.15,344.63L315.01,344.03L320.74,339.29L323.6,333.33L326.47,331.08L329.33,326.87L335.06,326.29L337.92,323.44L340.79,323.27L343.65,325.29L352.24,324.33L355.1,325.49L357.97,327.51L360.83,330.74L363.7,331.7L366.56,335.06L375.15,341.42L378.02,345L386.61,348.79L389.47,349.56L398.06,355.28L400.92,355.62L406.65,359.56L409.51,362.24L418.11,368.34L420.97,369.23L423.83,370.5L426.7,368.96L429.56,369.99L432.42,369.44L435.29,369.5L438.15,368.37L441.02,365.52L443.88,364.51L446.74,362.27L449.61,362.08L452.47,361.19L455.33,361.19L458.2,361.65L461.06,358.88L463.92,357.52L466.79,349.1L469.65,345.47L472.52,336.03L475.38,333.91L478.24,326.98L481.11,327.13L483.97,328.1L486.83,324.65L489.7,326.73L492.56,325.21L495.43,327.28L504.02,330.09L506.88,332.74L509.74,335.32L512.61,338.94L515.47,341.98L518.34,347.34L524.06,354.7L526.93,358.71L529.79,363.87L532.65,366.85L538.38,373.27L541.24,377.79L546.97,384.94L549.84,384.58L552.7,387.13L555.56,390.77L558.43,393.13L561.29,393.77L564.16,392.53L567.02,393.02L572.75,392.3L575.61,389.64L581.34,388.82L584.2,387.66L587.07,383.36L589.93,381.7L592.79,378.04L595.66,377.66L601.39,374.37L604.25,373.46L607.11,371.75L609.98,373.52L615.7,379.46L618.57,374.44L621.43,374.07L624.29,374.6L627.16,375.06L630.02,377.15L632.89,383.01L635.75,386.22L641.48,391.82L644.34,393.52L647.2,393.82L650.07,396.17L652.93,397.42L655.8,397.77L661.52,397.03L664.39,398.53L667.25,400.11L670.11,400.02L675.84,401.36L678.7,398.67L681.57,400.53L684.43,399.13L687.3,399.25L690.16,396.48L693.02,396.09L695.89,394.56L698.75,391.76L701.61,391.18L704.48,388.05L707.34,388.79L710.2,382.52L713.07,380.39L715.93,373.79L718.8,372.85L724.52,363.14L727.39,360.86L730.25,356.22L733.11,355.1L738.84,349.74L741.71,351.95L747.43,353.46L750.3,356.23L753.16,358.61L756.02,362.61L761.75,369.95L764.61,372.14L767.48,375.26L770.34,383.85L773.21,389L776.07,396.91L778.93,399.62L781.8,406.21L790.39,419.05L793.25,420.76L801.84,430.21L804.71,435.08L807.57,438.17L810.44,438.45L813.3,443.04L816.16,445.39L819.03,447.05L821.89,447.05L824.76,447.84L827.62,449.86L836.21,448.11L839.07,448.6L844.8,448.59L847.66,449.37L853.39,450.16L856.26,451.82L859.12,453.36L861.98,455.82L867.71,458.79L870.57,458.82L876.3,461.27L879.17,460.46L890.62,461.26L893.48,460.87L899.21,459.41L902.07,458.16L904.94,457.24L907.8,457.23L910.67,456.52L913.53,457.5L916.39,458.08L919.26,459.46L933.58,458.76L936.44,459.18L967.94,460.24L970.8,459.74L979.39,460.87L982.26,460.58L987.99,461.52L990.85,461.6L996.58,462.05L999.44,462.84L1005.17,462.56L1008.03,463.24L1013.76,463.67L1016.62,463.58L1025.21,463.06L1028.08,463.31L1036.67,462.95L1039.53,462.98L1045.26,463.96L1048.13,465.44L1065.31,465.09L1068.17,466.6L1079.63,468.34L1082.49,469.55L1093.95,473.12L1096.81,473.11L1105.4,475.22L1108.26,475.84L1122.58,479.65L1125.45,480.08L1136.9,483.68L1139.76,484.37L1145.49,485.38L1148.35,485.58L1151.22,486.42L1154.08,486.46L1159.81,486.55L1162.67,487.22L1174.13,489.23L1176.99,488.21L1194.17,487.25L1197.04,486.52L1202.76,485.07L1205.63,484.51L1211.36,484.65L1214.22,486.11L1225.67,488.46L1228.54,487.61L1231.4,489.43L1234.27,487.39L1242.86,489.51L1245.72,489.1L1248.58,486.96L1251.45,486.25L1254.31,486.95L1257.18,489.1L1265.77,490.95L1268.63,493.39L1274.36,496.63L1277.22,498.01L1285.81,504.78L1288.68,506.32L1294.4,511.78L1297.27,513.59L1305.86,521.5L1308.72,522.6L1323.04,534.8L1325.91,536.33L1328.77,539.66L1331.63,541.09L1334.5,542.56L1337.36,543.06L1340.22,544.59L1343.09,544.75L1345.95,546.75L1348.82,545.42L1354.54,546.44L1357.41,549.23L1371.73,552.89L1374.59,552.3L1377.45,552.13L1380.32,553.44L1386.04,552.51L1388.91,555.17L1394.63,552.53L1397.5,552.1L1400.36,552.6L1403.23,551.72L1408.95,550.39L1411.82,550.48L1414.68,550.84L1417.54,550.01L1420.41,551.6L1423.27,550.97L1426.14,549.87L1429,550.34" style="vector-effect: none; fill: none; stroke: rgb(255, 161, 90); stroke-opacity: 1; stroke-width: 3px; opacity: 1;"/></g><g class="points"/><g class="text"/></g></g></g></g><path class="xlines-above crisp" d="M0,0" style="fill: none;"/><path class="ylines-above crisp" d="M0,0" style="fill: none;"/><g class="overlines-above"/><g class="xaxislayer-above"><g class="xtick"><text text-anchor="middle" x="0" y="841" transform="translate(231.33,0)" style="font-family: 'Open Sans', verdana, arial, sans-serif; font-size: 20px; fill: rgb(42, 63, 95); fill-opacity: 1; white-space: pre; opacity: 1;">1</text></g><g class="xtick"><text text-anchor="middle" x="0" y="841" style="font-family: 'Open Sans', verdana, arial, sans-serif; font-size: 20px; fill: rgb(42, 63, 95); fill-opacity: 1; white-space: pre; opacity: 1;" transform="translate(374.51,0)">2</text></g><g class="xtick"><text text-anchor="middle" x="0" y="841" style="font-family: 'Open Sans', verdana, arial, sans-serif; font-size: 20px; fill: rgb(42, 63, 95); fill-opacity: 1; white-space: pre; opacity: 1;" transform="translate(517.7,0)">3</text></g><g class="xtick"><text text-anchor="middle" x="0" y="841" style="font-family: 'Open Sans', verdana, arial, sans-serif; font-size: 20px; fill: rgb(42, 63, 95); fill-opacity: 1; white-space: pre; opacity: 1;" transform="translate(660.88,0)">4</text></g><g class="xtick"><text text-anchor="middle" x="0" y="841" style="font-family: 'Open Sans', verdana, arial, sans-serif; font-size: 20px; fill: rgb(42, 63, 95); fill-opacity: 1; white-space: pre; opacity: 1;" transform="translate(804.07,0)">5</text></g><g class="xtick"><text text-anchor="middle" x="0" y="841" style="font-family: 'Open Sans', verdana, arial, sans-serif; font-size: 20px; fill: rgb(42, 63, 95); fill-opacity: 1; white-space: pre; opacity: 1;" transform="translate(947.26,0)">6</text></g><g class="xtick"><text text-anchor="middle" x="0" y="841" style="font-family: 'Open Sans', verdana, arial, sans-serif; font-size: 20px; fill: rgb(42, 63, 95); fill-opacity: 1; white-space: pre; opacity: 1;" transform="translate(1090.44,0)">7</text></g><g class="xtick"><text text-anchor="middle" x="0" y="841" style="font-family: 'Open Sans', verdana, arial, sans-serif; font-size: 20px; fill: rgb(42, 63, 95); fill-opacity: 1; white-space: pre; opacity: 1;" transform="translate(1233.63,0)">8</text></g><g class="xtick"><text text-anchor="middle" x="0" y="841" style="font-family: 'Open Sans', verdana, arial, sans-serif; font-size: 20px; fill: rgb(42, 63, 95); fill-opacity: 1; white-space: pre; opacity: 1;" transform="translate(1376.81,0)">9</text></g><g class="xtick"><text text-anchor="middle" x="0" y="841" style="font-family: 'Open Sans', verdana, arial, sans-serif; font-size: 20px; fill: rgb(42, 63, 95); fill-opacity: 1; white-space: pre; opacity: 1;" transform="translate(1520,0)">10</text></g></g><g class="yaxislayer-above"><g class="ytick"><text text-anchor="end" x="90" y="7" transform="translate(0,775.03)" style="font-family: 'Open Sans', verdana, arial, sans-serif; font-size: 20px; fill: rgb(42, 63, 95); fill-opacity: 1; white-space: pre; opacity: 1;">−0.2</text></g><g class="ytick"><text text-anchor="end" x="90" y="7" style="font-family: 'Open Sans', verdana, arial, sans-serif; font-size: 20px; fill: rgb(42, 63, 95); fill-opacity: 1; white-space: pre; opacity: 1;" transform="translate(0,687.26)">−0.1</text></g><g class="ytick"><text text-anchor="end" x="90" y="7" style="font-family: 'Open Sans', verdana, arial, sans-serif; font-size: 20px; fill: rgb(42, 63, 95); fill-opacity: 1; white-space: pre; opacity: 1;" transform="translate(0,599.48)">0</text></g><g class="ytick"><text text-anchor="end" x="90" y="7" style="font-family: 'Open Sans', verdana, arial, sans-serif; font-size: 20px; fill: rgb(42, 63, 95); fill-opacity: 1; white-space: pre; opacity: 1;" transform="translate(0,511.7)">0.1</text></g><g class="ytick"><text text-anchor="end" x="90" y="7" style="font-family: 'Open Sans', verdana, arial, sans-serif; font-size: 20px; fill: rgb(42, 63, 95); fill-opacity: 1; white-space: pre; opacity: 1;" transform="translate(0,423.93)">0.2</text></g><g class="ytick"><text text-anchor="end" x="90" y="7" style="font-family: 'Open Sans', verdana, arial, sans-serif; font-size: 20px; fill: rgb(42, 63, 95); fill-opacity: 1; white-space: pre; opacity: 1;" transform="translate(0,336.15)">0.3</text></g><g class="ytick"><text text-anchor="end" x="90" y="7" style="font-family: 'Open Sans', verdana, arial, sans-serif; font-size: 20px; fill: rgb(42, 63, 95); fill-opacity: 1; white-space: pre; opacity: 1;" transform="translate(0,248.37)">0.4</text></g><g class="ytick"><text text-anchor="end" x="90" y="7" style="font-family: 'Open Sans', verdana, arial, sans-serif; font-size: 20px; fill: rgb(42, 63, 95); fill-opacity: 1; white-space: pre; opacity: 1;" transform="translate(0,160.59)">0.5</text></g></g><g class="overaxes-above"/></g></g><g class="polarlayer"/><g class="smithlayer"/><g class="ternarylayer"/><g class="geolayer"/><g class="funnelarealayer"/><g class="pielayer"/><g class="iciclelayer"/><g class="treemaplayer"/><g class="sunburstlayer"/><g class="glimages"/><defs id="topdefs-b72cca"><g class="clips"/><clipPath id="legendb72cca"><rect width="84" height="181" x="0" y="0"/></clipPath></defs><g class="layer-above"><g class="imagelayer"/><g class="shapelayer"/></g><g class="infolayer"><g class="legend" pointer-events="all" transform="translate(252.477,110.08000000000001)"><rect class="bg" shape-rendering="crispEdges" width="84" height="181" x="0" y="0" style="stroke: rgb(68, 68, 68); stroke-opacity: 1; fill: rgb(255, 255, 255); fill-opacity: 1; stroke-width: 0px;"/><g class="scrollbox" transform="" clip-path="url(#legendb72cca)"><g class="groups"><g class="traces" transform="translate(0,22.1)" style="opacity: 1;"><text class="legendtext" text-anchor="start" x="40" y="9.360000000000001" style="font-family: 'Open Sans', verdana, arial, sans-serif; font-size: 24px; fill: rgb(42, 63, 95); fill-opacity: 1; white-space: pre;">1m</text><g class="layers" style="opacity: 1;"><g class="legendfill"/><g class="legendlines"><path class="js-line" d="M5,0h30" style="fill: none; stroke: rgb(99, 110, 250); stroke-opacity: 1; stroke-width: 3px;"/></g><g class="legendsymbols"><g class="legendpoints"/></g></g><rect class="legendtoggle" x="0" y="-17.1" width="78.609375" height="34.2" style="fill: rgb(0, 0, 0); fill-opacity: 0;"/></g><g class="traces" transform="translate(0,56.300000000000004)" style="opacity: 1;"><text class="legendtext" text-anchor="start" x="40" y="9.360000000000001" style="font-family: 'Open Sans', verdana, arial, sans-serif; font-size: 24px; fill: rgb(42, 63, 95); fill-opacity: 1; white-space: pre;">2m</text><g class="layers" style="opacity: 1;"><g class="legendfill"/><g class="legendlines"><path class="js-line" d="M5,0h30" style="fill: none; stroke: rgb(239, 85, 59); stroke-opacity: 1; stroke-width: 3px;"/></g><g class="legendsymbols"><g class="legendpoints"/></g></g><rect class="legendtoggle" x="0" y="-17.1" width="78.609375" height="34.2" style="fill: rgb(0, 0, 0); fill-opacity: 0;"/></g><g class="traces" transform="translate(0,90.5)" style="opacity: 1;"><text class="legendtext" text-anchor="start" x="40" y="9.360000000000001" style="font-family: 'Open Sans', verdana, arial, sans-serif; font-size: 24px; fill: rgb(42, 63, 95); fill-opacity: 1; white-space: pre;">3m</text><g class="layers" style="opacity: 1;"><g class="legendfill"/><g class="legendlines"><path class="js-line" d="M5,0h30" style="fill: none; stroke: rgb(0, 204, 150); stroke-opacity: 1; stroke-width: 3px;"/></g><g class="legendsymbols"><g class="legendpoints"/></g></g><rect class="legendtoggle" x="0" y="-17.1" width="78.609375" height="34.2" style="fill: rgb(0, 0, 0); fill-opacity: 0;"/></g><g class="traces" transform="translate(0,124.70000000000002)" style="opacity: 1;"><text class="legendtext" text-anchor="start" x="40" y="9.360000000000001" style="font-family: 'Open Sans', verdana, arial, sans-serif; font-size: 24px; fill: rgb(42, 63, 95); fill-opacity: 1; white-space: pre;">4m</text><g class="layers" style="opacity: 1;"><g class="legendfill"/><g class="legendlines"><path class="js-line" d="M5,0h30" style="fill: none; stroke: rgb(171, 99, 250); stroke-opacity: 1; stroke-width: 3px;"/></g><g class="legendsymbols"><g class="legendpoints"/></g></g><rect class="legendtoggle" x="0" y="-17.1" width="78.609375" height="34.2" style="fill: rgb(0, 0, 0); fill-opacity: 0;"/></g><g class="traces" transform="translate(0,158.9)" style="opacity: 1;"><text class="legendtext" text-anchor="start" x="40" y="9.360000000000001" style="font-family: 'Open Sans', verdana, arial, sans-serif; font-size: 24px; fill: rgb(42, 63, 95); fill-opacity: 1; white-space: pre;">5m</text><g class="layers" style="opacity: 1;"><g class="legendfill"/><g class="legendlines"><path class="js-line" d="M5,0h30" style="fill: none; stroke: rgb(255, 161, 90); stroke-opacity: 1; stroke-width: 3px;"/></g><g class="legendsymbols"><g class="legendpoints"/></g></g><rect class="legendtoggle" x="0" y="-17.1" width="78.609375" height="34.2" style="fill: rgb(0, 0, 0); fill-opacity: 0;"/></g></g></g><rect class="scrollbar" rx="20" ry="3" width="0" height="0" x="0" y="0" style="fill: rgb(128, 139, 164); fill-opacity: 1;"/></g><g class="g-gtitle"><text class="gtitle" x="800" y="50" text-anchor="middle" dy="0.7em" style="opacity: 1; font-family: 'Open Sans', verdana, arial, sans-serif; font-size: 20px; fill: rgb(42, 63, 95); fill-opacity: 1; font-weight: bold; white-space: pre;">No Yielding, Back and eHMI</text></g><g class="g-xtitle"><text class="xtitle" x="805.5" y="873.5" text-anchor="middle" style="opacity: 1; font-family: 'Open Sans', verdana, arial, sans-serif; font-size: 20px; fill: rgb(42, 63, 95); fill-opacity: 1; white-space: pre;">Time (in seconds)</text></g><g class="g-ytitle" transform="translate(0.578125,0)"><text class="ytitle" transform="rotate(-90,19.421875,460)" x="19.421875" y="460" text-anchor="middle" style="opacity: 1; font-family: 'Open Sans', verdana, arial, sans-serif; font-size: 20px; fill: rgb(42, 63, 95); fill-opacity: 1; white-space: pre;">Yaw Angle (in radians)</text></g></g></svg>