<svg class="main-svg" xmlns="http://www.w3.org/2000/svg" xmlns:xlink="http://www.w3.org/1999/xlink" width="4800" height="2700" style="" viewBox="0 0 1600 900"><rect x="0" y="0" width="1600" height="900" style="fill: rgb(255, 255, 255); fill-opacity: 1;"/><defs id="defs-0f697a"><g class="clips"><clipPath id="clip0f697axyplot" class="plotclip"><rect width="1429" height="720"/></clipPath><clipPath class="axesclip" id="clip0f697ax"><rect x="91" y="0" width="1429" height="900"/></clipPath><clipPath class="axesclip" id="clip0f697ay"><rect x="0" y="100" width="1600" height="720"/></clipPath><clipPath class="axesclip" id="clip0f697axy"><rect x="91" y="100" width="1429" height="720"/></clipPath></g><g class="gradients"/><g class="patterns"/></defs><g class="bglayer"><rect class="bg" x="91" y="100" width="1429" height="720" style="fill: rgb(229, 236, 246); fill-opacity: 1; stroke-width: 0;"/></g><g class="layer-below"><g class="imagelayer"/><g class="shapelayer"/></g><g class="cartesianlayer"><g class="subplot xy"><g class="layer-subplot"><g class="shapelayer"/><g class="imagelayer"/></g><g class="minor-gridlayer"><g class="x"/><g class="y"/></g><g class="gridlayer"><g class="x"><path class="xgrid crisp" transform="translate(248.37,0)" d="M0,100v720" style="stroke: rgb(255, 255, 255); stroke-opacity: 1; stroke-width: 1px;"/><path class="xgrid crisp" transform="translate(407.32,0)" d="M0,100v720" style="stroke: rgb(255, 255, 255); stroke-opacity: 1; stroke-width: 1px;"/><path class="xgrid crisp" transform="translate(566.28,0)" d="M0,100v720" style="stroke: rgb(255, 255, 255); stroke-opacity: 1; stroke-width: 1px;"/><path class="xgrid crisp" transform="translate(725.23,0)" d="M0,100v720" style="stroke: rgb(255, 255, 255); stroke-opacity: 1; stroke-width: 1px;"/><path class="xgrid crisp" transform="translate(884.18,0)" d="M0,100v720" style="stroke: rgb(255, 255, 255); stroke-opacity: 1; stroke-width: 1px;"/><path class="xgrid crisp" transform="translate(1043.1399999999999,0)" d="M0,100v720" style="stroke: rgb(255, 255, 255); stroke-opacity: 1; stroke-width: 1px;"/><path class="xgrid crisp" transform="translate(1202.09,0)" d="M0,100v720" style="stroke: rgb(255, 255, 255); stroke-opacity: 1; stroke-width: 1px;"/><path class="xgrid crisp" transform="translate(1361.05,0)" d="M0,100v720" style="stroke: rgb(255, 255, 255); stroke-opacity: 1; stroke-width: 1px;"/></g><g class="y"><path class="ygrid crisp" transform="translate(0,809.59)" d="M91,0h1429" style="stroke: rgb(255, 255, 255); stroke-opacity: 1; stroke-width: 1px;"/><path class="ygrid crisp" transform="translate(0,714.61)" d="M91,0h1429" style="stroke: rgb(255, 255, 255); stroke-opacity: 1; stroke-width: 1px;"/><path class="ygrid crisp" transform="translate(0,619.63)" d="M91,0h1429" style="stroke: rgb(255, 255, 255); stroke-opacity: 1; stroke-width: 1px;"/><path class="ygrid crisp" transform="translate(0,524.65)" d="M91,0h1429" style="stroke: rgb(255, 255, 255); stroke-opacity: 1; stroke-width: 1px;"/><path class="ygrid crisp" transform="translate(0,334.69)" d="M91,0h1429" style="stroke: rgb(255, 255, 255); stroke-opacity: 1; stroke-width: 1px;"/><path class="ygrid crisp" transform="translate(0,239.71)" d="M91,0h1429" style="stroke: rgb(255, 255, 255); stroke-opacity: 1; stroke-width: 1px;"/><path class="ygrid crisp" transform="translate(0,144.73)" d="M91,0h1429" style="stroke: rgb(255, 255, 255); stroke-opacity: 1; stroke-width: 1px;"/></g></g><g class="zerolinelayer"><path class="yzl zl crisp" transform="translate(0,429.67)" d="M91,0h1429" style="stroke: rgb(255, 255, 255); stroke-opacity: 1; stroke-width: 2px;"/></g><g class="layer-between"><g class="shapelayer"/><g class="imagelayer"/></g><path class="xlines-below"/><path class="ylines-below"/><g class="overlines-below"/><g class="xaxislayer-below"/><g class="yaxislayer-below"/><g class="overaxes-below"/><g class="overplot"><g class="xy" transform="translate(91,100)" clip-path="url(#clip0f697axyplot)"><g class="scatterlayer mlayer"><g class="trace scatter trace2638ad" style="stroke-miterlimit: 2; opacity: 1;"><g class="fills"/><g class="errorbars"/><g class="lines"><path class="js-line" d="M0,392.79L3.18,391.34L4.77,388.72L6.36,385.91L7.95,385.79L11.13,373.56L12.72,370.13L14.31,366.69L15.9,361.13L17.49,358.96L19.08,354.03L20.67,351.23L22.26,345.15L23.85,343.27L25.43,338.07L28.61,329.49L30.2,325.34L31.79,323.27L33.38,319.42L38.15,304.5L39.74,298.44L49.28,242.46L50.87,236.85L54.05,226.9L55.64,221.96L57.22,217.46L58.81,210.23L63.58,200L65.17,197.47L68.35,187.89L69.94,186.22L71.53,185.53L73.12,178.23L77.89,166.09L79.48,161.58L82.66,153.95L84.25,151.78L87.43,149.28L89.02,149.05L90.61,145.38L92.19,145.66L93.79,144.56L95.37,142.37L96.96,140.93L98.55,135.9L100.14,135.22L101.73,130.59L104.91,121.79L106.5,114.08L108.09,112.24L109.68,101.04L111.27,95.59L112.86,81.95L114.45,82.07L116.04,75.16L117.63,78.45L119.22,76.8L123.99,86.46L125.58,91.05L133.52,114.45L135.11,120.39L136.7,125.13L138.29,133.77L139.88,139.36L141.47,148.95L146.24,164.59L147.83,168.06L151.01,176.28L152.6,180.68L155.78,183.38L157.37,184.95L158.96,189.74L160.55,191.45L162.14,191.71L163.73,201.74L166.9,209.98L168.49,212.69L171.67,232.73L173.26,229.51L174.85,230.69L176.44,233.24L178.03,235.35L179.62,235.04L182.8,233.47L184.39,231.96L185.98,231.89L187.57,230.83L190.75,231.4L192.34,234.08L193.93,236.89L195.52,238.12L198.69,242.54L200.28,244.43L201.87,245.86L203.46,249.65L206.64,253.96L208.23,254.31L209.82,254.54L211.41,256.71L213,260.92L214.59,267.45L216.18,268.13L217.77,273.36L219.36,279.28L220.95,273.21L222.54,274.91L224.13,278.7L225.72,283.32L227.31,285.25L230.49,286.41L232.08,288.31L233.66,290.23L235.25,289.77L236.84,295.31L238.43,297.19L243.2,304.27L244.79,304.21L246.38,304.44L247.97,305.91L251.15,311.61L252.74,313.27L254.33,315.07L255.92,315.19L259.1,315.04L260.69,316.19L262.28,317.2L263.87,319.14L267.04,321.28L268.63,323.53L271.81,331.02L273.4,332.47L274.99,331.9L276.58,332.51L279.76,332.51L281.35,331.43L286.12,331.45L287.71,330.22L290.89,330.13L292.48,332.49L297.25,336.42L298.84,337.15L303.6,341.19L305.19,337.69L306.78,338.2L308.37,337.47L311.55,339.01L313.14,339.27L314.73,340.3L316.32,339.93L317.91,340.72L319.5,340.65L324.27,341.63L325.86,341.34L329.04,340.06L330.63,340.16L333.81,341.77L335.39,343.42L338.57,344.11L340.16,345.79L344.93,349.76L346.52,350.18L351.29,350.34L352.88,349.23L354.47,349.23L356.06,348.18L360.83,339.31L362.42,337.52L364.01,336.47L365.6,336.84L370.36,340.3L371.95,340.25L373.54,340.22L375.13,341.38L376.72,341.13L378.31,341.86L384.67,348.33L386.26,351.68L392.62,361.81L394.21,367.18L397.39,372.05L398.98,372.42L400.57,374.89L402.16,375.88L403.75,376.75L405.33,378.66L408.51,379.05L410.1,378.79L416.46,376.92L418.05,376.46L421.23,375.65L422.82,374.55L426,372.48L427.59,369.89L432.36,368.99L433.95,367.42L445.07,361.48L446.66,362.01L449.84,361.78L451.43,361.11L456.2,359.96L457.79,359.83L470.51,362.41L472.1,361.75L475.28,360.28L476.86,360.67L478.45,359.79L480.04,359.92L483.22,358.83L484.81,357.34L494.35,353.82L495.94,354.1L505.48,353.76L507.07,354.25L510.24,354.04L511.83,354.53L522.96,352.84L524.55,352.67L532.5,355.03L534.09,354.72L543.63,355.22L545.21,354.78L548.39,354.22L549.98,354.07L554.75,353.92L556.34,353.82L562.7,351.82L564.29,351.33L570.65,350.92L572.24,350.56L583.36,350.72L584.95,350.27L588.13,349.57L589.72,349.96L592.9,349.78L594.49,348.73L596.08,348.59L597.67,349.82L602.44,350.28L604.03,349.86L610.39,348.33L611.98,347.42L618.33,348.73L619.92,349L627.87,348.11L629.46,348.89L631.05,348.55L632.64,349.7L637.41,350.81L639,351.76L642.18,352.7L643.77,353.25L648.53,356.7L650.12,356.38L654.89,357.96L656.48,357.21L658.07,359L659.66,358.17L661.25,357.92L662.84,359.03L664.43,358.75L666.02,360.54L667.61,359.32L669.2,360.69L670.79,360.29L672.38,360.92L677.15,360.43L678.74,360.2L680.33,359.32L681.91,360.85L685.09,360.58L686.68,362.13L688.27,362.14L689.86,363.41L693.04,363.45L694.63,365.13L697.81,364.79L699.4,366L700.99,365.33L702.58,366.99L705.76,367.35L707.35,368.82L708.94,369.44L710.53,369.25L712.12,370.92L713.71,370.55L715.29,370.38L716.88,371.32L726.42,372.28L728.01,372.14L731.19,372.69L732.78,372.83L737.55,374.54L739.14,374.07L743.91,373.6L745.5,372.57L748.68,372.36L750.27,371.78L753.44,372.19L755.03,371.63L756.62,372.12L758.21,371.62L764.57,368.71L766.16,367.78L769.34,366.78L770.93,366.66L782.06,364.23L783.65,364.39L786.82,364.6L788.41,363.66L794.77,362.31L796.36,361.55L802.72,359.71L804.31,358.13L807.49,357.73L809.08,358.18L812.26,358.87L813.85,359.05L818.62,358.71L820.21,359.09L824.97,358.16L826.56,357.99L829.74,359.07L831.33,359.23L836.1,359.81L837.69,359.96L848.82,361.48L850.41,360.98L852,360.26L853.59,360.75L863.12,361.36L864.71,362L874.25,362.83L875.84,362.1L886.97,362.25L888.56,362.42L893.32,362.02L894.91,362.09L902.86,361.89L904.45,361.15L910.81,361.41L912.4,361.57L920.35,360.83L921.94,360.29L934.65,357.04L936.24,357.02L955.32,352.26L956.91,352.19L964.85,352.6L966.44,352.39L971.21,352.34L972.8,351.93L977.57,350.57L979.16,349.78L982.34,348.26L983.93,347.86L990.29,346.6L991.88,346.07L998.23,343.77L999.82,343.84L1001.41,343.1L1003,343.24L1012.54,341.54L1014.13,341.52L1025.26,340.17L1026.85,340.32L1031.61,340.09L1033.2,339.53L1039.56,339.44L1041.15,338.86L1044.33,336.68L1045.92,336.49L1049.1,335.36L1050.69,336.56L1058.64,334.65L1060.23,334.12L1061.82,335.07L1063.4,334.37L1066.58,333.29L1068.17,332.91L1082.48,327.97L1084.07,327.66L1087.25,325.98L1088.84,325.48L1092.02,325.4L1093.61,324.96L1103.14,323.65L1104.73,324.37L1117.45,323.3L1119.04,322.8L1120.63,320.91L1122.22,320.95L1130.17,318.57L1131.76,317.41L1133.35,317.09L1134.93,315.73L1138.11,314.46L1139.7,309.86L1141.29,309.76L1142.88,306.31L1144.47,306.17L1146.06,301.62L1149.24,301.14L1150.83,297.62L1152.42,298.41L1154.01,294.85L1155.6,295.07L1157.19,292.62L1160.37,292.57L1161.96,293.33L1173.08,293.72L1174.67,296.21L1177.85,296.47L1179.44,297.78L1181.03,297.32L1182.62,300.68L1185.8,300.31L1187.39,301.96L1196.93,298.78L1198.52,297.25L1206.46,296.2L1208.05,295.72L1214.41,295.89L1216,295.33L1217.59,295.75L1219.18,295.03L1220.77,294.72L1222.36,297.07L1225.54,298.52L1227.13,297.57L1231.9,298.75L1233.49,298.35L1235.08,298.29L1236.67,299.5L1243.02,297.28L1244.61,297.04L1247.79,297.25L1249.38,298.58L1250.97,298.14L1252.56,299.68L1255.74,299.2L1257.33,298.97L1262.1,300.48L1263.69,299.75L1265.28,298.17L1266.87,298.26L1268.46,297.76L1270.05,296.12L1273.22,293.79L1274.81,292.58L1276.4,291.33L1277.99,291.1L1279.58,291.86L1281.17,291.65L1284.35,292.5L1285.94,292.3L1289.12,290.86L1290.71,291.52L1293.89,289.17L1295.48,288.62L1297.07,288.64L1298.66,285.48L1305.02,282.08L1306.6,282.53L1312.96,285.89L1314.55,285.87L1319.32,288.81L1320.91,289.49L1325.68,289.9L1327.27,289.18L1330.45,288.32L1332.04,288.55L1333.63,289.3L1335.22,289.14L1338.4,287.61L1339.99,287.88L1341.57,286.72L1343.16,286.91L1344.75,286.36L1346.34,286.99L1354.29,289.68L1355.88,289.65L1362.24,287.62L1363.83,287.9L1368.6,288.86L1370.19,291.61L1371.78,292.49L1373.37,294.47L1381.31,309.04L1382.9,309.65L1386.08,312.39L1387.67,311.8L1390.85,313.68L1392.44,314.4L1394.03,314.37L1395.62,315.72L1397.21,317.24L1398.8,320.31L1401.98,325.63L1403.57,328.86L1405.16,331.19L1406.75,335.84L1409.93,342.07L1411.52,348.51L1416.28,366.16L1417.87,368.51L1424.23,379.24L1425.82,380.86L1427.41,381.44L1429,383.99" style="vector-effect: none; fill: none; stroke: rgb(99, 110, 250); stroke-opacity: 1; stroke-width: 3px; opacity: 1;"/></g><g class="points"/><g class="text"/></g><g class="trace scatter trace7511c8" style="stroke-miterlimit: 2; opacity: 1;"><g class="fills"/><g class="errorbars"/><g class="lines"><path class="js-line" d="M0,354.82L7.95,347L9.54,346.67L14.31,345.63L15.9,345.97L20.67,343.44L22.26,342.04L23.85,340.69L25.44,337.98L28.61,331.92L30.2,328.54L34.97,319.26L36.56,314.55L38.15,313.15L39.74,309.05L42.92,306.12L44.51,302.6L46.1,300.52L47.69,296.13L49.28,293.8L50.87,288.73L52.46,287.36L54.05,286.99L55.64,286.9L57.23,287.85L60.41,286.59L61.99,286.87L63.58,286.28L65.17,287.75L68.35,286.82L69.94,284.94L71.53,283.4L73.12,279.67L74.71,277.61L76.3,278.51L77.89,277.09L79.48,278.33L81.07,278.43L82.66,279.41L84.25,281.72L85.84,281.56L87.43,281.59L89.02,283.15L90.61,274.11L92.2,274.91L95.38,270.8L96.96,269.46L98.55,269.54L100.14,268.63L101.73,267.37L103.32,268.12L104.91,266.5L106.5,267.31L108.09,269.31L109.68,267.73L111.27,267.11L112.86,270.54L116.04,276.71L117.63,278.16L119.22,280.88L120.81,279.8L122.4,280.94L123.99,283.9L125.58,285.77L127.17,285.71L128.76,285.21L130.35,288.93L133.52,304.72L135.11,318.71L136.7,323.57L138.29,320.1L141.47,307.78L143.06,301.66L144.65,297.94L146.24,285.35L151.01,278.16L152.6,273.87L155.78,270L157.37,265.57L158.96,268.87L160.55,264.36L162.14,261.72L163.73,260.81L165.32,256.89L166.9,264.68L168.49,269.09L170.08,268.56L171.67,271.84L173.26,272.38L174.85,280.51L176.44,283.48L178.03,290.29L179.62,290.76L181.21,291.12L182.8,300.42L184.39,299.85L185.98,298.3L187.57,295.86L189.16,297.69L190.75,298.83L192.34,296.59L193.93,295.64L195.52,292.88L198.7,289.15L200.29,288.3L201.87,290.35L203.46,289.48L206.64,287.88L208.23,286.28L211.41,280.46L213,282.08L216.18,284.06L217.77,282.12L220.95,282.94L222.54,281.67L224.13,280.43L225.72,277.69L230.49,268.69L232.08,265.97L233.67,266.41L235.26,268.04L236.84,268.72L238.43,272.2L240.02,274.49L241.61,278.12L243.2,276.58L244.79,277.86L249.56,279.86L251.15,278.96L254.33,276.25L255.92,275.61L257.51,272.33L259.1,272.45L260.69,270.84L262.28,271.36L263.87,271.14L265.46,272.04L268.64,273.75L270.23,273.29L271.81,274.38L273.4,273.79L279.76,272.09L281.35,270.94L284.53,269.14L286.12,268.63L289.3,265.78L290.89,264.1L294.07,264.09L295.66,264.79L297.25,266.63L298.84,266.8L303.61,265.49L305.19,264.37L308.37,262.92L309.96,262.74L316.32,259.8L317.91,257.69L319.5,257.83L321.09,256.94L324.27,258.76L325.86,258.45L327.45,259.32L329.04,259.22L330.63,260.28L332.22,259.22L335.4,260.75L336.99,262.36L340.16,264.85L341.75,264.65L344.93,265.56L346.52,266.19L351.29,248.43L352.88,244.6L354.47,240.03L356.06,237.9L364.01,237L365.6,238.1L368.78,239.39L370.37,239.82L375.13,240.06L376.72,239.23L383.08,239.13L384.67,240.6L387.85,243.11L389.44,246.31L392.62,248.25L394.21,247.6L397.39,241.59L398.98,231.7L402.16,224.41L403.75,225.46L410.1,230.91L411.69,231.68L414.87,232.72L416.46,234.56L418.05,235.01L419.64,236.67L424.41,238.96L426,239.19L427.59,238.91L429.18,240.99L437.13,243.48L438.72,244.4L446.66,250.57L448.25,252.4L449.84,254.04L451.43,257.19L456.2,259.36L457.79,261.22L465.74,267.76L467.33,268.06L476.87,276.02L478.46,276.42L502.3,280.42L503.89,282.2L508.66,284.47L510.25,284.43L516.6,285.07L518.19,285.65L524.55,286.37L526.14,286.86L534.09,287.91L535.68,287.31L538.86,287.17L540.45,288.64L543.63,288.93L545.22,289.77L549.98,291.67L551.57,292.61L554.75,294.03L556.34,293.66L557.93,292.97L559.52,293.3L565.88,293.2L567.47,292.54L570.65,291.89L572.24,292.24L575.42,292.87L577.01,292.39L584.95,292.08L586.54,290.42L588.13,290.05L589.72,288.9L591.31,288.37L592.9,288.7L597.67,289.42L599.26,289.73L602.44,288.96L604.03,289.4L605.62,288.47L607.21,288.41L608.8,288.07L610.39,288.75L611.98,289.31L613.56,288.02L616.75,288.08L618.33,287.48L621.51,287.58L623.1,288.6L626.28,289.56L627.87,289.93L632.64,291.3L634.23,292.98L639,292.68L640.59,292.03L642.18,291.41L643.77,289.35L650.12,286.54L651.71,287.41L654.89,288.17L656.48,289.17L666.02,301.04L667.61,301.71L669.2,302.93L670.79,303.04L672.38,301.66L673.97,301.29L681.92,294.17L683.51,293.4L688.27,293.25L689.86,293.78L694.63,299.32L696.22,300.01L700.99,301.42L702.58,300.92L704.17,299.26L705.76,295.53L708.94,291.85L710.53,292.02L712.12,291.4L713.71,292.28L715.3,292.51L716.89,293.76L718.48,295.07L720.07,297.68L726.42,306.85L728.01,309.79L732.78,311.67L734.37,312.01L737.55,311.78L739.14,312.41L743.91,314.2L745.5,315.96L751.86,319.6L753.44,321.65L755.03,322.34L756.63,323.91L759.8,324.19L761.39,323.08L762.98,322.87L764.57,320.87L769.34,317.42L770.93,316.17L774.11,314.82L775.7,314.85L778.88,315.96L780.47,316.63L783.65,318.7L785.24,319.69L790,320.72L791.6,320.44L799.54,314.18L801.13,314.06L805.9,312.88L807.49,312.66L812.26,312.71L813.85,313.9L820.21,315.11L821.8,314.92L824.97,313.3L826.56,312.17L829.74,308.79L831.33,308.12L834.51,305.81L836.1,305.33L839.28,303.31L840.87,303.53L845.64,304.37L847.23,305.61L852,303.79L853.59,303.44L855.18,302.7L856.76,303.23L864.71,299.57L866.3,299.56L875.84,297.78L877.43,297.61L879.02,298.36L880.61,297.4L882.2,298.09L883.79,297.88L885.38,297.1L886.97,295.37L888.56,294.17L890.15,291.22L893.32,282.76L894.92,280.21L902.86,270.63L904.45,269.96L906.04,267.05L907.63,266.42L909.22,265.4L910.81,262.96L912.4,262.9L913.99,260.2L915.58,260.39L917.17,258L920.35,254.25L921.94,253.71L923.53,252.26L925.12,249.73L931.47,241.73L933.06,241.26L936.24,238.24L937.83,238.08L939.42,236.25L941.01,236.56L942.6,235.32L944.19,235.2L945.78,233.85L947.37,233.9L952.14,233.78L953.73,234.44L955.32,234.28L956.91,235.99L958.5,236.51L960.09,239.33L963.26,243.5L964.85,246.83L969.62,256.15L971.21,260.36L972.8,262.96L974.39,267.47L975.98,269.38L977.57,272.65L980.75,278.26L982.34,284.07L983.93,287.73L985.52,293.56L987.11,296.2L988.7,301.53L990.29,303.85L991.88,304.19L993.47,307.74L995.06,308.47L998.24,310.55L999.83,314.52L1003,319.24L1004.59,323.76L1006.18,326.16L1007.77,330.29L1009.36,332.46L1010.95,336.98L1018.9,352.48L1020.49,353.69L1022.08,355.84L1023.67,359.71L1026.85,360.48L1028.44,358.36L1030.03,358.27L1031.61,357.01L1034.8,355.49L1036.38,354.4L1039.56,350.76L1041.15,349.62L1042.74,348.91L1044.33,347.14L1045.92,346.37L1047.51,343.99L1052.28,340.32L1053.87,337.99L1057.05,335.55L1058.64,332.4L1061.82,326.94L1063.41,323.79L1069.76,313.75L1071.35,312.34L1072.94,310.2L1074.53,310.25L1076.12,308.97L1077.71,309.32L1079.3,309.4L1080.89,310.63L1087.25,319.22L1088.84,323.47L1098.38,339.68L1099.97,343.25L1101.55,345L1103.14,348.28L1109.5,353.99L1111.09,355.19L1114.27,356.33L1115.86,355.92L1120.63,352.95L1122.22,351.36L1123.81,350.44L1125.4,347.45L1126.99,345.78L1128.58,342.27L1133.35,336.19L1134.93,335.56L1139.7,333.33L1141.29,333.2L1146.06,333.29L1147.65,332.51L1152.42,330.15L1154.01,329.41L1157.19,328.58L1158.78,328.11L1166.73,328.61L1168.32,328.05L1171.49,327.24L1173.08,326.56L1174.67,325.73L1176.26,323.02L1181.03,317.85L1182.62,315.17L1185.8,312.21L1187.39,310.03L1192.16,307.84L1193.75,307.53L1195.34,309.22L1196.93,309.08L1198.52,308.6L1200.11,309.64L1204.87,305.95L1206.46,307.07L1209.64,304.91L1211.23,305.11L1214.41,302.7L1216,299.24L1217.59,298.13L1219.18,295.09L1225.54,290.22L1227.13,292.06L1231.9,291.62L1233.49,292.56L1235.08,293.64L1236.67,292.94L1239.85,293.69L1241.43,293.31L1243.02,293.08L1244.61,293.89L1249.38,299.42L1250.97,301L1254.15,305.71L1255.74,307.81L1258.92,310.47L1260.51,310.18L1263.69,308.63L1265.28,308.42L1266.87,308L1268.46,308.52L1270.05,307.89L1271.64,308.53L1274.82,311.41L1276.4,313.04L1282.76,318.1L1284.35,318.11L1285.94,318.14L1287.53,319.71L1289.12,319.38L1290.71,319.94L1292.3,318.38L1293.89,317.89L1298.66,314.84L1300.25,312.11L1301.84,310.66L1303.43,306L1305.02,303.24L1306.61,303.96L1308.2,304.85L1309.78,286.06L1311.37,280.68L1312.96,280.14L1314.55,279.48L1316.14,277.63L1319.32,275.98L1320.91,274.17L1325.68,272.78L1327.27,274.79L1328.86,276.22L1330.45,280.01L1336.81,296.93L1338.4,306.57L1339.99,309.96L1341.58,315.32L1346.34,321.34L1347.93,321.83L1351.11,323.59L1352.7,326.49L1355.88,329.26L1357.47,330.62L1362.24,332.94L1363.83,334.83L1367.01,337.31L1368.6,337.33L1370.19,338.36L1371.78,340.45L1373.37,341.69L1374.96,341.18L1378.14,342.67L1379.72,342.29L1381.31,342.28L1382.9,341.3L1384.49,342.55L1386.08,342.44L1387.67,342.49L1389.26,340.4L1390.85,339.04L1392.44,335.77L1394.03,335.56L1395.62,338.14L1397.21,335.13L1398.8,334.61L1400.39,333.46L1401.98,333.96L1403.57,329.16L1405.16,326.83L1408.34,322.4L1409.93,321.12L1411.52,319.48L1413.1,319.24L1416.28,317.46L1417.87,320.05L1419.46,322.85L1421.05,323.49L1422.64,325.57L1424.23,326.03L1425.82,325.25L1427.41,323.42L1429,322.39" style="vector-effect: none; fill: none; stroke: rgb(239, 85, 59); stroke-opacity: 1; stroke-width: 3px; opacity: 1;"/></g><g class="points"/><g class="text"/></g><g class="trace scatter tracedd8a13" style="stroke-miterlimit: 2; opacity: 1;"><g class="fills"/><g class="errorbars"/><g class="lines"><path class="js-line" d="M0,340.99L14.31,344.51L15.9,345.79L20.67,346.24L22.25,345.34L23.85,345.02L25.44,343.35L27.02,341.72L28.61,337.42L31.79,330.63L33.38,325.83L38.15,315.38L39.74,311.3L41.33,305.87L42.92,304.7L46.1,293.74L47.69,289.44L50.87,283.65L52.46,284.44L54.05,282.45L55.64,278.77L58.81,270.99L60.4,265.5L63.58,260.82L65.17,255.01L68.35,247.95L69.94,247.47L71.53,244.85L73.12,246.15L76.3,244.05L77.89,244.57L79.48,242.97L81.07,242.78L85.84,235.82L87.43,233.9L93.78,224.3L95.37,222.6L100.14,214.44L101.73,212.54L109.68,195.97L111.27,194.45L116.04,188.64L117.63,186.31L119.22,185.47L120.81,182.75L122.4,181.4L123.99,176.36L127.17,165.73L128.75,164.26L131.93,159.61L133.52,159.65L135.11,158.17L136.7,158.98L138.29,157.18L139.88,160.85L141.47,162.67L143.06,170.05L146.24,182.21L147.83,184.31L149.42,184.96L151.01,189.96L152.6,189.94L154.19,191.86L160.55,197.21L162.14,197.14L163.73,197.1L165.31,200.82L166.9,202.41L168.49,202.56L170.08,202.49L171.67,201.32L173.26,200.87L174.85,202.35L178.03,203.34L179.62,205.21L181.21,206.5L182.8,208.79L185.98,207.81L187.57,211.42L189.16,213.97L190.75,219.16L192.34,223.7L193.93,216.65L195.52,209.16L197.11,197.37L198.7,182.29L200.29,184.86L201.87,193.57L203.46,196.34L206.64,199.37L208.23,204.73L209.82,206.42L211.41,206.31L213,208.97L214.59,209.7L217.77,208.52L219.36,205.11L220.95,204.74L222.54,206.12L225.72,210.25L227.31,214.77L230.49,219.28L232.08,219.15L233.67,220.12L235.26,219.79L238.43,221.16L240.02,221.17L241.61,218.95L243.2,222.02L246.38,226.21L247.97,227.6L254.33,239.24L255.92,241.41L259.1,242.91L260.69,245.75L262.28,246.32L263.87,249.94L273.4,263.84L274.99,264.68L276.58,267.12L278.17,268.07L281.35,269.12L282.94,270.74L284.53,270.94L286.12,272.18L289.3,272.39L290.89,273.32L294.07,276.35L295.66,276.9L297.25,278.2L298.84,280.77L300.42,281.96L302.02,282.16L303.61,282.88L305.19,282.62L308.37,281.68L309.96,281.09L314.73,276.53L316.32,274.25L319.5,269.7L321.09,268.9L322.68,268.55L324.27,266.3L325.86,266.41L327.45,265.55L332.22,267.07L333.81,266.82L335.39,266.87L336.98,267.81L338.57,267.66L340.16,268.4L341.75,267.44L343.34,268.09L346.52,265.92L348.11,265.57L349.7,265.56L351.29,262.44L356.06,256.9L357.65,256.08L359.24,254.98L360.83,252.47L362.42,251.52L364.01,249.12L365.6,249.02L367.19,246.17L368.78,245.59L370.36,243.47L381.49,236.17L383.08,235.76L384.67,233.91L386.26,233.33L389.44,230.54L391.03,230.46L392.62,229.34L394.21,229.3L398.98,229.31L400.57,228.31L408.51,227.69L410.1,226.77L411.69,226.81L413.28,228.31L416.46,230.86L418.05,231.01L426,232.47L427.59,231.98L430.77,231.03L432.36,230.28L437.13,231.7L438.72,231.68L441.89,232.2L443.48,231.73L445.07,231.31L446.66,232.16L448.25,232.11L449.84,233.47L453.02,235.16L454.61,237.25L459.38,238.21L460.97,239.06L467.33,240.94L468.92,241.62L470.51,241.67L472.1,243.16L475.28,244.58L476.86,244.86L481.63,244.78L483.22,245.73L491.17,246.32L492.76,245.98L500.71,244.79L502.3,244.94L507.07,245.64L508.66,246.03L516.6,247.37L518.19,247.06L530.91,248.25L532.5,249.07L535.68,251.28L537.27,252.12L543.63,254.95L545.22,255.81L546.81,256.65L548.39,258.76L549.98,259.01L551.57,260.37L556.34,262.23L557.93,260.83L559.52,258.92L561.11,258.6L562.7,257.35L564.29,255.04L570.65,250.84L572.24,250.85L573.83,252.71L575.42,251.77L578.59,252.86L580.19,252.57L581.78,253.01L583.36,254.77L586.54,258.98L588.13,263.49L589.72,265.26L591.31,268.54L592.9,270.19L594.49,268.59L596.08,268.66L597.67,267.3L602.44,261.21L604.03,260.1L605.62,257.73L607.21,258.15L610.39,257.04L611.98,258.04L618.33,265.4L619.92,270.58L623.1,274.57L624.69,274.73L627.87,272.04L629.46,272.11L634.23,268.29L635.82,268.61L639,272.08L640.59,271.65L646.95,273.54L648.53,275.83L650.12,278.02L651.71,278.9L653.3,281.26L654.89,282.25L662.84,279.46L664.43,278.23L667.61,276.34L669.2,277.58L677.15,276.18L678.74,277.95L680.33,278.42L681.92,279.88L685.09,281.63L686.68,281.76L689.86,281.43L691.45,280.54L697.81,279.54L699.4,280.66L700.99,281.45L702.58,281.4L707.35,282.64L708.94,282.54L712.12,283.53L713.71,282.91L715.3,283.32L716.89,282.85L724.83,280.13L726.42,281.24L728.01,281.4L729.6,282.55L734.37,283.06L735.96,283.46L759.8,288.08L761.39,289.49L769.34,292.02L770.93,292.1L774.11,291.92L775.7,292.21L785.24,299.18L786.83,300.67L799.54,309.89L801.13,310.09L804.31,310.54L805.9,310.96L807.49,310.73L809.08,311.53L812.26,312.95L813.85,313.85L818.62,315.42L820.21,316.72L821.8,316.65L823.38,317.7L829.74,319.07L831.33,319.81L845.64,324L847.23,325.2L852,326.71L853.59,326.72L859.95,328.73L861.53,328.92L867.89,328.6L869.48,328.06L879.02,327.65L880.61,327.69L885.38,328.13L886.97,327.93L893.32,329.62L894.91,329.51L902.86,330.34L904.45,330.57L909.22,331.54L910.81,331.92L920.35,332.11L921.94,331.71L933.06,329.69L934.65,329.55L942.6,327.87L944.19,328.64L947.37,328.61L948.96,327.9L952.14,323.43L953.73,321.34L955.32,319.16L956.91,314.68L966.44,300.23L968.03,298.81L969.62,298.55L971.21,297.34L977.57,298.74L979.16,299.21L980.75,300.48L982.34,299.47L993.47,302.52L995.06,302.83L999.82,302.66L1001.41,302.08L1003,302.8L1004.59,302.34L1015.72,305.87L1017.31,306.5L1018.9,307.06L1020.49,308.58L1022.08,308.3L1023.67,308.97L1026.85,308.61L1028.44,308.44L1030.03,306.85L1031.61,306.82L1037.97,303.81L1039.56,303.45L1041.15,304.04L1042.74,303.82L1052.28,305.33L1053.87,304.69L1055.46,304.2L1057.05,304.58L1061.82,304.33L1063.41,305L1071.35,302.75L1072.94,302.88L1079.3,301.61L1080.89,301.82L1088.84,300.7L1090.43,301.47L1101.55,303.46L1103.14,304.53L1107.91,307.58L1109.5,307.9L1111.09,307.79L1112.68,308.79L1119.04,312.44L1120.63,312.16L1123.81,312.3L1125.4,313.25L1128.58,315.3L1130.17,315.95L1138.12,319.61L1139.7,319.49L1146.06,320.24L1147.65,319.89L1152.42,319.66L1154.01,320.18L1168.32,322.91L1169.9,322.44L1173.08,322.06L1174.67,322.53L1177.85,322.42L1179.44,322.91L1187.39,325.53L1188.98,325.28L1190.57,325.18L1192.16,325.86L1195.34,325.85L1196.93,327.03L1203.29,329.24L1204.87,329.9L1214.41,332.44L1216,331.97L1217.59,332.32L1219.18,331.79L1222.36,331.58L1223.95,331.42L1225.54,331.73L1227.13,331.26L1239.84,323.39L1241.43,322.2L1246.2,319.88L1247.79,319.64L1254.15,318.1L1255.74,318.02L1258.92,318.49L1260.51,317.79L1263.69,317.12L1265.28,317.87L1266.87,316.97L1268.46,317.44L1279.58,318.47L1281.17,318.36L1285.94,317.91L1287.53,316.06L1290.71,311.73L1292.3,310.73L1293.89,309.62L1295.48,307.15L1300.25,301.41L1301.84,297.98L1306.61,291.18L1308.2,290.77L1309.78,289.87L1311.37,290.07L1314.55,290.38L1316.14,291.32L1322.5,293.06L1324.09,294L1325.68,294.51L1327.27,296.3L1328.86,296.7L1330.45,298.93L1335.22,306.83L1336.81,309.36L1339.99,318.87L1341.58,322.2L1343.16,323.04L1344.75,325.07L1346.34,325.68L1347.93,327.69L1349.52,332.28L1351.11,334.01L1352.7,335.39L1354.29,335.2L1355.88,333.03L1357.47,332.45L1360.65,330.86L1362.24,330.75L1365.42,331.51L1367.01,332.7L1368.6,333.52L1370.19,335.31L1373.37,337.3L1374.96,339.8L1378.14,339.77L1379.72,339.68L1384.49,342.46L1386.08,343.17L1389.26,344.1L1390.85,344.97L1394.03,347.34L1395.62,347.48L1401.98,347.65L1403.57,346.55L1409.93,345.38L1411.52,346.02L1414.69,346.24L1416.28,347.24L1425.82,349.39L1427.41,350.67L1429,350.61" style="vector-effect: none; fill: none; stroke: rgb(0, 204, 150); stroke-opacity: 1; stroke-width: 3px; opacity: 1;"/></g><g class="points"/><g class="text"/></g><g class="trace scatter trace90b93d" style="stroke-miterlimit: 2; opacity: 1;"><g class="fills"/><g class="errorbars"/><g class="lines"><path class="js-line" d="M0,366.7L4.77,365.18L6.36,364.94L7.95,364.73L9.54,363.67L15.9,359.75L17.49,358.31L20.66,354.96L22.26,352.93L23.84,351.72L25.43,349.38L33.38,333.47L34.97,329.47L36.56,326.92L38.15,322.21L39.74,319.66L41.33,315.46L46.1,299.69L47.69,295.22L54.04,270.85L55.64,266.66L57.23,265.46L58.81,252.56L65.17,228.16L66.76,225.99L68.35,222.39L69.94,221.88L71.53,223.55L73.12,219.4L76.3,221.22L77.89,220.93L79.48,223.36L81.07,219.21L82.66,221.51L84.25,222.12L85.84,224.08L87.43,221.47L89.01,217.89L90.6,221.14L93.78,219.71L95.37,217.56L96.96,219.79L98.55,216.97L103.32,220.31L104.91,218.97L106.5,217.79L108.09,219.34L109.68,217.72L111.27,218.39L112.86,216.24L114.45,215.51L116.04,214.71L117.63,215.46L120.81,216.64L122.4,220.54L123.98,219.78L125.58,223.87L128.75,228.57L130.34,232.16L135.11,239.75L136.7,243.25L138.29,245.35L139.88,251.19L143.06,262.72L144.65,265.47L146.24,262.82L147.83,263.73L149.42,267.23L151.01,268.77L152.6,268.45L154.19,269.49L155.78,270.02L157.37,271.96L160.54,270L162.13,267.29L163.72,264.58L165.31,257.55L170.08,246.51L171.67,245.48L173.26,240.43L174.85,239.22L176.44,235.17L178.03,234.25L179.62,233.85L181.21,236.76L182.8,237.64L184.39,240.04L187.57,243.78L189.16,243.02L190.75,245.73L192.34,246.51L193.92,246.91L195.52,248.1L197.11,246.41L198.69,246.25L200.28,246.75L201.87,246.36L203.46,248.22L205.05,247.14L206.64,247.89L208.23,246.39L209.82,248.16L211.41,252.74L214.59,261.49L216.18,263.97L219.36,263.61L220.95,265.35L224.13,266.57L225.72,266.16L230.48,278.71L232.07,279.14L233.66,280.46L235.25,282.97L236.84,283.47L238.43,281.25L240.02,277.38L241.61,277.62L243.2,275.31L244.79,271.13L246.38,269.37L247.97,266.2L252.74,259.31L254.33,257.72L260.69,250.79L262.27,250.85L263.87,250.58L265.46,247.37L267.04,245.16L268.63,245.24L270.22,243.42L271.81,243.77L274.99,238.97L276.58,236.44L279.76,235.04L281.35,231.98L282.94,231.24L284.53,231.62L287.71,234.45L289.3,232.7L290.89,228.35L292.48,228L294.07,228.76L295.66,231.74L297.25,232.77L298.83,232.49L300.43,233.76L302.01,236.74L303.6,238.83L305.19,242.42L306.78,243.27L308.37,245.17L309.96,246.83L311.55,245.69L314.73,245.93L316.32,239.5L319.5,235.22L321.09,234.69L322.68,233.34L324.27,230.85L327.45,228.79L329.04,227.59L333.81,227.89L335.4,227.02L336.98,226.43L338.57,226.78L341.75,224.74L343.34,221.27L344.93,215.45L346.52,213.81L348.11,213.67L349.7,211.18L351.29,209.58L352.88,210.44L354.47,210.86L356.06,213.87L357.65,214.44L359.24,218.61L364.01,232.5L365.6,234.85L368.77,242.32L370.36,246.04L373.54,248.09L375.13,249.31L379.9,252.51L381.49,250.93L383.08,249.7L384.67,247.33L386.26,247.22L387.85,245.75L389.44,241.64L391.03,240.42L395.8,233.74L397.39,232.74L398.98,231.4L400.57,228.34L402.15,227.81L403.74,224.98L405.33,222.66L406.92,218.43L411.69,212.01L413.28,211.38L414.87,208.8L416.46,208.99L419.64,207.31L421.23,208.18L422.82,209.08L424.41,208.94L426,209.35L427.59,211.16L435.54,230.39L437.12,232.23L441.89,239.02L443.48,238.92L446.66,238.7L448.25,240.66L451.43,244.77L453.02,245.9L456.2,250.69L457.79,254.4L459.38,256.51L460.97,260.55L464.15,264.66L465.74,267.47L467.33,268.12L468.92,269.83L473.69,273.67L475.28,274.82L487.99,276.67L489.58,276.52L492.76,277.22L494.35,277.62L497.53,278.12L499.12,278.3L508.65,284.28L510.24,284.19L516.6,284.79L518.19,285.66L521.37,286.13L522.96,285.63L527.73,286.66L529.32,287.84L530.91,289.21L532.5,289.56L538.86,292.53L540.44,293.61L545.21,296.92L546.8,297.01L549.98,298.73L551.57,299.8L554.75,301.68L556.34,302.86L559.52,304.64L561.11,306.36L564.29,308.59L565.88,310.06L567.47,311.12L569.06,311.13L570.65,312L572.24,311.84L573.83,311.9L575.42,312.99L577,312.65L578.59,313.37L581.77,314.82L583.36,315.04L588.13,315.94L589.72,315.63L591.31,315.16L592.9,316.52L600.85,318.6L602.44,319.47L607.21,321.04L608.8,321.26L611.98,320.92L613.56,321.1L615.15,321.62L616.74,321.33L627.87,320.69L629.46,320.52L634.23,318.98L635.82,319.41L639,319.58L640.59,319.65L648.53,322.13L650.12,321.36L651.71,320.23L653.3,320.21L658.07,315.91L659.66,314.99L662.84,313.24L664.43,312.75L667.61,311.75L669.2,311.47L673.97,310.93L675.56,311.27L685.09,315.25L686.68,316.5L689.86,317.89L691.45,319.82L694.63,322.41L696.22,323.64L713.71,336.9L715.29,336.96L720.06,338.98L721.65,339.41L731.19,340.86L732.78,341.5L740.73,342.61L742.32,343.2L750.26,341.76L751.85,341.18L770.93,338.96L772.52,339.15L775.7,339.5L777.29,340.18L780.47,341.54L782.06,341.37L797.95,340.38L799.54,340.97L805.9,340.34L807.49,340.53L812.26,341.94L813.85,342.02L818.61,343.72L820.2,343.79L824.97,344.22L826.56,343.87L828.15,343.56L829.74,342.42L837.69,341.12L839.28,341.5L842.46,342.1L844.05,341.72L847.23,342.36L848.82,342.8L853.58,344.16L855.17,344.95L858.35,344.65L859.94,344.27L863.12,344.14L864.71,344.07L867.89,343.87L869.48,343L872.66,343.84L874.25,343.05L877.43,343.94L879.02,343.43L883.78,345.62L885.37,345.18L890.14,345.9L891.73,345.27L896.5,346.2L898.09,348.21L902.86,351.23L904.45,352.48L907.63,353.46L909.22,355.08L910.81,355.31L912.4,357.14L913.99,358.42L915.58,358.62L917.17,357.7L918.76,357.72L926.7,360.97L928.29,359.61L929.88,353.87L931.47,351.09L933.06,348.02L934.65,340.85L936.24,336.61L937.83,329.53L939.42,327.55L941.01,323.07L942.6,321.49L944.19,318.47L945.78,318.93L947.37,318.1L952.14,316.03L953.73,316.57L956.91,317.26L958.49,318.77L966.44,323.79L968.03,323.65L972.8,325.84L974.39,325.73L983.93,325.47L985.52,324.45L988.7,322.93L990.29,322.8L996.64,320.59L998.23,321.96L999.82,321.75L1001.41,322.82L1006.18,323.67L1007.77,324.56L1014.13,325.99L1015.72,326.34L1020.49,328.16L1022.08,329.24L1025.26,330.55L1026.84,332.25L1028.43,332.58L1030.02,334.21L1037.97,343.1L1039.56,343.72L1044.33,347.72L1045.92,347.89L1053.87,348.65L1055.46,349L1060.23,351.89L1061.82,352.16L1066.58,353.13L1068.17,352.76L1069.76,352.77L1071.35,351.96L1074.53,351.92L1076.12,352.13L1080.89,352.18L1082.48,351.63L1085.66,351.7L1087.25,352.4L1088.84,351.35L1090.43,351.83L1096.78,353.99L1098.37,354.26L1104.73,354.19L1106.32,354.12L1109.5,353.96L1111.09,353.75L1115.86,352.63L1117.45,353.18L1119.04,352.97L1120.63,353.78L1130.17,351.8L1131.75,351.99L1138.11,351.59L1139.7,351.22L1144.47,348.39L1146.06,347.92L1150.83,346.64L1152.42,346.95L1155.6,347.18L1157.19,347.2L1168.31,347.61L1169.9,347.55L1174.67,347.61L1176.26,347.32L1185.8,347.03L1187.39,346.49L1192.16,345.43L1193.75,345.1L1196.93,346.67L1198.52,347.18L1201.69,348L1203.28,348.98L1211.23,350.02L1212.82,349.63L1214.41,350.07L1216,349.02L1217.59,349.74L1219.18,348.55L1227.13,344.85L1228.72,342.99L1231.89,341.27L1233.49,340.45L1238.25,336.28L1239.84,335.08L1241.43,333.41L1243.02,333.56L1244.61,332.02L1246.2,332.21L1247.79,332.15L1249.38,331.12L1250.97,329.97L1252.56,330.39L1255.74,331.17L1257.33,331L1258.92,329.81L1260.51,330L1265.28,332.09L1266.87,332.61L1273.22,334.63L1274.81,334.78L1276.4,334.86L1277.99,335.94L1279.58,336.68L1281.17,336.01L1282.76,337.26L1284.35,337.27L1289.12,339.22L1290.71,338.51L1292.3,339.74L1293.89,339.91L1297.07,341.31L1298.66,340.84L1303.43,339.51L1305.01,339.59L1309.78,339.59L1311.37,339.03L1312.96,340.03L1314.55,339.26L1317.73,338.92L1319.32,338.15L1327.27,336.43L1328.86,334.72L1330.45,332.98L1332.04,332.8L1338.4,329.75L1339.99,327.17L1341.57,326.95L1343.16,327.58L1347.93,325.73L1349.52,326.14L1351.11,326.05L1352.7,327.25L1354.29,327.4L1355.88,328.57L1357.47,329.31L1359.06,331.16L1376.54,342.96L1378.14,343.7L1379.72,344.29L1381.31,345.99L1386.08,346.99L1387.67,345.43L1389.26,345.3L1390.85,344.2L1392.44,343.82L1394.03,342.48L1397.21,340.93L1398.8,339.6L1400.39,339.49L1401.98,338.34L1403.57,337.91L1405.15,336.57L1406.75,336.7L1408.34,335.82L1411.51,334.55L1413.1,334.13L1414.69,333.55L1416.28,331.97L1419.46,330.29L1421.05,328.6L1424.23,324.64L1425.82,324.75L1429,322.54" style="vector-effect: none; fill: none; stroke: rgb(171, 99, 250); stroke-opacity: 1; stroke-width: 3px; opacity: 1;"/></g><g class="points"/><g class="text"/></g><g class="trace scatter trace5ce4b6" style="stroke-miterlimit: 2; opacity: 1;"><g class="fills"/><g class="errorbars"/><g class="lines"><path class="js-line" d="M0,340.21L7.95,340.43L9.54,340.87L12.72,340.79L14.31,340.78L19.08,340.98L20.67,340.67L23.85,339.49L25.43,337.69L27.02,336.24L28.61,333.55L33.38,329.16L34.97,328.24L36.56,326.61L38.15,326.09L46.1,321.4L47.69,322.81L49.28,320.71L50.87,320.96L52.46,318.7L54.05,318.51L55.63,316.46L57.23,317.98L58.81,314.79L60.4,314.66L63.58,309.97L65.17,309.38L66.76,308.67L68.35,306.46L69.94,305.94L71.53,309.16L74.71,302.83L76.3,279.26L84.25,267.07L85.84,263.23L87.43,261.04L89.02,256.38L90.61,254.21L92.2,248.88L93.78,245.38L95.37,36L96.96,41.48L98.55,49.67L101.73,187.31L103.32,222.78L104.91,300.06L106.5,320.16L108.09,344.26L109.68,345.97L111.27,351.9L112.86,366.13L114.45,364.65L116.04,369.68L125.58,424.48L127.17,429.72L128.75,442.04L130.34,446L133.52,461.02L135.11,474.18L136.7,475.28L138.29,485.09L139.88,494.27L141.47,496.17L146.24,535.26L147.83,537.79L149.42,542.36L151.01,543.92L152.6,544.53L154.19,547.57L155.78,549.31L157.37,552.46L158.95,550.88L160.55,562.59L162.14,574.05L163.72,574.27L166.9,590.97L168.49,590.8L170.08,590.5L171.67,602.18L173.26,616.88L174.85,615.43L179.62,677.52L181.21,676.88L182.8,684L184.39,667.97L185.98,666.31L187.57,648.57L189.16,618.46L190.75,607.42L193.93,603.69L195.52,591L197.11,587.45L198.69,577.19L201.87,553.99L203.46,554.84L205.05,551.34L206.64,559.46L208.23,560.97L209.82,573.24L211.41,580.8L213,592.32L214.59,592.57L216.18,598.23L220.95,608.67L222.54,615.94L224.13,616.65L225.72,619.82L227.31,625.98L228.89,628.43L230.49,614.02L232.08,615.75L235.25,565.16L236.84,566.89L238.43,549.63L240.02,545.92L241.61,535.21L243.2,536.03L244.79,534.44L246.38,537.17L247.97,538.78L249.56,547.11L252.74,556.3L254.33,556.25L257.51,566.84L259.1,566.68L262.28,569.92L263.86,571.05L265.46,570.68L267.05,571.17L268.63,563.66L270.22,561.62L271.81,557.82L273.4,558.48L274.99,561.6L276.58,560.94L278.17,562.83L279.76,561.03L282.94,558.72L284.53,557.51L286.12,557.26L287.71,557.78L292.48,552.96L294.07,552.44L295.66,550.09L297.25,543.6L298.84,540.56L300.43,517.82L302.01,501.56L303.6,443.53L305.19,391.8L306.78,310.86L313.14,246.76L314.73,236.55L316.32,239.23L317.91,236.14L322.68,234.75L324.27,238.34L327.45,240.95L329.04,239.38L338.57,214.88L340.16,212.68L343.34,215.46L344.93,218.76L346.52,219.84L348.11,218.92L351.29,223.37L352.88,226.66L356.06,228.51L357.65,230.54L359.24,232.2L360.83,236.63L362.42,237.66L364.01,233.44L367.19,217.74L368.78,216.68L371.95,205.91L373.54,205.87L375.13,214.62L376.72,216.21L378.31,216.79L379.9,219.32L381.49,227.36L383.08,229.84L384.67,230.97L386.26,230.38L387.85,230.75L389.44,230.25L392.62,227.8L394.21,231.37L395.8,232.51L397.39,230.42L398.98,229.67L400.57,235.25L402.16,236.51L403.74,240.7L405.33,240.4L406.92,237.72L408.51,239.06L410.1,242.23L411.69,248.86L413.28,249.9L414.87,248.63L416.46,249.2L419.64,252.66L421.23,252.06L422.82,248.59L424.41,247.8L426,248.62L427.59,246.94L429.18,243.78L430.77,243.31L432.36,242.81L433.95,241.3L435.54,240.65L437.12,242.91L440.31,248.48L441.89,253.28L443.48,256.48L445.07,254.76L446.66,255.29L448.25,259.32L449.84,263.09L451.43,264.11L453.02,265.66L454.61,265.98L456.2,265.59L457.79,263.98L462.56,265.58L464.15,266.55L465.74,268.16L467.33,268.41L470.51,271.27L472.1,271.53L475.28,272.84L476.86,274.58L480.04,274.99L481.63,274.68L484.81,273.76L486.4,274.53L489.58,277.14L491.17,277.43L492.76,277.6L494.35,279.05L497.53,281.56L499.12,281.36L503.89,280.82L505.48,281.35L508.66,282.01L510.25,281.52L515.01,280.48L516.6,281.37L518.19,281.3L519.78,282.23L521.37,282.77L522.96,281.99L526.14,281.77L527.73,282.2L532.5,284.11L534.09,283.62L537.27,283.98L538.86,284.2L543.63,283.21L545.22,283.74L549.98,285.77L551.57,286.03L561.11,292.57L562.7,293.05L565.88,293.31L567.47,291.58L572.24,288.3L573.83,286.88L578.6,284.22L580.18,283.84L584.95,285.78L586.54,287.59L591.31,289.84L592.9,289.85L594.49,289.1L596.08,286.12L599.26,284.05L600.85,281.06L604.03,277.49L605.62,276.97L608.8,276.83L610.39,277.26L613.56,279L615.15,280.99L616.74,281.91L618.33,284.49L623.1,288.38L624.69,289.45L626.28,291.83L627.87,291.44L631.05,290.82L632.64,288.42L635.82,286.04L637.41,284.28L643.77,279.94L645.36,280.42L651.71,283.27L653.3,284.84L656.48,289.33L658.07,291L661.25,295.16L662.84,300.34L664.43,302.95L666.02,303.18L667.61,302.98L669.2,299.39L670.79,296.69L672.38,292.02L673.97,291.26L675.56,287.81L678.74,284.61L680.33,281.08L681.91,281.32L683.5,280.65L689.86,281.64L691.45,284.51L693.04,285.05L694.63,287.62L699.4,291.69L700.99,288.88L704.17,286.68L705.76,284.84L707.35,285.48L708.94,287.96L710.53,289.39L712.12,292.33L716.89,299.01L718.48,299.81L720.06,301.75L721.65,301.56L723.24,302.38L724.83,302.3L726.42,304.76L728.01,305.2L729.6,307.36L731.19,308.24L734.37,307.3L735.96,309.82L740.73,306.75L742.32,304.14L743.91,303.8L745.5,302.11L748.68,298.39L750.27,297.47L756.62,296.24L758.21,297.19L759.8,297.3L761.39,298.22L764.57,299.2L766.16,300.66L769.34,301.27L770.93,300.95L777.29,297L778.88,296.82L782.06,295.78L783.65,297.14L785.23,298.18L786.83,300.52L791.59,304.43L793.18,305.04L797.95,308.57L799.54,308.55L804.31,304.9L805.9,303.37L810.67,301.49L812.26,301.86L815.44,302.49L817.03,304.78L823.38,307.59L824.97,309.18L829.74,307.05L831.33,305.33L832.92,304.64L834.51,302.27L840.87,303.64L842.46,305.37L848.82,309.64L850.41,308.83L852,307.97L853.58,306.13L855.17,305.22L856.77,303.11L859.94,301.66L861.53,301.75L864.71,303.13L866.3,303.14L874.25,305.46L875.84,305.56L879.02,304.97L880.61,305.18L882.2,305.54L883.79,304.77L890.14,303.73L891.73,303.85L896.5,304.5L898.09,304.75L902.86,305.62L904.45,305.68L906.04,306.52L907.63,306.31L909.22,306.22L910.81,304.85L913.99,303.02L915.58,302.66L920.35,302.65L921.94,302.8L928.29,300.88L929.88,300.3L937.83,295.91L939.42,295.45L942.6,295.55L944.19,295.99L948.96,298.32L950.55,300.32L952.14,300.92L953.73,302.46L956.91,304.63L958.5,305.68L960.08,306.28L961.67,308.17L963.26,308.8L964.85,310.89L968.03,313.29L969.62,315.76L971.21,316.51L972.8,318.29L974.39,319.53L975.98,322.01L982.34,329.08L983.93,329.91L985.52,330.41L987.11,330.07L991.88,330.02L993.46,329.86L998.23,331.34L999.82,331.87L1004.59,333.72L1006.18,333.53L1007.77,334.03L1009.36,333.62L1010.95,333.77L1012.54,332.84L1017.31,330.27L1018.9,327.6L1023.67,322.74L1025.26,322.44L1026.85,322.64L1028.43,323.87L1031.61,325.58L1033.2,325.38L1036.38,325.04L1037.97,324.36L1042.74,324.42L1044.33,323.9L1045.92,323.58L1047.51,322.17L1049.1,322.4L1050.69,321.1L1055.46,315.45L1057.05,314.18L1060.23,310.69L1061.82,309.7L1065,307.92L1066.59,307.75L1074.53,308.82L1076.12,309.71L1079.3,312.65L1080.89,315.24L1085.66,318.46L1087.25,320.27L1088.84,321.5L1090.43,323.91L1096.79,331.42L1098.37,332.86L1101.55,332.84L1103.14,332.32L1107.91,332.14L1109.5,332.88L1115.86,333.81L1117.45,335.11L1119.04,335.69L1120.63,337.32L1122.22,337.82L1123.81,339.2L1126.99,339.8L1128.58,338.79L1139.7,336.06L1141.29,335.88L1149.24,332.03L1150.83,331.85L1154.01,330.7L1155.6,330.67L1160.37,328.77L1161.96,327.43L1171.49,324.99L1173.08,325.21L1174.67,325.3L1176.26,324.44L1182.62,324.76L1184.21,323.93L1187.39,324.07L1188.98,323.98L1190.57,324.31L1192.16,323.6L1195.34,323.23L1196.93,322.07L1198.52,322.59L1200.11,321.65L1206.46,320.59L1208.05,320.74L1211.23,319.16L1212.82,318.76L1216,319.17L1217.59,318.62L1219.18,318.67L1220.77,317.02L1223.95,315.12L1225.54,313.18L1231.9,307.09L1233.49,303.9L1236.67,302.21L1238.25,300.32L1239.84,299.31L1241.43,299.31L1244.61,298.84L1246.2,300.18L1252.56,299.3L1254.15,300.16L1260.51,302.93L1262.1,306.14L1263.69,306.75L1265.28,308.93L1270.05,314.04L1271.63,314.35L1274.82,315.11L1276.4,314.9L1281.17,314.69L1282.76,314.3L1285.94,312.08L1287.53,312.1L1289.12,313.37L1290.71,313.52L1297.07,318.11L1298.66,320.11L1301.84,322.89L1303.43,323.56L1306.6,324.34L1308.19,324.08L1311.37,323.54L1312.96,322.91L1316.14,321.76L1317.73,321.19L1319.32,320.27L1320.91,320.65L1330.45,320.39L1332.04,321.9L1339.99,323.78L1341.57,323.97L1352.7,325.32L1354.29,325.28L1359.06,324.95L1360.65,324.93L1363.83,323.86L1365.42,323.91L1373.37,323.32L1374.96,322.84L1381.31,314.57L1382.9,312.96L1384.49,309.06L1386.08,307.68L1387.67,304.63L1389.26,303.57L1394.03,299.75L1395.62,299.15L1401.98,294.58L1403.57,294.05L1405.16,292.03L1406.75,291.33L1408.34,289.15L1409.92,288.41L1413.11,284.98L1414.69,283.33L1417.87,280.92L1419.46,281.52L1425.82,282.48L1427.41,282.11L1429,281.46" style="vector-effect: none; fill: none; stroke: rgb(255, 161, 90); stroke-opacity: 1; stroke-width: 3px; opacity: 1;"/></g><g class="points"/><g class="text"/></g></g></g></g><path class="xlines-above crisp" d="M0,0" style="fill: none;"/><path class="ylines-above crisp" d="M0,0" style="fill: none;"/><g class="overlines-above"/><g class="xaxislayer-above"><g class="xtick"><text text-anchor="middle" x="0" y="841" transform="translate(248.37,0)" style="font-family: 'Open Sans', verdana, arial, sans-serif; font-size: 20px; fill: rgb(42, 63, 95); fill-opacity: 1; white-space: pre; opacity: 1;">2</text></g><g class="xtick"><text text-anchor="middle" x="0" y="841" style="font-family: 'Open Sans', verdana, arial, sans-serif; font-size: 20px; fill: rgb(42, 63, 95); fill-opacity: 1; white-space: pre; opacity: 1;" transform="translate(407.32,0)">4</text></g><g class="xtick"><text text-anchor="middle" x="0" y="841" style="font-family: 'Open Sans', verdana, arial, sans-serif; font-size: 20px; fill: rgb(42, 63, 95); fill-opacity: 1; white-space: pre; opacity: 1;" transform="translate(566.28,0)">6</text></g><g class="xtick"><text text-anchor="middle" x="0" y="841" style="font-family: 'Open Sans', verdana, arial, sans-serif; font-size: 20px; fill: rgb(42, 63, 95); fill-opacity: 1; white-space: pre; opacity: 1;" transform="translate(725.23,0)">8</text></g><g class="xtick"><text text-anchor="middle" x="0" y="841" style="font-family: 'Open Sans', verdana, arial, sans-serif; font-size: 20px; fill: rgb(42, 63, 95); fill-opacity: 1; white-space: pre; opacity: 1;" transform="translate(884.18,0)">10</text></g><g class="xtick"><text text-anchor="middle" x="0" y="841" style="font-family: 'Open Sans', verdana, arial, sans-serif; font-size: 20px; fill: rgb(42, 63, 95); fill-opacity: 1; white-space: pre; opacity: 1;" transform="translate(1043.1399999999999,0)">12</text></g><g class="xtick"><text text-anchor="middle" x="0" y="841" style="font-family: 'Open Sans', verdana, arial, sans-serif; font-size: 20px; fill: rgb(42, 63, 95); fill-opacity: 1; white-space: pre; opacity: 1;" transform="translate(1202.09,0)">14</text></g><g class="xtick"><text text-anchor="middle" x="0" y="841" style="font-family: 'Open Sans', verdana, arial, sans-serif; font-size: 20px; fill: rgb(42, 63, 95); fill-opacity: 1; white-space: pre; opacity: 1;" transform="translate(1361.05,0)">16</text></g><g class="xtick"><text text-anchor="middle" x="0" y="841" style="font-family: 'Open Sans', verdana, arial, sans-serif; font-size: 20px; fill: rgb(42, 63, 95); fill-opacity: 1; white-space: pre; opacity: 1;" transform="translate(1520,0)">18</text></g></g><g class="yaxislayer-above"><g class="ytick"><text text-anchor="end" x="90" y="7" transform="translate(0,809.59)" style="font-family: 'Open Sans', verdana, arial, sans-serif; font-size: 20px; fill: rgb(42, 63, 95); fill-opacity: 1; white-space: pre; opacity: 1;">−0.4</text></g><g class="ytick"><text text-anchor="end" x="90" y="7" style="font-family: 'Open Sans', verdana, arial, sans-serif; font-size: 20px; fill: rgb(42, 63, 95); fill-opacity: 1; white-space: pre; opacity: 1;" transform="translate(0,714.61)">−0.3</text></g><g class="ytick"><text text-anchor="end" x="90" y="7" style="font-family: 'Open Sans', verdana, arial, sans-serif; font-size: 20px; fill: rgb(42, 63, 95); fill-opacity: 1; white-space: pre; opacity: 1;" transform="translate(0,619.63)">−0.2</text></g><g class="ytick"><text text-anchor="end" x="90" y="7" style="font-family: 'Open Sans', verdana, arial, sans-serif; font-size: 20px; fill: rgb(42, 63, 95); fill-opacity: 1; white-space: pre; opacity: 1;" transform="translate(0,524.65)">−0.1</text></g><g class="ytick"><text text-anchor="end" x="90" y="7" style="font-family: 'Open Sans', verdana, arial, sans-serif; font-size: 20px; fill: rgb(42, 63, 95); fill-opacity: 1; white-space: pre; opacity: 1;" transform="translate(0,429.67)">0</text></g><g class="ytick"><text text-anchor="end" x="90" y="7" style="font-family: 'Open Sans', verdana, arial, sans-serif; font-size: 20px; fill: rgb(42, 63, 95); fill-opacity: 1; white-space: pre; opacity: 1;" transform="translate(0,334.69)">0.1</text></g><g class="ytick"><text text-anchor="end" x="90" y="7" style="font-family: 'Open Sans', verdana, arial, sans-serif; font-size: 20px; fill: rgb(42, 63, 95); fill-opacity: 1; white-space: pre; opacity: 1;" transform="translate(0,239.71)">0.2</text></g><g class="ytick"><text text-anchor="end" x="90" y="7" style="font-family: 'Open Sans', verdana, arial, sans-serif; font-size: 20px; fill: rgb(42, 63, 95); fill-opacity: 1; white-space: pre; opacity: 1;" transform="translate(0,144.73)">0.3</text></g></g><g class="overaxes-above"/></g></g><g class="polarlayer"/><g class="smithlayer"/><g class="ternarylayer"/><g class="geolayer"/><g class="funnelarealayer"/><g class="pielayer"/><g class="iciclelayer"/><g class="treemaplayer"/><g class="sunburstlayer"/><g class="glimages"/><defs id="topdefs-0f697a"><g class="clips"/><clipPath id="legend0f697a"><rect width="84" height="181" x="0" y="0"/></clipPath></defs><g class="layer-above"><g class="imagelayer"/><g class="shapelayer"/></g><g class="infolayer"><g class="legend" pointer-events="all" transform="translate(252.477,110.08000000000001)"><rect class="bg" shape-rendering="crispEdges" width="84" height="181" x="0" y="0" style="stroke: rgb(68, 68, 68); stroke-opacity: 1; fill: rgb(255, 255, 255); fill-opacity: 1; stroke-width: 0px;"/><g class="scrollbox" transform="" clip-path="url(#legend0f697a)"><g class="groups"><g class="traces" transform="translate(0,22.1)" style="opacity: 1;"><text class="legendtext" text-anchor="start" x="40" y="9.360000000000001" style="font-family: 'Open Sans', verdana, arial, sans-serif; font-size: 24px; fill: rgb(42, 63, 95); fill-opacity: 1; white-space: pre;">1m</text><g class="layers" style="opacity: 1;"><g class="legendfill"/><g class="legendlines"><path class="js-line" d="M5,0h30" style="fill: none; stroke: rgb(99, 110, 250); stroke-opacity: 1; stroke-width: 3px;"/></g><g class="legendsymbols"><g class="legendpoints"/></g></g><rect class="legendtoggle" x="0" y="-17.1" width="78.609375" height="34.2" style="fill: rgb(0, 0, 0); fill-opacity: 0;"/></g><g class="traces" transform="translate(0,56.300000000000004)" style="opacity: 1;"><text class="legendtext" text-anchor="start" x="40" y="9.360000000000001" style="font-family: 'Open Sans', verdana, arial, sans-serif; font-size: 24px; fill: rgb(42, 63, 95); fill-opacity: 1; white-space: pre;">2m</text><g class="layers" style="opacity: 1;"><g class="legendfill"/><g class="legendlines"><path class="js-line" d="M5,0h30" style="fill: none; stroke: rgb(239, 85, 59); stroke-opacity: 1; stroke-width: 3px;"/></g><g class="legendsymbols"><g class="legendpoints"/></g></g><rect class="legendtoggle" x="0" y="-17.1" width="78.609375" height="34.2" style="fill: rgb(0, 0, 0); fill-opacity: 0;"/></g><g class="traces" transform="translate(0,90.5)" style="opacity: 1;"><text class="legendtext" text-anchor="start" x="40" y="9.360000000000001" style="font-family: 'Open Sans', verdana, arial, sans-serif; font-size: 24px; fill: rgb(42, 63, 95); fill-opacity: 1; white-space: pre;">3m</text><g class="layers" style="opacity: 1;"><g class="legendfill"/><g class="legendlines"><path class="js-line" d="M5,0h30" style="fill: none; stroke: rgb(0, 204, 150); stroke-opacity: 1; stroke-width: 3px;"/></g><g class="legendsymbols"><g class="legendpoints"/></g></g><rect class="legendtoggle" x="0" y="-17.1" width="78.609375" height="34.2" style="fill: rgb(0, 0, 0); fill-opacity: 0;"/></g><g class="traces" transform="translate(0,124.70000000000002)" style="opacity: 1;"><text class="legendtext" text-anchor="start" x="40" y="9.360000000000001" style="font-family: 'Open Sans', verdana, arial, sans-serif; font-size: 24px; fill: rgb(42, 63, 95); fill-opacity: 1; white-space: pre;">4m</text><g class="layers" style="opacity: 1;"><g class="legendfill"/><g class="legendlines"><path class="js-line" d="M5,0h30" style="fill: none; stroke: rgb(171, 99, 250); stroke-opacity: 1; stroke-width: 3px;"/></g><g class="legendsymbols"><g class="legendpoints"/></g></g><rect class="legendtoggle" x="0" y="-17.1" width="78.609375" height="34.2" style="fill: rgb(0, 0, 0); fill-opacity: 0;"/></g><g class="traces" transform="translate(0,158.9)" style="opacity: 1;"><text class="legendtext" text-anchor="start" x="40" y="9.360000000000001" style="font-family: 'Open Sans', verdana, arial, sans-serif; font-size: 24px; fill: rgb(42, 63, 95); fill-opacity: 1; white-space: pre;">5m</text><g class="layers" style="opacity: 1;"><g class="legendfill"/><g class="legendlines"><path class="js-line" d="M5,0h30" style="fill: none; stroke: rgb(255, 161, 90); stroke-opacity: 1; stroke-width: 3px;"/></g><g class="legendsymbols"><g class="legendpoints"/></g></g><rect class="legendtoggle" x="0" y="-17.1" width="78.609375" height="34.2" style="fill: rgb(0, 0, 0); fill-opacity: 0;"/></g></g></g><rect class="scrollbar" rx="20" ry="3" width="0" height="0" x="0" y="0" style="fill: rgb(128, 139, 164); fill-opacity: 1;"/></g><g class="g-gtitle"><text class="gtitle" x="800" y="50" text-anchor="middle" dy="0.7em" style="opacity: 1; font-family: 'Open Sans', verdana, arial, sans-serif; font-size: 20px; fill: rgb(42, 63, 95); fill-opacity: 1; font-weight: bold; white-space: pre;">Yieding, Front and eHMI</text></g><g class="g-xtitle"><text class="xtitle" x="805.5" y="873.5" text-anchor="middle" style="opacity: 1; font-family: 'Open Sans', verdana, arial, sans-serif; font-size: 20px; fill: rgb(42, 63, 95); fill-opacity: 1; white-space: pre;">Time (in seconds)</text></g><g class="g-ytitle" transform="translate(0.578125,0)"><text class="ytitle" transform="rotate(-90,19.421875,460)" x="19.421875" y="460" text-anchor="middle" style="opacity: 1; font-family: 'Open Sans', verdana, arial, sans-serif; font-size: 20px; fill: rgb(42, 63, 95); fill-opacity: 1; white-space: pre;">Yaw Angle (in radians)</text></g></g></svg>