<svg class="main-svg" xmlns="http://www.w3.org/2000/svg" xmlns:xlink="http://www.w3.org/1999/xlink" width="4800" height="2700" style="" viewBox="0 0 1600 900"><rect x="0" y="0" width="1600" height="900" style="fill: rgb(255, 255, 255); fill-opacity: 1;"/><defs id="defs-afb846"><g class="clips"><clipPath id="clipafb846xyplot" class="plotclip"><rect width="1416" height="720"/></clipPath><clipPath class="axesclip" id="clipafb846x"><rect x="104" y="0" width="1416" height="900"/></clipPath><clipPath class="axesclip" id="clipafb846y"><rect x="0" y="100" width="1600" height="720"/></clipPath><clipPath class="axesclip" id="clipafb846xy"><rect x="104" y="100" width="1416" height="720"/></clipPath></g><g class="gradients"/><g class="patterns"/></defs><g class="bglayer"><rect class="bg" x="104" y="100" width="1416" height="720" style="fill: rgb(229, 236, 246); fill-opacity: 1; stroke-width: 0;"/></g><g class="layer-below"><g class="imagelayer"/><g class="shapelayer"/></g><g class="cartesianlayer"><g class="subplot xy"><g class="layer-subplot"><g class="shapelayer"/><g class="imagelayer"/></g><g class="minor-gridlayer"><g class="x"/><g class="y"/></g><g class="gridlayer"><g class="x"><path class="xgrid crisp" transform="translate(243.05,0)" d="M0,100v720" style="stroke: rgb(255, 255, 255); stroke-opacity: 1; stroke-width: 1px;"/><path class="xgrid crisp" transform="translate(384.93,0)" d="M0,100v720" style="stroke: rgb(255, 255, 255); stroke-opacity: 1; stroke-width: 1px;"/><path class="xgrid crisp" transform="translate(526.81,0)" d="M0,100v720" style="stroke: rgb(255, 255, 255); stroke-opacity: 1; stroke-width: 1px;"/><path class="xgrid crisp" transform="translate(668.7,0)" d="M0,100v720" style="stroke: rgb(255, 255, 255); stroke-opacity: 1; stroke-width: 1px;"/><path class="xgrid crisp" transform="translate(810.58,0)" d="M0,100v720" style="stroke: rgb(255, 255, 255); stroke-opacity: 1; stroke-width: 1px;"/><path class="xgrid crisp" transform="translate(952.47,0)" d="M0,100v720" style="stroke: rgb(255, 255, 255); stroke-opacity: 1; stroke-width: 1px;"/><path class="xgrid crisp" transform="translate(1094.35,0)" d="M0,100v720" style="stroke: rgb(255, 255, 255); stroke-opacity: 1; stroke-width: 1px;"/><path class="xgrid crisp" transform="translate(1236.23,0)" d="M0,100v720" style="stroke: rgb(255, 255, 255); stroke-opacity: 1; stroke-width: 1px;"/><path class="xgrid crisp" transform="translate(1378.12,0)" d="M0,100v720" style="stroke: rgb(255, 255, 255); stroke-opacity: 1; stroke-width: 1px;"/></g><g class="y"><path class="ygrid crisp" transform="translate(0,739.54)" d="M104,0h1416" style="stroke: rgb(255, 255, 255); stroke-opacity: 1; stroke-width: 1px;"/><path class="ygrid crisp" transform="translate(0,632.3)" d="M104,0h1416" style="stroke: rgb(255, 255, 255); stroke-opacity: 1; stroke-width: 1px;"/><path class="ygrid crisp" transform="translate(0,417.83)" d="M104,0h1416" style="stroke: rgb(255, 255, 255); stroke-opacity: 1; stroke-width: 1px;"/><path class="ygrid crisp" transform="translate(0,310.59000000000003)" d="M104,0h1416" style="stroke: rgb(255, 255, 255); stroke-opacity: 1; stroke-width: 1px;"/><path class="ygrid crisp" transform="translate(0,203.35)" d="M104,0h1416" style="stroke: rgb(255, 255, 255); stroke-opacity: 1; stroke-width: 1px;"/></g></g><g class="zerolinelayer"><path class="yzl zl crisp" transform="translate(0,525.0699999999999)" d="M104,0h1416" style="stroke: rgb(255, 255, 255); stroke-opacity: 1; stroke-width: 2px;"/></g><g class="layer-between"><g class="shapelayer"/><g class="imagelayer"/></g><path class="xlines-below"/><path class="ylines-below"/><g class="overlines-below"/><g class="xaxislayer-below"/><g class="yaxislayer-below"/><g class="overaxes-below"/><g class="overplot"><g class="xy" transform="translate(104,100)" clip-path="url(#clipafb846xyplot)"><g class="scatterlayer mlayer"><g class="trace scatter tracebc2e26" style="stroke-miterlimit: 2; opacity: 1;"><g class="fills"/><g class="errorbars"/><g class="lines"><path class="js-line" d="M0,461.86L5.68,462.17L8.51,462.6L14.19,464.9L17.03,464.67L19.86,464.13L22.7,464.96L28.38,464.54L31.22,462.96L34.05,459.7L36.89,460.1L42.56,452.44L45.4,448.1L48.24,445.03L51.08,443.83L53.92,440.24L56.75,432.43L62.43,418.54L65.27,408.76L76.62,372.62L79.46,370.33L82.29,357.52L85.13,352.9L90.81,338.18L93.64,332.07L99.32,337.34L102.16,336.29L107.83,342.38L110.67,341.45L113.51,359.36L116.34,362.28L119.18,357.98L122.02,364.25L124.86,369.04L127.7,363.7L130.53,360.06L133.37,354.88L136.21,353.23L139.05,355.11L141.88,355.5L144.72,352.61L147.56,345.28L150.4,343.72L153.23,344.87L156.07,350.1L158.91,346.07L161.75,348.78L164.59,348.52L167.42,351.86L170.26,353.35L173.1,359.24L175.94,361.78L178.77,366.02L184.45,385.81L187.29,387.37L190.12,383.35L192.96,381.78L198.64,373.66L201.48,371.22L204.31,371.51L207.15,369.43L212.83,354.33L215.66,352.67L218.5,350.24L221.34,348.94L224.18,355.47L227.02,373.13L229.85,382.36L232.69,385.35L235.53,383.98L238.36,383.51L241.2,399.91L244.04,410.71L246.88,410.73L249.72,413.32L252.55,414.34L255.39,418.21L258.23,413.74L261.07,411.04L263.91,409.37L266.74,402.26L269.58,404.69L272.42,409.12L275.26,405.63L278.09,406L283.77,414.19L286.61,416.48L289.44,413.38L292.28,416.68L295.12,418.14L297.96,420.93L300.79,424.55L303.63,430.1L306.47,437.27L309.31,449.99L312.14,463.13L314.98,466.93L317.82,461.43L320.66,460.16L323.49,461.42L326.33,465.24L329.17,478.06L332.01,484.91L334.85,485.48L337.68,458.86L340.52,430.88L343.36,354.65L346.2,337.19L349.03,330.28L351.87,333.99L354.71,331.8L357.55,321.58L360.39,317.29L363.22,308.13L366.06,307.55L371.74,303.54L374.57,299.25L377.41,300.15L380.25,298.37L383.09,300.48L385.92,300.42L388.76,307.3L391.6,316.5L397.27,332.83L400.11,341.11L405.79,348.02L408.63,357.33L411.46,363.33L414.3,373.73L417.14,378.85L419.98,386.69L422.81,390.04L425.65,390.87L428.49,391.07L431.33,396.02L434.16,391.93L437,391.59L439.84,427.59L442.68,435.8L448.35,449.6L451.19,454.59L454.03,464.24L456.87,461.97L459.7,464.72L462.54,463.79L465.38,474.41L468.22,481.15L471.05,492.31L473.89,498.06L476.73,501.05L479.57,499.83L482.4,498.8L485.24,491.76L488.08,489.54L490.92,490.8L493.76,489.16L496.59,481.96L502.27,472.82L505.11,471.75L507.94,465.45L510.78,461.83L516.46,456.91L519.29,453.44L522.13,449.29L524.97,447.78L527.81,447.94L530.65,444.64L533.48,440.41L536.32,441.21L542,439.88L544.83,438.15L550.51,435.14L553.35,430.04L556.18,429.48L559.02,424.11L561.86,428L564.7,425.77L567.53,428.14L570.37,428.89L573.21,427.59L576.05,428.15L584.56,438.41L587.4,439.74L590.24,439.73L593.07,435.7L595.91,431.38L598.75,429.34L601.59,427.97L604.42,428.41L607.26,431.92L610.1,431.09L618.61,438.15L621.45,437.11L624.29,438.19L627.13,436.31L629.96,435.07L632.8,435.54L638.48,444.23L641.32,447.91L644.15,453.39L646.99,455.12L652.67,463.14L655.5,460.27L658.34,460.51L661.18,453.45L664.02,454.94L666.85,453.46L669.69,454.72L672.53,453.65L675.37,452.93L678.2,454.2L683.88,463.6L686.72,469.74L695.23,489.94L698.07,498.07L709.42,528.58L712.26,530.41L715.09,533.35L717.93,532.56L720.77,526.23L723.61,530.95L726.45,524.11L729.28,523.64L732.12,523.3L734.96,521.03L737.79,517.27L740.63,517.45L743.47,517.61L746.31,518.9L749.15,520.44L751.98,523.89L754.82,528.41L757.66,536.78L763.33,546.63L766.17,560.13L771.85,573.44L774.69,574.41L777.52,572.84L780.36,573.84L783.2,574.56L786.04,572.16L788.87,569.43L791.71,559.43L794.55,557.32L797.39,549.4L800.22,551.14L803.06,549.59L805.9,546.47L808.74,540.51L814.41,535.85L817.25,536.88L820.09,533.82L822.92,534.15L825.76,531.14L828.6,532.51L831.44,531.64L834.28,535.11L839.95,536.63L842.79,535.56L845.63,534.54L848.47,529.98L854.14,522.24L856.98,521.1L859.82,515.08L862.65,514.04L865.49,510.22L868.33,503.91L871.17,500.6L874,495.67L876.84,496.64L879.68,495.16L882.52,495.49L885.35,497.02L891.03,498.48L893.87,502.06L899.54,504.75L902.38,503.91L905.22,508.12L908.06,509.37L910.89,510.59L913.73,514.06L916.57,514.31L919.41,513.26L922.24,511.45L925.08,508.55L927.92,507.91L930.76,503.81L933.59,500.51L936.43,499.33L939.27,494.93L942.11,494.57L947.78,493.42L950.62,495.12L956.3,498.74L959.13,501.68L961.97,503.73L964.81,508.56L967.65,510.26L970.48,513.67L973.32,517.53L976.16,517.37L979,517.65L981.83,517.16L984.67,514.92L987.51,515.05L990.35,513.1L993.19,513.09L996.02,510.77L998.86,511.38L1001.7,509.89L1004.54,510.02L1010.21,510.67L1013.05,512.11L1021.56,513.3L1024.4,514.03L1027.24,513.48L1030.08,515.44L1032.91,515.61L1035.75,514.74L1044.27,513.03L1047.1,510.44L1049.94,511.54L1052.77,510.99L1055.62,510.52L1058.45,511.3L1069.8,512.42L1072.64,512.47L1078.32,514.87L1081.15,515.78L1083.99,515.92L1086.83,515.26L1089.67,515.89L1092.5,517.91L1098.18,521.21L1101.02,521.4L1106.69,523.52L1109.53,526.29L1112.37,526.17L1115.21,527.46L1118.04,527.65L1120.88,529.33L1126.56,531.12L1129.39,530.91L1132.23,530.16L1135.07,531.09L1137.91,531.61L1140.75,532.9L1143.58,532.76L1146.42,531.62L1152.1,530.39L1154.93,532.07L1157.77,528.12L1160.61,528.8L1163.45,528.02L1166.28,528.61L1169.12,528.14L1171.96,526.28L1174.8,528.69L1177.63,527.04L1183.31,523.22L1186.15,519.49L1188.99,519.94L1191.82,516.25L1194.66,516.66L1197.5,515.12L1200.34,510.57L1203.17,510.58L1208.85,500.27L1211.69,502.53L1214.52,501.16L1217.36,481.29L1220.2,463.59L1223.04,462.19L1231.55,437.48L1234.39,433.33L1237.23,425.29L1240.06,422.2L1242.9,420.75L1245.74,408.58L1257.09,384.11L1259.93,383.71L1262.76,375.76L1265.6,373.96L1274.12,364.39L1276.95,360.48L1279.79,357.96L1282.63,357.53L1285.47,355.43L1288.3,358.07L1291.14,358.5L1293.98,356.66L1299.65,351.33L1302.49,353.11L1305.33,352.85L1308.17,351.29L1311.01,351.71L1313.84,355.52L1316.68,356.19L1319.52,358.23L1330.87,362.13L1333.71,358.38L1336.54,355.62L1339.38,354.79L1342.22,356.93L1345.06,355.46L1347.89,357.82L1350.73,356.88L1353.57,359.88L1356.41,358.22L1362.08,356.69L1364.92,353.39L1367.76,352.87L1370.6,351.19L1373.43,349.4L1376.27,348.8L1379.11,345.41L1381.95,344.66L1387.62,341.45L1390.46,338.74L1393.3,336.57L1396.14,335.88L1401.81,334.77L1404.65,332.58L1407.48,332.35L1410.32,330.37L1413.16,330.15L1416,329.05" style="vector-effect: none; fill: none; stroke: rgb(99, 110, 250); stroke-opacity: 1; stroke-width: 3px; opacity: 1;"/></g><g class="points"/><g class="text"/></g><g class="trace scatter trace71d4a9" style="stroke-miterlimit: 2; opacity: 1;"><g class="fills"/><g class="errorbars"/><g class="lines"><path class="js-line" d="M0,439.23L2.84,437.6L5.68,437.06L8.51,435.82L11.35,435.49L19.86,432.63L22.7,430.87L25.54,429.74L28.38,427.08L34.05,424.38L36.89,419.82L39.73,417.22L42.57,413.54L45.4,410.61L48.24,406.02L51.08,402.71L53.92,397.14L59.59,389.06L62.43,381.32L65.27,379.16L68.11,375.03L70.94,370.18L73.78,362.01L79.46,348.27L82.29,338.39L85.13,332.53L87.97,322.73L93.65,302.18L96.48,291.07L99.32,282.53L102.16,268.78L105,258.37L107.83,244.49L119.18,213.42L122.02,202.58L127.7,183.28L130.53,173.74L133.37,162.17L136.21,154.47L139.05,150.09L141.88,147.5L144.72,147.06L147.56,155.65L150.4,142.77L153.24,149.45L156.07,149.62L158.91,153.93L161.75,153.1L164.59,156.45L167.42,155.74L170.26,160.04L175.94,170.82L178.77,174.7L181.61,173.89L184.45,175.66L187.29,177.73L190.13,175.99L195.8,176.27L198.64,174L201.48,175.15L204.31,180.55L207.15,179.79L209.99,186.28L212.83,194.31L215.66,198.86L221.34,207.54L224.18,205.51L227.02,206.05L229.85,205.13L232.69,205.41L235.53,206.85L238.37,204.31L241.2,203.59L244.04,200.56L246.88,200.9L255.39,191.42L258.23,192.86L261.07,194.79L263.9,198.88L266.74,201.14L269.58,200.72L272.42,204.85L275.26,206.01L278.09,207.3L280.93,204.6L283.77,204.38L286.61,203.35L292.28,202.03L295.12,202.23L297.96,210.16L300.8,215.22L309.31,232.92L312.15,235.16L314.98,241.05L317.82,245.13L320.66,248.26L323.5,250.22L326.33,254.01L329.17,254.34L332.01,252.06L334.85,250.79L337.68,249.22L340.52,251.17L346.2,249.17L349.04,248.16L351.87,244.27L354.71,244.04L357.55,238.05L360.39,237.54L363.22,235.78L366.06,237.25L368.9,234.4L371.74,234.02L374.57,232.01L377.41,233.28L380.25,250.29L383.09,258.17L385.92,262.12L388.76,270.97L391.6,277.84L394.44,279.86L397.28,278.41L400.11,280.19L402.95,279.18L405.79,279.35L408.63,279.16L411.46,274.2L414.3,271.8L417.14,265.93L419.98,264.93L422.81,260.47L425.65,260.29L428.49,256.17L431.33,250.97L434.17,250.38L437,246.25L439.84,248.95L445.52,246.75L448.35,248.07L451.19,245.9L454.03,248.71L456.87,250.65L459.7,251.43L462.54,256.21L465.38,258.19L468.22,258.17L471.05,256.51L473.89,255.42L476.73,252.32L479.57,255.13L482.41,254.06L485.24,255.71L488.08,252.89L490.92,252.58L493.76,249.09L496.59,248.31L499.43,251.37L502.27,252.67L505.11,255.16L510.78,259.35L513.62,262.35L516.46,267.81L519.3,270.85L522.13,271.29L524.97,276L530.65,278.31L533.48,277.83L536.32,276.97L539.16,278.94L542,281.47L544.83,285.07L547.67,285.97L550.51,289.38L553.35,288.65L556.18,290.39L559.02,289.66L561.86,289.84L564.7,290.03L567.54,291.6L573.21,293.24L576.05,295.55L578.89,295.92L581.72,298.09L584.56,302.7L587.4,305.04L593.08,309.61L595.91,311.69L598.75,315.35L601.59,316.15L607.26,317.55L610.1,319.37L612.94,318.73L615.78,320.33L618.61,322.53L621.45,321.45L629.96,324.73L632.8,324.29L635.64,323.8L638.48,321.94L641.32,321.31L644.15,321.67L649.83,321.53L652.67,322.02L664.02,328.15L666.85,328.22L669.69,331.38L672.53,331.91L678.21,333.74L681.04,332.83L683.88,332.9L686.72,331.74L692.39,330.77L695.23,328.66L698.07,328.14L700.91,326.58L703.74,326.89L706.58,326.25L709.42,327.94L712.26,327.66L715.09,326.86L717.93,327.18L723.61,330.83L726.45,329.12L729.28,328.09L732.12,325.75L737.8,323.63L740.63,321.87L743.47,324L746.31,322.04L749.15,321.41L751.98,321.6L760.5,324.26L763.34,324.25L766.17,324.76L769.01,324.44L771.85,325.77L774.69,328.1L777.52,330.95L780.36,332.7L783.2,333.34L786.04,332.62L788.87,331.83L791.71,332.43L794.55,331.34L797.39,331.83L800.22,332.09L803.06,331.26L805.9,330.33L808.74,330.23L820.09,332.12L822.93,332.33L828.6,334.34L831.44,335.6L834.28,336.6L837.12,336.14L839.95,336.11L842.79,334.74L845.63,335.68L848.47,335.27L851.3,335.83L854.14,335.35L859.82,335.69L862.65,334.5L865.49,333.45L868.33,334.04L871.17,333.92L874,332.06L879.68,332.3L882.52,331.19L885.36,330.34L888.19,330.58L893.87,328.69L896.71,329.08L899.54,330.79L902.38,331.5L905.22,332.05L908.06,333.55L919.41,340.06L922.24,341.2L925.08,342.68L927.92,342.9L936.43,341.89L939.27,343.24L942.11,344.01L944.95,345.85L947.78,345.99L950.62,348L956.3,347.79L959.13,347.3L961.97,347.65L964.81,349.33L967.65,348.88L970.49,349.56L973.32,349.53L976.16,351L981.84,354.09L984.67,354.69L987.51,354.59L990.35,356.82L996.02,357.5L998.86,358.73L1010.21,356.44L1013.05,357.62L1021.56,361.27L1024.4,361.41L1027.24,361.96L1030.08,364.6L1035.75,366.68L1038.59,366.4L1041.43,364.74L1044.26,364.21L1047.1,362.72L1049.94,363.6L1055.62,360.17L1058.45,359.51L1061.29,358.07L1064.13,357.71L1069.8,358.01L1072.64,359.37L1075.48,361.58L1078.32,362.73L1086.83,362.36L1089.67,362.18L1092.51,363.17L1095.34,362.79L1098.18,361.9L1101.02,364.59L1103.86,366.25L1106.69,368.9L1112.37,374.17L1115.21,377.42L1120.88,382.5L1123.72,383.13L1129.4,385.71L1132.23,391.16L1135.07,391.76L1137.91,395.53L1140.75,396.61L1143.58,399.37L1146.42,403.68L1149.26,405.01L1157.77,413.7L1160.61,415.54L1163.45,420.05L1166.28,421.67L1180.47,431.33L1183.31,431.3L1186.15,431.29L1188.99,432.62L1191.82,435.08L1194.66,434.53L1197.5,433.92L1200.34,435.43L1203.17,437.62L1206.01,438.01L1211.69,441.79L1214.53,443.47L1220.2,446.31L1223.04,449.1L1228.71,449.86L1231.55,451.22L1234.39,451.82L1237.23,448.94L1240.06,445.82L1242.9,448.42L1245.74,448.43L1248.58,449.73L1251.41,445.18L1254.25,445.76L1257.09,446.52L1259.93,445.2L1265.6,442.18L1268.44,447.56L1276.95,456.6L1279.79,458.48L1285.47,462.78L1288.3,462.34L1296.82,459.07L1299.66,454.89L1305.33,450.92L1308.17,450.06L1311.01,449.34L1313.84,446.04L1316.68,447.08L1319.52,446L1322.36,445.1L1325.19,442.67L1330.87,438.98L1333.71,438.13L1336.54,437.95L1339.38,436.87L1342.22,438.37L1345.06,439.01L1347.9,440.03L1350.73,439.47L1356.41,437.45L1359.25,438.95L1362.08,437.22L1364.92,438.43L1367.76,440.93L1370.6,441.57L1373.44,443.13L1376.27,448.41L1381.95,455.22L1384.79,456.49L1387.62,458.86L1390.46,459.27L1393.3,459.03L1396.14,460.28L1398.97,460.11L1401.81,462.77L1404.65,463.08L1407.49,464.91L1410.32,465.04L1413.16,466.3L1416,468.79" style="vector-effect: none; fill: none; stroke: rgb(239, 85, 59); stroke-opacity: 1; stroke-width: 3px; opacity: 1;"/></g><g class="points"/><g class="text"/></g><g class="trace scatter tracedf14f8" style="stroke-miterlimit: 2; opacity: 1;"><g class="fills"/><g class="errorbars"/><g class="lines"><path class="js-line" d="M0,467.67L8.51,465.96L11.35,465.89L17.03,464.37L19.86,462.89L22.7,462.76L25.54,461.37L28.38,460.36L31.21,458.54L39.73,448.95L42.56,444.35L48.24,432.9L51.08,429.66L56.75,412.62L59.59,404.61L62.43,396.31L65.27,391.73L68.11,387.97L70.95,373.76L82.29,335.82L85.13,320.1L87.97,308.7L90.81,286.44L96.48,278.59L99.32,239.96L102.16,235.46L105,220L107.83,210.43L110.67,207.7L113.51,193.71L116.34,193.38L119.18,192.72L122.02,181.74L124.86,168.31L127.69,165.99L130.53,167L133.37,146.38L136.21,146.35L139.05,140.79L144.72,133.79L147.56,132.97L150.4,117.19L153.23,116.32L156.07,120.46L158.91,105.21L161.75,105.91L164.58,99.51L167.42,97.7L170.26,101.62L173.1,109.55L175.94,115.21L181.61,151.25L184.45,154.87L187.29,181.1L190.12,183.22L192.96,186.98L195.8,186.58L198.64,185.49L201.47,176.57L204.31,186.45L207.15,189.67L209.99,201.82L212.83,226.47L215.66,227.91L218.5,233.03L221.34,249.55L224.18,260.22L227.01,262.88L229.85,308.29L232.69,310.8L235.52,307.52L238.36,311.55L241.2,370.85L244.04,372.53L246.88,370.66L249.72,378.11L252.55,371.58L255.39,376.75L258.23,370.57L261.07,370.17L263.91,373.73L266.74,382.83L269.58,383.83L272.42,388.46L275.25,397.25L278.09,399.06L280.93,410.54L283.77,412.84L286.6,419.61L289.44,433.56L292.28,440.45L295.12,454.04L297.96,458.88L300.8,464.41L303.63,460.1L306.47,464.12L309.31,454.11L312.14,448.39L314.98,436.19L317.82,415.3L320.66,440.16L323.49,401.62L326.33,373.51L329.17,359.16L332.01,362.56L334.85,359.14L337.68,354.14L340.52,351.78L343.36,340.16L346.2,360.95L349.03,395.17L357.55,459.44L360.38,461.48L363.22,480.97L366.06,494.96L368.9,498.92L371.74,489.69L374.57,482.32L377.41,472.1L380.25,470.69L383.09,463.92L385.92,460.16L388.76,454.65L391.6,455.86L394.44,449.17L397.27,446.8L400.11,442.37L402.95,441.09L405.79,449.8L408.63,453.18L411.46,453.47L414.3,447.73L417.14,440.07L419.97,441.61L422.81,434.23L425.65,432.88L428.49,428.78L431.32,430.63L434.16,436.05L437,454.37L439.84,459.21L442.68,472.44L445.52,476.77L448.35,491.66L451.19,498.47L454.03,502.87L456.87,497.14L459.7,491.03L462.54,465.97L468.21,433.71L471.05,423.54L473.89,399.16L476.73,386.31L479.57,378.15L482.4,357.96L488.08,331.09L490.92,324.54L496.6,306.58L499.43,278.12L505.11,241.89L507.94,210.11L510.78,212.17L513.62,194.36L516.46,166.42L519.29,123.65L524.97,99.4L527.81,104.07L530.65,96.31L533.48,77.08L539.16,58.62L542,55.64L544.83,56.97L547.67,60.53L550.51,61.28L553.34,67.36L556.18,76.89L559.02,67L561.86,48.41L564.7,47.76L567.54,46.08L570.37,47.76L576.05,49.49L578.89,62.41L581.72,65.13L584.56,66.36L587.4,69.94L590.23,75.96L593.07,84.75L595.91,89.77L598.75,93.98L601.59,93.75L604.43,91.54L607.26,96.26L610.1,96.35L612.94,89.14L615.77,90.98L618.61,99.2L624.29,102.26L627.12,106.69L629.96,103.14L632.8,94.45L635.64,84.46L638.48,81.57L641.31,70.98L644.15,64.89L649.83,49.3L652.67,47.86L655.5,42.75L658.34,39.72L661.17,36L664.01,39.37L669.69,61.54L672.53,66.78L675.37,68.39L678.2,66.26L681.04,63.86L683.88,63.31L686.72,62.31L689.56,56.4L695.23,48.52L698.07,49.23L700.9,45.9L703.74,46.78L709.42,56.13L712.26,58.06L715.09,55.46L717.93,57.12L723.61,69.79L726.45,77.33L732.12,85.06L734.96,98.44L737.79,106.6L740.63,103.6L743.47,105.84L746.31,104.62L749.14,108.52L751.98,108.59L754.82,111.07L757.66,108L760.5,108.79L763.33,110.37L766.17,114.2L769.01,120.7L771.85,127.36L774.68,127.59L777.52,127.65L780.36,129.5L783.2,129.52L786.03,127.46L788.87,123.31L791.71,125.64L797.39,130.29L800.22,130.82L803.06,129.28L805.9,135.59L808.74,141.03L811.57,149.14L814.41,151.19L817.25,161.38L822.92,173.06L825.76,175.41L831.44,176.53L834.28,178.5L837.11,179.97L839.95,188.08L842.79,192.4L845.63,193.34L848.47,191.5L851.3,186.92L859.81,180.25L862.65,174.97L865.49,169.35L868.33,167.21L871.17,167.43L874,168.42L882.52,185.08L885.36,190.79L888.19,195.26L891.03,197.18L893.86,198.05L896.7,205.43L902.38,208.91L905.22,209.96L908.05,211.16L910.89,210.67L913.73,211.2L916.57,213.86L919.41,216.16L922.25,213.78L925.08,214.11L927.92,219.68L933.59,220.36L936.43,223.21L942.11,225.66L944.94,226.98L947.78,226.32L950.62,226.43L953.46,226.73L956.3,222.35L961.97,218.95L964.81,219.84L967.65,221.52L970.48,221.72L978.99,224.15L981.83,224.15L984.67,224.55L987.51,227.97L996.02,231.34L998.86,231.61L1004.54,231.86L1007.37,232.84L1010.21,233.5L1013.05,235.44L1015.88,236.52L1018.72,240.46L1021.56,242.94L1024.4,248.01L1030.08,256.06L1032.91,258.24L1038.59,263.07L1041.43,263.59L1044.27,265.44L1047.1,264.91L1049.94,264.84L1052.77,265.86L1055.61,269.7L1058.45,271.67L1064.13,275.93L1066.96,275.93L1069.8,276.43L1072.64,277.86L1075.48,279.31L1078.32,279.07L1081.16,278.64L1083.99,279.64L1086.83,279.68L1089.67,275.12L1095.34,272.47L1098.18,271.16L1103.85,271.67L1106.69,271.94L1115.21,272.1L1118.04,270.43L1120.88,271.64L1123.72,270.17L1126.56,271.56L1129.39,271.03L1135.07,270.93L1137.91,269.86L1143.58,269.28L1146.42,271.37L1149.26,267.88L1152.1,268L1154.93,266.24L1157.77,262.77L1163.45,260.68L1166.28,260.54L1169.12,259.7L1171.96,259.94L1174.8,260.09L1177.63,255.04L1180.47,254.68L1183.31,250.62L1186.15,250.04L1188.99,244.71L1191.82,245.32L1194.66,242.99L1200.33,242.62L1203.17,245.47L1206.01,246.27L1208.85,250.36L1211.68,253.4L1214.52,259.62L1220.2,271.45L1223.04,282.09L1225.88,285.7L1228.71,292.71L1231.55,296.56L1234.39,301.78L1240.06,305.26L1242.9,310.73L1245.74,313.62L1248.57,319.13L1257.09,336.49L1259.93,341.03L1262.76,345.79L1265.6,345.95L1268.44,349.79L1271.28,349.78L1279.79,357.24L1282.63,357.73L1291.14,360.59L1293.98,362.64L1299.65,364.2L1302.49,364.73L1308.17,366.48L1311.01,368.62L1316.68,374.25L1319.52,378.46L1330.87,389.33L1333.7,391.19L1336.54,392.05L1339.38,396.22L1345.06,399.74L1347.9,404.58L1356.41,410.84L1359.25,413.84L1362.08,416.8L1364.92,421.36L1367.76,420.56L1370.59,418.6L1373.43,417.44L1376.27,407.9L1381.95,400.81L1384.79,394.19L1387.62,385.69L1390.46,381.6L1393.3,380.08L1396.13,382.95L1398.97,386.84L1401.81,392.18L1404.65,395.52L1407.48,396.07L1413.16,396.16L1416,398.56" style="vector-effect: none; fill: none; stroke: rgb(0, 204, 150); stroke-opacity: 1; stroke-width: 3px; opacity: 1;"/></g><g class="points"/><g class="text"/></g><g class="trace scatter tracea94d42" style="stroke-miterlimit: 2; opacity: 1;"><g class="fills"/><g class="errorbars"/><g class="lines"><path class="js-line" d="M0,482.83L2.84,482.9L5.68,482.09L11.35,482.18L14.19,481.85L17.03,481.41L19.87,480.09L22.7,479.87L25.54,477.71L28.38,475.75L31.22,472.75L34.05,469.41L36.89,464.63L42.57,455.25L45.4,447.66L48.24,443.71L51.08,436.35L53.92,430.94L56.76,423.62L62.43,410.25L65.27,400.41L70.94,386.99L73.78,381.24L76.62,371.1L79.46,367.32L82.29,357.07L85.13,359.94L87.97,351.34L90.81,346.97L96.48,329.64L99.32,321.74L102.16,313.83L104.99,318.55L107.83,310.44L110.67,307.24L119.18,302.18L122.02,299.32L130.54,303.39L133.37,308.28L136.21,323.22L139.05,329.49L150.4,371.26L153.23,378.79L158.91,398.74L161.75,407.97L170.26,445.58L173.1,461.77L181.61,516.92L184.45,529.86L187.29,542.49L190.13,549.25L192.96,564.6L195.8,571.11L198.64,575.11L201.48,584.38L204.31,587.89L207.15,612.83L209.99,623.27L212.83,626.41L215.67,634.59L218.5,640.31L221.34,653.91L224.18,657.43L229.85,660.7L232.69,656.46L241.2,622.72L244.04,617.01L249.72,594.42L252.56,586.31L255.39,573.13L258.23,569.71L261.07,562.77L263.91,560.93L266.74,553.33L269.58,553.19L272.42,543.06L275.25,537.75L278.09,534.09L280.93,532.19L283.77,522.23L286.61,522.23L289.44,581.3L292.28,570.18L295.12,561.63L297.96,534.1L300.79,545.5L303.63,544.25L306.47,547.92L309.31,539.02L312.14,539.78L314.98,542.42L317.82,546.87L320.66,547.13L323.5,538.07L326.33,533.85L332.01,528.57L334.85,526.84L337.68,525.95L340.52,526.19L346.19,533.32L349.03,538.62L351.87,547.29L354.71,551.68L357.55,558.76L360.39,562.6L363.22,571.01L366.06,576.05L371.74,584.61L374.58,580.31L383.09,574.35L385.93,567.43L388.76,565.7L391.6,562.77L394.44,558.85L397.28,557.28L400.11,553.05L402.95,551.55L408.63,547.82L411.46,544.46L414.3,545.87L417.14,552.84L422.81,576.56L425.65,579.28L428.49,573.02L431.33,574.79L434.16,570.41L437,562.8L439.84,545.06L442.68,542.58L448.35,533.59L451.19,530.73L456.87,522.97L459.7,515.29L462.54,513.65L465.38,496.62L468.22,486.46L471.05,465.08L473.89,458.17L476.73,456.45L479.57,457.97L482.41,463.87L485.24,473L488.08,476.77L490.92,479.76L493.76,481.33L496.59,480.18L499.43,479.89L502.27,483.39L505.11,481.22L507.94,480.51L510.78,475.93L513.62,466.88L516.46,450.03L522.13,437.92L524.97,436.29L527.81,439.3L530.65,430.29L533.48,422.15L536.32,410.28L539.16,405.25L541.99,402.83L544.83,405.69L547.67,392.67L550.51,385.73L553.35,390.82L556.19,397.76L559.02,402.23L561.86,401.57L564.7,408.7L567.54,408.82L570.38,410.05L573.21,407.26L576.05,409.26L578.89,417.01L581.73,420.81L587.4,434.12L590.24,434.62L595.91,440.51L598.75,440.4L604.43,439.93L607.26,445.56L615.78,453.69L618.61,454.59L627.13,460.45L629.96,466.04L632.8,472.81L635.64,471.8L638.48,483.86L641.32,489.07L644.15,489.72L646.99,488L652.67,495.2L655.5,494.78L658.34,500.34L661.18,500.43L669.69,515.01L672.53,509.75L675.37,511.75L678.21,515.8L683.88,516.32L686.72,512.92L689.56,511.03L692.39,507.56L695.23,500.83L698.07,491.07L700.9,491.24L703.74,480.83L706.58,477.23L709.42,470.73L715.1,451.89L717.93,442.23L720.77,427.01L723.61,419.25L726.45,411.89L729.28,407.14L732.12,383.12L734.96,369.68L740.63,347.52L743.47,340.56L746.31,326.11L749.15,321L751.99,312.82L754.82,310.66L757.66,310.62L760.5,308.46L763.34,295.67L766.17,291.41L771.85,286.56L774.69,286.1L777.52,284.74L780.36,284.32L786.04,286.04L788.87,287.31L794.55,287.86L797.39,285.81L800.23,285.9L803.06,285.23L805.9,286.4L808.74,286.34L811.58,286.42L814.41,287.98L817.25,286.01L820.09,286.37L822.93,285.4L825.76,285.49L834.28,288.52L837.12,292.36L839.95,292.49L842.79,295.65L848.47,298.01L851.3,306.61L859.82,316.09L862.65,318.89L865.49,320.63L868.33,321.34L871.17,324.09L874,325.17L879.68,329.17L882.52,326.6L885.35,325.31L888.19,326.15L891.03,326.95L893.87,328.77L899.54,327.73L902.38,324.99L905.22,324.11L908.06,326.66L910.9,327.38L913.73,327.31L919.41,329.93L922.25,326.23L927.92,323.91L930.76,320L933.59,321.11L936.43,316.26L939.27,316.51L942.11,313.11L947.78,312.03L950.62,308.43L953.46,307.48L956.3,307.55L959.14,305.84L961.97,306.37L964.81,306.73L967.65,307.99L973.32,307.98L976.16,306.92L979,306.4L981.84,306.76L987.51,305.51L990.35,306.12L993.19,303.29L996.03,304.01L998.86,303.2L1001.7,304.57L1004.54,302.26L1007.38,302.25L1013.05,301.45L1015.89,302.35L1018.72,302.32L1021.56,303.12L1024.4,302.68L1027.24,305.35L1030.08,307.53L1032.92,308.64L1035.75,311.28L1038.59,311.54L1041.43,313.65L1044.26,314.05L1049.94,318.95L1052.78,319.18L1055.61,320.98L1058.45,326.23L1061.29,330.47L1064.13,332.88L1069.8,338.26L1072.64,341.84L1081.15,350.5L1083.99,350.21L1086.83,356.18L1089.67,358.28L1092.5,361.7L1095.34,363.63L1098.18,364.49L1101.02,367.62L1103.86,368.48L1106.69,371.52L1109.53,371.19L1112.37,372.41L1115.21,370.84L1118.04,372.57L1120.88,374.4L1123.72,372.93L1126.55,376.24L1129.39,375.21L1135.07,378.75L1137.91,380.32L1143.58,383.23L1146.42,389.49L1152.1,392.51L1154.94,391.86L1157.77,394.13L1160.61,395.42L1163.45,397.2L1166.29,397.57L1171.96,398.02L1174.8,400.46L1177.64,401.98L1180.47,404.61L1183.31,406.76L1186.15,407.15L1191.82,405.32L1194.66,405.5L1197.5,405.07L1200.34,403.08L1203.17,402.72L1206.01,403.2L1208.85,403.17L1211.69,404.42L1220.2,409.43L1223.04,409.8L1231.55,410.68L1234.39,409.88L1237.23,411.89L1240.06,410.67L1248.58,413.83L1251.41,412.55L1254.25,414.33L1257.09,412.85L1262.77,412.16L1265.6,413.09L1268.44,416.26L1271.28,416.69L1276.95,422.48L1279.79,424.98L1288.3,436.78L1291.14,436.5L1293.98,441.83L1296.82,441.67L1299.66,441.23L1302.49,429.72L1305.33,424.44L1308.17,412.14L1313.84,401.66L1316.68,386.69L1319.52,381.22L1322.35,372.57L1325.19,382.48L1328.03,379.87L1330.87,379.23L1333.71,393.73L1336.55,397.45L1339.38,402.66L1345.06,408.06L1347.9,408.76L1350.74,413.69L1353.57,420.18L1356.41,429.41L1359.25,431.78L1364.92,440.47L1367.76,444.63L1370.6,451.01L1373.43,452.73L1376.27,457.55L1379.11,459.09L1381.95,466.11L1384.79,468.44L1387.62,469.68L1390.46,473.01L1393.3,475.3L1396.14,480.95L1398.97,482.73L1401.81,482.89L1404.65,486.01L1407.49,485.01L1410.32,483.15L1413.16,482.4L1416,480.41" style="vector-effect: none; fill: none; stroke: rgb(171, 99, 250); stroke-opacity: 1; stroke-width: 3px; opacity: 1;"/></g><g class="points"/><g class="text"/></g><g class="trace scatter trace5ab7c6" style="stroke-miterlimit: 2; opacity: 1;"><g class="fills"/><g class="errorbars"/><g class="lines"><path class="js-line" d="M0,466.11L2.84,462.82L5.68,461.91L8.52,461.5L11.35,457.79L14.19,456.43L17.03,453.24L25.54,448.98L28.38,445.54L34.06,439.2L36.89,437.58L39.73,438.79L42.57,432.46L48.25,429.31L51.08,425.25L56.76,420.53L59.59,418.93L62.43,418.62L65.27,420.16L68.11,427.74L70.95,423.19L73.78,442.48L76.62,456.64L79.46,500.83L82.3,523.01L85.13,549.32L87.97,609.12L93.65,649.88L96.48,650.11L99.32,648.54L102.16,643.2L105,648.94L107.84,651.91L110.67,657.75L113.51,668.38L116.35,673.13L119.19,684L122.02,678.1L124.86,682.85L130.54,660.92L133.37,653.22L136.21,645.71L139.05,632.74L161.75,499.83L164.59,476.69L167.42,466.47L170.26,448.42L178.78,402.09L181.62,391.24L184.45,373.72L187.29,362.03L190.13,346.14L192.96,348.27L195.8,346.6L198.64,348.64L201.48,351.37L204.32,349.17L207.15,349.86L209.99,345.01L215.67,340.24L218.5,334.65L221.34,333.19L224.18,334.95L227.01,339.13L229.86,347.46L232.69,347.09L235.53,353.11L238.37,362.13L241.2,364.67L244.05,372.36L246.88,377.34L249.72,396.4L252.56,407.96L255.39,414.87L258.23,423.89L266.75,462.97L269.58,481.43L272.42,491.56L275.26,498.16L278.1,500.4L280.93,507.74L283.77,510.26L286.61,516.67L295.12,539.17L297.96,541.23L300.8,538.46L303.64,520.23L306.47,531.42L309.31,527.31L314.99,366.36L317.82,327.75L320.66,284.64L323.5,258.64L326.33,221.62L329.17,209.58L332.01,208.09L334.85,203.28L337.69,205.6L340.53,216.86L346.2,242.74L349.04,254.2L351.87,263.18L354.71,269.68L360.39,283.51L363.22,284.93L366.06,288.75L368.9,294.22L371.74,303.1L374.58,308.07L385.93,340.12L388.76,345.05L391.6,347.8L394.44,353.08L397.28,356.37L400.11,356.7L402.95,357.73L405.79,362.13L408.63,360.11L411.47,363.73L417.14,354.94L419.98,353.1L422.81,349.96L425.66,353.01L428.49,350.81L431.33,362.14L434.17,363.11L437.01,381.46L442.68,396.33L445.52,415.49L448.35,427.54L451.19,455.58L454.03,470.86L456.87,491.38L459.71,487.91L462.54,485.83L465.38,486.36L468.22,492.76L471.06,496.1L473.9,496.7L476.73,498.61L479.57,496.18L482.41,494.62L485.24,491.78L488.08,492.32L490.92,497L496.6,514.21L499.44,522.06L510.78,566.32L513.62,581.62L516.46,586.77L519.3,597.25L524.97,595.59L527.81,582.95L530.65,580.61L533.49,585L536.32,590.83L539.16,605.65L544.84,618.2L547.67,618.29L550.51,615.98L553.35,608.96L556.19,608.96L559.03,606.55L561.86,614.91L564.7,653.13L567.54,670.54L570.38,673.41L573.21,667.7L576.05,666.98L581.72,660.73L584.56,657.5L587.4,655.58L590.24,652.6L595.91,643.94L598.75,642.85L601.59,639.96L604.43,643.64L607.27,645.74L610.1,648.91L612.94,648.81L615.78,647.26L618.61,650.41L621.46,651.41L624.29,648.91L627.13,645.01L629.97,636.63L632.81,631.4L635.64,627.12L638.48,625.34L641.32,622.33L644.15,617.64L646.99,616.04L649.83,612.71L655.51,611.34L658.34,611.59L661.18,609.69L664.02,611.15L666.86,612.24L669.7,616.19L672.53,615.01L675.37,611.43L678.21,610.16L681.04,610.49L683.88,610.45L686.72,608.15L689.56,606.71L692.4,603.65L698.07,599.18L700.91,596.3L703.75,594.85L706.58,591.92L709.42,591.23L712.26,591.54L715.1,592.53L717.93,595.19L720.77,598.39L723.61,599.47L726.45,599.58L729.29,597.95L732.12,597.37L734.96,595.41L737.8,598.92L740.64,598.8L743.47,598.41L746.31,595.67L751.98,591.2L754.82,590.71L757.66,586.98L760.5,584.67L763.34,582.57L766.18,584.75L769.01,585.58L771.85,590.18L774.69,589.83L777.52,588.6L780.36,587.17L783.2,587.61L788.88,583.98L791.71,586.43L797.39,587.71L800.23,586.62L805.9,582.86L808.74,579.47L811.58,578.67L814.41,576.31L820.09,570.02L822.93,562.31L825.76,558.07L828.61,550.02L831.44,545.6L834.28,538.24L837.12,534.7L839.95,528.51L845.63,522.71L848.47,516.43L854.14,509.29L856.98,508.3L859.82,506.23L862.66,502.74L868.33,498.71L871.17,497.41L874.01,496.24L876.84,496.37L879.68,495.48L882.52,495.48L885.36,496.3L888.19,493.06L891.03,490.84L893.87,491.4L899.55,491.19L902.38,489.45L905.22,484.27L908.06,481.68L910.9,477.21L913.73,474.93L916.57,473.07L919.41,467.46L925.09,463.34L927.92,462.73L930.76,462.78L933.6,464.28L942.11,465.14L944.95,464.23L956.3,457.33L959.14,459.36L961.98,459.34L964.81,460.45L973.32,462.31L976.16,463.14L979,464.41L981.84,466.59L984.68,468.14L987.51,467.69L990.35,470.01L993.19,471.06L996.03,471.18L998.86,470.44L1001.7,470.32L1004.54,472.05L1007.37,471.84L1010.21,472.88L1013.05,472.96L1015.89,471.78L1018.73,469.69L1021.56,469.99L1024.41,470.37L1027.24,469.93L1032.92,468.85L1035.75,469.44L1041.43,472.02L1044.27,470.36L1047.11,469.73L1049.94,469.98L1055.62,472.84L1058.46,474.72L1064.13,474.57L1066.97,474.38L1072.64,474.42L1075.48,475.93L1078.32,476.23L1081.16,477.79L1084,479.49L1086.83,478.34L1092.51,478.76L1095.35,480.13L1098.18,484.71L1101.02,486.63L1103.86,488.25L1106.69,491.38L1112.37,492.09L1115.21,494.98L1120.89,497.77L1123.72,501.21L1126.56,501.84L1129.4,506.36L1135.07,505.74L1137.91,508.72L1143.58,510.82L1146.42,512.93L1149.26,511.8L1152.1,515.87L1157.77,518.44L1160.61,521.74L1163.45,523.38L1166.29,523.8L1169.12,527.21L1171.96,527.77L1174.8,529L1177.64,532.98L1180.47,533.47L1183.31,538.72L1188.99,539.01L1191.83,543.97L1197.5,545.85L1200.34,550.95L1203.17,553.12L1206.02,554.2L1208.85,561.03L1211.69,560.85L1214.53,556.23L1217.36,557.63L1220.2,555.22L1223.04,556L1225.88,557.33L1228.71,561.46L1237.23,563.72L1240.07,562.88L1242.9,561.22L1245.74,556.03L1251.42,550.11L1254.26,542L1257.09,539.01L1259.93,529.64L1262.77,528.54L1265.6,522.76L1268.44,519.2L1271.28,517.64L1274.12,515.64L1276.96,514.61L1279.8,511.97L1282.63,508.14L1285.47,497.8L1288.31,493.94L1291.14,486.96L1293.98,484.27L1296.82,482.81L1299.66,484.18L1305.33,481.92L1308.17,478.81L1311.01,472.85L1313.85,471.12L1316.68,471.34L1319.52,467.29L1322.36,462.36L1325.2,459.25L1328.03,456.41L1330.87,451.16L1336.55,450.63L1339.38,450L1342.22,448.1L1345.06,444.78L1347.9,444.25L1350.74,440.95L1353.57,438.67L1356.41,429.63L1359.25,421.2L1362.08,405.53L1367.76,383.27L1370.6,362.57L1376.27,359.12L1379.11,363.44L1384.79,368.29L1387.63,374.71L1390.46,379.06L1393.3,385.24L1396.14,390.09L1398.97,397.4L1404.65,409.84L1407.49,419.98L1410.33,425.62L1413.16,436.49L1416,440.89" style="vector-effect: none; fill: none; stroke: rgb(255, 161, 90); stroke-opacity: 1; stroke-width: 3px; opacity: 1;"/></g><g class="points"/><g class="text"/></g></g></g></g><path class="xlines-above crisp" d="M0,0" style="fill: none;"/><path class="ylines-above crisp" d="M0,0" style="fill: none;"/><g class="overlines-above"/><g class="xaxislayer-above"><g class="xtick"><text text-anchor="middle" x="0" y="841" transform="translate(243.05,0)" style="font-family: 'Open Sans', verdana, arial, sans-serif; font-size: 20px; fill: rgb(42, 63, 95); fill-opacity: 1; white-space: pre; opacity: 1;">1</text></g><g class="xtick"><text text-anchor="middle" x="0" y="841" style="font-family: 'Open Sans', verdana, arial, sans-serif; font-size: 20px; fill: rgb(42, 63, 95); fill-opacity: 1; white-space: pre; opacity: 1;" transform="translate(384.93,0)">2</text></g><g class="xtick"><text text-anchor="middle" x="0" y="841" style="font-family: 'Open Sans', verdana, arial, sans-serif; font-size: 20px; fill: rgb(42, 63, 95); fill-opacity: 1; white-space: pre; opacity: 1;" transform="translate(526.81,0)">3</text></g><g class="xtick"><text text-anchor="middle" x="0" y="841" style="font-family: 'Open Sans', verdana, arial, sans-serif; font-size: 20px; fill: rgb(42, 63, 95); fill-opacity: 1; white-space: pre; opacity: 1;" transform="translate(668.7,0)">4</text></g><g class="xtick"><text text-anchor="middle" x="0" y="841" style="font-family: 'Open Sans', verdana, arial, sans-serif; font-size: 20px; fill: rgb(42, 63, 95); fill-opacity: 1; white-space: pre; opacity: 1;" transform="translate(810.58,0)">5</text></g><g class="xtick"><text text-anchor="middle" x="0" y="841" style="font-family: 'Open Sans', verdana, arial, sans-serif; font-size: 20px; fill: rgb(42, 63, 95); fill-opacity: 1; white-space: pre; opacity: 1;" transform="translate(952.47,0)">6</text></g><g class="xtick"><text text-anchor="middle" x="0" y="841" style="font-family: 'Open Sans', verdana, arial, sans-serif; font-size: 20px; fill: rgb(42, 63, 95); fill-opacity: 1; white-space: pre; opacity: 1;" transform="translate(1094.35,0)">7</text></g><g class="xtick"><text text-anchor="middle" x="0" y="841" style="font-family: 'Open Sans', verdana, arial, sans-serif; font-size: 20px; fill: rgb(42, 63, 95); fill-opacity: 1; white-space: pre; opacity: 1;" transform="translate(1236.23,0)">8</text></g><g class="xtick"><text text-anchor="middle" x="0" y="841" style="font-family: 'Open Sans', verdana, arial, sans-serif; font-size: 20px; fill: rgb(42, 63, 95); fill-opacity: 1; white-space: pre; opacity: 1;" transform="translate(1378.12,0)">9</text></g><g class="xtick"><text text-anchor="middle" x="0" y="841" style="font-family: 'Open Sans', verdana, arial, sans-serif; font-size: 20px; fill: rgb(42, 63, 95); fill-opacity: 1; white-space: pre; opacity: 1;" transform="translate(1520,0)">10</text></g></g><g class="yaxislayer-above"><g class="ytick"><text text-anchor="end" x="103" y="7" transform="translate(0,739.54)" style="font-family: 'Open Sans', verdana, arial, sans-serif; font-size: 20px; fill: rgb(42, 63, 95); fill-opacity: 1; white-space: pre; opacity: 1;">−0.1</text></g><g class="ytick"><text text-anchor="end" x="103" y="7" style="font-family: 'Open Sans', verdana, arial, sans-serif; font-size: 20px; fill: rgb(42, 63, 95); fill-opacity: 1; white-space: pre; opacity: 1;" transform="translate(0,632.3)">−0.05</text></g><g class="ytick"><text text-anchor="end" x="103" y="7" style="font-family: 'Open Sans', verdana, arial, sans-serif; font-size: 20px; fill: rgb(42, 63, 95); fill-opacity: 1; white-space: pre; opacity: 1;" transform="translate(0,525.0699999999999)">0</text></g><g class="ytick"><text text-anchor="end" x="103" y="7" style="font-family: 'Open Sans', verdana, arial, sans-serif; font-size: 20px; fill: rgb(42, 63, 95); fill-opacity: 1; white-space: pre; opacity: 1;" transform="translate(0,417.83)">0.05</text></g><g class="ytick"><text text-anchor="end" x="103" y="7" style="font-family: 'Open Sans', verdana, arial, sans-serif; font-size: 20px; fill: rgb(42, 63, 95); fill-opacity: 1; white-space: pre; opacity: 1;" transform="translate(0,310.59000000000003)">0.1</text></g><g class="ytick"><text text-anchor="end" x="103" y="7" style="font-family: 'Open Sans', verdana, arial, sans-serif; font-size: 20px; fill: rgb(42, 63, 95); fill-opacity: 1; white-space: pre; opacity: 1;" transform="translate(0,203.35)">0.15</text></g></g><g class="overaxes-above"/></g></g><g class="polarlayer"/><g class="smithlayer"/><g class="ternarylayer"/><g class="geolayer"/><g class="funnelarealayer"/><g class="pielayer"/><g class="iciclelayer"/><g class="treemaplayer"/><g class="sunburstlayer"/><g class="glimages"/><defs id="topdefs-afb846"><g class="clips"/><clipPath id="legendafb846"><rect width="84" height="181" x="0" y="0"/></clipPath></defs><g class="layer-above"><g class="imagelayer"/><g class="shapelayer"/></g><g class="infolayer"><g class="legend" pointer-events="all" transform="translate(264.00800000000004,110.08000000000001)"><rect class="bg" shape-rendering="crispEdges" width="84" height="181" x="0" y="0" style="stroke: rgb(68, 68, 68); stroke-opacity: 1; fill: rgb(255, 255, 255); fill-opacity: 1; stroke-width: 0px;"/><g class="scrollbox" transform="" clip-path="url(#legendafb846)"><g class="groups"><g class="traces" transform="translate(0,22.1)" style="opacity: 1;"><text class="legendtext" text-anchor="start" x="40" y="9.360000000000001" style="font-family: 'Open Sans', verdana, arial, sans-serif; font-size: 24px; fill: rgb(42, 63, 95); fill-opacity: 1; white-space: pre;">1m</text><g class="layers" style="opacity: 1;"><g class="legendfill"/><g class="legendlines"><path class="js-line" d="M5,0h30" style="fill: none; stroke: rgb(99, 110, 250); stroke-opacity: 1; stroke-width: 3px;"/></g><g class="legendsymbols"><g class="legendpoints"/></g></g><rect class="legendtoggle" x="0" y="-17.1" width="78.609375" height="34.2" style="fill: rgb(0, 0, 0); fill-opacity: 0;"/></g><g class="traces" transform="translate(0,56.300000000000004)" style="opacity: 1;"><text class="legendtext" text-anchor="start" x="40" y="9.360000000000001" style="font-family: 'Open Sans', verdana, arial, sans-serif; font-size: 24px; fill: rgb(42, 63, 95); fill-opacity: 1; white-space: pre;">2m</text><g class="layers" style="opacity: 1;"><g class="legendfill"/><g class="legendlines"><path class="js-line" d="M5,0h30" style="fill: none; stroke: rgb(239, 85, 59); stroke-opacity: 1; stroke-width: 3px;"/></g><g class="legendsymbols"><g class="legendpoints"/></g></g><rect class="legendtoggle" x="0" y="-17.1" width="78.609375" height="34.2" style="fill: rgb(0, 0, 0); fill-opacity: 0;"/></g><g class="traces" transform="translate(0,90.5)" style="opacity: 1;"><text class="legendtext" text-anchor="start" x="40" y="9.360000000000001" style="font-family: 'Open Sans', verdana, arial, sans-serif; font-size: 24px; fill: rgb(42, 63, 95); fill-opacity: 1; white-space: pre;">3m</text><g class="layers" style="opacity: 1;"><g class="legendfill"/><g class="legendlines"><path class="js-line" d="M5,0h30" style="fill: none; stroke: rgb(0, 204, 150); stroke-opacity: 1; stroke-width: 3px;"/></g><g class="legendsymbols"><g class="legendpoints"/></g></g><rect class="legendtoggle" x="0" y="-17.1" width="78.609375" height="34.2" style="fill: rgb(0, 0, 0); fill-opacity: 0;"/></g><g class="traces" transform="translate(0,124.70000000000002)" style="opacity: 1;"><text class="legendtext" text-anchor="start" x="40" y="9.360000000000001" style="font-family: 'Open Sans', verdana, arial, sans-serif; font-size: 24px; fill: rgb(42, 63, 95); fill-opacity: 1; white-space: pre;">4m</text><g class="layers" style="opacity: 1;"><g class="legendfill"/><g class="legendlines"><path class="js-line" d="M5,0h30" style="fill: none; stroke: rgb(171, 99, 250); stroke-opacity: 1; stroke-width: 3px;"/></g><g class="legendsymbols"><g class="legendpoints"/></g></g><rect class="legendtoggle" x="0" y="-17.1" width="78.609375" height="34.2" style="fill: rgb(0, 0, 0); fill-opacity: 0;"/></g><g class="traces" transform="translate(0,158.9)" style="opacity: 1;"><text class="legendtext" text-anchor="start" x="40" y="9.360000000000001" style="font-family: 'Open Sans', verdana, arial, sans-serif; font-size: 24px; fill: rgb(42, 63, 95); fill-opacity: 1; white-space: pre;">5m</text><g class="layers" style="opacity: 1;"><g class="legendfill"/><g class="legendlines"><path class="js-line" d="M5,0h30" style="fill: none; stroke: rgb(255, 161, 90); stroke-opacity: 1; stroke-width: 3px;"/></g><g class="legendsymbols"><g class="legendpoints"/></g></g><rect class="legendtoggle" x="0" y="-17.1" width="78.609375" height="34.2" style="fill: rgb(0, 0, 0); fill-opacity: 0;"/></g></g></g><rect class="scrollbar" rx="20" ry="3" width="0" height="0" x="0" y="0" style="fill: rgb(128, 139, 164); fill-opacity: 1;"/></g><g class="g-gtitle"><text class="gtitle" x="800" y="50" text-anchor="middle" dy="0.7em" style="opacity: 1; font-family: 'Open Sans', verdana, arial, sans-serif; font-size: 20px; fill: rgb(42, 63, 95); fill-opacity: 1; font-weight: bold; white-space: pre;">No Yielding, Front and eHMI</text></g><g class="g-xtitle"><text class="xtitle" x="812" y="873.5" text-anchor="middle" style="opacity: 1; font-family: 'Open Sans', verdana, arial, sans-serif; font-size: 20px; fill: rgb(42, 63, 95); fill-opacity: 1; white-space: pre;">Time (in seconds)</text></g><g class="g-ytitle" transform="translate(0.296875,0)"><text class="ytitle" transform="rotate(-90,19.703125,460)" x="19.703125" y="460" text-anchor="middle" style="opacity: 1; font-family: 'Open Sans', verdana, arial, sans-serif; font-size: 20px; fill: rgb(42, 63, 95); fill-opacity: 1; white-space: pre;">Yaw Angle (in radians)</text></g></g></svg>