<svg class="main-svg" xmlns="http://www.w3.org/2000/svg" xmlns:xlink="http://www.w3.org/1999/xlink" width="4800" height="2700" style="" viewBox="0 0 1600 900"><rect x="0" y="0" width="1600" height="900" style="fill: rgb(255, 255, 255); fill-opacity: 1;"/><defs id="defs-e9fa2c"><g class="clips"><clipPath id="clipe9fa2cxyplot" class="plotclip"><rect width="1416" height="720"/></clipPath><clipPath class="axesclip" id="clipe9fa2cx"><rect x="104" y="0" width="1416" height="900"/></clipPath><clipPath class="axesclip" id="clipe9fa2cy"><rect x="0" y="100" width="1600" height="720"/></clipPath><clipPath class="axesclip" id="clipe9fa2cxy"><rect x="104" y="100" width="1416" height="720"/></clipPath></g><g class="gradients"/><g class="patterns"/></defs><g class="bglayer"><rect class="bg" x="104" y="100" width="1416" height="720" style="fill: rgb(229, 236, 246); fill-opacity: 1; stroke-width: 0;"/></g><g class="layer-below"><g class="imagelayer"/><g class="shapelayer"/></g><g class="cartesianlayer"><g class="subplot xy"><g class="layer-subplot"><g class="shapelayer"/><g class="imagelayer"/></g><g class="minor-gridlayer"><g class="x"/><g class="y"/></g><g class="gridlayer"><g class="x"><path class="xgrid crisp" transform="translate(243.05,0)" d="M0,100v720" style="stroke: rgb(255, 255, 255); stroke-opacity: 1; stroke-width: 1px;"/><path class="xgrid crisp" transform="translate(384.93,0)" d="M0,100v720" style="stroke: rgb(255, 255, 255); stroke-opacity: 1; stroke-width: 1px;"/><path class="xgrid crisp" transform="translate(526.8199999999999,0)" d="M0,100v720" style="stroke: rgb(255, 255, 255); stroke-opacity: 1; stroke-width: 1px;"/><path class="xgrid crisp" transform="translate(668.7,0)" d="M0,100v720" style="stroke: rgb(255, 255, 255); stroke-opacity: 1; stroke-width: 1px;"/><path class="xgrid crisp" transform="translate(810.58,0)" d="M0,100v720" style="stroke: rgb(255, 255, 255); stroke-opacity: 1; stroke-width: 1px;"/><path class="xgrid crisp" transform="translate(952.47,0)" d="M0,100v720" style="stroke: rgb(255, 255, 255); stroke-opacity: 1; stroke-width: 1px;"/><path class="xgrid crisp" transform="translate(1094.35,0)" d="M0,100v720" style="stroke: rgb(255, 255, 255); stroke-opacity: 1; stroke-width: 1px;"/><path class="xgrid crisp" transform="translate(1236.23,0)" d="M0,100v720" style="stroke: rgb(255, 255, 255); stroke-opacity: 1; stroke-width: 1px;"/><path class="xgrid crisp" transform="translate(1378.12,0)" d="M0,100v720" style="stroke: rgb(255, 255, 255); stroke-opacity: 1; stroke-width: 1px;"/></g><g class="y"><path class="ygrid crisp" transform="translate(0,780.23)" d="M104,0h1416" style="stroke: rgb(255, 255, 255); stroke-opacity: 1; stroke-width: 1px;"/><path class="ygrid crisp" transform="translate(0,678.7)" d="M104,0h1416" style="stroke: rgb(255, 255, 255); stroke-opacity: 1; stroke-width: 1px;"/><path class="ygrid crisp" transform="translate(0,475.66)" d="M104,0h1416" style="stroke: rgb(255, 255, 255); stroke-opacity: 1; stroke-width: 1px;"/><path class="ygrid crisp" transform="translate(0,374.13)" d="M104,0h1416" style="stroke: rgb(255, 255, 255); stroke-opacity: 1; stroke-width: 1px;"/><path class="ygrid crisp" transform="translate(0,272.61)" d="M104,0h1416" style="stroke: rgb(255, 255, 255); stroke-opacity: 1; stroke-width: 1px;"/><path class="ygrid crisp" transform="translate(0,171.09)" d="M104,0h1416" style="stroke: rgb(255, 255, 255); stroke-opacity: 1; stroke-width: 1px;"/></g></g><g class="zerolinelayer"><path class="yzl zl crisp" transform="translate(0,577.1800000000001)" d="M104,0h1416" style="stroke: rgb(255, 255, 255); stroke-opacity: 1; stroke-width: 2px;"/></g><g class="layer-between"><g class="shapelayer"/><g class="imagelayer"/></g><path class="xlines-below"/><path class="ylines-below"/><g class="overlines-below"/><g class="xaxislayer-below"/><g class="yaxislayer-below"/><g class="overaxes-below"/><g class="overplot"><g class="xy" transform="translate(104,100)" clip-path="url(#clipe9fa2cxyplot)"><g class="scatterlayer mlayer"><g class="trace scatter trace06fb74" style="stroke-miterlimit: 2; opacity: 1;"><g class="fills"/><g class="errorbars"/><g class="lines"><path class="js-line" d="M0.01,464.46L8.52,462.34L11.36,462.06L14.19,462.74L17.03,461.52L25.55,460.62L28.38,461.1L31.22,458.9L34.06,459.79L36.9,459.03L39.73,452.1L42.57,447.92L45.41,442.4L48.25,437.96L51.08,431.79L53.92,426.4L56.76,419.36L59.6,411.79L62.43,406.4L70.95,378.54L73.79,369.29L76.62,364.09L79.46,352.4L82.3,344.82L85.14,334.72L96.49,314.77L99.32,307.08L105,297.18L107.84,288.54L113.51,275.21L116.35,271.94L119.19,261.14L122.03,257.67L124.86,245.27L127.7,238.72L130.54,226.44L133.38,218.63L136.21,217.48L139.05,197.48L141.89,193.48L144.73,181.55L147.57,179.54L150.4,172.51L153.24,169.9L156.08,170.2L158.92,164.58L161.75,163.77L167.43,157.83L170.27,149.24L173.1,147.44L175.94,144.34L178.78,149.71L181.62,144.8L184.46,143.45L187.29,146.83L190.13,144.9L192.97,158.39L195.8,173.81L198.64,181.5L201.48,193.24L204.32,201.36L207.16,214.59L209.99,222.2L212.83,229.1L215.67,229.68L218.51,237.12L221.34,238.95L224.18,242.77L227.02,244.95L229.86,247L232.7,245.96L235.53,246.87L238.37,249.39L241.21,251.73L244.04,251.9L249.72,264.5L252.56,269.32L255.4,270.38L258.23,275.09L263.91,285.74L266.75,287.9L269.58,292.26L272.42,301.13L280.93,337.37L283.77,340.58L286.61,347.99L289.45,353.14L292.29,362.1L295.12,367.51L300.8,383.31L303.64,385.97L306.47,390.14L309.31,389L314.99,395.68L317.83,395.42L323.5,390.67L326.34,397.16L329.17,392.16L332.01,394.37L334.85,393.47L337.69,400.03L343.36,419.96L346.2,422.47L349.04,436.67L351.88,446.61L354.71,458.89L357.55,465.67L360.39,473.12L363.23,473.34L366.06,475.06L368.9,474.95L371.74,479.55L374.58,478.16L377.42,479.49L380.25,476.63L383.09,480.47L385.93,479.67L388.77,473.6L391.6,471.1L394.44,468.06L397.28,466.5L400.12,462.1L402.95,460.79L408.63,460.85L411.47,454.89L414.31,437.73L417.14,434.25L419.98,430.34L422.82,428.96L425.66,423.73L428.49,421.93L431.33,422.73L434.17,425.18L437.01,421.22L439.84,418.62L442.68,416.63L445.52,412.27L448.36,410.14L451.2,402.03L459.71,388.88L462.55,387.78L465.38,378.44L468.22,374.41L471.06,370.67L473.9,368.91L476.73,366.25L479.57,361.77L482.41,355.29L485.25,350.81L488.08,348.41L490.92,340.94L493.76,334.29L496.6,325.65L502.27,314.2L505.11,310.55L507.95,305.58L510.79,302.51L513.62,299.75L516.46,295.77L522.14,296.86L524.97,295.3L527.81,298.72L530.65,303.76L536.32,311.36L539.16,316.17L544.84,324.73L547.68,323.76L550.51,322.86L553.35,323.63L556.19,326.16L559.02,325.77L561.86,325.01L564.7,323.05L567.54,324L570.38,322.09L573.21,322.03L576.05,319.87L578.89,317.37L581.73,323.74L593.08,348.09L595.92,346.79L598.75,345.33L601.59,351.68L604.43,351.86L607.27,345.84L612.94,350.28L615.78,339.54L618.62,339.29L621.45,337.01L624.29,333.46L627.13,331.54L632.81,326.29L635.64,325.02L638.48,325.07L641.32,321.91L649.83,334.54L652.67,340.73L655.51,346.12L658.34,355.86L661.18,362.52L664.02,363.74L672.53,374.82L675.37,382.65L678.21,387.2L681.05,395.06L683.88,404.73L686.72,410.46L689.56,411.49L692.4,411.7L695.23,412.08L698.07,411.59L700.91,410.97L703.75,411.57L706.58,406.08L709.42,404.88L712.26,403.39L715.1,403.58L720.77,399.92L723.61,399.93L729.29,402.26L732.12,401.04L734.96,397.11L737.8,391.83L751.99,353.81L754.82,347.94L757.66,341.8L760.5,339.44L763.34,326.03L766.18,321.79L769.01,318.54L771.85,313.62L774.69,314.97L777.53,313.8L780.36,316.43L783.2,314.74L786.04,317.35L788.88,318.25L791.71,318.04L794.55,319.67L797.39,322.87L800.23,322.98L803.07,322.47L805.9,325.6L808.74,327.07L811.58,333.1L814.42,337.23L817.25,338.71L825.77,351.55L828.6,350.25L831.44,354.35L834.28,356.61L842.79,357.26L845.63,355.9L848.47,353.64L851.31,352.48L856.98,350.99L859.82,351.36L862.66,347.08L865.49,345.48L874.01,333.9L876.85,331.14L882.52,329.97L885.36,330.65L888.19,328.6L891.03,328.71L899.55,329.89L902.38,329.39L908.06,329.21L910.9,331.49L916.57,333.65L919.41,336.21L922.25,337.17L925.08,341.32L933.6,343.45L936.43,342.03L939.27,340.85L942.11,345.73L950.62,358.98L953.46,364.08L956.3,366.85L959.14,368.43L964.81,375.75L967.65,375.35L970.49,379.46L973.32,380.19L979,381.94L981.84,384.03L984.67,388.67L987.51,390.32L990.35,393.49L993.19,395.25L996.03,396.81L998.86,397.3L1004.54,402.21L1007.38,402.86L1010.22,407.56L1013.05,409.52L1015.89,411.6L1018.73,411.92L1024.4,415.23L1027.24,415.56L1030.08,416.46L1032.92,416.18L1035.75,417.26L1038.59,416.38L1041.43,416.04L1044.27,414.88L1052.78,412.73L1055.62,415L1058.46,414.47L1061.29,415.91L1064.13,414.97L1066.97,416.72L1075.48,424.19L1078.32,426.88L1081.16,431.12L1083.99,432.88L1086.83,439L1089.67,441.38L1092.51,447.05L1095.34,449.99L1101.02,456.39L1103.86,458.08L1109.53,461.97L1112.37,465.74L1118.04,470.59L1120.88,470.94L1123.72,475.82L1126.56,477.46L1129.4,478.02L1132.23,481.87L1135.07,483.14L1137.91,486.17L1140.75,487.29L1143.59,490.61L1149.26,493.72L1152.1,497.16L1154.94,497.43L1157.77,499.35L1160.61,499.01L1163.45,499.45L1166.29,499.8L1169.12,501.62L1171.96,504.6L1174.8,504.94L1183.31,509.22L1186.15,508.32L1188.99,509.45L1191.82,513L1197.5,518.51L1200.34,521.26L1203.17,524.2L1206.01,524.94L1208.85,525.88L1211.69,523.82L1214.53,525.22L1217.36,525.12L1223.04,522.02L1225.88,520.93L1228.71,521.41L1231.55,518.79L1234.39,516.24L1237.23,512.17L1240.07,510.68L1242.9,512.6L1245.74,511.8L1248.58,512.95L1254.25,507.67L1257.09,509.7L1259.93,511.66L1262.77,512.48L1265.6,516.91L1268.44,523.84L1271.28,532.41L1274.12,536.3L1276.95,534.96L1279.79,536.49L1288.31,539.42L1291.14,541.71L1293.98,539.3L1296.82,546.75L1299.66,552.82L1302.49,556.63L1305.33,559.75L1308.17,560.04L1311.01,558.94L1313.84,556.73L1322.36,528.25L1325.19,522.37L1328.03,510.15L1330.87,504.87L1333.71,499.49L1336.55,495.74L1339.38,490.64L1342.22,491.53L1345.06,492.14L1347.9,488.17L1350.73,485.08L1353.57,491.3L1356.41,495.4L1359.25,500.96L1362.08,503.98L1364.92,505.11L1367.76,510.7L1370.6,511.75L1373.44,518.05L1376.27,518.5L1384.79,525.57L1387.62,530.95L1390.46,533.24L1393.3,529.08L1396.14,527.02L1398.97,522.52L1407.49,512.1L1410.32,511.16L1416,510.5" style="vector-effect: none; fill: none; stroke: rgb(99, 110, 250); stroke-opacity: 1; stroke-width: 3px; opacity: 1;"/></g><g class="points"/><g class="text"/></g><g class="trace scatter trace27ec34" style="stroke-miterlimit: 2; opacity: 1;"><g class="fills"/><g class="errorbars"/><g class="lines"><path class="js-line" d="M0,502.01L14.19,499.85L17.03,498.8L22.7,497.57L25.54,496.71L34.06,492.76L36.89,489.9L42.57,482.69L45.41,478.01L48.24,472.14L51.08,468.01L56.75,455.36L59.6,448.03L65.27,435.57L68.11,427.84L73.78,413.95L76.62,403.48L79.46,396.11L82.3,390.84L90.81,372.25L93.65,361.45L96.48,354.52L99.32,351.7L102.16,347.72L105,333.71L107.83,332.99L110.67,326.81L116.35,305.24L119.19,292.56L124.86,270.4L127.7,262.96L130.54,250.12L133.37,244.14L136.21,231.53L139.05,227.3L141.88,214.77L144.72,210.65L147.56,207.13L150.4,200.77L153.24,201.86L156.08,190.25L158.91,193.42L161.75,184.56L164.59,187.29L167.43,181.52L173.1,186.15L175.94,192.77L178.77,200.11L181.61,210.09L184.45,219.07L187.29,234.05L190.13,248.25L192.97,267.74L198.64,294.18L201.48,305.26L204.31,312.56L207.15,323.16L209.99,328.94L212.82,331.68L215.66,335.83L218.5,345.14L221.34,355.77L224.18,361.99L229.85,362.89L232.69,361.33L235.53,358.64L238.37,358.55L241.21,354.91L244.04,352.52L246.88,353.92L249.72,347.93L255.39,340.22L258.23,338.77L261.07,335.15L263.91,332.83L266.74,335.6L269.58,331.46L272.42,331.25L275.26,324.63L278.09,330.75L280.93,342.05L286.61,358.22L289.45,358.98L295.12,361.29L297.96,364.85L300.79,362.16L303.63,366.4L306.47,354.76L309.31,354.23L312.15,356.81L314.99,352.41L317.83,349.25L320.66,343.46L323.5,353.64L326.34,371.34L329.17,377.44L332.01,379.25L334.85,376.98L337.68,359.93L343.36,348.98L346.2,344.85L349.04,343.74L351.88,336.58L357.55,334.31L360.39,340.1L366.06,337.95L368.9,340.07L371.74,351.77L374.57,359.19L377.41,368.38L380.25,373.57L383.09,377.04L385.93,376.6L391.6,375.09L394.44,369.89L397.28,363.72L400.11,355.51L402.95,362.17L405.79,358.84L408.62,350.55L411.46,337.78L417.14,321.25L419.98,313.8L428.49,286.13L431.33,280.84L439.84,254.18L442.68,248.01L445.52,240.07L448.35,229.76L454.03,213.53L456.87,209.35L459.71,205.31L462.54,207.26L465.38,205.94L468.22,207.9L473.89,224.93L476.73,230.07L479.57,232.18L482.4,239.16L485.24,236.36L488.08,226.81L490.92,220.65L493.76,205.79L496.59,199.1L499.43,187.63L502.27,184.64L505.11,184.09L507.95,183.67L510.78,179.64L513.62,178.34L516.46,182.45L519.3,196.02L522.13,202.85L524.97,208.67L527.81,218.75L530.65,222.13L533.48,228.9L539.16,234.69L542,235.98L544.84,236.2L547.68,238.9L550.51,244.99L553.35,240.81L559.02,238.77L561.86,240.07L564.7,243.58L567.53,253.46L570.37,256.12L573.21,255.19L576.05,258.38L578.89,260.08L581.73,267.69L584.56,267.62L590.24,265.72L593.07,267.57L595.91,267.97L598.75,271.71L604.42,275.02L607.26,281.42L610.1,280.4L612.94,282.27L618.62,293.12L621.45,296.39L627.13,304.09L629.96,305.06L632.8,309.65L635.64,312.55L638.47,311.25L641.31,313.48L644.15,312.91L646.99,310.79L649.83,313.66L652.67,313.72L655.5,314.37L658.34,312.66L661.18,313.76L664.02,312.93L666.85,311.03L669.69,313.67L675.37,307.12L678.2,305.56L681.04,303.38L683.88,300.04L686.72,301.55L689.56,299.97L695.23,303.37L698.07,303.86L700.91,304.25L703.74,301.48L706.58,302.42L709.42,301.34L715.09,298.54L717.93,295.02L726.44,293.01L729.28,295L732.12,296.27L734.96,298.94L737.8,300.57L740.63,303.53L743.48,304.51L746.31,308.66L749.15,309.08L751.99,304.07L754.82,300.2L757.66,301.81L763.33,305.58L766.17,305.21L769.01,302.2L771.85,304.42L774.69,305.79L777.53,304.9L780.36,304.05L783.2,300.34L786.04,297.76L788.87,296.48L794.55,296.12L797.38,296.1L803.06,296.16L805.9,297.42L808.74,294.98L811.58,293.96L814.42,297.81L817.25,294.04L820.09,293.13L822.93,293.28L825.76,293.15L828.6,292.26L837.11,289.67L839.95,289.09L845.63,291.84L848.47,292.51L851.3,293.78L854.14,296.41L859.82,296.99L862.65,297.24L868.33,295.16L871.16,295.26L876.84,294.16L879.68,294.1L882.52,295.18L885.36,300.26L888.19,302.67L891.03,303.81L896.7,302.41L899.54,303.73L908.05,308.21L910.89,308.28L913.73,311.03L916.57,311.39L930.76,311.09L933.6,308.12L939.27,309.74L942.11,308.97L947.78,306.54L950.62,307.16L953.46,306.07L956.3,309.69L964.81,314.93L967.65,318.55L970.48,320.8L973.33,321.39L979,325.43L981.84,324.87L990.35,326.45L993.18,325.29L996.02,325.7L998.86,324.79L1001.7,324.95L1004.54,325.99L1018.72,332.87L1021.56,333.54L1030.07,341.5L1032.91,342.32L1035.75,343.9L1038.59,346.72L1047.1,353.17L1049.94,354.49L1055.61,357.95L1058.45,358.24L1072.64,362.61L1075.48,364.39L1081.15,364.4L1083.99,365.25L1089.67,367.96L1092.5,370.1L1095.34,370.88L1098.18,370.8L1101.01,371.78L1103.85,374.48L1106.69,374.49L1109.53,376.78L1112.37,377.44L1115.21,380.66L1118.04,381.57L1120.88,386.03L1126.55,390.82L1129.39,394.37L1135.07,400.85L1137.9,401.08L1140.74,404.42L1143.58,406.01L1146.42,408.76L1149.26,410.24L1154.93,418.06L1157.77,420.3L1163.45,425.49L1166.28,427.69L1171.96,433.64L1174.79,435.82L1177.64,436.55L1180.47,438.21L1186.15,438.55L1188.98,437.17L1194.66,440.71L1197.5,440.46L1200.33,441.4L1203.18,440.23L1206.01,441.01L1208.85,440.82L1211.69,442.76L1214.52,443.12L1220.2,448.49L1223.03,452.89L1225.87,454.58L1228.71,459.76L1234.39,467.26L1237.23,471.29L1240.07,472.66L1242.9,474.95L1245.74,475.73L1248.58,475.3L1251.41,474.87L1254.25,470.21L1257.09,471.6L1259.92,471.32L1268.44,477.57L1271.28,481.17L1274.12,484.99L1276.95,487.05L1282.63,496.08L1285.47,498.46L1288.3,501.08L1291.14,502.59L1296.81,500.4L1299.65,489.96L1302.49,484.24L1305.33,468.15L1308.17,465.72L1311.01,461.01L1313.84,457.58L1316.68,459.51L1322.35,465.4L1325.19,471L1328.03,475.84L1330.86,483.76L1336.54,498.07L1339.38,509.86L1345.06,528.45L1347.89,531.09L1350.73,531.35L1353.57,530.12L1359.25,527.64L1362.08,528.07L1364.92,531.57L1367.76,531.38L1370.59,536.33L1373.43,536.4L1376.27,537.61L1379.11,536.04L1381.95,533.64L1384.78,533.61L1387.62,533.75L1390.46,530.05L1393.3,526.26L1396.13,520.13L1398.97,515.6L1401.81,509.16L1404.64,500.88L1407.49,495.83L1410.32,490.37L1413.16,489.66L1416,490.4" style="vector-effect: none; fill: none; stroke: rgb(239, 85, 59); stroke-opacity: 1; stroke-width: 3px; opacity: 1;"/></g><g class="points"/><g class="text"/></g><g class="trace scatter trace5af2f2" style="stroke-miterlimit: 2; opacity: 1;"><g class="fills"/><g class="errorbars"/><g class="lines"><path class="js-line" d="M0.01,527.83L5.68,525.88L8.52,524.34L11.36,522.94L14.19,522.72L17.03,522.05L19.87,520.52L31.22,516.73L34.06,516.74L36.9,515.77L39.73,513.37L45.41,511.05L48.25,507.74L51.08,502.62L53.92,500.29L59.59,489.18L62.43,480.3L68.11,461.44L70.95,455.25L76.62,440.17L79.46,426.98L85.14,412.73L87.97,408.61L90.81,407.92L93.65,408.67L96.48,409.74L99.32,416.31L102.16,416.03L105,423.11L107.84,414.17L110.67,417.59L116.35,431.23L119.19,431.2L124.86,429.71L127.7,423.82L133.37,422.06L136.21,415.38L141.89,383.92L144.73,377.58L153.24,353.99L156.08,340.86L158.92,327.78L161.75,321.13L164.59,319.84L167.43,297.93L173.11,281.96L175.94,269.92L178.78,258.81L181.61,260.25L184.45,265.19L187.29,283.45L190.13,298.29L192.97,306.34L195.81,318.6L198.64,320.18L201.48,326.07L204.32,322.31L207.16,314.2L209.99,321.13L212.83,326.79L215.67,343.61L221.34,380.15L224.18,396.7L227.02,403.13L229.86,415.03L232.69,422.51L235.53,427.72L238.37,434.99L241.21,449.64L244.05,453.4L246.88,462.43L249.72,465.48L252.56,471.14L255.39,470.14L258.23,475.62L261.07,480.07L263.91,481.91L266.75,487.01L269.58,489.21L272.42,495.6L275.26,499.53L278.1,503.05L280.93,497.77L283.77,502.43L286.61,512.35L289.45,502.23L292.28,485.01L297.96,459.51L300.8,454.89L303.64,466.16L306.47,463.69L309.31,466.98L312.15,484.75L314.99,496.91L317.82,512.54L320.66,519.1L323.5,517.03L326.33,512.44L329.17,500.44L332.01,487.14L334.85,480.57L337.69,471.83L340.52,472.05L343.36,469.22L346.2,461.51L351.88,468.37L354.71,462.2L357.55,461.48L360.39,470.46L363.23,486.97L366.06,496.55L368.9,496.21L371.74,492.62L374.58,494.22L377.41,502.58L380.25,509.32L383.09,520.1L385.93,521.41L388.77,533.49L394.44,545.05L397.28,544.52L400.11,542.81L402.96,537.67L405.79,547.99L408.63,543.06L411.46,540.09L414.3,539.63L417.14,539.55L419.98,536.92L425.66,531.91L428.49,550L431.33,546.64L434.17,560.73L439.84,546.14L442.68,541.77L445.52,534.35L448.35,529.15L451.19,526.67L454.03,539.51L456.87,553.02L459.71,553.55L462.54,562.98L465.38,585.31L468.22,589.92L471.06,596.95L473.9,599.95L476.73,610.59L479.57,609.61L482.41,611.01L488.08,603.47L490.92,602.48L496.6,585.04L499.43,569.55L502.27,564.4L505.11,552.64L507.95,548.62L510.78,535.13L513.62,524.94L516.46,511.33L519.3,505.65L522.13,485.73L524.97,481.07L527.81,478.66L530.65,471.42L533.49,470.79L536.32,472.55L539.16,471.09L542,470.36L544.84,466.96L547.67,464.17L550.51,456.02L553.35,460.68L556.18,456.57L561.86,448.88L564.7,448.38L573.21,435.02L576.05,433.6L578.89,435.59L581.73,438.76L584.56,433.45L587.4,431.63L590.24,434.06L593.08,433.75L598.75,429.19L601.59,428.27L604.43,429.72L607.26,429.19L610.1,425.92L612.94,424.74L618.62,429.81L621.46,430.97L624.29,432.96L627.13,433L638.48,435.31L641.32,433.15L644.15,432.78L646.99,430.75L649.83,427.09L652.67,429.79L655.51,431.04L658.34,430.9L661.18,434.26L664.02,434.86L666.86,436.05L669.7,438.99L675.37,436.57L678.21,438.07L681.04,438.25L683.88,434.96L689.56,431.83L692.4,428.34L695.23,423.26L698.07,420.55L700.91,422.93L703.75,423.19L706.58,424.42L709.42,424.11L712.26,426.01L715.1,425.28L717.93,425.37L720.77,424.11L732.12,412.53L734.96,407.09L737.8,404.94L740.64,401.58L743.47,399.49L746.31,395.63L749.15,394.32L751.98,391.46L757.66,390.35L760.5,389.86L774.69,395.89L777.53,394.86L780.36,394.6L783.2,395.78L786.04,396.9L788.88,400.84L791.71,401.84L794.55,403.98L797.39,404.87L800.23,406.76L803.06,406.38L805.9,407.32L808.74,406.94L811.58,407.8L814.41,408.25L817.25,409.86L820.09,411.04L822.93,411.12L825.76,411.59L828.6,414.01L831.44,413.55L834.28,410.92L837.11,410.83L839.95,408.48L842.79,408.21L845.63,406.72L848.47,403.46L851.31,404.56L854.14,404.18L856.98,404.99L859.82,406.55L862.66,406.33L865.49,406.8L868.33,405.64L876.84,401.81L879.68,401.54L882.52,400.57L885.36,398.15L891.03,397.28L893.87,396.08L896.71,397.11L899.55,396.74L905.22,395.32L908.06,391.94L910.89,389.97L913.73,390.04L925.08,388.59L927.92,388.73L933.6,389.46L936.43,387.15L942.11,386.63L944.95,386.02L947.78,385.81L950.62,384.09L956.3,383.12L959.14,384.16L961.97,385.21L964.81,384.93L970.49,382.95L973.32,383.31L979,384.82L981.83,383.22L984.67,382.54L987.51,383.19L990.35,383.26L993.19,382.37L996.02,382.89L998.86,382.56L1001.7,382.98L1004.54,381.34L1007.38,379.41L1010.21,376.35L1015.89,378.68L1018.73,380.01L1021.56,381.81L1024.4,388.07L1035.75,391.44L1038.59,393.4L1041.43,394.79L1044.26,394.82L1049.94,396.93L1052.78,402.45L1055.61,402.92L1058.45,405.92L1061.29,409.63L1064.13,411.95L1069.8,419.47L1072.64,422.02L1081.16,430.99L1083.99,435.98L1101.02,454.6L1103.86,456.15L1106.69,457.48L1109.53,463.14L1112.37,465.14L1115.21,469.26L1129.4,489.83L1132.23,491.09L1137.91,497.4L1140.75,499.8L1143.58,500.55L1146.42,502.34L1152.1,504.04L1154.94,506.36L1157.77,508.09L1160.61,512.76L1163.45,516.34L1166.29,521.96L1169.12,528.1L1171.96,529.81L1174.8,529.6L1177.63,526.94L1183.31,527.88L1186.15,527.3L1191.82,524.45L1194.66,518.66L1200.34,513.64L1203.18,507.76L1206.01,505.72L1208.85,499.26L1211.69,497.06L1214.53,498.04L1220.2,494.02L1223.04,496.09L1225.88,494.13L1228.71,500.21L1231.55,500.81L1234.39,498.01L1237.23,496.3L1240.06,492.38L1242.9,491.39L1245.74,487.68L1248.58,487.2L1251.41,485.47L1254.25,485.48L1257.09,484.38L1259.93,487.02L1262.76,484.9L1265.6,484.45L1268.44,486.28L1271.28,485.31L1274.12,485.25L1276.96,486.13L1279.79,487.84L1282.63,490.18L1285.47,489.26L1288.3,491.16L1291.14,501.22L1299.65,504.87L1302.49,505.75L1305.33,507.37L1308.17,507.9L1311.01,510.92L1313.84,510.89L1319.52,512.2L1322.36,518.83L1330.87,516.68L1333.71,518.12L1336.54,521.03L1339.38,520.85L1342.22,522.79L1345.06,523.21L1347.9,521.73L1350.73,522.43L1353.57,527.97L1356.41,527.39L1364.92,523.99L1367.76,521.95L1370.6,521.02L1373.43,518.4L1379.11,517.14L1381.95,517.39L1384.79,520.8L1387.62,519.48L1390.46,519.7L1393.3,518.66L1396.14,518.24L1398.97,516.04L1401.81,515.55L1404.65,519.76L1407.48,524.3L1410.32,526.1L1413.16,536.47L1416,539.47" style="vector-effect: none; fill: none; stroke: rgb(0, 204, 150); stroke-opacity: 1; stroke-width: 3px; opacity: 1;"/></g><g class="points"/><g class="text"/></g><g class="trace scatter trace389530" style="stroke-miterlimit: 2; opacity: 1;"><g class="fills"/><g class="errorbars"/><g class="lines"><path class="js-line" d="M0.01,684L5.68,681.44L8.52,680.25L17.03,678.4L19.87,678.49L22.71,678.22L25.54,676.31L28.38,672.91L31.22,671.63L34.06,665.46L36.9,662.84L39.73,653.74L42.57,649.62L45.41,636.71L48.25,638.82L51.08,637.39L53.92,616.13L56.76,610.78L59.6,599.16L62.44,590.44L65.27,578.57L68.11,569.92L70.95,558.01L76.62,549.28L79.46,530.02L82.3,518.62L85.14,497.83L93.65,461.27L96.49,453.92L105,429.5L107.84,427.07L110.67,421.9L113.51,408.7L119.19,387.22L122.03,381.01L130.54,348.24L133.38,344.1L136.22,338.03L139.05,330L141.89,329.21L144.73,321.66L147.56,318.33L150.4,313.25L156.08,312.39L158.91,309.57L161.75,307.52L164.59,301.97L167.43,303.09L170.27,306.03L175.94,283.31L178.78,277L181.62,269.34L184.45,267.26L187.29,265.47L190.13,268.2L192.97,271.91L195.8,277.19L201.48,282.91L204.32,289.81L207.16,292.42L209.99,293.79L212.83,295.59L215.67,298.44L218.5,297.63L221.34,294.68L224.18,287.59L227.02,284.23L229.86,278.63L232.7,280.94L235.53,291.71L238.37,292.29L241.21,290.33L244.05,282.7L246.88,287.39L249.72,294.63L252.56,290.63L255.39,288.04L261.07,281.58L263.91,283.15L266.75,283.94L269.58,288.96L272.42,286L275.26,288.89L280.93,293.98L283.77,295.99L286.61,303.76L289.45,302.74L292.29,302.91L295.12,301.07L297.96,304.1L300.8,309.88L303.64,310.2L306.47,313.86L309.31,313.84L312.15,317.55L314.99,320.35L317.82,321.35L320.66,314.73L323.5,317.93L326.34,317.76L329.17,322.79L332.01,328.95L334.85,316.51L337.69,318.26L340.53,315.22L346.2,310.46L349.04,312.75L351.88,317.76L354.71,319.22L357.55,324.77L360.39,332.86L363.23,337.8L366.07,346.03L368.9,347.52L371.74,353.47L374.58,364.51L377.42,367.43L380.25,375.88L383.09,378.78L385.93,383.07L388.76,382.29L391.6,380.58L394.44,380.75L397.28,378.97L400.12,375.64L402.95,374.38L405.79,378.22L408.63,376.57L411.47,372.63L414.3,372.07L417.14,373.66L419.98,376.26L422.82,376.66L425.65,373.75L428.49,374.5L434.17,377.83L437.01,378.05L439.84,384.36L442.68,387.23L445.52,390.62L448.36,391.85L451.19,389.49L454.03,388.86L456.87,383.99L459.71,381.69L465.38,373.9L468.22,373.9L471.06,371.59L473.9,367.68L476.73,363.77L479.57,361.74L482.41,359.04L485.25,359.34L488.08,361.42L490.92,366.44L493.76,365.27L496.6,366.24L499.43,365.81L502.27,366.42L505.11,368.46L507.95,366.23L510.78,367.68L513.62,368.28L516.46,372.64L519.3,375.45L522.14,372.72L524.97,371.59L527.81,374.2L530.65,373.29L539.16,369.42L542,369.68L544.84,368.96L547.68,371L550.51,372.68L553.35,371.2L556.19,370.98L559.03,372.11L564.7,373.57L567.54,373.06L570.38,373.41L573.21,374.93L576.05,374.4L578.89,372.58L581.73,372.94L584.56,372.09L587.4,375.1L590.24,375.36L595.92,377.43L598.75,377.84L601.59,379.46L604.43,379.94L610.1,381.1L612.94,380.29L615.78,380.26L618.62,381.72L621.45,382.06L624.29,386.51L632.81,394.26L635.64,396.41L641.32,396.36L644.15,397.45L646.99,397.09L649.83,395.67L652.67,395.95L655.51,397.1L658.35,396.75L661.18,400.94L666.86,402.16L669.7,404.32L672.53,405.48L675.37,408.16L678.21,407.64L681.04,406.25L683.88,407.05L686.72,407L689.56,406.79L692.4,408.37L695.23,408.04L698.07,409.19L700.91,412.57L703.75,414.72L709.42,416.21L712.26,418.93L715.1,425.03L717.94,428.77L720.77,430.43L723.61,431.03L726.45,436.82L729.29,438.36L732.12,436.11L734.96,437.22L740.64,436.26L743.47,438.64L749.15,437.84L751.99,435.56L754.82,435.97L757.66,435.09L760.5,432.72L763.34,433.83L766.18,435.68L769.01,436.12L771.85,437.15L774.69,436.57L777.53,436.27L780.36,437.64L783.2,440.41L786.04,442.05L788.88,443.74L791.71,446.65L797.39,454.94L800.23,456.67L805.9,460.21L808.74,461.21L811.58,462.7L814.41,462.07L822.93,464.08L825.77,462.95L834.28,464.84L837.12,463.72L839.95,463.68L842.79,461.75L845.63,461.16L848.47,461.47L851.3,462.05L854.14,463.48L862.66,469L865.49,469.92L868.33,473.57L871.17,474.51L874.01,477.55L876.84,479.08L879.68,478.63L882.52,480.63L888.2,478.66L891.03,478.38L896.71,476.51L899.55,475.97L902.38,477.44L905.22,477.89L908.06,477.71L910.9,479.26L916.57,479.92L919.41,480.8L922.25,482.33L925.08,482.52L930.76,483.02L933.6,484.55L944.95,484.73L947.79,484.11L950.62,483.76L953.46,482.44L959.14,482.76L961.97,484.18L967.65,483.59L970.49,485.17L981.84,485.96L984.68,484.01L990.35,482.32L993.19,481.02L996.03,478.31L998.86,477.07L1004.54,477.36L1007.38,476.76L1018.73,479.96L1021.56,480.89L1024.4,481.7L1027.24,481.7L1030.08,483.18L1032.91,483.74L1035.75,484.78L1038.59,482.9L1044.27,479.78L1047.1,476.57L1049.94,476.05L1052.78,476.98L1066.97,486.71L1069.8,489.43L1078.32,490L1081.15,488.86L1083.99,490.1L1086.83,490L1092.51,487.32L1095.34,489.36L1098.18,489.03L1101.02,490.86L1103.86,491.11L1106.69,492.34L1115.21,497.63L1118.05,499.42L1120.88,499.81L1123.72,501.29L1126.56,502.58L1129.4,506.02L1137.91,512.43L1140.75,518.34L1146.42,521.97L1149.26,525.58L1157.77,537.85L1160.61,543.61L1163.45,547.01L1166.29,551.97L1169.12,554.69L1171.96,553.96L1174.8,557.91L1177.64,550.34L1180.47,549.14L1183.31,539.56L1186.15,538.24L1188.99,528.92L1194.66,523.53L1197.5,523.26L1203.18,532.42L1206.01,534.63L1208.85,534.68L1211.69,528.31L1214.53,524.67L1217.36,519.04L1220.2,517.22L1223.04,511.76L1228.71,512.81L1231.55,515.94L1234.39,516.35L1237.23,519.34L1240.06,524.72L1242.9,526.94L1245.74,528.62L1248.58,531.62L1251.42,533.5L1254.25,533.35L1259.93,535.59L1262.77,539.43L1265.6,539.57L1268.44,540.77L1271.28,539.26L1274.12,540.38L1276.95,541.17L1279.79,544.31L1282.63,547.39L1285.47,548.43L1288.31,550.52L1291.14,548.23L1293.98,546.1L1296.82,546.88L1299.66,547.15L1302.49,545.57L1308.17,547.28L1311,548.08L1313.84,549.09L1316.68,547.26L1319.52,548.65L1322.36,546.01L1325.19,547.15L1328.03,546.55L1330.87,545.9L1333.71,543.51L1336.54,540.58L1339.38,540.35L1345.06,537.29L1347.9,536.19L1350.73,539.24L1353.57,536.88L1356.41,538.4L1359.25,538.01L1362.08,535.27L1364.92,533.82L1367.76,529.48L1370.6,520.95L1373.43,517.85L1376.27,517L1379.11,515.37L1381.95,515.8L1384.79,520.95L1387.62,523.44L1390.46,529.42L1393.3,531.31L1401.81,532.93L1404.65,531.29L1407.49,530.45L1410.33,528.02L1413.16,527.45L1416,521.48" style="vector-effect: none; fill: none; stroke: rgb(171, 99, 250); stroke-opacity: 1; stroke-width: 3px; opacity: 1;"/></g><g class="points"/><g class="text"/></g><g class="trace scatter trace461312" style="stroke-miterlimit: 2; opacity: 1;"><g class="fills"/><g class="errorbars"/><g class="lines"><path class="js-line" d="M0.01,492.3L2.84,489.04L5.68,487.24L8.52,483.3L11.36,481.15L14.2,477.23L17.03,474.62L19.87,472.03L22.71,467.47L25.55,464.59L28.38,460.03L31.22,458.2L34.06,454.29L36.9,451.6L39.73,447.88L42.57,442.78L45.41,439.49L48.25,434.45L51.08,433.86L53.92,420L56.76,415.35L59.6,406.82L62.43,404.92L65.27,402.25L68.11,398.4L70.95,395.74L73.79,394.96L79.46,397.47L82.3,404.24L85.14,405.99L87.97,400.07L90.81,398.16L93.65,384.64L99.32,364.39L102.16,351.64L105,342.25L107.84,323.01L119.19,279.82L122.03,275.93L127.7,248.36L130.54,241.97L136.21,217.07L139.05,210.38L141.89,204.08L144.73,190.23L147.56,180.58L150.4,162.2L153.24,146.91L156.08,138.36L158.92,124.53L161.75,117.4L164.59,96.1L167.43,90.88L170.27,75.92L173.1,70.3L178.78,49.96L181.62,39.8L184.46,40.53L187.29,36L195.81,52.93L198.64,60.9L201.48,64.22L204.32,72.61L207.16,73.88L209.99,85.34L218.51,116.86L221.34,134.89L224.18,151.2L227.02,163.07L232.69,193.75L235.53,200.71L238.37,198.44L241.21,201.55L244.05,203.57L246.88,197.39L249.72,202.93L252.56,206.51L258.23,206.65L261.07,207.76L263.91,180.68L266.75,169.9L272.42,138.44L275.26,134.37L278.1,134.32L280.93,141.6L286.61,145.96L289.45,143.25L295.12,168.24L297.96,178.2L300.8,184.2L303.64,199.77L312.15,249.07L314.99,260.53L320.66,283.85L323.5,301.25L329.18,322.4L332.01,338.94L334.85,346.35L337.69,369.23L340.53,382L343.36,401.62L346.2,416.77L349.04,424.3L351.88,431.67L354.71,436L360.39,430.67L363.23,429.94L366.07,429.67L368.9,425.33L371.74,416.09L374.58,422.68L377.42,415.94L380.25,413.86L383.09,409.98L385.93,409.73L388.77,411.71L391.6,407.01L394.44,414.52L397.28,409.22L400.12,410.91L402.95,402.58L405.79,397.37L408.63,395.41L414.31,373.96L417.14,369.33L419.98,363.77L422.82,360.95L425.66,359.44L428.49,358.96L431.33,360.36L434.17,360.79L437.01,355.67L439.84,355.57L442.68,349.38L445.52,351.95L448.36,345.74L451.2,341.42L454.03,336.21L456.87,338.99L459.71,340.41L462.54,335.87L465.38,338.73L468.22,328.95L471.06,324.86L473.9,316.13L479.57,307.17L482.41,296.15L485.25,289.62L488.08,279.26L490.92,280.6L493.76,279.07L496.6,280.71L499.43,279.37L502.27,269.39L505.11,268.41L507.95,252.94L510.79,242.32L513.62,211.71L516.46,204.56L519.3,192.02L522.14,184.56L527.81,173.3L530.65,175.43L536.32,178.56L539.16,188.22L542,189.07L544.84,196.51L547.68,195.31L550.51,197.42L553.35,213.5L556.19,215.61L559.03,228.71L561.86,236.18L564.7,255.04L567.54,264.6L570.38,278.82L573.21,288.06L576.05,293.76L578.89,303.73L581.73,309.41L584.57,313L587.4,310.16L590.24,309.29L593.08,301.01L595.92,285.82L598.75,283.85L601.59,271.72L604.43,267.8L607.27,259.71L612.94,245.92L615.78,246.04L618.62,251.36L621.45,260.77L624.29,273.01L627.13,292.15L629.97,303.33L632.81,320.39L635.64,330.26L638.48,333.28L641.32,336.8L644.16,333.64L646.99,335.76L649.83,336.43L652.67,329.84L655.51,330.93L658.34,331.58L661.18,336.02L666.86,338.73L669.69,339.95L672.53,339.04L675.37,350.25L678.21,365.62L681.05,371.25L683.88,368.73L686.72,368.6L689.56,366.77L692.4,363.59L695.23,359.22L698.07,351.26L700.91,348.56L703.75,340.46L706.58,334.5L709.42,326.63L712.26,323.21L715.1,321.48L717.94,312.29L720.77,308.39L723.61,309.64L726.45,308.18L729.29,307.34L732.12,309.32L734.96,308.68L737.8,312.22L743.48,317.31L746.31,321.52L749.15,335.92L751.99,342.37L754.83,352.13L757.66,355.69L760.5,359.14L763.34,366.06L766.18,365.42L769.01,365.94L771.85,369.08L774.69,370.7L780.36,383.56L783.2,387.79L788.88,397.98L791.71,394.42L797.39,397.96L800.23,401.38L803.07,414.98L805.9,409.52L811.58,407.66L814.42,408.43L820.09,415.18L822.93,418.55L825.77,418.04L828.6,420.63L834.28,424.68L837.12,424.14L839.95,423.72L842.79,420.78L854.14,403.87L856.98,404.86L859.82,402.75L862.66,405.28L865.49,408.83L868.33,410.98L871.17,412.06L874.01,415.89L879.68,419.09L882.52,421.84L896.71,442.07L899.55,442.5L905.22,441.33L908.06,439.23L910.9,434.4L913.73,433.05L919.41,429.32L922.25,428.54L925.08,427.46L927.92,427.21L933.6,424.57L936.44,422.19L942.11,416.68L944.95,415.34L950.62,412.68L953.46,410.14L961.97,404.9L964.81,404.09L967.65,403.98L970.49,406.71L976.16,408.84L979,411.65L984.68,413.87L987.51,415.37L990.35,418.01L993.19,419.27L998.86,420.66L1001.7,420.05L1004.54,420.93L1007.38,423.57L1013.05,423.03L1015.89,423.84L1018.73,425.11L1021.56,424.77L1024.4,426.39L1027.24,426.37L1030.08,426.16L1032.92,427.28L1035.75,429.06L1038.59,432.99L1041.43,435.61L1044.27,436.77L1049.94,439.51L1052.78,437.74L1058.45,440.76L1061.29,442.25L1064.13,443.61L1066.97,447.03L1072.64,452.79L1075.48,453.27L1078.32,452.16L1081.16,453.68L1083.99,453.77L1086.83,455.29L1089.67,454.33L1092.51,452.33L1095.34,456.04L1098.18,457.5L1101.02,459.28L1103.86,459.92L1112.37,461.44L1115.21,461.42L1118.05,459.53L1120.88,459.51L1123.72,457.23L1126.56,456.98L1132.23,444.62L1135.07,425.32L1137.91,420.15L1140.75,416.63L1143.59,416.54L1146.42,418.5L1152.1,424.16L1154.94,428.8L1157.77,433.42L1160.61,435.96L1163.45,440.96L1166.29,443.33L1169.12,444.01L1171.96,446.37L1174.8,446.47L1177.64,448.24L1180.48,448.21L1183.31,449.89L1186.15,453.4L1188.99,454.84L1191.83,458.47L1194.66,456.77L1203.18,463.43L1206.01,464.74L1208.85,464.03L1211.69,465.02L1214.53,464.95L1217.36,466.97L1223.04,464.96L1225.88,454.77L1228.71,454.67L1231.55,447.08L1234.39,448.33L1237.23,452.07L1240.07,452.04L1242.9,453.65L1245.74,453.25L1248.58,457.15L1251.42,460.05L1254.25,465.84L1262.77,488.04L1265.6,492.88L1271.28,505.5L1274.12,514.5L1279.79,526.19L1282.63,534.46L1285.47,541.78L1288.31,551.77L1291.14,557.42L1293.98,565.01L1299.66,572.82L1302.49,574.71L1311.01,595.47L1313.84,607.14L1319.52,620.75L1322.36,624.38L1325.2,627.86L1328.03,629.16L1330.87,629.71L1333.71,625.31L1336.55,622.06L1339.38,623.25L1342.22,620.04L1345.06,621.32L1347.9,617.97L1350.73,611.25L1353.57,611.4L1356.41,610.04L1359.25,606.23L1362.09,604.91L1364.92,606.86L1367.76,599.75L1370.6,598.31L1373.44,590.01L1376.27,591.62L1379.11,581.19L1381.95,580.61L1384.79,570.43L1387.62,565.81L1390.46,556.26L1393.3,557.09L1396.14,560.91L1401.81,567.93L1404.65,568.74L1407.49,570.01L1410.33,565.1L1413.16,565.43L1416,563.1" style="vector-effect: none; fill: none; stroke: rgb(255, 161, 90); stroke-opacity: 1; stroke-width: 3px; opacity: 1;"/></g><g class="points"/><g class="text"/></g></g></g></g><path class="xlines-above crisp" d="M0,0" style="fill: none;"/><path class="ylines-above crisp" d="M0,0" style="fill: none;"/><g class="overlines-above"/><g class="xaxislayer-above"><g class="xtick"><text text-anchor="middle" x="0" y="841" transform="translate(243.05,0)" style="font-family: 'Open Sans', verdana, arial, sans-serif; font-size: 20px; fill: rgb(42, 63, 95); fill-opacity: 1; white-space: pre; opacity: 1;">1</text></g><g class="xtick"><text text-anchor="middle" x="0" y="841" style="font-family: 'Open Sans', verdana, arial, sans-serif; font-size: 20px; fill: rgb(42, 63, 95); fill-opacity: 1; white-space: pre; opacity: 1;" transform="translate(384.93,0)">2</text></g><g class="xtick"><text text-anchor="middle" x="0" y="841" style="font-family: 'Open Sans', verdana, arial, sans-serif; font-size: 20px; fill: rgb(42, 63, 95); fill-opacity: 1; white-space: pre; opacity: 1;" transform="translate(526.8199999999999,0)">3</text></g><g class="xtick"><text text-anchor="middle" x="0" y="841" style="font-family: 'Open Sans', verdana, arial, sans-serif; font-size: 20px; fill: rgb(42, 63, 95); fill-opacity: 1; white-space: pre; opacity: 1;" transform="translate(668.7,0)">4</text></g><g class="xtick"><text text-anchor="middle" x="0" y="841" style="font-family: 'Open Sans', verdana, arial, sans-serif; font-size: 20px; fill: rgb(42, 63, 95); fill-opacity: 1; white-space: pre; opacity: 1;" transform="translate(810.58,0)">5</text></g><g class="xtick"><text text-anchor="middle" x="0" y="841" style="font-family: 'Open Sans', verdana, arial, sans-serif; font-size: 20px; fill: rgb(42, 63, 95); fill-opacity: 1; white-space: pre; opacity: 1;" transform="translate(952.47,0)">6</text></g><g class="xtick"><text text-anchor="middle" x="0" y="841" style="font-family: 'Open Sans', verdana, arial, sans-serif; font-size: 20px; fill: rgb(42, 63, 95); fill-opacity: 1; white-space: pre; opacity: 1;" transform="translate(1094.35,0)">7</text></g><g class="xtick"><text text-anchor="middle" x="0" y="841" style="font-family: 'Open Sans', verdana, arial, sans-serif; font-size: 20px; fill: rgb(42, 63, 95); fill-opacity: 1; white-space: pre; opacity: 1;" transform="translate(1236.23,0)">8</text></g><g class="xtick"><text text-anchor="middle" x="0" y="841" style="font-family: 'Open Sans', verdana, arial, sans-serif; font-size: 20px; fill: rgb(42, 63, 95); fill-opacity: 1; white-space: pre; opacity: 1;" transform="translate(1378.12,0)">9</text></g><g class="xtick"><text text-anchor="middle" x="0" y="841" style="font-family: 'Open Sans', verdana, arial, sans-serif; font-size: 20px; fill: rgb(42, 63, 95); fill-opacity: 1; white-space: pre; opacity: 1;" transform="translate(1520,0)">10</text></g></g><g class="yaxislayer-above"><g class="ytick"><text text-anchor="end" x="103" y="7" transform="translate(0,780.23)" style="font-family: 'Open Sans', verdana, arial, sans-serif; font-size: 20px; fill: rgb(42, 63, 95); fill-opacity: 1; white-space: pre; opacity: 1;">−0.1</text></g><g class="ytick"><text text-anchor="end" x="103" y="7" style="font-family: 'Open Sans', verdana, arial, sans-serif; font-size: 20px; fill: rgb(42, 63, 95); fill-opacity: 1; white-space: pre; opacity: 1;" transform="translate(0,678.7)">−0.05</text></g><g class="ytick"><text text-anchor="end" x="103" y="7" style="font-family: 'Open Sans', verdana, arial, sans-serif; font-size: 20px; fill: rgb(42, 63, 95); fill-opacity: 1; white-space: pre; opacity: 1;" transform="translate(0,577.1800000000001)">0</text></g><g class="ytick"><text text-anchor="end" x="103" y="7" style="font-family: 'Open Sans', verdana, arial, sans-serif; font-size: 20px; fill: rgb(42, 63, 95); fill-opacity: 1; white-space: pre; opacity: 1;" transform="translate(0,475.66)">0.05</text></g><g class="ytick"><text text-anchor="end" x="103" y="7" style="font-family: 'Open Sans', verdana, arial, sans-serif; font-size: 20px; fill: rgb(42, 63, 95); fill-opacity: 1; white-space: pre; opacity: 1;" transform="translate(0,374.13)">0.1</text></g><g class="ytick"><text text-anchor="end" x="103" y="7" style="font-family: 'Open Sans', verdana, arial, sans-serif; font-size: 20px; fill: rgb(42, 63, 95); fill-opacity: 1; white-space: pre; opacity: 1;" transform="translate(0,272.61)">0.15</text></g><g class="ytick"><text text-anchor="end" x="103" y="7" style="font-family: 'Open Sans', verdana, arial, sans-serif; font-size: 20px; fill: rgb(42, 63, 95); fill-opacity: 1; white-space: pre; opacity: 1;" transform="translate(0,171.09)">0.2</text></g></g><g class="overaxes-above"/></g></g><g class="polarlayer"/><g class="smithlayer"/><g class="ternarylayer"/><g class="geolayer"/><g class="funnelarealayer"/><g class="pielayer"/><g class="iciclelayer"/><g class="treemaplayer"/><g class="sunburstlayer"/><g class="glimages"/><defs id="topdefs-e9fa2c"><g class="clips"/><clipPath id="legende9fa2c"><rect width="84" height="181" x="0" y="0"/></clipPath></defs><g class="layer-above"><g class="imagelayer"/><g class="shapelayer"/></g><g class="infolayer"><g class="legend" pointer-events="all" transform="translate(264.00800000000004,110.08000000000001)"><rect class="bg" shape-rendering="crispEdges" width="84" height="181" x="0" y="0" style="stroke: rgb(68, 68, 68); stroke-opacity: 1; fill: rgb(255, 255, 255); fill-opacity: 1; stroke-width: 0px;"/><g class="scrollbox" transform="" clip-path="url(#legende9fa2c)"><g class="groups"><g class="traces" transform="translate(0,22.1)" style="opacity: 1;"><text class="legendtext" text-anchor="start" x="40" y="9.360000000000001" style="font-family: 'Open Sans', verdana, arial, sans-serif; font-size: 24px; fill: rgb(42, 63, 95); fill-opacity: 1; white-space: pre;">1m</text><g class="layers" style="opacity: 1;"><g class="legendfill"/><g class="legendlines"><path class="js-line" d="M5,0h30" style="fill: none; stroke: rgb(99, 110, 250); stroke-opacity: 1; stroke-width: 3px;"/></g><g class="legendsymbols"><g class="legendpoints"/></g></g><rect class="legendtoggle" x="0" y="-17.1" width="78.609375" height="34.2" style="fill: rgb(0, 0, 0); fill-opacity: 0;"/></g><g class="traces" transform="translate(0,56.300000000000004)" style="opacity: 1;"><text class="legendtext" text-anchor="start" x="40" y="9.360000000000001" style="font-family: 'Open Sans', verdana, arial, sans-serif; font-size: 24px; fill: rgb(42, 63, 95); fill-opacity: 1; white-space: pre;">2m</text><g class="layers" style="opacity: 1;"><g class="legendfill"/><g class="legendlines"><path class="js-line" d="M5,0h30" style="fill: none; stroke: rgb(239, 85, 59); stroke-opacity: 1; stroke-width: 3px;"/></g><g class="legendsymbols"><g class="legendpoints"/></g></g><rect class="legendtoggle" x="0" y="-17.1" width="78.609375" height="34.2" style="fill: rgb(0, 0, 0); fill-opacity: 0;"/></g><g class="traces" transform="translate(0,90.5)" style="opacity: 1;"><text class="legendtext" text-anchor="start" x="40" y="9.360000000000001" style="font-family: 'Open Sans', verdana, arial, sans-serif; font-size: 24px; fill: rgb(42, 63, 95); fill-opacity: 1; white-space: pre;">3m</text><g class="layers" style="opacity: 1;"><g class="legendfill"/><g class="legendlines"><path class="js-line" d="M5,0h30" style="fill: none; stroke: rgb(0, 204, 150); stroke-opacity: 1; stroke-width: 3px;"/></g><g class="legendsymbols"><g class="legendpoints"/></g></g><rect class="legendtoggle" x="0" y="-17.1" width="78.609375" height="34.2" style="fill: rgb(0, 0, 0); fill-opacity: 0;"/></g><g class="traces" transform="translate(0,124.70000000000002)" style="opacity: 1;"><text class="legendtext" text-anchor="start" x="40" y="9.360000000000001" style="font-family: 'Open Sans', verdana, arial, sans-serif; font-size: 24px; fill: rgb(42, 63, 95); fill-opacity: 1; white-space: pre;">4m</text><g class="layers" style="opacity: 1;"><g class="legendfill"/><g class="legendlines"><path class="js-line" d="M5,0h30" style="fill: none; stroke: rgb(171, 99, 250); stroke-opacity: 1; stroke-width: 3px;"/></g><g class="legendsymbols"><g class="legendpoints"/></g></g><rect class="legendtoggle" x="0" y="-17.1" width="78.609375" height="34.2" style="fill: rgb(0, 0, 0); fill-opacity: 0;"/></g><g class="traces" transform="translate(0,158.9)" style="opacity: 1;"><text class="legendtext" text-anchor="start" x="40" y="9.360000000000001" style="font-family: 'Open Sans', verdana, arial, sans-serif; font-size: 24px; fill: rgb(42, 63, 95); fill-opacity: 1; white-space: pre;">5m</text><g class="layers" style="opacity: 1;"><g class="legendfill"/><g class="legendlines"><path class="js-line" d="M5,0h30" style="fill: none; stroke: rgb(255, 161, 90); stroke-opacity: 1; stroke-width: 3px;"/></g><g class="legendsymbols"><g class="legendpoints"/></g></g><rect class="legendtoggle" x="0" y="-17.1" width="78.609375" height="34.2" style="fill: rgb(0, 0, 0); fill-opacity: 0;"/></g></g></g><rect class="scrollbar" rx="20" ry="3" width="0" height="0" x="0" y="0" style="fill: rgb(128, 139, 164); fill-opacity: 1;"/></g><g class="g-gtitle"><text class="gtitle" x="800" y="50" text-anchor="middle" dy="0.7em" style="opacity: 1; font-family: 'Open Sans', verdana, arial, sans-serif; font-size: 20px; fill: rgb(42, 63, 95); fill-opacity: 1; font-weight: bold; white-space: pre;">No Yielding, Back and no eHMI</text></g><g class="g-xtitle"><text class="xtitle" x="812" y="873.5" text-anchor="middle" style="opacity: 1; font-family: 'Open Sans', verdana, arial, sans-serif; font-size: 20px; fill: rgb(42, 63, 95); fill-opacity: 1; white-space: pre;">Time (in seconds)</text></g><g class="g-ytitle" transform="translate(0.296875,0)"><text class="ytitle" transform="rotate(-90,19.703125,460)" x="19.703125" y="460" text-anchor="middle" style="opacity: 1; font-family: 'Open Sans', verdana, arial, sans-serif; font-size: 20px; fill: rgb(42, 63, 95); fill-opacity: 1; white-space: pre;">Yaw Angle (in radians)</text></g></g></svg>