<svg class="main-svg" xmlns="http://www.w3.org/2000/svg" xmlns:xlink="http://www.w3.org/1999/xlink" width="4800" height="2700" style="" viewBox="0 0 1600 900"><rect x="0" y="0" width="1600" height="900" style="fill: rgb(255, 255, 255); fill-opacity: 1;"/><defs id="defs-abeebb"><g class="clips"><clipPath id="clipabeebbxyplot" class="plotclip"><rect width="1429" height="720"/></clipPath><clipPath class="axesclip" id="clipabeebbx"><rect x="91" y="0" width="1429" height="900"/></clipPath><clipPath class="axesclip" id="clipabeebby"><rect x="0" y="100" width="1600" height="720"/></clipPath><clipPath class="axesclip" id="clipabeebbxy"><rect x="91" y="100" width="1429" height="720"/></clipPath></g><g class="gradients"/><g class="patterns"/></defs><g class="bglayer"><rect class="bg" x="91" y="100" width="1429" height="720" style="fill: rgb(229, 236, 246); fill-opacity: 1; stroke-width: 0;"/></g><g class="layer-below"><g class="imagelayer"/><g class="shapelayer"/></g><g class="cartesianlayer"><g class="subplot xy"><g class="layer-subplot"><g class="shapelayer"/><g class="imagelayer"/></g><g class="minor-gridlayer"><g class="x"/><g class="y"/></g><g class="gridlayer"><g class="x"><path class="xgrid crisp" transform="translate(248.37,0)" d="M0,100v720" style="stroke: rgb(255, 255, 255); stroke-opacity: 1; stroke-width: 1px;"/><path class="xgrid crisp" transform="translate(407.32,0)" d="M0,100v720" style="stroke: rgb(255, 255, 255); stroke-opacity: 1; stroke-width: 1px;"/><path class="xgrid crisp" transform="translate(566.27,0)" d="M0,100v720" style="stroke: rgb(255, 255, 255); stroke-opacity: 1; stroke-width: 1px;"/><path class="xgrid crisp" transform="translate(725.23,0)" d="M0,100v720" style="stroke: rgb(255, 255, 255); stroke-opacity: 1; stroke-width: 1px;"/><path class="xgrid crisp" transform="translate(884.18,0)" d="M0,100v720" style="stroke: rgb(255, 255, 255); stroke-opacity: 1; stroke-width: 1px;"/><path class="xgrid crisp" transform="translate(1043.1399999999999,0)" d="M0,100v720" style="stroke: rgb(255, 255, 255); stroke-opacity: 1; stroke-width: 1px;"/><path class="xgrid crisp" transform="translate(1202.09,0)" d="M0,100v720" style="stroke: rgb(255, 255, 255); stroke-opacity: 1; stroke-width: 1px;"/><path class="xgrid crisp" transform="translate(1361.05,0)" d="M0,100v720" style="stroke: rgb(255, 255, 255); stroke-opacity: 1; stroke-width: 1px;"/></g><g class="y"><path class="ygrid crisp" transform="translate(0,766.47)" d="M91,0h1429" style="stroke: rgb(255, 255, 255); stroke-opacity: 1; stroke-width: 1px;"/><path class="ygrid crisp" transform="translate(0,693.8)" d="M91,0h1429" style="stroke: rgb(255, 255, 255); stroke-opacity: 1; stroke-width: 1px;"/><path class="ygrid crisp" transform="translate(0,621.14)" d="M91,0h1429" style="stroke: rgb(255, 255, 255); stroke-opacity: 1; stroke-width: 1px;"/><path class="ygrid crisp" transform="translate(0,548.47)" d="M91,0h1429" style="stroke: rgb(255, 255, 255); stroke-opacity: 1; stroke-width: 1px;"/><path class="ygrid crisp" transform="translate(0,403.13)" d="M91,0h1429" style="stroke: rgb(255, 255, 255); stroke-opacity: 1; stroke-width: 1px;"/><path class="ygrid crisp" transform="translate(0,330.46000000000004)" d="M91,0h1429" style="stroke: rgb(255, 255, 255); stroke-opacity: 1; stroke-width: 1px;"/><path class="ygrid crisp" transform="translate(0,257.78999999999996)" d="M91,0h1429" style="stroke: rgb(255, 255, 255); stroke-opacity: 1; stroke-width: 1px;"/><path class="ygrid crisp" transform="translate(0,185.12)" d="M91,0h1429" style="stroke: rgb(255, 255, 255); stroke-opacity: 1; stroke-width: 1px;"/><path class="ygrid crisp" transform="translate(0,112.45)" d="M91,0h1429" style="stroke: rgb(255, 255, 255); stroke-opacity: 1; stroke-width: 1px;"/></g></g><g class="zerolinelayer"><path class="yzl zl crisp" transform="translate(0,475.8)" d="M91,0h1429" style="stroke: rgb(255, 255, 255); stroke-opacity: 1; stroke-width: 2px;"/></g><g class="layer-between"><g class="shapelayer"/><g class="imagelayer"/></g><path class="xlines-below"/><path class="ylines-below"/><g class="overlines-below"/><g class="xaxislayer-below"/><g class="yaxislayer-below"/><g class="overaxes-below"/><g class="overplot"><g class="xy" transform="translate(91,100)" clip-path="url(#clipabeebbxyplot)"><g class="scatterlayer mlayer"><g class="trace scatter traceaf2796" style="stroke-miterlimit: 2; opacity: 1;"><g class="fills"/><g class="errorbars"/><g class="lines"><path class="js-line" d="M0,383.1L6.36,382.91L7.95,382.85L14.31,382.5L15.9,382.34L22.25,380.43L23.84,378.84L28.61,373.69L30.2,371.55L33.38,366.68L34.97,361.79L39.74,350.81L41.33,346.84L46.1,331.47L47.69,328.55L54.05,297.2L55.63,292.91L65.17,233.71L66.76,227.92L69.94,209.19L71.53,224.19L73.12,217.3L74.71,228.06L76.3,233.25L77.89,235.83L79.48,242.9L81.07,244.65L82.66,247.7L84.25,248.91L85.84,250.34L87.43,250.34L89.02,251.69L90.6,255.03L92.19,257.05L93.78,261.19L95.37,261.9L96.96,266.19L98.55,268.27L100.14,272.02L101.73,273.16L103.32,276.82L106.5,280.46L108.09,284.09L109.68,286.51L111.27,291.06L114.45,297.94L116.04,299.91L120.81,306.21L122.4,306.88L123.99,306.5L125.57,307.19L127.16,306L128.75,306.5L130.34,305.97L131.93,307.13L133.52,308.21L135.11,310.96L138.29,316.15L139.88,318.48L141.47,317.89L143.06,320.16L151.01,325.55L152.6,326.36L155.78,326.37L157.37,328.29L162.13,329.91L163.72,331.89L165.31,334.87L166.9,335.91L171.67,339.26L173.26,341.06L176.44,344.67L178.03,344.63L181.21,345.45L182.8,347.23L185.98,348.47L187.57,348.15L189.16,348.57L190.75,347.83L192.34,348.06L193.92,347.08L197.1,347.38L198.69,346.71L201.87,344.56L203.46,344.68L206.64,345.62L208.23,345.09L209.82,345.32L211.41,344.78L214.59,346.84L216.18,346.69L217.77,346.68L219.36,347.67L220.95,347.67L222.54,345.5L230.48,343.04L232.07,344.33L235.25,345.48L236.84,347.01L241.61,350.57L243.2,351.35L246.38,352.78L247.97,353.57L252.74,354.9L254.33,354.65L255.92,353.45L257.51,353.46L259.1,352.35L260.69,352.91L270.22,348.21L271.81,348.3L281.35,347.9L282.94,348.17L287.71,348.31L289.3,348.52L295.66,348.64L297.25,348.58L300.42,348.33L302.01,348.84L305.19,348.58L306.78,348.19L309.96,347.97L311.55,348.44L316.32,351.88L317.91,352.42L325.86,356.84L327.45,356.59L335.39,354.96L336.98,354.89L340.16,353.53L341.75,352.14L348.11,349.6L349.7,348.58L352.88,347.68L354.47,347.84L356.06,347.71L357.65,348.36L359.24,349.31L360.83,349.17L367.19,348.12L368.77,347.15L371.95,344.38L373.54,343.26L383.08,335.17L384.67,334.63L387.85,333.79L389.44,333.47L392.62,332.15L394.21,331.39L395.8,329.38L397.39,329.05L398.98,329.32L400.57,328.14L414.87,317.37L416.46,316.79L418.05,315.71L419.64,315.59L424.41,316.04L426,316.35L430.77,316.97L432.36,316.67L433.95,316.68L435.54,315.57L437.13,315.95L438.71,314.9L448.25,306.44L449.84,305.69L451.43,303.35L453.02,302.5L454.61,300.97L456.2,300.92L457.79,301.15L459.38,303.01L462.56,307.37L464.15,308.41L467.33,311.19L468.92,311.96L470.51,312.5L472.09,311.94L480.04,309.06L481.63,309.63L484.81,310.62L486.4,312.27L489.58,314.14L491.17,315.71L494.35,317.24L495.94,317.18L502.3,315.98L503.89,315.75L510.24,319.02L511.83,320.26L516.6,322.61L518.19,322.7L522.96,322.1L524.55,321.52L526.14,321.92L527.73,320.87L530.91,320.78L532.5,321.33L538.86,324.99L540.45,324.77L553.16,328.58L554.75,329.54L562.7,332.63L564.29,333.47L567.47,334.53L569.06,334.65L580.18,339.91L581.77,340.31L589.72,342.15L591.31,341.94L599.26,342.71L600.85,343.08L611.97,347.15L613.56,346.64L619.92,347.21L621.51,346.78L623.1,347.06L624.69,346.36L634.23,347.22L635.82,347.55L640.59,349.2L642.18,349.24L648.53,351.17L650.12,351.67L656.48,352.91L658.07,353.76L662.84,354.82L664.43,355.26L672.38,358.25L673.97,358.5L680.33,360.9L681.91,362.16L691.45,364.64L693.04,364.72L700.99,366.72L702.58,366.94L705.76,367.13L707.35,366.65L710.53,365.42L712.12,364.35L718.47,360.69L720.06,360.52L724.83,358.86L726.42,359.69L728.01,360.89L729.6,360.93L737.55,360.99L739.14,360.39L742.32,359.92L743.91,358.49L750.26,356.09L751.85,355.64L759.8,354.87L761.39,355.58L764.57,356.53L766.16,357.66L775.7,362.35L777.29,362.57L786.82,365.49L788.41,365.28L802.72,368.59L804.31,368.26L824.97,370.56L826.56,370.35L831.33,371.06L832.92,370.79L839.28,371.71L840.87,371.92L844.05,371.79L845.64,371.49L856.76,369.87L858.35,369.97L869.48,372.78L871.07,373.22L874.25,374.58L875.84,374.92L879.02,375.4L880.61,375.88L885.38,376.32L886.97,376.33L888.56,377.19L890.14,376.94L893.32,377.21L894.91,377.39L904.45,378.63L906.04,378.88L910.81,379.73L912.4,380.12L918.76,380.35L920.35,380.44L944.19,380.86L945.78,381.24L964.85,384.37L966.44,384.23L979.16,384.03L980.75,383.62L985.52,379.61L987.11,379.29L995.05,373.61L996.64,373.39L1001.41,373.33L1003,374.39L1006.18,375.33L1007.77,376.56L1010.95,378.07L1012.54,378.67L1014.13,379.96L1015.72,380.2L1020.49,381.02L1022.08,381L1025.26,382.05L1026.85,381.76L1031.61,379.52L1033.2,379.4L1036.38,376.98L1037.97,376.33L1041.15,374.89L1042.74,374.36L1047.51,375.76L1049.1,376.04L1052.28,376.67L1053.87,376.99L1060.23,378.04L1061.82,376.79L1066.58,375.93L1068.17,376.73L1071.35,376.69L1072.94,376.24L1076.12,374.1L1077.71,373.79L1079.3,372.98L1080.89,373.87L1082.48,372.67L1084.07,373.69L1085.66,375.92L1087.25,376.81L1104.73,384.95L1106.32,386.11L1109.5,386.97L1111.09,387.01L1112.68,386.32L1114.27,386.97L1119.04,388.41L1120.63,389.47L1123.81,391.09L1125.4,392.16L1131.75,396.68L1133.35,396.36L1136.52,396.51L1138.11,395.72L1141.29,395.35L1142.88,393.94L1150.83,390.41L1152.42,388.96L1160.37,384.13L1161.96,383.56L1173.08,378.33L1174.67,378.08L1182.62,379.04L1184.21,378.64L1187.39,378.17L1188.98,377.82L1196.93,377.83L1198.52,378.7L1206.46,381.16L1208.05,381.32L1214.41,386.28L1216,386.82L1219.18,387.16L1220.77,387.7L1222.36,387.38L1223.95,386.14L1228.72,382.54L1230.31,381.9L1235.08,380.43L1236.67,380.54L1243.02,380.37L1244.61,380.82L1250.97,379.37L1252.56,377.78L1257.33,374.51L1258.92,374.14L1262.1,373.6L1263.69,372.28L1268.46,370.11L1270.05,369.77L1276.4,370.41L1277.99,369.92L1279.58,369.4L1281.17,367.73L1285.94,363.62L1287.53,361.77L1293.89,354.07L1295.48,351.66L1305.02,345.73L1306.61,345.19L1311.37,343.53L1312.96,342.08L1317.73,339.35L1319.32,336.42L1320.91,332.34L1322.5,331.56L1325.68,328.75L1327.27,327.2L1332.04,327.48L1333.63,327.64L1336.81,329.34L1338.4,331.74L1343.16,335.42L1344.75,336.4L1349.52,341.83L1351.11,343.15L1354.29,345.7L1355.88,346.67L1362.24,354.09L1363.83,355.37L1374.96,367.35L1376.55,368.44L1382.9,371.67L1384.49,372.29L1390.85,372.66L1392.44,371.57L1395.62,374.34L1397.21,374.15L1401.98,374.33L1403.57,373.81L1406.75,373.75L1408.34,374L1413.1,373.24L1414.69,374.3L1417.87,374.65L1419.46,375.03L1424.23,375.2L1425.82,374.54L1429,373.52" style="vector-effect: none; fill: none; stroke: rgb(99, 110, 250); stroke-opacity: 1; stroke-width: 3px; opacity: 1;"/></g><g class="points"/><g class="text"/></g><g class="trace scatter trace83662b" style="stroke-miterlimit: 2; opacity: 1;"><g class="fills"/><g class="errorbars"/><g class="lines"><path class="js-line" d="M0,384.11L4.77,383.14L6.36,382.97L11.13,380.84L12.72,379.87L19.08,377.12L20.67,377.28L27.02,375.95L28.61,375.03L36.56,368.64L38.15,365.69L41.33,361.4L42.92,357.21L46.1,348.36L47.69,344.66L49.28,342.15L50.87,337.63L52.46,335.1L54.04,330.81L55.63,332.8L57.22,330.99L60.4,327.01L61.99,322.95L73.12,293.9L74.71,290.26L77.89,281.39L79.48,278.54L81.07,274.47L82.66,272.69L84.25,273.04L85.84,271.6L87.43,270.3L89.02,271.34L92.19,265.61L93.78,264.64L95.37,264.81L96.96,263.67L98.55,256.04L100.14,254.71L101.73,249.67L103.32,253.76L104.91,252.97L106.5,259.11L108.09,262.3L109.68,263.21L112.86,274.49L114.45,275.19L120.81,288.4L122.4,291L123.99,294.13L125.57,295.31L127.16,295.59L128.75,309.9L130.34,309.82L131.93,311.9L135.11,317.4L136.7,319.24L138.29,321.82L139.88,320.66L141.47,321.59L143.06,317.08L146.24,312.06L147.83,312.55L149.42,310.44L151.01,311.82L152.6,310.4L154.19,311.53L155.78,310.8L157.37,311.38L158.96,313.14L160.54,316.46L163.72,326.29L165.31,328.24L168.49,337.43L170.08,339.36L171.67,343.6L173.26,343.35L174.85,345.89L176.44,345.49L178.03,343.97L179.62,345.24L181.21,348.01L182.8,357.27L184.39,351.41L185.98,360.47L187.57,364.88L189.16,378.02L192.34,406.39L193.93,442.79L195.51,471.87L197.1,521.94L200.28,565.3L201.87,572.7L203.46,578.2L205.05,587.3L208.23,593.79L209.82,593.13L211.41,594.49L213,594.7L214.59,596.38L216.18,596.46L217.77,599.04L219.36,599.85L220.95,602.25L222.54,603.17L225.72,605.2L227.31,607.9L230.48,609.06L232.07,610.26L235.25,612.63L236.84,612.75L240.02,615.17L241.61,615.08L243.2,615.32L244.79,614.68L251.15,612.68L252.74,613.16L254.33,612.38L255.92,612.57L262.28,615.36L263.87,615.48L265.45,616.36L267.04,616.06L270.22,615.22L271.81,614.18L274.99,613.11L276.58,610.94L284.53,601.14L286.12,600.57L287.71,599.62L289.3,599.71L290.89,599.39L292.48,599.93L295.66,601.76L297.25,603.09L300.42,600.76L302.01,597.94L303.6,594.99L305.19,569.98L306.78,519.11L308.37,422.77L309.96,361.09L311.55,352.91L313.14,345.73L314.73,342.82L316.32,337.57L317.91,336L319.5,335.41L321.09,333.47L324.27,331.58L325.86,332.86L330.63,334.61L332.21,334.41L333.8,334.25L335.39,335.06L340.16,335.51L341.75,334.72L344.93,334.41L346.52,333.27L349.7,331.71L351.29,331.59L354.47,331.48L356.06,331.93L359.24,332.13L360.83,333.23L364.01,334.77L365.6,335.41L368.78,336.82L370.36,336.38L375.13,337.4L376.72,336.62L381.49,334.72L383.08,335.38L387.85,335.31L389.44,335.56L391.03,335.94L392.62,335.53L395.8,336.05L397.39,337.32L398.98,336.47L400.57,337.79L402.16,338.47L403.74,338.24L405.33,338.71L406.92,338.12L410.1,338.09L411.69,337.26L418.05,334.64L419.64,334.96L422.82,332.94L424.41,332.93L427.59,333.08L429.18,333.52L438.71,332.97L440.3,333.24L453.02,331.6L454.61,332.33L459.38,334.06L460.97,334.44L465.74,335.39L467.33,336.64L470.51,336.23L472.1,336.69L476.86,335.91L478.45,335.32L487.99,335.68L489.58,335.94L497.53,337.61L499.12,337.25L503.89,336.22L505.48,335.2L513.42,332.87L515.01,333L529.32,337.04L530.91,336.79L537.27,336L538.86,335.89L546.8,336.26L548.39,336.5L557.93,337.07L559.52,337.67L578.59,336.75L580.18,336.88L591.31,338.96L592.9,338.74L596.08,338.33L597.67,338.65L615.15,342.48L616.74,343.66L621.51,346.7L623.1,346.4L627.87,348.68L629.46,348.38L632.64,348.25L634.23,348.01L645.36,351.8L646.95,352.12L651.71,353.33L653.3,353.08L664.43,351.71L666.02,352.41L670.79,353.78L672.38,353.84L675.56,354.32L677.15,354.18L681.91,351.96L683.5,351.71L686.68,350.92L688.27,351.35L694.63,352.71L696.22,353.3L704.17,355.03L705.76,355.62L713.71,356.95L715.3,356.58L718.47,356.71L720.06,356.43L724.83,357.2L726.42,356.49L729.6,356.62L731.19,357.25L740.73,357.9L742.32,358.31L743.91,361.08L745.5,359.51L747.09,358.59L748.68,359.46L753.44,360.15L755.03,360.25L758.21,360.22L759.8,361.29L767.75,361.56L769.34,362.11L770.93,362.57L772.52,362.23L782.06,363.89L783.65,363.9L785.24,364.2L786.82,367.06L788.41,365.9L790,363.65L796.36,363.88L797.95,363.18L802.72,362.04L804.31,361.54L812.26,360.61L813.85,360.78L815.44,361.33L817.03,361L828.15,365.39L829.74,365.81L832.92,366.31L834.51,367.26L850.41,371.22L852,372.13L853.59,373.71L855.18,373.82L859.94,374.95L861.53,374.68L866.3,371.52L867.89,371.43L871.07,370.91L872.66,371.01L875.84,371.54L877.43,371.29L882.2,370.21L883.79,369.14L890.14,367.5L891.73,367.81L896.5,368.18L898.09,368.54L907.63,368.28L909.22,368.26L913.99,367.67L915.58,366.85L918.76,366.43L920.35,364.69L921.94,363.3L923.53,360.81L928.29,355.09L929.88,351.65L934.65,348.86L936.24,348.66L937.83,347.28L939.42,347.52L941.01,347.05L942.6,347.66L945.78,347.51L947.37,348.62L948.96,348.93L950.55,350.71L956.91,357.49L958.5,358.53L963.26,362.27L964.85,362.43L969.62,362.81L971.21,362.86L974.39,363.12L975.98,363.64L980.75,366.67L982.34,369.56L985.52,372.2L987.11,373.48L990.29,375.07L991.88,379.04L993.47,379.75L995.05,381.33L998.23,385.35L999.82,386.43L1001.41,385.12L1003,386.49L1007.77,387.34L1009.36,383.89L1012.54,384.39L1014.13,381.33L1015.72,381.43L1017.31,382.73L1020.49,384.1L1022.08,384.24L1025.26,384.13L1026.85,385.32L1033.2,387.73L1034.79,389.19L1036.38,390.66L1037.97,389.99L1045.92,393.4L1047.51,393.51L1052.28,392.24L1053.87,390.87L1061.82,390.04L1063.41,389.51L1066.58,387.74L1068.17,387.33L1069.76,386.92L1071.35,385.7L1077.71,385.26L1079.3,385.34L1090.43,386.14L1092.02,386.5L1098.38,385.46L1099.96,384.8L1104.73,381.34L1106.32,381.2L1109.5,380.38L1111.09,379.22L1117.45,375.99L1119.04,374.94L1125.4,373.15L1126.99,373.16L1131.76,373.64L1133.35,372.83L1141.29,372.28L1142.88,372.55L1147.65,372.32L1149.24,372.15L1152.42,372.07L1154.01,371.2L1161.96,368.2L1163.55,367.39L1169.9,364.22L1171.49,363.23L1177.85,360.29L1179.44,358.73L1192.16,347.22L1193.75,344.75L1204.87,335.68L1206.46,335.29L1208.05,335.54L1209.64,334.98L1211.23,335.22L1212.82,334.33L1216,332.14L1217.59,331.4L1220.77,330.41L1222.36,330.02L1223.95,330.41L1225.54,329.91L1236.67,331.92L1238.25,331.25L1241.43,332.29L1243.02,331.76L1246.2,332.02L1247.79,333.28L1252.56,336L1254.15,335.79L1255.74,336.25L1257.33,335.82L1258.92,336.22L1260.51,335.75L1266.87,337.07L1268.46,337.04L1270.05,338.07L1271.64,337.84L1279.58,337.29L1281.17,337.56L1285.94,337.14L1287.53,337.65L1297.07,338.37L1298.66,339.24L1311.37,344.04L1312.96,345.12L1325.68,349.81L1327.27,349.54L1332.04,348.99L1333.63,349.66L1343.16,351.22L1344.75,350.52L1349.52,351.01L1351.11,351.65L1355.88,353.89L1357.47,354.05L1362.24,353.67L1363.83,352.09L1367.01,350.67L1368.6,351.69L1373.37,352.76L1374.96,353.33L1376.55,353.52L1378.13,355.08L1381.31,356.13L1382.9,356.06L1389.26,358.65L1390.85,359.61L1395.62,363.44L1397.21,364.24L1400.39,363.51L1401.98,364.76L1406.75,365.3L1408.34,365.24L1416.28,365.22L1417.87,364.28L1419.46,363.98L1421.05,362.27L1425.82,358.43L1427.41,358.64L1429,358.38" style="vector-effect: none; fill: none; stroke: rgb(239, 85, 59); stroke-opacity: 1; stroke-width: 3px; opacity: 1;"/></g><g class="points"/><g class="text"/></g><g class="trace scatter trace9328c7" style="stroke-miterlimit: 2; opacity: 1;"><g class="fills"/><g class="errorbars"/><g class="lines"><path class="js-line" d="M0,380.53L14.31,377.77L15.9,377.91L22.25,376.9L23.84,375.91L28.61,373.01L30.2,371.08L36.56,363.75L38.15,360.4L42.92,353.21L44.51,348.55L49.28,339.57L50.87,336.77L52.46,335.18L54.05,331.55L61.99,310.75L63.58,309.22L68.35,303.9L69.94,300.14L77.89,294.97L79.48,292.74L84.25,283.89L85.84,283.04L89.02,283.91L90.6,286.52L96.96,298.38L98.55,298.2L100.14,297.74L101.73,298.17L103.32,296.85L104.91,296.87L106.5,294.42L108.09,294.1L112.86,291.31L114.45,289L116.04,288.01L117.63,288.1L119.22,283.87L120.81,282.96L125.57,284.38L127.16,287.65L130.34,290.33L131.93,291.26L135.11,293.58L136.7,295.9L138.29,296.19L139.88,297.82L146.24,301.92L147.83,302.12L151.01,303.49L152.6,301.97L154.19,305.03L155.78,304.29L157.37,305.34L158.96,305.08L162.13,305.71L163.72,304.12L166.9,306.52L168.49,306.75L170.08,305.39L171.67,305.33L173.26,304.67L174.85,305.94L179.62,309.86L181.21,310.11L185.98,312.41L187.57,313.12L189.16,315.96L190.75,316.66L193.93,318.64L195.51,319.22L200.28,319.99L201.87,319.48L203.46,319.11L205.05,317.46L209.82,317.4L211.41,316.24L216.18,312.83L217.77,310.73L219.36,309.79L220.95,310.13L222.54,308.95L224.13,308.95L228.9,306.8L230.48,304.8L233.66,302.62L235.25,302.64L236.84,301.93L238.43,302.41L241.61,304.89L243.2,307.21L246.38,309.34L247.97,310.18L249.56,310.3L251.15,311.78L255.92,310.75L257.51,309.67L263.86,310.2L265.45,311.69L268.63,314.64L270.22,316.02L273.4,317.29L274.99,316.7L276.58,317.52L278.17,317.35L279.76,318.62L281.35,317.89L284.53,318.53L286.12,317.89L287.71,318.1L289.3,316.83L290.89,317.19L292.48,316.34L295.66,316.49L297.25,315.98L303.6,318.45L305.19,318.86L306.78,319.41L308.37,318.95L309.96,319.92L311.55,319.87L316.32,320.78L317.91,319.91L321.09,318.6L322.68,319.16L324.27,319.09L325.86,316.79L327.45,315.61L329.04,313.42L330.63,272.53L332.22,68.67L333.8,39.77L335.39,37.29L336.98,36L338.57,36.84L340.16,37.43L341.75,37.12L344.93,37.74L346.52,38.57L351.29,39.25L352.88,39.89L356.06,41.46L357.65,41.79L360.83,42.15L362.42,41.37L368.77,41.77L370.36,42.67L373.54,42.79L375.13,43.04L378.31,42.74L379.9,41.75L383.08,40.37L384.67,40.09L386.26,38.47L387.85,38.65L389.44,37.58L391.03,38.59L394.21,39.83L395.8,43.42L397.39,44.33L398.98,49.58L400.57,53.12L402.16,66.01L403.74,81.5L405.33,116.63L406.92,231.03L408.51,255.53L410.1,275.21L411.69,280.87L413.28,288.36L414.87,292.04L418.05,298.07L419.64,300.61L424.41,306.84L426,308.47L430.77,313.68L432.36,314.32L440.3,319.37L441.89,320.57L449.84,325.49L451.43,325.33L454.61,324.97L456.2,324.86L457.79,324.76L459.38,325.43L472.1,328.47L473.68,329.2L481.63,330.47L483.22,330.3L491.17,329.79L492.76,330.47L502.3,332.35L503.89,333.64L508.65,334.78L510.24,335.95L513.42,335.97L515.01,336.45L532.5,337.76L534.09,337.86L548.39,339.8L549.98,340.48L553.16,341.85L554.75,342.03L557.93,342.72L559.52,343.51L573.83,344.88L575.42,344.54L581.77,346.05L583.36,346.19L596.08,343.59L597.67,343.46L604.03,343.7L605.62,343.13L616.74,341.55L618.33,341.59L626.28,341.63L627.87,341.33L631.05,341.15L632.64,340.99L643.77,341.57L645.36,341.31L654.89,342.61L656.48,343.4L659.66,343.34L661.25,343.12L669.2,341.33L670.79,341.41L672.38,341.78L673.97,341.37L689.86,340.06L691.45,339.6L697.81,339.08L699.4,338.78L704.17,337.86L705.76,337.41L710.53,334.92L712.12,334.71L720.06,330.78L721.65,330.4L724.83,329.23L726.42,329.46L728.01,325.53L729.6,324.59L732.78,322.51L734.37,321.6L742.32,317.76L743.91,317.25L747.09,315.39L748.68,314.76L756.62,312.17L758.21,311.06L761.39,309.74L762.98,309.47L766.16,309.44L767.75,309.73L769.34,309.16L770.93,309.82L775.7,311.74L777.29,312.99L783.65,317.51L785.24,319.46L786.82,320.32L788.41,322.34L793.18,326.32L794.77,327.27L799.54,332.78L801.13,333.97L809.08,339.59L810.67,339.94L815.44,340.92L817.03,342.65L818.62,342.71L820.21,343.85L826.56,347.1L828.15,348.77L832.92,352.37L834.51,353.7L836.1,355.32L837.69,355.54L840.87,357.58L842.46,358.8L844.05,359.5L845.64,361.34L848.82,362.84L850.41,364.22L853.59,366.14L855.18,367.22L856.77,369.05L858.35,369.25L864.71,371.55L866.3,372L871.07,371.01L872.66,370.72L877.43,369.44L879.02,367.96L880.61,367.18L882.2,365.21L883.79,364.53L885.38,362.87L888.56,362.34L890.14,360.71L891.73,360.05L893.32,357.95L894.91,357.51L896.5,355.91L899.68,354.48L901.27,351.71L902.86,350.28L904.45,347.54L906.04,346.39L907.63,344.28L915.58,336.79L917.17,336.28L920.35,333.75L921.94,332.31L925.11,329.87L926.7,327.71L929.88,324.57L931.47,324.55L933.06,322.98L934.65,322.5L937.83,320.78L939.42,320.48L948.96,321.22L950.55,322.89L953.73,323.49L955.32,324.66L956.91,325.29L958.5,326.92L960.09,327.67L961.67,329.66L968.03,330.87L969.62,330.47L974.39,329.2L975.98,329.7L977.57,329.18L979.16,329.57L983.93,331.58L985.52,332.14L988.7,333.72L990.29,334.11L991.88,335.82L993.47,339.43L996.64,346.17L998.23,348.08L1001.41,348.38L1003,348.63L1004.59,348.63L1006.18,349.43L1012.54,350.88L1014.13,350.28L1015.72,350.4L1017.31,349.74L1020.49,347.68L1022.08,347.44L1030.02,344.41L1031.61,343.6L1034.79,341.93L1036.38,341.32L1041.15,338.54L1042.74,337.67L1050.69,334.53L1052.28,333.56L1055.46,332.18L1057.05,331.99L1058.64,331.94L1060.23,330.91L1069.76,327.64L1071.35,325.73L1072.94,326.46L1074.53,325.14L1080.89,325.99L1082.48,326.76L1092.02,331.62L1093.61,331.73L1103.14,331.6L1104.73,331.75L1109.5,332.68L1111.09,333.64L1119.04,338.87L1120.63,340.81L1131.76,345.79L1133.35,346L1138.11,348.31L1139.7,348.66L1144.47,349.4L1146.06,348.94L1147.65,349.04L1149.24,348.25L1154.01,350.49L1155.6,350.81L1160.37,353.36L1161.96,354.13L1166.73,351.8L1168.31,349.9L1169.9,349.38L1171.49,346.57L1176.26,344.57L1177.85,343.84L1181.03,342.41L1182.62,340.18L1196.93,325.9L1198.52,325.4L1203.28,324.36L1204.87,324.26L1209.64,325.47L1211.23,326.89L1216,329.94L1217.59,331.15L1220.77,335.55L1222.36,338.37L1223.95,339.95L1225.54,343.33L1228.72,346.6L1230.31,348.47L1236.67,353.85L1238.26,355.25L1244.61,361.57L1246.2,363.03L1250.97,367.37L1252.56,371.28L1254.15,372.01L1255.74,375.9L1257.33,376.68L1258.92,379.99L1260.51,379.8L1262.1,381.16L1265.28,382.32L1266.87,381.88L1271.64,382.83L1273.23,384.96L1277.99,385.31L1279.58,386.62L1282.76,386.92L1284.35,388.17L1289.12,391.03L1290.71,392.64L1292.3,393.55L1293.89,395.34L1297.07,396.52L1298.66,398.49L1300.25,399.06L1301.84,398.67L1308.19,399.36L1309.78,400.14L1311.37,399.83L1312.96,400.77L1317.73,400.31L1319.32,399.05L1325.68,395.07L1327.27,394.63L1335.22,390.34L1336.81,390.24L1338.4,387.91L1339.99,387.48L1343.16,383.94L1344.75,384.13L1354.29,381.76L1355.88,381.17L1357.47,380.31L1359.06,380.48L1360.65,381.44L1362.24,381.2L1363.83,380.71L1365.42,381.08L1367.01,380.57L1368.6,380.93L1370.19,380.41L1371.78,380.98L1374.96,381.89L1376.55,381.3L1379.72,381.98L1381.31,382.73L1382.9,382.66L1384.49,383.35L1389.26,384.75L1390.85,383.62L1401.98,388.22L1403.57,388.52L1405.16,387.95L1406.75,388.21L1408.34,387.57L1409.93,387.76L1413.1,386.16L1414.69,386.77L1419.46,389.22L1421.05,388.32L1427.41,387.82L1429,389.83" style="vector-effect: none; fill: none; stroke: rgb(0, 204, 150); stroke-opacity: 1; stroke-width: 3px; opacity: 1;"/></g><g class="points"/><g class="text"/></g><g class="trace scatter tracef7a0f2" style="stroke-miterlimit: 2; opacity: 1;"><g class="fills"/><g class="errorbars"/><g class="lines"><path class="js-line" d="M0,380.77L1.59,380.61L3.18,379.48L9.54,375.94L11.13,375.19L20.66,371.79L22.25,371.11L28.61,366.1L30.2,362.98L31.79,362.05L33.38,359.36L36.56,358.27L38.15,350.6L39.74,348.62L41.33,342.65L42.92,342.58L44.51,337.27L46.1,335.37L47.69,332.11L49.28,330.33L50.87,331.45L52.46,332.9L54.05,324L55.63,316.9L57.22,315.98L60.4,304.74L61.99,300.01L63.58,296.18L65.17,294.4L66.76,290.15L68.35,290.11L69.94,285.87L71.53,285.06L73.12,284.64L74.71,282.71L76.3,282.39L77.89,280.74L81.07,280.16L82.66,279.19L84.25,278.47L85.84,276.38L90.6,275.9L92.19,275.1L93.78,272.07L95.37,271.87L96.96,269.54L98.55,269.72L101.73,267.6L103.32,268.63L104.91,269.41L106.5,267.14L109.68,266.8L111.27,264.98L112.86,266.03L114.45,264.48L116.04,263.87L117.63,264.25L119.22,263.96L120.81,265.43L123.98,265.9L125.57,265.44L127.17,264.79L128.75,262.96L130.34,263.45L131.93,261.57L135.11,257.67L136.7,258.33L139.88,259.89L141.47,260.56L143.06,259.19L144.65,260.14L146.24,263.14L147.83,261.59L149.42,262.17L151.01,263.64L152.6,264.22L154.19,265.8L160.54,265.9L162.13,265.92L166.9,266.33L168.49,265.43L170.08,265.06L171.67,267.14L173.26,268.11L174.85,271.01L178.03,273.53L179.62,277.94L181.21,278.53L182.8,280.15L184.39,280.34L185.98,281.88L192.34,281.61L193.92,280.25L198.69,274.57L200.28,272.44L201.87,271.54L203.46,273.23L206.64,276.65L208.23,283.38L214.59,296.22L216.18,297.48L217.77,297.33L219.36,298.8L222.54,296.67L224.13,293.65L225.72,289.48L227.31,288.68L228.89,290.76L230.48,290.96L233.66,291.43L235.25,292.97L236.84,293.92L238.43,293.46L241.61,290.13L243.2,288.81L244.79,288.23L246.38,286.52L252.74,283.63L254.33,284.16L257.51,284.19L259.1,285.71L260.69,286.58L262.28,286.53L265.45,285.94L267.04,285.02L270.22,284.79L271.81,284.72L278.17,282.7L279.76,282.12L281.35,282.19L282.94,281.07L287.71,277L289.3,276.9L290.89,277.48L292.48,276.95L295.66,277.38L297.24,276.56L302.01,273.98L303.6,273.53L308.37,273.36L309.96,273.68L317.91,275.37L319.5,276.14L322.68,275.8L324.27,277.4L325.86,277.21L327.45,278.37L329.04,278.08L330.63,278.63L333.81,280.46L335.39,281.28L338.57,282.63L340.16,285.03L341.75,286.63L343.34,286.71L344.93,288.76L346.52,289.11L349.7,291.37L351.29,292.41L360.83,292.82L362.42,293.41L367.18,293.33L368.77,293.02L371.95,292.77L373.54,293.26L378.31,295.64L379.9,296.26L381.49,297.38L383.08,297.46L387.85,300.02L389.44,299.79L395.8,303.41L397.39,303.61L402.15,306.1L403.74,307.49L411.69,313.19L413.28,317.65L418.05,326.33L419.64,327.55L422.82,330.33L424.41,330.55L432.36,333.45L433.95,334.57L438.71,336.02L440.3,336.9L441.89,337.94L443.48,340.16L446.66,342.23L448.25,342.12L457.79,341.61L459.38,341.81L460.97,342.44L462.56,342.13L467.33,343.5L468.92,343.01L475.27,342.48L476.86,343.48L478.45,346.24L480.04,347.26L483.22,347.79L484.81,347.33L487.99,348.09L489.58,348.97L495.94,349.76L497.53,348.85L503.89,349.36L505.48,349.56L508.65,350.22L510.24,350.29L515.01,350.42L516.6,350.32L519.78,349.48L521.37,349.84L529.32,350.48L530.91,350.73L534.09,351.93L535.68,351.62L538.86,352.52L540.45,352.75L546.8,353.74L548.39,353.59L554.75,353.85L556.34,353.73L567.47,354.99L569.06,355.61L572.24,357.36L573.83,357.58L580.18,358.41L581.77,358.56L591.31,359.5L592.9,359.27L596.08,358.23L597.67,358.23L621.51,360.78L623.1,360.46L629.46,360.09L631.05,359.64L634.23,359.69L635.82,359.31L648.53,360.05L650.12,360.28L654.89,360.56L656.48,360.08L659.66,359.35L661.25,359.51L666.02,359.96L667.61,359.55L680.32,359.46L681.91,359.51L688.27,360.4L689.86,361.08L693.04,361.82L694.63,362.27L699.4,362.55L700.99,362.45L710.53,362.13L712.12,362.63L724.83,362.07L726.42,361.31L740.73,358.63L742.32,359.1L751.85,359.69L753.44,360.13L759.8,360.85L761.39,361.69L766.16,362.65L767.75,362.37L775.7,364.52L777.29,364.57L780.47,365.9L782.06,366.02L783.65,367.19L785.23,367.34L788.41,368.14L790,368.06L793.18,368.69L794.77,368.71L802.72,368.93L804.31,370.53L807.49,370.44L809.08,372.63L810.67,373.95L812.26,373.91L818.62,374.64L820.21,374.88L826.56,376.67L828.15,376.61L832.92,377.36L834.51,376.95L837.69,376.74L839.28,376.43L848.82,375.77L850.41,375.23L859.94,374.87L861.53,375.35L864.71,375.28L866.3,375.36L871.07,374.07L872.66,373.74L875.84,373.01L877.43,371.83L879.02,370.74L880.61,370.78L882.2,370.6L883.79,369.45L885.38,368.97L886.97,367.64L894.91,364.62L896.5,362.85L898.09,361.28L899.68,357.78L902.86,356.32L904.45,354.42L907.63,353.18L909.22,353.91L910.81,353.44L912.4,354.44L917.17,358L918.76,360.1L923.52,364.53L925.11,366.88L931.47,369.81L933.06,369.29L934.65,370.15L936.24,369.55L941.01,370.55L942.6,370.36L945.78,371.76L947.37,371.7L948.96,372.23L950.55,371.38L952.14,371.42L953.73,370.15L956.91,369.12L958.5,370.07L960.09,369.49L961.68,369.73L966.44,368.57L968.03,367.83L971.21,366.1L972.8,366.36L974.39,366.27L975.98,363.53L980.75,361.52L982.34,361.31L987.11,359.16L988.7,358.78L990.29,357.87L991.88,357.98L996.64,355.63L998.23,355.36L1001.41,354.57L1003,353.68L1004.59,352.79L1006.18,353.55L1007.77,353.27L1009.36,351.99L1010.95,350.15L1012.54,349.92L1020.49,344.51L1022.08,343.67L1023.67,342.62L1025.26,343.27L1030.02,343.41L1031.61,343.96L1036.38,347.47L1037.97,347.34L1039.56,348.28L1041.15,348.28L1044.33,347.6L1045.92,345.27L1049.1,343.63L1050.69,341.88L1052.28,341.52L1053.87,339.72L1055.46,338.55L1057.05,336.44L1058.64,335.67L1060.23,333.95L1074.53,321.28L1076.12,319.64L1085.66,314.36L1087.25,315.34L1092.02,314.72L1093.61,314.01L1098.38,309.88L1099.97,308.54L1101.55,308.42L1103.14,309.66L1106.32,310.19L1107.91,312.5L1109.5,313.16L1111.09,315.27L1112.68,316.69L1114.27,319.26L1117.45,322.13L1119.04,325.39L1120.63,327.03L1122.22,330.49L1123.81,331.98L1125.4,335.28L1126.99,336.41L1128.58,338.56L1131.75,340.9L1133.34,343.15L1138.11,347.07L1139.7,348.9L1147.65,354.55L1149.24,354.93L1154.01,357.07L1155.6,357.51L1160.37,359.64L1161.96,360.44L1163.55,360.57L1165.14,361.47L1173.08,363.53L1174.67,363.45L1179.44,362.64L1181.03,362.13L1185.8,359.68L1187.39,359.07L1193.75,357.84L1195.34,358.11L1204.87,359.84L1206.46,360.17L1208.05,361.23L1209.64,361.15L1214.41,361.74L1216,361.63L1225.54,361.53L1227.13,362.09L1231.9,362.62L1233.49,363.57L1246.2,367.67L1247.79,367.88L1260.51,375.24L1262.1,375.75L1265.28,378.2L1266.87,380.36L1271.63,386.2L1273.22,387.29L1274.81,389.69L1276.4,389.48L1282.76,389.98L1284.35,389.99L1287.53,390.4L1289.12,389.65L1290.71,388.67L1292.3,389.54L1295.48,390.43L1297.07,390.17L1298.66,390.34L1300.25,391.65L1301.84,393.91L1303.43,394.65L1308.19,394.36L1309.78,394.16L1311.37,394.22L1312.96,393.04L1314.55,393.01L1316.14,392.17L1319.32,391.83L1320.91,390.46L1327.27,386.02L1328.86,385.43L1333.63,385.98L1335.22,386.04L1341.57,386.27L1343.16,385.73L1344.75,386.27L1346.34,385.75L1349.52,382.8L1351.11,381.08L1352.7,381.29L1354.29,380.57L1355.88,380.29L1357.47,379.01L1362.24,378.58L1363.83,378.13L1368.6,376.57L1370.19,376.39L1374.96,374.07L1376.55,374.25L1379.72,374.61L1381.31,375.59L1395.62,379.31L1397.21,379.33L1401.98,379.29L1403.57,378.98L1405.16,379.34L1406.75,378.28L1417.87,378.16L1419.46,378.19L1429,378.99" style="vector-effect: none; fill: none; stroke: rgb(171, 99, 250); stroke-opacity: 1; stroke-width: 3px; opacity: 1;"/></g><g class="points"/><g class="text"/></g><g class="trace scatter traceed364b" style="stroke-miterlimit: 2; opacity: 1;"><g class="fills"/><g class="errorbars"/><g class="lines"><path class="js-line" d="M0,380.59L4.77,380.81L6.36,380.87L9.54,380.55L11.13,380.05L15.9,377.1L17.49,375.61L22.25,371.14L23.84,368.8L27.02,367.14L28.61,363.64L30.2,362.18L31.79,358.99L33.38,357.69L34.97,354.22L36.56,350.75L38.15,345.39L41.33,337.97L42.92,332.95L46.1,314.97L47.69,310.67L49.28,304.57L50.87,302.34L57.22,289.76L58.81,287.89L60.4,282.48L61.99,280.19L65.17,273.56L66.76,268.9L69.94,262.31L71.53,260.02L74.71,256.68L76.3,255.73L77.89,255.03L79.48,253.48L81.07,253.4L82.66,251.21L84.25,252.36L85.84,250.25L87.43,251.38L89.02,248.89L90.6,249.52L92.19,247.37L93.78,247.79L95.37,246.84L98.55,245.48L100.14,245.89L101.73,245.78L103.32,247.29L106.5,248.72L108.09,246.58L109.68,247.52L111.27,251.41L114.45,257.08L116.04,257.78L117.63,257.87L119.22,256.5L122.4,256.27L123.99,254.69L127.16,255.48L128.75,257.77L130.34,253.79L131.93,254.5L133.52,255.9L135.11,254.51L138.29,256.88L139.88,256.96L141.47,258.21L143.06,258.14L146.24,256.46L147.83,256.56L149.42,256.04L151.01,258.13L154.19,259.74L155.78,263.24L157.37,263.29L158.96,269.64L160.54,265.74L162.13,268.45L163.72,269.05L165.31,289.77L166.9,288.46L168.49,288.3L170.08,296.7L171.67,298.1L173.26,297.25L174.85,298.38L176.44,299.13L178.03,302.37L179.62,298.09L181.21,302.01L185.98,306.23L187.57,309.1L190.75,308.77L192.34,310.6L193.93,309.39L195.51,309.54L197.1,312.37L198.69,310.96L200.28,315.76L201.87,314.72L203.46,313.45L205.05,313.81L209.82,309.81L211.41,309.54L214.59,310.3L216.18,308.63L222.54,303.27L224.13,300.39L225.72,300.07L227.31,302.42L228.9,302.66L230.48,304.71L238.43,325.58L240.02,328.23L243.2,335.15L244.79,337.35L249.56,343.75L251.15,344.36L254.33,345.59L255.92,347.83L259.1,348.47L260.69,346.39L263.87,345.41L265.45,344.17L271.81,332.08L273.4,328.12L278.17,326.36L279.76,323.76L282.94,320.81L284.53,320.74L290.89,318.3L292.48,317.48L297.25,311.35L298.83,307.68L303.6,302.47L305.19,301.68L308.37,300.74L309.96,301.24L311.55,301.54L313.14,303.9L316.32,308.88L317.91,311.65L330.63,321.6L332.22,321.65L333.8,321.59L335.39,322.73L336.98,323.64L338.57,325.5L343.34,326.31L344.93,325.37L359.24,325.28L360.83,326.19L364.01,327.55L365.6,327.48L371.95,330.12L373.54,330.52L376.72,330.78L378.31,331.55L379.9,331.17L381.49,329.11L386.26,325.13L387.85,324.49L389.44,325.73L391.03,323.11L397.39,318.35L398.98,318.47L408.51,313.21L410.1,313.67L419.64,318.79L421.23,319.03L426,321.18L427.59,321.21L430.77,323.08L432.36,323.4L435.54,324.01L437.13,323.52L443.48,322.65L445.07,322.28L448.25,321.77L449.84,321.77L451.43,321.14L453.02,321.63L459.38,320.35L460.97,318.04L462.56,317.01L464.15,314.73L465.74,314.57L467.33,315.53L472.1,318.44L473.68,319.26L480.04,324.44L481.63,325L489.58,326.15L491.17,326.54L494.35,327.5L495.94,327.52L499.12,327.92L500.71,327.77L507.07,327.49L508.65,326.81L513.42,326.44L515.01,325.19L516.6,324.44L518.19,324.91L521.37,325.53L522.96,326.16L527.73,325.97L529.32,327.73L532.5,328.71L534.09,328.13L535.68,328.77L537.27,328.57L545.21,331.21L546.8,331.64L549.98,332.57L551.57,332.31L556.34,332.48L557.93,333.22L564.29,335.08L565.88,336.76L570.65,340.15L572.24,340.8L573.83,340.89L575.42,341.8L580.18,343.53L581.77,343.62L584.95,345.47L586.54,347L591.31,348.76L592.9,348.67L600.85,348.74L602.44,348.32L608.8,349.38L610.39,350.35L616.74,350.59L618.33,350.51L623.1,349.71L624.69,348.99L629.46,348.16L631.05,347.99L637.41,348.63L639,349.26L643.77,349.66L645.36,349.41L651.71,350.09L653.3,350.18L662.84,350.19L664.43,350.73L669.2,350.43L670.79,351.63L681.91,352.44L683.5,352.98L694.63,354.15L696.22,353.75L700.99,353.69L702.58,353.76L704.17,351.61L705.76,351.83L708.94,352.12L710.53,351.27L718.47,348.38L720.06,347.73L729.6,346.61L731.19,345.59L732.78,344.89L734.37,345.31L737.55,344.7L739.14,344.41L750.27,344.53L751.85,344.87L761.39,346.11L762.98,345.75L767.75,347.09L769.34,346.77L777.29,345.5L778.88,344.86L782.06,345.47L783.65,346L788.41,345.6L790,345.07L799.54,342.78L801.13,341.86L809.08,337.87L810.67,338.8L815.44,338.83L817.03,338.04L818.62,336.58L820.21,336.18L824.97,335.95L826.56,336L837.69,336.3L839.28,336.75L845.64,337.4L847.23,337.39L853.59,337.16L855.17,336.59L856.76,336.74L858.35,335.27L863.12,333.44L864.71,331.91L869.48,329.96L871.07,329.23L879.02,329.17L880.61,329.4L885.38,329.62L886.97,329.46L909.22,328.58L910.81,329.06L915.58,330.5L917.17,331.48L921.94,333.04L923.53,333.97L928.29,339.13L929.88,340.65L934.65,347L936.24,348.42L942.6,358.02L944.19,359.5L945.78,361.07L947.37,361.29L953.73,364.29L955.32,364.14L958.5,363.37L960.09,362.83L963.26,362.36L964.85,361.39L968.03,359.22L969.62,359.11L971.21,359.14L972.8,357.64L977.57,353.27L979.16,352.44L983.93,353.04L985.52,353.72L988.7,355.66L990.29,355.53L991.88,356.09L993.47,355.84L995.05,355.88L996.64,354.28L998.23,354.42L999.82,351.29L1004.59,345.34L1006.18,344.8L1010.95,341.23L1012.54,341.19L1017.31,337.01L1018.9,334.99L1026.85,327.91L1028.44,326.78L1030.02,326.88L1031.61,326.08L1033.2,325.96L1034.79,324.43L1036.38,322.98L1037.97,322.6L1039.56,320.18L1041.15,319.74L1042.74,317.32L1044.33,317.03L1045.92,313.92L1047.51,313.87L1052.28,309.8L1053.87,306.7L1055.46,305.08L1057.05,305.65L1058.64,303.4L1060.23,306.13L1061.82,307.66L1063.41,310.79L1066.58,312.69L1068.17,315.23L1076.12,319.49L1077.71,321.58L1080.89,324.33L1082.48,328.24L1087.25,332.22L1088.84,334.12L1092.02,333.94L1093.61,334.08L1096.79,335.93L1098.38,336.96L1101.55,340.5L1103.14,342.07L1107.91,346.13L1109.5,346.38L1114.27,344.72L1115.86,343.94L1120.63,340.71L1122.22,340.54L1123.81,339.45L1125.4,339.28L1126.99,338.67L1128.58,339.46L1131.76,339.43L1133.35,339.63L1134.93,339.74L1136.52,341.02L1141.29,343.17L1142.88,343.02L1146.06,345.81L1147.65,346.58L1154.01,347.92L1155.6,348.13L1158.78,348.95L1160.37,349.33L1171.49,351.02L1173.08,351.38L1177.85,354.83L1179.44,354.93L1182.62,355.01L1184.21,354.14L1188.98,354.07L1190.57,354.33L1196.93,356.33L1198.52,356.24L1200.11,356.28L1201.7,357.13L1206.46,357.94L1208.05,358L1209.64,357.5L1211.23,358.27L1220.77,359.18L1222.36,358.96L1227.13,358.96L1228.72,358.04L1231.9,356.19L1233.49,355.74L1236.67,355.14L1238.25,354.23L1244.61,354.06L1246.2,354.25L1247.79,354.65L1249.38,356.34L1252.56,356.77L1254.15,355.9L1255.74,355.36L1257.33,355.67L1258.92,355.62L1260.51,356.61L1270.05,357.99L1271.64,358.81L1277.99,365.19L1279.58,366.04L1281.17,368.86L1282.76,369.68L1285.94,371.55L1287.53,373.57L1293.89,379.07L1295.48,382.33L1297.07,384.01L1298.66,387.26L1303.43,394.68L1305.02,396.33L1306.61,398.61L1308.19,398.83L1312.96,399.35L1314.55,400.65L1319.32,402.91L1320.91,403.96L1325.68,405.41L1327.27,405.18L1328.86,404.98L1330.45,402.99L1332.04,401.76L1333.63,399.15L1338.4,394.67L1339.99,394.31L1341.58,392.68L1343.16,392.99L1344.75,392.88L1346.34,392L1347.93,392.2L1349.52,391.44L1354.29,390.96L1355.88,390.48L1360.65,388.3L1362.24,388.06L1365.42,387.11L1367.01,387.27L1371.78,386.78L1373.37,387.47L1378.14,389.6L1379.72,389.8L1381.31,390.61L1382.9,392.35L1389.26,394.15L1390.85,394.41L1395.62,396.6L1397.21,399.34L1398.8,401.51L1400.39,405.95L1401.98,409L1403.57,416.26L1405.16,421.84L1406.75,436.85L1409.93,461.8L1411.52,505.3L1413.1,533.86L1414.69,582.36L1417.87,620.88L1419.46,627.29L1421.05,631.61L1422.64,638.82L1427.41,646.04L1429,684" style="vector-effect: none; fill: none; stroke: rgb(255, 161, 90); stroke-opacity: 1; stroke-width: 3px; opacity: 1;"/></g><g class="points"/><g class="text"/></g></g></g></g><path class="xlines-above crisp" d="M0,0" style="fill: none;"/><path class="ylines-above crisp" d="M0,0" style="fill: none;"/><g class="overlines-above"/><g class="xaxislayer-above"><g class="xtick"><text text-anchor="middle" x="0" y="841" transform="translate(248.37,0)" style="font-family: 'Open Sans', verdana, arial, sans-serif; font-size: 20px; fill: rgb(42, 63, 95); fill-opacity: 1; white-space: pre; opacity: 1;">2</text></g><g class="xtick"><text text-anchor="middle" x="0" y="841" style="font-family: 'Open Sans', verdana, arial, sans-serif; font-size: 20px; fill: rgb(42, 63, 95); fill-opacity: 1; white-space: pre; opacity: 1;" transform="translate(407.32,0)">4</text></g><g class="xtick"><text text-anchor="middle" x="0" y="841" style="font-family: 'Open Sans', verdana, arial, sans-serif; font-size: 20px; fill: rgb(42, 63, 95); fill-opacity: 1; white-space: pre; opacity: 1;" transform="translate(566.27,0)">6</text></g><g class="xtick"><text text-anchor="middle" x="0" y="841" style="font-family: 'Open Sans', verdana, arial, sans-serif; font-size: 20px; fill: rgb(42, 63, 95); fill-opacity: 1; white-space: pre; opacity: 1;" transform="translate(725.23,0)">8</text></g><g class="xtick"><text text-anchor="middle" x="0" y="841" style="font-family: 'Open Sans', verdana, arial, sans-serif; font-size: 20px; fill: rgb(42, 63, 95); fill-opacity: 1; white-space: pre; opacity: 1;" transform="translate(884.18,0)">10</text></g><g class="xtick"><text text-anchor="middle" x="0" y="841" style="font-family: 'Open Sans', verdana, arial, sans-serif; font-size: 20px; fill: rgb(42, 63, 95); fill-opacity: 1; white-space: pre; opacity: 1;" transform="translate(1043.1399999999999,0)">12</text></g><g class="xtick"><text text-anchor="middle" x="0" y="841" style="font-family: 'Open Sans', verdana, arial, sans-serif; font-size: 20px; fill: rgb(42, 63, 95); fill-opacity: 1; white-space: pre; opacity: 1;" transform="translate(1202.09,0)">14</text></g><g class="xtick"><text text-anchor="middle" x="0" y="841" style="font-family: 'Open Sans', verdana, arial, sans-serif; font-size: 20px; fill: rgb(42, 63, 95); fill-opacity: 1; white-space: pre; opacity: 1;" transform="translate(1361.05,0)">16</text></g><g class="xtick"><text text-anchor="middle" x="0" y="841" style="font-family: 'Open Sans', verdana, arial, sans-serif; font-size: 20px; fill: rgb(42, 63, 95); fill-opacity: 1; white-space: pre; opacity: 1;" transform="translate(1520,0)">18</text></g></g><g class="yaxislayer-above"><g class="ytick"><text text-anchor="end" x="90" y="7" transform="translate(0,766.47)" style="font-family: 'Open Sans', verdana, arial, sans-serif; font-size: 20px; fill: rgb(42, 63, 95); fill-opacity: 1; white-space: pre; opacity: 1;">−0.4</text></g><g class="ytick"><text text-anchor="end" x="90" y="7" style="font-family: 'Open Sans', verdana, arial, sans-serif; font-size: 20px; fill: rgb(42, 63, 95); fill-opacity: 1; white-space: pre; opacity: 1;" transform="translate(0,693.8)">−0.3</text></g><g class="ytick"><text text-anchor="end" x="90" y="7" style="font-family: 'Open Sans', verdana, arial, sans-serif; font-size: 20px; fill: rgb(42, 63, 95); fill-opacity: 1; white-space: pre; opacity: 1;" transform="translate(0,621.14)">−0.2</text></g><g class="ytick"><text text-anchor="end" x="90" y="7" style="font-family: 'Open Sans', verdana, arial, sans-serif; font-size: 20px; fill: rgb(42, 63, 95); fill-opacity: 1; white-space: pre; opacity: 1;" transform="translate(0,548.47)">−0.1</text></g><g class="ytick"><text text-anchor="end" x="90" y="7" style="font-family: 'Open Sans', verdana, arial, sans-serif; font-size: 20px; fill: rgb(42, 63, 95); fill-opacity: 1; white-space: pre; opacity: 1;" transform="translate(0,475.8)">0</text></g><g class="ytick"><text text-anchor="end" x="90" y="7" style="font-family: 'Open Sans', verdana, arial, sans-serif; font-size: 20px; fill: rgb(42, 63, 95); fill-opacity: 1; white-space: pre; opacity: 1;" transform="translate(0,403.13)">0.1</text></g><g class="ytick"><text text-anchor="end" x="90" y="7" style="font-family: 'Open Sans', verdana, arial, sans-serif; font-size: 20px; fill: rgb(42, 63, 95); fill-opacity: 1; white-space: pre; opacity: 1;" transform="translate(0,330.46000000000004)">0.2</text></g><g class="ytick"><text text-anchor="end" x="90" y="7" style="font-family: 'Open Sans', verdana, arial, sans-serif; font-size: 20px; fill: rgb(42, 63, 95); fill-opacity: 1; white-space: pre; opacity: 1;" transform="translate(0,257.78999999999996)">0.3</text></g><g class="ytick"><text text-anchor="end" x="90" y="7" style="font-family: 'Open Sans', verdana, arial, sans-serif; font-size: 20px; fill: rgb(42, 63, 95); fill-opacity: 1; white-space: pre; opacity: 1;" transform="translate(0,185.12)">0.4</text></g><g class="ytick"><text text-anchor="end" x="90" y="7" style="font-family: 'Open Sans', verdana, arial, sans-serif; font-size: 20px; fill: rgb(42, 63, 95); fill-opacity: 1; white-space: pre; opacity: 1;" transform="translate(0,112.45)">0.5</text></g></g><g class="overaxes-above"/></g></g><g class="polarlayer"/><g class="smithlayer"/><g class="ternarylayer"/><g class="geolayer"/><g class="funnelarealayer"/><g class="pielayer"/><g class="iciclelayer"/><g class="treemaplayer"/><g class="sunburstlayer"/><g class="glimages"/><defs id="topdefs-abeebb"><g class="clips"/><clipPath id="legendabeebb"><rect width="84" height="181" x="0" y="0"/></clipPath></defs><g class="layer-above"><g class="imagelayer"/><g class="shapelayer"/></g><g class="infolayer"><g class="legend" pointer-events="all" transform="translate(252.477,110.08000000000001)"><rect class="bg" shape-rendering="crispEdges" width="84" height="181" x="0" y="0" style="stroke: rgb(68, 68, 68); stroke-opacity: 1; fill: rgb(255, 255, 255); fill-opacity: 1; stroke-width: 0px;"/><g class="scrollbox" transform="" clip-path="url(#legendabeebb)"><g class="groups"><g class="traces" transform="translate(0,22.1)" style="opacity: 1;"><text class="legendtext" text-anchor="start" x="40" y="9.360000000000001" style="font-family: 'Open Sans', verdana, arial, sans-serif; font-size: 24px; fill: rgb(42, 63, 95); fill-opacity: 1; white-space: pre;">1m</text><g class="layers" style="opacity: 1;"><g class="legendfill"/><g class="legendlines"><path class="js-line" d="M5,0h30" style="fill: none; stroke: rgb(99, 110, 250); stroke-opacity: 1; stroke-width: 3px;"/></g><g class="legendsymbols"><g class="legendpoints"/></g></g><rect class="legendtoggle" x="0" y="-17.1" width="78.609375" height="34.2" style="fill: rgb(0, 0, 0); fill-opacity: 0;"/></g><g class="traces" transform="translate(0,56.300000000000004)" style="opacity: 1;"><text class="legendtext" text-anchor="start" x="40" y="9.360000000000001" style="font-family: 'Open Sans', verdana, arial, sans-serif; font-size: 24px; fill: rgb(42, 63, 95); fill-opacity: 1; white-space: pre;">2m</text><g class="layers" style="opacity: 1;"><g class="legendfill"/><g class="legendlines"><path class="js-line" d="M5,0h30" style="fill: none; stroke: rgb(239, 85, 59); stroke-opacity: 1; stroke-width: 3px;"/></g><g class="legendsymbols"><g class="legendpoints"/></g></g><rect class="legendtoggle" x="0" y="-17.1" width="78.609375" height="34.2" style="fill: rgb(0, 0, 0); fill-opacity: 0;"/></g><g class="traces" transform="translate(0,90.5)" style="opacity: 1;"><text class="legendtext" text-anchor="start" x="40" y="9.360000000000001" style="font-family: 'Open Sans', verdana, arial, sans-serif; font-size: 24px; fill: rgb(42, 63, 95); fill-opacity: 1; white-space: pre;">3m</text><g class="layers" style="opacity: 1;"><g class="legendfill"/><g class="legendlines"><path class="js-line" d="M5,0h30" style="fill: none; stroke: rgb(0, 204, 150); stroke-opacity: 1; stroke-width: 3px;"/></g><g class="legendsymbols"><g class="legendpoints"/></g></g><rect class="legendtoggle" x="0" y="-17.1" width="78.609375" height="34.2" style="fill: rgb(0, 0, 0); fill-opacity: 0;"/></g><g class="traces" transform="translate(0,124.70000000000002)" style="opacity: 1;"><text class="legendtext" text-anchor="start" x="40" y="9.360000000000001" style="font-family: 'Open Sans', verdana, arial, sans-serif; font-size: 24px; fill: rgb(42, 63, 95); fill-opacity: 1; white-space: pre;">4m</text><g class="layers" style="opacity: 1;"><g class="legendfill"/><g class="legendlines"><path class="js-line" d="M5,0h30" style="fill: none; stroke: rgb(171, 99, 250); stroke-opacity: 1; stroke-width: 3px;"/></g><g class="legendsymbols"><g class="legendpoints"/></g></g><rect class="legendtoggle" x="0" y="-17.1" width="78.609375" height="34.2" style="fill: rgb(0, 0, 0); fill-opacity: 0;"/></g><g class="traces" transform="translate(0,158.9)" style="opacity: 1;"><text class="legendtext" text-anchor="start" x="40" y="9.360000000000001" style="font-family: 'Open Sans', verdana, arial, sans-serif; font-size: 24px; fill: rgb(42, 63, 95); fill-opacity: 1; white-space: pre;">5m</text><g class="layers" style="opacity: 1;"><g class="legendfill"/><g class="legendlines"><path class="js-line" d="M5,0h30" style="fill: none; stroke: rgb(255, 161, 90); stroke-opacity: 1; stroke-width: 3px;"/></g><g class="legendsymbols"><g class="legendpoints"/></g></g><rect class="legendtoggle" x="0" y="-17.1" width="78.609375" height="34.2" style="fill: rgb(0, 0, 0); fill-opacity: 0;"/></g></g></g><rect class="scrollbar" rx="20" ry="3" width="0" height="0" x="0" y="0" style="fill: rgb(128, 139, 164); fill-opacity: 1;"/></g><g class="g-gtitle"><text class="gtitle" x="800" y="50" text-anchor="middle" dy="0.7em" style="opacity: 1; font-family: 'Open Sans', verdana, arial, sans-serif; font-size: 20px; fill: rgb(42, 63, 95); fill-opacity: 1; font-weight: bold; white-space: pre;">Yielding, Front and no eHMI</text></g><g class="g-xtitle"><text class="xtitle" x="805.5" y="873.5" text-anchor="middle" style="opacity: 1; font-family: 'Open Sans', verdana, arial, sans-serif; font-size: 20px; fill: rgb(42, 63, 95); fill-opacity: 1; white-space: pre;">Time (in seconds)</text></g><g class="g-ytitle" transform="translate(0.578125,0)"><text class="ytitle" transform="rotate(-90,19.421875,460)" x="19.421875" y="460" text-anchor="middle" style="opacity: 1; font-family: 'Open Sans', verdana, arial, sans-serif; font-size: 20px; fill: rgb(42, 63, 95); fill-opacity: 1; white-space: pre;">Yaw Angle (in radians)</text></g></g></svg>