<svg class="main-svg" xmlns="http://www.w3.org/2000/svg" xmlns:xlink="http://www.w3.org/1999/xlink" width="4800" height="2700" style="" viewBox="0 0 1600 900"><rect x="0" y="0" width="1600" height="900" style="fill: rgb(255, 255, 255); fill-opacity: 1;"/><defs id="defs-f2a50d"><g class="clips"><clipPath id="clipf2a50dxyplot" class="plotclip"><rect width="1429" height="720"/></clipPath><clipPath class="axesclip" id="clipf2a50dx"><rect x="91" y="0" width="1429" height="900"/></clipPath><clipPath class="axesclip" id="clipf2a50dy"><rect x="0" y="100" width="1600" height="720"/></clipPath><clipPath class="axesclip" id="clipf2a50dxy"><rect x="91" y="100" width="1429" height="720"/></clipPath></g><g class="gradients"/><g class="patterns"/></defs><g class="bglayer"><rect class="bg" x="91" y="100" width="1429" height="720" style="fill: rgb(229, 236, 246); fill-opacity: 1; stroke-width: 0;"/></g><g class="layer-below"><g class="imagelayer"/><g class="shapelayer"/></g><g class="cartesianlayer"><g class="subplot xy"><g class="layer-subplot"><g class="shapelayer"/><g class="imagelayer"/></g><g class="minor-gridlayer"><g class="x"/><g class="y"/></g><g class="gridlayer"><g class="x"><path class="xgrid crisp" transform="translate(248.37,0)" d="M0,100v720" style="stroke: rgb(255, 255, 255); stroke-opacity: 1; stroke-width: 1px;"/><path class="xgrid crisp" transform="translate(407.32,0)" d="M0,100v720" style="stroke: rgb(255, 255, 255); stroke-opacity: 1; stroke-width: 1px;"/><path class="xgrid crisp" transform="translate(566.28,0)" d="M0,100v720" style="stroke: rgb(255, 255, 255); stroke-opacity: 1; stroke-width: 1px;"/><path class="xgrid crisp" transform="translate(725.23,0)" d="M0,100v720" style="stroke: rgb(255, 255, 255); stroke-opacity: 1; stroke-width: 1px;"/><path class="xgrid crisp" transform="translate(884.18,0)" d="M0,100v720" style="stroke: rgb(255, 255, 255); stroke-opacity: 1; stroke-width: 1px;"/><path class="xgrid crisp" transform="translate(1043.1399999999999,0)" d="M0,100v720" style="stroke: rgb(255, 255, 255); stroke-opacity: 1; stroke-width: 1px;"/><path class="xgrid crisp" transform="translate(1202.09,0)" d="M0,100v720" style="stroke: rgb(255, 255, 255); stroke-opacity: 1; stroke-width: 1px;"/><path class="xgrid crisp" transform="translate(1361.05,0)" d="M0,100v720" style="stroke: rgb(255, 255, 255); stroke-opacity: 1; stroke-width: 1px;"/></g><g class="y"><path class="ygrid crisp" transform="translate(0,758.7)" d="M91,0h1429" style="stroke: rgb(255, 255, 255); stroke-opacity: 1; stroke-width: 1px;"/><path class="ygrid crisp" transform="translate(0,675.65)" d="M91,0h1429" style="stroke: rgb(255, 255, 255); stroke-opacity: 1; stroke-width: 1px;"/><path class="ygrid crisp" transform="translate(0,592.5899999999999)" d="M91,0h1429" style="stroke: rgb(255, 255, 255); stroke-opacity: 1; stroke-width: 1px;"/><path class="ygrid crisp" transform="translate(0,509.54)" d="M91,0h1429" style="stroke: rgb(255, 255, 255); stroke-opacity: 1; stroke-width: 1px;"/><path class="ygrid crisp" transform="translate(0,343.44)" d="M91,0h1429" style="stroke: rgb(255, 255, 255); stroke-opacity: 1; stroke-width: 1px;"/><path class="ygrid crisp" transform="translate(0,260.39)" d="M91,0h1429" style="stroke: rgb(255, 255, 255); stroke-opacity: 1; stroke-width: 1px;"/><path class="ygrid crisp" transform="translate(0,177.34)" d="M91,0h1429" style="stroke: rgb(255, 255, 255); stroke-opacity: 1; stroke-width: 1px;"/></g></g><g class="zerolinelayer"><path class="yzl zl crisp" transform="translate(0,426.49)" d="M91,0h1429" style="stroke: rgb(255, 255, 255); stroke-opacity: 1; stroke-width: 2px;"/></g><g class="layer-between"><g class="shapelayer"/><g class="imagelayer"/></g><path class="xlines-below"/><path class="ylines-below"/><g class="overlines-below"/><g class="xaxislayer-below"/><g class="yaxislayer-below"/><g class="overaxes-below"/><g class="overplot"><g class="xy" transform="translate(91,100)" clip-path="url(#clipf2a50dxyplot)"><g class="scatterlayer mlayer"><g class="trace scatter trace05fb00" style="stroke-miterlimit: 2; opacity: 1;"><g class="fills"/><g class="errorbars"/><g class="lines"><path class="js-line" d="M0,350.13L4.77,345.12L6.36,344.57L9.54,340.55L11.13,339.76L12.72,338.11L14.31,337.56L15.9,335.99L17.49,335.83L20.67,334.87L22.26,335.22L23.85,334.25L25.44,331.84L28.62,328.38L30.21,323.9L31.8,321.24L33.39,313.44L34.97,308.88L36.56,299.13L39.74,291.09L41.33,280.9L44.51,258.83L46.1,256.37L47.69,251.05L49.28,249.91L50.87,251.84L52.46,251.43L57.23,253.35L58.82,255.46L60.41,254.54L62,252.43L63.59,247.53L65.18,245.59L66.77,242.22L68.35,242.01L71.53,239.94L73.13,243.88L74.71,241.55L76.3,245.08L77.89,242.49L79.48,245.28L82.66,240.54L84.25,242.01L85.84,236.34L87.43,236.04L89.02,234.57L90.61,238.39L92.2,238.79L93.79,238.1L95.38,223.13L96.97,218.13L98.55,214.55L100.15,205.02L103.33,198.45L104.91,193.07L106.5,189.07L108.09,187.53L109.68,177.98L111.27,177.42L112.86,174.26L114.45,173.91L116.04,174.38L117.63,181.2L119.22,182.64L120.81,181.95L122.4,183.01L123.99,180.45L125.58,180.06L127.17,196.2L130.35,193.9L131.94,196.02L133.53,193.4L135.12,206.68L136.71,206.89L138.29,201.25L139.88,200.35L141.48,203.18L143.06,199.85L144.65,200.12L146.24,202.41L147.83,203.23L149.42,200.31L151.01,200.8L152.6,201.54L154.19,207.25L155.78,211.1L157.37,211.66L158.96,209.53L160.55,215.84L162.14,212.81L163.73,212.34L165.32,215.02L166.91,215.94L168.5,215.84L170.09,213.03L171.68,214.8L173.27,213.95L174.85,215.58L176.44,211.63L178.03,213.02L179.62,209.46L181.21,210.4L182.8,209.82L184.39,211.42L185.98,205.22L187.57,201.2L189.16,190.95L192.34,183.55L193.93,182.91L195.52,187.87L197.11,186.76L203.47,201.31L205.06,205.25L206.65,209.47L208.23,217.28L211.42,221.92L213,221.76L214.59,223.45L216.18,219.89L217.77,218.05L219.36,211.15L220.95,210.72L222.54,205.25L224.13,198.58L225.72,204.16L227.31,203.99L228.9,209.17L230.49,207.06L232.08,210.3L233.67,212.47L235.26,207.93L236.84,206.78L238.43,203.13L241.62,196.03L243.2,189.36L246.38,176.53L247.97,173.56L249.56,172.37L251.15,166.2L252.74,163.92L254.33,164.66L257.51,159.73L259.1,163.01L260.69,164.87L262.28,163.29L263.87,161.58L265.46,158.55L270.23,145.31L271.82,142.78L273.41,141.9L275,139.84L276.58,144.2L278.17,145.15L279.76,153.55L281.35,156.21L284.53,167.77L286.12,169.09L289.3,169.2L290.89,160.62L292.48,163.68L294.07,162.02L295.66,163.03L297.25,165.8L298.84,165.95L300.43,168.4L303.61,164.9L305.2,159.35L306.78,164.61L308.37,155.56L309.97,156.15L311.56,150.61L313.14,152.01L314.73,155.46L324.27,179.14L325.86,182.4L329.04,188.7L330.63,190.2L332.22,190.15L333.81,188.35L336.99,185.21L338.58,186.79L340.17,187.7L341.76,182.9L343.35,186.54L344.94,188.29L348.11,194.85L349.7,199.82L351.29,203.59L352.88,211.56L354.47,212.44L356.06,221.18L359.24,227.07L360.83,229.2L364.01,239.16L365.6,241.9L368.78,248.97L370.37,256.05L376.72,270.57L378.31,273.73L379.91,275.09L381.5,278.45L383.08,279.95L384.67,283.95L387.85,286.64L389.44,286.99L391.03,287.16L392.62,286.35L394.21,284.25L395.8,285.76L398.98,286.43L400.57,287.65L405.34,292.59L406.93,294.47L408.52,295.86L410.11,299.73L411.7,302.31L413.29,303.31L414.88,305.8L416.46,305.27L418.05,308L419.64,308.68L422.82,307.63L424.41,305.96L427.59,305.88L429.18,307.45L432.36,304.31L433.95,304.31L438.72,309.04L440.31,309.26L441.9,309.42L443.49,307.37L445.08,305.96L446.66,303.13L448.26,302.08L449.85,303.62L451.43,303.6L453.02,306.1L454.61,304.79L456.2,305.61L459.38,310.15L460.97,310.97L464.15,313.71L465.74,313.25L467.33,308.69L468.92,307.39L470.51,303.37L472.1,302.26L475.28,298.03L476.87,295.14L481.64,298.26L483.22,301.67L484.82,304.62L486.4,304.99L487.99,305.53L489.58,303.69L491.17,303.31L492.76,301.73L494.35,302.04L495.94,303.68L497.53,302.77L499.12,307.73L503.89,313.31L505.48,311.26L507.07,312.77L508.66,316L511.84,326.14L513.43,324.79L515.01,324.89L516.6,322.35L518.2,316.46L519.79,314L522.96,307.68L524.55,304.31L526.14,300.37L527.73,301.4L529.32,300.71L530.91,300.85L532.5,306.11L534.09,307.01L535.68,307.41L537.27,309.64L540.45,311.33L542.04,313.6L545.22,319.52L546.81,320.11L549.99,325.66L551.57,324.99L553.16,323.68L554.75,326.94L557.93,323.93L559.52,325.34L562.7,322.74L564.29,322.83L565.88,321.11L567.47,321.82L570.65,321.67L572.24,321.8L573.83,322.59L575.42,321.67L577.01,323.23L578.6,323.12L580.19,325.74L581.78,325.25L583.37,324.57L584.95,325.95L586.54,326.58L588.14,328.36L589.73,329.15L591.31,331.07L592.9,330.95L594.49,331.96L597.67,332.88L599.26,331.89L600.85,331.49L602.44,329.68L604.03,328.8L605.62,329.21L607.21,328.18L608.8,328.4L610.39,328.64L611.98,327.77L613.57,329.38L615.16,329.34L616.75,329.48L618.34,331.32L624.69,336.65L626.28,339.25L627.87,341.52L629.46,341.49L631.05,341.23L632.64,343.38L634.23,342.51L635.82,343.14L639,342.96L640.59,343.53L645.36,348.73L646.95,349.59L651.72,354.19L653.31,355.3L659.67,361.3L661.25,362.09L664.43,363.15L666.02,362.84L670.79,365.18L672.38,365.49L677.15,366.94L678.74,366.6L681.92,366.99L683.51,367.27L686.69,366.53L688.28,366.82L696.22,368.11L697.81,367.39L699.4,366.09L700.99,363.8L702.58,363.36L704.17,361.15L708.94,358.08L710.53,357.69L712.12,356.07L713.71,355.65L715.3,354.26L716.89,354L720.07,350.23L721.66,349.24L723.25,348.82L724.83,347.3L726.42,343.42L728.02,343.44L731.19,340.32L732.78,334.67L739.14,332.38L740.73,330.51L742.32,330.85L743.91,334.67L747.09,338.26L748.68,338.89L759.8,340.43L761.39,341.37L766.16,343.33L767.75,343.46L777.29,345.18L778.88,345.01L783.65,343.25L785.24,341.95L790.01,339.94L791.6,339.87L805.9,338.13L807.49,337.27L810.67,335.66L812.26,335.04L818.62,333.27L820.21,333.68L821.8,333.49L823.38,334.35L831.33,338.1L832.92,338.82L836.1,338.86L837.69,337.64L840.87,336.62L842.46,335.02L845.64,334.67L847.23,335.36L852,335.73L853.59,337.49L863.12,339.54L864.71,339.37L869.48,341.18L871.07,340.71L877.43,341.33L879.02,342.18L880.61,342.73L882.2,345.63L888.56,350.65L890.15,350.3L893.33,350.05L894.92,350.87L898.1,351.32L899.68,350.83L902.86,349.98L904.45,349.76L906.04,349.57L907.63,348.02L909.22,346.51L910.81,343.95L912.4,343.11L913.99,340.56L915.58,338.64L917.17,335L920.35,334.17L921.94,332.59L929.89,326.21L931.48,325.83L934.65,325.15L936.25,325.64L937.84,324.9L939.42,325.26L941.01,325.11L942.6,327.03L945.78,328.6L947.37,330.56L950.55,330.97L952.14,329.79L958.5,325.02L960.09,324.07L963.26,323.05L964.86,321.47L968.04,318.01L969.62,316.1L972.8,313.57L974.39,310.82L980.75,302.57L982.34,301.95L987.11,299.64L988.7,299.7L995.06,297.05L996.65,295.42L999.83,293.52L1001.42,292.45L1004.59,291.82L1006.19,291.75L1009.36,292.23L1010.95,292.38L1015.72,293.41L1017.31,294.58L1018.9,295.08L1020.49,296.85L1022.08,297.59L1023.67,300.76L1025.26,302.06L1026.85,304.46L1031.61,312.45L1033.2,312.72L1037.97,318.55L1039.56,319.15L1041.16,320.14L1042.74,322.3L1045.92,325.56L1047.51,326.3L1052.28,330.7L1053.87,331.4L1055.46,331.64L1057.05,335.93L1063.41,348.67L1065,349.78L1068.18,352.95L1069.77,352.53L1071.35,355.05L1072.94,355.06L1079.3,355.89L1080.89,355.12L1082.48,355.38L1084.07,356.7L1085.66,356.17L1087.25,358.32L1088.84,359.05L1090.43,361.34L1092.02,359.95L1093.61,361.55L1095.2,359.31L1096.79,358.59L1098.38,358.26L1099.97,355.89L1101.55,355.18L1103.14,349.68L1104.74,348.44L1106.33,341.99L1107.91,339.53L1109.5,338.77L1111.09,337.76L1112.68,339.98L1117.45,344.13L1119.04,347.25L1120.63,350.28L1122.22,351.56L1126.99,356.99L1128.58,356.51L1133.35,358.53L1134.94,361.35L1136.53,360.73L1138.12,361.43L1139.71,360.58L1141.29,360.88L1144.47,357.62L1146.06,356.58L1147.65,355.19L1149.24,351.59L1150.83,349.53L1152.42,343.04L1154.01,340.28L1155.6,335.92L1160.37,326.47L1161.96,324.26L1165.14,319.49L1166.73,319.08L1169.91,316.92L1171.49,317.6L1173.09,317.74L1174.68,316.11L1177.85,313.05L1179.44,309.97L1182.62,305.27L1184.21,304.15L1185.8,297.61L1187.39,296.15L1192.16,296.46L1193.75,300.66L1195.34,303.21L1196.93,308.67L1198.52,310.28L1200.11,310.49L1201.7,314.27L1203.29,312.82L1206.47,312.69L1208.06,313.84L1209.65,314.17L1211.23,315.87L1212.82,317.3L1214.41,320.82L1217.59,319.94L1219.18,323.67L1222.36,321L1223.95,320.94L1225.54,318.2L1227.13,319.34L1235.08,299.54L1236.67,299.33L1238.26,297.2L1239.85,292.23L1241.43,289.28L1243.02,284.17L1244.62,282.28L1246.2,277.42L1247.79,271.71L1249.38,260.83L1254.15,251.97L1255.74,252.01L1262.1,264.87L1263.69,265.87L1265.28,269.26L1266.87,269.33L1268.46,274.06L1270.05,276.3L1276.41,285.98L1278,288.54L1279.59,290.2L1281.17,287.53L1282.76,288.84L1284.35,288.97L1287.53,287.63L1289.12,287.16L1292.3,289.37L1293.89,292.54L1298.66,298L1300.25,298.45L1303.43,303.02L1305.02,308.22L1306.61,309.54L1308.2,309.27L1309.78,307.93L1311.37,308.33L1312.97,308.7L1314.56,307.29L1316.14,308.11L1317.73,307.55L1319.32,309.12L1320.91,309L1324.09,308.25L1325.68,306.52L1327.27,304.52L1328.86,303.78L1330.45,301.67L1332.04,300.94L1336.81,294.13L1338.4,294.07L1341.58,290.99L1343.17,290.41L1344.76,289.12L1346.34,288.94L1349.52,290.77L1351.11,292.53L1354.29,296.08L1355.88,290.75L1357.47,281.69L1359.06,221.06L1362.24,128.26L1363.83,113.31L1365.42,94.72L1367.01,89.21L1370.19,75.2L1371.78,72.79L1376.55,65.71L1378.14,63.82L1381.31,58.56L1382.91,57.38L1386.08,52.43L1387.67,50.87L1389.26,49.57L1390.85,47.02L1394.03,44.98L1395.62,43.28L1401.98,42.08L1403.57,40.33L1405.16,41.48L1406.75,40.55L1408.34,41.19L1409.93,44.52L1411.52,46.96L1413.11,54.12L1414.7,51.84L1416.29,58.83L1417.88,76.61L1419.46,104.37L1421.05,105.63L1422.64,98.19L1425.82,77.31L1427.41,71.15L1429,69.36" style="vector-effect: none; fill: none; stroke: rgb(99, 110, 250); stroke-opacity: 1; stroke-width: 3px; opacity: 1;"/></g><g class="points"/><g class="text"/></g><g class="trace scatter traceb9911a" style="stroke-miterlimit: 2; opacity: 1;"><g class="fills"/><g class="errorbars"/><g class="lines"><path class="js-line" d="M0,350.42L4.77,351.94L6.36,352.58L7.95,353.35L9.54,353.21L14.31,354.5L15.9,355.94L20.66,354.55L22.25,355.21L23.85,352.59L25.44,352.95L28.62,348.28L30.2,345.97L33.38,342.52L34.97,338.21L36.56,335.22L38.15,329.24L41.33,321.41L42.92,318.7L44.51,316.4L46.1,316.06L50.87,317.91L52.46,317.14L54.05,316.75L55.64,313.79L57.23,312.25L58.81,308.82L60.4,306.93L61.99,306.62L63.58,304.51L65.17,304.08L66.76,306.27L68.35,304.24L71.53,306.41L73.12,305.56L74.71,303.77L76.3,304.45L77.89,299.08L79.48,298.98L82.66,293.11L84.25,286.85L87.43,281.67L89.02,273.35L93.79,262.58L95.38,252.36L98.55,246.78L100.14,245.85L101.73,242.34L103.32,243.2L104.91,245.14L106.5,244.39L108.09,253.57L109.68,257.76L112.86,284.8L114.45,313.12L116.04,320.79L117.63,308.47L122.4,265.77L123.99,260.55L125.58,255.02L127.17,253.26L128.75,244.7L130.34,240.83L131.93,235.62L133.52,234.3L136.7,229.04L138.29,228.01L139.88,230.98L141.47,230.57L143.06,234.06L144.65,241.48L151.01,264.45L152.6,268.98L154.19,277.29L155.78,280.31L160.54,294.2L162.13,298.14L165.31,302.8L166.9,305.23L170.08,312.2L171.67,314.03L174.85,325.8L176.44,327.9L178.03,327.61L179.62,329.51L181.21,333.3L182.8,333.58L185.98,329.37L187.57,328.64L189.16,327.41L190.74,324.87L193.93,331.27L195.52,331.32L201.87,328.56L203.46,329.53L206.64,338.3L208.23,339.01L209.82,339.86L211.41,361.24L214.59,382.76L216.18,386.71L217.77,389.63L219.36,390.52L220.95,388.68L222.54,389.79L224.13,386.76L225.72,396.23L227.31,384.22L228.89,378.34L230.48,378.52L232.07,376.24L233.66,371.64L235.25,370.9L238.43,367.67L240.02,372.92L241.61,373.45L243.2,371.38L244.79,376.9L246.38,377.67L247.97,376.95L249.56,377.22L251.15,377.33L252.74,376.04L255.92,369.49L257.51,368.93L259.1,369.72L260.69,364.09L262.28,360.81L263.87,360.41L265.46,357.38L267.05,356.73L270.22,346.57L271.81,341.62L274.99,339.85L276.58,339.59L278.17,333.78L279.76,336.65L281.35,333.04L282.94,332.09L284.53,328.11L286.12,327.52L287.71,321.32L289.3,318.88L290.89,315.61L292.48,316.49L294.07,315.86L295.66,316.45L297.25,315.76L298.83,318.19L303.6,324.52L305.19,321.86L306.78,321.45L308.37,317.5L311.55,312.79L313.14,308.09L314.73,307.73L316.32,306.6L322.68,309.48L324.27,309.19L329.03,301.1L330.63,298.93L333.81,297.53L335.4,299.08L338.57,305.01L340.16,306.12L341.75,306.32L343.34,304.55L348.11,302.63L349.7,303.53L351.29,298.9L352.88,297.34L354.47,290.82L356.06,290.75L357.65,292.74L359.24,292.47L360.83,291.81L362.42,289.92L364.01,288.48L365.6,280.39L367.18,277.53L368.77,272.92L371.95,272.46L373.54,276.21L376.72,279.25L378.31,279.52L381.49,280.56L383.08,276.8L384.67,276.17L386.26,274.51L387.85,272.67L389.44,272.67L391.03,272.32L392.62,273.43L394.21,274.96L395.8,272.14L397.39,272.86L398.97,276.11L400.57,275.82L402.16,276.6L403.75,276.85L405.34,280L408.51,278.6L410.1,278.86L411.69,278.56L413.28,279.43L414.87,275.68L416.46,277.02L418.05,274.13L419.64,274.51L422.82,279.19L424.41,278.57L426,274.63L427.59,274.47L430.77,270.35L432.36,271.77L433.95,267.89L435.54,267.48L437.12,265.46L438.71,265.86L440.3,267.27L441.9,264.94L443.48,264.34L445.07,265.3L448.25,268.98L449.84,268.12L453.02,276.45L454.61,274.99L456.2,272.16L457.79,272.82L462.56,281.46L464.15,288.92L465.74,292.28L467.33,297.83L472.1,309.08L473.69,310.49L476.86,313.34L478.45,312.72L480.04,311.53L481.63,309.17L483.22,307.96L484.81,305.38L486.4,303.29L487.99,303.39L489.58,302.83L491.17,303.52L494.35,304.59L495.94,306.26L497.53,306.96L499.12,308.5L500.71,308.72L502.3,309.85L505.48,313.37L507.06,314.74L513.42,318.48L515.01,318.4L516.6,317.7L518.19,318.61L519.78,318.39L521.37,319.04L522.96,319.91L524.55,322.17L527.73,321.14L529.32,321.34L537.27,330.25L538.85,334.32L542.04,337.88L543.62,340.62L548.39,345.38L549.98,345.91L553.16,347.78L554.75,348.47L556.34,348.57L557.93,347.09L559.52,345.42L561.11,339.59L564.29,332.56L565.88,327.12L567.47,325.3L569.06,324.82L572.24,327.89L573.83,327.88L575.42,330.1L577,329.82L578.59,331.05L580.18,333.26L583.36,334.63L584.95,332.29L588.13,325.83L589.72,321.7L592.9,317.02L594.49,312.97L597.67,311.33L599.26,311.63L600.85,312.03L602.44,314.79L604.03,316.63L605.62,319.88L608.79,323.8L610.39,324.24L613.57,325.86L615.15,323.03L621.51,314.74L623.1,311.28L626.28,307.75L627.87,306.9L631.05,305.8L632.64,306.04L635.82,307.46L637.41,309.7L639,309.95L640.59,312.07L643.77,313.08L645.35,311.64L646.94,310.63L648.53,308.14L650.12,307.52L651.71,304.17L654.89,300.35L656.48,299.99L662.84,301.07L664.43,303.35L667.61,308.25L669.2,311.68L670.79,314.25L672.38,320.81L673.97,325.16L675.55,326.89L677.14,331.13L678.74,331.69L683.51,331.7L685.09,333.23L691.45,334.1L693.04,334.95L696.22,335.96L697.81,336.43L700.99,339.57L702.58,342.85L707.35,347.42L708.94,350.65L712.12,352.5L713.71,350.53L721.65,343.74L723.24,340.9L729.6,336.95L731.19,334.83L734.37,331.03L735.96,328.52L740.73,324.57L742.32,321.49L743.91,319.92L745.49,316.5L748.68,310.45L750.27,309.23L755.03,310.84L756.62,310.23L761.39,307.85L762.98,306.08L766.16,302.92L767.75,304.91L769.34,306.3L770.93,309.86L774.11,311.66L775.7,311.61L780.47,310.18L782.06,311.59L785.23,310.81L786.82,311.39L794.77,313.33L796.36,314.27L799.54,315.88L801.13,316.68L804.31,318.61L805.9,318.33L810.67,317.86L812.26,317.72L813.85,316.82L815.44,317.17L823.39,318.93L824.97,320.12L828.15,321.16L829.74,321.34L832.92,322.44L834.51,322.33L842.46,321.47L844.05,321.46L858.35,322.17L859.94,321.8L880.61,320.25L882.2,319.81L886.96,318.38L888.56,318L891.73,315.22L893.32,314.11L901.27,308.65L902.86,308.01L906.04,307.56L907.63,308.49L909.22,309.25L910.81,311.21L921.94,320.58L923.52,321.23L925.11,322.62L926.7,322.03L931.47,322.5L933.06,321.05L937.83,317.51L939.42,318.29L941.01,316.63L942.6,316.56L945.78,315.82L947.37,315.68L948.96,316.94L950.55,316.43L952.14,316.37L953.72,317.21L955.31,316.83L956.9,315.35L958.5,313.72L960.09,314.03L963.26,311.27L964.85,311.71L968.03,310.75L969.62,310.63L971.21,311.26L972.8,308.32L974.39,306.73L975.98,303.2L980.75,288.87L982.34,286.99L983.93,282.22L985.51,280.05L987.11,279.28L988.7,277.53L993.46,272.77L995.05,272.01L999.82,268.32L1001.41,268.9L1004.59,269.84L1006.18,271.39L1010.95,273.99L1012.54,277.2L1017.31,282.42L1018.9,283.26L1022.08,283.08L1023.66,284.94L1025.25,285.4L1026.84,284.48L1033.2,286.23L1034.79,287.68L1037.97,288.1L1039.56,292.01L1041.15,295.21L1042.74,296.68L1047.51,298.58L1049.1,298.26L1053.87,300.58L1055.46,302.33L1057.05,302.39L1058.64,304.71L1064.99,310.19L1066.58,310.46L1068.17,311.97L1069.76,311.58L1076.12,311.06L1077.71,310.33L1082.48,309.32L1084.07,309.62L1087.25,311.51L1088.84,311.41L1093.6,312.22L1095.19,311.5L1096.79,311L1098.38,311.55L1106.32,311.14L1107.91,310.25L1112.68,308.19L1114.27,307.9L1115.86,306.76L1117.45,306.56L1120.63,305.98L1122.22,305.5L1126.99,304.09L1128.58,302.34L1130.17,300.11L1131.75,292.71L1133.34,288.8L1134.93,279.56L1138.11,271.73L1139.7,265.13L1141.29,265.48L1142.88,272.55L1144.47,276.85L1146.06,284.36L1147.65,287.2L1149.24,292.4L1152.42,296.3L1154.01,299.69L1155.6,298.9L1157.19,299.85L1158.78,300.71L1160.37,302.59L1161.95,302.88L1163.54,302.17L1168.31,301.45L1169.9,301.59L1171.49,301.75L1173.08,303.87L1176.26,305.98L1177.85,306.7L1179.44,307.48L1181.03,307.11L1188.98,311.6L1190.57,312.21L1193.74,311.39L1195.34,310.42L1198.52,308.26L1200.11,307.88L1201.69,307.52L1203.28,308.15L1208.05,309.71L1209.64,310.02L1216,313.13L1217.59,313.57L1220.77,315.11L1222.36,317.21L1228.72,319.8L1230.31,319.68L1238.25,321.59L1239.84,321.39L1246.2,321.5L1247.79,321.05L1249.38,321.15L1250.97,322.92L1255.74,327.08L1257.33,328.95L1263.68,333.76L1265.28,335.27L1270.05,340.53L1271.63,344.66L1289.12,379.76L1290.71,382.57L1292.3,383.13L1293.89,385.04L1295.48,383.92L1297.07,386.1L1300.25,386.19L1301.83,386.67L1306.6,386.46L1308.19,387.57L1311.37,388.62L1312.96,387.99L1316.14,387.79L1317.73,387.4L1325.68,378.54L1327.27,375.01L1328.86,373.05L1330.45,373.46L1332.04,373.6L1333.63,370.29L1336.81,365.53L1338.4,360.79L1339.99,357.58L1341.57,351.23L1343.16,348.58L1344.75,343.5L1346.34,340.42L1347.93,334.83L1349.52,333.21L1351.11,328.19L1354.29,323.7L1355.88,319.11L1357.47,316.08L1359.06,310.52L1360.65,307.21L1362.24,301.32L1367.01,292.05L1368.6,290.68L1373.36,285.19L1374.95,285.09L1376.54,283.16L1378.13,283.15L1379.72,282.13L1381.31,279.98L1386.08,278.92L1387.67,280.39L1389.26,281.48L1390.85,280.61L1392.44,285.01L1394.03,286.02L1398.8,296.36L1400.39,297.9L1403.56,301.79L1405.16,303.32L1408.34,305.47L1409.92,306.75L1416.28,309.63L1417.87,311.31L1424.23,316.98L1425.82,317.96L1429,318.79" style="vector-effect: none; fill: none; stroke: rgb(239, 85, 59); stroke-opacity: 1; stroke-width: 3px; opacity: 1;"/></g><g class="points"/><g class="text"/></g><g class="trace scatter traceb0c54e" style="stroke-miterlimit: 2; opacity: 1;"><g class="fills"/><g class="errorbars"/><g class="lines"><path class="js-line" d="M0,343.31L3.18,343.43L4.77,343.99L9.54,343.37L11.13,343.46L15.9,342.8L17.49,342.15L22.26,340.85L23.85,338.84L30.21,333.71L31.79,331.54L34.97,327.89L36.56,325.5L38.15,323.23L39.74,317.86L46.1,305.74L47.69,300.72L50.87,291.58L52.46,284.8L57.23,263.99L58.82,253.58L62,241.57L63.58,232.7L65.17,226.55L66.76,216.83L69.94,204.27L71.53,200.92L74.71,180.04L76.3,174.79L77.89,167.12L79.48,163.97L84.25,153.27L85.84,151.18L87.43,151.02L89.02,147.1L90.61,147.68L92.2,142.78L93.79,142.04L95.38,136.05L103.32,118.61L104.91,117.15L112.86,89.67L114.45,85.83L117.63,85.78L119.22,88.06L120.81,90.96L122.4,91.05L131.94,109.84L133.52,112.34L136.7,115.08L138.29,115.19L141.47,118.72L143.06,119.45L146.24,122.67L147.83,124.42L149.42,125.05L151.01,126.54L155.78,128.9L157.37,131.67L160.55,134.21L162.14,135.74L163.73,138.09L165.32,139.07L168.5,142.49L170.08,142.96L173.26,151.72L174.85,154.35L179.62,166.33L181.21,168.26L185.98,180.23L187.57,185.93L190.75,196.35L192.34,198.53L193.93,212.6L195.52,213.16L197.11,215.71L198.7,226.01L201.87,228.12L203.46,237.19L205.05,238.43L206.64,241.71L209.82,247.88L211.41,256.35L214.59,264.59L216.18,270.48L217.77,272.95L219.36,280.79L220.95,283.18L222.54,287.5L224.13,286.4L225.72,288.61L227.31,292.85L228.9,292.91L230.49,291.97L232.08,285.39L233.67,282.89L235.26,277.94L240.03,260.52L241.61,261.76L243.2,260.55L244.79,254.91L247.97,252.08L249.56,252.5L252.74,250.62L254.33,249.35L257.51,246.9L259.1,245.85L263.87,239.13L265.46,236.17L267.05,238.76L268.64,239.79L270.23,242.73L271.81,241.11L276.58,232.88L278.17,229.17L281.35,221.97L282.94,220.68L286.12,212.51L287.71,202.94L290.89,202.58L292.48,201.25L297.25,189.24L298.84,187.63L302.02,187.73L303.6,182.41L305.2,188.32L306.78,187.3L309.96,189.67L311.55,187.32L313.14,178.14L314.73,180.38L316.32,184.36L317.91,179.27L319.5,178.23L321.09,179.62L324.27,183.1L325.86,183.35L327.45,189.8L329.04,191.07L336.99,213.62L338.58,221.65L340.17,227.39L341.75,229.62L343.34,232.37L344.93,237.92L346.52,240.13L348.11,243.77L352.88,246.41L354.47,246.3L359.24,240.38L360.83,233.9L364.01,226.05L365.6,223.87L367.19,222.25L368.78,216.99L373.54,204.48L375.14,203.6L378.31,209.07L379.9,211.52L381.49,213.21L383.08,213.59L384.67,214.98L386.26,214.06L387.85,212.21L389.44,214.5L392.62,217.7L394.21,219.85L397.39,227.36L398.98,231.7L400.57,233.31L402.16,233.39L403.75,237.36L405.34,237.67L406.93,239.14L408.52,239.28L410.11,240.87L411.69,240.81L413.28,240.45L414.87,241.08L418.05,243.12L419.64,243.42L424.41,252.44L426,255.6L429.18,258.63L430.77,259.48L432.36,260.32L433.95,258.94L437.13,259.59L438.72,259.58L441.9,261.42L443.48,263.13L448.25,267.24L449.84,268.14L454.61,270.3L456.2,272.22L457.79,274.07L459.38,274.56L464.15,277.05L465.74,277.16L478.46,283.23L480.04,285.06L481.63,285.01L483.22,285.86L492.76,286.01L494.35,285.58L497.53,285.45L499.12,286.63L500.71,286.85L502.3,286.08L507.07,285.46L508.66,286.68L511.83,286.17L513.43,286.85L516.6,288.11L518.19,289.05L534.09,286.38L535.68,285.19L540.45,283.73L542.04,283.72L548.4,284.47L549.98,286.97L551.57,287.82L553.16,289.72L557.93,291.14L559.52,290.04L561.11,287.6L562.7,287.42L565.88,283.93L567.47,282.42L572.24,278.84L573.83,278.47L577.01,278.18L578.6,278.09L580.19,278.13L581.77,279.85L588.13,293.1L589.72,297.69L594.49,302.43L596.08,301.55L599.26,299.26L600.85,296.62L608.8,293.51L610.39,294.58L613.57,296.73L615.16,299.23L616.75,300.77L618.34,305.03L623.1,312.63L624.69,313.91L626.28,315.3L627.87,314.93L634.23,304.98L635.82,303.7L637.41,300.78L639,299.95L642.18,298.19L643.77,298.1L646.95,298.63L648.54,299.09L653.31,303.47L654.89,305.65L656.48,306.76L658.07,309.36L661.25,310.32L662.84,308.03L666.02,302.59L667.61,301.58L672.38,299.94L673.97,299.28L677.15,298.59L678.74,298.99L685.1,300.75L686.69,301.18L694.63,309.65L696.22,310.12L700.99,312.59L702.58,312.36L707.35,311.94L708.94,311.4L712.12,311.88L713.71,311.9L716.89,312.36L718.48,313.17L721.65,314.32L723.24,316.27L726.42,317.46L728.01,318.26L729.6,319L731.19,318.28L732.78,318.06L734.37,316.52L735.96,315.5L737.55,313.36L742.32,311L743.91,311.28L753.45,312.03L755.04,312.84L758.21,315.95L759.8,316.85L762.98,318.09L764.57,318.4L766.16,319.35L767.75,319.29L770.93,319.32L772.52,319.55L775.7,318.09L777.29,318.02L785.24,320.47L786.83,320.5L788.42,320.06L790,320.96L796.36,321.82L797.95,321.44L802.72,320.96L804.31,320.13L817.03,323.19L818.62,324.3L821.8,325.85L823.38,326.14L826.56,325.89L828.15,327.27L840.87,329.06L842.46,328.05L844.05,328.4L845.64,327.87L848.82,327.49L850.41,327.51L853.59,328.34L855.18,328.01L859.94,327.89L861.54,327.21L877.43,330.75L879.02,331.41L883.79,333.18L885.38,333.62L893.33,333.36L894.92,332.33L898.09,330.46L899.68,330.78L902.86,328.34L904.45,328.49L907.63,327.95L909.22,327.96L910.81,327.83L912.4,328.49L913.99,329.32L915.58,329.27L920.35,331.4L921.94,331.18L928.29,332.38L929.88,332.76L939.42,335.83L941.01,336.7L950.55,338.15L952.14,338.68L958.5,341.48L960.09,341.83L969.62,344.32L971.21,345.31L975.98,348.31L977.57,348.66L979.16,349.12L980.75,348.63L982.34,349.5L983.93,349.2L995.06,348.06L996.65,348.57L998.23,347.68L999.82,347.82L1001.41,347.19L1003,347.7L1006.18,345.82L1007.77,346.25L1009.36,347.06L1010.95,346.92L1017.31,342.6L1018.9,339.1L1020.49,338.97L1022.08,337.98L1023.67,338.49L1025.26,338.15L1030.03,337.62L1031.61,337.62L1034.8,336.26L1036.38,335.9L1039.56,337.01L1041.15,336.81L1044.33,337.71L1045.92,337.51L1052.28,337.71L1053.87,338.62L1057.05,338.32L1058.64,338.65L1060.23,338.4L1061.82,337.21L1065,334.9L1066.58,332.52L1071.35,329.46L1072.94,327.14L1074.53,326.75L1076.12,325.01L1082.48,318.97L1084.07,319.18L1087.25,318.98L1088.84,319.71L1092.02,320.92L1093.61,320.22L1095.2,318.91L1096.79,318.73L1098.38,317.47L1099.97,313.84L1101.55,310.59L1103.14,309.8L1106.32,307.12L1107.91,307.32L1109.5,309.26L1111.09,309.6L1115.86,309.16L1117.45,307.74L1122.22,307.22L1123.81,306.97L1130.17,311.21L1131.76,310.84L1134.94,311.99L1136.52,312.39L1138.11,314.54L1139.7,315.24L1146.06,318.54L1147.65,318.67L1150.83,317.3L1152.42,315.79L1154.01,315.85L1155.6,313.59L1157.19,315.7L1158.78,316.23L1160.37,314.62L1161.96,316.12L1166.72,318.25L1168.31,320.66L1171.49,321.31L1173.08,319.54L1177.85,317.1L1179.44,318.37L1185.8,319.99L1187.39,319.53L1192.16,318.92L1193.75,319.12L1198.52,316.82L1200.11,316.25L1204.88,314.94L1206.46,315.16L1209.64,313.99L1211.23,314.48L1212.82,315.09L1214.41,314.78L1217.59,315.6L1219.18,315.79L1230.31,317.83L1231.9,316.41L1233.49,321.41L1235.08,319.82L1236.67,320.38L1238.26,322.13L1239.84,322.35L1241.43,323.77L1244.61,325.13L1246.2,325.72L1247.79,326L1249.38,327.06L1254.15,330.19L1255.74,332.3L1260.51,333.65L1262.1,336.43L1263.69,337.24L1265.28,340.8L1268.46,341.03L1270.05,342.38L1271.64,343.02L1273.23,344.67L1274.81,347.79L1276.4,348.06L1282.76,352.91L1284.35,352.87L1289.12,353.7L1290.71,353.74L1293.89,353.28L1295.48,351.77L1300.25,351.56L1301.84,351.86L1305.02,351.9L1306.6,350.51L1309.78,348.14L1311.37,348.26L1312.96,348.93L1314.55,348.47L1317.73,348.73L1319.32,350.01L1320.91,349.74L1322.5,350.3L1327.27,350.14L1328.86,350.19L1332.04,350.89L1333.63,350.51L1336.81,349.92L1338.4,349.64L1344.75,347.69L1346.34,347.62L1347.93,347.32L1349.52,346.15L1354.29,345.36L1355.88,346.46L1357.47,346.69L1359.06,346.05L1362.24,345.99L1363.83,346.89L1365.42,346.25L1367.01,344.09L1373.37,333.53L1374.96,332.41L1381.31,323.33L1382.9,322.53L1389.26,315.82L1390.85,315.37L1395.62,307.81L1397.21,307.97L1400.39,305.55L1401.98,303.09L1405.16,302.71L1406.75,302.03L1408.34,303.05L1409.93,302.54L1411.52,302.88L1413.11,301.87L1414.69,302.04L1416.28,303.28L1417.87,303.43L1419.46,302.35L1422.64,294.87L1424.23,294.93L1425.82,294.91L1427.41,292.73L1429,291.07" style="vector-effect: none; fill: none; stroke: rgb(0, 204, 150); stroke-opacity: 1; stroke-width: 3px; opacity: 1;"/></g><g class="points"/><g class="text"/></g><g class="trace scatter trace02593d" style="stroke-miterlimit: 2; opacity: 1;"><g class="fills"/><g class="errorbars"/><g class="lines"><path class="js-line" d="M0,355.23L3.18,354.76L4.77,353.36L9.54,351.46L11.13,350.43L15.9,348.44L17.49,347.97L19.08,346.59L20.67,346.22L22.26,344.01L23.85,343.14L27.02,339.62L28.62,338.27L33.38,334.03L34.97,333.42L38.15,329.75L39.74,326.63L41.33,325.2L42.92,320.42L46.1,312.47L47.69,311.17L49.28,308.5L50.87,308.61L52.46,306.71L54.05,306.88L55.64,303.46L57.23,304.22L60.41,303.14L62,301.04L63.58,300.74L65.17,301.26L66.76,298.14L68.35,299.1L73.12,299.04L74.71,297.73L76.3,298.31L77.89,290.39L79.48,291.59L81.07,291.07L82.66,286.99L84.25,285.07L87.43,284.24L89.02,283.69L92.19,288.38L93.78,292.84L95.37,288.04L96.96,290.38L100.14,290.15L101.73,290.52L103.32,291.23L104.91,289.92L114.45,272.26L116.04,268.68L119.22,255.15L120.81,250.79L122.4,237.76L123.99,214.28L125.58,201.1L127.17,176.27L130.35,154.75L131.93,150.35L133.52,147.38L135.11,148.84L136.7,149.61L138.29,153.74L139.88,156.16L141.47,167.23L146.24,183.53L147.83,192.87L149.42,195.72L151.01,206.88L154.19,210.05L155.78,221.76L157.37,223.71L158.96,244.36L160.55,245.85L162.14,258.45L163.72,259.12L165.31,264.05L166.9,260.52L168.49,260.6L170.08,266.66L171.67,262.57L173.26,263.82L174.85,263.74L179.62,257.66L181.21,253.82L182.8,251.6L184.39,253.81L185.98,250.13L187.57,274.84L189.16,276.13L190.75,278.99L192.34,280.87L193.93,316.35L197.11,325.64L198.69,317.25L200.28,319.47L201.87,320.17L205.05,331.68L206.64,323.01L208.23,323.1L209.82,324.69L211.41,325.44L213,325.36L214.59,324.08L216.18,326.25L217.77,327L219.36,324.97L220.95,329.44L222.54,329.74L224.13,340.18L225.72,337.9L228.9,337.57L230.49,335.96L232.08,333.76L233.66,334.7L235.25,326.29L236.84,326.47L238.43,323.79L240.02,326.2L241.61,324.37L243.2,329.31L244.79,329.43L246.38,325.49L247.97,313.08L249.56,315.2L251.15,313.96L252.74,324.22L254.33,322.67L255.92,323.04L257.51,321.96L259.1,322.46L260.69,322.62L262.28,325.87L265.46,327.57L267.05,330.62L268.64,331.99L270.22,336.76L271.81,329.03L273.4,327.12L274.99,321.38L276.58,319.87L278.17,309.59L279.76,307.02L281.35,305.77L282.94,307.13L284.53,308.13L286.12,304.92L287.71,302.26L289.3,303.07L294.07,306.14L295.66,308.86L298.84,316.14L300.43,315.81L303.6,326.36L305.19,326.63L308.37,325.43L309.96,322.85L311.55,322.89L313.14,321.73L314.73,319.86L316.32,319.76L317.91,317.66L319.5,317.03L322.68,314.86L324.27,315.09L325.86,311.9L327.45,314.16L330.63,316.63L332.22,315.99L333.81,318.48L335.4,319.07L336.99,320.29L338.58,317.75L340.16,317L341.75,318.61L346.52,321.54L348.11,321.77L351.29,323.01L352.88,322.57L357.65,314.95L359.24,314.18L360.83,313.3L362.42,311.35L364.01,309.73L365.6,309.55L368.78,306.99L370.36,307.23L371.95,304.41L373.54,305.25L379.9,298.14L381.49,297.94L383.08,296.76L384.67,296.65L387.85,298.73L389.44,299.84L391.03,302.54L392.62,303.17L397.39,301.78L398.98,299.6L400.57,298.51L402.16,300.58L405.34,302.17L406.92,301.77L408.52,302.6L410.1,302.04L414.87,297.82L416.46,298.41L422.82,297.46L424.41,297.92L429.18,299.79L430.77,299.38L432.36,299.21L433.95,300.72L437.13,301.26L438.72,301.48L440.3,301.82L441.89,301.39L445.07,302.32L446.66,302.01L453.02,304.13L454.61,304.75L456.2,303.55L457.79,303.67L462.56,303.61L464.15,303.19L468.92,302.54L470.51,302.66L472.09,303.1L473.69,305.94L475.28,306.39L476.86,308.29L480.04,310.19L481.63,311.15L487.99,313.28L489.58,313.42L499.12,313.1L500.71,314.02L503.89,314.54L505.48,316.69L511.83,317.47L513.42,318.43L516.6,318.79L518.19,319.44L521.37,320.01L522.96,321.54L524.55,322.98L526.14,322.96L527.73,322.85L529.32,321.85L534.09,320.54L535.68,320.38L538.86,320.18L540.45,320.48L546.8,321.64L548.39,321.66L562.7,331.57L564.29,331.55L577.01,336.52L578.6,337.04L584.95,338.67L586.54,338.58L592.9,338.75L594.49,339.16L597.67,339.1L599.26,339.59L604.03,339.58L605.62,338.48L610.39,336.99L611.98,337.57L619.92,340.46L621.51,341.61L624.69,342.52L626.28,342.36L635.82,342.73L637.41,343.23L643.77,342.89L645.36,343.58L648.53,343.73L650.12,344.16L658.07,343.47L659.66,343.6L661.25,343.01L662.84,344.06L669.2,342.51L670.79,342.9L672.38,342.72L673.97,341.53L681.92,343.35L683.51,344.85L686.68,346.93L688.27,348.65L694.63,352.25L696.22,352.22L700.99,351.76L702.58,350.07L708.94,347.02L710.53,347.03L723.24,346.85L724.83,347.55L737.55,347.84L739.14,348.3L743.91,348.89L745.5,349.07L748.68,348.1L750.26,347.57L756.62,345.95L758.21,345.81L764.57,345.89L766.16,346.62L767.75,346.73L769.34,346.04L775.7,345.26L777.29,344.55L785.24,340.08L786.82,339.57L790,338.41L791.59,337.63L801.13,335.7L802.72,335.72L809.08,336.73L810.67,336.69L815.44,337.33L817.03,337.92L821.8,338.2L823.39,338.41L829.74,340.1L831.33,340.47L844.05,340.75L845.64,341.07L850.41,341.36L852,340.93L856.77,340.32L858.35,340.54L872.66,338.29L874.25,337.61L880.61,336.27L882.2,335.54L902.86,333.78L904.45,333.99L910.81,331.38L912.4,331.85L913.99,330.5L915.58,330.38L921.94,330.97L923.52,330.27L925.12,330.29L926.7,326.92L931.47,325.46L933.06,325.4L941.01,326.44L942.6,324.68L945.78,324.91L947.37,321.58L952.14,320.85L953.73,321.23L958.5,325.19L960.09,324.94L961.68,328.37L963.26,327.46L964.85,330.39L966.44,330.58L968.03,330.81L969.62,334.8L972.8,335.8L974.39,335.78L975.98,336.46L977.57,335.85L979.16,334.96L980.75,335.14L983.93,335.02L985.52,335.97L988.7,338.18L990.29,339.33L993.47,340.55L995.06,343.04L999.82,344.54L1001.41,347.87L1006.18,349.98L1007.77,350.55L1010.95,350.97L1012.54,352.06L1015.72,353.3L1017.31,354.8L1018.9,356.34L1020.49,359.32L1022.08,360.05L1023.67,359.2L1025.26,358.99L1026.85,361.04L1028.43,361.5L1030.02,361.07L1036.38,357.84L1037.97,357.43L1039.56,356.9L1041.15,357.2L1042.74,357.64L1044.33,359.55L1049.1,361.17L1050.69,361.45L1052.28,362.06L1053.87,361.63L1057.05,362.04L1058.64,361.99L1063.4,356.46L1064.99,354.32L1066.58,352.36L1068.17,352.26L1072.94,348.48L1074.53,347.14L1076.12,346.58L1077.71,344.98L1079.3,343.66L1080.89,341.25L1085.66,336.68L1087.25,336.21L1090.43,333.58L1092.02,333.07L1095.2,332.14L1096.79,331.18L1101.55,329.64L1103.14,330.26L1104.73,330.54L1106.32,330.02L1117.45,329.06L1119.04,328.48L1123.81,325.6L1125.4,325.43L1128.58,325.69L1130.17,324.64L1134.93,323.71L1136.52,323.38L1139.7,321.83L1141.29,321.61L1155.6,318.42L1157.19,318.15L1174.67,310.41L1176.26,309.83L1177.85,308.09L1179.44,308.37L1181.03,308.96L1182.62,311.08L1185.8,315.65L1187.39,315.89L1190.57,316.58L1192.16,319.43L1193.75,318.9L1195.34,319.49L1204.87,321.14L1206.46,324.82L1208.05,325.02L1209.64,327.61L1212.82,330.68L1214.41,333.12L1216,334.52L1217.59,337.41L1223.95,344.45L1225.54,345.79L1228.72,348.08L1230.31,347.91L1231.9,348.61L1233.49,348.25L1236.66,347.85L1238.25,347.72L1239.84,346.32L1241.43,346.31L1244.61,344.7L1246.2,344.37L1247.79,344.82L1249.38,344.4L1252.56,343.38L1254.15,343.8L1262.1,346.63L1263.69,346.73L1268.46,346.52L1270.05,345.21L1271.63,343.27L1273.22,342.83L1277.99,349.37L1279.58,352.62L1281.17,353.58L1282.76,356.62L1290.71,367.15L1292.3,367.32L1295.48,369.39L1297.07,369.59L1298.66,369.5L1300.25,370.52L1301.84,372.62L1303.43,376.82L1305.01,379.03L1306.6,383.01L1309.78,387.91L1311.37,392.47L1312.96,394.09L1314.55,397.97L1317.73,403.66L1319.32,404.61L1320.91,406.92L1322.5,412.07L1324.09,414.49L1325.68,420.89L1327.27,424L1328.86,429.84L1330.45,433.25L1332.04,443.59L1335.22,460.21L1336.81,472.62L1339.99,479.72L1341.57,477.73L1343.16,477.84L1344.75,476.35L1346.34,477.63L1347.93,481.55L1349.52,480.71L1351.11,477.88L1352.7,474.49L1354.29,466.6L1355.88,462.01L1357.47,460.33L1360.65,463.28L1362.24,462.44L1365.42,457.58L1367.01,455.26L1370.19,449.62L1371.78,452L1373.37,452.6L1374.96,452.05L1378.13,449.61L1379.72,446.78L1382.9,441.5L1384.49,440.9L1386.08,436.22L1387.67,435.78L1390.85,435.71L1392.44,435.92L1395.62,434.52L1397.21,431.04L1398.8,427.21L1400.39,425.74L1403.57,415.04L1405.16,399.66L1406.75,388.13L1408.34,364.35L1409.93,352.33L1411.52,328.89L1414.69,315.46L1416.28,312.22L1421.05,314.06L1422.64,315.23L1425.82,317.76L1427.41,319.6L1429,321.46" style="vector-effect: none; fill: none; stroke: rgb(171, 99, 250); stroke-opacity: 1; stroke-width: 3px; opacity: 1;"/></g><g class="points"/><g class="text"/></g><g class="trace scatter trace80f346" style="stroke-miterlimit: 2; opacity: 1;"><g class="fills"/><g class="errorbars"/><g class="lines"><path class="js-line" d="M0,348.17L7.95,345.68L9.54,344.46L20.67,334.98L22.26,333.53L23.84,332.52L25.44,328.42L30.2,319.89L31.8,316.29L39.74,302.45L41.33,297.11L44.51,288.92L46.1,279.81L49.28,271.32L50.87,271.28L52.46,259L54.05,256.76L58.82,259.53L60.41,258.43L62,256.67L63.58,256.14L68.35,250.71L69.94,246.93L71.53,244.88L73.12,240.06L82.66,215.8L84.25,213.72L87.43,208.64L89.02,210.01L90.61,208.22L92.2,202.1L96.96,188.2L98.55,188.83L103.32,183.56L104.91,183.69L111.27,168.42L112.86,164.56L116.04,158.81L117.63,158.75L119.22,157.31L120.81,160.5L123.99,168.74L125.58,160.13L127.17,161.66L128.76,166.93L130.35,169.7L131.94,169.55L133.52,167.82L135.11,167.71L141.47,155.52L143.06,154.37L144.65,153.46L146.24,150.38L147.83,149.31L149.42,150.23L152.6,157L154.19,165.01L155.78,170.76L157.37,189.48L160.55,204.9L162.14,208.16L166.9,213.41L168.49,221.21L171.67,225.91L173.26,226.8L174.85,233.68L176.44,236.68L178.03,237.9L179.62,240.49L181.21,241.94L182.8,245.54L189.16,255.34L190.75,255.71L192.34,255.36L193.93,252.05L195.52,251.1L197.11,246.75L198.7,244.85L200.29,240.77L203.46,236.79L205.05,230.44L208.23,226.92L209.82,225.99L211.41,223.1L213,222.44L216.18,221.03L217.77,221.23L219.36,220.36L220.95,221.42L222.54,223.56L224.13,227.82L227.31,231.4L228.9,232.06L230.49,233.35L232.08,231.44L233.66,229.3L235.25,231.24L236.84,227.41L238.43,227.34L240.02,225.39L241.61,227.01L244.79,230.05L246.38,233.3L249.56,241.79L251.15,246L255.92,253.06L257.51,254.53L260.69,256.85L262.28,256.96L263.87,256.11L265.46,256.28L268.64,257.34L270.23,255.1L271.81,253.79L273.4,253.84L274.99,254.64L276.58,254.12L279.76,250.52L281.35,250.26L284.53,252.02L286.12,251.32L287.71,251.1L289.3,252.28L290.89,252.48L292.48,251.43L294.07,250.07L295.66,250.98L297.25,251.57L298.84,247.65L300.43,247.25L302.01,249.15L303.6,250.79L305.2,249.4L308.37,246.15L309.96,251.51L314.73,255.65L316.32,258.45L324.27,266.65L325.86,267.59L329.04,270.89L330.63,272.64L332.22,273.25L333.81,274.81L336.99,282.59L338.58,284.09L340.17,286.15L341.75,290.35L346.52,295.9L348.11,296.67L351.29,297.95L352.88,297.31L354.47,296.2L356.06,293.42L359.24,291.78L360.83,289.15L368.78,280.26L370.37,278.79L371.95,278.8L373.54,276.84L378.31,271.36L379.9,269.54L381.49,265.83L383.08,264.37L389.44,256.71L391.03,256.36L395.8,249.76L397.39,248.19L403.75,243.42L405.34,241.96L406.93,240.24L408.52,240.97L414.87,239.7L416.46,238.99L419.64,237.93L421.23,239.18L427.59,242.32L429.18,242.48L430.77,243.12L432.36,245.69L437.13,249.74L438.72,250.1L443.48,254.71L445.07,255.38L449.84,258.42L451.43,260.69L453.02,261.82L454.61,264.06L457.79,268.31L459.38,268.67L460.97,267.9L462.56,269.17L465.74,274.07L467.33,274.62L468.92,274.66L470.51,273.32L472.1,274.51L473.69,274.43L475.28,272.53L476.87,272.54L480.05,270.71L481.63,271.04L484.81,271.19L486.4,271.65L489.58,272.46L491.17,271.89L494.35,271.97L495.94,272.9L502.3,273.25L503.89,274.52L507.07,276.04L508.66,276.68L518.19,279.29L519.78,278.84L524.55,280.02L526.14,279.51L529.32,281.16L530.91,281.02L534.09,281.21L535.68,281.19L540.45,281.31L542.04,281.16L543.63,281.07L545.22,281.75L557.93,286.54L559.52,287.22L565.88,288.18L567.47,288.28L570.65,289.71L572.24,289.09L589.72,294.67L591.31,295.05L592.9,295.09L594.49,295.96L602.44,298.91L604.03,300L607.21,304.34L608.8,309.18L611.98,312.6L613.57,313.78L619.92,317.32L621.51,317.48L623.1,319.25L624.69,319.67L629.46,320.65L631.05,322.12L637.41,325.89L639,326.12L642.18,327.44L643.77,327.93L646.95,327.18L648.54,327.22L651.71,327.84L653.3,328.76L656.48,330.45L658.07,331.58L662.84,335.07L664.43,335.57L666.02,336.68L667.61,336.85L672.38,337.87L673.97,339.28L677.15,341.34L678.74,341.49L680.33,343.44L681.92,343.78L686.68,344.79L688.27,343.77L689.86,344.88L691.45,345.03L694.63,345.04L696.22,345.26L699.4,346.17L700.99,346.75L704.17,347.26L705.76,347.08L708.94,346.54L710.53,345.88L715.3,343.72L716.89,340.86L718.48,338.81L720.06,335.49L721.65,333.67L723.24,330.4L728.01,318.46L729.6,315.79L731.19,311.09L732.78,309.03L734.37,307.04L735.96,303.4L737.55,302.25L739.14,300.08L740.73,298.8L742.32,295.5L745.5,293.37L747.09,293.97L748.68,293.85L750.27,292.71L755.04,292L756.63,292.36L762.98,292.43L764.57,293.06L770.93,293.29L772.52,293.9L782.06,298.01L783.65,299.04L793.18,303.74L794.77,304.19L801.13,308.87L802.72,309.14L805.9,309.44L807.49,309.69L840.87,323.21L842.46,322.9L844.05,322.04L845.64,322.07L858.35,321.97L859.94,322.6L866.3,324.92L867.89,325.05L874.25,329.44L875.84,331.67L877.43,333.26L879.02,336.17L882.2,337.62L883.79,336.92L888.55,337.27L890.14,337.79L893.32,337.16L894.91,339.48L898.09,338.71L899.68,339.04L907.63,341.08L909.22,342.73L920.35,351.18L921.94,352L923.53,351.42L925.12,351.96L929.88,349.04L931.47,347.12L939.42,338.81L941.01,340.06L944.19,343.19L945.78,343.17L947.37,343.83L948.96,341.74L952.14,339.02L953.73,337.37L958.5,332.91L960.09,333.55L963.26,333.07L964.85,334.81L968.03,334.16L969.62,335.14L971.21,335.35L972.8,331.65L974.39,332.45L975.98,331.89L979.16,329.02L980.75,329.06L982.34,329.34L983.93,326.61L985.52,327.49L987.11,325.77L988.7,326.91L990.29,325.78L991.88,326.63L993.47,330.7L995.06,331.33L996.65,334.32L1001.41,336.82L1003,334.66L1004.59,335.11L1006.18,332.58L1007.77,333L1009.36,331.41L1010.95,331.71L1012.54,329.48L1014.13,329.9L1015.72,329.26L1017.31,325.94L1018.9,326.19L1022.08,321.97L1023.67,321.33L1025.26,321.15L1026.85,322.69L1028.43,324.15L1030.02,323.7L1033.2,320.96L1034.79,321.11L1041.15,315.18L1042.74,314.17L1047.51,311.45L1049.1,309.6L1052.28,308.24L1053.87,307.87L1057.05,306.83L1058.64,306.18L1069.76,306.16L1071.35,305.51L1076.12,303.43L1077.71,303.58L1082.48,302.46L1084.07,301.75L1088.84,303.13L1090.43,306.49L1092.02,309.35L1093.61,315.35L1095.2,318.44L1096.78,324L1098.38,327.12L1099.97,333.38L1101.55,336.07L1103.14,341.75L1106.32,347.19L1107.91,351.99L1109.5,353.73L1111.09,357.27L1114.27,358.61L1115.86,357.79L1117.45,357.49L1119.04,356.36L1123.81,352.95L1125.4,350.11L1136.52,339.56L1138.11,339.09L1142.88,334.7L1144.47,334.91L1147.65,334.89L1149.24,335.96L1150.83,334.76L1152.42,335.24L1154.01,333.88L1155.6,333.82L1157.19,332.23L1158.78,328.39L1160.37,327.04L1161.96,321.59L1163.55,319.81L1165.14,316.77L1166.72,316.74L1168.31,315.46L1177.85,315.86L1179.44,316.37L1181.03,315.81L1182.62,313.39L1185.8,309.94L1187.39,306.31L1188.98,302.64L1190.57,300.87L1192.16,300.33L1193.75,298.65L1195.34,298.33L1196.93,297.18L1200.11,297.2L1201.7,298.65L1203.29,299.05L1204.88,298.4L1206.46,299.29L1208.05,301.53L1219.18,306.41L1220.77,307.97L1223.95,308.85L1225.54,311.48L1233.49,321.52L1235.08,322.59L1236.66,323.11L1238.25,322.24L1241.43,324.14L1243.02,326.03L1244.61,324.28L1246.2,325.66L1249.38,328.62L1250.97,328.74L1255.74,332.02L1257.33,332.17L1258.92,333.31L1260.51,333L1265.28,329.22L1266.87,329.62L1268.46,331.34L1270.05,329.24L1271.64,328.3L1273.23,325.57L1274.82,324.04L1276.4,319.75L1277.99,317.91L1279.58,313.8L1282.76,287.53L1284.35,240.32L1285.94,208.53L1287.53,140.41L1292.3,66.55L1293.89,58.88L1297.07,36L1298.66,676.68L1303.43,670.4L1305.02,666.99L1308.19,659.06L1309.78,657.81L1312.96,655.16L1314.55,655.25L1316.14,653.81L1317.73,654.12L1320.91,655.53L1322.5,655.2L1324.09,654.19L1325.68,654.4L1327.27,656.13L1328.86,656.6L1332.04,659.13L1333.63,660.27L1335.22,660.34L1336.81,661.42L1338.4,662.38L1339.99,662.39L1341.58,664.56L1343.17,665.09L1344.75,665.93L1346.34,669.43L1347.93,669.98L1349.52,671.79L1351.11,671.45L1352.7,672.4L1359.06,675.69L1360.65,678.9L1365.42,683.26L1367.01,684L1368.6,681.77L1370.19,682.73L1371.78,681.13L1373.37,441.59L1374.95,390.74L1376.54,383.44L1378.14,375.38L1379.72,372.93L1384.49,370.11L1386.08,367.48L1387.67,367.84L1389.26,365.16L1390.85,363.47L1392.44,360.45L1395.62,354.46L1397.21,351.63L1400.39,349.44L1401.98,349.53L1403.57,350.85L1405.16,351.19L1406.75,351.81L1408.34,351.51L1413.1,350.22L1414.69,348.23L1416.28,348.37L1417.87,349.4L1419.46,349.54L1421.05,350.62L1424.23,348.77L1425.82,348.03L1427.41,347.63L1429,348.65" style="vector-effect: none; fill: none; stroke: rgb(255, 161, 90); stroke-opacity: 1; stroke-width: 3px; opacity: 1;"/></g><g class="points"/><g class="text"/></g></g></g></g><path class="xlines-above crisp" d="M0,0" style="fill: none;"/><path class="ylines-above crisp" d="M0,0" style="fill: none;"/><g class="overlines-above"/><g class="xaxislayer-above"><g class="xtick"><text text-anchor="middle" x="0" y="841" transform="translate(248.37,0)" style="font-family: 'Open Sans', verdana, arial, sans-serif; font-size: 20px; fill: rgb(42, 63, 95); fill-opacity: 1; white-space: pre; opacity: 1;">2</text></g><g class="xtick"><text text-anchor="middle" x="0" y="841" style="font-family: 'Open Sans', verdana, arial, sans-serif; font-size: 20px; fill: rgb(42, 63, 95); fill-opacity: 1; white-space: pre; opacity: 1;" transform="translate(407.32,0)">4</text></g><g class="xtick"><text text-anchor="middle" x="0" y="841" style="font-family: 'Open Sans', verdana, arial, sans-serif; font-size: 20px; fill: rgb(42, 63, 95); fill-opacity: 1; white-space: pre; opacity: 1;" transform="translate(566.28,0)">6</text></g><g class="xtick"><text text-anchor="middle" x="0" y="841" style="font-family: 'Open Sans', verdana, arial, sans-serif; font-size: 20px; fill: rgb(42, 63, 95); fill-opacity: 1; white-space: pre; opacity: 1;" transform="translate(725.23,0)">8</text></g><g class="xtick"><text text-anchor="middle" x="0" y="841" style="font-family: 'Open Sans', verdana, arial, sans-serif; font-size: 20px; fill: rgb(42, 63, 95); fill-opacity: 1; white-space: pre; opacity: 1;" transform="translate(884.18,0)">10</text></g><g class="xtick"><text text-anchor="middle" x="0" y="841" style="font-family: 'Open Sans', verdana, arial, sans-serif; font-size: 20px; fill: rgb(42, 63, 95); fill-opacity: 1; white-space: pre; opacity: 1;" transform="translate(1043.1399999999999,0)">12</text></g><g class="xtick"><text text-anchor="middle" x="0" y="841" style="font-family: 'Open Sans', verdana, arial, sans-serif; font-size: 20px; fill: rgb(42, 63, 95); fill-opacity: 1; white-space: pre; opacity: 1;" transform="translate(1202.09,0)">14</text></g><g class="xtick"><text text-anchor="middle" x="0" y="841" style="font-family: 'Open Sans', verdana, arial, sans-serif; font-size: 20px; fill: rgb(42, 63, 95); fill-opacity: 1; white-space: pre; opacity: 1;" transform="translate(1361.05,0)">16</text></g><g class="xtick"><text text-anchor="middle" x="0" y="841" style="font-family: 'Open Sans', verdana, arial, sans-serif; font-size: 20px; fill: rgb(42, 63, 95); fill-opacity: 1; white-space: pre; opacity: 1;" transform="translate(1520,0)">18</text></g></g><g class="yaxislayer-above"><g class="ytick"><text text-anchor="end" x="90" y="7" transform="translate(0,758.7)" style="font-family: 'Open Sans', verdana, arial, sans-serif; font-size: 20px; fill: rgb(42, 63, 95); fill-opacity: 1; white-space: pre; opacity: 1;">−0.4</text></g><g class="ytick"><text text-anchor="end" x="90" y="7" style="font-family: 'Open Sans', verdana, arial, sans-serif; font-size: 20px; fill: rgb(42, 63, 95); fill-opacity: 1; white-space: pre; opacity: 1;" transform="translate(0,675.65)">−0.3</text></g><g class="ytick"><text text-anchor="end" x="90" y="7" style="font-family: 'Open Sans', verdana, arial, sans-serif; font-size: 20px; fill: rgb(42, 63, 95); fill-opacity: 1; white-space: pre; opacity: 1;" transform="translate(0,592.5899999999999)">−0.2</text></g><g class="ytick"><text text-anchor="end" x="90" y="7" style="font-family: 'Open Sans', verdana, arial, sans-serif; font-size: 20px; fill: rgb(42, 63, 95); fill-opacity: 1; white-space: pre; opacity: 1;" transform="translate(0,509.54)">−0.1</text></g><g class="ytick"><text text-anchor="end" x="90" y="7" style="font-family: 'Open Sans', verdana, arial, sans-serif; font-size: 20px; fill: rgb(42, 63, 95); fill-opacity: 1; white-space: pre; opacity: 1;" transform="translate(0,426.49)">0</text></g><g class="ytick"><text text-anchor="end" x="90" y="7" style="font-family: 'Open Sans', verdana, arial, sans-serif; font-size: 20px; fill: rgb(42, 63, 95); fill-opacity: 1; white-space: pre; opacity: 1;" transform="translate(0,343.44)">0.1</text></g><g class="ytick"><text text-anchor="end" x="90" y="7" style="font-family: 'Open Sans', verdana, arial, sans-serif; font-size: 20px; fill: rgb(42, 63, 95); fill-opacity: 1; white-space: pre; opacity: 1;" transform="translate(0,260.39)">0.2</text></g><g class="ytick"><text text-anchor="end" x="90" y="7" style="font-family: 'Open Sans', verdana, arial, sans-serif; font-size: 20px; fill: rgb(42, 63, 95); fill-opacity: 1; white-space: pre; opacity: 1;" transform="translate(0,177.34)">0.3</text></g></g><g class="overaxes-above"/></g></g><g class="polarlayer"/><g class="smithlayer"/><g class="ternarylayer"/><g class="geolayer"/><g class="funnelarealayer"/><g class="pielayer"/><g class="iciclelayer"/><g class="treemaplayer"/><g class="sunburstlayer"/><g class="glimages"/><defs id="topdefs-f2a50d"><g class="clips"/><clipPath id="legendf2a50d"><rect width="84" height="181" x="0" y="0"/></clipPath></defs><g class="layer-above"><g class="imagelayer"/><g class="shapelayer"/></g><g class="infolayer"><g class="legend" pointer-events="all" transform="translate(252.477,110.08000000000001)"><rect class="bg" shape-rendering="crispEdges" width="84" height="181" x="0" y="0" style="stroke: rgb(68, 68, 68); stroke-opacity: 1; fill: rgb(255, 255, 255); fill-opacity: 1; stroke-width: 0px;"/><g class="scrollbox" transform="" clip-path="url(#legendf2a50d)"><g class="groups"><g class="traces" transform="translate(0,22.1)" style="opacity: 1;"><text class="legendtext" text-anchor="start" x="40" y="9.360000000000001" style="font-family: 'Open Sans', verdana, arial, sans-serif; font-size: 24px; fill: rgb(42, 63, 95); fill-opacity: 1; white-space: pre;">1m</text><g class="layers" style="opacity: 1;"><g class="legendfill"/><g class="legendlines"><path class="js-line" d="M5,0h30" style="fill: none; stroke: rgb(99, 110, 250); stroke-opacity: 1; stroke-width: 3px;"/></g><g class="legendsymbols"><g class="legendpoints"/></g></g><rect class="legendtoggle" x="0" y="-17.1" width="78.609375" height="34.2" style="fill: rgb(0, 0, 0); fill-opacity: 0;"/></g><g class="traces" transform="translate(0,56.300000000000004)" style="opacity: 1;"><text class="legendtext" text-anchor="start" x="40" y="9.360000000000001" style="font-family: 'Open Sans', verdana, arial, sans-serif; font-size: 24px; fill: rgb(42, 63, 95); fill-opacity: 1; white-space: pre;">2m</text><g class="layers" style="opacity: 1;"><g class="legendfill"/><g class="legendlines"><path class="js-line" d="M5,0h30" style="fill: none; stroke: rgb(239, 85, 59); stroke-opacity: 1; stroke-width: 3px;"/></g><g class="legendsymbols"><g class="legendpoints"/></g></g><rect class="legendtoggle" x="0" y="-17.1" width="78.609375" height="34.2" style="fill: rgb(0, 0, 0); fill-opacity: 0;"/></g><g class="traces" transform="translate(0,90.5)" style="opacity: 1;"><text class="legendtext" text-anchor="start" x="40" y="9.360000000000001" style="font-family: 'Open Sans', verdana, arial, sans-serif; font-size: 24px; fill: rgb(42, 63, 95); fill-opacity: 1; white-space: pre;">3m</text><g class="layers" style="opacity: 1;"><g class="legendfill"/><g class="legendlines"><path class="js-line" d="M5,0h30" style="fill: none; stroke: rgb(0, 204, 150); stroke-opacity: 1; stroke-width: 3px;"/></g><g class="legendsymbols"><g class="legendpoints"/></g></g><rect class="legendtoggle" x="0" y="-17.1" width="78.609375" height="34.2" style="fill: rgb(0, 0, 0); fill-opacity: 0;"/></g><g class="traces" transform="translate(0,124.70000000000002)" style="opacity: 1;"><text class="legendtext" text-anchor="start" x="40" y="9.360000000000001" style="font-family: 'Open Sans', verdana, arial, sans-serif; font-size: 24px; fill: rgb(42, 63, 95); fill-opacity: 1; white-space: pre;">4m</text><g class="layers" style="opacity: 1;"><g class="legendfill"/><g class="legendlines"><path class="js-line" d="M5,0h30" style="fill: none; stroke: rgb(171, 99, 250); stroke-opacity: 1; stroke-width: 3px;"/></g><g class="legendsymbols"><g class="legendpoints"/></g></g><rect class="legendtoggle" x="0" y="-17.1" width="78.609375" height="34.2" style="fill: rgb(0, 0, 0); fill-opacity: 0;"/></g><g class="traces" transform="translate(0,158.9)" style="opacity: 1;"><text class="legendtext" text-anchor="start" x="40" y="9.360000000000001" style="font-family: 'Open Sans', verdana, arial, sans-serif; font-size: 24px; fill: rgb(42, 63, 95); fill-opacity: 1; white-space: pre;">5m</text><g class="layers" style="opacity: 1;"><g class="legendfill"/><g class="legendlines"><path class="js-line" d="M5,0h30" style="fill: none; stroke: rgb(255, 161, 90); stroke-opacity: 1; stroke-width: 3px;"/></g><g class="legendsymbols"><g class="legendpoints"/></g></g><rect class="legendtoggle" x="0" y="-17.1" width="78.609375" height="34.2" style="fill: rgb(0, 0, 0); fill-opacity: 0;"/></g></g></g><rect class="scrollbar" rx="20" ry="3" width="0" height="0" x="0" y="0" style="fill: rgb(128, 139, 164); fill-opacity: 1;"/></g><g class="g-gtitle"><text class="gtitle" x="800" y="50" text-anchor="middle" dy="0.7em" style="opacity: 1; font-family: 'Open Sans', verdana, arial, sans-serif; font-size: 20px; fill: rgb(42, 63, 95); fill-opacity: 1; font-weight: bold; white-space: pre;">Yielding, Back and eHMI</text></g><g class="g-xtitle"><text class="xtitle" x="805.5" y="873.5" text-anchor="middle" style="opacity: 1; font-family: 'Open Sans', verdana, arial, sans-serif; font-size: 20px; fill: rgb(42, 63, 95); fill-opacity: 1; white-space: pre;">Time (in seconds)</text></g><g class="g-ytitle" transform="translate(0.578125,0)"><text class="ytitle" transform="rotate(-90,19.421875,460)" x="19.421875" y="460" text-anchor="middle" style="opacity: 1; font-family: 'Open Sans', verdana, arial, sans-serif; font-size: 20px; fill: rgb(42, 63, 95); fill-opacity: 1; white-space: pre;">Yaw Angle (in radians)</text></g></g></svg>