<svg class="main-svg" xmlns="http://www.w3.org/2000/svg" xmlns:xlink="http://www.w3.org/1999/xlink" width="4800" height="2700" style="" viewBox="0 0 1600 900"><rect x="0" y="0" width="1600" height="900" style="fill: rgb(255, 255, 255); fill-opacity: 1;"/><defs id="defs-2a39ba"><g class="clips"><clipPath id="clip2a39baxyplot" class="plotclip"><rect width="1416" height="720"/></clipPath><clipPath class="axesclip" id="clip2a39bax"><rect x="104" y="0" width="1416" height="900"/></clipPath><clipPath class="axesclip" id="clip2a39bay"><rect x="0" y="100" width="1600" height="720"/></clipPath><clipPath class="axesclip" id="clip2a39baxy"><rect x="104" y="100" width="1416" height="720"/></clipPath></g><g class="gradients"/><g class="patterns"/></defs><g class="bglayer"><rect class="bg" x="104" y="100" width="1416" height="720" style="fill: rgb(229, 236, 246); fill-opacity: 1; stroke-width: 0;"/></g><g class="layer-below"><g class="imagelayer"/><g class="shapelayer"/></g><g class="cartesianlayer"><g class="subplot xy"><g class="layer-subplot"><g class="shapelayer"/><g class="imagelayer"/></g><g class="minor-gridlayer"><g class="x"/><g class="y"/></g><g class="gridlayer"><g class="x"><path class="xgrid crisp" transform="translate(259.93,0)" d="M0,100v720" style="stroke: rgb(255, 255, 255); stroke-opacity: 1; stroke-width: 1px;"/><path class="xgrid crisp" transform="translate(417.44,0)" d="M0,100v720" style="stroke: rgb(255, 255, 255); stroke-opacity: 1; stroke-width: 1px;"/><path class="xgrid crisp" transform="translate(574.95,0)" d="M0,100v720" style="stroke: rgb(255, 255, 255); stroke-opacity: 1; stroke-width: 1px;"/><path class="xgrid crisp" transform="translate(732.46,0)" d="M0,100v720" style="stroke: rgb(255, 255, 255); stroke-opacity: 1; stroke-width: 1px;"/><path class="xgrid crisp" transform="translate(889.97,0)" d="M0,100v720" style="stroke: rgb(255, 255, 255); stroke-opacity: 1; stroke-width: 1px;"/><path class="xgrid crisp" transform="translate(1047.48,0)" d="M0,100v720" style="stroke: rgb(255, 255, 255); stroke-opacity: 1; stroke-width: 1px;"/><path class="xgrid crisp" transform="translate(1204.98,0)" d="M0,100v720" style="stroke: rgb(255, 255, 255); stroke-opacity: 1; stroke-width: 1px;"/><path class="xgrid crisp" transform="translate(1362.49,0)" d="M0,100v720" style="stroke: rgb(255, 255, 255); stroke-opacity: 1; stroke-width: 1px;"/></g><g class="y"><path class="ygrid crisp" transform="translate(0,739.57)" d="M104,0h1416" style="stroke: rgb(255, 255, 255); stroke-opacity: 1; stroke-width: 1px;"/><path class="ygrid crisp" transform="translate(0,650.68)" d="M104,0h1416" style="stroke: rgb(255, 255, 255); stroke-opacity: 1; stroke-width: 1px;"/><path class="ygrid crisp" transform="translate(0,472.9)" d="M104,0h1416" style="stroke: rgb(255, 255, 255); stroke-opacity: 1; stroke-width: 1px;"/><path class="ygrid crisp" transform="translate(0,384.01)" d="M104,0h1416" style="stroke: rgb(255, 255, 255); stroke-opacity: 1; stroke-width: 1px;"/><path class="ygrid crisp" transform="translate(0,295.12)" d="M104,0h1416" style="stroke: rgb(255, 255, 255); stroke-opacity: 1; stroke-width: 1px;"/><path class="ygrid crisp" transform="translate(0,206.23000000000002)" d="M104,0h1416" style="stroke: rgb(255, 255, 255); stroke-opacity: 1; stroke-width: 1px;"/><path class="ygrid crisp" transform="translate(0,117.34)" d="M104,0h1416" style="stroke: rgb(255, 255, 255); stroke-opacity: 1; stroke-width: 1px;"/></g></g><g class="zerolinelayer"><path class="yzl zl crisp" transform="translate(0,561.79)" d="M104,0h1416" style="stroke: rgb(255, 255, 255); stroke-opacity: 1; stroke-width: 2px;"/></g><g class="layer-between"><g class="shapelayer"/><g class="imagelayer"/></g><path class="xlines-below"/><path class="ylines-below"/><g class="overlines-below"/><g class="xaxislayer-below"/><g class="yaxislayer-below"/><g class="overaxes-below"/><g class="overplot"><g class="xy" transform="translate(104,100)" clip-path="url(#clip2a39baxyplot)"><g class="scatterlayer mlayer"><g class="trace scatter trace57e360" style="stroke-miterlimit: 2; opacity: 1;"><g class="fills"/><g class="errorbars"/><g class="lines"><path class="js-line" d="M0,469.42L1.58,467.84L3.15,467.58L15.75,453.62L17.33,452.8L18.9,452.3L20.48,449.83L22.05,448.92L23.63,445.23L25.2,442.83L26.78,438.95L28.35,436.13L29.93,430.2L36.23,409.34L37.8,395.02L39.38,389.53L40.95,378.81L45.68,346.06L47.25,337.6L50.4,328.06L51.98,322.46L53.55,320.61L55.13,316.36L56.7,318.31L58.28,314.44L61.43,309.94L63,304.94L64.58,302.5L66.15,296.65L69.3,289.02L70.88,287.63L72.45,284.78L74.03,279.66L75.61,276.29L77.18,269.08L78.76,264.19L80.33,250.63L88.21,203.98L89.78,199.18L91.36,195.14L92.93,193.92L94.51,180.74L96.08,176.87L99.23,168.28L100.81,158.02L102.38,133.29L103.96,123.45L108.68,87.32L110.26,80.14L113.41,54.93L114.98,50.32L116.56,51.87L118.13,51.03L119.71,52.91L121.28,57.23L122.86,56.8L124.43,60L126.01,60.08L127.58,60.93L130.73,59.01L132.31,55.98L133.88,61.4L135.46,59.99L140.18,81.05L141.76,98.83L143.33,104.45L144.91,116.92L148.06,137.08L149.63,149.02L162.23,209.62L163.81,210.8L171.68,244.31L173.26,255.17L177.99,273.7L179.56,275.59L181.14,276.83L182.71,276.83L185.86,277.89L187.44,278.69L190.59,280.04L192.16,279.06L193.74,279.83L195.31,285.3L196.89,287.43L198.46,296.9L207.91,348.5L209.49,363.34L211.06,371.99L212.64,385.44L215.79,396.57L217.36,401.69L218.94,402.35L220.51,398.03L222.09,395.32L223.66,369.71L228.39,325.5L229.96,319.62L231.54,309.6L233.11,306.49L234.69,305.04L236.26,310.73L239.41,309.69L240.99,312.21L242.56,314.73L244.14,315.35L245.71,313.12L247.29,312.92L248.86,308.11L250.44,306.14L252.01,305.49L253.59,301.44L255.16,299.06L256.74,294.08L258.31,293.25L259.89,291.48L261.47,292.52L263.04,295.75L264.61,297L266.19,301.45L269.34,304.66L270.92,308.56L274.07,314.66L275.64,315.46L277.22,316.97L278.79,320.9L280.37,326.52L281.94,326.86L283.52,327.28L285.09,330.69L286.67,331.86L288.24,334.15L291.39,330.21L292.97,332.51L296.12,341.73L297.69,346.26L299.27,353.77L300.84,354.97L303.99,357.4L305.57,356.52L310.29,340.67L311.87,337L313.44,334.49L315.02,333.73L318.17,337.78L319.74,338.72L321.32,345.99L322.89,348.74L327.62,357.38L329.19,358.94L330.77,357.49L332.34,354.7L335.49,359.34L337.07,356.52L338.64,354.63L340.22,351.19L343.37,351.62L344.94,354.43L349.67,359.32L351.24,361.75L352.82,363.94L354.39,367.5L355.97,374.34L357.54,375.05L359.12,373.54L360.7,370.45L362.27,372.39L363.84,376.44L367,368.66L368.57,365.86L370.15,360.6L371.72,358.51L373.3,353.01L374.87,342.31L378.02,330.13L379.6,326.91L381.17,329.22L382.75,326.62L384.32,335.6L385.9,336.7L387.47,340.08L389.05,340.96L390.62,341.63L392.2,335.4L393.77,331.37L395.35,332.9L396.92,331.31L398.5,326.65L400.07,325.28L401.65,327.22L403.22,326.55L404.8,327.89L406.37,331.08L407.95,331.89L409.52,331.86L411.1,333.02L412.67,330.63L414.25,330.81L415.82,330.34L417.4,332.94L420.55,336.27L422.12,339.41L425.27,339.89L426.85,339.13L428.42,342.23L430,342.43L431.57,343.54L433.15,343.05L434.72,342.56L436.3,341.01L441.02,340.8L442.6,341.96L444.17,342.33L445.75,341.14L447.32,342.6L448.9,341.46L452.05,339.14L453.62,337.54L456.78,341.23L458.35,340.52L461.5,342.65L463.08,341.44L466.23,343.85L467.8,346.64L472.53,352.06L474.1,352.35L477.25,351.05L478.83,350.27L481.98,348.58L483.55,348.66L486.7,351.83L488.28,354.1L489.85,356.19L491.43,356.86L493,358.48L494.58,358.96L496.15,360.64L497.73,360.91L499.3,361.29L500.88,359.7L504.03,357.23L505.6,357.21L507.18,356.46L508.75,357.65L510.33,357.07L511.9,357.3L516.63,353.47L518.2,354.08L519.78,353.81L521.35,354.59L522.93,353.88L524.5,352.31L527.65,350.14L529.23,348.23L530.8,348.69L532.38,347.66L538.68,347.87L540.25,348.28L544.98,350.58L546.55,350.4L551.28,351.75L552.86,351.49L556,351.6L557.58,352.3L565.46,358.9L567.03,360.6L568.61,362.21L570.18,365.01L573.33,366.63L574.91,365.79L579.63,365.47L581.21,367.19L585.93,368.85L587.51,370.6L589.08,370.6L590.66,371.94L592.23,373.42L593.81,373.27L595.38,373.27L596.96,374.38L601.68,376.27L603.26,375.96L606.41,374.78L607.98,375.29L611.13,375.66L612.71,377.06L617.43,379.63L619.01,381.19L622.16,387.28L623.73,387.67L625.31,387.45L626.88,388.79L630.03,391.37L631.61,390.46L634.76,390.53L636.33,389.88L637.91,390.41L639.48,392.1L644.21,395.02L645.79,394.23L647.36,393.36L648.94,393.64L655.24,398.24L656.81,398.51L663.11,399.3L664.69,400.51L666.26,400.48L667.84,401.6L672.56,401.98L674.14,403.43L677.29,403.16L678.86,401.6L682.01,400.61L683.59,401.25L688.31,401.48L689.89,402.34L691.46,403.47L693.04,405.66L696.19,408.66L697.76,408.55L700.91,410.44L702.49,411.26L708.79,412.65L710.36,412.82L719.81,412.34L721.39,414.07L726.11,417.75L727.69,419.67L730.84,422.52L732.41,424.14L733.99,424.79L735.56,422.31L737.14,421.98L738.71,422.92L740.29,421.37L741.86,421.07L745.02,422.04L746.59,424.39L751.32,429.19L752.89,431.99L760.77,440.84L762.34,442.54L765.49,445.8L767.07,446.58L768.64,447.6L770.22,450.29L774.94,456.3L776.52,457.23L779.67,459.44L781.24,459.71L782.82,463.21L784.39,463.8L789.12,463.57L790.69,464.84L795.42,466.72L796.99,469.23L798.57,470.07L800.14,472.09L806.44,474.07L808.02,473.95L812.74,479.17L814.32,481.7L817.47,485.65L819.04,486.62L823.77,489.5L825.34,489.31L833.22,491.24L834.8,490.74L837.95,489.58L839.52,490.5L845.82,492.17L847.4,492.58L852.12,493.41L853.7,494.26L855.27,494.31L856.85,495.26L863.15,497.26L864.72,498.69L869.45,498.23L871.02,497.34L874.17,497.67L875.75,496.97L878.9,494.44L880.47,494.52L888.35,489.14L889.92,488.91L896.22,486.64L897.8,485.29L899.37,484.09L900.95,481.43L905.67,479.12L907.25,478.68L910.4,479.55L911.97,480.57L915.12,480.88L916.7,479.96L927.72,476.36L929.3,475.98L935.6,473.59L937.18,472.58L938.75,471.35L940.33,468.86L941.9,466.81L943.48,463.18L945.05,462.8L946.63,459.81L951.35,450.86L952.93,449.52L954.5,446.66L956.08,441.48L962.38,438.21L963.95,438.49L967.1,440.09L968.68,437.81L970.25,441.54L971.83,442.24L973.4,444.29L974.98,447.78L981.28,458.12L982.85,459.33L984.43,463.13L986,464.42L989.15,468.1L990.73,469.09L995.45,475.66L997.03,478.45L998.6,479.52L1000.18,483.72L1001.75,484.92L1003.33,488.42L1004.9,490.09L1006.48,493.16L1009.63,498.15L1011.2,503.86L1012.78,505.24L1014.35,513.37L1017.5,521.14L1019.08,519.04L1020.65,523.03L1022.23,524.67L1023.8,522.38L1025.38,518.02L1026.95,520.24L1028.53,518.21L1030.11,516.87L1031.68,517.38L1033.25,515.27L1034.83,516.29L1036.41,512.12L1037.98,510.44L1039.56,514.12L1041.13,515.07L1044.28,515.3L1045.86,516.06L1052.16,504.87L1053.73,499.4L1055.31,498.33L1056.88,501.38L1058.46,501.83L1060.03,503.35L1061.61,504.91L1063.18,505.05L1071.06,496L1072.63,491.88L1074.21,488.78L1075.78,488.4L1077.36,486.73L1078.93,483.91L1082.08,485.24L1083.66,486.76L1085.23,485.16L1086.81,481.92L1091.53,474.99L1093.11,471.35L1096.26,470.56L1097.83,468.03L1100.98,462.07L1102.56,460.58L1107.28,452.81L1108.86,451.45L1115.16,442.31L1116.73,440.91L1119.88,438.38L1121.46,437.91L1123.03,436.18L1124.61,436.49L1138.79,436.96L1140.36,438.54L1141.94,439.35L1143.51,441.13L1151.39,445.46L1152.96,445.51L1154.54,445.8L1156.11,447.03L1157.69,447.39L1159.26,448.65L1165.56,452.92L1167.14,452.72L1168.71,451.77L1170.29,453.95L1175.01,457.53L1176.59,459.6L1179.74,464.96L1181.31,466.12L1184.46,470.58L1186.04,472.09L1187.61,471.88L1189.19,473.61L1192.34,475.25L1193.91,478.88L1203.36,492.37L1204.94,495.51L1209.66,501.2L1211.24,507.34L1217.54,517.26L1219.11,518.16L1220.69,519.29L1222.27,518.43L1228.57,516.61L1230.14,517.06L1241.17,519.98L1242.74,519.42L1245.89,519L1247.47,517.9L1250.62,517.08L1252.19,516.99L1253.77,517.57L1255.34,514.85L1258.49,511.96L1260.07,511.7L1261.64,511.41L1263.22,508.94L1266.37,507.2L1267.94,508.81L1271.09,512.04L1272.67,509.25L1275.82,506.77L1277.39,507.81L1278.97,509.04L1280.54,507.1L1282.12,507.27L1283.69,506.59L1286.84,505.25L1288.42,505.93L1289.99,508.19L1291.57,506.72L1293.14,507.77L1294.72,505.75L1296.29,506.92L1297.87,504.61L1299.44,505.66L1301.02,505.01L1304.17,503.7L1305.75,504.8L1307.32,505.52L1308.89,504.92L1310.47,507.51L1312.04,506.75L1313.62,507.11L1315.2,506.6L1318.35,501.38L1319.92,496.66L1323.07,492.52L1324.65,491.83L1326.22,491.76L1327.8,492.86L1329.37,493.76L1330.95,492.87L1334.1,497.54L1335.67,500.09L1337.25,506.95L1338.82,509.21L1341.97,515.46L1343.55,523.22L1345.12,527.99L1346.7,528.98L1348.27,525.79L1349.85,524.84L1351.42,526.82L1353,527.47L1354.57,533.02L1356.15,534.1L1360.87,546.81L1362.45,546.44L1364.02,545.66L1365.6,540.66L1368.75,536.57L1370.32,536.62L1371.9,534.76L1373.47,539.37L1375.05,543.14L1376.62,551.26L1378.2,555.67L1379.77,563.82L1381.35,568.06L1382.92,564.19L1384.5,562.34L1386.07,564.33L1389.22,571.26L1390.8,570.06L1392.37,570.41L1393.95,575.99L1397.1,580.78L1398.67,590.3L1400.25,597.78L1401.82,613.47L1403.4,620.75L1404.97,634.72L1408.12,650.55L1409.7,662.41L1411.27,666.87L1412.85,675.3L1414.43,677.21L1416,684" style="vector-effect: none; fill: none; stroke: rgb(99, 110, 250); stroke-opacity: 1; stroke-width: 3px; opacity: 1;"/></g><g class="points"/><g class="text"/></g><g class="trace scatter tracecc3c4d" style="stroke-miterlimit: 2; opacity: 1;"><g class="fills"/><g class="errorbars"/><g class="lines"><path class="js-line" d="M0,521.09L6.3,520.95L7.88,520.96L17.33,520.55L18.9,519.19L20.48,517.58L22.05,513.63L25.2,505.35L26.78,498.78L33.08,471.15L34.65,462.35L36.23,457.42L37.8,442.81L42.53,417.17L44.1,407.9L48.83,378.81L50.4,375.53L51.98,374.24L53.55,365.48L55.13,364.84L56.7,355.36L58.28,349.83L59.85,339.55L63,319.82L64.58,310.23L67.73,307.54L69.3,303.2L70.88,309.82L72.45,309.15L74.03,304.33L75.6,305.67L77.18,298.91L78.75,304.22L80.33,307.74L81.91,315.46L83.48,316.72L85.06,316.88L88.2,321.4L89.78,319.02L91.36,320.55L92.93,317.95L96.08,315.39L97.65,318.81L99.23,317.74L100.81,314.43L102.38,312.11L103.96,308.23L107.11,301.39L108.68,296.38L111.83,297.05L113.41,303.05L116.56,296.95L118.13,295.15L119.71,288.95L121.28,292.14L122.86,294.21L124.43,297.53L126.01,297.48L127.58,305.19L129.16,316.74L130.73,315.51L132.31,324.29L133.88,327.44L135.46,323.7L137.03,313.73L138.61,310.99L140.18,300.86L144.91,289.69L146.48,297.08L148.06,292.92L149.63,298.94L154.36,289.48L155.93,285.4L159.08,272.06L160.66,272.22L162.23,275.71L163.81,290.27L166.96,305.96L168.53,310.79L170.11,319.65L171.68,315.01L173.26,324.5L174.83,328.07L181.13,391.48L182.71,396.03L184.29,390.28L185.86,392.5L187.44,391.28L189.01,386.77L190.58,387.08L192.16,385.31L193.74,378.37L195.31,378.34L196.89,379.67L198.46,385.35L200.04,384.77L201.61,382.98L204.76,405.36L206.34,413L211.06,449.34L212.64,455.17L214.21,460.83L215.79,453.32L217.36,452.34L218.94,439.52L220.51,419.43L222.09,411.32L223.66,390.47L225.24,381.15L226.81,367.41L228.39,368.29L229.96,360.72L231.54,363.05L233.11,368.84L234.69,360.43L239.41,361.71L240.99,364.25L242.56,362.97L244.14,365.91L247.29,368.26L248.87,371.56L250.44,371.5L252.01,379.44L253.59,383.22L255.16,391.47L258.32,403.92L259.89,411.57L261.46,413.91L263.04,419.93L266.19,421.78L267.77,427.23L269.34,427.98L270.91,427.66L272.49,428.61L274.07,425.76L275.64,424.06L277.22,419.58L278.79,419.52L280.36,426.34L283.52,423.5L285.09,434.54L286.67,438.57L288.24,448.11L292.97,466.17L294.54,466.9L296.12,468.34L297.69,461.97L299.27,468.95L300.84,460.74L305.57,447.61L307.14,448.6L308.72,450.81L310.29,456.32L311.87,458.23L313.44,462.11L315.02,458.73L316.59,452.72L318.17,459.04L319.74,458.07L322.89,449.2L324.47,446.81L327.62,433.81L329.19,424.88L335.49,390.19L337.07,384.12L341.79,369.22L343.37,365.95L344.94,360.73L346.52,359.62L348.09,362.36L349.67,351.75L352.82,343.14L354.39,338.4L355.97,338.07L357.55,328.94L360.7,318.48L362.27,314.01L365.42,307.74L367,297.33L368.57,293.01L370.15,292.05L371.72,284.16L373.29,282.33L374.87,280.14L376.45,275.32L378.02,274.52L379.6,275.33L381.17,277.38L382.75,270.63L384.32,269.23L385.9,266.8L387.47,264.09L389.05,259.34L390.62,259.48L392.2,254.97L395.35,247.9L396.92,242.59L398.5,242.23L400.07,238.81L401.65,238.05L403.22,236.06L404.8,237.27L406.37,230.76L407.95,232.27L409.52,232.38L412.67,225.82L414.25,223.21L417.4,219.55L418.97,220.83L420.55,223.12L422.12,223.32L425.27,224.72L426.85,228.2L428.42,227.4L430,227.48L431.57,228.27L433.15,234.68L436.3,244.4L437.87,247.97L439.45,253.15L441.02,255.38L442.6,257.33L444.17,261.01L445.75,264.42L447.32,265.34L450.47,278.87L452.05,284.73L453.62,287.98L455.2,293.32L458.35,301.32L459.92,299.74L461.5,300.04L463.07,301.44L464.65,305.75L466.22,307.49L470.95,317.64L472.52,317.63L475.68,320.78L477.25,323.99L481.97,334.04L483.55,333.5L485.13,333.19L486.7,335.57L488.28,336.83L489.85,336.53L494.58,333.2L496.15,336.67L497.73,336.81L499.3,334.88L500.88,335.14L502.45,338.09L504.03,338.43L505.6,336.86L507.18,338.89L508.75,338.81L511.9,340.95L513.48,341.16L515.05,338.18L516.63,337.3L518.2,336.95L519.78,338.27L521.35,338.97L522.93,340.5L524.5,340.34L526.08,342.86L529.23,344.33L530.8,347.4L538.68,352.76L540.25,351.18L541.83,350.58L543.41,351.35L544.98,352.47L546.55,350.39L548.13,348.53L549.7,347.95L556,349.64L557.58,350.51L560.73,353.38L562.31,354.88L565.45,360.37L567.03,361.59L568.6,363.93L570.18,363.38L571.76,364.05L573.33,363.17L576.48,362.83L578.06,364.79L579.63,365.19L581.21,366.77L587.51,374.4L589.08,378.27L590.66,378.82L592.23,381.15L593.81,381.8L595.38,383.64L603.26,400.3L604.83,402.47L606.41,406.11L607.98,407.71L611.13,412.38L612.71,413.78L614.28,415.98L615.86,416.56L622.16,425.12L623.73,425.64L625.31,426.54L626.88,426.43L628.46,426.73L630.03,426.06L631.61,423.49L633.18,423.93L637.91,425.09L639.48,424.39L647.36,430.34L648.93,430.79L652.09,433.07L653.66,430.58L656.81,429.98L658.38,430.36L659.96,427.78L661.54,431.32L663.11,433.7L664.69,433.67L666.26,434.36L667.84,434.1L669.41,433.64L670.99,431L677.29,426.92L678.86,424.39L680.44,425.03L682.01,424.69L685.16,421.89L686.74,422.07L691.46,425.4L693.04,427L697.76,432.74L699.34,433.37L700.91,435.96L702.49,436.64L705.64,442.77L707.21,443.67L708.79,445.78L710.36,446.25L713.51,445L715.09,445.33L716.66,445.98L718.24,445.78L719.81,446.76L721.39,446.39L722.96,449.4L724.54,449.53L727.69,450.79L729.26,449.8L730.84,450.44L732.41,450.1L737.14,450.77L738.71,452.98L741.86,456.51L743.44,458.07L746.59,460.44L748.16,461.82L754.47,465.81L756.04,466.39L759.19,469.01L760.77,468.83L765.49,471.11L767.06,470.08L768.64,471.23L770.22,471.17L773.37,472.46L774.94,475.05L776.52,475.26L778.09,477.46L781.24,479.32L782.82,481.87L784.39,481.49L785.97,482.29L789.12,483.65L790.69,482.48L792.27,483.68L793.84,483.9L795.42,483.94L796.99,485.63L800.14,487.8L801.72,486.89L806.44,489.69L808.02,489.45L809.59,488.63L811.17,489.19L814.32,489.55L815.89,489.66L817.47,489.24L819.04,487.27L820.62,488.52L822.19,487.62L825.34,487.86L826.92,486.5L833.22,484.45L834.79,482.4L837.94,482.74L839.52,480.61L844.24,480.99L845.82,482.71L847.4,483.67L848.97,485.95L852.12,485.77L853.7,486.91L856.84,487.94L858.42,488.74L859.99,487.57L861.57,488.37L863.15,491.33L864.72,495.91L866.3,501.93L867.87,504.16L869.45,508.52L871.02,509.15L872.6,511.06L874.17,514.77L875.75,516.49L877.32,519.75L878.9,521.88L880.47,526.48L885.2,530.66L886.77,531.25L888.35,530.48L889.92,532.54L891.5,531.6L893.07,532.04L897.8,530.86L899.37,528.66L902.52,527.24L904.1,527.76L907.25,529.27L908.82,530.64L910.4,527.85L911.97,530.72L915.12,532.92L916.7,532.53L919.85,524.99L921.42,529.22L923,527.97L924.57,528L926.15,527.39L927.73,524.93L929.3,523.68L930.88,525.26L932.45,528.24L934.02,525.41L935.6,524.77L937.18,509.71L940.32,500.51L941.9,481.28L945.05,446.08L946.63,436.1L948.2,429.4L949.78,427.59L954.5,418.58L956.08,421.11L957.65,426.52L959.23,426.43L960.8,424.77L962.38,425.19L963.95,423.85L965.53,420.62L967.1,416.05L968.68,408.37L970.25,406.05L971.83,405.57L973.4,412.94L974.98,416.26L976.55,421.24L978.13,422.02L979.7,422.4L981.28,423.88L982.85,427.74L984.43,427.97L990.73,426.12L992.3,426.93L993.88,425.45L995.45,425.01L1000.18,429.54L1001.75,430.6L1003.33,432.22L1004.9,431.89L1008.05,436.06L1009.63,436.91L1012.78,441.68L1014.35,442.88L1017.5,444.44L1019.08,443.52L1020.65,440.44L1022.23,439.71L1025.38,432.92L1026.96,431.79L1031.68,431.13L1033.25,430.13L1034.83,429.43L1036.41,430.76L1041.13,435.99L1042.7,436.82L1052.15,444.48L1053.73,448.27L1060.03,458.5L1061.61,459.28L1064.76,465.57L1066.33,468.64L1071.06,483.73L1072.63,484.85L1074.21,484.16L1075.78,487.23L1080.51,507.77L1082.08,509.46L1083.66,509.34L1085.23,511.68L1086.81,512.99L1088.38,512.37L1091.53,516.54L1093.11,520.5L1097.83,527.41L1099.41,527.72L1100.98,526.91L1102.56,527.16L1104.13,527.4L1105.71,525.52L1112.01,534.32L1113.58,535.79L1115.16,537.8L1116.73,538.17L1118.31,537.99L1119.88,539.16L1121.46,542.9L1123.03,542.9L1129.33,543.22L1130.91,543.69L1132.48,541.73L1134.06,541.99L1140.36,536.41L1141.93,536.39L1143.51,533.47L1145.09,532.56L1146.66,528.22L1148.24,527.31L1151.38,523.68L1152.96,522.59L1154.54,519.99L1156.11,518.96L1159.26,515.45L1160.84,511.25L1163.99,507.1L1165.56,505.87L1167.14,505.86L1168.71,504.66L1171.86,503.43L1173.44,504.21L1176.59,503.94L1178.16,501.05L1181.31,497.87L1182.89,495.18L1184.46,495.3L1186.04,494.49L1187.61,489.24L1189.19,486.98L1193.91,485.02L1195.49,486.11L1198.64,483.96L1200.21,485L1201.79,484.34L1203.37,487.78L1204.94,489.21L1206.51,492.06L1209.66,495.38L1211.24,495.34L1215.96,495.44L1217.54,496.22L1219.11,496.93L1220.69,495.53L1222.27,496.5L1223.84,496.15L1226.99,495.35L1228.57,492.92L1230.14,492.33L1231.72,493.53L1233.29,494.38L1234.86,496.16L1238.01,499.72L1239.59,499.23L1241.17,499.49L1242.74,505.82L1244.32,506.46L1245.89,508.86L1247.47,510.66L1249.04,508.65L1250.62,509.33L1252.19,513.67L1253.76,514.84L1255.34,514.74L1256.92,514.13L1258.49,512.65L1263.22,509.48L1264.79,504.16L1267.94,506.6L1269.52,508.42L1272.67,513.67L1274.24,515.4L1277.39,513.93L1278.97,511.6L1280.54,510.24L1282.12,506.64L1285.27,500.45L1286.84,499L1289.99,494.5L1291.57,494.48L1293.14,495.33L1294.72,494.65L1297.87,496.09L1299.44,497.04L1302.59,496.76L1304.17,495.38L1307.32,496.75L1308.89,497.2L1310.47,496.04L1312.05,496.68L1313.62,496.73L1315.2,497.68L1318.34,491.88L1319.92,491.3L1324.65,487.61L1326.22,486.59L1334.1,476.2L1335.67,475.1L1337.25,474.28L1338.82,474.53L1341.97,474.95L1343.55,478.95L1345.12,481.39L1346.7,487.82L1349.85,491.8L1351.42,495.57L1353,495.49L1354.57,501.81L1356.15,501.77L1357.72,503.26L1359.3,504.26L1360.87,503.92L1362.45,506.51L1364.02,506.61L1365.6,507.66L1367.17,507.63L1368.75,507.25L1370.32,507.73L1373.47,506.53L1375.05,506.15L1378.2,505.28L1379.77,504.27L1382.92,504.75L1384.5,503.65L1393.95,503.16L1395.52,504.11L1398.67,504.67L1400.25,503.79L1401.82,503.48L1403.4,504.13L1409.7,510.36L1411.27,511.75L1412.85,512.92L1414.42,513.02L1416,514.04" style="vector-effect: none; fill: none; stroke: rgb(239, 85, 59); stroke-opacity: 1; stroke-width: 3px; opacity: 1;"/></g><g class="points"/><g class="text"/></g><g class="trace scatter trace6248ba" style="stroke-miterlimit: 2; opacity: 1;"><g class="fills"/><g class="errorbars"/><g class="lines"><path class="js-line" d="M0,495.74L3.15,497.83L4.73,497.72L6.3,498.1L7.88,499.49L11.03,501.04L12.6,500.45L14.18,500.97L15.75,499.69L17.33,500.28L18.9,499.43L22.05,498.68L23.63,497.22L26.78,493.02L28.35,493.43L31.5,488.86L33.08,485.03L34.65,484.32L36.23,478.94L37.8,472.53L39.38,471.14L44.1,449.24L45.68,449.27L48.83,427.55L50.4,424.75L55.13,390.58L56.7,387.31L59.85,358.77L61.43,354.58L64.58,330.07L66.15,319.69L67.73,316.03L69.3,309.86L75.6,276.2L77.18,273.86L80.33,258.44L81.91,255.88L83.48,241.31L85.06,237.35L88.21,221.79L89.78,207.69L92.93,191.03L94.51,172.47L103.96,101.63L105.53,96.21L107.11,94.23L108.68,83.75L110.26,84.94L111.83,75.54L113.41,83.66L114.98,85.44L116.56,91.32L118.13,92.68L121.28,111L122.86,120.94L124.43,125.52L126.01,135.85L129.16,142.05L130.73,150.08L132.31,152.26L133.88,162.03L137.03,175.98L138.61,175.67L140.18,177.17L141.76,175.04L143.33,169.85L144.91,158.66L146.48,156.12L148.06,159.59L149.63,150.07L151.21,146.06L152.78,138.94L154.36,139.51L155.93,130.35L157.51,126.63L165.38,134.96L166.96,133.82L168.53,131.05L170.11,126.46L171.68,131.09L173.26,132.45L174.83,127.75L176.41,112.03L177.99,109.36L179.56,110.47L182.71,114.01L184.29,114.23L185.86,117.4L187.44,127.22L189.01,131.08L190.59,138.52L192.16,136.96L193.74,138.1L195.31,138.43L196.89,141.71L201.61,155.42L203.19,153.82L204.76,155.04L206.34,159.86L209.49,166.67L211.06,169.37L212.64,175.32L214.21,185.09L217.36,195.9L218.94,196.48L220.51,198.13L222.09,201.62L223.66,203.84L225.24,208.57L226.81,213.75L228.39,225.43L236.26,256.67L237.84,258.92L240.99,270L242.56,281.09L244.14,285.32L245.71,292.54L248.86,299.03L250.44,304.13L255.16,318.43L256.74,322.02L258.31,325.9L259.89,322.98L263.04,329.71L264.61,329.46L266.19,327.07L267.76,326.74L272.49,330L274.07,331.32L275.64,331.97L277.22,330.33L278.79,329.82L280.37,332.06L285.09,344.9L286.67,346.47L288.24,346.42L289.82,344.62L291.39,342.26L292.97,342.69L296.12,343.59L297.69,338.5L299.27,345.76L300.84,347.5L302.42,348.89L303.99,348.62L305.57,349.68L307.14,349.26L310.29,356.18L311.87,359.43L316.59,369.71L318.17,370.29L326.04,377.63L327.62,383.67L332.34,388.97L333.92,395.52L335.49,397.29L337.07,396.79L338.64,397.33L340.22,398.68L343.37,399.14L344.94,400.44L346.52,400.34L348.09,399.34L351.24,397.21L352.82,395.45L355.97,401.57L357.54,402.54L359.12,405.74L360.69,405.71L362.27,405.12L363.84,405.43L367,405.39L368.57,406.5L370.15,406.32L371.72,407.39L374.87,410.82L376.45,410.73L378.02,413.86L379.6,414.72L382.75,417.05L384.32,416.92L385.9,416.63L387.47,415.35L389.05,417.34L390.62,416.21L393.77,412.26L395.35,406.91L396.92,407.42L398.5,407.02L400.07,406.08L401.65,407.02L403.22,404.93L404.8,405.31L406.37,404.56L407.95,406.41L409.52,407.08L411.1,408.83L414.25,412.06L415.82,411.99L418.97,412.75L420.55,412.25L422.12,412.34L423.7,413.69L425.27,415.86L426.85,419.54L430,423.01L431.57,422.18L433.15,421.73L434.72,420.45L436.3,417.83L437.87,418.81L439.45,418.51L441.02,415.83L445.75,409.81L447.32,409.24L448.9,408.1L450.47,409.6L452.05,406.25L453.62,405.25L459.92,397.2L461.5,396.75L463.08,396.45L464.65,392.66L466.23,391.66L467.8,389.11L470.95,384.34L472.53,381.65L474.1,380.22L475.68,379.95L481.98,377.01L483.55,377.18L485.13,376.88L486.7,375.03L491.43,374.15L493,375.18L496.15,375.98L497.73,374.69L500.88,375.01L502.45,376.08L505.6,376.97L507.18,379.38L510.33,378.14L511.9,377.92L513.48,378.35L515.05,377.53L518.2,378.3L519.78,378.34L521.35,378.48L522.93,377.12L526.08,376.35L527.65,376.97L535.53,379.98L537.1,381.56L540.25,382.24L541.83,381.5L544.98,382.94L546.55,382.68L551.28,384.27L552.85,385.28L557.58,388.89L559.16,390.7L562.31,395.45L563.88,396.74L565.46,397.29L567.03,397.03L568.61,396.68L570.18,397.2L574.91,400.56L576.48,400.32L581.21,403.53L582.78,405.94L587.51,406.21L589.08,404.98L590.66,404.01L592.23,404.23L595.38,403.24L596.96,401.89L601.68,399.02L603.26,398.81L606.41,397.65L607.98,395.93L614.28,395.62L615.86,395.1L617.43,393.68L619.01,393.37L622.16,393.65L623.73,393.66L625.31,394.87L626.88,394.97L631.61,395.89L633.18,396.62L637.91,400.26L639.48,400.38L642.63,401.63L644.21,401.69L645.78,402.87L647.36,403.01L648.93,404.22L650.51,406.55L656.81,407.14L658.39,408.06L661.54,409.95L663.11,410.14L667.84,416.18L669.41,417.29L672.56,418.71L674.14,419.86L678.86,426.07L680.44,427.32L683.59,428.73L685.16,430.31L691.46,436.91L693.04,437.83L699.34,439.87L700.91,440.67L702.49,441.27L704.06,443.14L708.79,444.8L710.36,445.19L711.94,445.82L713.51,447.28L715.09,448.65L716.66,448.22L718.24,448.84L719.81,448.51L724.54,450.15L726.11,449.84L730.84,450.65L732.41,451.42L735.56,452.58L737.14,454.22L740.29,457.23L741.86,457.19L745.01,459.44L746.59,460.25L751.32,462.13L752.89,463.84L754.47,464.98L756.04,464.9L757.62,467L759.19,466L760.77,466.09L762.34,466.95L763.92,467.42L765.49,466.99L767.07,466.91L768.64,467.78L773.37,467.95L774.94,468.36L778.09,469.36L779.67,469.3L784.39,470.12L785.97,471.2L789.12,473.08L790.69,473.12L793.84,473.2L795.42,474.47L796.99,475.21L798.57,474.84L804.87,474.51L806.44,474.6L811.17,476.16L812.74,475.74L817.47,475.15L819.04,475.03L823.77,475.1L825.34,474.8L833.22,474.94L834.79,474.31L839.52,472.57L841.09,472.2L845.82,473.95L847.4,474.05L848.97,474.23L850.55,475.2L853.7,477.33L855.27,477.21L858.42,477.76L860,478.27L869.45,479.97L871.02,479.43L877.32,476.12L878.9,475.65L882.05,475.38L883.62,475.7L886.77,477.18L888.35,477.91L894.65,476.07L896.22,475.24L897.8,474.41L899.37,474.74L900.95,475.6L902.52,475.4L904.1,474.98L905.67,473.65L910.4,470.59L911.97,468.31L916.7,459.7L918.27,454.8L919.85,450.57L921.42,443.62L924.57,436.91L926.15,432.28L930.87,421.71L932.45,420.53L934.02,417.02L935.6,416.68L937.17,411.39L938.75,411.04L940.32,406.74L941.9,404.83L946.63,393.7L948.2,391.17L951.35,385.55L952.93,384.23L956.08,382.2L957.65,381.58L959.23,380.43L960.8,378.08L962.38,382.36L963.95,382.61L967.1,382.65L968.68,383.57L971.83,387.61L973.4,386.77L976.55,387.53L978.13,389.34L979.7,388.87L981.28,387.05L982.85,387.16L984.43,384.48L986,382.27L987.58,376.68L990.73,373.81L992.3,371.63L995.45,373.77L997.03,375.06L998.6,377.67L1000.18,381.9L1003.33,388.88L1004.9,392.56L1006.48,398.54L1008.05,400.19L1011.2,406.51L1012.78,408.58L1014.35,407.69L1015.93,408.59L1019.08,404.47L1020.65,405.71L1023.8,410.17L1025.38,407.21L1026.95,407.47L1028.53,406.1L1030.1,407.79L1031.68,407.95L1033.25,406.29L1034.83,408L1036.41,409.34L1037.98,412.38L1039.56,413.89L1041.13,417.78L1045.86,422.7L1047.43,423.4L1049.01,427.35L1050.58,428.2L1052.16,430.39L1053.73,430.61L1055.31,433.74L1056.88,434.92L1058.46,434.81L1060.03,437.58L1063.18,441.5L1064.76,442.83L1066.33,444.72L1067.91,449.43L1069.48,451.84L1071.06,452.78L1072.63,456.69L1074.21,457.29L1075.78,459.86L1077.36,459.49L1078.93,461.16L1080.51,459.36L1082.08,461.29L1083.66,456.16L1086.81,452.09L1088.38,443.52L1089.96,442.52L1091.53,433.9L1093.11,429.74L1094.68,417.86L1097.83,409.07L1099.41,398.08L1104.13,369.96L1105.71,361.07L1110.43,346.9L1112.01,345.48L1113.58,344.48L1115.16,348L1118.31,354.06L1119.88,357.79L1123.03,360.89L1124.61,366.43L1126.18,367.08L1127.76,372.69L1129.33,374.07L1130.91,381.88L1132.49,386.23L1134.06,398.57L1137.21,413.81L1138.79,430.45L1140.36,440.75L1141.94,460.2L1145.09,481.72L1146.66,483.58L1148.24,481.17L1149.81,472.94L1151.39,469.43L1152.96,461.65L1157.69,453.77L1159.26,451.84L1162.41,453.1L1163.99,451.98L1167.14,452.07L1168.71,453.36L1175.01,455.81L1176.59,455.83L1178.16,455.85L1179.74,457.45L1186.04,462.83L1187.61,465.37L1190.76,467.16L1192.34,469.23L1197.06,473.74L1198.64,475.68L1200.21,476.74L1201.79,481.85L1203.36,483.71L1204.94,487.33L1208.09,486.26L1209.66,485.6L1211.24,488.57L1212.81,487.47L1214.39,487.99L1215.96,490.05L1217.54,490.35L1219.11,492.08L1220.69,489.97L1222.26,491.36L1223.84,492.38L1225.41,495.83L1226.99,495.09L1228.57,496.5L1231.72,496.08L1233.29,497.8L1238.02,497.09L1239.59,497.95L1242.74,494.6L1244.32,493.98L1247.47,490.48L1249.04,489.91L1250.62,489.97L1252.19,487.91L1253.77,486.99L1255.34,488.13L1256.92,487.16L1258.49,487.53L1266.37,488.95L1267.94,489.98L1269.52,489.66L1271.09,487.16L1274.24,490.17L1275.82,490.53L1277.39,490.68L1278.97,491.71L1280.54,493.03L1282.12,490.55L1285.27,485.25L1286.84,480.04L1288.42,477.68L1289.99,471.79L1293.14,466.9L1294.72,461.78L1296.29,459.7L1297.87,454L1299.44,452.23L1301.02,448.09L1302.59,446.55L1304.17,441.7L1308.89,439.8L1310.47,439.04L1313.62,437.82L1315.19,439.35L1319.92,447L1321.49,447.69L1324.65,449.81L1326.22,451.15L1327.79,450.22L1329.37,451.31L1332.52,451.12L1334.1,452.7L1335.67,451.94L1337.25,453.36L1338.82,452.82L1340.4,453.43L1341.97,452.68L1343.55,454.33L1345.12,457.65L1346.7,459.03L1349.85,461.5L1351.42,464.38L1353,463.76L1354.57,463.97L1359.3,466.35L1360.87,466.71L1364.02,465.74L1365.6,466.68L1370.32,467.64L1371.9,467.77L1375.05,466.87L1376.62,465.27L1378.2,465.43L1379.77,463.86L1381.35,463.07L1382.92,463.9L1386.07,464.45L1387.65,465.7L1389.22,466.13L1390.8,465.23L1393.95,463.43L1395.52,463.86L1400.25,466.43L1401.82,465.94L1403.4,466.09L1404.97,464.69L1406.55,461.2L1408.12,460.5L1416,464.06" style="vector-effect: none; fill: none; stroke: rgb(0, 204, 150); stroke-opacity: 1; stroke-width: 3px; opacity: 1;"/></g><g class="points"/><g class="text"/></g><g class="trace scatter tracec7a8eb" style="stroke-miterlimit: 2; opacity: 1;"><g class="fills"/><g class="errorbars"/><g class="lines"><path class="js-line" d="M0,496.97L4.73,494.86L6.3,493.91L15.75,488.46L17.33,486.6L20.48,485.67L22.05,481.57L26.78,471.46L28.35,465.7L31.5,455.45L33.08,447.11L34.65,442.45L36.23,433.84L37.8,426.45L39.38,413.67L42.53,389.84L44.1,370.01L50.4,314.48L51.98,305.32L55.13,281.54L56.7,270.81L59.85,247.78L61.43,240.03L64.58,223.87L66.15,219.73L70.88,204.06L72.45,200.09L75.6,190.72L77.18,186.73L78.76,176.56L80.33,171.85L81.9,163.72L83.48,150.27L88.21,114.65L89.78,100.36L96.08,59.43L97.66,48.6L100.81,39.86L102.38,39.61L103.96,37.41L105.53,36.85L107.11,36L108.68,36.61L111.83,38.29L113.41,41.55L114.98,41.75L116.56,43.8L118.13,49.06L119.71,50.76L122.86,70.8L124.43,83.52L129.16,132.32L130.73,150.43L132.31,178.91L133.88,192.15L135.46,194.32L137.03,185.87L140.18,187.52L141.76,187.42L143.33,198.43L144.91,198.98L149.63,210.23L151.21,218.04L152.78,221.7L154.36,221.24L155.93,224.28L157.51,222.46L159.08,222.76L160.66,220.19L162.23,214.47L163.81,217.88L165.38,198.57L166.96,217.23L168.53,222.1L170.11,195.54L171.69,201.57L173.26,204.59L174.83,200.44L176.41,206.04L177.99,210.21L179.56,210.02L181.14,213.47L182.71,220.33L185.86,226.2L187.44,236.8L189.01,237.1L190.59,240.48L192.16,244.62L193.74,237.46L195.31,228.88L196.89,236.1L198.46,226.26L200.04,225.59L203.19,238.62L204.76,250L207.91,260.76L209.49,274.81L211.06,281.74L212.64,297.89L215.79,342.77L217.36,349.79L218.94,348.77L220.51,350.13L222.09,354.83L223.66,351.36L225.24,349.91L226.81,347.25L228.39,343.15L229.96,346.81L231.54,340.37L233.11,344.8L234.69,344.87L236.26,341.78L237.84,352.37L239.41,351.23L240.99,359.91L242.56,359.63L244.14,363.49L245.71,357.55L247.29,355.83L248.86,357.77L250.44,360.61L252.01,365.74L255.16,369.24L256.74,367.28L258.31,368.11L259.89,363.26L261.46,365.91L263.04,362.93L264.62,363.05L266.19,362.41L270.91,358.98L272.49,359.11L274.07,357.64L275.64,360.55L277.21,365.13L278.79,365.23L280.37,369.63L281.94,370.04L283.52,379.14L285.09,380.91L288.24,387.08L289.82,389.16L291.39,387.99L292.97,390.09L294.54,393.3L296.12,392.89L297.69,396.7L299.27,397.55L300.84,401.77L302.42,403.86L305.57,407.53L307.14,407.57L308.72,404.57L310.29,404.41L311.87,403.38L313.44,399.19L315.02,397.38L316.59,389.97L318.17,384.82L319.74,373.96L321.32,370.07L322.89,360.5L326.04,346.64L327.62,344.53L329.19,342.05L330.77,342.97L337.07,355.28L338.64,357.45L341.79,363.94L343.37,364.81L344.94,366.74L346.52,366.73L349.67,365.72L351.24,366.77L352.82,369.28L354.39,369.51L357.54,372.32L359.12,371.89L360.69,370.09L362.27,364.28L366.99,350.81L368.57,345.21L370.15,337.74L371.72,334.58L376.45,313.3L378.02,309.99L381.17,298.96L382.75,296.73L390.62,280.9L392.2,279.85L393.77,279.26L395.35,279.66L396.92,280.05L398.5,281.24L400.07,279.89L401.65,280.23L404.8,281.1L406.37,282.11L407.95,281.96L409.52,285.48L414.25,280.17L415.82,277.5L417.4,272.76L418.97,270.55L425.27,264.4L426.85,265.13L431.57,265.3L433.15,265.3L434.72,267.35L436.3,267.3L437.87,266.7L439.45,269.51L441.02,270.31L442.6,270.18L444.17,269.37L445.75,270.26L447.32,270.19L448.9,271.67L450.47,273.61L452.05,273.66L453.62,274.59L455.2,278.54L459.92,281.53L461.5,281.45L463.08,280.29L464.65,282.06L469.37,284.2L470.95,285.21L475.68,289.62L477.25,289.85L480.4,293.17L481.98,294.9L483.55,295.83L485.13,298.44L486.7,298.75L488.28,301.47L489.85,302.66L491.43,302.88L493,303.86L494.58,306.77L496.15,307.98L497.73,307.64L499.3,309.89L500.88,309.88L502.45,311.72L504.03,311.89L505.6,312.58L507.18,316.07L513.48,318.97L515.05,318.73L519.78,316.93L521.35,313.82L524.5,312.95L526.08,313.74L529.23,314.7L530.8,312.56L535.53,313.4L537.1,314.92L541.83,319.02L543.4,318.24L546.55,320.75L548.13,321.11L560.73,323.85L562.3,325.59L565.46,326.39L567.03,326.36L571.76,326.48L573.33,327.35L576.48,327.48L578.06,328.14L579.63,327.13L581.21,327.71L585.93,329.18L587.51,330.82L589.08,331.47L590.66,332.99L592.23,332.76L593.81,334.36L596.96,336.82L598.53,336.56L603.26,334.97L604.83,335.83L606.41,334.85L607.98,334.93L612.71,336.23L614.28,335.43L617.43,335.09L619.01,335.98L620.58,337.85L622.16,338.35L626.88,340.2L628.46,340.58L630.03,340.5L631.61,341.98L633.18,343.1L634.76,343.09L639.48,342.09L641.06,342.3L650.51,349.32L652.08,349.76L656.81,353.19L658.39,356.22L663.11,357.43L664.69,361.2L666.26,361.53L667.84,363.98L669.41,366.47L670.99,367.18L675.71,371.7L677.29,375.35L680.44,379.42L682.01,381.8L685.16,385.76L686.74,388.95L688.31,389.95L689.89,393.27L694.61,402.81L696.19,403.92L699.34,411.2L700.91,414.27L702.49,415.08L704.06,416.81L711.94,422.45L713.51,422.87L718.24,428.57L719.81,430.88L721.39,433.3L722.96,433.44L724.54,434.5L726.11,436.51L729.26,437.98L730.84,437.34L735.56,431.02L737.14,432.2L738.71,432.36L740.29,433.38L741.86,433.94L743.44,436.17L746.59,436.57L748.17,437.86L751.32,437.65L752.89,438.42L754.46,437.27L756.04,437.41L759.19,436.71L760.77,436.85L763.92,434.83L765.49,435.51L767.07,434.33L768.64,434.48L770.22,434.59L771.79,433.22L773.37,434.07L774.94,433.68L778.09,433.33L779.67,436.14L784.39,440.21L785.97,439.46L792.27,441.06L793.84,443.05L795.42,443.23L796.99,445.77L798.57,446.18L800.14,445.67L801.72,447.08L803.29,446.43L804.87,445.18L806.44,445.23L808.02,444.3L809.59,445.2L812.74,443.35L814.32,446.58L817.47,446.42L819.04,447.35L822.19,447.65L823.77,447.38L825.34,447.5L826.92,446.74L828.49,447.25L830.07,450.98L834.79,451.11L836.37,454.11L837.94,454.91L839.52,456.76L841.09,457.46L842.67,460.41L847.4,463.48L848.97,463.7L856.85,468L858.42,468.86L860,469.49L861.57,471.11L864.72,471.45L866.3,476.81L869.45,485.85L871.02,487.4L874.17,492.74L875.75,497.88L878.9,503.03L880.47,507.03L885.2,509.95L886.77,510.96L893.07,512.29L894.65,513.86L896.22,515.14L897.8,521.36L899.37,524.69L900.95,531.83L902.52,535.03L904.1,532.98L905.67,548.55L907.25,551.08L908.82,565.52L910.4,562.41L911.97,561.43L913.55,561.59L915.12,573.72L916.7,569.63L921.42,560.9L923,559.44L924.57,559.13L926.15,555.44L927.72,557.34L929.3,555.96L930.87,556.37L932.45,558.75L934.02,558.92L935.6,560.28L937.17,556.15L938.75,558.84L940.33,560.81L941.9,556.73L946.62,545.99L948.2,540.22L949.78,533.51L951.35,532.17L954.5,523.73L956.08,510.56L957.65,507.49L959.23,499.8L963.95,478.96L965.53,474.51L970.25,462.95L971.83,461.98L973.4,461.93L974.98,463.83L976.55,461.01L978.13,461.77L979.7,461.46L981.28,460.13L982.85,458.66L984.43,454.8L987.58,453.57L989.15,453.94L992.3,448.91L993.88,448.74L995.45,450.03L997.03,448.19L1000.18,453.79L1001.75,456.03L1006.48,461.92L1008.05,461.81L1009.63,463.6L1011.2,463.58L1014.35,471.17L1015.93,472.45L1017.5,474.96L1019.08,475.17L1023.8,470.28L1025.38,469.79L1030.1,471.84L1031.68,473.24L1033.25,474.84L1034.83,472.5L1036.4,471.77L1037.98,473.06L1039.56,470.91L1041.13,470.71L1044.28,473.5L1045.86,472.03L1049.01,470.13L1050.58,469.01L1053.73,468.65L1055.31,468.55L1056.88,466.57L1058.46,467.73L1060.03,466.86L1061.61,468.43L1063.18,468.91L1064.76,470.49L1067.91,471.21L1069.48,473.25L1072.63,474.31L1074.21,475.04L1078.93,480.72L1080.51,481.01L1083.66,485.79L1085.23,488.35L1089.96,497L1091.53,497.89L1096.26,501.85L1097.83,501.8L1099.41,501.33L1100.98,504.69L1105.71,513.18L1107.28,513.1L1108.86,514.75L1110.43,514.66L1112.01,514.32L1113.58,510.93L1116.73,508.66L1118.31,506.74L1119.88,505.41L1121.46,500.07L1124.61,495.39L1126.19,491.22L1130.91,481.91L1132.49,477.78L1134.06,474.9L1135.64,469.46L1138.78,462.98L1140.36,457.59L1146.66,444.04L1148.23,442.21L1149.81,439.26L1151.39,434.48L1156.11,432.19L1157.69,428.94L1160.84,425.52L1162.41,425.57L1167.14,419.02L1168.71,418.1L1171.86,420.39L1173.44,421.54L1178.16,428.44L1179.74,430.3L1181.31,430.44L1182.89,431.58L1184.46,432.05L1186.04,434.48L1190.76,441.42L1192.34,440.2L1193.91,444.7L1195.49,445.39L1197.06,448.55L1198.64,455.95L1204.94,495.11L1206.51,501.35L1214.39,543.75L1215.96,548.68L1222.26,566.08L1223.84,568.69L1225.42,568.97L1226.99,574.72L1230.14,579.72L1231.71,580.82L1238.01,591.59L1239.59,592.73L1244.32,592.96L1245.89,595.6L1247.47,592.24L1249.04,591.12L1250.62,593.19L1252.19,592.8L1255.34,597.6L1256.92,597.8L1261.64,602.52L1263.22,602.48L1264.79,605.81L1266.37,606.3L1267.94,604.88L1269.52,604.51L1271.09,604.32L1272.67,605.04L1274.24,605.12L1275.82,602.94L1277.39,602.9L1278.97,601.88L1280.54,603.28L1282.12,602.74L1283.69,599.62L1285.27,600.29L1286.84,599.27L1288.42,601.1L1289.99,601L1291.57,600.09L1294.72,602.66L1296.29,600.73L1302.59,605.32L1304.17,605.42L1305.74,605.97L1307.32,605.68L1310.47,604.33L1312.04,602.87L1318.35,598.79L1319.92,595.25L1323.07,589.95L1324.65,589.46L1327.8,585.81L1329.37,583.95L1334.1,583.58L1335.67,583.14L1338.82,579.54L1340.4,578.59L1346.7,575.83L1348.27,577L1349.85,575.76L1351.42,572.28L1353,568.97L1354.57,567.68L1357.72,562.79L1359.3,558.14L1362.45,555.5L1364.02,551.71L1368.75,539.83L1370.32,534.64L1373.47,527.49L1375.05,525.68L1376.62,525.92L1378.2,524.34L1379.77,525.66L1381.35,524.55L1382.92,524.76L1384.5,521.84L1387.65,518.24L1389.22,518.24L1390.8,519.17L1392.37,517.03L1393.95,514.1L1395.52,512.95L1398.67,510.77L1400.25,507.87L1401.82,503.61L1403.4,503.32L1406.55,501.13L1408.12,498.22L1409.7,498.66L1411.27,497.36L1416,498.49" style="vector-effect: none; fill: none; stroke: rgb(171, 99, 250); stroke-opacity: 1; stroke-width: 3px; opacity: 1;"/></g><g class="points"/><g class="text"/></g><g class="trace scatter trace3137c2" style="stroke-miterlimit: 2; opacity: 1;"><g class="fills"/><g class="errorbars"/><g class="lines"><path class="js-line" d="M0,514.6L3.15,514.23L4.73,513.08L6.3,511.87L7.88,508.47L9.45,505.57L11.03,505.71L14.18,493.48L15.75,490.05L17.33,487.28L18.9,481.78L20.48,479.89L22.05,474.9L29.93,455.06L31.5,447.58L36.23,434.82L37.8,429.1L40.95,414.97L42.53,406.02L44.1,400.43L45.68,391.06L50.4,369.2L51.98,366.22L59.85,343.17L61.43,333.6L63,327.17L64.58,317.27L67.73,305.38L69.3,296.32L75.61,258.82L77.18,255.43L80.33,229.19L81.91,222.74L83.48,204.72L85.06,197.1L86.63,174.55L88.21,172.13L91.36,151L92.93,150.04L94.51,145.21L96.08,145.18L97.66,135.21L99.23,144.88L100.81,147.22L102.38,152.47L103.96,153.79L105.53,150.84L107.11,152.54L108.68,136.98L110.26,141.38L111.83,135.03L113.41,117.28L114.98,114.39L116.56,93.86L118.13,91.57L119.71,75.62L121.28,80.07L126.01,132.81L127.58,169.81L129.16,190.5L130.73,221.55L132.31,234.4L133.88,254.9L138.61,286.02L140.18,293.38L141.76,302.83L143.33,307.01L149.63,327.8L151.21,332.59L152.78,340.54L154.36,340.25L155.93,339.56L157.51,333.18L159.08,333.95L160.66,328.94L163.81,333.05L165.38,338.58L166.96,341.52L168.53,341.69L171.69,356.52L173.26,366.96L174.83,370.44L176.41,371.95L177.99,372.13L179.56,381.15L181.14,388.51L182.71,383.59L184.29,377.08L185.86,380.12L187.44,378.69L189.01,374.76L190.59,372.73L192.16,373.42L193.74,374.16L195.31,373.7L198.46,374.41L200.04,370.73L201.61,369.07L203.19,365.6L204.76,363.8L206.34,364.78L209.49,363.88L211.06,364.46L212.64,365.85L214.21,361.56L215.79,359.85L217.36,362.26L218.94,360.26L220.51,360.03L222.09,360.78L223.66,359.72L225.24,359.99L226.81,362.13L231.54,375.3L233.11,386.68L236.26,402.67L237.84,405.59L244.14,424.65L245.71,430.66L247.29,434.61L248.86,436.16L250.44,433.06L252.01,425.31L253.59,425.38L255.16,419.22L256.74,420.37L258.32,415.18L259.89,414.25L261.46,408.13L263.04,410.05L264.61,407.67L266.19,401.39L267.77,399.66L274.07,362.61L275.64,360.09L277.22,361.01L278.79,356.26L280.37,355.93L281.94,349.16L283.52,350.75L285.09,344.94L291.39,339.44L292.97,340.67L296.12,329.67L297.69,329.14L299.27,326.98L300.84,322.48L302.42,320.79L303.99,322.11L307.14,315.03L308.72,313.83L310.29,306.3L311.87,304.94L313.44,306.56L315.02,301.15L316.59,300.73L318.17,302.03L321.32,298.81L322.89,298.45L324.47,300.47L326.04,300.29L327.62,301.93L329.19,297.82L330.77,296.5L332.34,301.94L333.92,301.82L335.49,303.56L337.07,304.51L338.64,308.33L340.22,308.06L341.79,306.02L343.37,308.02L344.94,312.96L346.52,316.1L348.09,315.55L351.24,309.76L352.82,310.28L354.39,310.78L355.97,313.09L357.55,318.69L359.12,316.3L362.27,320.76L363.84,319.76L365.42,320.87L367,320.57L370.15,316.3L371.72,315.6L374.87,314.77L376.45,312.71L379.6,307.26L381.17,306.52L382.75,303.71L384.32,303.08L385.9,303.47L387.47,307.11L389.05,307.48L390.62,311.28L393.77,316.38L395.35,319.07L396.92,323.19L398.5,325.05L400.07,329.12L401.65,330.19L404.8,334.79L406.37,335.97L407.95,339.25L409.52,338.28L411.1,340.79L412.67,339.83L415.82,341.19L417.4,341.64L418.97,343.69L420.55,342.95L422.12,342.65L423.7,341.22L428.42,336.42L430,336.42L433.15,334.87L434.72,335.36L436.3,334.16L437.87,331.76L441.02,332.81L442.6,334.21L444.17,333.91L445.75,335.3L448.9,339.11L450.47,339.86L452.05,342.17L453.62,342.19L458.35,341.45L459.93,342.13L461.5,341.07L463.07,341.72L464.65,341.75L466.23,335.58L467.8,335.11L469.38,323.68L472.53,318.51L474.1,306.22L475.68,304.19L477.25,299.92L478.83,292.64L480.4,290.52L485.13,282.73L486.7,284.91L488.28,282.26L489.85,287.96L491.43,287.65L493,294.28L494.58,293.43L496.15,296.23L499.3,296.7L500.88,297.39L504.03,297.52L505.6,295.66L507.18,294.68L508.75,295.19L511.9,296.06L513.48,296.02L515.05,296.3L516.63,298.94L519.78,299.18L521.35,301.22L524.5,303.77L526.08,305.84L532.38,307.05L533.95,306.74L535.53,307.26L537.1,309.55L541.83,312.52L543.41,313.46L544.98,315.51L546.55,315.23L552.86,323.65L554.43,324.71L557.58,327L559.16,329.35L562.31,329.98L563.88,329.19L565.46,329.74L567.03,329.17L570.18,330.42L571.76,329.55L573.33,328.88L574.91,329.98L578.06,332.74L579.63,333.27L581.21,334.72L582.78,333.79L584.36,334.26L585.93,331.97L593.81,330.33L595.38,330.82L600.11,326.43L601.68,326.27L604.83,326.14L606.41,326.52L611.13,330.68L612.71,333.18L622.16,346.2L623.73,349.6L625.31,352.35L626.88,353.06L630.03,356.02L631.61,355.46L633.18,355.43L634.76,356.42L636.33,353.77L637.91,356.46L639.48,354.97L641.06,357.17L642.63,358.54L644.21,361.17L647.36,366.91L648.94,370.54L652.09,373.02L653.66,375.74L659.96,388.14L661.54,389.96L663.11,391.97L664.69,391.66L667.84,392.55L669.41,394.99L674.14,395.85L675.71,394.51L677.29,396.27L678.86,395.77L682.01,400.08L683.59,399.63L688.31,405.95L689.89,410.12L691.46,409.48L693.04,411.53L694.61,413.3L696.19,412.87L697.76,413.24L699.34,416.34L702.49,419.13L704.06,421.5L708.79,434.89L710.36,437.21L715.09,450.63L716.66,451.72L718.24,455.95L719.81,457.46L722.96,460.71L724.54,461.5L726.11,461.76L727.69,460.07L730.84,461.12L732.41,458.25L733.99,459.59L735.57,457.03L738.71,458.86L740.29,458.84L745.02,463.7L746.59,464.48L748.16,466.87L749.74,467.42L756.04,475.3L757.62,476.22L759.19,478.78L760.77,479.9L767.07,483.18L768.64,483.29L774.94,486.01L776.52,485.64L781.24,486.43L782.82,486.84L787.54,488.32L789.12,488.35L790.69,488.12L792.27,487.13L795.42,483.82L796.99,483.02L803.29,480.79L804.87,480.82L806.44,480.57L808.02,482.37L812.74,485.9L814.32,486.71L815.89,488.68L817.47,489.11L819.04,491.09L820.62,491.59L823.77,497.05L825.34,500.58L830.07,510.48L831.64,511.33L839.52,518.09L841.1,520.84L842.67,523L844.24,526.53L847.4,531.93L848.97,534.5L852.12,540.5L853.7,542.05L855.27,542.81L856.85,542.16L858.42,540.32L860,531.77L861.57,529.31L863.15,530.01L864.72,531.29L866.3,533.88L869.45,537.73L871.02,537.61L872.6,539.06L874.17,541.76L880.47,542.52L882.05,543.73L883.62,542.43L885.2,542.87L889.92,540.39L891.5,538.27L893.07,537.16L894.65,534.9L896.22,532.56L897.8,526.69L900.95,521.18L902.52,520.09L904.1,518.16L905.67,514.22L910.4,507L911.97,502.91L916.7,496.21L918.27,492.38L919.85,492.11L921.42,488.08L924.57,478.47L926.15,475.56L927.73,473.17L929.3,468.63L930.87,463.8L932.45,462.32L934.02,462.45L935.6,460.36L938.75,457.85L940.32,458.25L941.9,458.25L943.48,456.65L945.05,454.29L946.63,454.71L948.2,452.7L949.78,452.27L951.35,450.57L952.93,451.27L954.5,452.19L956.08,451.88L959.23,448.77L960.8,448.8L963.95,445.54L965.53,441.41L967.1,436.41L968.68,434.72L970.25,431.52L971.83,430.27L976.55,421.94L978.13,422.2L981.28,417.16L982.85,416.28L984.43,413.86L986,412.95L987.58,411.46L989.15,408.43L990.73,405.63L992.3,404.83L995.45,404.47L997.03,405.19L998.6,408.7L1000.18,410.11L1003.33,413.69L1004.9,417.62L1008.05,420.48L1009.63,425.1L1012.78,422.12L1014.35,421.97L1015.93,422.61L1017.5,419.83L1019.08,419.15L1020.65,417.22L1023.8,413.21L1025.38,411.07L1028.53,409.67L1030.11,412.35L1031.68,415.99L1033.25,415.02L1034.83,423.18L1036.4,424.98L1037.98,428.79L1039.56,429.13L1042.71,425.04L1044.28,426.25L1045.86,423.01L1047.43,422.72L1050.58,420.88L1052.16,421.66L1053.73,420.06L1055.31,417.02L1058.46,414.65L1060.03,415.71L1071.06,430.82L1072.63,431.94L1077.36,440L1078.93,441.87L1082.08,448.56L1083.66,450.56L1085.23,455.17L1086.81,455.44L1088.38,459.17L1089.96,458.48L1094.68,462.75L1096.26,466.03L1099.41,470.27L1100.98,470.67L1102.56,471.42L1104.13,470.67L1107.28,473.29L1108.86,469.95L1113.58,466.28L1115.16,465.39L1118.31,463.13L1119.88,461.89L1124.61,458.52L1126.19,457.64L1129.34,454.36L1130.91,454.35L1134.06,452.94L1135.64,451.63L1141.94,443.5L1143.51,442.17L1149.81,439.05L1151.39,440.37L1152.96,441.73L1154.54,444.65L1156.11,445.1L1157.69,447.65L1159.26,449.52L1160.84,452.82L1165.56,460.53L1167.14,462.93L1171.86,471.16L1173.44,472.56L1175.01,473.77L1176.59,472.89L1181.31,472.96L1182.89,472.58L1187.61,473.98L1189.19,475.46L1192.34,479.65L1193.91,486.13L1197.06,491.6L1198.64,495.83L1200.21,499.54L1201.79,506.61L1203.37,509.33L1204.94,514.7L1208.09,518.8L1209.66,520.17L1211.24,520.71L1212.81,520.17L1214.39,520.01L1215.96,522.87L1219.11,524.22L1220.69,524.09L1222.27,527.82L1223.84,526.75L1225.41,528.85L1226.99,528.05L1228.57,526.82L1230.14,526.86L1233.29,519.99L1234.87,521.17L1236.44,521.82L1238.02,523.29L1239.59,523.62L1241.17,524.75L1244.32,524.38L1245.89,525.38L1252.19,530.83L1253.77,530.51L1256.92,531.69L1258.49,530.74L1260.07,528.17L1261.64,528.29L1263.22,528.22L1264.79,526.22L1267.94,523.85L1269.52,524.61L1271.09,524.07L1272.67,522.36L1274.24,521.12L1275.82,518.37L1277.39,517.55L1278.97,515.27L1283.69,511.49L1285.27,509.41L1286.84,509.74L1288.42,506.79L1291.57,505.37L1293.14,504.02L1294.72,502.85L1296.29,500.41L1299.44,495.09L1301.02,494.56L1304.17,494.16L1305.75,494.27L1307.32,495.56L1308.89,495.6L1310.47,497.23L1312.04,497.48L1315.19,497.12L1316.77,497.13L1319.92,500.45L1321.5,499.92L1323.07,500.24L1324.65,499.39L1327.8,501.46L1329.37,500.81L1332.52,498.35L1334.1,498.31L1335.67,496.05L1337.25,496.27L1340.4,495.31L1341.97,495.07L1345.12,492.42L1346.7,491.94L1349.85,489.22L1351.42,485.61L1354.57,481.97L1356.15,479.06L1359.3,476.1L1360.87,475.97L1364.02,476.08L1365.6,477.1L1368.75,478.11L1370.32,479.36L1371.9,479.83L1373.47,481.22L1376.62,480.46L1378.2,480.22L1384.5,479.54L1386.07,480.08L1392.37,475.72L1393.95,474.81L1395.52,474.89L1397.1,476.14L1408.12,495.3L1409.7,497.29L1416,498.22" style="vector-effect: none; fill: none; stroke: rgb(255, 161, 90); stroke-opacity: 1; stroke-width: 3px; opacity: 1;"/></g><g class="points"/><g class="text"/></g></g></g></g><path class="xlines-above crisp" d="M0,0" style="fill: none;"/><path class="ylines-above crisp" d="M0,0" style="fill: none;"/><g class="overlines-above"/><g class="xaxislayer-above"><g class="xtick"><text text-anchor="middle" x="0" y="841" transform="translate(259.93,0)" style="font-family: 'Open Sans', verdana, arial, sans-serif; font-size: 20px; fill: rgb(42, 63, 95); fill-opacity: 1; white-space: pre; opacity: 1;">2</text></g><g class="xtick"><text text-anchor="middle" x="0" y="841" style="font-family: 'Open Sans', verdana, arial, sans-serif; font-size: 20px; fill: rgb(42, 63, 95); fill-opacity: 1; white-space: pre; opacity: 1;" transform="translate(417.44,0)">4</text></g><g class="xtick"><text text-anchor="middle" x="0" y="841" style="font-family: 'Open Sans', verdana, arial, sans-serif; font-size: 20px; fill: rgb(42, 63, 95); fill-opacity: 1; white-space: pre; opacity: 1;" transform="translate(574.95,0)">6</text></g><g class="xtick"><text text-anchor="middle" x="0" y="841" style="font-family: 'Open Sans', verdana, arial, sans-serif; font-size: 20px; fill: rgb(42, 63, 95); fill-opacity: 1; white-space: pre; opacity: 1;" transform="translate(732.46,0)">8</text></g><g class="xtick"><text text-anchor="middle" x="0" y="841" style="font-family: 'Open Sans', verdana, arial, sans-serif; font-size: 20px; fill: rgb(42, 63, 95); fill-opacity: 1; white-space: pre; opacity: 1;" transform="translate(889.97,0)">10</text></g><g class="xtick"><text text-anchor="middle" x="0" y="841" style="font-family: 'Open Sans', verdana, arial, sans-serif; font-size: 20px; fill: rgb(42, 63, 95); fill-opacity: 1; white-space: pre; opacity: 1;" transform="translate(1047.48,0)">12</text></g><g class="xtick"><text text-anchor="middle" x="0" y="841" style="font-family: 'Open Sans', verdana, arial, sans-serif; font-size: 20px; fill: rgb(42, 63, 95); fill-opacity: 1; white-space: pre; opacity: 1;" transform="translate(1204.98,0)">14</text></g><g class="xtick"><text text-anchor="middle" x="0" y="841" style="font-family: 'Open Sans', verdana, arial, sans-serif; font-size: 20px; fill: rgb(42, 63, 95); fill-opacity: 1; white-space: pre; opacity: 1;" transform="translate(1362.49,0)">16</text></g><g class="xtick"><text text-anchor="middle" x="0" y="841" style="font-family: 'Open Sans', verdana, arial, sans-serif; font-size: 20px; fill: rgb(42, 63, 95); fill-opacity: 1; white-space: pre; opacity: 1;" transform="translate(1520,0)">18</text></g></g><g class="yaxislayer-above"><g class="ytick"><text text-anchor="end" x="103" y="7" transform="translate(0,739.57)" style="font-family: 'Open Sans', verdana, arial, sans-serif; font-size: 20px; fill: rgb(42, 63, 95); fill-opacity: 1; white-space: pre; opacity: 1;">0.1</text></g><g class="ytick"><text text-anchor="end" x="103" y="7" style="font-family: 'Open Sans', verdana, arial, sans-serif; font-size: 20px; fill: rgb(42, 63, 95); fill-opacity: 1; white-space: pre; opacity: 1;" transform="translate(0,650.68)">0.05</text></g><g class="ytick"><text text-anchor="end" x="103" y="7" style="font-family: 'Open Sans', verdana, arial, sans-serif; font-size: 20px; fill: rgb(42, 63, 95); fill-opacity: 1; white-space: pre; opacity: 1;" transform="translate(0,561.79)">0</text></g><g class="ytick"><text text-anchor="end" x="103" y="7" style="font-family: 'Open Sans', verdana, arial, sans-serif; font-size: 20px; fill: rgb(42, 63, 95); fill-opacity: 1; white-space: pre; opacity: 1;" transform="translate(0,472.9)">0.05</text></g><g class="ytick"><text text-anchor="end" x="103" y="7" style="font-family: 'Open Sans', verdana, arial, sans-serif; font-size: 20px; fill: rgb(42, 63, 95); fill-opacity: 1; white-space: pre; opacity: 1;" transform="translate(0,384.01)">0.1</text></g><g class="ytick"><text text-anchor="end" x="103" y="7" style="font-family: 'Open Sans', verdana, arial, sans-serif; font-size: 20px; fill: rgb(42, 63, 95); fill-opacity: 1; white-space: pre; opacity: 1;" transform="translate(0,295.12)">0.15</text></g><g class="ytick"><text text-anchor="end" x="103" y="7" style="font-family: 'Open Sans', verdana, arial, sans-serif; font-size: 20px; fill: rgb(42, 63, 95); fill-opacity: 1; white-space: pre; opacity: 1;" transform="translate(0,206.23000000000002)">0.2</text></g><g class="ytick"><text text-anchor="end" x="103" y="7" style="font-family: 'Open Sans', verdana, arial, sans-serif; font-size: 20px; fill: rgb(42, 63, 95); fill-opacity: 1; white-space: pre; opacity: 1;" transform="translate(0,117.34)">0.25</text></g></g><g class="overaxes-above"/></g></g><g class="polarlayer"/><g class="smithlayer"/><g class="ternarylayer"/><g class="geolayer"/><g class="funnelarealayer"/><g class="pielayer"/><g class="iciclelayer"/><g class="treemaplayer"/><g class="sunburstlayer"/><g class="glimages"/><defs id="topdefs-2a39ba"><g class="clips"/><clipPath id="legend2a39ba"><rect width="84" height="181" x="0" y="0"/></clipPath></defs><g class="layer-above"><g class="imagelayer"/><g class="shapelayer"/></g><g class="infolayer"><g class="legend" pointer-events="all" transform="translate(264.00800000000004,110.08000000000001)"><rect class="bg" shape-rendering="crispEdges" width="84" height="181" x="0" y="0" style="stroke: rgb(68, 68, 68); stroke-opacity: 1; fill: rgb(255, 255, 255); fill-opacity: 1; stroke-width: 0px;"/><g class="scrollbox" transform="" clip-path="url(#legend2a39ba)"><g class="groups"><g class="traces" transform="translate(0,22.1)" style="opacity: 1;"><text class="legendtext" text-anchor="start" x="40" y="9.360000000000001" style="font-family: 'Open Sans', verdana, arial, sans-serif; font-size: 24px; fill: rgb(42, 63, 95); fill-opacity: 1; white-space: pre;">1m</text><g class="layers" style="opacity: 1;"><g class="legendfill"/><g class="legendlines"><path class="js-line" d="M5,0h30" style="fill: none; stroke: rgb(99, 110, 250); stroke-opacity: 1; stroke-width: 3px;"/></g><g class="legendsymbols"><g class="legendpoints"/></g></g><rect class="legendtoggle" x="0" y="-17.1" width="78.609375" height="34.2" style="fill: rgb(0, 0, 0); fill-opacity: 0;"/></g><g class="traces" transform="translate(0,56.300000000000004)" style="opacity: 1;"><text class="legendtext" text-anchor="start" x="40" y="9.360000000000001" style="font-family: 'Open Sans', verdana, arial, sans-serif; font-size: 24px; fill: rgb(42, 63, 95); fill-opacity: 1; white-space: pre;">2m</text><g class="layers" style="opacity: 1;"><g class="legendfill"/><g class="legendlines"><path class="js-line" d="M5,0h30" style="fill: none; stroke: rgb(239, 85, 59); stroke-opacity: 1; stroke-width: 3px;"/></g><g class="legendsymbols"><g class="legendpoints"/></g></g><rect class="legendtoggle" x="0" y="-17.1" width="78.609375" height="34.2" style="fill: rgb(0, 0, 0); fill-opacity: 0;"/></g><g class="traces" transform="translate(0,90.5)" style="opacity: 1;"><text class="legendtext" text-anchor="start" x="40" y="9.360000000000001" style="font-family: 'Open Sans', verdana, arial, sans-serif; font-size: 24px; fill: rgb(42, 63, 95); fill-opacity: 1; white-space: pre;">3m</text><g class="layers" style="opacity: 1;"><g class="legendfill"/><g class="legendlines"><path class="js-line" d="M5,0h30" style="fill: none; stroke: rgb(0, 204, 150); stroke-opacity: 1; stroke-width: 3px;"/></g><g class="legendsymbols"><g class="legendpoints"/></g></g><rect class="legendtoggle" x="0" y="-17.1" width="78.609375" height="34.2" style="fill: rgb(0, 0, 0); fill-opacity: 0;"/></g><g class="traces" transform="translate(0,124.70000000000002)" style="opacity: 1;"><text class="legendtext" text-anchor="start" x="40" y="9.360000000000001" style="font-family: 'Open Sans', verdana, arial, sans-serif; font-size: 24px; fill: rgb(42, 63, 95); fill-opacity: 1; white-space: pre;">4m</text><g class="layers" style="opacity: 1;"><g class="legendfill"/><g class="legendlines"><path class="js-line" d="M5,0h30" style="fill: none; stroke: rgb(171, 99, 250); stroke-opacity: 1; stroke-width: 3px;"/></g><g class="legendsymbols"><g class="legendpoints"/></g></g><rect class="legendtoggle" x="0" y="-17.1" width="78.609375" height="34.2" style="fill: rgb(0, 0, 0); fill-opacity: 0;"/></g><g class="traces" transform="translate(0,158.9)" style="opacity: 1;"><text class="legendtext" text-anchor="start" x="40" y="9.360000000000001" style="font-family: 'Open Sans', verdana, arial, sans-serif; font-size: 24px; fill: rgb(42, 63, 95); fill-opacity: 1; white-space: pre;">5m</text><g class="layers" style="opacity: 1;"><g class="legendfill"/><g class="legendlines"><path class="js-line" d="M5,0h30" style="fill: none; stroke: rgb(255, 161, 90); stroke-opacity: 1; stroke-width: 3px;"/></g><g class="legendsymbols"><g class="legendpoints"/></g></g><rect class="legendtoggle" x="0" y="-17.1" width="78.609375" height="34.2" style="fill: rgb(0, 0, 0); fill-opacity: 0;"/></g></g></g><rect class="scrollbar" rx="20" ry="3" width="0" height="0" x="0" y="0" style="fill: rgb(128, 139, 164); fill-opacity: 1;"/></g><g class="g-gtitle"><text class="gtitle" x="800" y="50" text-anchor="middle" dy="0.7em" style="opacity: 1; font-family: 'Open Sans', verdana, arial, sans-serif; font-size: 20px; fill: rgb(42, 63, 95); fill-opacity: 1; font-weight: bold; white-space: pre;">Yielding, Back and no eHMI</text></g><g class="g-xtitle"><text class="xtitle" x="812" y="873.5" text-anchor="middle" style="opacity: 1; font-family: 'Open Sans', verdana, arial, sans-serif; font-size: 20px; fill: rgb(42, 63, 95); fill-opacity: 1; white-space: pre;">Time (in seconds)</text></g><g class="g-ytitle" transform="translate(0.296875,0)"><text class="ytitle" transform="rotate(-90,19.703125,460)" x="19.703125" y="460" text-anchor="middle" style="opacity: 1; font-family: 'Open Sans', verdana, arial, sans-serif; font-size: 20px; fill: rgb(42, 63, 95); fill-opacity: 1; white-space: pre;">Yaw Angle (in radians)</text></g></g></svg>