<svg class="main-svg" xmlns="http://www.w3.org/2000/svg" xmlns:xlink="http://www.w3.org/1999/xlink" width="4800" height="2700" style="" viewBox="0 0 1600 900"><rect x="0" y="0" width="1600" height="900" style="fill: rgb(255, 255, 255); fill-opacity: 1;"/><defs id="defs-0aa815"><g class="clips"><clipPath id="clip0aa815xyplot" class="plotclip"><rect width="1440" height="720"/></clipPath><clipPath class="axesclip" id="clip0aa815x"><rect x="80" y="0" width="1440" height="900"/></clipPath><clipPath class="axesclip" id="clip0aa815y"><rect x="0" y="100" width="1600" height="720"/></clipPath><clipPath class="axesclip" id="clip0aa815xy"><rect x="80" y="100" width="1440" height="720"/></clipPath></g><g class="gradients"/><g class="patterns"/></defs><g class="bglayer"><rect class="bg" x="80" y="100" width="1440" height="720" style="fill: rgb(229, 236, 246); fill-opacity: 1; stroke-width: 0;"/></g><g class="layer-below"><g class="imagelayer"/><g class="shapelayer"/></g><g class="cartesianlayer"><g class="subplot xy"><g class="layer-subplot"><g class="shapelayer"/><g class="imagelayer"/></g><g class="minor-gridlayer"><g class="x"/><g class="y"/></g><g class="gridlayer"><g class="x"><path class="xgrid crisp" transform="translate(221.4,0)" d="M0,100v720" style="stroke: rgb(255, 255, 255); stroke-opacity: 1; stroke-width: 1px;"/><path class="xgrid crisp" transform="translate(365.69,0)" d="M0,100v720" style="stroke: rgb(255, 255, 255); stroke-opacity: 1; stroke-width: 1px;"/><path class="xgrid crisp" transform="translate(509.98,0)" d="M0,100v720" style="stroke: rgb(255, 255, 255); stroke-opacity: 1; stroke-width: 1px;"/><path class="xgrid crisp" transform="translate(654.27,0)" d="M0,100v720" style="stroke: rgb(255, 255, 255); stroke-opacity: 1; stroke-width: 1px;"/><path class="xgrid crisp" transform="translate(798.56,0)" d="M0,100v720" style="stroke: rgb(255, 255, 255); stroke-opacity: 1; stroke-width: 1px;"/><path class="xgrid crisp" transform="translate(942.85,0)" d="M0,100v720" style="stroke: rgb(255, 255, 255); stroke-opacity: 1; stroke-width: 1px;"/><path class="xgrid crisp" transform="translate(1087.13,0)" d="M0,100v720" style="stroke: rgb(255, 255, 255); stroke-opacity: 1; stroke-width: 1px;"/><path class="xgrid crisp" transform="translate(1231.42,0)" d="M0,100v720" style="stroke: rgb(255, 255, 255); stroke-opacity: 1; stroke-width: 1px;"/><path class="xgrid crisp" transform="translate(1375.71,0)" d="M0,100v720" style="stroke: rgb(255, 255, 255); stroke-opacity: 1; stroke-width: 1px;"/></g><g class="y"><path class="ygrid crisp" transform="translate(0,642.62)" d="M80,0h1440" style="stroke: rgb(255, 255, 255); stroke-opacity: 1; stroke-width: 1px;"/><path class="ygrid crisp" transform="translate(0,501.24)" d="M80,0h1440" style="stroke: rgb(255, 255, 255); stroke-opacity: 1; stroke-width: 1px;"/><path class="ygrid crisp" transform="translate(0,359.85)" d="M80,0h1440" style="stroke: rgb(255, 255, 255); stroke-opacity: 1; stroke-width: 1px;"/><path class="ygrid crisp" transform="translate(0,218.47)" d="M80,0h1440" style="stroke: rgb(255, 255, 255); stroke-opacity: 1; stroke-width: 1px;"/></g></g><g class="zerolinelayer"><path class="yzl zl crisp" transform="translate(0,784)" d="M80,0h1440" style="stroke: rgb(255, 255, 255); stroke-opacity: 1; stroke-width: 2px;"/></g><g class="layer-between"><g class="shapelayer"/><g class="imagelayer"/></g><path class="xlines-below"/><path class="ylines-below"/><g class="overlines-below"/><g class="xaxislayer-below"/><g class="yaxislayer-below"/><g class="overaxes-below"/><g class="overplot"><g class="xy" transform="translate(80,100)" clip-path="url(#clip0aa815xyplot)"><g class="scatterlayer mlayer"><g class="trace scatter traceb74022" style="stroke-miterlimit: 2; opacity: 1;"><g class="fills"/><g class="errorbars"/><g class="lines"><path class="js-line" d="M0,684L450.18,683.51L453.07,683.12L458.84,680.74L461.72,677.68L464.61,676.48L467.5,672.98L470.38,671.75L473.27,671.56L476.15,669.39L479.04,668.29L481.92,664.26L484.81,663.14L487.7,660.56L490.58,660.31L499.24,657.7L502.12,656.53L510.78,655.97L513.67,655.86L519.44,654.49L522.33,654.03L530.98,653.21L533.87,653.37L542.53,653.19L545.41,653.21L574.27,653.16L577.16,653.54L585.81,653.37L588.7,653.37L594.47,653.61L597.36,654.24L603.13,654L606.01,654.44L634.87,655.45L637.76,656.17L649.3,657.83L652.19,659.03L660.84,660.56L663.73,661.9L672.39,663.03L675.27,663.32L686.82,664.26L689.7,664.5L701.24,666.44L704.13,667.65L709.9,668.47L712.79,668.64L727.22,668.88L730.1,668.88L744.53,669.67L747.42,669.8L758.96,671.31L761.85,671.99L767.62,672.85L770.5,673.92L784.93,675.54L787.81,676.01L805.13,678.06L808.02,678.74L822.44,682.01L825.33,682.18L836.87,683.8L839.76,683.86L857.08,684L859.96,684L897.48,684L900.36,677.43L903.25,625.09L906.13,625.09L917.68,625L920.56,621.48L923.45,572.33L926.33,566.18L937.88,566.18L940.76,564.87L943.65,554.71L946.53,531.78L949.42,490.63L952.3,479.77L955.19,466.02L958.08,460.46L960.96,456.69L963.85,455.11L966.73,450.7L969.62,448.36L1010.02,448.2L1012.91,446.85L1015.79,443.3L1018.68,334.92L1021.56,330.37L1024.45,329.33L1027.34,271.59L1030.22,271.64L1035.99,271.64L1038.88,212.73L1085.05,211.98L1087.94,211.82L1099.48,211.79L1102.37,211.82L1113.91,211.65L1116.79,172.12L1119.68,152.27L1122.57,146.8L1125.45,141.6L1128.34,115.89L1131.22,108.33L1134.11,107.56L1136.99,106.69L1139.88,104.85L1145.65,101.3L1148.54,98.04L1154.31,96.07L1157.2,96.07L1162.97,94.91L1165.85,36L1171.62,36L1174.51,81.08L1177.4,94.91L1180.28,94.91L1183.17,94.44L1186.05,90.15L1188.94,85.56L1191.83,62.74L1194.71,54.73L1197.6,40.38L1200.48,36L1203.37,36L1209.14,36L1212.02,38.02L1214.91,41.65L1217.8,41.5L1223.57,39.79L1226.45,39.76L1229.34,78.1L1232.23,90.7L1238,113.24L1240.88,132.39L1243.77,144.15L1246.66,147.92L1252.43,146.96L1255.31,145.69L1261.08,145.4L1263.97,146.38L1272.63,150.32L1275.51,151.13L1281.28,150.91L1284.17,151.41L1287.05,152.66L1289.94,160.42L1292.82,220.71L1295.71,254.62L1298.6,271.64L1301.48,271.64L1382.28,271.64L1385.17,275.58L1388.06,334.49L1390.94,341.39L1393.83,344.14L1396.71,350.89L1402.49,365.79L1405.37,376.36L1408.26,379.59L1411.14,384.6L1414.03,385.77L1416.91,387.91L1425.57,389.45L1428.46,389.45L1440,389.45" style="vector-effect: none; fill: none; stroke: rgb(99, 110, 250); stroke-opacity: 1; stroke-width: 3px; opacity: 1;"/></g><g class="points"/><g class="text"/></g><g class="trace scatter trace1c438e" style="stroke-miterlimit: 2; opacity: 1;"><g class="fills"/><g class="errorbars"/><g class="lines"><path class="js-line" d="M0,684L773.39,684L776.27,674.15L779.16,640.96L782.04,625.64L787.82,625.09L790.7,625.09L854.19,625.09L857.08,621.51L859.96,603.59L862.85,566.18L932.11,566.18L934.99,507.27L949.42,507.27L952.3,506.2L955.19,500.99L958.07,451.43L960.96,448.36L963.85,448.36L992.71,448.28L995.59,442.91L1004.25,360.82L1007.13,340.19L1010.02,280.74L1012.91,279.24L1021.56,275.3L1024.45,274.45L1030.22,273.44L1033.11,274.51L1035.99,287.53L1038.88,307.74L1041.76,334.49L1044.65,334.96L1047.53,335.52L1050.42,335.21L1064.85,336.66L1067.73,336.81L1070.62,337.58L1073.51,324.05L1076.39,279.42L1079.28,279.12L1093.71,280.33L1096.59,280.27L1099.48,227.64L1102.36,220.85L1105.25,162.87L1108.14,162.84L1122.57,163.37L1125.45,162.9L1131.22,162.69L1134.11,163.01L1142.77,163.1L1145.65,161.97L1151.42,162.33L1154.31,161.79L1174.51,159.47L1177.39,158.48L1180.28,151.5L1183.17,95.78L1197.6,94.91L1200.48,112.8L1203.37,153.82L1206.25,153.82L1261.08,153.82L1263.97,163.19L1266.85,212.73L1269.74,212.73L1315.91,212.73L1318.8,241.34L1321.68,269.53L1324.57,271.64L1327.45,285.71L1330.34,316.82L1333.23,330.55L1336.11,330.55L1347.66,330.55L1350.54,346.58L1353.43,387.25L1356.31,389.45L1434.23,389.45L1437.12,448.36L1440,448.36" style="vector-effect: none; fill: none; stroke: rgb(239, 85, 59); stroke-opacity: 1; stroke-width: 3px; opacity: 1;"/></g><g class="points"/><g class="text"/></g><g class="trace scatter trace1d2d3e" style="stroke-miterlimit: 2; opacity: 1;"><g class="fills"/><g class="errorbars"/><g class="lines"><path class="js-line" d="M0,684L259.72,683.8L262.61,682.99L265.49,682.54L268.38,680.67L271.26,679.58L274.15,675.98L277.03,672.96L279.92,667.65L282.81,665.29L285.69,656.55L291.46,650.54L294.35,643.07L297.24,638.94L300.12,636.61L303.01,635.97L305.89,634.35L311.66,633.54L314.55,632.7L320.32,631.51L323.21,630.77L328.98,629.94L331.86,629.1L340.52,628.94L343.41,629.26L352.07,627.87L354.95,627.94L360.72,628.09L363.61,628.06L369.38,627.4L372.27,627.14L378.04,627.11L380.92,627.21L398.24,627.27L401.12,626.86L409.78,627.08L412.66,626.79L418.44,627.27L421.32,627.08L455.95,628.66L458.84,628.82L470.38,629.44L473.27,629.57L484.81,631.51L487.7,631.94L496.35,632.36L499.24,632.3L507.9,632.09L510.78,632.42L528.1,632L530.98,632.18L548.3,632.03L551.18,632.12L565.61,633.57L568.5,634.35L591.58,638.08L594.47,639.53L600.24,641.26L603.13,643.82L606.01,645.36L608.9,649.7L614.67,654.83L617.56,657.02L623.33,657.02L626.21,661.96L631.98,662.91L634.87,664.9L637.75,665.89L640.64,666.02L655.07,666.83L657.96,667.04L669.5,667.37L672.38,667.58L683.93,668.62L686.81,668.84L701.24,670.01L704.13,670.34L709.9,671.53L712.79,672.75L727.21,674.78L730.1,675.62L750.3,680.56L753.19,680.78L761.85,682.68L764.73,683.83L779.16,684L782.04,684L891.7,683.37L894.59,682.03L897.48,679.02L900.36,677.45L903.25,671.49L906.13,668.99L911.91,656.95L914.79,649.58L920.56,617.48L923.45,573.76L926.33,573.09L929.22,571.56L934.99,570.53L937.88,569.88L940.76,569.88L943.65,568.08L949.42,568.14L952.3,564.3L955.19,520.74L958.08,508.08L966.74,507.5L969.62,507.27L1004.25,507.27L1007.13,504.57L1010.02,448.36L1012.91,448.36L1033.11,448.06L1035.99,447.16L1038.88,447.16L1041.76,442.12L1044.65,382.28L1047.54,374.22L1050.42,247.44L1053.31,208.97L1056.19,205.2L1059.08,191.84L1061.96,191.84L1064.85,184.27L1067.74,177.56L1070.62,177.56L1073.51,177.56L1076.39,169.32L1079.28,169.32L1082.16,153.82L1134.11,153.82L1136.99,150.61L1139.88,94.91L1142.76,94.91L1151.42,94.91L1154.31,36L1174.51,36L1177.39,67.35L1180.28,92.8L1183.17,94.91L1197.59,95.46L1200.48,138.27L1203.37,153.82L1206.25,153.82L1324.57,153.82L1327.46,155.39L1330.34,155.39L1333.23,212.73L1336.11,212.73L1339,216.23L1341.88,218.78L1344.77,218.81L1350.54,221.54L1353.43,247.09L1356.31,259.69L1359.2,259.69L1362.09,259.69L1364.97,271.64L1399.6,271.64L1402.49,296.55L1405.37,330.55L1408.26,330.55L1440,330.55" style="vector-effect: none; fill: none; stroke: rgb(0, 204, 150); stroke-opacity: 1; stroke-width: 3px; opacity: 1;"/></g><g class="points"/><g class="text"/></g><g class="trace scatter trace51f537" style="stroke-miterlimit: 2; opacity: 1;"><g class="fills"/><g class="errorbars"/><g class="lines"><path class="js-line" d="M0,684L291.46,683.85L294.35,683.02L297.23,683.02L300.12,680.77L303.01,679.23L305.89,676.33L308.78,675.24L311.66,671.9L314.55,670.97L317.44,667.74L323.21,663.82L326.09,662.08L328.98,661.92L331.86,660.52L334.75,660.37L337.64,658.52L340.52,657.08L343.41,654.58L346.29,651.78L349.18,651.47L360.72,648.45L363.61,646.35L369.38,645.65L372.26,645.96L380.92,645.12L383.81,644.49L395.35,643.95L398.24,643.63L409.78,643.28L412.67,643.61L418.44,642.9L421.32,642.31L427.09,642.28L429.98,641.87L432.87,642.25L435.75,641.7L444.41,640.73L447.3,641.01L467.5,641.12L470.38,641.7L496.35,641.78L499.24,641.4L505.01,642.06L507.9,641.95L513.67,642.25L516.55,642.28L525.21,642.36L528.1,642.58L539.64,643.52L542.53,642.82L548.3,643.07L551.18,643.44L562.73,644.11L565.61,645.12L574.27,648.83L577.15,651.2L580.04,657.5L582.92,659.94L585.81,661.9L588.7,666.58L597.36,674.9L600.24,675.85L603.13,678.13L606.01,678.53L611.78,681.52L614.67,682.88L617.56,684L620.44,684L848.42,683.54L851.3,678.34L854.19,671.03L857.07,624.65L906.13,624.61L909.02,624.6L917.68,623.95L920.56,565.56L937.88,565.22L940.76,565.06L949.42,564.57L952.3,564.23L963.85,562.68L966.73,562.06L969.62,561.81L972.51,558.27L975.39,499.77L978.28,495.27L981.16,485.55L984.05,480.16L986.93,461.21L989.82,458.74L992.71,451.43L995.59,448.36L1015.79,447.91L1018.68,416.55L1021.56,332.38L1024.45,326.56L1030.22,317.14L1033.11,308.12L1035.99,304.48L1038.88,291.67L1044.65,283.07L1047.54,280.27L1053.31,276.76L1056.19,286.18L1059.08,319.7L1061.96,330.55L1079.28,330.55L1082.16,327.13L1085.05,270.35L1087.93,252.35L1090.82,215.89L1093.71,212.73L1099.48,212.57L1102.37,162.3L1105.25,153.82L1108.14,153.82L1197.59,153.82L1200.48,151.49L1203.37,94.91L1206.25,94.91L1217.79,94.91L1220.68,108.33L1223.57,153.82L1226.45,153.82L1278.4,153.82L1281.28,157.95L1287.05,161.03L1289.94,165.89L1292.83,170.87L1295.71,187.09L1298.6,193.89L1301.48,210.14L1304.37,211.98L1307.25,212.73L1370.74,212.73L1373.63,222.46L1376.51,239.99L1379.4,324.06L1382.28,330.55L1385.17,330.55L1388.06,389.45L1390.94,421.05L1393.83,443.98L1396.71,448.36L1440,448.36" style="vector-effect: none; fill: none; stroke: rgb(171, 99, 250); stroke-opacity: 1; stroke-width: 3px; opacity: 1;"/></g><g class="points"/><g class="text"/></g><g class="trace scatter trace389f6b" style="stroke-miterlimit: 2; opacity: 1;"><g class="fills"/><g class="errorbars"/><g class="lines"><path class="js-line" d="M0,684L585.81,684L588.7,682.63L591.58,677.3L594.47,668.39L597.36,653.26L600.24,648.48L603.13,640.96L606.01,640.85L617.55,641.34L620.44,639.53L623.33,637.34L626.21,637.08L631.99,637.71L634.87,637.77L646.41,637.71L649.3,637.97L655.07,637.77L657.96,637.8L663.73,639.14L666.61,638.94L672.39,638.68L675.27,637.97L695.47,638.03L698.36,638.03L712.79,638.43L715.67,638.14L721.44,638.08L724.33,637.94L732.99,637.57L735.87,637.34L764.73,636.96L767.62,637.31L773.39,637.1L776.27,637.57L779.16,637.85L782.04,638.91L790.7,639.84L793.59,641.21L796.47,642.33L799.36,642.5L805.13,643.74L808.02,646.79L810.9,648.48L813.79,655.63L816.67,659.39L819.56,674.33L822.45,680.79L825.33,682.77L828.22,684L831.1,684L862.85,684L865.73,666.83L868.62,625.09L871.5,625.09L894.59,625.09L897.47,624.21L903.25,570.16L906.13,566.18L934.99,566.18L937.88,507.27L975.39,507.05L978.28,500.11L981.16,494.66L984.05,478.06L986.93,476.39L989.82,480.07L992.71,490.45L995.59,493.2L998.48,497.78L1001.36,498.21L1021.56,495.95L1024.45,495.46L1027.33,495.06L1030.22,434.71L1041.76,433.41L1044.65,382.78L1047.54,375.01L1050.42,374.8L1053.31,315.62L1056.19,315.29L1076.39,314.35L1079.28,314.42L1082.16,313.9L1085.05,314.28L1108.14,315.05L1111.02,314.75L1119.68,314.27L1122.56,261.7L1125.45,255.85L1128.34,255.62L1160.08,256.02L1162.97,255.74L1174.51,255.25L1177.4,254.61L1180.28,253.67L1183.17,219.54L1186.05,214.81L1188.94,212.73L1240.88,212.86L1243.77,229.23L1246.65,271.64L1249.54,271.64L1258.2,275.55L1261.08,280.98L1263.97,291.64L1266.85,307.96L1269.74,323.15L1272.63,330.55L1330.34,330.55L1333.23,331.45L1336.11,389.45L1339,389.45L1396.71,389.45L1399.6,436.57L1402.48,448.36L1405.37,448.36L1434.23,448.36L1437.11,505.85L1440,505.85" style="vector-effect: none; fill: none; stroke: rgb(255, 161, 90); stroke-opacity: 1; stroke-width: 3px; opacity: 1;"/></g><g class="points"/><g class="text"/></g></g></g></g><path class="xlines-above crisp" d="M0,0" style="fill: none;"/><path class="ylines-above crisp" d="M0,0" style="fill: none;"/><g class="overlines-above"/><g class="xaxislayer-above"><g class="xtick"><text text-anchor="middle" x="0" y="841" transform="translate(221.4,0)" style="font-family: 'Open Sans', verdana, arial, sans-serif; font-size: 20px; fill: rgb(42, 63, 95); fill-opacity: 1; white-space: pre; opacity: 1;">1</text></g><g class="xtick"><text text-anchor="middle" x="0" y="841" style="font-family: 'Open Sans', verdana, arial, sans-serif; font-size: 20px; fill: rgb(42, 63, 95); fill-opacity: 1; white-space: pre; opacity: 1;" transform="translate(365.69,0)">2</text></g><g class="xtick"><text text-anchor="middle" x="0" y="841" style="font-family: 'Open Sans', verdana, arial, sans-serif; font-size: 20px; fill: rgb(42, 63, 95); fill-opacity: 1; white-space: pre; opacity: 1;" transform="translate(509.98,0)">3</text></g><g class="xtick"><text text-anchor="middle" x="0" y="841" style="font-family: 'Open Sans', verdana, arial, sans-serif; font-size: 20px; fill: rgb(42, 63, 95); fill-opacity: 1; white-space: pre; opacity: 1;" transform="translate(654.27,0)">4</text></g><g class="xtick"><text text-anchor="middle" x="0" y="841" style="font-family: 'Open Sans', verdana, arial, sans-serif; font-size: 20px; fill: rgb(42, 63, 95); fill-opacity: 1; white-space: pre; opacity: 1;" transform="translate(798.56,0)">5</text></g><g class="xtick"><text text-anchor="middle" x="0" y="841" style="font-family: 'Open Sans', verdana, arial, sans-serif; font-size: 20px; fill: rgb(42, 63, 95); fill-opacity: 1; white-space: pre; opacity: 1;" transform="translate(942.85,0)">6</text></g><g class="xtick"><text text-anchor="middle" x="0" y="841" style="font-family: 'Open Sans', verdana, arial, sans-serif; font-size: 20px; fill: rgb(42, 63, 95); fill-opacity: 1; white-space: pre; opacity: 1;" transform="translate(1087.13,0)">7</text></g><g class="xtick"><text text-anchor="middle" x="0" y="841" style="font-family: 'Open Sans', verdana, arial, sans-serif; font-size: 20px; fill: rgb(42, 63, 95); fill-opacity: 1; white-space: pre; opacity: 1;" transform="translate(1231.42,0)">8</text></g><g class="xtick"><text text-anchor="middle" x="0" y="841" style="font-family: 'Open Sans', verdana, arial, sans-serif; font-size: 20px; fill: rgb(42, 63, 95); fill-opacity: 1; white-space: pre; opacity: 1;" transform="translate(1375.71,0)">9</text></g><g class="xtick"><text text-anchor="middle" x="0" y="841" style="font-family: 'Open Sans', verdana, arial, sans-serif; font-size: 20px; fill: rgb(42, 63, 95); fill-opacity: 1; white-space: pre; opacity: 1;" transform="translate(1520,0)">10</text></g></g><g class="yaxislayer-above"><g class="ytick"><text text-anchor="end" x="79" y="7" transform="translate(0,784)" style="font-family: 'Open Sans', verdana, arial, sans-serif; font-size: 20px; fill: rgb(42, 63, 95); fill-opacity: 1; white-space: pre; opacity: 1;">0</text></g><g class="ytick"><text text-anchor="end" x="79" y="7" style="font-family: 'Open Sans', verdana, arial, sans-serif; font-size: 20px; fill: rgb(42, 63, 95); fill-opacity: 1; white-space: pre; opacity: 1;" transform="translate(0,642.62)">0.2</text></g><g class="ytick"><text text-anchor="end" x="79" y="7" style="font-family: 'Open Sans', verdana, arial, sans-serif; font-size: 20px; fill: rgb(42, 63, 95); fill-opacity: 1; white-space: pre; opacity: 1;" transform="translate(0,501.24)">0.4</text></g><g class="ytick"><text text-anchor="end" x="79" y="7" style="font-family: 'Open Sans', verdana, arial, sans-serif; font-size: 20px; fill: rgb(42, 63, 95); fill-opacity: 1; white-space: pre; opacity: 1;" transform="translate(0,359.85)">0.6</text></g><g class="ytick"><text text-anchor="end" x="79" y="7" style="font-family: 'Open Sans', verdana, arial, sans-serif; font-size: 20px; fill: rgb(42, 63, 95); fill-opacity: 1; white-space: pre; opacity: 1;" transform="translate(0,218.47)">0.8</text></g></g><g class="overaxes-above"/></g></g><g class="polarlayer"/><g class="smithlayer"/><g class="ternarylayer"/><g class="geolayer"/><g class="funnelarealayer"/><g class="pielayer"/><g class="iciclelayer"/><g class="treemaplayer"/><g class="sunburstlayer"/><g class="glimages"/><defs id="topdefs-0aa815"><g class="clips"/><clipPath id="legend0aa815"><rect width="84" height="181" x="0" y="0"/></clipPath></defs><g class="layer-above"><g class="imagelayer"/><g class="shapelayer"/></g><g class="infolayer"><g class="legend" pointer-events="all" transform="translate(242.72,110.08000000000001)"><rect class="bg" shape-rendering="crispEdges" width="84" height="181" x="0" y="0" style="stroke: rgb(68, 68, 68); stroke-opacity: 1; fill: rgb(255, 255, 255); fill-opacity: 1; stroke-width: 0px;"/><g class="scrollbox" transform="" clip-path="url(#legend0aa815)"><g class="groups"><g class="traces" transform="translate(0,22.1)" style="opacity: 1;"><text class="legendtext" text-anchor="start" x="40" y="9.360000000000001" style="font-family: 'Open Sans', verdana, arial, sans-serif; font-size: 24px; fill: rgb(42, 63, 95); fill-opacity: 1; white-space: pre;">1m</text><g class="layers" style="opacity: 1;"><g class="legendfill"/><g class="legendlines"><path class="js-line" d="M5,0h30" style="fill: none; stroke: rgb(99, 110, 250); stroke-opacity: 1; stroke-width: 3px;"/></g><g class="legendsymbols"><g class="legendpoints"/></g></g><rect class="legendtoggle" x="0" y="-17.1" width="78.609375" height="34.2" style="fill: rgb(0, 0, 0); fill-opacity: 0;"/></g><g class="traces" transform="translate(0,56.300000000000004)" style="opacity: 1;"><text class="legendtext" text-anchor="start" x="40" y="9.360000000000001" style="font-family: 'Open Sans', verdana, arial, sans-serif; font-size: 24px; fill: rgb(42, 63, 95); fill-opacity: 1; white-space: pre;">2m</text><g class="layers" style="opacity: 1;"><g class="legendfill"/><g class="legendlines"><path class="js-line" d="M5,0h30" style="fill: none; stroke: rgb(239, 85, 59); stroke-opacity: 1; stroke-width: 3px;"/></g><g class="legendsymbols"><g class="legendpoints"/></g></g><rect class="legendtoggle" x="0" y="-17.1" width="78.609375" height="34.2" style="fill: rgb(0, 0, 0); fill-opacity: 0;"/></g><g class="traces" transform="translate(0,90.5)" style="opacity: 1;"><text class="legendtext" text-anchor="start" x="40" y="9.360000000000001" style="font-family: 'Open Sans', verdana, arial, sans-serif; font-size: 24px; fill: rgb(42, 63, 95); fill-opacity: 1; white-space: pre;">3m</text><g class="layers" style="opacity: 1;"><g class="legendfill"/><g class="legendlines"><path class="js-line" d="M5,0h30" style="fill: none; stroke: rgb(0, 204, 150); stroke-opacity: 1; stroke-width: 3px;"/></g><g class="legendsymbols"><g class="legendpoints"/></g></g><rect class="legendtoggle" x="0" y="-17.1" width="78.609375" height="34.2" style="fill: rgb(0, 0, 0); fill-opacity: 0;"/></g><g class="traces" transform="translate(0,124.70000000000002)" style="opacity: 1;"><text class="legendtext" text-anchor="start" x="40" y="9.360000000000001" style="font-family: 'Open Sans', verdana, arial, sans-serif; font-size: 24px; fill: rgb(42, 63, 95); fill-opacity: 1; white-space: pre;">4m</text><g class="layers" style="opacity: 1;"><g class="legendfill"/><g class="legendlines"><path class="js-line" d="M5,0h30" style="fill: none; stroke: rgb(171, 99, 250); stroke-opacity: 1; stroke-width: 3px;"/></g><g class="legendsymbols"><g class="legendpoints"/></g></g><rect class="legendtoggle" x="0" y="-17.1" width="78.609375" height="34.2" style="fill: rgb(0, 0, 0); fill-opacity: 0;"/></g><g class="traces" transform="translate(0,158.9)" style="opacity: 1;"><text class="legendtext" text-anchor="start" x="40" y="9.360000000000001" style="font-family: 'Open Sans', verdana, arial, sans-serif; font-size: 24px; fill: rgb(42, 63, 95); fill-opacity: 1; white-space: pre;">5m</text><g class="layers" style="opacity: 1;"><g class="legendfill"/><g class="legendlines"><path class="js-line" d="M5,0h30" style="fill: none; stroke: rgb(255, 161, 90); stroke-opacity: 1; stroke-width: 3px;"/></g><g class="legendsymbols"><g class="legendpoints"/></g></g><rect class="legendtoggle" x="0" y="-17.1" width="78.609375" height="34.2" style="fill: rgb(0, 0, 0); fill-opacity: 0;"/></g></g></g><rect class="scrollbar" rx="20" ry="3" width="0" height="0" x="0" y="0" style="fill: rgb(128, 139, 164); fill-opacity: 1;"/></g><g class="g-gtitle"><text class="gtitle" x="800" y="50" text-anchor="middle" dy="0.7em" style="opacity: 1; font-family: 'Open Sans', verdana, arial, sans-serif; font-size: 20px; fill: rgb(42, 63, 95); fill-opacity: 1; font-weight: bold; white-space: pre;">No Yielding, Back and eHMI</text></g><g class="g-xtitle"><text class="xtitle" x="800" y="873.5" text-anchor="middle" style="opacity: 1; font-family: 'Open Sans', verdana, arial, sans-serif; font-size: 20px; fill: rgb(42, 63, 95); fill-opacity: 1; white-space: pre;">Time (in seconds)</text></g><g class="g-ytitle"><text class="ytitle" transform="rotate(-90,24.78125,460)" x="24.78125" y="460" text-anchor="middle" style="opacity: 1; font-family: 'Open Sans', verdana, arial, sans-serif; font-size: 20px; fill: rgb(42, 63, 95); fill-opacity: 1; white-space: pre;">Trigger press</text></g></g></svg>