<svg class="main-svg" xmlns="http://www.w3.org/2000/svg" xmlns:xlink="http://www.w3.org/1999/xlink" width="4800" height="2700" style="" viewBox="0 0 1600 900"><rect x="0" y="0" width="1600" height="900" style="fill: rgb(255, 255, 255); fill-opacity: 1;"/><defs id="defs-1b1401"><g class="clips"><clipPath id="clip1b1401xyplot" class="plotclip"><rect width="1433" height="720"/></clipPath><clipPath class="axesclip" id="clip1b1401x"><rect x="87" y="0" width="1433" height="900"/></clipPath><clipPath class="axesclip" id="clip1b1401y"><rect x="0" y="100" width="1600" height="720"/></clipPath><clipPath class="axesclip" id="clip1b1401xy"><rect x="87" y="100" width="1433" height="720"/></clipPath></g><g class="gradients"/><g class="patterns"/></defs><g class="bglayer"><rect class="bg" x="87" y="100" width="1433" height="720" style="fill: rgb(229, 236, 246); fill-opacity: 1; stroke-width: 0;"/></g><g class="layer-below"><g class="imagelayer"/><g class="shapelayer"/></g><g class="cartesianlayer"><g class="subplot xy"><g class="layer-subplot"><g class="shapelayer"/><g class="imagelayer"/></g><g class="minor-gridlayer"><g class="x"/><g class="y"/></g><g class="gridlayer"><g class="x"><path class="xgrid crisp" transform="translate(244.81,0)" d="M0,100v720" style="stroke: rgb(255, 255, 255); stroke-opacity: 1; stroke-width: 1px;"/><path class="xgrid crisp" transform="translate(404.21,0)" d="M0,100v720" style="stroke: rgb(255, 255, 255); stroke-opacity: 1; stroke-width: 1px;"/><path class="xgrid crisp" transform="translate(563.6,0)" d="M0,100v720" style="stroke: rgb(255, 255, 255); stroke-opacity: 1; stroke-width: 1px;"/><path class="xgrid crisp" transform="translate(723,0)" d="M0,100v720" style="stroke: rgb(255, 255, 255); stroke-opacity: 1; stroke-width: 1px;"/><path class="xgrid crisp" transform="translate(882.4,0)" d="M0,100v720" style="stroke: rgb(255, 255, 255); stroke-opacity: 1; stroke-width: 1px;"/><path class="xgrid crisp" transform="translate(1041.8,0)" d="M0,100v720" style="stroke: rgb(255, 255, 255); stroke-opacity: 1; stroke-width: 1px;"/><path class="xgrid crisp" transform="translate(1201.2,0)" d="M0,100v720" style="stroke: rgb(255, 255, 255); stroke-opacity: 1; stroke-width: 1px;"/><path class="xgrid crisp" transform="translate(1360.6,0)" d="M0,100v720" style="stroke: rgb(255, 255, 255); stroke-opacity: 1; stroke-width: 1px;"/></g><g class="y"><path class="ygrid crisp" transform="translate(0,704.62)" d="M87,0h1433" style="stroke: rgb(255, 255, 255); stroke-opacity: 1; stroke-width: 1px;"/><path class="ygrid crisp" transform="translate(0,625.23)" d="M87,0h1433" style="stroke: rgb(255, 255, 255); stroke-opacity: 1; stroke-width: 1px;"/><path class="ygrid crisp" transform="translate(0,545.85)" d="M87,0h1433" style="stroke: rgb(255, 255, 255); stroke-opacity: 1; stroke-width: 1px;"/><path class="ygrid crisp" transform="translate(0,466.47)" d="M87,0h1433" style="stroke: rgb(255, 255, 255); stroke-opacity: 1; stroke-width: 1px;"/><path class="ygrid crisp" transform="translate(0,387.09)" d="M87,0h1433" style="stroke: rgb(255, 255, 255); stroke-opacity: 1; stroke-width: 1px;"/><path class="ygrid crisp" transform="translate(0,307.7)" d="M87,0h1433" style="stroke: rgb(255, 255, 255); stroke-opacity: 1; stroke-width: 1px;"/><path class="ygrid crisp" transform="translate(0,228.32)" d="M87,0h1433" style="stroke: rgb(255, 255, 255); stroke-opacity: 1; stroke-width: 1px;"/><path class="ygrid crisp" transform="translate(0,148.94)" d="M87,0h1433" style="stroke: rgb(255, 255, 255); stroke-opacity: 1; stroke-width: 1px;"/></g></g><g class="zerolinelayer"><path class="yzl zl crisp" transform="translate(0,784)" d="M87,0h1433" style="stroke: rgb(255, 255, 255); stroke-opacity: 1; stroke-width: 2px;"/></g><g class="layer-between"><g class="shapelayer"/><g class="imagelayer"/></g><path class="xlines-below"/><path class="ylines-below"/><g class="overlines-below"/><g class="xaxislayer-below"/><g class="yaxislayer-below"/><g class="overaxes-below"/><g class="overplot"><g class="xy" transform="translate(87,100)" clip-path="url(#clip1b1401xyplot)"><g class="scatterlayer mlayer"><g class="trace scatter traceb1b6bc" style="stroke-miterlimit: 2; opacity: 1;"><g class="fills"/><g class="errorbars"/><g class="lines"><path class="js-line" d="M0,684L355.46,684L357.06,681.65L358.65,676.84L360.24,678.45L365.03,684L366.62,684L444.72,684L446.32,551.7L457.48,551.7L459.07,664.12L460.66,684L462.26,684L492.55,684L494.14,657.6L495.73,585.39L497.33,551.7L519.64,551.7L521.24,523.27L524.42,447.54L526.02,442.5L527.61,442.5L529.21,443.3L532.39,450.17L533.99,456.7L535.58,478.36L537.18,484.12L538.77,479.55L540.36,477.59L541.96,469.06L543.55,464.74L545.15,460.19L546.74,459.33L548.33,461.82L549.93,468.13L551.52,470.95L553.12,486.35L554.71,490.94L556.3,500.52L557.9,503.71L559.49,510.25L564.27,525.5L565.87,527.64L567.46,531.05L569.06,531.2L570.65,530.85L572.24,527.61L573.84,522.82L575.43,467.43L578.62,422.71L580.21,419.39L687.01,419.39L688.61,425.85L690.2,425.85L691.79,428.25L696.58,426.42L698.17,426.7L699.76,425.78L701.36,426.63L702.95,427.27L704.55,429.72L706.14,436.13L707.73,436.13L709.33,442.31L710.92,472.31L712.51,521.48L714.11,532.05L715.7,542.63L717.3,546.43L718.89,547.46L720.49,547.43L736.43,547.85L738.02,548.01L742.8,550.6L744.4,551.69L771.49,551.7L773.09,550.28L774.68,540.9L776.28,449.79L777.87,440.11L779.46,419.39L851.19,419.39L852.79,436.27L854.38,517.12L855.98,551.7L857.57,567.55L859.16,646.58L860.76,684L862.35,684L1130.14,684L1131.74,646.93L1133.33,551.7L1134.92,551.7L1147.68,551.7L1149.27,545.77L1150.86,419.39L1152.46,419.39L1187.52,419.39L1189.12,418.35L1190.71,287.09L1192.31,287.09L1295.92,287.09L1297.51,316.33L1300.7,416.61L1302.29,419.39L1370.83,419.39L1372.43,452.58L1374.02,517.95L1375.62,546.48L1377.21,551.7L1378.8,551.7L1433,551.7" style="vector-effect: none; fill: none; stroke: rgb(99, 110, 250); stroke-opacity: 1; stroke-width: 3px; opacity: 1;"/></g><g class="points"/><g class="text"/></g><g class="trace scatter traceeecf9d" style="stroke-miterlimit: 2; opacity: 1;"><g class="fills"/><g class="errorbars"/><g class="lines"><path class="js-line" d="M0,684L277.36,683.42L278.95,680.84L280.54,679.99L282.14,680.05L286.92,683.16L288.51,683.69L312.42,683.94L314.02,684L406.47,684L408.06,659.05L409.66,555.95L411.25,551.7L516.45,551.7L518.05,545.84L519.64,545.84L521.24,428.32L522.83,419.39L524.43,419.39L569.06,419.39L570.65,439.84L573.84,534.58L575.43,551.7L592.97,551.7L594.56,549.07L597.75,508.16L599.34,443.3L600.94,443.3L602.53,440.18L605.72,442.7L607.31,446.37L608.91,446.37L610.5,454.77L612.09,469.81L613.69,494.8L615.28,516.69L616.88,497.14L618.47,419.39L620.06,419.39L677.45,419.39L679.04,468.83L680.64,546.74L682.23,551.7L720.49,551.7L722.08,618.39L723.67,669.51L725.27,684L1103.04,684L1104.64,678.84L1106.23,551.7L1107.83,551.7L1154.05,551.7L1155.65,419.39L1182.74,419.39L1184.34,418.31L1185.93,416.9L1187.53,411.05L1190.71,402.19L1192.31,389.78L1193.9,384.48L1195.5,368.58L1197.09,364.73L1198.68,357.94L1200.28,354.45L1201.87,344.47L1203.47,341.97L1205.06,341.08L1208.25,341.58L1209.84,341.64L1216.22,343.81L1217.81,346.11L1219.41,346.54L1221,346.11L1222.59,345.29L1224.19,345.45L1227.38,346.11L1228.97,346.32L1230.56,345.78L1232.16,346.81L1233.75,347.78L1235.35,352.91L1236.94,364.97L1238.53,384.59L1240.13,404.85L1241.72,412.11L1243.32,419.39L1244.91,419.39L1302.29,419.39L1303.89,450.04L1305.48,551.7L1307.08,551.7L1308.67,551.7L1310.26,557.09L1313.45,664.56L1315.04,683.88L1326.2,684L1327.8,684L1433,684" style="vector-effect: none; fill: none; stroke: rgb(239, 85, 59); stroke-opacity: 1; stroke-width: 3px; opacity: 1;"/></g><g class="points"/><g class="text"/></g><g class="trace scatter trace06ea0c" style="stroke-miterlimit: 2; opacity: 1;"><g class="fills"/><g class="errorbars"/><g class="lines"><path class="js-line" d="M0,684L1130.14,684L1131.74,551.7L1138.11,551.7L1139.71,543.24L1141.3,524.53L1142.89,458.79L1144.49,419.39L1146.08,419.39L1149.27,419.21L1150.86,411.48L1154.05,319.77L1155.65,287.09L1222.59,287.09L1224.19,283.09L1225.78,276.62L1227.37,255.77L1228.97,252.93L1230.56,252.89L1232.16,159.11L1233.75,154.78L1244.91,154.78L1246.5,206L1248.1,261.58L1249.69,287.09L1265.63,287.09L1267.22,288.39L1272.01,302.12L1273.6,306.53L1275.19,307.6L1276.79,314.59L1278.38,318.31L1279.98,332.08L1281.57,338.53L1283.16,356.54L1284.76,363.17L1286.35,481.16L1287.95,519.03L1289.54,524.02L1291.13,538.2L1292.73,542.79L1294.32,549.98L1295.92,551.7L1329.39,551.7L1330.98,542.73L1334.17,419.39L1335.77,419.39L1362.86,419.39L1364.46,455.15L1367.65,551.7L1369.24,551.7L1433,551.7" style="vector-effect: none; fill: none; stroke: rgb(0, 204, 150); stroke-opacity: 1; stroke-width: 3px; opacity: 1;"/></g><g class="points"/><g class="text"/></g><g class="trace scatter trace5b92df" style="stroke-miterlimit: 2; opacity: 1;"><g class="fills"/><g class="errorbars"/><g class="lines"><path class="js-line" d="M0,684L242.29,683.29L243.88,679.38L245.48,677.26L247.07,669.88L248.66,666.17L250.26,657.8L251.85,641.77L253.44,635.39L255.04,616.63L256.63,612.12L258.23,601.77L259.82,597.93L261.42,580.16L263.01,576.52L266.2,575.07L267.79,575.93L270.98,575.14L272.57,575.8L275.76,575.34L277.36,456.71L278.95,442.31L280.54,443.03L283.73,443.03L285.33,443.03L288.51,443.49L290.11,443.23L296.48,443.16L298.08,442.77L301.27,444.02L302.86,442.83L306.05,443.89L307.64,443.03L309.23,443.82L310.83,443.63L312.42,444.35L314.02,444.02L317.21,443.63L318.8,443.63L323.58,444.61L325.17,444.61L326.77,446.05L328.36,445.33L331.55,445.13L333.14,445.98L334.74,445.72L336.33,446.63L337.93,445.92L339.52,447.08L345.9,448.89L347.49,453.96L349.08,460.97L350.68,471.52L352.27,490.84L353.87,498.49L355.46,524.36L357.06,531.29L358.65,537.18L360.24,539.7L365.02,545.08L366.62,547.39L369.81,549.92L371.4,551.1L374.59,551.7L376.18,551.7L543.55,551.7L545.15,668.74L546.74,668.74L548.33,684L643.97,684L645.57,609.57L647.16,562.52L648.75,551.7L957.99,551.7L959.58,568.3L961.18,672.74L962.77,682.6L964.37,684L965.96,684L1141.3,684L1142.89,551.7L1166.8,551.7L1168.4,443.82L1169.99,419.39L1171.58,419.39L1185.93,419.39L1187.52,413.28L1189.12,408.22L1190.71,386.72L1193.9,373.51L1195.49,338.15L1197.09,245.51L1198.68,257.4L1200.28,257.4L1201.87,206.63L1205.06,48.87L1206.65,45.85L1208.25,44.33L1209.84,40.98L1213.03,41.38L1214.62,41.85L1216.22,42.32L1217.81,41.85L1224.19,43.66L1225.78,43.66L1227.37,44.06L1228.97,45.52L1233.75,44.66L1235.34,44.99L1240.13,43.86L1241.72,45.13L1243.31,44.4L1244.91,44.86L1246.5,43.73L1248.1,44.53L1249.69,43.53L1251.28,43.86L1256.07,44.66L1257.66,43.93L1262.44,46.12L1264.04,45.92L1265.63,46.58L1267.22,46.05L1268.82,48.28L1270.41,48.61L1272.01,49.98L1273.6,68.01L1275.19,101.32L1276.79,180.95L1278.38,182.86L1279.98,182.28L1281.57,183.44L1283.16,182.67L1287.95,183.31L1289.54,185.11L1295.92,190.04L1297.51,202.44L1299.1,248.32L1300.7,326.86L1305.48,327.27L1307.07,326.79L1308.67,327.52L1310.26,326.36L1315.04,327.58L1316.64,328.43L1321.42,333.14L1323.01,337.79L1324.61,339.72L1326.2,345.89L1327.8,351.76L1329.39,360.75L1334.17,392.73L1335.77,397.91L1337.36,411.79L1338.95,417.67L1340.55,419.39L1342.14,419.39L1375.62,419.39L1377.21,435.86L1378.8,551.7L1380.4,551.7L1433,551.7" style="vector-effect: none; fill: none; stroke: rgb(171, 99, 250); stroke-opacity: 1; stroke-width: 3px; opacity: 1;"/></g><g class="points"/><g class="text"/></g><g class="trace scatter tracee9816e" style="stroke-miterlimit: 2; opacity: 1;"><g class="fills"/><g class="errorbars"/><g class="lines"><path class="js-line" d="M0,684L277.36,683.28L278.95,681.92L280.54,679.46L282.14,674.48L283.73,672.78L285.32,668.46L286.92,666.94L288.51,664.15L290.11,657.47L291.7,655.05L293.3,648.97L294.89,648.56L298.08,646.81L299.67,646.07L304.45,645.27L306.05,645.47L310.83,646.03L312.42,645.35L320.39,644.75L321.99,644.27L323.58,644.27L325.17,643.33L328.36,643.01L329.96,641.64L336.33,637.77L337.93,637.29L341.12,633.87L342.71,633.1L344.3,630.56L345.9,629.53L347.49,625.51L349.08,625.22L350.68,622.6L352.27,623.4L357.06,622.3L358.65,622.25L360.24,621.95L361.84,620.59L363.43,620.84L365.02,619.93L368.21,619.93L369.81,615.58L373,612.77L374.59,608.18L377.78,544.63L379.37,528.87L380.97,499.2L382.56,496.28L387.34,468.89L388.93,465.97L392.12,463.25L393.72,462.83L398.5,460.37L400.09,460.73L401.69,459.94L403.28,460L404.87,459.58L406.47,460L409.66,458.91L411.25,459.64L412.85,458.17L414.44,458.24L416.03,458.72L417.63,458.3L420.82,457.62L422.41,458.17L424,458.6L425.6,458.11L433.57,458.48L435.16,459.33L438.35,459.33L439.94,460.19L441.54,460.25L443.13,461.33L447.91,462.83L449.51,464.85L451.1,464.44L452.7,468.65L454.29,463.02L455.88,450.3L457.48,425.29L459.07,375.9L462.26,367.1L463.85,356.28L468.63,363.26L470.23,367.89L471.82,368.58L473.42,371.14L475.01,374.5L476.6,380.34L481.39,398.81L482.98,401.28L484.57,407.69L486.17,408.62L487.76,409.16L489.36,411.39L492.54,414.58L494.14,416.53L495.73,422.43L497.33,436.5L498.92,449.34L500.51,484.53L502.11,545.98L503.7,551.7L506.89,551.7L508.48,549.19L510.08,514.74L511.67,419.39L519.64,419.39L521.24,429.51L522.83,441.97L524.42,530.04L526.02,549.76L527.61,551.7L549.93,551.7L551.52,566.8L553.12,673.62L554.71,684L706.14,684L707.73,679.27L710.92,567.01L712.52,551.7L722.08,551.7L723.67,556.59L725.27,559.43L726.86,559.01L728.45,559.57L730.05,558.16L731.64,551.7L733.24,551.7L784.24,551.7L785.84,559.92L787.43,559.92L789.03,610.5L790.62,629.81L792.21,665.5L793.81,684L795.4,684L1174.77,684L1176.37,682.28L1177.96,551.7L1179.56,551.7L1185.93,551.7L1187.52,355.39L1189.12,287.09L1190.71,287.09L1203.47,287.09L1205.06,282.36L1206.65,154.78L1208.25,154.78L1221,154.78L1222.59,149.55L1225.78,149.55L1227.37,98.27L1228.97,98.27L1230.56,41.72L1233.75,41.72L1235.34,36L1238.53,36L1240.13,37.17L1248.1,37.92L1249.69,39.63L1264.04,39.63L1265.63,44.66L1268.82,44.66L1270.41,45.79L1275.19,46.38L1276.79,48.61L1281.57,181.18L1283.16,181.18L1289.54,180.72L1291.13,182.34L1292.73,181.96L1294.32,198.43L1295.92,297.06L1297.51,317.61L1299.11,318.76L1300.7,318.76L1305.48,332.37L1307.07,332.37L1310.26,341.08L1311.86,341.08L1313.45,342.64L1315.04,342.59L1329.39,343.03L1330.98,343.31L1345.33,344.3L1346.92,345.13L1348.52,345.73L1350.11,347.78L1351.71,347.78L1353.3,350.24L1354.89,352.91L1356.49,352.91L1358.08,356.74L1359.68,363.36L1361.27,374.5L1362.86,374.5L1366.05,407.72L1367.65,407.72L1369.24,416.09L1370.83,419.39L1433,419.39" style="vector-effect: none; fill: none; stroke: rgb(255, 161, 90); stroke-opacity: 1; stroke-width: 3px; opacity: 1;"/></g><g class="points"/><g class="text"/></g></g></g></g><path class="xlines-above crisp" d="M0,0" style="fill: none;"/><path class="ylines-above crisp" d="M0,0" style="fill: none;"/><g class="overlines-above"/><g class="xaxislayer-above"><g class="xtick"><text text-anchor="middle" x="0" y="841" transform="translate(244.81,0)" style="font-family: 'Open Sans', verdana, arial, sans-serif; font-size: 20px; fill: rgb(42, 63, 95); fill-opacity: 1; white-space: pre; opacity: 1;">2</text></g><g class="xtick"><text text-anchor="middle" x="0" y="841" style="font-family: 'Open Sans', verdana, arial, sans-serif; font-size: 20px; fill: rgb(42, 63, 95); fill-opacity: 1; white-space: pre; opacity: 1;" transform="translate(404.21,0)">4</text></g><g class="xtick"><text text-anchor="middle" x="0" y="841" style="font-family: 'Open Sans', verdana, arial, sans-serif; font-size: 20px; fill: rgb(42, 63, 95); fill-opacity: 1; white-space: pre; opacity: 1;" transform="translate(563.6,0)">6</text></g><g class="xtick"><text text-anchor="middle" x="0" y="841" style="font-family: 'Open Sans', verdana, arial, sans-serif; font-size: 20px; fill: rgb(42, 63, 95); fill-opacity: 1; white-space: pre; opacity: 1;" transform="translate(723,0)">8</text></g><g class="xtick"><text text-anchor="middle" x="0" y="841" style="font-family: 'Open Sans', verdana, arial, sans-serif; font-size: 20px; fill: rgb(42, 63, 95); fill-opacity: 1; white-space: pre; opacity: 1;" transform="translate(882.4,0)">10</text></g><g class="xtick"><text text-anchor="middle" x="0" y="841" style="font-family: 'Open Sans', verdana, arial, sans-serif; font-size: 20px; fill: rgb(42, 63, 95); fill-opacity: 1; white-space: pre; opacity: 1;" transform="translate(1041.8,0)">12</text></g><g class="xtick"><text text-anchor="middle" x="0" y="841" style="font-family: 'Open Sans', verdana, arial, sans-serif; font-size: 20px; fill: rgb(42, 63, 95); fill-opacity: 1; white-space: pre; opacity: 1;" transform="translate(1201.2,0)">14</text></g><g class="xtick"><text text-anchor="middle" x="0" y="841" style="font-family: 'Open Sans', verdana, arial, sans-serif; font-size: 20px; fill: rgb(42, 63, 95); fill-opacity: 1; white-space: pre; opacity: 1;" transform="translate(1360.6,0)">16</text></g><g class="xtick"><text text-anchor="middle" x="0" y="841" style="font-family: 'Open Sans', verdana, arial, sans-serif; font-size: 20px; fill: rgb(42, 63, 95); fill-opacity: 1; white-space: pre; opacity: 1;" transform="translate(1520,0)">18</text></g></g><g class="yaxislayer-above"><g class="ytick"><text text-anchor="end" x="86" y="7" transform="translate(0,784)" style="font-family: 'Open Sans', verdana, arial, sans-serif; font-size: 20px; fill: rgb(42, 63, 95); fill-opacity: 1; white-space: pre; opacity: 1;">0</text></g><g class="ytick"><text text-anchor="end" x="86" y="7" style="font-family: 'Open Sans', verdana, arial, sans-serif; font-size: 20px; fill: rgb(42, 63, 95); fill-opacity: 1; white-space: pre; opacity: 1;" transform="translate(0,704.62)">0.05</text></g><g class="ytick"><text text-anchor="end" x="86" y="7" style="font-family: 'Open Sans', verdana, arial, sans-serif; font-size: 20px; fill: rgb(42, 63, 95); fill-opacity: 1; white-space: pre; opacity: 1;" transform="translate(0,625.23)">0.1</text></g><g class="ytick"><text text-anchor="end" x="86" y="7" style="font-family: 'Open Sans', verdana, arial, sans-serif; font-size: 20px; fill: rgb(42, 63, 95); fill-opacity: 1; white-space: pre; opacity: 1;" transform="translate(0,545.85)">0.15</text></g><g class="ytick"><text text-anchor="end" x="86" y="7" style="font-family: 'Open Sans', verdana, arial, sans-serif; font-size: 20px; fill: rgb(42, 63, 95); fill-opacity: 1; white-space: pre; opacity: 1;" transform="translate(0,466.47)">0.2</text></g><g class="ytick"><text text-anchor="end" x="86" y="7" style="font-family: 'Open Sans', verdana, arial, sans-serif; font-size: 20px; fill: rgb(42, 63, 95); fill-opacity: 1; white-space: pre; opacity: 1;" transform="translate(0,387.09)">0.25</text></g><g class="ytick"><text text-anchor="end" x="86" y="7" style="font-family: 'Open Sans', verdana, arial, sans-serif; font-size: 20px; fill: rgb(42, 63, 95); fill-opacity: 1; white-space: pre; opacity: 1;" transform="translate(0,307.7)">0.3</text></g><g class="ytick"><text text-anchor="end" x="86" y="7" style="font-family: 'Open Sans', verdana, arial, sans-serif; font-size: 20px; fill: rgb(42, 63, 95); fill-opacity: 1; white-space: pre; opacity: 1;" transform="translate(0,228.32)">0.35</text></g><g class="ytick"><text text-anchor="end" x="86" y="7" style="font-family: 'Open Sans', verdana, arial, sans-serif; font-size: 20px; fill: rgb(42, 63, 95); fill-opacity: 1; white-space: pre; opacity: 1;" transform="translate(0,148.94)">0.4</text></g></g><g class="overaxes-above"/></g></g><g class="polarlayer"/><g class="smithlayer"/><g class="ternarylayer"/><g class="geolayer"/><g class="funnelarealayer"/><g class="pielayer"/><g class="iciclelayer"/><g class="treemaplayer"/><g class="sunburstlayer"/><g class="glimages"/><defs id="topdefs-1b1401"><g class="clips"/><clipPath id="legend1b1401"><rect width="84" height="181" x="0" y="0"/></clipPath></defs><g class="layer-above"><g class="imagelayer"/><g class="shapelayer"/></g><g class="infolayer"><g class="legend" pointer-events="all" transform="translate(248.929,110.08000000000001)"><rect class="bg" shape-rendering="crispEdges" width="84" height="181" x="0" y="0" style="stroke: rgb(68, 68, 68); stroke-opacity: 1; fill: rgb(255, 255, 255); fill-opacity: 1; stroke-width: 0px;"/><g class="scrollbox" transform="" clip-path="url(#legend1b1401)"><g class="groups"><g class="traces" transform="translate(0,22.1)" style="opacity: 1;"><text class="legendtext" text-anchor="start" x="40" y="9.360000000000001" style="font-family: 'Open Sans', verdana, arial, sans-serif; font-size: 24px; fill: rgb(42, 63, 95); fill-opacity: 1; white-space: pre;">1m</text><g class="layers" style="opacity: 1;"><g class="legendfill"/><g class="legendlines"><path class="js-line" d="M5,0h30" style="fill: none; stroke: rgb(99, 110, 250); stroke-opacity: 1; stroke-width: 3px;"/></g><g class="legendsymbols"><g class="legendpoints"/></g></g><rect class="legendtoggle" x="0" y="-17.1" width="78.609375" height="34.2" style="fill: rgb(0, 0, 0); fill-opacity: 0;"/></g><g class="traces" transform="translate(0,56.300000000000004)" style="opacity: 1;"><text class="legendtext" text-anchor="start" x="40" y="9.360000000000001" style="font-family: 'Open Sans', verdana, arial, sans-serif; font-size: 24px; fill: rgb(42, 63, 95); fill-opacity: 1; white-space: pre;">2m</text><g class="layers" style="opacity: 1;"><g class="legendfill"/><g class="legendlines"><path class="js-line" d="M5,0h30" style="fill: none; stroke: rgb(239, 85, 59); stroke-opacity: 1; stroke-width: 3px;"/></g><g class="legendsymbols"><g class="legendpoints"/></g></g><rect class="legendtoggle" x="0" y="-17.1" width="78.609375" height="34.2" style="fill: rgb(0, 0, 0); fill-opacity: 0;"/></g><g class="traces" transform="translate(0,90.5)" style="opacity: 1;"><text class="legendtext" text-anchor="start" x="40" y="9.360000000000001" style="font-family: 'Open Sans', verdana, arial, sans-serif; font-size: 24px; fill: rgb(42, 63, 95); fill-opacity: 1; white-space: pre;">3m</text><g class="layers" style="opacity: 1;"><g class="legendfill"/><g class="legendlines"><path class="js-line" d="M5,0h30" style="fill: none; stroke: rgb(0, 204, 150); stroke-opacity: 1; stroke-width: 3px;"/></g><g class="legendsymbols"><g class="legendpoints"/></g></g><rect class="legendtoggle" x="0" y="-17.1" width="78.609375" height="34.2" style="fill: rgb(0, 0, 0); fill-opacity: 0;"/></g><g class="traces" transform="translate(0,124.70000000000002)" style="opacity: 1;"><text class="legendtext" text-anchor="start" x="40" y="9.360000000000001" style="font-family: 'Open Sans', verdana, arial, sans-serif; font-size: 24px; fill: rgb(42, 63, 95); fill-opacity: 1; white-space: pre;">4m</text><g class="layers" style="opacity: 1;"><g class="legendfill"/><g class="legendlines"><path class="js-line" d="M5,0h30" style="fill: none; stroke: rgb(171, 99, 250); stroke-opacity: 1; stroke-width: 3px;"/></g><g class="legendsymbols"><g class="legendpoints"/></g></g><rect class="legendtoggle" x="0" y="-17.1" width="78.609375" height="34.2" style="fill: rgb(0, 0, 0); fill-opacity: 0;"/></g><g class="traces" transform="translate(0,158.9)" style="opacity: 1;"><text class="legendtext" text-anchor="start" x="40" y="9.360000000000001" style="font-family: 'Open Sans', verdana, arial, sans-serif; font-size: 24px; fill: rgb(42, 63, 95); fill-opacity: 1; white-space: pre;">5m</text><g class="layers" style="opacity: 1;"><g class="legendfill"/><g class="legendlines"><path class="js-line" d="M5,0h30" style="fill: none; stroke: rgb(255, 161, 90); stroke-opacity: 1; stroke-width: 3px;"/></g><g class="legendsymbols"><g class="legendpoints"/></g></g><rect class="legendtoggle" x="0" y="-17.1" width="78.609375" height="34.2" style="fill: rgb(0, 0, 0); fill-opacity: 0;"/></g></g></g><rect class="scrollbar" rx="20" ry="3" width="0" height="0" x="0" y="0" style="fill: rgb(128, 139, 164); fill-opacity: 1;"/></g><g class="g-gtitle"><text class="gtitle" x="800" y="50" text-anchor="middle" dy="0.7em" style="opacity: 1; font-family: 'Open Sans', verdana, arial, sans-serif; font-size: 20px; fill: rgb(42, 63, 95); fill-opacity: 1; font-weight: bold; white-space: pre;">Yieding, Front and eHMI</text></g><g class="g-xtitle"><text class="xtitle" x="803.5" y="873.5" text-anchor="middle" style="opacity: 1; font-family: 'Open Sans', verdana, arial, sans-serif; font-size: 20px; fill: rgb(42, 63, 95); fill-opacity: 1; white-space: pre;">Time (in seconds)</text></g><g class="g-ytitle" transform="translate(0.921875,0)"><text class="ytitle" transform="rotate(-90,19.078125,460)" x="19.078125" y="460" text-anchor="middle" style="opacity: 1; font-family: 'Open Sans', verdana, arial, sans-serif; font-size: 20px; fill: rgb(42, 63, 95); fill-opacity: 1; white-space: pre;">Trigger press</text></g></g></svg>