<svg class="main-svg" xmlns="http://www.w3.org/2000/svg" xmlns:xlink="http://www.w3.org/1999/xlink" width="4800" height="2700" style="" viewBox="0 0 1600 900"><rect x="0" y="0" width="1600" height="900" style="fill: rgb(255, 255, 255); fill-opacity: 1;"/><defs id="defs-e69eba"><g class="clips"><clipPath id="clipe69ebaxyplot" class="plotclip"><rect width="1440" height="720"/></clipPath><clipPath class="axesclip" id="clipe69ebax"><rect x="80" y="0" width="1440" height="900"/></clipPath><clipPath class="axesclip" id="clipe69ebay"><rect x="0" y="100" width="1600" height="720"/></clipPath><clipPath class="axesclip" id="clipe69ebaxy"><rect x="80" y="100" width="1440" height="720"/></clipPath></g><g class="gradients"/><g class="patterns"/></defs><g class="bglayer"><rect class="bg" x="80" y="100" width="1440" height="720" style="fill: rgb(229, 236, 246); fill-opacity: 1; stroke-width: 0;"/></g><g class="layer-below"><g class="imagelayer"/><g class="shapelayer"/></g><g class="cartesianlayer"><g class="subplot xy"><g class="layer-subplot"><g class="shapelayer"/><g class="imagelayer"/></g><g class="minor-gridlayer"><g class="x"/><g class="y"/></g><g class="gridlayer"><g class="x"><path class="xgrid crisp" transform="translate(221.41,0)" d="M0,100v720" style="stroke: rgb(255, 255, 255); stroke-opacity: 1; stroke-width: 1px;"/><path class="xgrid crisp" transform="translate(365.69,0)" d="M0,100v720" style="stroke: rgb(255, 255, 255); stroke-opacity: 1; stroke-width: 1px;"/><path class="xgrid crisp" transform="translate(509.98,0)" d="M0,100v720" style="stroke: rgb(255, 255, 255); stroke-opacity: 1; stroke-width: 1px;"/><path class="xgrid crisp" transform="translate(654.27,0)" d="M0,100v720" style="stroke: rgb(255, 255, 255); stroke-opacity: 1; stroke-width: 1px;"/><path class="xgrid crisp" transform="translate(798.56,0)" d="M0,100v720" style="stroke: rgb(255, 255, 255); stroke-opacity: 1; stroke-width: 1px;"/><path class="xgrid crisp" transform="translate(942.85,0)" d="M0,100v720" style="stroke: rgb(255, 255, 255); stroke-opacity: 1; stroke-width: 1px;"/><path class="xgrid crisp" transform="translate(1087.1399999999999,0)" d="M0,100v720" style="stroke: rgb(255, 255, 255); stroke-opacity: 1; stroke-width: 1px;"/><path class="xgrid crisp" transform="translate(1231.42,0)" d="M0,100v720" style="stroke: rgb(255, 255, 255); stroke-opacity: 1; stroke-width: 1px;"/><path class="xgrid crisp" transform="translate(1375.71,0)" d="M0,100v720" style="stroke: rgb(255, 255, 255); stroke-opacity: 1; stroke-width: 1px;"/></g><g class="y"><path class="ygrid crisp" transform="translate(0,645.96)" d="M80,0h1440" style="stroke: rgb(255, 255, 255); stroke-opacity: 1; stroke-width: 1px;"/><path class="ygrid crisp" transform="translate(0,507.92)" d="M80,0h1440" style="stroke: rgb(255, 255, 255); stroke-opacity: 1; stroke-width: 1px;"/><path class="ygrid crisp" transform="translate(0,369.89)" d="M80,0h1440" style="stroke: rgb(255, 255, 255); stroke-opacity: 1; stroke-width: 1px;"/><path class="ygrid crisp" transform="translate(0,231.85)" d="M80,0h1440" style="stroke: rgb(255, 255, 255); stroke-opacity: 1; stroke-width: 1px;"/></g></g><g class="zerolinelayer"><path class="yzl zl crisp" transform="translate(0,784)" d="M80,0h1440" style="stroke: rgb(255, 255, 255); stroke-opacity: 1; stroke-width: 2px;"/></g><g class="layer-between"><g class="shapelayer"/><g class="imagelayer"/></g><path class="xlines-below"/><path class="ylines-below"/><g class="overlines-below"/><g class="xaxislayer-below"/><g class="yaxislayer-below"/><g class="overaxes-below"/><g class="overplot"><g class="xy" transform="translate(80,100)" clip-path="url(#clipe69ebaxyplot)"><g class="scatterlayer mlayer"><g class="trace scatter trace7820a4" style="stroke-miterlimit: 2; opacity: 1;"><g class="fills"/><g class="errorbars"/><g class="lines"><path class="js-line" d="M0,684L389.58,684L392.47,680.32L395.35,659.33L398.24,631.22L401.12,626.48L404.01,626.48L577.16,626.48L580.04,625.48L582.93,624.76L585.82,622.73L588.7,618.88L591.59,613.26L594.47,598.59L597.36,592.68L600.24,578.76L603.13,577.54L606.02,575.36L608.9,574.37L611.79,573.98L614.67,574.61L620.44,575.03L623.33,575.45L631.99,576.22L634.87,576.25L643.53,576.1L646.41,576.13L663.73,577.89L666.62,578.84L675.27,579.79L678.16,580.73L681.04,586.23L683.93,589.4L686.82,599.92L689.7,602.62L692.59,608.5L695.47,609.86L698.36,612.15L701.24,615.4L704.13,616.18L707.02,618.49L709.9,618.62L712.79,619.61L724.33,621.73L727.22,622.76L735.87,623.91L738.76,624.02L747.42,624.48L750.3,597.2L753.19,567.08L756.08,567.12L767.62,568.2L770.5,568.73L782.05,568.97L784.93,568.97L946.54,568.97L949.42,560.29L952.31,560.29L955.19,511.45L1010.02,511.45L1012.91,486.45L1015.79,448.91L1018.68,426.59L1021.56,396.42L1024.45,396.42L1061.97,396.42L1064.85,395.11L1067.74,393.16L1070.62,332.64L1073.51,309.33L1076.39,274.64L1079.28,272.48L1082.17,267.99L1087.94,256.03L1090.82,245.34L1093.71,235.46L1096.59,228.85L1099.48,224.95L1102.37,166.36L1119.68,166.36L1122.57,165.58L1125.45,143.71L1128.34,109.22L1139.88,110.32L1142.77,110.91L1145.65,111.9L1148.54,114.18L1151.42,114.9L1154.31,111.92L1157.19,58.1L1160.08,60.16L1165.85,61.92L1168.74,63.9L1171.63,65.07L1174.51,106.86L1177.4,121.79L1180.28,121.75L1194.71,120.43L1197.6,120.85L1200.48,171.21L1203.37,177.65L1209.14,177.92L1212.02,177.95L1217.8,177.8L1220.68,177.83L1223.57,178.03L1226.45,177.38L1240.88,177.83L1243.77,178.2L1255.31,180.92L1258.2,183.06L1261.08,191.52L1263.97,196.31L1266.85,199.1L1269.74,199.1L1272.63,199.1L1275.51,205.17L1278.4,205.35L1281.28,207.69L1287.05,211.05L1289.94,211.42L1298.6,210.19L1301.48,210.08L1313.03,209.58L1315.91,231.28L1318.8,267.24L1321.68,267.11L1333.23,267.38L1336.11,267.82L1350.54,268.53L1353.43,268.46L1373.63,269.64L1376.51,327.94L1388.06,329.52L1390.94,330.26L1408.26,330.84L1411.14,331.85L1414.03,332.06L1416.91,333.05L1422.69,334.37L1425.57,334.99L1431.34,336.29L1434.23,370.52L1437.11,394.77L1440,401.34" style="vector-effect: none; fill: none; stroke: rgb(99, 110, 250); stroke-opacity: 1; stroke-width: 3px; opacity: 1;"/></g><g class="points"/><g class="text"/></g><g class="trace scatter trace091dc1" style="stroke-miterlimit: 2; opacity: 1;"><g class="fills"/><g class="errorbars"/><g class="lines"><path class="js-line" d="M0,684L406.89,683.53L409.78,682.79L412.67,680.92L415.55,678.12L418.44,674.05L421.32,666.02L424.21,662.42L427.09,649.02L432.86,636.53L435.75,636.13L441.52,633.56L444.41,633.59L461.72,633.76L464.61,633.76L470.38,634.32L473.27,635.05L484.81,635.84L487.69,635.55L502.13,637.65L505.01,637.85L516.55,639.11L519.44,640.31L525.21,640.86L528.1,641.51L530.98,641.54L533.87,643.58L539.64,644.25L542.52,645.16L554.07,645.68L556.96,647.4L559.84,647.4L562.72,648.3L571.38,649.05L574.27,650.27L629.1,650.13L631.98,645.7L634.87,601.03L637.75,597.55L640.64,597.52L643.53,600.45L646.41,602.55L649.3,623.92L652.18,634.65L655.07,648.63L657.96,648.55L660.84,647.67L663.73,647.25L666.61,647.73L669.5,650.03L672.38,650.61L712.78,650.95L715.67,651.43L730.1,651.95L732.99,652.21L738.76,652.21L741.64,653.03L747.41,653.03L750.3,654.55L756.07,654.55L758.96,656.52L761.84,656.52L764.73,662.48L767.61,665.8L770.5,665.8L773.39,671.08L776.27,672.93L779.16,674.37L782.04,674.37L784.93,676.03L787.81,676.56L793.59,677.14L796.47,677.82L799.36,678.75L802.24,678.75L808.02,679.7L810.9,679.7L819.56,681.55L822.44,681.55L836.87,684L839.76,684L871.5,683.84L874.39,675.36L877.27,626.48L880.16,626.48L883.04,626.48L885.93,624.6L888.82,577.25L891.7,568.97L911.9,568.97L914.79,511.45L923.44,510.7L926.33,508.17L929.22,503.52L932.1,503.52L934.99,489.14L937.87,484.33L940.76,484.33L943.65,461.86L946.53,460.71L949.42,401.49L952.31,401.49L955.19,400.09L963.85,400.46L966.73,398.54L969.62,396.21L972.51,368.67L975.39,337.22L978.27,291.56L981.16,286.64L984.05,286.73L1024.45,286.97L1027.33,274.46L1030.22,255.7L1033.1,229.24L1047.53,229.45L1050.42,229.36L1064.85,229.11L1067.73,228.37L1073.5,226.3L1076.39,225.66L1079.28,222.94L1082.16,222.97L1085.05,168.72L1087.94,169.18L1093.71,168.57L1096.59,174.73L1099.48,226.36L1102.36,226.37L1105.25,225.97L1108.13,171.3L1111.02,168.29L1113.91,168.16L1122.56,167.57L1125.45,168.05L1128.33,167.77L1131.22,171.02L1134.11,170.97L1136.99,224.11L1139.88,224.08L1142.76,225.09L1145.65,221.79L1148.53,166.95L1157.19,166.54L1160.08,165.92L1165.85,162.64L1168.74,153.22L1174.51,139.73L1177.39,128.94L1180.28,128.53L1183.16,129.9L1188.94,128.62L1191.82,128.59L1197.59,129.04L1200.48,127.7L1212.02,123.97L1214.91,124.04L1217.79,123.88L1220.68,121.05L1232.22,119.84L1235.11,118.43L1243.77,118.2L1246.65,118.19L1252.42,116.81L1255.31,116.63L1258.2,117.11L1261.08,116.13L1266.85,114.51L1269.74,114.6L1275.51,114.15L1278.4,114.6L1284.16,116.5L1287.05,119.18L1289.94,120.07L1292.82,122.39L1295.71,123.52L1298.59,129.83L1301.48,147.32L1304.37,154.36L1307.25,164.46L1310.14,165.39L1313.03,166.36L1315.91,166.36L1321.68,166.36L1324.57,197.44L1327.45,223.87L1330.34,223.87L1339,223.87L1341.88,224.75L1353.42,226.37L1356.31,227.57L1359.2,228.88L1362.08,228.88L1364.97,229.87L1367.86,287.78L1370.74,288.64L1373.62,288.37L1376.51,302.05L1379.4,339.28L1382.28,347.68L1385.17,349.04L1388.05,350.46L1390.94,356.8L1396.71,356.8L1399.6,376.66L1402.48,385.55L1405.37,391.93L1408.25,391.93L1411.14,438.92L1416.91,470.96L1419.8,496.54L1425.57,511.45L1428.45,511.45L1440,511.45" style="vector-effect: none; fill: none; stroke: rgb(239, 85, 59); stroke-opacity: 1; stroke-width: 3px; opacity: 1;"/></g><g class="points"/><g class="text"/></g><g class="trace scatter trace99f93a" style="stroke-miterlimit: 2; opacity: 1;"><g class="fills"/><g class="errorbars"/><g class="lines"><path class="js-line" d="M0.01,684L349.18,683.7L352.07,682.49L360.73,675.17L363.61,670.27L366.5,666.5L369.38,646.33L372.27,637.16L375.15,632.12L378.04,630.06L380.93,629.14L392.47,629.51L395.35,630.15L401.13,630.73L404.01,631.58L409.78,632.21L412.67,632.24L418.44,632.93L421.33,633.64L424.21,634.32L427.1,634.15L444.41,635.17L447.3,634.76L455.95,635.4L458.84,635.46L473.27,637.08L476.16,638.41L487.7,639.14L490.58,638.89L499.24,640.22L502.13,641.59L505.01,643.66L507.9,644.25L513.67,648.6L516.56,650.71L519.44,653.13L522.33,653.41L542.53,654.33L545.41,654.14L571.39,653.31L574.27,653.13L591.59,651.83L594.47,651.93L603.13,651.52L606.02,651.45L629.1,652.45L631.99,653.57L634.87,654.69L637.76,656.98L640.65,657.35L643.53,660.4L646.41,661.45L649.3,666.43L652.19,669.99L655.07,671.55L657.96,675.79L660.84,676.91L663.73,679.9L666.62,680.9L672.39,683.94L675.27,684L698.36,684L701.24,674.77L704.13,626.48L707.02,626.48L712.79,625.86L715.67,568.97L784.93,568.34L787.82,568.16L810.9,567.93L813.79,567.92L848.42,567.93L851.3,567.9L865.73,567.52L868.62,559.44L871.51,549.21L874.39,531.44L877.28,509.74L880.16,509.66L883.05,509.62L885.94,508.41L891.71,464.57L894.59,454.76L900.36,451.54L903.25,451.37L906.13,451.23L909.02,447.95L911.91,435.87L914.79,393.5L958.08,392.99L960.96,335.48L972.51,335.54L975.39,353.66L978.28,380.52L981.16,393.05L1007.14,392.59L1010.02,392.05L1018.68,388.86L1021.57,387.99L1024.45,386.62L1027.34,386.08L1030.22,385.64L1033.11,381.07L1035.99,269.11L1038.88,268.66L1047.54,266.72L1050.42,265.71L1061.96,264.48L1064.85,264.04L1076.4,263.54L1079.28,263.2L1093.71,262.12L1096.59,260.97L1116.79,259.08L1119.68,201.6L1131.23,201.23L1134.11,200.86L1137,235.59L1139.88,203.33L1142.77,200.69L1145.65,200.87L1157.2,199.46L1160.08,198.55L1165.85,197L1168.74,192.98L1171.62,191.15L1174.51,186.05L1183.17,177.7L1186.06,165.22L1188.94,135.57L1191.83,131.78L1194.71,126.96L1197.6,123.87L1200.48,116.36L1203.37,114.6L1206.25,111.31L1209.14,110.16L1212.03,108.84L1214.91,108.84L1217.8,110.38L1220.68,121.47L1226.45,133.5L1229.34,148.23L1232.23,159.51L1235.11,166.36L1258.2,166.36L1261.08,187.7L1263.97,214.29L1266.86,223.87L1330.34,223.87L1333.23,236.19L1336.11,236.19L1339,280.46L1341.89,290.92L1344.77,297.58L1347.66,346.42L1350.54,354.48L1353.43,345.35L1356.31,338.9L1373.63,338.9L1376.51,393.36L1379.4,412.88L1382.29,453.94L1405.37,453.94L1408.26,514.78L1411.14,568.97L1414.03,568.97L1440,568.97" style="vector-effect: none; fill: none; stroke: rgb(0, 204, 150); stroke-opacity: 1; stroke-width: 3px; opacity: 1;"/></g><g class="points"/><g class="text"/></g><g class="trace scatter trace45550a" style="stroke-miterlimit: 2; opacity: 1;"><g class="fills"/><g class="errorbars"/><g class="lines"><path class="js-line" d="M0,684L305.89,683.26L308.78,682.6L317.44,681.32L320.33,680.65L340.52,679.67L343.41,679.59L357.84,679.57L360.72,679.59L380.93,679.42L383.81,679.6L398.24,679.45L401.12,679.43L432.87,678.48L435.75,678.11L447.3,676.67L450.18,676.6L556.96,675.87L559.84,675.77L580.04,675.54L582.93,675.31L588.7,675.03L591.58,674.18L597.36,671.63L600.24,671.64L611.78,671.98L614.67,672.19L626.22,672.16L629.1,672.17L660.84,672.52L663.73,672.22L686.82,672.15L689.7,672.28L715.67,672.34L718.56,670.7L721.45,660.17L724.33,616.49L727.22,614.7L730.1,614.76L741.65,614.54L744.53,614.59L761.85,614.75L764.73,614.72L776.28,614.63L779.16,613.7L782.05,613.12L784.93,610.28L787.82,608.37L790.7,599.82L793.59,589.42L796.47,582.04L799.36,566.69L802.25,564.64L805.13,558.34L808.02,557.18L822.45,556.97L825.33,556.98L857.08,556.94L859.96,557.11L868.62,556.82L871.5,556.94L900.36,556.98L903.25,548.51L906.13,530.99L909.02,506.48L911.91,499.48L914.79,499.51L920.56,499.38L923.45,496.84L926.33,441.92L929.22,441.79L937.88,441.77L940.76,441.83L949.42,441.65L952.31,384.11L966.74,384.13L969.62,341.22L972.51,326.5L975.39,326.39L984.05,325.78L986.94,325.3L992.71,323L995.59,321.69L1001.36,320.92L1004.25,320.73L1007.14,319.66L1010.02,317L1012.91,314.75L1015.79,297.76L1018.68,286.25L1021.57,278.93L1024.45,275.83L1027.34,269.06L1059.08,269.05L1061.97,211.65L1067.74,211.13L1070.62,183.65L1073.51,183.69L1076.4,154L1125.45,153.25L1128.34,153.55L1145.65,153.16L1148.54,152.38L1151.42,148.87L1154.31,129.39L1157.19,93.27L1160.08,93.18L1162.97,93.43L1165.85,36L1177.4,37.04L1180.28,38.4L1183.17,132.59L1186.05,152.22L1203.37,152.46L1206.25,152.33L1226.45,152.6L1229.34,152.39L1261.08,152.36L1263.97,152.16L1266.85,152.43L1269.74,203.29L1272.63,209.88L1275.51,209.89L1304.37,209.74L1307.26,211.61L1310.14,242.36L1313.03,251.23L1315.91,262.81L1318.8,265.84L1321.68,267.24L1324.57,267.12L1336.11,267.33L1339,267.14L1359.2,266.96L1362.09,299.73L1364.97,320.85L1367.86,324.43L1382.29,324.56L1385.17,355.36L1388.06,378.53L1390.94,388.68L1393.83,420.12L1396.71,437.65L1399.6,439.38L1402.49,439.3L1431.34,439.1L1434.23,463.62L1437.12,496.7L1440,496.77" style="vector-effect: none; fill: none; stroke: rgb(171, 99, 250); stroke-opacity: 1; stroke-width: 3px; opacity: 1;"/></g><g class="points"/><g class="text"/></g><g class="trace scatter tracec77b0c" style="stroke-miterlimit: 2; opacity: 1;"><g class="fills"/><g class="errorbars"/><g class="lines"><path class="js-line" d="M0,684L574.27,684L577.16,682.2L580.04,678.22L582.93,678.22L588.7,661.53L591.59,648.23L594.47,646.12L597.36,642.89L600.24,641.62L603.13,638.21L606.01,637.08L608.9,637.08L611.79,635.52L614.67,635.52L617.56,634.73L620.44,632.45L623.33,630.18L626.21,628.98L629.1,627.18L631.99,626.48L929.22,626.48L932.1,625.06L934.99,568.97L937.88,568.97L952.31,568.97L955.19,560.59L958.08,560.59L960.96,511.45L1041.76,511.45L1044.65,510.64L1047.54,498.48L1050.42,420.68L1056.19,354.71L1059.08,337.4L1061.97,337.07L1064.85,335.72L1067.74,334.53L1070.62,334.65L1079.28,335.48L1082.17,335.76L1085.05,335.38L1087.94,333.55L1090.82,321.01L1093.71,313.16L1096.59,280.67L1099.48,276.95L1102.37,219.8L1105.25,219.99L1113.91,220.97L1116.8,221.34L1139.88,223.28L1142.77,224.25L1145.65,224.27L1148.54,225.18L1157.19,226.42L1160.08,227.61L1165.85,228.72L1168.74,229.79L1177.4,231.08L1180.28,232.06L1183.17,232.66L1186.05,239.7L1188.94,242.32L1191.82,242.32L1194.71,255.5L1197.6,259.09L1200.48,249.18L1203.37,174.28L1206.25,220.86L1209.14,221.05L1214.91,220.82L1217.8,222.41L1220.68,281.27L1223.57,279.08L1229.34,278.14L1232.22,278.33L1235.11,278.3L1238,282.33L1243.77,265.39L1246.65,242.13L1249.54,239.83L1252.43,239.06L1255.31,243.33L1258.2,246.11L1261.08,252.83L1263.97,262.77L1272.63,281.1L1275.51,313.29L1278.4,318.55L1281.28,316.48L1284.17,311.78L1287.05,288.78L1289.94,289.22L1292.83,281.39L1330.34,281.39L1333.23,292.95L1336.11,334.8L1339,338.9L1344.77,338.9L1347.66,396.42L1362.08,396.42L1364.97,403.08L1367.86,453.59L1370.74,453.94L1440,453.94" style="vector-effect: none; fill: none; stroke: rgb(255, 161, 90); stroke-opacity: 1; stroke-width: 3px; opacity: 1;"/></g><g class="points"/><g class="text"/></g></g></g></g><path class="xlines-above crisp" d="M0,0" style="fill: none;"/><path class="ylines-above crisp" d="M0,0" style="fill: none;"/><g class="overlines-above"/><g class="xaxislayer-above"><g class="xtick"><text text-anchor="middle" x="0" y="841" transform="translate(221.41,0)" style="font-family: 'Open Sans', verdana, arial, sans-serif; font-size: 20px; fill: rgb(42, 63, 95); fill-opacity: 1; white-space: pre; opacity: 1;">1</text></g><g class="xtick"><text text-anchor="middle" x="0" y="841" style="font-family: 'Open Sans', verdana, arial, sans-serif; font-size: 20px; fill: rgb(42, 63, 95); fill-opacity: 1; white-space: pre; opacity: 1;" transform="translate(365.69,0)">2</text></g><g class="xtick"><text text-anchor="middle" x="0" y="841" style="font-family: 'Open Sans', verdana, arial, sans-serif; font-size: 20px; fill: rgb(42, 63, 95); fill-opacity: 1; white-space: pre; opacity: 1;" transform="translate(509.98,0)">3</text></g><g class="xtick"><text text-anchor="middle" x="0" y="841" style="font-family: 'Open Sans', verdana, arial, sans-serif; font-size: 20px; fill: rgb(42, 63, 95); fill-opacity: 1; white-space: pre; opacity: 1;" transform="translate(654.27,0)">4</text></g><g class="xtick"><text text-anchor="middle" x="0" y="841" style="font-family: 'Open Sans', verdana, arial, sans-serif; font-size: 20px; fill: rgb(42, 63, 95); fill-opacity: 1; white-space: pre; opacity: 1;" transform="translate(798.56,0)">5</text></g><g class="xtick"><text text-anchor="middle" x="0" y="841" style="font-family: 'Open Sans', verdana, arial, sans-serif; font-size: 20px; fill: rgb(42, 63, 95); fill-opacity: 1; white-space: pre; opacity: 1;" transform="translate(942.85,0)">6</text></g><g class="xtick"><text text-anchor="middle" x="0" y="841" style="font-family: 'Open Sans', verdana, arial, sans-serif; font-size: 20px; fill: rgb(42, 63, 95); fill-opacity: 1; white-space: pre; opacity: 1;" transform="translate(1087.1399999999999,0)">7</text></g><g class="xtick"><text text-anchor="middle" x="0" y="841" style="font-family: 'Open Sans', verdana, arial, sans-serif; font-size: 20px; fill: rgb(42, 63, 95); fill-opacity: 1; white-space: pre; opacity: 1;" transform="translate(1231.42,0)">8</text></g><g class="xtick"><text text-anchor="middle" x="0" y="841" style="font-family: 'Open Sans', verdana, arial, sans-serif; font-size: 20px; fill: rgb(42, 63, 95); fill-opacity: 1; white-space: pre; opacity: 1;" transform="translate(1375.71,0)">9</text></g><g class="xtick"><text text-anchor="middle" x="0" y="841" style="font-family: 'Open Sans', verdana, arial, sans-serif; font-size: 20px; fill: rgb(42, 63, 95); fill-opacity: 1; white-space: pre; opacity: 1;" transform="translate(1520,0)">10</text></g></g><g class="yaxislayer-above"><g class="ytick"><text text-anchor="end" x="79" y="7" transform="translate(0,784)" style="font-family: 'Open Sans', verdana, arial, sans-serif; font-size: 20px; fill: rgb(42, 63, 95); fill-opacity: 1; white-space: pre; opacity: 1;">0</text></g><g class="ytick"><text text-anchor="end" x="79" y="7" style="font-family: 'Open Sans', verdana, arial, sans-serif; font-size: 20px; fill: rgb(42, 63, 95); fill-opacity: 1; white-space: pre; opacity: 1;" transform="translate(0,645.96)">0.2</text></g><g class="ytick"><text text-anchor="end" x="79" y="7" style="font-family: 'Open Sans', verdana, arial, sans-serif; font-size: 20px; fill: rgb(42, 63, 95); fill-opacity: 1; white-space: pre; opacity: 1;" transform="translate(0,507.92)">0.4</text></g><g class="ytick"><text text-anchor="end" x="79" y="7" style="font-family: 'Open Sans', verdana, arial, sans-serif; font-size: 20px; fill: rgb(42, 63, 95); fill-opacity: 1; white-space: pre; opacity: 1;" transform="translate(0,369.89)">0.6</text></g><g class="ytick"><text text-anchor="end" x="79" y="7" style="font-family: 'Open Sans', verdana, arial, sans-serif; font-size: 20px; fill: rgb(42, 63, 95); fill-opacity: 1; white-space: pre; opacity: 1;" transform="translate(0,231.85)">0.8</text></g></g><g class="overaxes-above"/></g></g><g class="polarlayer"/><g class="smithlayer"/><g class="ternarylayer"/><g class="geolayer"/><g class="funnelarealayer"/><g class="pielayer"/><g class="iciclelayer"/><g class="treemaplayer"/><g class="sunburstlayer"/><g class="glimages"/><defs id="topdefs-e69eba"><g class="clips"/><clipPath id="legende69eba"><rect width="84" height="181" x="0" y="0"/></clipPath></defs><g class="layer-above"><g class="imagelayer"/><g class="shapelayer"/></g><g class="infolayer"><g class="legend" pointer-events="all" transform="translate(242.72,110.08000000000001)"><rect class="bg" shape-rendering="crispEdges" width="84" height="181" x="0" y="0" style="stroke: rgb(68, 68, 68); stroke-opacity: 1; fill: rgb(255, 255, 255); fill-opacity: 1; stroke-width: 0px;"/><g class="scrollbox" transform="" clip-path="url(#legende69eba)"><g class="groups"><g class="traces" transform="translate(0,22.1)" style="opacity: 1;"><text class="legendtext" text-anchor="start" x="40" y="9.360000000000001" style="font-family: 'Open Sans', verdana, arial, sans-serif; font-size: 24px; fill: rgb(42, 63, 95); fill-opacity: 1; white-space: pre;">1m</text><g class="layers" style="opacity: 1;"><g class="legendfill"/><g class="legendlines"><path class="js-line" d="M5,0h30" style="fill: none; stroke: rgb(99, 110, 250); stroke-opacity: 1; stroke-width: 3px;"/></g><g class="legendsymbols"><g class="legendpoints"/></g></g><rect class="legendtoggle" x="0" y="-17.1" width="78.609375" height="34.2" style="fill: rgb(0, 0, 0); fill-opacity: 0;"/></g><g class="traces" transform="translate(0,56.300000000000004)" style="opacity: 1;"><text class="legendtext" text-anchor="start" x="40" y="9.360000000000001" style="font-family: 'Open Sans', verdana, arial, sans-serif; font-size: 24px; fill: rgb(42, 63, 95); fill-opacity: 1; white-space: pre;">2m</text><g class="layers" style="opacity: 1;"><g class="legendfill"/><g class="legendlines"><path class="js-line" d="M5,0h30" style="fill: none; stroke: rgb(239, 85, 59); stroke-opacity: 1; stroke-width: 3px;"/></g><g class="legendsymbols"><g class="legendpoints"/></g></g><rect class="legendtoggle" x="0" y="-17.1" width="78.609375" height="34.2" style="fill: rgb(0, 0, 0); fill-opacity: 0;"/></g><g class="traces" transform="translate(0,90.5)" style="opacity: 1;"><text class="legendtext" text-anchor="start" x="40" y="9.360000000000001" style="font-family: 'Open Sans', verdana, arial, sans-serif; font-size: 24px; fill: rgb(42, 63, 95); fill-opacity: 1; white-space: pre;">3m</text><g class="layers" style="opacity: 1;"><g class="legendfill"/><g class="legendlines"><path class="js-line" d="M5,0h30" style="fill: none; stroke: rgb(0, 204, 150); stroke-opacity: 1; stroke-width: 3px;"/></g><g class="legendsymbols"><g class="legendpoints"/></g></g><rect class="legendtoggle" x="0" y="-17.1" width="78.609375" height="34.2" style="fill: rgb(0, 0, 0); fill-opacity: 0;"/></g><g class="traces" transform="translate(0,124.70000000000002)" style="opacity: 1;"><text class="legendtext" text-anchor="start" x="40" y="9.360000000000001" style="font-family: 'Open Sans', verdana, arial, sans-serif; font-size: 24px; fill: rgb(42, 63, 95); fill-opacity: 1; white-space: pre;">4m</text><g class="layers" style="opacity: 1;"><g class="legendfill"/><g class="legendlines"><path class="js-line" d="M5,0h30" style="fill: none; stroke: rgb(171, 99, 250); stroke-opacity: 1; stroke-width: 3px;"/></g><g class="legendsymbols"><g class="legendpoints"/></g></g><rect class="legendtoggle" x="0" y="-17.1" width="78.609375" height="34.2" style="fill: rgb(0, 0, 0); fill-opacity: 0;"/></g><g class="traces" transform="translate(0,158.9)" style="opacity: 1;"><text class="legendtext" text-anchor="start" x="40" y="9.360000000000001" style="font-family: 'Open Sans', verdana, arial, sans-serif; font-size: 24px; fill: rgb(42, 63, 95); fill-opacity: 1; white-space: pre;">5m</text><g class="layers" style="opacity: 1;"><g class="legendfill"/><g class="legendlines"><path class="js-line" d="M5,0h30" style="fill: none; stroke: rgb(255, 161, 90); stroke-opacity: 1; stroke-width: 3px;"/></g><g class="legendsymbols"><g class="legendpoints"/></g></g><rect class="legendtoggle" x="0" y="-17.1" width="78.609375" height="34.2" style="fill: rgb(0, 0, 0); fill-opacity: 0;"/></g></g></g><rect class="scrollbar" rx="20" ry="3" width="0" height="0" x="0" y="0" style="fill: rgb(128, 139, 164); fill-opacity: 1;"/></g><g class="g-gtitle"><text class="gtitle" x="800" y="50" text-anchor="middle" dy="0.7em" style="opacity: 1; font-family: 'Open Sans', verdana, arial, sans-serif; font-size: 20px; fill: rgb(42, 63, 95); fill-opacity: 1; font-weight: bold; white-space: pre;">No Yielding, Back and no eHMI</text></g><g class="g-xtitle"><text class="xtitle" x="800" y="873.5" text-anchor="middle" style="opacity: 1; font-family: 'Open Sans', verdana, arial, sans-serif; font-size: 20px; fill: rgb(42, 63, 95); fill-opacity: 1; white-space: pre;">Time (in seconds)</text></g><g class="g-ytitle"><text class="ytitle" transform="rotate(-90,24.78125,460)" x="24.78125" y="460" text-anchor="middle" style="opacity: 1; font-family: 'Open Sans', verdana, arial, sans-serif; font-size: 20px; fill: rgb(42, 63, 95); fill-opacity: 1; white-space: pre;">Trigger press</text></g></g></svg>