<svg class="main-svg" xmlns="http://www.w3.org/2000/svg" xmlns:xlink="http://www.w3.org/1999/xlink" width="4800" height="2700" style="" viewBox="0 0 1600 900"><rect x="0" y="0" width="1600" height="900" style="fill: rgb(255, 255, 255); fill-opacity: 1;"/><defs id="defs-4671a9"><g class="clips"><clipPath id="clip4671a9xyplot" class="plotclip"><rect width="1440" height="720"/></clipPath><clipPath class="axesclip" id="clip4671a9x"><rect x="80" y="0" width="1440" height="900"/></clipPath><clipPath class="axesclip" id="clip4671a9y"><rect x="0" y="100" width="1600" height="720"/></clipPath><clipPath class="axesclip" id="clip4671a9xy"><rect x="80" y="100" width="1440" height="720"/></clipPath></g><g class="gradients"/><g class="patterns"/></defs><g class="bglayer"><rect class="bg" x="80" y="100" width="1440" height="720" style="fill: rgb(229, 236, 246); fill-opacity: 1; stroke-width: 0;"/></g><g class="layer-below"><g class="imagelayer"/><g class="shapelayer"/></g><g class="cartesianlayer"><g class="subplot xy"><g class="layer-subplot"><g class="shapelayer"/><g class="imagelayer"/></g><g class="minor-gridlayer"><g class="x"/><g class="y"/></g><g class="gridlayer"><g class="x"><path class="xgrid crisp" transform="translate(221.4,0)" d="M0,100v720" style="stroke: rgb(255, 255, 255); stroke-opacity: 1; stroke-width: 1px;"/><path class="xgrid crisp" transform="translate(365.69,0)" d="M0,100v720" style="stroke: rgb(255, 255, 255); stroke-opacity: 1; stroke-width: 1px;"/><path class="xgrid crisp" transform="translate(509.98,0)" d="M0,100v720" style="stroke: rgb(255, 255, 255); stroke-opacity: 1; stroke-width: 1px;"/><path class="xgrid crisp" transform="translate(654.27,0)" d="M0,100v720" style="stroke: rgb(255, 255, 255); stroke-opacity: 1; stroke-width: 1px;"/><path class="xgrid crisp" transform="translate(798.56,0)" d="M0,100v720" style="stroke: rgb(255, 255, 255); stroke-opacity: 1; stroke-width: 1px;"/><path class="xgrid crisp" transform="translate(942.85,0)" d="M0,100v720" style="stroke: rgb(255, 255, 255); stroke-opacity: 1; stroke-width: 1px;"/><path class="xgrid crisp" transform="translate(1087.13,0)" d="M0,100v720" style="stroke: rgb(255, 255, 255); stroke-opacity: 1; stroke-width: 1px;"/><path class="xgrid crisp" transform="translate(1231.42,0)" d="M0,100v720" style="stroke: rgb(255, 255, 255); stroke-opacity: 1; stroke-width: 1px;"/><path class="xgrid crisp" transform="translate(1375.71,0)" d="M0,100v720" style="stroke: rgb(255, 255, 255); stroke-opacity: 1; stroke-width: 1px;"/></g><g class="y"><path class="ygrid crisp" transform="translate(0,643.13)" d="M80,0h1440" style="stroke: rgb(255, 255, 255); stroke-opacity: 1; stroke-width: 1px;"/><path class="ygrid crisp" transform="translate(0,502.27)" d="M80,0h1440" style="stroke: rgb(255, 255, 255); stroke-opacity: 1; stroke-width: 1px;"/><path class="ygrid crisp" transform="translate(0,361.4)" d="M80,0h1440" style="stroke: rgb(255, 255, 255); stroke-opacity: 1; stroke-width: 1px;"/><path class="ygrid crisp" transform="translate(0,220.53)" d="M80,0h1440" style="stroke: rgb(255, 255, 255); stroke-opacity: 1; stroke-width: 1px;"/></g></g><g class="zerolinelayer"><path class="yzl zl crisp" transform="translate(0,784)" d="M80,0h1440" style="stroke: rgb(255, 255, 255); stroke-opacity: 1; stroke-width: 2px;"/></g><g class="layer-between"><g class="shapelayer"/><g class="imagelayer"/></g><path class="xlines-below"/><path class="ylines-below"/><g class="overlines-below"/><g class="xaxislayer-below"/><g class="yaxislayer-below"/><g class="overaxes-below"/><g class="overplot"><g class="xy" transform="translate(80,100)" clip-path="url(#clip4671a9xyplot)"><g class="scatterlayer mlayer"><g class="trace scatter tracea9f55e" style="stroke-miterlimit: 2; opacity: 1;"><g class="fills"/><g class="errorbars"/><g class="lines"><path class="js-line" d="M0,684L308.78,684L311.66,678.21L314.55,678.21L317.43,625.31L493.47,625.31L496.35,634.62L499.24,674.78L502.12,684L819.56,684L822.44,676.81L825.33,670.55L828.22,649.48L831.1,637.65L833.99,637.51L842.64,625.31L845.53,625.31L859.96,625.31L862.85,639.83L865.73,650.91L868.62,657.73L871.5,652.8L874.39,650.17L877.27,639.95L880.16,639.19L883.05,634.91L885.93,632.25L888.82,625.95L891.7,625.31L917.68,625.31L920.56,624.19L926.33,619.94L929.22,613.03L932.1,610.6L934.99,603.8L940.76,595.3L943.65,587.2L946.53,578.64L949.42,577.3L952.3,575.92L955.19,571.16L958.08,570.64L960.96,569.07L963.85,568.55L966.73,540.54L969.62,512.44L972.5,512.38L978.28,514.19L981.16,514.95L992.7,515.16L995.59,513.54L998.48,498.69L1001.36,456.56L1012.91,456.71L1015.79,456.74L1027.33,458.38L1030.22,458.35L1035.99,458.71L1038.88,459.01L1041.76,459.56L1044.65,459.24L1047.53,400.63L1050.42,400.34L1067.73,399.99L1070.62,400.4L1087.94,402L1090.82,401.27L1093.71,401.51L1096.59,342.38L1099.48,341.58L1102.36,283.21L1111.02,283.54L1113.91,283.54L1122.56,280.31L1125.45,276.45L1128.34,264.36L1131.22,264.8L1134.11,245.3L1136.99,237.37L1139.88,226.65L1142.77,170.74L1145.65,169.83L1148.54,167.02L1151.42,166.22L1154.31,166.2L1160.08,166.54L1162.96,166.7L1168.74,168L1171.62,169.22L1183.17,169.43L1186.05,169.21L1188.94,169.28L1191.82,172.07L1194.71,171.87L1197.59,181.06L1200.48,186.68L1203.37,211.12L1206.25,218.13L1209.14,221.73L1220.68,221.51L1223.57,221.45L1229.34,218.1L1232.22,213.02L1235.11,205.39L1237.99,191.57L1240.88,188.6L1243.77,188.2L1246.65,190.64L1249.54,194.34L1252.42,199.21L1255.31,199.35L1258.2,148.96L1261.08,150.02L1266.85,152.12L1269.74,152.97L1275.51,156.62L1278.4,158.46L1295.71,163.75L1298.6,165.88L1307.25,167.72L1310.14,220.87L1313.03,226.07L1315.91,226.07L1318.8,252.44L1321.68,288.9L1324.57,338.97L1327.45,343.54L1333.23,344.03L1336.11,357.6L1339,388.21L1341.88,406.61L1344.77,411.61L1347.65,411.61L1350.54,411.61L1353.43,412.97L1359.2,412.97L1362.08,414.28L1379.4,414.33L1382.28,415.96L1390.94,416.4L1393.83,420.41L1399.6,420.41L1402.48,428.05L1405.37,431.18L1408.26,431.18L1416.91,436.04L1419.8,436.04L1422.68,436.58L1425.57,438.73L1428.46,440.94L1431.34,440.94L1437.11,445.68L1440,427.88" style="vector-effect: none; fill: none; stroke: rgb(99, 110, 250); stroke-opacity: 1; stroke-width: 3px; opacity: 1;"/></g><g class="points"/><g class="text"/></g><g class="trace scatter trace322437" style="stroke-miterlimit: 2; opacity: 1;"><g class="fills"/><g class="errorbars"/><g class="lines"><path class="js-line" d="M0,684L441.52,683.25L444.41,682.73L447.3,680.66L450.18,679.63L453.07,674.74L455.95,672.63L464.61,647.93L467.5,634.71L470.38,633.39L473.27,630.54L476.15,629.08L479.04,626.72L490.58,626.75L493.47,627.41L507.89,627.79L510.78,627.98L528.1,627.07L530.98,627.13L571.38,626.59L574.27,626.24L580.04,626.46L582.93,626.56L606.01,626.78L608.9,626.33L623.33,628.02L626.21,627.73L640.64,628.02L643.53,628.55L652.18,628.3L655.07,628.55L669.5,627.51L672.39,627.83L689.7,627.67L692.59,627.35L732.99,625.69L735.87,625.79L741.64,625.34L744.53,625.85L747.42,625.4L750.3,625.72L756.07,625.31L758.96,625.31L773.39,626.04L776.27,626.11L787.81,626.84L790.7,626.65L802.25,626.88L805.13,627.48L808.02,628.14L810.9,627.83L822.44,629.21L825.33,628.99L854.19,629.83L857.08,628.35L859.96,606.89L862.85,578.66L865.73,571.35L868.62,571.54L874.39,571.6L877.27,571.66L880.16,572.24L883.05,572L885.93,573.16L888.82,573.37L900.36,574.76L903.25,575.65L906.13,577.22L909.02,582.91L911.9,592.07L914.79,604.6L917.68,610.04L920.56,619.27L923.45,621.28L926.33,624.7L932.1,625.31L934.99,625.31L958.08,625.31L960.96,623.61L963.85,608.09L966.73,566.61L1010.02,566.61L1012.9,538.28L1015.79,507.92L1018.68,505.35L1024.45,449.22L1027.34,449.22L1033.11,448.86L1035.99,439.65L1038.88,390.51L1041.76,383.09L1044.65,336.79L1047.53,331.83L1079.28,331.42L1082.17,310.07L1085.05,273.14L1087.94,273.14L1102.36,273.14L1105.25,214.44L1119.68,214.44L1122.56,182.82L1125.45,154.95L1128.34,113.18L1131.22,98.23L1134.11,96.8L1160.08,96.26L1162.97,96.18L1188.94,95.82L1191.82,39.97L1194.71,37.16L1197.6,37.12L1203.37,37.13L1206.25,55.4L1209.14,95.76L1212.02,95.86L1269.74,96.53L1272.62,96.65L1278.4,96.67L1281.28,131.33L1287.05,155.2L1289.94,154.91L1292.82,154.76L1295.71,153.74L1304.37,152.9L1307.26,153.4L1313.03,154.8L1315.91,155.62L1330.34,155.75L1333.23,156.87L1336.11,197.4L1339,214.44L1370.74,214.44L1373.63,271.45L1376.51,271.45L1379.4,273.14L1390.94,273.14L1393.83,331.83L1396.71,331.83L1399.6,333.34L1408.26,356.78L1411.14,383.94L1414.03,426.31L1416.91,441.51L1419.8,449.22L1422.69,449.22L1440,449.22" style="vector-effect: none; fill: none; stroke: rgb(239, 85, 59); stroke-opacity: 1; stroke-width: 3px; opacity: 1;"/></g><g class="points"/><g class="text"/></g><g class="trace scatter tracef995ec" style="stroke-miterlimit: 2; opacity: 1;"><g class="fills"/><g class="errorbars"/><g class="lines"><path class="js-line" d="M0,684L499.24,683.35L502.12,682.85L505.01,681.69L507.9,678.96L510.78,677.56L513.67,671.39L516.56,668.29L519.44,655.26L522.33,650.86L525.21,637.36L530.98,636.38L533.87,636.12L542.53,634.97L545.41,634.91L556.95,635.21L559.84,635.3L582.93,635.82L585.81,636.87L588.7,637.39L591.58,644.58L594.47,649.26L597.36,671.19L600.24,681.57L603.13,683.74L611.78,684L614.67,684L672.38,683.69L675.27,649.98L678.16,625.63L681.04,625.31L686.82,625.21L689.7,623.82L695.47,621.32L698.36,621.53L701.24,621.84L704.13,623.97L707.02,625.31L709.9,625.31L989.82,625.31L992.71,566.61L1015.79,566.61L1018.68,561.55L1024.45,535.01L1027.33,526.27L1030.22,457.78L1033.11,461.44L1038.88,424.98L1041.76,396.97L1044.65,390.54L1047.54,389.88L1053.31,390.44L1056.19,389.34L1061.96,385.8L1064.85,380.55L1067.74,378.26L1070.62,369.47L1073.51,361.81L1076.39,357.92L1079.28,348.3L1082.16,343.6L1087.94,342.44L1090.82,340.52L1093.71,337.6L1096.59,278.81L1102.37,249.28L1105.25,207.26L1108.14,160.78L1111.02,160.59L1113.91,160.04L1116.79,160.52L1122.56,159.32L1125.45,159.59L1131.22,159.07L1134.11,157.97L1151.42,156.9L1154.31,156.76L1162.97,156.44L1165.85,155.66L1177.39,154.71L1180.28,153.95L1186.05,153.5L1188.94,154.02L1194.71,153.62L1197.59,95.06L1203.37,95.3L1206.25,94.75L1209.14,36L1212.03,92.98L1214.91,93.99L1217.8,94L1220.68,95.58L1223.57,102.78L1226.45,106.57L1229.34,138.04L1235.11,151.58L1238,151.42L1243.77,150.96L1246.65,151.02L1269.74,150.96L1272.63,150.87L1278.4,151.04L1281.28,151.41L1289.94,152.22L1292.83,153.24L1301.49,155.23L1304.37,159.65L1307.25,168.09L1310.14,203.53L1315.91,214.44L1318.8,214.44L1344.77,214.44L1347.65,257.35L1350.54,257.35L1353.43,273.14L1370.74,273.14L1373.63,283.98L1376.51,331.48L1379.4,331.83L1425.57,331.83L1428.46,390.53L1440,390.53" style="vector-effect: none; fill: none; stroke: rgb(0, 204, 150); stroke-opacity: 1; stroke-width: 3px; opacity: 1;"/></g><g class="points"/><g class="text"/></g><g class="trace scatter trace07280f" style="stroke-miterlimit: 2; opacity: 1;"><g class="fills"/><g class="errorbars"/><g class="lines"><path class="js-line" d="M0,684L842.65,684L845.53,683.04L848.42,679.45L851.31,661.82L854.19,648.48L857.08,648.43L859.96,648.38L862.85,624.98L865.73,624.94L868.62,620.7L874.39,577.16L877.28,565.88L888.82,565.63L891.71,565.63L929.22,565.89L932.11,563.7L934.99,560.41L937.88,555.73L940.76,519.12L943.65,515.48L946.54,507.77L949.42,507.8L969.62,507.92L972.5,507.92L1010.02,507.92L1012.91,507.03L1015.79,505.49L1018.68,501.83L1021.56,455.5L1024.45,449.22L1050.42,449.22L1053.31,390.53L1064.85,390.53L1067.74,339.92L1070.62,339.92L1073.51,330.94L1076.39,322.12L1079.28,273.14L1116.79,272.52L1119.68,293.78L1122.57,314.39L1125.45,326.38L1128.34,325.28L1131.22,319.97L1134.11,313.9L1136.99,309.79L1139.88,235.11L1142.77,228.27L1145.65,224.43L1148.54,224.43L1151.42,224.43L1154.31,217.23L1157.2,200.17L1160.08,158.58L1165.85,155.75L1168.74,155.75L1174.51,155.27L1177.4,152.78L1180.28,150.42L1183.17,129.1L1186.05,110.43L1188.94,99.73L1191.83,97.05L1194.71,97.05L1197.6,88.28L1200.48,38.36L1214.91,38.36L1217.8,80.85L1220.68,97.05L1223.57,97.05L1336.11,97.05L1339,108.91L1341.89,206.77L1344.77,213.23L1347.66,214.44L1350.54,214.44L1364.97,214.44L1367.86,155.75L1382.28,155.75L1385.17,162.93L1388.06,214.44L1390.94,214.44L1399.6,214.44L1402.49,271.74L1405.37,273.14L1408.26,273.14L1440,273.14" style="vector-effect: none; fill: none; stroke: rgb(171, 99, 250); stroke-opacity: 1; stroke-width: 3px; opacity: 1;"/></g><g class="points"/><g class="text"/></g><g class="trace scatter trace91a0fa" style="stroke-miterlimit: 2; opacity: 1;"><g class="fills"/><g class="errorbars"/><g class="lines"><path class="js-line" d="M0,684L611.78,683.69L614.67,682.07L617.56,681.33L620.44,678.36L626.21,671.93L629.1,661.52L634.87,661.52L637.76,642.86L640.64,636.58L643.53,635.82L649.3,633.51L652.19,633.51L660.84,633L663.73,633.54L672.39,633.87L675.27,634.14L689.7,634.59L692.59,634.56L701.24,635.06L704.13,635.15L727.22,635.44L730.1,635.47L738.76,635.91L741.64,636.29L747.41,636L750.3,636.14L767.62,636.35L770.5,636.14L793.59,638.48L796.47,639.16L802.24,641.11L805.13,641.69L819.56,645.89L822.44,646.62L833.99,646.85L836.87,647.65L842.64,647.57L845.53,647.34L859.96,648.05L862.85,647.8L885.93,648.15L888.82,647.85L926.33,646.15L929.22,645.4L932.1,645.4L934.99,644.47L949.42,643.75L952.3,643.19L960.96,643.4L963.85,616.36L966.73,584.71L969.62,584.71L978.28,584.52L981.16,581.98L986.93,581.98L989.82,579.16L1001.36,578.49L1004.25,575.33L1010.02,575.33L1012.91,559.62L1015.79,544.09L1018.68,521.97L1021.56,509.23L1024.45,507.92L1027.34,506.5L1030.22,449.22L1082.17,449.22L1085.05,443.48L1087.94,428.32L1090.82,391.11L1093.71,388.08L1096.59,290.75L1099.48,273.14L1102.37,273.14L1108.14,273.14L1111.02,270.95L1113.91,214.44L1116.79,214.44L1128.34,214.44L1131.22,243.41L1134.11,243.41L1137,265.62L1139.88,244.96L1142.77,244.96L1145.65,214.44L1148.54,214.44L1174.51,214.44L1177.4,157.51L1180.28,155.75L1183.17,155.75L1188.94,155.75L1191.82,212.53L1194.71,214.44L1197.59,213.3L1200.48,155.75L1203.37,155.75L1223.57,155.75L1226.46,154.87L1232.23,97.05L1235.11,97.05L1382.28,97.05L1385.17,117.01L1388.06,135.53L1390.94,149.06L1393.83,155.75L1396.71,155.75L1419.8,155.75L1422.69,206.63L1425.57,214.44L1428.46,214.44L1437.11,214.44L1440,235.79" style="vector-effect: none; fill: none; stroke: rgb(255, 161, 90); stroke-opacity: 1; stroke-width: 3px; opacity: 1;"/></g><g class="points"/><g class="text"/></g></g></g></g><path class="xlines-above crisp" d="M0,0" style="fill: none;"/><path class="ylines-above crisp" d="M0,0" style="fill: none;"/><g class="overlines-above"/><g class="xaxislayer-above"><g class="xtick"><text text-anchor="middle" x="0" y="841" transform="translate(221.4,0)" style="font-family: 'Open Sans', verdana, arial, sans-serif; font-size: 20px; fill: rgb(42, 63, 95); fill-opacity: 1; white-space: pre; opacity: 1;">1</text></g><g class="xtick"><text text-anchor="middle" x="0" y="841" style="font-family: 'Open Sans', verdana, arial, sans-serif; font-size: 20px; fill: rgb(42, 63, 95); fill-opacity: 1; white-space: pre; opacity: 1;" transform="translate(365.69,0)">2</text></g><g class="xtick"><text text-anchor="middle" x="0" y="841" style="font-family: 'Open Sans', verdana, arial, sans-serif; font-size: 20px; fill: rgb(42, 63, 95); fill-opacity: 1; white-space: pre; opacity: 1;" transform="translate(509.98,0)">3</text></g><g class="xtick"><text text-anchor="middle" x="0" y="841" style="font-family: 'Open Sans', verdana, arial, sans-serif; font-size: 20px; fill: rgb(42, 63, 95); fill-opacity: 1; white-space: pre; opacity: 1;" transform="translate(654.27,0)">4</text></g><g class="xtick"><text text-anchor="middle" x="0" y="841" style="font-family: 'Open Sans', verdana, arial, sans-serif; font-size: 20px; fill: rgb(42, 63, 95); fill-opacity: 1; white-space: pre; opacity: 1;" transform="translate(798.56,0)">5</text></g><g class="xtick"><text text-anchor="middle" x="0" y="841" style="font-family: 'Open Sans', verdana, arial, sans-serif; font-size: 20px; fill: rgb(42, 63, 95); fill-opacity: 1; white-space: pre; opacity: 1;" transform="translate(942.85,0)">6</text></g><g class="xtick"><text text-anchor="middle" x="0" y="841" style="font-family: 'Open Sans', verdana, arial, sans-serif; font-size: 20px; fill: rgb(42, 63, 95); fill-opacity: 1; white-space: pre; opacity: 1;" transform="translate(1087.13,0)">7</text></g><g class="xtick"><text text-anchor="middle" x="0" y="841" style="font-family: 'Open Sans', verdana, arial, sans-serif; font-size: 20px; fill: rgb(42, 63, 95); fill-opacity: 1; white-space: pre; opacity: 1;" transform="translate(1231.42,0)">8</text></g><g class="xtick"><text text-anchor="middle" x="0" y="841" style="font-family: 'Open Sans', verdana, arial, sans-serif; font-size: 20px; fill: rgb(42, 63, 95); fill-opacity: 1; white-space: pre; opacity: 1;" transform="translate(1375.71,0)">9</text></g><g class="xtick"><text text-anchor="middle" x="0" y="841" style="font-family: 'Open Sans', verdana, arial, sans-serif; font-size: 20px; fill: rgb(42, 63, 95); fill-opacity: 1; white-space: pre; opacity: 1;" transform="translate(1520,0)">10</text></g></g><g class="yaxislayer-above"><g class="ytick"><text text-anchor="end" x="79" y="7" transform="translate(0,784)" style="font-family: 'Open Sans', verdana, arial, sans-serif; font-size: 20px; fill: rgb(42, 63, 95); fill-opacity: 1; white-space: pre; opacity: 1;">0</text></g><g class="ytick"><text text-anchor="end" x="79" y="7" style="font-family: 'Open Sans', verdana, arial, sans-serif; font-size: 20px; fill: rgb(42, 63, 95); fill-opacity: 1; white-space: pre; opacity: 1;" transform="translate(0,643.13)">0.2</text></g><g class="ytick"><text text-anchor="end" x="79" y="7" style="font-family: 'Open Sans', verdana, arial, sans-serif; font-size: 20px; fill: rgb(42, 63, 95); fill-opacity: 1; white-space: pre; opacity: 1;" transform="translate(0,502.27)">0.4</text></g><g class="ytick"><text text-anchor="end" x="79" y="7" style="font-family: 'Open Sans', verdana, arial, sans-serif; font-size: 20px; fill: rgb(42, 63, 95); fill-opacity: 1; white-space: pre; opacity: 1;" transform="translate(0,361.4)">0.6</text></g><g class="ytick"><text text-anchor="end" x="79" y="7" style="font-family: 'Open Sans', verdana, arial, sans-serif; font-size: 20px; fill: rgb(42, 63, 95); fill-opacity: 1; white-space: pre; opacity: 1;" transform="translate(0,220.53)">0.8</text></g></g><g class="overaxes-above"/></g></g><g class="polarlayer"/><g class="smithlayer"/><g class="ternarylayer"/><g class="geolayer"/><g class="funnelarealayer"/><g class="pielayer"/><g class="iciclelayer"/><g class="treemaplayer"/><g class="sunburstlayer"/><g class="glimages"/><defs id="topdefs-4671a9"><g class="clips"/><clipPath id="legend4671a9"><rect width="84" height="181" x="0" y="0"/></clipPath></defs><g class="layer-above"><g class="imagelayer"/><g class="shapelayer"/></g><g class="infolayer"><g class="legend" pointer-events="all" transform="translate(242.72,110.08000000000001)"><rect class="bg" shape-rendering="crispEdges" width="84" height="181" x="0" y="0" style="stroke: rgb(68, 68, 68); stroke-opacity: 1; fill: rgb(255, 255, 255); fill-opacity: 1; stroke-width: 0px;"/><g class="scrollbox" transform="" clip-path="url(#legend4671a9)"><g class="groups"><g class="traces" transform="translate(0,22.1)" style="opacity: 1;"><text class="legendtext" text-anchor="start" x="40" y="9.360000000000001" style="font-family: 'Open Sans', verdana, arial, sans-serif; font-size: 24px; fill: rgb(42, 63, 95); fill-opacity: 1; white-space: pre;">1m</text><g class="layers" style="opacity: 1;"><g class="legendfill"/><g class="legendlines"><path class="js-line" d="M5,0h30" style="fill: none; stroke: rgb(99, 110, 250); stroke-opacity: 1; stroke-width: 3px;"/></g><g class="legendsymbols"><g class="legendpoints"/></g></g><rect class="legendtoggle" x="0" y="-17.1" width="78.609375" height="34.2" style="fill: rgb(0, 0, 0); fill-opacity: 0;"/></g><g class="traces" transform="translate(0,56.300000000000004)" style="opacity: 1;"><text class="legendtext" text-anchor="start" x="40" y="9.360000000000001" style="font-family: 'Open Sans', verdana, arial, sans-serif; font-size: 24px; fill: rgb(42, 63, 95); fill-opacity: 1; white-space: pre;">2m</text><g class="layers" style="opacity: 1;"><g class="legendfill"/><g class="legendlines"><path class="js-line" d="M5,0h30" style="fill: none; stroke: rgb(239, 85, 59); stroke-opacity: 1; stroke-width: 3px;"/></g><g class="legendsymbols"><g class="legendpoints"/></g></g><rect class="legendtoggle" x="0" y="-17.1" width="78.609375" height="34.2" style="fill: rgb(0, 0, 0); fill-opacity: 0;"/></g><g class="traces" transform="translate(0,90.5)" style="opacity: 1;"><text class="legendtext" text-anchor="start" x="40" y="9.360000000000001" style="font-family: 'Open Sans', verdana, arial, sans-serif; font-size: 24px; fill: rgb(42, 63, 95); fill-opacity: 1; white-space: pre;">3m</text><g class="layers" style="opacity: 1;"><g class="legendfill"/><g class="legendlines"><path class="js-line" d="M5,0h30" style="fill: none; stroke: rgb(0, 204, 150); stroke-opacity: 1; stroke-width: 3px;"/></g><g class="legendsymbols"><g class="legendpoints"/></g></g><rect class="legendtoggle" x="0" y="-17.1" width="78.609375" height="34.2" style="fill: rgb(0, 0, 0); fill-opacity: 0;"/></g><g class="traces" transform="translate(0,124.70000000000002)" style="opacity: 1;"><text class="legendtext" text-anchor="start" x="40" y="9.360000000000001" style="font-family: 'Open Sans', verdana, arial, sans-serif; font-size: 24px; fill: rgb(42, 63, 95); fill-opacity: 1; white-space: pre;">4m</text><g class="layers" style="opacity: 1;"><g class="legendfill"/><g class="legendlines"><path class="js-line" d="M5,0h30" style="fill: none; stroke: rgb(171, 99, 250); stroke-opacity: 1; stroke-width: 3px;"/></g><g class="legendsymbols"><g class="legendpoints"/></g></g><rect class="legendtoggle" x="0" y="-17.1" width="78.609375" height="34.2" style="fill: rgb(0, 0, 0); fill-opacity: 0;"/></g><g class="traces" transform="translate(0,158.9)" style="opacity: 1;"><text class="legendtext" text-anchor="start" x="40" y="9.360000000000001" style="font-family: 'Open Sans', verdana, arial, sans-serif; font-size: 24px; fill: rgb(42, 63, 95); fill-opacity: 1; white-space: pre;">5m</text><g class="layers" style="opacity: 1;"><g class="legendfill"/><g class="legendlines"><path class="js-line" d="M5,0h30" style="fill: none; stroke: rgb(255, 161, 90); stroke-opacity: 1; stroke-width: 3px;"/></g><g class="legendsymbols"><g class="legendpoints"/></g></g><rect class="legendtoggle" x="0" y="-17.1" width="78.609375" height="34.2" style="fill: rgb(0, 0, 0); fill-opacity: 0;"/></g></g></g><rect class="scrollbar" rx="20" ry="3" width="0" height="0" x="0" y="0" style="fill: rgb(128, 139, 164); fill-opacity: 1;"/></g><g class="g-gtitle"><text class="gtitle" x="800" y="50" text-anchor="middle" dy="0.7em" style="opacity: 1; font-family: 'Open Sans', verdana, arial, sans-serif; font-size: 20px; fill: rgb(42, 63, 95); fill-opacity: 1; font-weight: bold; white-space: pre;">No Yielding, Front and no eHMI</text></g><g class="g-xtitle"><text class="xtitle" x="800" y="873.5" text-anchor="middle" style="opacity: 1; font-family: 'Open Sans', verdana, arial, sans-serif; font-size: 20px; fill: rgb(42, 63, 95); fill-opacity: 1; white-space: pre;">Time (in seconds)</text></g><g class="g-ytitle"><text class="ytitle" transform="rotate(-90,24.78125,460)" x="24.78125" y="460" text-anchor="middle" style="opacity: 1; font-family: 'Open Sans', verdana, arial, sans-serif; font-size: 20px; fill: rgb(42, 63, 95); fill-opacity: 1; white-space: pre;">Trigger press</text></g></g></svg>