<svg class="main-svg" xmlns="http://www.w3.org/2000/svg" xmlns:xlink="http://www.w3.org/1999/xlink" width="4800" height="2700" style="" viewBox="0 0 1600 900"><rect x="0" y="0" width="1600" height="900" style="fill: rgb(255, 255, 255); fill-opacity: 1;"/><defs id="defs-75badd"><g class="clips"><clipPath id="clip75baddxyplot" class="plotclip"><rect width="1440" height="720"/></clipPath><clipPath class="axesclip" id="clip75baddx"><rect x="80" y="0" width="1440" height="900"/></clipPath><clipPath class="axesclip" id="clip75baddy"><rect x="0" y="100" width="1600" height="720"/></clipPath><clipPath class="axesclip" id="clip75baddxy"><rect x="80" y="100" width="1440" height="720"/></clipPath></g><g class="gradients"/><g class="patterns"/></defs><g class="bglayer"><rect class="bg" x="80" y="100" width="1440" height="720" style="fill: rgb(229, 236, 246); fill-opacity: 1; stroke-width: 0;"/></g><g class="layer-below"><g class="imagelayer"/><g class="shapelayer"/></g><g class="cartesianlayer"><g class="subplot xy"><g class="layer-subplot"><g class="shapelayer"/><g class="imagelayer"/></g><g class="minor-gridlayer"><g class="x"/><g class="y"/></g><g class="gridlayer"><g class="x"><path class="xgrid crisp" transform="translate(221.4,0)" d="M0,100v720" style="stroke: rgb(255, 255, 255); stroke-opacity: 1; stroke-width: 1px;"/><path class="xgrid crisp" transform="translate(365.69,0)" d="M0,100v720" style="stroke: rgb(255, 255, 255); stroke-opacity: 1; stroke-width: 1px;"/><path class="xgrid crisp" transform="translate(509.98,0)" d="M0,100v720" style="stroke: rgb(255, 255, 255); stroke-opacity: 1; stroke-width: 1px;"/><path class="xgrid crisp" transform="translate(654.27,0)" d="M0,100v720" style="stroke: rgb(255, 255, 255); stroke-opacity: 1; stroke-width: 1px;"/><path class="xgrid crisp" transform="translate(798.56,0)" d="M0,100v720" style="stroke: rgb(255, 255, 255); stroke-opacity: 1; stroke-width: 1px;"/><path class="xgrid crisp" transform="translate(942.85,0)" d="M0,100v720" style="stroke: rgb(255, 255, 255); stroke-opacity: 1; stroke-width: 1px;"/><path class="xgrid crisp" transform="translate(1087.13,0)" d="M0,100v720" style="stroke: rgb(255, 255, 255); stroke-opacity: 1; stroke-width: 1px;"/><path class="xgrid crisp" transform="translate(1231.42,0)" d="M0,100v720" style="stroke: rgb(255, 255, 255); stroke-opacity: 1; stroke-width: 1px;"/><path class="xgrid crisp" transform="translate(1375.71,0)" d="M0,100v720" style="stroke: rgb(255, 255, 255); stroke-opacity: 1; stroke-width: 1px;"/></g><g class="y"><path class="ygrid crisp" transform="translate(0,641.73)" d="M80,0h1440" style="stroke: rgb(255, 255, 255); stroke-opacity: 1; stroke-width: 1px;"/><path class="ygrid crisp" transform="translate(0,499.46)" d="M80,0h1440" style="stroke: rgb(255, 255, 255); stroke-opacity: 1; stroke-width: 1px;"/><path class="ygrid crisp" transform="translate(0,357.19)" d="M80,0h1440" style="stroke: rgb(255, 255, 255); stroke-opacity: 1; stroke-width: 1px;"/><path class="ygrid crisp" transform="translate(0,214.92000000000002)" d="M80,0h1440" style="stroke: rgb(255, 255, 255); stroke-opacity: 1; stroke-width: 1px;"/></g></g><g class="zerolinelayer"><path class="yzl zl crisp" transform="translate(0,784)" d="M80,0h1440" style="stroke: rgb(255, 255, 255); stroke-opacity: 1; stroke-width: 2px;"/></g><g class="layer-between"><g class="shapelayer"/><g class="imagelayer"/></g><path class="xlines-below"/><path class="ylines-below"/><g class="overlines-below"/><g class="xaxislayer-below"/><g class="yaxislayer-below"/><g class="overaxes-below"/><g class="overplot"><g class="xy" transform="translate(80,100)" clip-path="url(#clip75baddxyplot)"><g class="scatterlayer mlayer"><g class="trace scatter tracee27507" style="stroke-miterlimit: 2; opacity: 1;"><g class="fills"/><g class="errorbars"/><g class="lines"><path class="js-line" d="M0,684L470.38,684L473.27,681.86L476.15,681.86L479.04,678.39L481.93,673.29L484.81,663.03L487.7,663.03L490.58,661.72L496.35,661.27L499.24,655.66L502.13,650.58L505.01,635.14L507.9,635.14L510.78,634.06L525.21,632.56L528.1,632.62L545.41,631.83L548.3,631.98L562.73,632.16L565.61,632.04L571.38,631.92L574.27,631.95L582.93,631.92L585.81,631.95L591.58,631.92L594.47,631.89L608.9,632.01L611.78,631.73L672.39,631.83L675.27,632.59L681.04,633.04L683.93,633.43L704.13,634.33L707.01,634.72L715.67,636.14L718.56,631.99L721.44,634.16L724.33,590.38L727.22,585.92L730.1,585.92L732.99,588.7L735.87,589.13L738.76,590.41L741.64,593.12L744.53,594.96L747.41,598.3L753.19,598.93L756.07,601.3L761.84,606.11L764.73,606.11L770.5,609.2L773.39,609.64L779.16,610.3L782.05,612.14L784.93,612.14L787.82,613.12L805.13,614.8L808.02,615.7L903.25,618.93L906.13,619.27L917.68,619.9L920.56,614.29L923.45,560.9L926.33,561.06L986.93,561.25L989.82,502.06L1007.13,502.25L1010.02,502.52L1021.56,503.14L1024.45,503.42L1038.88,503.28L1041.76,503.28L1056.19,502.88L1059.08,502.91L1067.74,503.15L1070.62,501.12L1073.51,435.93L1076.39,425.66L1079.28,392.23L1082.16,384.07L1096.59,382.69L1099.48,382.55L1113.91,382.11L1116.79,363.75L1119.68,326.85L1122.56,322.6L1134.11,322.08L1136.99,330.66L1139.88,365.42L1142.76,321.56L1145.65,321.47L1148.54,318.5L1151.42,261.9L1154.31,261.86L1160.08,261.04L1162.97,258.63L1165.85,257.67L1168.74,248.62L1171.62,243.71L1174.51,225.19L1177.39,215.74L1180.28,197.37L1183.17,185.81L1186.05,167.96L1188.94,158.53L1191.82,157.17L1194.71,155.87L1197.6,152.88L1200.48,150.49L1203.37,150.49L1298.6,151.24L1301.48,151.53L1304.37,152.94L1307.25,152.53L1310.14,152.94L1313.03,154.97L1315.91,162.22L1318.8,200.73L1321.68,203.33L1324.57,222.56L1327.45,247.81L1330.34,261.31L1333.23,264.37L1336.11,269.05L1364.97,269.05L1367.86,277.07L1370.74,318.57L1373.63,328.33L1376.51,332.77L1379.4,335.31L1382.28,338.12L1385.17,338.3L1388.06,338.42L1390.94,394.21L1393.83,394.44L1396.71,400.28L1399.6,403.71L1402.48,426.58L1408.25,443.19L1411.14,486.87L1414.03,486.87L1416.91,493.27L1419.8,547.17L1422.69,565.44L1437.11,565.44L1440,569.63" style="vector-effect: none; fill: none; stroke: rgb(99, 110, 250); stroke-opacity: 1; stroke-width: 3px; opacity: 1;"/></g><g class="points"/><g class="text"/></g><g class="trace scatter trace25cf96" style="stroke-miterlimit: 2; opacity: 1;"><g class="fills"/><g class="errorbars"/><g class="lines"><path class="js-line" d="M0,684L458.84,683.54L461.72,682.75L467.5,683.27L470.38,683.99L689.7,684L692.59,684L727.22,683.82L730.1,667.15L732.99,630.75L735.87,624.72L943.65,625.11L946.53,625.57L958.08,626.15L960.96,626.44L963.85,626.92L966.73,626.39L969.62,622.75L972.51,623.29L975.39,572.8L978.28,572.63L981.16,547.29L984.05,448.73L989.82,443.83L992.71,443.93L1001.36,448.67L1004.25,449.55L1007.13,449.53L1010.02,448.73L1012.91,448.9L1015.79,448.16L1024.45,447.71L1027.34,448.48L1061.96,447.72L1064.85,447.36L1067.74,446.23L1070.62,446.08L1085.05,445.33L1087.94,442.15L1090.82,440.91L1093.71,434.86L1096.59,422.95L1099.48,335.58L1102.36,282.54L1105.25,277.62L1108.14,272.58L1111.02,272.86L1125.45,272.36L1128.34,272.74L1134.11,272.58L1136.99,253.91L1139.88,213.17L1142.77,213.24L1154.31,213.43L1157.19,212.98L1162.97,213.02L1165.85,212.92L1168.74,213.11L1171.62,211.61L1174.51,211.54L1177.4,170.4L1180.28,170.68L1183.17,156.57L1186.05,156.85L1188.94,158.71L1194.71,168.06L1197.6,211.75L1200.48,213.27L1203.37,213.17L1220.68,212.6L1223.57,213.24L1235.11,212.98L1238,213.14L1243.77,212.76L1246.65,212.86L1261.08,213.17L1263.97,212.76L1284.17,212.89L1287.05,213.05L1298.6,213.46L1301.48,213.21L1310.14,212.98L1313.03,213.52L1321.68,213.24L1324.57,213.43L1330.34,213.17L1333.23,213.17L1336.11,213.68L1339,213.02L1344.77,213.46L1347.66,212.76L1353.43,213.52L1356.31,213.27L1364.97,213.11L1367.86,215.88L1370.74,238.39L1373.63,273.94L1376.51,284.24L1379.4,290.77L1382.28,316.09L1385.17,317.63L1388.06,317.3L1390.94,315.75L1399.6,316.46L1402.49,318.14L1408.26,375.49L1411.14,385.32L1414.03,388.99L1416.91,389.93L1425.57,390.47L1428.46,390.06L1434.23,390.34L1437.11,390.47L1440,390.47" style="vector-effect: none; fill: none; stroke: rgb(239, 85, 59); stroke-opacity: 1; stroke-width: 3px; opacity: 1;"/></g><g class="points"/><g class="text"/></g><g class="trace scatter traceba40a2" style="stroke-miterlimit: 2; opacity: 1;"><g class="fills"/><g class="errorbars"/><g class="lines"><path class="js-line" d="M0,684L507.9,683.68L510.78,683.07L519.44,682L522.33,681.32L542.53,678.8L545.41,677.79L548.3,673.55L551.18,670.69L554.07,668.26L556.96,666.81L565.61,665.76L568.5,662.56L571.38,658.57L574.27,652.21L577.16,644.27L580.04,639.03L582.93,634.81L585.81,634.06L591.58,633.58L594.47,634.12L600.24,635.43L603.12,635.82L629.1,636.61L631.98,636.69L643.53,636.81L646.41,636.81L652.18,636.96L655.07,636.81L704.13,637.68L707.01,638.14L712.78,639.05L715.67,639.51L718.56,641.05L721.44,641.27L744.53,643.05L747.41,643.03L764.73,643.62L767.61,643.57L782.04,643.27L784.93,644.08L796.47,643.84L799.36,643.84L805.13,645.88L808.02,645.88L825.33,648.51L828.22,648.66L836.87,650.36L839.76,650.36L842.64,652.47L845.53,652.75L854.19,653.68L857.07,654.23L859.96,654.07L862.85,654.88L894.59,655.6L897.47,596.54L911.9,596.56L914.79,596.58L932.1,597.26L934.99,597.17L949.42,597.88L952.3,598.08L955.19,597.13L958.08,567.1L960.96,551.06L963.85,542.07L966.73,539.8L969.62,539.63L978.28,540.21L981.16,541.02L984.05,541.02L986.93,483.09L989.82,483.09L992.71,484.54L995.59,484.76L998.48,480.62L1001.36,430.08L1004.25,426.77L1012.91,427.76L1015.79,428.04L1047.54,427.61L1050.42,419.28L1056.19,313.1L1059.08,308.97L1076.39,308.37L1079.28,308.14L1099.48,307.61L1102.37,307.52L1113.91,307.27L1116.79,307.2L1119.68,248.21L1122.56,247.54L1125.45,244.66L1128.34,239.26L1131.22,238.12L1134.11,225.16L1136.99,210.17L1139.88,187.87L1142.76,186.11L1145.65,185.56L1151.42,180.77L1154.31,175.69L1157.19,156.82L1160.08,122.14L1162.96,72.47L1165.85,56.26L1168.74,50.02L1171.62,47.87L1174.51,43.26L1177.39,42.38L1180.28,42.38L1183.16,99.5L1186.05,98.29L1188.94,98.29L1191.82,96.09L1194.71,95.44L1197.59,92.02L1200.48,91.21L1212.02,91.21L1214.91,95.28L1217.79,117.32L1220.68,149.58L1226.45,149.58L1229.34,150.49L1252.42,150.49L1255.31,144.7L1258.2,131.03L1261.08,91.21L1310.14,91.67L1313.03,105.23L1315.91,135.51L1318.8,136.32L1321.68,153.07L1324.57,153.64L1327.45,155.75L1330.34,156.52L1333.23,158.08L1336.11,158.39L1347.65,163.94L1350.54,163.94L1359.2,164.17L1362.08,162.99L1367.86,162.99L1370.74,161.67L1373.63,161.38L1376.51,220.6L1382.28,220.01L1385.17,220.01L1405.37,218.78L1408.26,218.3L1414.03,221.03L1416.91,227.53L1419.8,230.05L1422.69,243.53L1428.45,292.22L1431.34,331.76L1434.23,389.49L1437.11,393.69L1440,394.63" style="vector-effect: none; fill: none; stroke: rgb(0, 204, 150); stroke-opacity: 1; stroke-width: 3px; opacity: 1;"/></g><g class="points"/><g class="text"/></g><g class="trace scatter trace2611cf" style="stroke-miterlimit: 2; opacity: 1;"><g class="fills"/><g class="errorbars"/><g class="lines"><path class="js-line" d="M0,684L750.3,684L753.19,682.91L756.07,682.27L758.96,678.5L761.85,674.3L764.73,671.65L767.62,660.82L770.5,656.45L773.39,642.26L776.27,637.19L779.16,634.9L782.05,634.21L787.82,633.4L790.7,633.55L802.25,633.65L805.13,633.83L810.9,633.83L813.79,633.74L819.56,634.6L822.45,634.66L831.1,635.05L833.99,635.49L842.65,635.34L845.53,635.49L851.31,636.05L854.19,636.02L862.85,636.43L865.73,635.62L868.62,599.78L871.51,577.97L877.27,579.6L880.16,581.88L883.05,583.31L885.93,589.89L888.82,593L891.71,601.65L894.59,602.82L897.48,602.15L900.36,604.33L903.25,608.64L906.14,554.23L909.02,556.37L911.91,562.6L914.79,564.85L920.56,565.44L923.45,565.44L1015.79,565.44L1018.68,561.95L1021.56,561.95L1024.45,512.87L1027.34,506.16L1030.22,506.16L1059.08,506.16L1061.96,500.21L1064.85,446.89L1067.74,446.69L1073.51,445.66L1076.39,442.61L1079.28,440.79L1082.17,430.38L1085.05,414.68L1087.94,403.93L1090.82,397.67L1093.71,394.84L1099.48,382.15L1102.37,378.57L1108.14,361.83L1111.02,356.79L1113.91,340.88L1116.79,339.72L1119.68,338.21L1122.57,327.33L1125.45,275.11L1128.34,274.15L1134.11,273.15L1137,273.52L1139.88,223.23L1142.77,214.06L1145.65,214.18L1148.54,213.33L1151.42,155.28L1154.31,154.59L1160.08,155.22L1162.97,155.03L1171.62,154.93L1174.51,155.28L1203.37,155.22L1206.25,121.71L1209.14,96.03L1212.03,95.15L1214.91,48.66L1217.8,36.72L1223.57,36L1226.45,95.53L1229.34,95.69L1232.23,95.09L1243.77,93.47L1246.66,93.18L1252.43,92.44L1255.31,92.09L1269.74,91.21L1272.63,91.21L1287.06,91.21L1289.94,117.63L1292.83,136.76L1295.71,150.49L1396.71,150.49L1399.6,197.69L1402.49,209.77L1405.37,209.77L1419.8,209.77L1422.69,223.16L1425.57,237.21L1428.46,284.83L1434.23,284.83L1437.11,328.33L1440,328.33" style="vector-effect: none; fill: none; stroke: rgb(171, 99, 250); stroke-opacity: 1; stroke-width: 3px; opacity: 1;"/></g><g class="points"/><g class="text"/></g><g class="trace scatter trace08f32b" style="stroke-miterlimit: 2; opacity: 1;"><g class="fills"/><g class="errorbars"/><g class="lines"><path class="js-line" d="M0,684L467.5,683.5L470.38,683.03L476.15,682.08L479.04,681.85L499.24,677.07L502.13,675.15L505.01,674.47L507.9,672.91L516.56,671.2L519.44,671.03L528.1,670.37L530.98,670.76L542.53,671.28L545.41,671.19L559.84,672.53L562.73,672.59L594.47,674.3L597.36,674.74L606.02,675.8L608.9,675.97L614.67,676.23L617.56,676.43L640.64,679.8L643.53,680.67L649.3,681.94L652.19,682.23L660.85,682.88L663.73,683.3L672.39,684L675.27,684L909.02,683.44L911.91,680.66L914.79,657.73L917.68,657.73L920.56,621.15L923.45,621.38L932.11,624.15L934.99,624.41L937.88,624.46L940.76,604.57L943.65,571.75L946.53,565.44L1001.37,565.23L1004.25,563.28L1007.13,541.23L1010.02,504.45L1012.91,452.08L1015.79,446.89L1038.88,446.89L1041.77,442.68L1047.54,387.61L1050.42,387.61L1061.97,387.61L1064.85,383.18L1067.74,328.33L1070.62,328.33L1082.17,328.33L1085.05,333.09L1087.94,368.32L1090.82,376.47L1093.71,339.16L1096.59,339.16L1099.48,339.16L1102.37,330.04L1108.14,328.62L1111.02,328.33L1194.71,327.58L1197.6,327.57L1220.68,327.09L1223.57,325.99L1229.34,324.31L1232.22,283.35L1235.11,257.19L1238,250.9L1240.88,240.32L1243.77,222.35L1246.66,219.41L1249.54,238.87L1252.43,269.75L1255.31,271.88L1258.2,269.76L1261.08,269.99L1281.28,269.44L1284.17,269.05L1362.09,269.05L1364.97,271.63L1370.74,271.63L1373.63,328.33L1390.94,328.33L1393.83,387.61L1405.37,387.77L1408.26,389.38L1411.14,389.87L1414.03,395.02L1416.91,396.77L1419.8,410.84L1422.69,419.6L1425.57,435.37L1428.46,445.53L1431.34,446.64L1440,446.89" style="vector-effect: none; fill: none; stroke: rgb(255, 161, 90); stroke-opacity: 1; stroke-width: 3px; opacity: 1;"/></g><g class="points"/><g class="text"/></g></g></g></g><path class="xlines-above crisp" d="M0,0" style="fill: none;"/><path class="ylines-above crisp" d="M0,0" style="fill: none;"/><g class="overlines-above"/><g class="xaxislayer-above"><g class="xtick"><text text-anchor="middle" x="0" y="841" transform="translate(221.4,0)" style="font-family: 'Open Sans', verdana, arial, sans-serif; font-size: 20px; fill: rgb(42, 63, 95); fill-opacity: 1; white-space: pre; opacity: 1;">1</text></g><g class="xtick"><text text-anchor="middle" x="0" y="841" style="font-family: 'Open Sans', verdana, arial, sans-serif; font-size: 20px; fill: rgb(42, 63, 95); fill-opacity: 1; white-space: pre; opacity: 1;" transform="translate(365.69,0)">2</text></g><g class="xtick"><text text-anchor="middle" x="0" y="841" style="font-family: 'Open Sans', verdana, arial, sans-serif; font-size: 20px; fill: rgb(42, 63, 95); fill-opacity: 1; white-space: pre; opacity: 1;" transform="translate(509.98,0)">3</text></g><g class="xtick"><text text-anchor="middle" x="0" y="841" style="font-family: 'Open Sans', verdana, arial, sans-serif; font-size: 20px; fill: rgb(42, 63, 95); fill-opacity: 1; white-space: pre; opacity: 1;" transform="translate(654.27,0)">4</text></g><g class="xtick"><text text-anchor="middle" x="0" y="841" style="font-family: 'Open Sans', verdana, arial, sans-serif; font-size: 20px; fill: rgb(42, 63, 95); fill-opacity: 1; white-space: pre; opacity: 1;" transform="translate(798.56,0)">5</text></g><g class="xtick"><text text-anchor="middle" x="0" y="841" style="font-family: 'Open Sans', verdana, arial, sans-serif; font-size: 20px; fill: rgb(42, 63, 95); fill-opacity: 1; white-space: pre; opacity: 1;" transform="translate(942.85,0)">6</text></g><g class="xtick"><text text-anchor="middle" x="0" y="841" style="font-family: 'Open Sans', verdana, arial, sans-serif; font-size: 20px; fill: rgb(42, 63, 95); fill-opacity: 1; white-space: pre; opacity: 1;" transform="translate(1087.13,0)">7</text></g><g class="xtick"><text text-anchor="middle" x="0" y="841" style="font-family: 'Open Sans', verdana, arial, sans-serif; font-size: 20px; fill: rgb(42, 63, 95); fill-opacity: 1; white-space: pre; opacity: 1;" transform="translate(1231.42,0)">8</text></g><g class="xtick"><text text-anchor="middle" x="0" y="841" style="font-family: 'Open Sans', verdana, arial, sans-serif; font-size: 20px; fill: rgb(42, 63, 95); fill-opacity: 1; white-space: pre; opacity: 1;" transform="translate(1375.71,0)">9</text></g><g class="xtick"><text text-anchor="middle" x="0" y="841" style="font-family: 'Open Sans', verdana, arial, sans-serif; font-size: 20px; fill: rgb(42, 63, 95); fill-opacity: 1; white-space: pre; opacity: 1;" transform="translate(1520,0)">10</text></g></g><g class="yaxislayer-above"><g class="ytick"><text text-anchor="end" x="79" y="7" transform="translate(0,784)" style="font-family: 'Open Sans', verdana, arial, sans-serif; font-size: 20px; fill: rgb(42, 63, 95); fill-opacity: 1; white-space: pre; opacity: 1;">0</text></g><g class="ytick"><text text-anchor="end" x="79" y="7" style="font-family: 'Open Sans', verdana, arial, sans-serif; font-size: 20px; fill: rgb(42, 63, 95); fill-opacity: 1; white-space: pre; opacity: 1;" transform="translate(0,641.73)">0.2</text></g><g class="ytick"><text text-anchor="end" x="79" y="7" style="font-family: 'Open Sans', verdana, arial, sans-serif; font-size: 20px; fill: rgb(42, 63, 95); fill-opacity: 1; white-space: pre; opacity: 1;" transform="translate(0,499.46)">0.4</text></g><g class="ytick"><text text-anchor="end" x="79" y="7" style="font-family: 'Open Sans', verdana, arial, sans-serif; font-size: 20px; fill: rgb(42, 63, 95); fill-opacity: 1; white-space: pre; opacity: 1;" transform="translate(0,357.19)">0.6</text></g><g class="ytick"><text text-anchor="end" x="79" y="7" style="font-family: 'Open Sans', verdana, arial, sans-serif; font-size: 20px; fill: rgb(42, 63, 95); fill-opacity: 1; white-space: pre; opacity: 1;" transform="translate(0,214.92000000000002)">0.8</text></g></g><g class="overaxes-above"/></g></g><g class="polarlayer"/><g class="smithlayer"/><g class="ternarylayer"/><g class="geolayer"/><g class="funnelarealayer"/><g class="pielayer"/><g class="iciclelayer"/><g class="treemaplayer"/><g class="sunburstlayer"/><g class="glimages"/><defs id="topdefs-75badd"><g class="clips"/><clipPath id="legend75badd"><rect width="84" height="181" x="0" y="0"/></clipPath></defs><g class="layer-above"><g class="imagelayer"/><g class="shapelayer"/></g><g class="infolayer"><g class="legend" pointer-events="all" transform="translate(242.72,110.08000000000001)"><rect class="bg" shape-rendering="crispEdges" width="84" height="181" x="0" y="0" style="stroke: rgb(68, 68, 68); stroke-opacity: 1; fill: rgb(255, 255, 255); fill-opacity: 1; stroke-width: 0px;"/><g class="scrollbox" transform="" clip-path="url(#legend75badd)"><g class="groups"><g class="traces" transform="translate(0,22.1)" style="opacity: 1;"><text class="legendtext" text-anchor="start" x="40" y="9.360000000000001" style="font-family: 'Open Sans', verdana, arial, sans-serif; font-size: 24px; fill: rgb(42, 63, 95); fill-opacity: 1; white-space: pre;">1m</text><g class="layers" style="opacity: 1;"><g class="legendfill"/><g class="legendlines"><path class="js-line" d="M5,0h30" style="fill: none; stroke: rgb(99, 110, 250); stroke-opacity: 1; stroke-width: 3px;"/></g><g class="legendsymbols"><g class="legendpoints"/></g></g><rect class="legendtoggle" x="0" y="-17.1" width="78.609375" height="34.2" style="fill: rgb(0, 0, 0); fill-opacity: 0;"/></g><g class="traces" transform="translate(0,56.300000000000004)" style="opacity: 1;"><text class="legendtext" text-anchor="start" x="40" y="9.360000000000001" style="font-family: 'Open Sans', verdana, arial, sans-serif; font-size: 24px; fill: rgb(42, 63, 95); fill-opacity: 1; white-space: pre;">2m</text><g class="layers" style="opacity: 1;"><g class="legendfill"/><g class="legendlines"><path class="js-line" d="M5,0h30" style="fill: none; stroke: rgb(239, 85, 59); stroke-opacity: 1; stroke-width: 3px;"/></g><g class="legendsymbols"><g class="legendpoints"/></g></g><rect class="legendtoggle" x="0" y="-17.1" width="78.609375" height="34.2" style="fill: rgb(0, 0, 0); fill-opacity: 0;"/></g><g class="traces" transform="translate(0,90.5)" style="opacity: 1;"><text class="legendtext" text-anchor="start" x="40" y="9.360000000000001" style="font-family: 'Open Sans', verdana, arial, sans-serif; font-size: 24px; fill: rgb(42, 63, 95); fill-opacity: 1; white-space: pre;">3m</text><g class="layers" style="opacity: 1;"><g class="legendfill"/><g class="legendlines"><path class="js-line" d="M5,0h30" style="fill: none; stroke: rgb(0, 204, 150); stroke-opacity: 1; stroke-width: 3px;"/></g><g class="legendsymbols"><g class="legendpoints"/></g></g><rect class="legendtoggle" x="0" y="-17.1" width="78.609375" height="34.2" style="fill: rgb(0, 0, 0); fill-opacity: 0;"/></g><g class="traces" transform="translate(0,124.70000000000002)" style="opacity: 1;"><text class="legendtext" text-anchor="start" x="40" y="9.360000000000001" style="font-family: 'Open Sans', verdana, arial, sans-serif; font-size: 24px; fill: rgb(42, 63, 95); fill-opacity: 1; white-space: pre;">4m</text><g class="layers" style="opacity: 1;"><g class="legendfill"/><g class="legendlines"><path class="js-line" d="M5,0h30" style="fill: none; stroke: rgb(171, 99, 250); stroke-opacity: 1; stroke-width: 3px;"/></g><g class="legendsymbols"><g class="legendpoints"/></g></g><rect class="legendtoggle" x="0" y="-17.1" width="78.609375" height="34.2" style="fill: rgb(0, 0, 0); fill-opacity: 0;"/></g><g class="traces" transform="translate(0,158.9)" style="opacity: 1;"><text class="legendtext" text-anchor="start" x="40" y="9.360000000000001" style="font-family: 'Open Sans', verdana, arial, sans-serif; font-size: 24px; fill: rgb(42, 63, 95); fill-opacity: 1; white-space: pre;">5m</text><g class="layers" style="opacity: 1;"><g class="legendfill"/><g class="legendlines"><path class="js-line" d="M5,0h30" style="fill: none; stroke: rgb(255, 161, 90); stroke-opacity: 1; stroke-width: 3px;"/></g><g class="legendsymbols"><g class="legendpoints"/></g></g><rect class="legendtoggle" x="0" y="-17.1" width="78.609375" height="34.2" style="fill: rgb(0, 0, 0); fill-opacity: 0;"/></g></g></g><rect class="scrollbar" rx="20" ry="3" width="0" height="0" x="0" y="0" style="fill: rgb(128, 139, 164); fill-opacity: 1;"/></g><g class="g-gtitle"><text class="gtitle" x="800" y="50" text-anchor="middle" dy="0.7em" style="opacity: 1; font-family: 'Open Sans', verdana, arial, sans-serif; font-size: 20px; fill: rgb(42, 63, 95); fill-opacity: 1; font-weight: bold; white-space: pre;">No Yielding, Front and eHMI</text></g><g class="g-xtitle"><text class="xtitle" x="800" y="873.5" text-anchor="middle" style="opacity: 1; font-family: 'Open Sans', verdana, arial, sans-serif; font-size: 20px; fill: rgb(42, 63, 95); fill-opacity: 1; white-space: pre;">Time (in seconds)</text></g><g class="g-ytitle"><text class="ytitle" transform="rotate(-90,24.78125,460)" x="24.78125" y="460" text-anchor="middle" style="opacity: 1; font-family: 'Open Sans', verdana, arial, sans-serif; font-size: 20px; fill: rgb(42, 63, 95); fill-opacity: 1; white-space: pre;">Trigger press</text></g></g></svg>