<svg class="main-svg" xmlns="http://www.w3.org/2000/svg" xmlns:xlink="http://www.w3.org/1999/xlink" width="4800" height="2700" style="" viewBox="0 0 1600 900"><rect x="0" y="0" width="1600" height="900" style="fill: rgb(255, 255, 255); fill-opacity: 1;"/><defs id="defs-4638a3"><g class="clips"><clipPath id="clip4638a3xyplot" class="plotclip"><rect width="1440" height="720"/></clipPath><clipPath class="axesclip" id="clip4638a3x"><rect x="80" y="0" width="1440" height="900"/></clipPath><clipPath class="axesclip" id="clip4638a3y"><rect x="0" y="100" width="1600" height="720"/></clipPath><clipPath class="axesclip" id="clip4638a3xy"><rect x="80" y="100" width="1440" height="720"/></clipPath></g><g class="gradients"/><g class="patterns"/></defs><g class="bglayer"><rect class="bg" x="80" y="100" width="1440" height="720" style="fill: rgb(229, 236, 246); fill-opacity: 1; stroke-width: 0;"/></g><g class="layer-below"><g class="imagelayer"/><g class="shapelayer"/></g><g class="cartesianlayer"><g class="subplot xy"><g class="layer-subplot"><g class="shapelayer"/><g class="imagelayer"/></g><g class="minor-gridlayer"><g class="x"/><g class="y"/></g><g class="gridlayer"><g class="x"><path class="xgrid crisp" transform="translate(238.58,0)" d="M0,100v720" style="stroke: rgb(255, 255, 255); stroke-opacity: 1; stroke-width: 1px;"/><path class="xgrid crisp" transform="translate(398.76,0)" d="M0,100v720" style="stroke: rgb(255, 255, 255); stroke-opacity: 1; stroke-width: 1px;"/><path class="xgrid crisp" transform="translate(558.9300000000001,0)" d="M0,100v720" style="stroke: rgb(255, 255, 255); stroke-opacity: 1; stroke-width: 1px;"/><path class="xgrid crisp" transform="translate(719.11,0)" d="M0,100v720" style="stroke: rgb(255, 255, 255); stroke-opacity: 1; stroke-width: 1px;"/><path class="xgrid crisp" transform="translate(879.29,0)" d="M0,100v720" style="stroke: rgb(255, 255, 255); stroke-opacity: 1; stroke-width: 1px;"/><path class="xgrid crisp" transform="translate(1039.47,0)" d="M0,100v720" style="stroke: rgb(255, 255, 255); stroke-opacity: 1; stroke-width: 1px;"/><path class="xgrid crisp" transform="translate(1199.64,0)" d="M0,100v720" style="stroke: rgb(255, 255, 255); stroke-opacity: 1; stroke-width: 1px;"/><path class="xgrid crisp" transform="translate(1359.82,0)" d="M0,100v720" style="stroke: rgb(255, 255, 255); stroke-opacity: 1; stroke-width: 1px;"/></g><g class="y"><path class="ygrid crisp" transform="translate(0,654.4)" d="M80,0h1440" style="stroke: rgb(255, 255, 255); stroke-opacity: 1; stroke-width: 1px;"/><path class="ygrid crisp" transform="translate(0,524.8)" d="M80,0h1440" style="stroke: rgb(255, 255, 255); stroke-opacity: 1; stroke-width: 1px;"/><path class="ygrid crisp" transform="translate(0,395.2)" d="M80,0h1440" style="stroke: rgb(255, 255, 255); stroke-opacity: 1; stroke-width: 1px;"/><path class="ygrid crisp" transform="translate(0,265.6)" d="M80,0h1440" style="stroke: rgb(255, 255, 255); stroke-opacity: 1; stroke-width: 1px;"/><path class="ygrid crisp" transform="translate(0,136)" d="M80,0h1440" style="stroke: rgb(255, 255, 255); stroke-opacity: 1; stroke-width: 1px;"/></g></g><g class="zerolinelayer"><path class="yzl zl crisp" transform="translate(0,784)" d="M80,0h1440" style="stroke: rgb(255, 255, 255); stroke-opacity: 1; stroke-width: 2px;"/></g><g class="layer-between"><g class="shapelayer"/><g class="imagelayer"/></g><path class="xlines-below"/><path class="ylines-below"/><g class="overlines-below"/><g class="xaxislayer-below"/><g class="yaxislayer-below"/><g class="overaxes-below"/><g class="overplot"><g class="xy" transform="translate(80,100)" clip-path="url(#clip4638a3xyplot)"><g class="scatterlayer mlayer"><g class="trace scatter trace133421" style="stroke-miterlimit: 2; opacity: 1;"><g class="fills"/><g class="errorbars"/><g class="lines"><path class="js-line" d="M0,684L205.03,683.58L206.63,681.82L208.23,681.15L209.83,679.4L211.44,678.57L213.04,676.67L217.84,669.92L219.45,668.58L221.05,666.27L222.65,665.52L224.25,661.16L225.85,659.43L229.06,659.43L230.66,652.68L232.26,651.83L233.86,651.83L238.67,649.86L240.27,650L253.08,647.81L254.69,647.88L257.89,648.43L259.49,648.98L269.1,650.7L270.7,650.8L278.71,652.13L280.31,652.81L304.34,656.97L305.94,657.48L320.36,660.26L321.96,660.99L336.38,663.13L337.98,662.7L344.39,663.31L345.99,663.1L357.2,662.15L358.8,661.66L363.61,661.74L365.21,661.41L376.42,661.88L378.02,661.44L387.63,663.42L389.23,664.08L392.44,666.64L394.04,668.08L398.84,671.73L400.45,671.78L403.65,672.84L405.25,673.08L410.06,674.3L411.66,674.24L416.46,674.58L418.07,674.58L438.89,677.1L440.49,677.77L445.3,679.53L446.9,680.2L454.91,681.38L456.51,675.81L459.71,676.12L461.31,574.6L464.52,575.51L466.12,575.87L475.73,576L477.33,576L498.16,575.88L499.76,569.05L501.36,550.59L502.96,411.53L504.56,379.91L506.16,375.52L507.77,363.55L509.37,359.62L522.18,359.44L523.78,366.04L525.39,462.86L526.99,467.44L533.4,467.22L535,461.56L536.6,433.29L538.2,359.15L541.4,359.17L543.01,362.53L546.21,376.02L547.81,433.65L549.41,460.1L551.01,466.61L555.82,466.96L557.42,466.78L594.26,466.39L595.86,466.26L607.08,465.95L608.68,465.97L623.09,465.04L624.7,462.39L626.3,457.44L627.9,378.54L629.5,374.24L631.1,357.42L635.91,357.31L637.51,357.31L647.12,357.14L648.72,357.03L699.98,356.4L701.58,356.26L709.59,353.37L711.19,352.6L714.4,349L716,348.42L717.6,348.03L719.2,348.48L728.81,348.98L730.41,348.68L732.01,345.96L733.62,332.84L735.22,328.39L736.82,319.09L741.62,318.85L743.23,314.24L744.83,259.93L746.43,249.35L748.03,240.78L749.63,241L765.65,241.59L767.25,241.82L773.66,241.22L775.26,241.55L784.87,241.82L786.48,242.56L789.68,243.26L791.28,244.31L796.09,246.09L797.69,247.76L799.29,248.6L800.89,251.2L804.1,252L805.7,252L818.51,252L820.11,144L848.95,144L850.54,219.7L853.75,219.7L855.35,252L866.56,252L868.17,275.35L871.37,320.97L872.97,357.78L874.57,360L876.17,360L895.4,360L897,465.24L898.6,468L900.2,468L922.63,468L924.23,501.55L925.83,576L927.43,576L1102.02,576L1103.63,553.33L1105.23,468L1106.83,468L1143.67,468L1145.27,462.38L1146.88,429.48L1148.48,360L1150.08,360L1151.68,338.48L1153.28,271.19L1154.89,266.61L1156.49,252L1158.09,252L1159.69,252L1161.29,250.32L1164.5,190.48L1166.1,144L1226.96,144L1228.57,145.24L1230.17,155.38L1231.77,210.11L1233.37,240.29L1234.97,250.96L1236.57,252L1238.18,252L1284.63,252.3L1286.23,252.83L1291.03,254.54L1292.64,255.47L1295.84,255.47L1297.44,256.81L1302.25,261L1303.85,263.32L1305.45,265.56L1307.05,266.33L1310.26,269.3L1311.86,270.38L1313.46,271.62L1315.06,274.92L1316.66,276.6L1318.27,281.85L1319.87,294.69L1321.47,299.15L1323.07,311.58L1324.67,315.04L1326.27,326.4L1327.88,329.87L1331.08,343.1L1332.68,346.07L1337.49,460.57L1339.09,461.7L1342.29,464.04L1343.89,464.86L1348.7,467.4L1350.3,467.73L1355.11,468L1356.71,468L1440,468" style="vector-effect: none; fill: none; stroke: rgb(99, 110, 250); stroke-opacity: 1; stroke-width: 3px; opacity: 1;"/></g><g class="points"/><g class="text"/></g><g class="trace scatter trace6a13d3" style="stroke-miterlimit: 2; opacity: 1;"><g class="fills"/><g class="errorbars"/><g class="lines"><path class="js-line" d="M0,684L349.19,684L350.79,679.85L352.39,584.72L353.99,576L408.46,576.71L410.06,640.99L413.26,684L414.86,684L443.69,683.46L445.3,683.12L480.53,680.79L482.14,680.98L483.74,679.7L485.34,675.82L486.94,631.9L488.54,631.96L490.14,572.89L491.75,572.91L502.96,572.89L504.56,464.91L514.17,465.15L515.77,465.77L517.38,465.9L518.98,467.59L522.18,468L523.78,468L525.39,466.16L526.99,415.7L530.19,360.36L531.79,360L539.8,360.06L541.4,385.16L543,395.97L544.61,469.18L546.21,487.27L547.81,480.94L551.01,477.57L552.61,478.53L554.22,478.53L555.82,483.55L557.42,487.03L559.02,523.37L560.62,543.99L562.22,575.95L587.85,576L589.46,576L728.81,575.92L730.41,556.5L732.01,534.89L733.62,499.91L735.22,468L736.82,468L772.06,468L773.66,466.74L776.86,362.24L778.47,360L842.54,360L844.14,437.23L845.74,468L847.34,468L911.41,468L913.01,519.51L914.62,575.77L916.22,679.02L917.82,684L919.42,684L1106.83,684L1108.43,576L1116.44,576L1118.04,574.08L1119.64,566.02L1121.24,527.34L1124.45,527.34L1126.05,468L1148.48,468L1150.08,360L1207.74,360L1209.34,352.16L1210.94,344.67L1212.55,332.88L1214.15,271.57L1215.75,258.83L1217.35,252L1218.95,252L1239.78,252.47L1241.38,253.48L1242.98,255.18L1244.58,258.6L1246.19,263.88L1247.79,266.11L1250.99,276.03L1252.59,287.61L1257.4,334.17L1259,336.14L1260.6,339.92L1262.2,340.6L1263.8,341.85L1265.41,342.07L1267.01,339.71L1268.61,334.96L1270.21,352.49L1271.81,439.08L1273.41,438.93L1275.02,440.55L1281.42,440.76L1283.02,440.76L1284.63,440.21L1286.23,440.67L1303.85,441.87L1305.45,442.67L1307.05,443.11L1308.65,444.68L1315.06,449.22L1316.66,557.52L1318.27,558.05L1319.87,560.18L1321.47,561.17L1323.07,566L1324.67,568.09L1326.27,574.07L1329.48,576L1331.08,576L1340.69,576L1342.29,635.01L1343.89,681.72L1345.5,684L1440,684" style="vector-effect: none; fill: none; stroke: rgb(239, 85, 59); stroke-opacity: 1; stroke-width: 3px; opacity: 1;"/></g><g class="points"/><g class="text"/></g><g class="trace scatter tracee0d862" style="stroke-miterlimit: 2; opacity: 1;"><g class="fills"/><g class="errorbars"/><g class="lines"><path class="js-line" d="M0,684L416.46,684L418.07,682.67L419.67,679.5L421.27,666.2L422.87,660.85L424.47,635.21L426.07,596.43L427.68,578.01L429.28,576L430.88,576L470.93,576L472.53,547L474.13,473.68L475.73,468L534.99,468L536.6,471.82L538.2,476.66L539.8,472.99L541.4,468L543,468L575.04,468L576.64,469.89L578.24,475.52L579.85,506.31L581.45,527.54L583.05,562.86L584.65,576L586.25,576L663.14,576L664.74,566.51L666.34,566.51L667.94,532.95L669.54,487.68L671.15,484.86L672.75,471.24L674.35,471.24L675.95,468L677.55,468L751.24,468L752.84,464.84L754.44,360L756.04,360L802.49,360L804.09,359.1L805.7,255.94L807.3,252L839.33,252L840.94,249.29L842.54,242.49L844.14,164.64L845.74,144L847.34,193.77L850.55,252L852.15,252L876.17,252L877.78,269.4L879.38,282.96L880.98,346.54L882.58,359.94L884.18,360L913.02,360L914.62,403.71L916.22,468L917.82,468L929.03,468L930.63,576L1102.03,576L1103.63,574.23L1105.23,468L1106.83,468L1148.48,468L1150.08,458.69L1151.68,429.26L1153.28,357.89L1154.88,304.79L1156.48,304.79L1158.09,252L1159.69,252L1164.49,252L1166.1,279.61L1167.7,344.83L1169.3,360L1186.92,360L1188.52,288.63L1190.12,259.29L1191.72,252L1236.57,252L1238.18,309.68L1239.78,360L1241.38,360L1297.44,360L1299.04,371.99L1300.65,387.61L1302.25,455.14L1303.85,464.77L1305.45,468L1358.31,468L1359.91,469.12L1361.51,472.46L1363.12,472.46L1367.92,484.53L1369.52,484.53L1372.73,497.09L1374.33,497.09L1375.93,501.35L1377.53,514.08L1379.13,527.17L1380.73,527.17L1383.94,549L1385.54,549L1388.74,574.03L1390.34,576L1440,576" style="vector-effect: none; fill: none; stroke: rgb(0, 204, 150); stroke-opacity: 1; stroke-width: 3px; opacity: 1;"/></g><g class="points"/><g class="text"/></g><g class="trace scatter tracea5bd03" style="stroke-miterlimit: 2; opacity: 1;"><g class="fills"/><g class="errorbars"/><g class="lines"><path class="js-line" d="M0,684L203.43,684L205.03,681.8L206.63,677.44L208.23,670.27L209.83,658.37L211.44,639.5L213.04,627.81L214.64,593.19L221.05,580.11L222.65,580.75L232.26,584.09L233.86,585.4L238.67,585.86L240.27,586.98L243.47,587.71L245.07,587.21L248.28,588.11L249.88,587.77L254.68,588.5L256.29,587.99L259.49,588.5L261.09,587.83L262.69,587.77L264.29,588.5L270.7,587.99L272.3,588.22L277.11,588.39L278.71,589.06L281.91,588.72L283.52,588.61L291.53,589.33L293.13,588.61L294.73,588.5L296.33,589.39L299.53,588.5L301.14,588.39L309.15,589.5L310.75,590L313.95,589.94L315.55,590.06L317.15,590.28L318.76,589.72L320.36,590.17L321.96,589.72L325.16,590.88L326.76,591.55L328.37,591.55L329.97,592.53L334.77,594.87L336.37,594.81L341.18,598.55L342.78,600.71L349.19,618.37L350.79,619.38L355.6,624.31L357.2,625.68L358.8,626.55L360.4,628.58L365.21,634.16L366.81,637.44L370.01,639.92L371.61,641.17L378.02,647.91L379.62,648.08L387.63,653.07L389.23,655.04L392.44,655.78L394.04,655.81L410.06,656.18L411.66,655.35L427.68,654.91L429.28,654.44L432.48,654.47L434.08,654.72L437.29,654.44L438.89,654.38L451.7,654.47L453.3,655.41L454.91,626.13L456.51,549.04L458.11,547.47L459.71,547.5L467.72,547.53L469.32,526.68L470.92,527.11L472.53,449.32L474.13,333.3L475.73,333.54L478.93,333.84L480.54,334.26L494.95,334.43L496.55,334.14L502.96,334.08L504.56,339.53L506.16,354.18L507.76,439.44L509.37,441.72L510.97,441.84L512.57,441.72L514.17,426.27L515.77,338.52L517.38,334.73L518.98,335.14L520.58,331.73L523.78,338.84L525.38,343.76L526.99,350.83L528.59,352.45L530.19,356.89L531.79,357.85L534.99,359.29L536.6,360L554.22,360L555.82,402.97L557.42,468L559.02,468L573.44,468L575.04,483.38L578.24,651.89L579.85,682.84L581.45,684L583.05,684L605.47,684L607.08,682.62L610.28,683.51L611.88,683.72L621.49,682.84L623.09,682.14L624.69,681.49L626.3,679.04L631.1,676.14L632.7,676.09L635.91,673.75L637.51,670.73L642.31,667.7L643.92,669.06L645.52,672.48L647.12,674.09L648.72,677.74L650.32,678.35L653.53,679.09L655.13,679.33L658.33,680.43L659.93,682.18L663.14,683.43L664.74,683.42L675.95,684L677.55,684L679.16,682.61L680.76,598.45L682.36,576L683.96,576L695.17,576L696.77,554.7L698.38,475.29L699.98,468L751.24,468L752.84,462.44L754.44,439.1L756.04,393.99L757.64,376.75L759.24,376.75L760.85,376.75L762.45,380.1L764.05,384.13L765.65,393.75L768.86,360L770.46,360L796.08,360L797.69,355.25L799.29,267.05L800.89,252L802.49,251.04L804.09,242.21L807.3,179.71L808.9,153.29L810.5,147.47L812.1,151.81L813.7,169.39L815.31,204.53L816.91,252L818.51,252L861.76,252L863.36,260.78L864.96,335.22L866.56,335.22L868.17,360L869.77,360L879.38,360L880.98,397.69L882.58,468L884.18,468L897,468L898.6,500.31L900.2,576L901.8,576L916.22,576L917.82,600.55L919.42,670.49L921.02,684L1105.23,684L1106.83,576L1146.87,576L1148.48,567.46L1150.08,480.72L1151.68,449.32L1153.28,426.45L1154.88,360L1180.51,360L1182.11,252L1210.94,252.3L1212.55,272.8L1215.75,357.67L1217.35,360L1250.99,359.8L1252.59,356.14L1254.19,350.53L1255.79,432.51L1257.4,439.79L1259,425.81L1260.6,420.97L1262.2,411.46L1263.8,408.22L1265.41,401.57L1267.01,390.4L1268.61,388.27L1270.21,381.71L1271.81,380.48L1273.41,375.55L1275.02,374.5L1276.62,373.94L1278.22,374.33L1279.82,375.55L1281.42,380.48L1283.03,385.59L1284.63,429.19L1286.23,443.45L1287.83,466.62L1289.43,468L1291.03,468L1415.97,468L1417.57,469.71L1419.18,478.25L1420.78,520.62L1422.38,548.03L1423.98,557.16L1425.58,571.38L1427.19,573.58L1428.79,576L1430.39,576L1440,576" style="vector-effect: none; fill: none; stroke: rgb(171, 99, 250); stroke-opacity: 1; stroke-width: 3px; opacity: 1;"/></g><g class="points"/><g class="text"/></g><g class="trace scatter trace4b4c45" style="stroke-miterlimit: 2; opacity: 1;"><g class="fills"/><g class="errorbars"/><g class="lines"><path class="js-line" d="M0,684L164.98,683.84L166.59,682.61L168.19,677.31L169.79,674.62L173,656.76L174.59,642.89L177.8,600.5L179.4,596.59L182.61,593.68L184.21,593.4L189.01,587.32L190.61,586.7L198.62,584.38L200.22,584.89L203.43,583.81L205.03,584.89L214.64,584.89L216.24,585.4L219.45,585.17L221.05,585.52L224.25,585.12L225.85,586.14L229.06,585.97L230.66,587.32L233.86,587.04L235.46,586.76L248.28,587.77L249.88,587.1L251.48,588.05L253.08,587.94L262.69,587.43L264.29,588.05L265.9,587.32L267.5,587.77L272.31,587.66L273.91,587.21L278.71,587.6L280.31,587.43L289.92,587.77L291.53,587.04L297.93,587.21L299.53,587.38L301.14,588.27L302.74,587.66L305.94,587.55L307.54,587.71L310.75,586.82L312.35,587.27L315.55,587.49L317.15,587.55L328.37,587.99L329.97,588.22L331.57,588.27L333.17,587.55L334.77,587.6L336.37,588.5L337.98,587.94L339.58,588.39L341.18,587.99L342.78,588.72L344.38,588.11L345.99,588.33L347.59,588.78L349.19,587.55L350.79,587.99L352.39,587.55L355.6,588.89L357.2,588.89L358.8,589.11L360.4,588.5L362,589.44L363.61,588.83L365.21,588.55L366.81,589.06L373.22,590.22L374.82,590.17L376.42,590.06L378.02,591.82L382.83,591.76L384.43,592.37L387.63,592.7L389.23,593.4L390.84,593.4L392.44,594.81L395.64,596.21L397.24,598.24L398.84,604.73L400.45,618.27L403.65,642.67L405.25,648.29L408.45,652.39L410.06,659.02L411.66,660.93L413.26,664.24L418.07,667.66L419.67,668.69L424.47,669.94L426.07,670.78L442.09,672.74L443.7,672.64L454.91,672.78L456.51,629.37L458.11,629.59L459.71,565L477.33,565.3L478.93,565.2L510.97,565.1L512.57,471.33L514.17,460.87L515.77,457.2L518.98,458L520.58,458.4L522.18,461.5L523.78,462.03L533.4,462.5L534.99,478.16L536.6,508.38L538.2,554.13L539.8,571.11L541.4,571.65L546.21,572.66L547.81,572.47L554.22,572.58L555.82,572.71L560.62,572.96L562.23,573.62L563.83,573.81L565.43,574.86L568.63,575.82L570.24,575.93L602.27,575.84L603.87,576L667.94,576L669.54,517.55L671.15,468L672.75,468L720.8,468L722.4,461.5L724.01,444.26L725.61,402.92L727.21,360L728.81,360L794.48,360L796.08,316.15L797.69,261.12L799.29,252L821.71,252L823.32,246.3L824.92,235.1L826.52,235.1L828.12,144L829.72,144L847.34,144L848.94,133.38L852.15,36L853.75,36L866.56,36L868.17,68.16L869.77,127.97L871.37,144L874.57,144L876.17,245.13L877.78,340.42L879.38,360L908.21,360L909.81,368.26L911.41,438.34L913.02,468L914.62,507.98L916.22,571.26L917.82,576L919.42,576L1105.23,576L1106.83,573.43L1108.43,455.67L1110.03,432.26L1111.64,367.23L1113.24,360L1150.08,360L1151.68,357.41L1153.28,236.64L1154.88,236.64L1156.48,144L1158.09,144L1162.89,144L1164.5,142.24L1166.1,132.05L1167.7,127.05L1169.3,102.3L1170.9,90.7L1172.5,64.07L1174.11,54.92L1177.31,52.75L1178.91,53.08L1183.72,55.35L1185.32,56.91L1186.92,57.55L1188.52,62.83L1190.12,65.09L1191.72,72.97L1193.33,75.93L1194.93,75.93L1198.13,75.93L1199.73,77.48L1201.34,76.97L1202.94,77.71L1204.54,77.48L1206.14,78.18L1207.74,78.41L1209.34,77.85L1210.95,77.01L1212.55,77.25L1214.15,77.25L1215.75,76.35L1217.35,76.35L1218.95,75.5L1222.16,74.89L1223.76,72.58L1225.36,71.22L1226.96,65.29L1228.57,63.61L1230.17,57.65L1234.97,56L1236.57,56L1241.38,51.71L1242.98,51.71L1244.58,80.38L1246.18,132.27L1247.79,254.54L1249.39,266.66L1252.59,265L1254.19,265.67L1259,265.56L1260.6,266.39L1265.41,265.94L1267.01,266.72L1268.61,265.5L1270.21,266.39L1275.02,267.55L1276.62,267.33L1278.22,268.86L1279.82,268.86L1283.03,270.6L1284.63,270.65L1286.23,272.21L1287.83,272.64L1291.03,274.24L1292.64,276.13L1294.24,277.54L1295.84,281.14L1297.44,285.35L1299.04,285.35L1300.65,295.75L1302.25,295.75L1303.85,304.07L1305.45,307.53L1308.65,314.65L1310.26,315.46L1313.46,318.34L1315.06,322.76L1316.66,325.83L1318.26,334.79L1319.87,337.63L1321.47,345.56L1323.07,347.92L1324.67,352.55L1326.27,358.03L1327.88,359.03L1329.48,360L1331.08,360L1350.3,360L1351.9,376.53L1353.51,392.81L1355.11,429.94L1356.71,460.47L1358.31,464.23L1359.91,468L1361.51,468L1440,468" style="vector-effect: none; fill: none; stroke: rgb(255, 161, 90); stroke-opacity: 1; stroke-width: 3px; opacity: 1;"/></g><g class="points"/><g class="text"/></g></g></g></g><path class="xlines-above crisp" d="M0,0" style="fill: none;"/><path class="ylines-above crisp" d="M0,0" style="fill: none;"/><g class="overlines-above"/><g class="xaxislayer-above"><g class="xtick"><text text-anchor="middle" x="0" y="841" transform="translate(238.58,0)" style="font-family: 'Open Sans', verdana, arial, sans-serif; font-size: 20px; fill: rgb(42, 63, 95); fill-opacity: 1; white-space: pre; opacity: 1;">2</text></g><g class="xtick"><text text-anchor="middle" x="0" y="841" style="font-family: 'Open Sans', verdana, arial, sans-serif; font-size: 20px; fill: rgb(42, 63, 95); fill-opacity: 1; white-space: pre; opacity: 1;" transform="translate(398.76,0)">4</text></g><g class="xtick"><text text-anchor="middle" x="0" y="841" style="font-family: 'Open Sans', verdana, arial, sans-serif; font-size: 20px; fill: rgb(42, 63, 95); fill-opacity: 1; white-space: pre; opacity: 1;" transform="translate(558.9300000000001,0)">6</text></g><g class="xtick"><text text-anchor="middle" x="0" y="841" style="font-family: 'Open Sans', verdana, arial, sans-serif; font-size: 20px; fill: rgb(42, 63, 95); fill-opacity: 1; white-space: pre; opacity: 1;" transform="translate(719.11,0)">8</text></g><g class="xtick"><text text-anchor="middle" x="0" y="841" style="font-family: 'Open Sans', verdana, arial, sans-serif; font-size: 20px; fill: rgb(42, 63, 95); fill-opacity: 1; white-space: pre; opacity: 1;" transform="translate(879.29,0)">10</text></g><g class="xtick"><text text-anchor="middle" x="0" y="841" style="font-family: 'Open Sans', verdana, arial, sans-serif; font-size: 20px; fill: rgb(42, 63, 95); fill-opacity: 1; white-space: pre; opacity: 1;" transform="translate(1039.47,0)">12</text></g><g class="xtick"><text text-anchor="middle" x="0" y="841" style="font-family: 'Open Sans', verdana, arial, sans-serif; font-size: 20px; fill: rgb(42, 63, 95); fill-opacity: 1; white-space: pre; opacity: 1;" transform="translate(1199.64,0)">14</text></g><g class="xtick"><text text-anchor="middle" x="0" y="841" style="font-family: 'Open Sans', verdana, arial, sans-serif; font-size: 20px; fill: rgb(42, 63, 95); fill-opacity: 1; white-space: pre; opacity: 1;" transform="translate(1359.82,0)">16</text></g><g class="xtick"><text text-anchor="middle" x="0" y="841" style="font-family: 'Open Sans', verdana, arial, sans-serif; font-size: 20px; fill: rgb(42, 63, 95); fill-opacity: 1; white-space: pre; opacity: 1;" transform="translate(1520,0)">18</text></g></g><g class="yaxislayer-above"><g class="ytick"><text text-anchor="end" x="79" y="7" transform="translate(0,784)" style="font-family: 'Open Sans', verdana, arial, sans-serif; font-size: 20px; fill: rgb(42, 63, 95); fill-opacity: 1; white-space: pre; opacity: 1;">0</text></g><g class="ytick"><text text-anchor="end" x="79" y="7" style="font-family: 'Open Sans', verdana, arial, sans-serif; font-size: 20px; fill: rgb(42, 63, 95); fill-opacity: 1; white-space: pre; opacity: 1;" transform="translate(0,654.4)">0.1</text></g><g class="ytick"><text text-anchor="end" x="79" y="7" style="font-family: 'Open Sans', verdana, arial, sans-serif; font-size: 20px; fill: rgb(42, 63, 95); fill-opacity: 1; white-space: pre; opacity: 1;" transform="translate(0,524.8)">0.2</text></g><g class="ytick"><text text-anchor="end" x="79" y="7" style="font-family: 'Open Sans', verdana, arial, sans-serif; font-size: 20px; fill: rgb(42, 63, 95); fill-opacity: 1; white-space: pre; opacity: 1;" transform="translate(0,395.2)">0.3</text></g><g class="ytick"><text text-anchor="end" x="79" y="7" style="font-family: 'Open Sans', verdana, arial, sans-serif; font-size: 20px; fill: rgb(42, 63, 95); fill-opacity: 1; white-space: pre; opacity: 1;" transform="translate(0,265.6)">0.4</text></g><g class="ytick"><text text-anchor="end" x="79" y="7" style="font-family: 'Open Sans', verdana, arial, sans-serif; font-size: 20px; fill: rgb(42, 63, 95); fill-opacity: 1; white-space: pre; opacity: 1;" transform="translate(0,136)">0.5</text></g></g><g class="overaxes-above"/></g></g><g class="polarlayer"/><g class="smithlayer"/><g class="ternarylayer"/><g class="geolayer"/><g class="funnelarealayer"/><g class="pielayer"/><g class="iciclelayer"/><g class="treemaplayer"/><g class="sunburstlayer"/><g class="glimages"/><defs id="topdefs-4638a3"><g class="clips"/><clipPath id="legend4638a3"><rect width="84" height="181" x="0" y="0"/></clipPath></defs><g class="layer-above"><g class="imagelayer"/><g class="shapelayer"/></g><g class="infolayer"><g class="legend" pointer-events="all" transform="translate(242.72,110.08000000000001)"><rect class="bg" shape-rendering="crispEdges" width="84" height="181" x="0" y="0" style="stroke: rgb(68, 68, 68); stroke-opacity: 1; fill: rgb(255, 255, 255); fill-opacity: 1; stroke-width: 0px;"/><g class="scrollbox" transform="" clip-path="url(#legend4638a3)"><g class="groups"><g class="traces" transform="translate(0,22.1)" style="opacity: 1;"><text class="legendtext" text-anchor="start" x="40" y="9.360000000000001" style="font-family: 'Open Sans', verdana, arial, sans-serif; font-size: 24px; fill: rgb(42, 63, 95); fill-opacity: 1; white-space: pre;">1m</text><g class="layers" style="opacity: 1;"><g class="legendfill"/><g class="legendlines"><path class="js-line" d="M5,0h30" style="fill: none; stroke: rgb(99, 110, 250); stroke-opacity: 1; stroke-width: 3px;"/></g><g class="legendsymbols"><g class="legendpoints"/></g></g><rect class="legendtoggle" x="0" y="-17.1" width="78.609375" height="34.2" style="fill: rgb(0, 0, 0); fill-opacity: 0;"/></g><g class="traces" transform="translate(0,56.300000000000004)" style="opacity: 1;"><text class="legendtext" text-anchor="start" x="40" y="9.360000000000001" style="font-family: 'Open Sans', verdana, arial, sans-serif; font-size: 24px; fill: rgb(42, 63, 95); fill-opacity: 1; white-space: pre;">2m</text><g class="layers" style="opacity: 1;"><g class="legendfill"/><g class="legendlines"><path class="js-line" d="M5,0h30" style="fill: none; stroke: rgb(239, 85, 59); stroke-opacity: 1; stroke-width: 3px;"/></g><g class="legendsymbols"><g class="legendpoints"/></g></g><rect class="legendtoggle" x="0" y="-17.1" width="78.609375" height="34.2" style="fill: rgb(0, 0, 0); fill-opacity: 0;"/></g><g class="traces" transform="translate(0,90.5)" style="opacity: 1;"><text class="legendtext" text-anchor="start" x="40" y="9.360000000000001" style="font-family: 'Open Sans', verdana, arial, sans-serif; font-size: 24px; fill: rgb(42, 63, 95); fill-opacity: 1; white-space: pre;">3m</text><g class="layers" style="opacity: 1;"><g class="legendfill"/><g class="legendlines"><path class="js-line" d="M5,0h30" style="fill: none; stroke: rgb(0, 204, 150); stroke-opacity: 1; stroke-width: 3px;"/></g><g class="legendsymbols"><g class="legendpoints"/></g></g><rect class="legendtoggle" x="0" y="-17.1" width="78.609375" height="34.2" style="fill: rgb(0, 0, 0); fill-opacity: 0;"/></g><g class="traces" transform="translate(0,124.70000000000002)" style="opacity: 1;"><text class="legendtext" text-anchor="start" x="40" y="9.360000000000001" style="font-family: 'Open Sans', verdana, arial, sans-serif; font-size: 24px; fill: rgb(42, 63, 95); fill-opacity: 1; white-space: pre;">4m</text><g class="layers" style="opacity: 1;"><g class="legendfill"/><g class="legendlines"><path class="js-line" d="M5,0h30" style="fill: none; stroke: rgb(171, 99, 250); stroke-opacity: 1; stroke-width: 3px;"/></g><g class="legendsymbols"><g class="legendpoints"/></g></g><rect class="legendtoggle" x="0" y="-17.1" width="78.609375" height="34.2" style="fill: rgb(0, 0, 0); fill-opacity: 0;"/></g><g class="traces" transform="translate(0,158.9)" style="opacity: 1;"><text class="legendtext" text-anchor="start" x="40" y="9.360000000000001" style="font-family: 'Open Sans', verdana, arial, sans-serif; font-size: 24px; fill: rgb(42, 63, 95); fill-opacity: 1; white-space: pre;">5m</text><g class="layers" style="opacity: 1;"><g class="legendfill"/><g class="legendlines"><path class="js-line" d="M5,0h30" style="fill: none; stroke: rgb(255, 161, 90); stroke-opacity: 1; stroke-width: 3px;"/></g><g class="legendsymbols"><g class="legendpoints"/></g></g><rect class="legendtoggle" x="0" y="-17.1" width="78.609375" height="34.2" style="fill: rgb(0, 0, 0); fill-opacity: 0;"/></g></g></g><rect class="scrollbar" rx="20" ry="3" width="0" height="0" x="0" y="0" style="fill: rgb(128, 139, 164); fill-opacity: 1;"/></g><g class="g-gtitle"><text class="gtitle" x="800" y="50" text-anchor="middle" dy="0.7em" style="opacity: 1; font-family: 'Open Sans', verdana, arial, sans-serif; font-size: 20px; fill: rgb(42, 63, 95); fill-opacity: 1; font-weight: bold; white-space: pre;">Yielding, Back and eHMI</text></g><g class="g-xtitle"><text class="xtitle" x="800" y="873.5" text-anchor="middle" style="opacity: 1; font-family: 'Open Sans', verdana, arial, sans-serif; font-size: 20px; fill: rgb(42, 63, 95); fill-opacity: 1; white-space: pre;">Time (in seconds)</text></g><g class="g-ytitle"><text class="ytitle" transform="rotate(-90,24.78125,460)" x="24.78125" y="460" text-anchor="middle" style="opacity: 1; font-family: 'Open Sans', verdana, arial, sans-serif; font-size: 20px; fill: rgb(42, 63, 95); fill-opacity: 1; white-space: pre;">Trigger press</text></g></g></svg>