<svg class="main-svg" xmlns="http://www.w3.org/2000/svg" xmlns:xlink="http://www.w3.org/1999/xlink" width="4800" height="2700" style="" viewBox="0 0 1600 900"><rect x="0" y="0" width="1600" height="900" style="fill: rgb(255, 255, 255); fill-opacity: 1;"/><defs id="defs-445f61"><g class="clips"><clipPath id="clip445f61xyplot" class="plotclip"><rect width="1440" height="720"/></clipPath><clipPath class="axesclip" id="clip445f61x"><rect x="80" y="0" width="1440" height="900"/></clipPath><clipPath class="axesclip" id="clip445f61y"><rect x="0" y="100" width="1600" height="720"/></clipPath><clipPath class="axesclip" id="clip445f61xy"><rect x="80" y="100" width="1440" height="720"/></clipPath></g><g class="gradients"/><g class="patterns"/></defs><g class="bglayer"><rect class="bg" x="80" y="100" width="1440" height="720" style="fill: rgb(229, 236, 246); fill-opacity: 1; stroke-width: 0;"/></g><g class="layer-below"><g class="imagelayer"/><g class="shapelayer"/></g><g class="cartesianlayer"><g class="subplot xy"><g class="layer-subplot"><g class="shapelayer"/><g class="imagelayer"/></g><g class="minor-gridlayer"><g class="x"/><g class="y"/></g><g class="gridlayer"><g class="x"><path class="xgrid crisp" transform="translate(238.58,0)" d="M0,100v720" style="stroke: rgb(255, 255, 255); stroke-opacity: 1; stroke-width: 1px;"/><path class="xgrid crisp" transform="translate(398.75,0)" d="M0,100v720" style="stroke: rgb(255, 255, 255); stroke-opacity: 1; stroke-width: 1px;"/><path class="xgrid crisp" transform="translate(558.9300000000001,0)" d="M0,100v720" style="stroke: rgb(255, 255, 255); stroke-opacity: 1; stroke-width: 1px;"/><path class="xgrid crisp" transform="translate(719.11,0)" d="M0,100v720" style="stroke: rgb(255, 255, 255); stroke-opacity: 1; stroke-width: 1px;"/><path class="xgrid crisp" transform="translate(879.29,0)" d="M0,100v720" style="stroke: rgb(255, 255, 255); stroke-opacity: 1; stroke-width: 1px;"/><path class="xgrid crisp" transform="translate(1039.47,0)" d="M0,100v720" style="stroke: rgb(255, 255, 255); stroke-opacity: 1; stroke-width: 1px;"/><path class="xgrid crisp" transform="translate(1199.64,0)" d="M0,100v720" style="stroke: rgb(255, 255, 255); stroke-opacity: 1; stroke-width: 1px;"/><path class="xgrid crisp" transform="translate(1359.82,0)" d="M0,100v720" style="stroke: rgb(255, 255, 255); stroke-opacity: 1; stroke-width: 1px;"/></g><g class="y"><path class="ygrid crisp" transform="translate(0,676.6)" d="M80,0h1440" style="stroke: rgb(255, 255, 255); stroke-opacity: 1; stroke-width: 1px;"/><path class="ygrid crisp" transform="translate(0,569.21)" d="M80,0h1440" style="stroke: rgb(255, 255, 255); stroke-opacity: 1; stroke-width: 1px;"/><path class="ygrid crisp" transform="translate(0,461.81)" d="M80,0h1440" style="stroke: rgb(255, 255, 255); stroke-opacity: 1; stroke-width: 1px;"/><path class="ygrid crisp" transform="translate(0,354.40999999999997)" d="M80,0h1440" style="stroke: rgb(255, 255, 255); stroke-opacity: 1; stroke-width: 1px;"/><path class="ygrid crisp" transform="translate(0,247.02)" d="M80,0h1440" style="stroke: rgb(255, 255, 255); stroke-opacity: 1; stroke-width: 1px;"/><path class="ygrid crisp" transform="translate(0,139.62)" d="M80,0h1440" style="stroke: rgb(255, 255, 255); stroke-opacity: 1; stroke-width: 1px;"/></g></g><g class="zerolinelayer"><path class="yzl zl crisp" transform="translate(0,784)" d="M80,0h1440" style="stroke: rgb(255, 255, 255); stroke-opacity: 1; stroke-width: 2px;"/></g><g class="layer-between"><g class="shapelayer"/><g class="imagelayer"/></g><path class="xlines-below"/><path class="ylines-below"/><g class="overlines-below"/><g class="xaxislayer-below"/><g class="yaxislayer-below"/><g class="overaxes-below"/><g class="overplot"><g class="xy" transform="translate(80,100)" clip-path="url(#clip445f61xyplot)"><g class="scatterlayer mlayer"><g class="trace scatter trace2b8c1e" style="stroke-miterlimit: 2; opacity: 1;"><g class="fills"/><g class="errorbars"/><g class="lines"><path class="js-line" d="M0,684L195.42,683.81L197.02,683.02L200.22,681.88L201.83,681.67L209.83,681.07L211.44,681.23L217.84,683.23L219.44,683.71L224.25,684L225.85,684L462.92,684L464.52,653.86L466.12,613.59L467.72,594.5L528.59,594.5L530.19,576.03L531.79,509.62L533.39,505.01L547.81,504.79L549.41,504.25L554.22,503.4L555.82,537.99L557.42,592.13L559.02,591.93L562.23,591.26L563.83,561.61L565.43,507.25L567.03,501.2L568.63,499.53L570.23,441.41L573.44,410.19L575.04,409.99L581.45,409.87L583.05,409.64L623.09,409.05L624.69,409.15L635.91,409.24L637.51,401.34L639.11,319.91L640.71,319.95L651.93,320.22L653.53,320.3L664.74,320.49L666.34,231.18L674.35,231.06L675.95,230.97L682.36,229.86L683.96,229.58L688.77,227.82L690.37,227.56L691.97,226.24L693.57,223.61L695.17,222.77L696.77,220.8L698.38,219.98L699.98,218.29L703.18,217.1L704.78,215.47L709.59,212.74L711.19,211.01L712.79,210.67L714.39,209.42L717.6,208.78L719.2,207.58L720.8,207.55L722.4,206.64L725.61,206.06L727.21,205.47L728.81,205.15L730.41,203.93L732.01,203.15L733.62,201.52L735.22,201.27L736.82,200.24L741.62,199.38L743.23,199.41L746.43,198.93L748.03,189.55L749.63,189.45L751.24,163.83L752.84,135.76L754.44,36.34L756.04,36L757.64,37.19L759.24,38.21L760.85,43.78L765.65,63.91L767.25,76.54L770.46,94.25L772.06,97.32L773.66,98.83L775.26,98.98L780.07,96.96L781.67,97.11L788.08,96.59L789.68,108.73L791.28,108.43L792.88,185.05L797.69,185.46L799.29,185.12L804.09,185.53L805.7,185.24L808.9,184.56L810.5,185.2L812.1,184.22L813.7,184.37L818.51,182.78L820.11,183.01L821.71,181.58L823.32,181.2L824.92,181.47L826.52,180.46L828.12,180.22L829.72,140.27L831.32,95.67L832.93,90.02L836.13,89.35L837.73,88.95L839.33,87.71L840.93,87.59L845.74,85.73L847.34,86.09L850.54,85.56L852.15,85.85L853.75,86.18L855.35,87.47L858.55,93.28L860.16,101.62L861.76,104.57L863.36,111.62L871.37,145.97L872.97,147L874.57,147.02L876.17,172.38L877.78,219.81L879.38,236.51L890.59,236.51L892.19,270.23L893.79,321.5L895.4,325.28L898.6,326.01L900.2,326.01L908.21,326.01L909.81,388.88L913.01,439.02L914.62,481.45L916.22,581.93L917.82,594.5L1148.48,594.5L1150.08,591.41L1151.68,505.01L1153.28,505.01L1154.88,505.01L1156.49,502.59L1158.09,480.51L1159.69,415.51L1161.29,414.54L1162.89,326.01L1170.9,325.48L1172.5,322.46L1175.71,249.62L1177.31,236.51L1206.14,236.56L1207.74,237.79L1209.34,238.18L1210.95,240.45L1212.55,240.69L1214.15,242.41L1217.35,244.12L1218.95,245.29L1220.56,246.36L1222.16,246.17L1226.96,247.88L1228.57,248.76L1233.37,251.07L1234.97,332.74L1236.57,393.76L1238.18,404.31L1239.78,415.51L1241.38,415.51L1255.8,415.51L1257.4,439.4L1260.6,505.01L1262.2,505.01L1273.41,505.01L1275.02,501.62L1276.62,497.46L1278.22,464.24L1281.42,423.06L1283.03,415.51L1287.83,415.51L1289.43,417.9L1291.03,419.3L1292.64,422.17L1295.84,426.56L1297.44,427.25L1302.25,427.8L1303.85,427.34L1305.45,428.02L1307.05,427.61L1313.46,432.08L1315.06,437.53L1316.66,442.03L1318.27,460.63L1319.87,478.51L1321.47,487.53L1323.07,495.67L1324.67,495.67L1326.27,495.67L1327.88,505.01L1428.79,505.01L1430.39,514.29L1433.59,514.29L1435.19,594.5L1440,594.5" style="vector-effect: none; fill: none; stroke: rgb(99, 110, 250); stroke-opacity: 1; stroke-width: 3px; opacity: 1;"/></g><g class="points"/><g class="text"/></g><g class="trace scatter trace369db8" style="stroke-miterlimit: 2; opacity: 1;"><g class="fills"/><g class="errorbars"/><g class="lines"><path class="js-line" d="M0,684L145.76,683.29L147.36,682.01L150.57,678.29L152.17,675.96L153.77,674.11L155.37,673.64L158.58,670.04L160.18,666.3L161.78,660.18L163.38,658.82L164.98,654.35L166.59,652.7L168.19,645.71L169.79,643.41L171.39,634.02L172.99,630.42L181,625.78L182.6,622.71L184.2,621.69L185.81,619.4L189.01,618.02L190.61,615.19L192.21,614.8L193.81,612.93L208.23,609.69L209.83,609.87L211.44,608.02L213.04,607.7L214.64,607.38L216.24,605.55L224.25,604.67L225.85,605.09L230.66,604.77L232.26,604.81L240.27,607.02L241.87,607.07L245.07,607.66L246.67,608.38L249.88,609.2L251.48,610.18L253.08,612.18L254.68,615.41L257.89,619.49L259.49,629.23L262.69,641.93L264.29,645.38L265.9,650.73L267.5,651.93L269.1,652.73L270.7,654.55L273.9,655.99L275.51,657.5L278.71,660.95L280.31,664.56L283.52,665.35L285.12,666.88L289.92,671.14L291.52,673.92L304.34,676.71L305.94,676.52L309.14,676.88L310.75,676.98L333.17,678.68L334.77,678.78L344.38,678.51L345.98,678.69L373.22,679.05L374.82,679.26L387.63,679.6L389.23,678.15L390.83,674.2L392.44,600.7L394.04,590.38L395.64,590.53L408.45,591.14L410.06,571.09L411.66,501.81L413.26,501.81L422.87,502.05L424.47,494.04L430.88,426.72L432.48,422.22L434.08,413.18L435.68,412.86L462.92,412.72L464.52,412.76L474.13,412.88L475.73,412.93L517.37,413.32L518.98,411.48L522.18,411.51L523.78,323.81L526.99,323.74L528.59,313.11L530.19,144.87L531.79,144.82L552.61,144.87L554.21,144.94L563.83,144.97L565.43,145.05L583.05,145.04L584.65,162.32L586.25,190.6L587.85,234.72L613.48,234.99L615.08,145.61L634.3,146.38L635.91,146.39L653.53,146.66L655.13,146.7L666.34,146.68L667.94,157.26L669.54,185.35L671.15,233.34L675.95,233.42L677.55,236.23L691.97,236.18L693.57,236.24L712.79,236.31L714.39,242.62L716,247.09L717.6,248.13L720.8,264.69L722.4,285.87L724,281.67L725.61,252.12L727.21,249.99L728.81,243.35L730.41,242.9L732.01,243.45L735.22,247.14L736.82,254.15L738.42,259.01L740.02,291.58L744.83,326.01L746.43,325.23L748.03,319.57L749.63,306.36L751.23,236.51L752.84,236.51L812.1,236.51L813.7,227.46L815.31,200.02L816.91,147.02L855.35,147.02L856.95,234.71L858.55,236.51L860.15,236.51L880.98,236.51L882.58,249.67L885.78,409.43L887.39,409.43L888.99,409.43L890.59,415.51L917.82,415.51L919.42,505.01L941.85,505.01L943.45,512.37L946.65,512.37L948.25,594.5L1172.5,594.5L1174.1,571.02L1175.71,505.01L1177.31,505.01L1220.56,505.01L1222.16,498.54L1223.76,498.54L1225.36,488.47L1226.96,430.87L1228.56,430.87L1230.17,418.19L1231.77,415.51L1279.82,415.51L1281.42,465.7L1283.03,493.09L1284.63,505.01L1329.48,505.01L1331.08,506.67L1335.88,506.67L1337.49,518.11L1342.29,526.94L1343.89,526.94L1345.49,529.32L1347.1,536.44L1350.3,548.19L1351.9,563.11L1353.5,573.44L1355.1,573.44L1356.71,581.7L1358.31,583.24L1363.11,593.04L1364.72,594.5L1366.32,591.95L1367.92,511.14L1369.52,505.01L1371.12,505.01L1440,505.01" style="vector-effect: none; fill: none; stroke: rgb(239, 85, 59); stroke-opacity: 1; stroke-width: 3px; opacity: 1;"/></g><g class="points"/><g class="text"/></g><g class="trace scatter tracea19c2f" style="stroke-miterlimit: 2; opacity: 1;"><g class="fills"/><g class="errorbars"/><g class="lines"><path class="js-line" d="M0,684L321.96,684L323.56,677.87L325.16,595.92L326.76,594.5L549.41,594.5L551.01,535.84L552.61,505.01L554.22,505.01L567.03,505.01L568.63,517.98L570.23,570.91L571.84,594.5L575.04,594.5L576.64,592.5L579.84,553.84L581.45,505.01L586.25,505.01L587.85,503.27L589.46,500.93L591.06,473.21L592.66,403.34L594.26,398.52L595.86,385.63L597.46,351.25L599.07,252.06L600.67,251.03L602.27,244.82L603.87,242.65L605.47,241.36L607.08,242.08L608.68,248.53L610.28,250.94L611.88,251.79L613.48,251.66L616.69,251.16L618.29,251.7L619.89,254.54L621.49,255.55L624.69,259.6L626.3,259.52L629.5,262L631.1,268.82L632.7,270.69L634.31,280.62L635.91,287.33L637.51,290.18L640.71,289.39L642.31,290.02L647.12,296.05L648.72,298.61L650.32,299.19L651.92,303.06L655.13,303.91L656.73,305.31L664.74,309.89L666.34,309.83L669.54,309.85L671.15,311.01L674.35,313.71L675.95,314.29L679.16,314.65L680.76,314.12L693.57,315.78L695.17,316.56L696.77,305.73L698.38,231.39L701.58,234.6L703.18,236.46L727.21,236.51L728.81,236.51L730.41,239.1L732.01,243.69L733.62,249.71L735.22,292.22L736.82,314.21L738.42,323.36L740.02,326.01L741.62,326.01L767.25,326.01L768.85,245.01L770.46,236.51L772.06,236.51L903.4,236.51L905.01,326.01L913.01,326.01L914.62,352L917.82,552.09L919.42,594.5L1150.08,594.5L1151.68,505.01L1234.97,505.01L1236.57,420.6L1238.18,415.51L1239.78,415.51L1406.36,415.51L1407.96,458.05L1411.17,505.01L1412.77,505.01L1440,505.01" style="vector-effect: none; fill: none; stroke: rgb(0, 204, 150); stroke-opacity: 1; stroke-width: 3px; opacity: 1;"/></g><g class="points"/><g class="text"/></g><g class="trace scatter trace33f5fa" style="stroke-miterlimit: 2; opacity: 1;"><g class="fills"/><g class="errorbars"/><g class="lines"><path class="js-line" d="M0,684L475.73,684L477.33,666.88L478.93,607.25L480.53,594.5L496.55,593.92L498.15,587.45L499.76,561.95L501.36,519.11L502.96,505.01L504.56,505.01L541.4,505.01L543,503.91L544.61,418.78L546.21,412.4L547.81,410.56L549.41,405.19L551.01,395.69L552.61,374.48L554.22,366.23L555.82,343.11L557.42,341.06L559.02,337.61L562.22,333.17L563.83,332.32L565.43,332.46L567.03,333.54L568.63,254.53L570.23,255.32L571.84,247.33L573.44,248.89L575.04,250.35L576.64,250.21L579.84,251.52L581.45,260.22L583.05,266.44L584.65,308.94L586.25,321.06L587.85,323.84L589.46,319.88L591.06,303.87L592.66,271.91L594.26,269.25L595.86,254.1L597.46,254.37L599.07,250.03L600.67,178.17L602.27,168.93L603.87,166.32L605.47,167.79L607.07,172.71L608.68,177.29L610.28,184.56L613.48,190.55L615.08,198.55L616.69,201.89L618.29,214.74L621.49,234.54L623.09,236.51L656.73,237.2L658.33,237.74L682.36,237.93L683.96,238.52L685.56,238.57L687.16,240.21L688.77,241.46L690.37,246.73L691.97,290.65L693.57,310.1L695.17,326.01L696.77,326.01L706.39,326.01L707.99,339.53L709.59,415.51L711.19,415.51L757.64,415.51L759.24,326.01L791.28,326.01L792.88,318.74L796.09,236.51L797.69,236.51L820.11,236.51L821.71,323.17L823.31,326.01L824.92,326.01L834.53,326.01L836.13,317.18L837.73,245.2L839.33,236.51L852.15,236.51L853.75,262.46L855.35,320.14L856.95,326.01L885.78,326.01L887.39,327.87L888.99,346.1L890.59,395.07L892.19,415.51L893.79,415.51L903.4,415.51L905.01,434.02L906.61,503.88L908.21,505.01L922.62,505.01L924.23,509.52L925.83,594.36L927.43,594.5L1150.08,594.5L1151.68,566.55L1153.28,505.01L1154.88,505.01L1158.09,505.01L1159.69,448.68L1161.29,415.51L1162.89,415.51L1164.49,411.01L1166.1,326.01L1202.94,326.01L1204.54,322.27L1207.74,296.65L1209.34,283.08L1210.95,248.48L1212.55,245.1L1214.15,239.2L1215.75,238.18L1217.35,237.98L1218.95,240.21L1220.56,331.29L1222.16,335.44L1223.76,331.61L1225.36,294.88L1226.96,249.99L1228.57,253.44L1230.17,289.43L1231.77,347.56L1233.37,391.45L1234.97,400.15L1236.57,413.87L1238.18,415.51L1259,415.51L1260.6,418.29L1263.8,505.01L1265.41,505.01L1339.09,505.01L1340.69,645.84L1342.29,671.6L1343.89,684L1440,684" style="vector-effect: none; fill: none; stroke: rgb(171, 99, 250); stroke-opacity: 1; stroke-width: 3px; opacity: 1;"/></g><g class="points"/><g class="text"/></g><g class="trace scatter trace1fb37e" style="stroke-miterlimit: 2; opacity: 1;"><g class="fills"/><g class="errorbars"/><g class="lines"><path class="js-line" d="M0,684L238.67,683.93L240.27,677.2L241.87,667.36L243.47,651.96L246.68,611.78L248.28,602.06L251.48,594.5L253.08,594.5L381.22,594.75L382.83,595.34L387.63,596.75L389.23,597.04L395.64,598.01L397.24,597.82L398.84,598.2L400.45,597.53L403.65,597.82L405.25,597.09L410.06,597.43L411.66,596.8L421.27,597.33L422.87,596.99L427.68,597.86L429.28,598.54L432.48,600.88L434.08,605.87L435.69,608.16L437.29,622.59L438.89,630.42L440.49,658.37L443.69,672.03L445.3,673.22L450.1,680.41L451.7,682.53L456.51,683.3L458.11,680.3L459.71,658.29L461.31,625.58L462.92,594.5L464.52,594.5L501.36,594.5L502.96,586.93L504.56,576.65L506.16,528.43L507.77,505.01L509.37,505.01L551.01,505.01L552.62,488.5L554.22,415.51L555.82,415.51L635.91,416.15L637.51,418.82L640.71,420.65L642.32,420.36L645.52,417.37L647.12,417.17L650.32,416.93L651.93,417.51L656.73,418.43L658.33,419.83L661.54,420.36L663.14,420.31L664.74,419.83L666.34,420.26L667.94,419.98L669.54,420.74L672.75,421.69L674.35,423.49L677.55,423.16L679.16,422.26L680.76,420.07L682.36,419.78L683.96,417.71L685.56,417.42L687.17,417.32L688.77,418L690.37,418.05L691.97,419.64L693.57,420.26L695.17,421.93L698.38,425.77L699.98,431.41L703.18,437.02L704.78,434.24L706.39,432.43L707.99,429.34L709.59,429.66L711.19,428.66L712.79,428.44L714.39,422.36L716,418.37L717.6,384.39L719.2,364.92L720.8,360.67L722.4,391.71L724.01,401.57L725.61,413.87L727.21,415.28L733.62,415.51L735.22,415.51L740.02,415.51L741.63,412.04L743.23,394.35L744.83,326.01L860.16,325.97L861.76,235.85L864.96,236.51L866.56,236.51L882.58,236.51L884.18,294.88L885.78,322.79L887.39,326.01L890.59,326.01L892.19,400.51L893.79,411.74L895.4,466.99L897,503.26L898.6,505.01L901.8,505.01L903.41,517.8L906.61,594.5L908.21,594.5L924.23,594.5L925.83,664.04L927.43,684L929.03,684L1150.08,684L1151.68,594.5L1161.29,594.5L1162.89,587.88L1164.49,505.01L1166.1,505.01L1204.54,505.01L1206.14,491.62L1207.74,415.51L1209.34,415.51L1259,415.51L1260.6,439.49L1262.2,439.49L1263.81,497.57L1265.41,505.01L1267.01,505.01L1275.02,505.01L1276.62,513.97L1278.22,592.57L1279.82,594.5L1374.33,594.5L1375.93,676.35L1377.53,684L1379.13,684L1440,684" style="vector-effect: none; fill: none; stroke: rgb(255, 161, 90); stroke-opacity: 1; stroke-width: 3px; opacity: 1;"/></g><g class="points"/><g class="text"/></g></g></g></g><path class="xlines-above crisp" d="M0,0" style="fill: none;"/><path class="ylines-above crisp" d="M0,0" style="fill: none;"/><g class="overlines-above"/><g class="xaxislayer-above"><g class="xtick"><text text-anchor="middle" x="0" y="841" transform="translate(238.58,0)" style="font-family: 'Open Sans', verdana, arial, sans-serif; font-size: 20px; fill: rgb(42, 63, 95); fill-opacity: 1; white-space: pre; opacity: 1;">2</text></g><g class="xtick"><text text-anchor="middle" x="0" y="841" style="font-family: 'Open Sans', verdana, arial, sans-serif; font-size: 20px; fill: rgb(42, 63, 95); fill-opacity: 1; white-space: pre; opacity: 1;" transform="translate(398.75,0)">4</text></g><g class="xtick"><text text-anchor="middle" x="0" y="841" style="font-family: 'Open Sans', verdana, arial, sans-serif; font-size: 20px; fill: rgb(42, 63, 95); fill-opacity: 1; white-space: pre; opacity: 1;" transform="translate(558.9300000000001,0)">6</text></g><g class="xtick"><text text-anchor="middle" x="0" y="841" style="font-family: 'Open Sans', verdana, arial, sans-serif; font-size: 20px; fill: rgb(42, 63, 95); fill-opacity: 1; white-space: pre; opacity: 1;" transform="translate(719.11,0)">8</text></g><g class="xtick"><text text-anchor="middle" x="0" y="841" style="font-family: 'Open Sans', verdana, arial, sans-serif; font-size: 20px; fill: rgb(42, 63, 95); fill-opacity: 1; white-space: pre; opacity: 1;" transform="translate(879.29,0)">10</text></g><g class="xtick"><text text-anchor="middle" x="0" y="841" style="font-family: 'Open Sans', verdana, arial, sans-serif; font-size: 20px; fill: rgb(42, 63, 95); fill-opacity: 1; white-space: pre; opacity: 1;" transform="translate(1039.47,0)">12</text></g><g class="xtick"><text text-anchor="middle" x="0" y="841" style="font-family: 'Open Sans', verdana, arial, sans-serif; font-size: 20px; fill: rgb(42, 63, 95); fill-opacity: 1; white-space: pre; opacity: 1;" transform="translate(1199.64,0)">14</text></g><g class="xtick"><text text-anchor="middle" x="0" y="841" style="font-family: 'Open Sans', verdana, arial, sans-serif; font-size: 20px; fill: rgb(42, 63, 95); fill-opacity: 1; white-space: pre; opacity: 1;" transform="translate(1359.82,0)">16</text></g><g class="xtick"><text text-anchor="middle" x="0" y="841" style="font-family: 'Open Sans', verdana, arial, sans-serif; font-size: 20px; fill: rgb(42, 63, 95); fill-opacity: 1; white-space: pre; opacity: 1;" transform="translate(1520,0)">18</text></g></g><g class="yaxislayer-above"><g class="ytick"><text text-anchor="end" x="79" y="7" transform="translate(0,784)" style="font-family: 'Open Sans', verdana, arial, sans-serif; font-size: 20px; fill: rgb(42, 63, 95); fill-opacity: 1; white-space: pre; opacity: 1;">0</text></g><g class="ytick"><text text-anchor="end" x="79" y="7" style="font-family: 'Open Sans', verdana, arial, sans-serif; font-size: 20px; fill: rgb(42, 63, 95); fill-opacity: 1; white-space: pre; opacity: 1;" transform="translate(0,676.6)">0.1</text></g><g class="ytick"><text text-anchor="end" x="79" y="7" style="font-family: 'Open Sans', verdana, arial, sans-serif; font-size: 20px; fill: rgb(42, 63, 95); fill-opacity: 1; white-space: pre; opacity: 1;" transform="translate(0,569.21)">0.2</text></g><g class="ytick"><text text-anchor="end" x="79" y="7" style="font-family: 'Open Sans', verdana, arial, sans-serif; font-size: 20px; fill: rgb(42, 63, 95); fill-opacity: 1; white-space: pre; opacity: 1;" transform="translate(0,461.81)">0.3</text></g><g class="ytick"><text text-anchor="end" x="79" y="7" style="font-family: 'Open Sans', verdana, arial, sans-serif; font-size: 20px; fill: rgb(42, 63, 95); fill-opacity: 1; white-space: pre; opacity: 1;" transform="translate(0,354.40999999999997)">0.4</text></g><g class="ytick"><text text-anchor="end" x="79" y="7" style="font-family: 'Open Sans', verdana, arial, sans-serif; font-size: 20px; fill: rgb(42, 63, 95); fill-opacity: 1; white-space: pre; opacity: 1;" transform="translate(0,247.02)">0.5</text></g><g class="ytick"><text text-anchor="end" x="79" y="7" style="font-family: 'Open Sans', verdana, arial, sans-serif; font-size: 20px; fill: rgb(42, 63, 95); fill-opacity: 1; white-space: pre; opacity: 1;" transform="translate(0,139.62)">0.6</text></g></g><g class="overaxes-above"/></g></g><g class="polarlayer"/><g class="smithlayer"/><g class="ternarylayer"/><g class="geolayer"/><g class="funnelarealayer"/><g class="pielayer"/><g class="iciclelayer"/><g class="treemaplayer"/><g class="sunburstlayer"/><g class="glimages"/><defs id="topdefs-445f61"><g class="clips"/><clipPath id="legend445f61"><rect width="84" height="181" x="0" y="0"/></clipPath></defs><g class="layer-above"><g class="imagelayer"/><g class="shapelayer"/></g><g class="infolayer"><g class="legend" pointer-events="all" transform="translate(242.72,110.08000000000001)"><rect class="bg" shape-rendering="crispEdges" width="84" height="181" x="0" y="0" style="stroke: rgb(68, 68, 68); stroke-opacity: 1; fill: rgb(255, 255, 255); fill-opacity: 1; stroke-width: 0px;"/><g class="scrollbox" transform="" clip-path="url(#legend445f61)"><g class="groups"><g class="traces" transform="translate(0,22.1)" style="opacity: 1;"><text class="legendtext" text-anchor="start" x="40" y="9.360000000000001" style="font-family: 'Open Sans', verdana, arial, sans-serif; font-size: 24px; fill: rgb(42, 63, 95); fill-opacity: 1; white-space: pre;">1m</text><g class="layers" style="opacity: 1;"><g class="legendfill"/><g class="legendlines"><path class="js-line" d="M5,0h30" style="fill: none; stroke: rgb(99, 110, 250); stroke-opacity: 1; stroke-width: 3px;"/></g><g class="legendsymbols"><g class="legendpoints"/></g></g><rect class="legendtoggle" x="0" y="-17.1" width="78.609375" height="34.2" style="fill: rgb(0, 0, 0); fill-opacity: 0;"/></g><g class="traces" transform="translate(0,56.300000000000004)" style="opacity: 1;"><text class="legendtext" text-anchor="start" x="40" y="9.360000000000001" style="font-family: 'Open Sans', verdana, arial, sans-serif; font-size: 24px; fill: rgb(42, 63, 95); fill-opacity: 1; white-space: pre;">2m</text><g class="layers" style="opacity: 1;"><g class="legendfill"/><g class="legendlines"><path class="js-line" d="M5,0h30" style="fill: none; stroke: rgb(239, 85, 59); stroke-opacity: 1; stroke-width: 3px;"/></g><g class="legendsymbols"><g class="legendpoints"/></g></g><rect class="legendtoggle" x="0" y="-17.1" width="78.609375" height="34.2" style="fill: rgb(0, 0, 0); fill-opacity: 0;"/></g><g class="traces" transform="translate(0,90.5)" style="opacity: 1;"><text class="legendtext" text-anchor="start" x="40" y="9.360000000000001" style="font-family: 'Open Sans', verdana, arial, sans-serif; font-size: 24px; fill: rgb(42, 63, 95); fill-opacity: 1; white-space: pre;">3m</text><g class="layers" style="opacity: 1;"><g class="legendfill"/><g class="legendlines"><path class="js-line" d="M5,0h30" style="fill: none; stroke: rgb(0, 204, 150); stroke-opacity: 1; stroke-width: 3px;"/></g><g class="legendsymbols"><g class="legendpoints"/></g></g><rect class="legendtoggle" x="0" y="-17.1" width="78.609375" height="34.2" style="fill: rgb(0, 0, 0); fill-opacity: 0;"/></g><g class="traces" transform="translate(0,124.70000000000002)" style="opacity: 1;"><text class="legendtext" text-anchor="start" x="40" y="9.360000000000001" style="font-family: 'Open Sans', verdana, arial, sans-serif; font-size: 24px; fill: rgb(42, 63, 95); fill-opacity: 1; white-space: pre;">4m</text><g class="layers" style="opacity: 1;"><g class="legendfill"/><g class="legendlines"><path class="js-line" d="M5,0h30" style="fill: none; stroke: rgb(171, 99, 250); stroke-opacity: 1; stroke-width: 3px;"/></g><g class="legendsymbols"><g class="legendpoints"/></g></g><rect class="legendtoggle" x="0" y="-17.1" width="78.609375" height="34.2" style="fill: rgb(0, 0, 0); fill-opacity: 0;"/></g><g class="traces" transform="translate(0,158.9)" style="opacity: 1;"><text class="legendtext" text-anchor="start" x="40" y="9.360000000000001" style="font-family: 'Open Sans', verdana, arial, sans-serif; font-size: 24px; fill: rgb(42, 63, 95); fill-opacity: 1; white-space: pre;">5m</text><g class="layers" style="opacity: 1;"><g class="legendfill"/><g class="legendlines"><path class="js-line" d="M5,0h30" style="fill: none; stroke: rgb(255, 161, 90); stroke-opacity: 1; stroke-width: 3px;"/></g><g class="legendsymbols"><g class="legendpoints"/></g></g><rect class="legendtoggle" x="0" y="-17.1" width="78.609375" height="34.2" style="fill: rgb(0, 0, 0); fill-opacity: 0;"/></g></g></g><rect class="scrollbar" rx="20" ry="3" width="0" height="0" x="0" y="0" style="fill: rgb(128, 139, 164); fill-opacity: 1;"/></g><g class="g-gtitle"><text class="gtitle" x="800" y="50" text-anchor="middle" dy="0.7em" style="opacity: 1; font-family: 'Open Sans', verdana, arial, sans-serif; font-size: 20px; fill: rgb(42, 63, 95); fill-opacity: 1; font-weight: bold; white-space: pre;">Yielding, Back and no eHMI</text></g><g class="g-xtitle"><text class="xtitle" x="800" y="873.5" text-anchor="middle" style="opacity: 1; font-family: 'Open Sans', verdana, arial, sans-serif; font-size: 20px; fill: rgb(42, 63, 95); fill-opacity: 1; white-space: pre;">Time (in seconds)</text></g><g class="g-ytitle"><text class="ytitle" transform="rotate(-90,24.78125,460)" x="24.78125" y="460" text-anchor="middle" style="opacity: 1; font-family: 'Open Sans', verdana, arial, sans-serif; font-size: 20px; fill: rgb(42, 63, 95); fill-opacity: 1; white-space: pre;">Trigger press</text></g></g></svg>