<svg class="main-svg" xmlns="http://www.w3.org/2000/svg" xmlns:xlink="http://www.w3.org/1999/xlink" width="4800" height="2700" style="" viewBox="0 0 1600 900"><rect x="0" y="0" width="1600" height="900" style="fill: rgb(255, 255, 255); fill-opacity: 1;"/><defs id="defs-05c465"><g class="clips"><clipPath id="clip05c465xyplot" class="plotclip"><rect width="1440" height="720"/></clipPath><clipPath class="axesclip" id="clip05c465x"><rect x="80" y="0" width="1440" height="900"/></clipPath><clipPath class="axesclip" id="clip05c465y"><rect x="0" y="100" width="1600" height="720"/></clipPath><clipPath class="axesclip" id="clip05c465xy"><rect x="80" y="100" width="1440" height="720"/></clipPath></g><g class="gradients"/><g class="patterns"/></defs><g class="bglayer"><rect class="bg" x="80" y="100" width="1440" height="720" style="fill: rgb(229, 236, 246); fill-opacity: 1; stroke-width: 0;"/></g><g class="layer-below"><g class="imagelayer"/><g class="shapelayer"/></g><g class="cartesianlayer"><g class="subplot xy"><g class="layer-subplot"><g class="shapelayer"/><g class="imagelayer"/></g><g class="minor-gridlayer"><g class="x"/><g class="y"/></g><g class="gridlayer"><g class="x"><path class="xgrid crisp" transform="translate(238.58,0)" d="M0,100v720" style="stroke: rgb(255, 255, 255); stroke-opacity: 1; stroke-width: 1px;"/><path class="xgrid crisp" transform="translate(398.75,0)" d="M0,100v720" style="stroke: rgb(255, 255, 255); stroke-opacity: 1; stroke-width: 1px;"/><path class="xgrid crisp" transform="translate(558.9300000000001,0)" d="M0,100v720" style="stroke: rgb(255, 255, 255); stroke-opacity: 1; stroke-width: 1px;"/><path class="xgrid crisp" transform="translate(719.11,0)" d="M0,100v720" style="stroke: rgb(255, 255, 255); stroke-opacity: 1; stroke-width: 1px;"/><path class="xgrid crisp" transform="translate(879.29,0)" d="M0,100v720" style="stroke: rgb(255, 255, 255); stroke-opacity: 1; stroke-width: 1px;"/><path class="xgrid crisp" transform="translate(1039.47,0)" d="M0,100v720" style="stroke: rgb(255, 255, 255); stroke-opacity: 1; stroke-width: 1px;"/><path class="xgrid crisp" transform="translate(1199.64,0)" d="M0,100v720" style="stroke: rgb(255, 255, 255); stroke-opacity: 1; stroke-width: 1px;"/><path class="xgrid crisp" transform="translate(1359.82,0)" d="M0,100v720" style="stroke: rgb(255, 255, 255); stroke-opacity: 1; stroke-width: 1px;"/></g><g class="y"><path class="ygrid crisp" transform="translate(0,654.4)" d="M80,0h1440" style="stroke: rgb(255, 255, 255); stroke-opacity: 1; stroke-width: 1px;"/><path class="ygrid crisp" transform="translate(0,524.8)" d="M80,0h1440" style="stroke: rgb(255, 255, 255); stroke-opacity: 1; stroke-width: 1px;"/><path class="ygrid crisp" transform="translate(0,395.2)" d="M80,0h1440" style="stroke: rgb(255, 255, 255); stroke-opacity: 1; stroke-width: 1px;"/><path class="ygrid crisp" transform="translate(0,265.6)" d="M80,0h1440" style="stroke: rgb(255, 255, 255); stroke-opacity: 1; stroke-width: 1px;"/><path class="ygrid crisp" transform="translate(0,136)" d="M80,0h1440" style="stroke: rgb(255, 255, 255); stroke-opacity: 1; stroke-width: 1px;"/></g></g><g class="zerolinelayer"><path class="yzl zl crisp" transform="translate(0,784)" d="M80,0h1440" style="stroke: rgb(255, 255, 255); stroke-opacity: 1; stroke-width: 2px;"/></g><g class="layer-between"><g class="shapelayer"/><g class="imagelayer"/></g><path class="xlines-below"/><path class="ylines-below"/><g class="overlines-below"/><g class="xaxislayer-below"/><g class="yaxislayer-below"/><g class="overaxes-below"/><g class="overplot"><g class="xy" transform="translate(80,100)" clip-path="url(#clip05c465xyplot)"><g class="scatterlayer mlayer"><g class="trace scatter trace4aae58" style="stroke-miterlimit: 2; opacity: 1;"><g class="fills"/><g class="errorbars"/><g class="lines"><path class="js-line" d="M0,684L384.43,684L386.03,634.57L387.63,578.77L389.23,576L563.83,576L565.43,575.22L568.63,466.63L570.23,461.13L573.44,402.74L575.04,404.53L576.64,407.6L578.24,420.65L583.05,437.36L584.65,439.63L586.25,442.2L587.85,443.05L594.26,376.15L595.86,373.83L597.46,360L599.07,360L701.58,359.78L703.18,252L797.69,252L799.29,251.06L800.89,250.14L802.49,245.66L804.09,241.99L805.7,230.66L807.3,115.77L808.9,112.97L810.5,101.79L812.1,97.66L815.31,69.61L816.91,52.3L820.11,50.15L821.71,52.38L824.92,52.2L826.52,63.12L829.72,145.14L831.32,162.17L832.93,258.78L834.53,270.11L836.13,270.76L837.73,270.6L839.33,271.89L840.93,272.16L842.54,273.87L844.14,276.97L845.74,294.09L847.34,294.09L848.94,302.73L850.55,337.85L853.75,359.38L855.35,360L914.62,360.24L916.22,449.32L917.82,468L919.42,468L943.45,468L945.05,478.02L946.65,565.38L948.25,565.38L949.86,576L951.46,576L1037.95,576L1039.56,677.61L1041.16,684L1042.76,684L1166.1,684L1167.7,678.24L1169.3,651.83L1170.9,576L1196.53,576L1198.13,575.24L1201.33,468L1202.94,468L1390.34,468L1391.95,482.06L1393.55,576L1395.15,576L1440,576" style="vector-effect: none; fill: none; stroke: rgb(99, 110, 250); stroke-opacity: 1; stroke-width: 3px; opacity: 1;"/></g><g class="points"/><g class="text"/></g><g class="trace scatter trace2b426f" style="stroke-miterlimit: 2; opacity: 1;"><g class="fills"/><g class="errorbars"/><g class="lines"><path class="js-line" d="M0,684L257.89,684L259.49,676.26L261.09,676.26L262.69,644.65L264.29,592.48L265.9,576L443.69,576L445.3,570.68L446.9,556.03L448.5,477.91L450.1,470.42L451.7,468.65L454.91,470.71L456.51,473.33L458.11,471.65L459.71,468L483.74,468.06L485.34,469.66L486.94,470.18L488.54,468.71L493.35,468L494.95,468L578.24,468L579.84,360L595.86,360L597.46,358.15L599.07,252L600.67,252L627.9,252L629.5,197.43L632.7,144L634.31,144L645.52,144L647.12,154.93L648.72,162.92L650.32,220.09L653.53,252L655.13,252L680.76,252L682.36,239.71L683.96,144L685.56,144L746.43,144.12L748.03,148.81L751.24,149.56L752.84,150.14L754.44,150.37L756.04,149.74L760.85,150.49L762.45,149.91L764.05,149.1L765.65,149.45L770.46,149.33L772.06,150.43L773.66,152.89L775.26,152.61L781.67,155.66L783.27,155.49L786.47,154.36L788.08,160.22L789.68,176.76L791.28,216.63L792.88,253.62L794.48,258.06L796.08,262.65L797.69,262.76L799.29,262.19L800.89,262.48L802.49,259.92L804.09,259.52L807.3,258.2L808.9,255.18L815.31,253.01L816.91,253.3L818.51,253.36L820.11,252L829.72,252.36L831.32,253.01L832.93,252.71L834.53,253.48L837.73,253.36L839.33,252.06L840.93,253.01L842.54,268.46L845.74,360.41L847.34,360.59L848.94,363.41L850.55,370.08L852.15,378.11L853.75,431.21L856.95,461.42L858.55,462.81L861.76,468L863.36,468L892.19,468L893.79,576L1156.49,576L1158.09,573.15L1159.69,543.43L1161.29,468L1172.5,468L1174.1,466.39L1175.71,455.63L1177.31,418.12L1178.91,360L1180.51,360L1299.04,360L1300.65,418.81L1302.25,454.88L1303.85,468L1440,468" style="vector-effect: none; fill: none; stroke: rgb(239, 85, 59); stroke-opacity: 1; stroke-width: 3px; opacity: 1;"/></g><g class="points"/><g class="text"/></g><g class="trace scatter traced6479d" style="stroke-miterlimit: 2; opacity: 1;"><g class="fills"/><g class="errorbars"/><g class="lines"><path class="js-line" d="M0,684L469.32,683.36L470.92,679.31L472.53,641.55L474.13,476.89L475.73,468L477.33,468L496.55,468L498.15,464.09L499.76,370.65L501.36,370.65L502.96,370.65L504.56,360L515.77,360L517.38,268.53L518.98,252L520.58,252L583.05,252L584.65,198.74L586.25,144L587.85,144L703.18,144L704.78,141.81L706.39,36L707.99,36L738.42,36L740.02,48.39L741.62,117.3L743.23,144L746.43,144L748.03,150.08L749.63,155.94L751.23,189.58L754.44,218.94L756.04,219.93L757.64,223.97L759.24,240.58L760.85,244.7L762.45,251.73L767.25,252L768.85,252L783.27,252L784.87,283.21L786.47,349.67L788.08,360L792.88,360L794.48,468L808.9,468L810.5,492.24L812.1,576L813.7,576L935.44,576L937.04,584.38L938.64,616.26L940.25,680.58L941.85,684L943.45,684L1172.5,684L1174.1,682.58L1175.71,677.4L1177.31,676.31L1180.51,676.97L1182.11,681.15L1183.72,682.54L1185.32,681.61L1188.52,668.81L1190.12,635.7L1193.33,576L1194.93,576L1220.56,576L1222.16,572.64L1223.76,468L1225.36,468L1324.67,468L1326.27,576L1417.57,576L1419.18,585.86L1420.78,639.73L1422.38,642.3L1428.79,668.74L1430.39,671.94L1431.99,680.27L1433.59,682.16L1435.19,684L1436.8,684L1440,684" style="vector-effect: none; fill: none; stroke: rgb(0, 204, 150); stroke-opacity: 1; stroke-width: 3px; opacity: 1;"/></g><g class="points"/><g class="text"/></g><g class="trace scatter trace581a5f" style="stroke-miterlimit: 2; opacity: 1;"><g class="fills"/><g class="errorbars"/><g class="lines"><path class="js-line" d="M0,684L267.5,684L269.1,682.22L270.7,679.97L272.3,667.56L273.91,660.88L275.51,627.72L278.71,589.44L280.31,585.74L283.52,581.62L285.12,581.68L286.72,580.58L288.32,580.87L289.92,580.41L291.52,581.91L296.33,581.45L297.93,582.89L299.53,583.35L301.13,582.95L302.74,583.41L304.34,580.85L307.54,528.59L309.14,487.52L310.74,486.96L312.35,488.83L313.95,489.59L315.55,496.98L317.15,501.61L318.75,502.77L320.36,506.67L321.96,507.19L323.56,506.33L325.16,506.75L329.97,505.29L331.57,502.83L333.17,501.65L334.77,501.98L336.37,502.91L337.98,506.26L339.58,508.57L341.18,526.05L344.38,568.76L345.98,572.06L347.59,575.82L349.19,581.55L350.79,583.78L352.39,589.7L355.59,597.32L357.2,598.02L360.4,601.49L362,608.66L366.81,615.36L368.41,616.73L371.61,619.11L373.22,622.35L379.62,625.64L381.22,627.85L386.03,632.07L387.63,634.57L389.23,635.82L390.83,638.53L395.64,648.6L397.24,649.9L398.84,652.29L400.44,653.1L402.05,655.72L403.65,656.18L406.85,657.9L408.45,657.99L430.88,659.77L432.48,661.41L434.08,661.8L435.68,666.84L437.29,669.94L438.89,680.47L442.09,684L443.69,684L493.35,684L494.95,683.16L496.55,682.37L498.15,676.73L499.75,672.5L501.36,642.11L502.96,539.27L504.56,497.19L506.16,492.92L507.76,491.87L510.97,488.91L512.57,482.5L514.17,480.94L515.77,474.78L518.98,468L520.58,468L525.38,468L526.99,459.4L528.59,360L530.19,360L539.8,359.64L541.4,310.33L543,264.5L544.61,252L563.83,251.59L565.43,251.17L570.23,249.32L571.83,248.4L575.04,243.99L576.64,242.36L579.84,233.9L581.45,230.8L584.65,226.79L586.25,224.7L587.85,219.7L589.46,218.07L591.06,108.22L592.66,107.04L602.27,104.54L603.87,104.39L611.88,103.74L613.48,102.93L615.08,102.78L616.69,103.52L619.89,103.52L621.49,106.37L623.09,107.56L624.69,110.3L626.3,111.04L627.9,113.71L629.5,115L631.1,118.93L632.7,120.68L634.31,125.62L635.91,135.37L637.51,138.42L639.11,36L640.71,36L658.33,36.65L659.93,36.89L661.53,36.77L663.14,38.24L664.74,38.13L666.34,40.75L667.94,40.99L669.54,42.55L671.14,44.66L672.75,49.39L674.35,53.89L675.95,54.81L680.76,54.38L682.36,53.78L687.16,54.11L688.77,54.92L691.97,55.57L693.57,57.6L695.17,59.03L696.77,69.8L699.98,116.82L701.58,128.63L703.18,221.46L704.78,240.62L706.38,239.23L707.99,236.11L709.59,231.31L711.19,216.95L712.79,212.54L714.39,204.02L715.99,203.01L717.6,203.86L719.2,204.21L720.8,206.61L727.21,212.76L728.81,213.69L735.22,216.02L736.82,215.88L738.42,215.11L740.02,211.85L741.62,210.45L743.23,215.95L744.83,280.96L746.43,252L762.45,252L764.05,232.21L765.65,235.1L767.25,155.32L768.86,217.42L770.46,236.58L772.06,252L773.66,252L796.08,252L797.69,249.81L799.29,240.78L800.89,144L810.5,144L812.1,199.33L813.7,252L815.31,252L826.52,252L828.12,254.07L829.72,344.48L831.32,360L832.93,360L834.53,411.55L836.13,463.43L837.73,468L879.38,468L880.98,469.24L882.58,556.29L884.18,575.97L924.23,576L925.83,576L1154.88,576L1156.48,571.46L1158.09,468L1159.69,468L1177.31,468L1178.91,463.46L1180.51,367.98L1182.11,360L1204.54,360L1206.14,356.52L1209.34,306.89L1210.94,245.52L1212.55,144L1214.15,144L1244.58,143.75L1246.18,142.02L1247.79,141.38L1249.39,138.95L1255.79,135.48L1257.4,138.98L1259,183.7L1260.6,197L1262.2,207.12L1263.8,210.97L1265.41,198.23L1267.01,145.38L1270.21,219.09L1271.81,228.45L1273.41,228.48L1275.02,229.69L1278.22,228.43L1279.82,228.17L1284.63,227.11L1286.23,227.25L1291.03,226.43L1292.64,226.64L1300.64,227.51L1302.25,228.23L1303.85,231.82L1305.45,240.88L1310.26,250.29L1311.86,251.9L1316.66,252L1318.26,258.66L1319.87,335.34L1321.47,335.34L1323.07,360L1324.67,360L1332.68,360L1334.28,363.01L1335.88,374.88L1337.49,379.25L1339.09,406.62L1340.69,415.49L1342.29,438.75L1343.89,441.93L1347.1,439.93L1348.7,440.52L1351.9,442.61L1353.5,455.42L1356.71,468L1358.31,468L1391.95,468L1393.55,468.89L1396.75,534.86L1398.35,572.18L1399.96,575.14L1401.56,576L1403.16,684L1404.76,684L1440,684" style="vector-effect: none; fill: none; stroke: rgb(171, 99, 250); stroke-opacity: 1; stroke-width: 3px; opacity: 1;"/></g><g class="points"/><g class="text"/></g><g class="trace scatter tracef7803c" style="stroke-miterlimit: 2; opacity: 1;"><g class="fills"/><g class="errorbars"/><g class="lines"><path class="js-line" d="M0,684L9.61,683.61L11.21,670.4L12.82,576L14.42,576L16.02,576L17.62,591.71L20.82,683.93L22.43,684L150.57,683.99L152.17,681.31L153.77,680.52L155.37,676.04L156.97,676.04L158.58,673.44L161.78,669.83L163.38,666.22L168.19,664.93L169.79,662.96L171.39,657.39L172.99,655.63L174.59,651.5L176.2,650.34L179.4,645.83L181,623.06L182.6,623.06L184.21,600.92L185.81,589.67L187.41,587.77L189.01,576L190.61,576L195.42,576L197.02,577.6L200.22,584.83L201.82,588.78L205.03,589.33L206.63,588.83L208.23,589.44L209.83,588.22L214.64,592.09L216.24,592.09L219.44,594.38L221.05,598.66L224.25,635.42L225.85,673.02L229.06,684L230.66,684L379.62,684L381.22,682.12L382.83,660.17L384.43,624.49L386.03,576L387.63,576L522.18,575.53L523.78,571.57L525.38,485.78L526.99,476.55L528.59,468L530.19,468L579.84,468L581.45,465.47L583.05,463.46L584.65,457.1L587.85,426.26L589.46,379.94L592.66,367.06L594.26,414.7L597.46,468L599.07,468L600.67,476.89L602.27,481.22L605.47,499.66L607.07,502.78L608.68,507.17L610.28,509.2L611.88,518.33L613.48,518.64L616.69,519.55L618.29,522.45L621.49,531.69L623.09,536.5L624.69,537.69L626.3,543.67L627.9,546.12L629.5,552L631.1,552.43L632.7,554.21L635.91,555.15L637.51,554.99L643.92,554.59L645.52,554.34L648.72,553.24L650.32,553.24L653.53,551.34L655.13,550.55L658.33,550.79L659.93,549.28L661.54,549.11L663.14,548.08L664.74,549.44L666.34,549.3L672.75,549.96L674.35,550.84L675.95,550.9L677.55,558.69L679.16,569.48L680.76,605.36L682.36,639.14L683.96,646.63L685.56,637.67L687.16,593L688.77,537.5L690.37,537.32L691.97,536.54L693.57,536.89L698.38,538.42L699.98,540.42L704.78,551.23L706.39,556.2L709.59,561.11L711.19,565.27L714.39,569.48L716,569.91L719.2,573.22L720.8,573.83L724.01,574.69L725.61,574.96L727.21,576L728.81,576L730.41,571.76L732.01,571.76L733.62,567.67L735.22,567.15L740.02,565.02L741.62,523.45L744.83,488.59L746.43,486.81L751.24,487.57L752.84,474.49L754.44,469.42L756.04,468L797.69,468L799.29,576L824.92,576L826.52,589.06L828.12,597.39L829.72,663.47L831.32,676.98L832.93,684L1191.72,684L1193.33,676.07L1194.93,676.07L1196.53,576L1198.13,576L1199.73,503.07L1201.34,468L1202.94,468L1206.14,468L1207.74,459.74L1209.34,360L1210.95,350.38L1212.55,350.38L1214.15,252L1265.41,252L1267.01,284.81L1268.61,284.81L1270.21,360L1329.48,360L1331.08,425.85L1332.68,454.97L1334.28,468L1438.4,468L1440,448.36" style="vector-effect: none; fill: none; stroke: rgb(255, 161, 90); stroke-opacity: 1; stroke-width: 3px; opacity: 1;"/></g><g class="points"/><g class="text"/></g></g></g></g><path class="xlines-above crisp" d="M0,0" style="fill: none;"/><path class="ylines-above crisp" d="M0,0" style="fill: none;"/><g class="overlines-above"/><g class="xaxislayer-above"><g class="xtick"><text text-anchor="middle" x="0" y="841" transform="translate(238.58,0)" style="font-family: 'Open Sans', verdana, arial, sans-serif; font-size: 20px; fill: rgb(42, 63, 95); fill-opacity: 1; white-space: pre; opacity: 1;">2</text></g><g class="xtick"><text text-anchor="middle" x="0" y="841" style="font-family: 'Open Sans', verdana, arial, sans-serif; font-size: 20px; fill: rgb(42, 63, 95); fill-opacity: 1; white-space: pre; opacity: 1;" transform="translate(398.75,0)">4</text></g><g class="xtick"><text text-anchor="middle" x="0" y="841" style="font-family: 'Open Sans', verdana, arial, sans-serif; font-size: 20px; fill: rgb(42, 63, 95); fill-opacity: 1; white-space: pre; opacity: 1;" transform="translate(558.9300000000001,0)">6</text></g><g class="xtick"><text text-anchor="middle" x="0" y="841" style="font-family: 'Open Sans', verdana, arial, sans-serif; font-size: 20px; fill: rgb(42, 63, 95); fill-opacity: 1; white-space: pre; opacity: 1;" transform="translate(719.11,0)">8</text></g><g class="xtick"><text text-anchor="middle" x="0" y="841" style="font-family: 'Open Sans', verdana, arial, sans-serif; font-size: 20px; fill: rgb(42, 63, 95); fill-opacity: 1; white-space: pre; opacity: 1;" transform="translate(879.29,0)">10</text></g><g class="xtick"><text text-anchor="middle" x="0" y="841" style="font-family: 'Open Sans', verdana, arial, sans-serif; font-size: 20px; fill: rgb(42, 63, 95); fill-opacity: 1; white-space: pre; opacity: 1;" transform="translate(1039.47,0)">12</text></g><g class="xtick"><text text-anchor="middle" x="0" y="841" style="font-family: 'Open Sans', verdana, arial, sans-serif; font-size: 20px; fill: rgb(42, 63, 95); fill-opacity: 1; white-space: pre; opacity: 1;" transform="translate(1199.64,0)">14</text></g><g class="xtick"><text text-anchor="middle" x="0" y="841" style="font-family: 'Open Sans', verdana, arial, sans-serif; font-size: 20px; fill: rgb(42, 63, 95); fill-opacity: 1; white-space: pre; opacity: 1;" transform="translate(1359.82,0)">16</text></g><g class="xtick"><text text-anchor="middle" x="0" y="841" style="font-family: 'Open Sans', verdana, arial, sans-serif; font-size: 20px; fill: rgb(42, 63, 95); fill-opacity: 1; white-space: pre; opacity: 1;" transform="translate(1520,0)">18</text></g></g><g class="yaxislayer-above"><g class="ytick"><text text-anchor="end" x="79" y="7" transform="translate(0,784)" style="font-family: 'Open Sans', verdana, arial, sans-serif; font-size: 20px; fill: rgb(42, 63, 95); fill-opacity: 1; white-space: pre; opacity: 1;">0</text></g><g class="ytick"><text text-anchor="end" x="79" y="7" style="font-family: 'Open Sans', verdana, arial, sans-serif; font-size: 20px; fill: rgb(42, 63, 95); fill-opacity: 1; white-space: pre; opacity: 1;" transform="translate(0,654.4)">0.1</text></g><g class="ytick"><text text-anchor="end" x="79" y="7" style="font-family: 'Open Sans', verdana, arial, sans-serif; font-size: 20px; fill: rgb(42, 63, 95); fill-opacity: 1; white-space: pre; opacity: 1;" transform="translate(0,524.8)">0.2</text></g><g class="ytick"><text text-anchor="end" x="79" y="7" style="font-family: 'Open Sans', verdana, arial, sans-serif; font-size: 20px; fill: rgb(42, 63, 95); fill-opacity: 1; white-space: pre; opacity: 1;" transform="translate(0,395.2)">0.3</text></g><g class="ytick"><text text-anchor="end" x="79" y="7" style="font-family: 'Open Sans', verdana, arial, sans-serif; font-size: 20px; fill: rgb(42, 63, 95); fill-opacity: 1; white-space: pre; opacity: 1;" transform="translate(0,265.6)">0.4</text></g><g class="ytick"><text text-anchor="end" x="79" y="7" style="font-family: 'Open Sans', verdana, arial, sans-serif; font-size: 20px; fill: rgb(42, 63, 95); fill-opacity: 1; white-space: pre; opacity: 1;" transform="translate(0,136)">0.5</text></g></g><g class="overaxes-above"/></g></g><g class="polarlayer"/><g class="smithlayer"/><g class="ternarylayer"/><g class="geolayer"/><g class="funnelarealayer"/><g class="pielayer"/><g class="iciclelayer"/><g class="treemaplayer"/><g class="sunburstlayer"/><g class="glimages"/><defs id="topdefs-05c465"><g class="clips"/><clipPath id="legend05c465"><rect width="84" height="181" x="0" y="0"/></clipPath></defs><g class="layer-above"><g class="imagelayer"/><g class="shapelayer"/></g><g class="infolayer"><g class="legend" pointer-events="all" transform="translate(242.72,110.08000000000001)"><rect class="bg" shape-rendering="crispEdges" width="84" height="181" x="0" y="0" style="stroke: rgb(68, 68, 68); stroke-opacity: 1; fill: rgb(255, 255, 255); fill-opacity: 1; stroke-width: 0px;"/><g class="scrollbox" transform="" clip-path="url(#legend05c465)"><g class="groups"><g class="traces" transform="translate(0,22.1)" style="opacity: 1;"><text class="legendtext" text-anchor="start" x="40" y="9.360000000000001" style="font-family: 'Open Sans', verdana, arial, sans-serif; font-size: 24px; fill: rgb(42, 63, 95); fill-opacity: 1; white-space: pre;">1m</text><g class="layers" style="opacity: 1;"><g class="legendfill"/><g class="legendlines"><path class="js-line" d="M5,0h30" style="fill: none; stroke: rgb(99, 110, 250); stroke-opacity: 1; stroke-width: 3px;"/></g><g class="legendsymbols"><g class="legendpoints"/></g></g><rect class="legendtoggle" x="0" y="-17.1" width="78.609375" height="34.2" style="fill: rgb(0, 0, 0); fill-opacity: 0;"/></g><g class="traces" transform="translate(0,56.300000000000004)" style="opacity: 1;"><text class="legendtext" text-anchor="start" x="40" y="9.360000000000001" style="font-family: 'Open Sans', verdana, arial, sans-serif; font-size: 24px; fill: rgb(42, 63, 95); fill-opacity: 1; white-space: pre;">2m</text><g class="layers" style="opacity: 1;"><g class="legendfill"/><g class="legendlines"><path class="js-line" d="M5,0h30" style="fill: none; stroke: rgb(239, 85, 59); stroke-opacity: 1; stroke-width: 3px;"/></g><g class="legendsymbols"><g class="legendpoints"/></g></g><rect class="legendtoggle" x="0" y="-17.1" width="78.609375" height="34.2" style="fill: rgb(0, 0, 0); fill-opacity: 0;"/></g><g class="traces" transform="translate(0,90.5)" style="opacity: 1;"><text class="legendtext" text-anchor="start" x="40" y="9.360000000000001" style="font-family: 'Open Sans', verdana, arial, sans-serif; font-size: 24px; fill: rgb(42, 63, 95); fill-opacity: 1; white-space: pre;">3m</text><g class="layers" style="opacity: 1;"><g class="legendfill"/><g class="legendlines"><path class="js-line" d="M5,0h30" style="fill: none; stroke: rgb(0, 204, 150); stroke-opacity: 1; stroke-width: 3px;"/></g><g class="legendsymbols"><g class="legendpoints"/></g></g><rect class="legendtoggle" x="0" y="-17.1" width="78.609375" height="34.2" style="fill: rgb(0, 0, 0); fill-opacity: 0;"/></g><g class="traces" transform="translate(0,124.70000000000002)" style="opacity: 1;"><text class="legendtext" text-anchor="start" x="40" y="9.360000000000001" style="font-family: 'Open Sans', verdana, arial, sans-serif; font-size: 24px; fill: rgb(42, 63, 95); fill-opacity: 1; white-space: pre;">4m</text><g class="layers" style="opacity: 1;"><g class="legendfill"/><g class="legendlines"><path class="js-line" d="M5,0h30" style="fill: none; stroke: rgb(171, 99, 250); stroke-opacity: 1; stroke-width: 3px;"/></g><g class="legendsymbols"><g class="legendpoints"/></g></g><rect class="legendtoggle" x="0" y="-17.1" width="78.609375" height="34.2" style="fill: rgb(0, 0, 0); fill-opacity: 0;"/></g><g class="traces" transform="translate(0,158.9)" style="opacity: 1;"><text class="legendtext" text-anchor="start" x="40" y="9.360000000000001" style="font-family: 'Open Sans', verdana, arial, sans-serif; font-size: 24px; fill: rgb(42, 63, 95); fill-opacity: 1; white-space: pre;">5m</text><g class="layers" style="opacity: 1;"><g class="legendfill"/><g class="legendlines"><path class="js-line" d="M5,0h30" style="fill: none; stroke: rgb(255, 161, 90); stroke-opacity: 1; stroke-width: 3px;"/></g><g class="legendsymbols"><g class="legendpoints"/></g></g><rect class="legendtoggle" x="0" y="-17.1" width="78.609375" height="34.2" style="fill: rgb(0, 0, 0); fill-opacity: 0;"/></g></g></g><rect class="scrollbar" rx="20" ry="3" width="0" height="0" x="0" y="0" style="fill: rgb(128, 139, 164); fill-opacity: 1;"/></g><g class="g-gtitle"><text class="gtitle" x="800" y="50" text-anchor="middle" dy="0.7em" style="opacity: 1; font-family: 'Open Sans', verdana, arial, sans-serif; font-size: 20px; fill: rgb(42, 63, 95); fill-opacity: 1; font-weight: bold; white-space: pre;">Yielding, Front and no eHMI</text></g><g class="g-xtitle"><text class="xtitle" x="800" y="873.5" text-anchor="middle" style="opacity: 1; font-family: 'Open Sans', verdana, arial, sans-serif; font-size: 20px; fill: rgb(42, 63, 95); fill-opacity: 1; white-space: pre;">Time (in seconds)</text></g><g class="g-ytitle"><text class="ytitle" transform="rotate(-90,24.78125,460)" x="24.78125" y="460" text-anchor="middle" style="opacity: 1; font-family: 'Open Sans', verdana, arial, sans-serif; font-size: 20px; fill: rgb(42, 63, 95); fill-opacity: 1; white-space: pre;">Trigger press</text></g></g></svg>