<svg class="main-svg" xmlns="http://www.w3.org/2000/svg" xmlns:xlink="http://www.w3.org/1999/xlink" width="4800" height="2700" style="" viewBox="0 0 1600 900"><rect x="0" y="0" width="1600" height="900" style="fill: rgb(255, 255, 255); fill-opacity: 1;"/><defs id="defs-080bfa"><g class="clips"><clipPath id="clip080bfaxyplot" class="plotclip"><rect width="1429" height="720"/></clipPath><clipPath class="axesclip" id="clip080bfax"><rect x="91" y="0" width="1429" height="900"/></clipPath><clipPath class="axesclip" id="clip080bfay"><rect x="0" y="100" width="1600" height="720"/></clipPath><clipPath class="axesclip" id="clip080bfaxy"><rect x="91" y="100" width="1429" height="720"/></clipPath></g><g class="gradients"/><g class="patterns"/></defs><g class="bglayer"><rect class="bg" x="91" y="100" width="1429" height="720" style="fill: rgb(229, 236, 246); fill-opacity: 1; stroke-width: 0;"/></g><g class="layer-below"><g class="imagelayer"/><g class="shapelayer"/></g><g class="cartesianlayer"><g class="subplot xy"><g class="layer-subplot"><g class="shapelayer"/><g class="imagelayer"/></g><g class="minor-gridlayer"><g class="x"/><g class="y"/></g><g class="gridlayer"><g class="x"><path class="xgrid crisp" transform="translate(248.37,0)" d="M0,100v720" style="stroke: rgb(255, 255, 255); stroke-opacity: 1; stroke-width: 1px;"/><path class="xgrid crisp" transform="translate(407.32,0)" d="M0,100v720" style="stroke: rgb(255, 255, 255); stroke-opacity: 1; stroke-width: 1px;"/><path class="xgrid crisp" transform="translate(566.27,0)" d="M0,100v720" style="stroke: rgb(255, 255, 255); stroke-opacity: 1; stroke-width: 1px;"/><path class="xgrid crisp" transform="translate(725.23,0)" d="M0,100v720" style="stroke: rgb(255, 255, 255); stroke-opacity: 1; stroke-width: 1px;"/><path class="xgrid crisp" transform="translate(884.18,0)" d="M0,100v720" style="stroke: rgb(255, 255, 255); stroke-opacity: 1; stroke-width: 1px;"/><path class="xgrid crisp" transform="translate(1043.1399999999999,0)" d="M0,100v720" style="stroke: rgb(255, 255, 255); stroke-opacity: 1; stroke-width: 1px;"/><path class="xgrid crisp" transform="translate(1202.09,0)" d="M0,100v720" style="stroke: rgb(255, 255, 255); stroke-opacity: 1; stroke-width: 1px;"/><path class="xgrid crisp" transform="translate(1361.05,0)" d="M0,100v720" style="stroke: rgb(255, 255, 255); stroke-opacity: 1; stroke-width: 1px;"/></g><g class="y"><path class="ygrid crisp" transform="translate(0,781.79)" d="M91,0h1429" style="stroke: rgb(255, 255, 255); stroke-opacity: 1; stroke-width: 1px;"/><path class="ygrid crisp" transform="translate(0,671.24)" d="M91,0h1429" style="stroke: rgb(255, 255, 255); stroke-opacity: 1; stroke-width: 1px;"/><path class="ygrid crisp" transform="translate(0,560.69)" d="M91,0h1429" style="stroke: rgb(255, 255, 255); stroke-opacity: 1; stroke-width: 1px;"/><path class="ygrid crisp" transform="translate(0,339.59000000000003)" d="M91,0h1429" style="stroke: rgb(255, 255, 255); stroke-opacity: 1; stroke-width: 1px;"/><path class="ygrid crisp" transform="translate(0,229.04)" d="M91,0h1429" style="stroke: rgb(255, 255, 255); stroke-opacity: 1; stroke-width: 1px;"/><path class="ygrid crisp" transform="translate(0,118.49)" d="M91,0h1429" style="stroke: rgb(255, 255, 255); stroke-opacity: 1; stroke-width: 1px;"/></g></g><g class="zerolinelayer"><path class="yzl zl crisp" transform="translate(0,450.14)" d="M91,0h1429" style="stroke: rgb(255, 255, 255); stroke-opacity: 1; stroke-width: 2px;"/></g><g class="layer-between"><g class="shapelayer"/><g class="imagelayer"/></g><path class="xlines-below"/><path class="ylines-below"/><g class="overlines-below"/><g class="xaxislayer-below"/><g class="yaxislayer-below"/><g class="overaxes-below"/><g class="overplot"><g class="xy" transform="translate(91,100)" clip-path="url(#clip080bfaxyplot)"><g class="scatterlayer mlayer"><g class="trace scatter tracee31068" style="stroke-miterlimit: 2; opacity: 1;"><g class="fills"/><g class="errorbars"/><g class="lines"><path class="js-line" d="M0,427.85L4.77,418.04L6.36,412.71L7.95,411.61L9.54,403.93L12.72,393.93L14.31,390.53L15.9,385.85L17.49,384.21L20.67,378.49L22.25,372.34L23.84,369.47L25.43,362.21L30.2,347.24L31.79,342.99L38.15,323.33L39.74,317.28L47.69,273.85L49.28,269.32L52.46,258.55L54.05,255.02L57.22,244.22L58.81,236.11L68.35,203.72L69.94,199.83L71.53,198.3L73.12,189.54L74.71,185.41L76.3,178.73L81.07,173.61L82.66,171.22L84.25,171.86L85.84,171.06L89.02,170.65L90.61,167.76L92.19,168.81L93.78,167.08L96.96,163.64L98.55,160.23L100.14,159.83L101.73,157.38L104.91,152.84L106.5,147.75L108.09,146.33L109.68,139.1L111.27,136.42L112.86,127.22L114.45,127.92L116.04,125.22L117.63,128.92L119.22,129.95L120.81,137.55L122.4,141.17L125.58,152.64L127.16,159.28L136.7,205.1L138.29,213.76L139.88,220.83L141.47,233.77L146.24,254.91L147.83,259.59L149.42,263.97L151.01,266.13L152.6,267.71L154.19,267.91L155.78,266.21L157.37,267.15L158.95,269.91L160.54,270.31L162.13,269.49L163.72,274.91L165.31,278.76L166.9,279.74L168.49,280.76L170.08,287.85L171.67,292.35L173.26,287.95L174.85,286.86L176.44,286.8L178.03,286.6L179.62,281.89L182.8,277.39L184.39,274.07L187.57,271.55L189.16,271.69L190.75,272.26L192.34,274.72L193.92,277.62L195.51,278.74L197.1,281.19L198.69,282.16L201.87,282.88L203.46,285L208.23,286.86L209.82,287.48L211.41,289.75L213,294.36L214.59,299.61L216.18,300.59L219.36,310.05L220.95,306.14L222.54,307.41L224.13,310.75L227.31,316.65L228.89,316.91L232.07,319.1L233.66,320.94L235.25,321.19L236.84,325.86L243.2,335.73L244.79,336.45L247.97,338.46L249.56,341.88L254.33,348.37L255.92,349.48L259.1,350.35L260.69,351.74L262.28,353.06L263.86,355.49L268.63,360.25L270.22,363.92L271.81,367.14L273.4,368.4L276.58,369.15L278.17,369.86L286.12,370.36L287.71,369.46L290.89,369.3L292.48,371.42L298.83,378.87L300.42,381L302.01,382.18L303.6,384.44L305.19,382.32L306.78,383.39L308.37,382.68L309.96,383.84L319.5,388.61L321.09,390.75L325.86,394.35L327.45,394.82L329.04,396.41L330.63,396.86L336.98,405.81L338.57,407.21L341.75,414.07L343.34,417.69L346.52,421.49L348.11,421.94L351.29,424.19L352.88,423.87L354.47,424.89L356.06,424.55L362.42,417.89L364.01,417.24L367.19,418.12L368.78,419.22L373.54,421.83L375.13,424.36L376.72,424.82L378.31,426.08L379.9,427.96L381.49,428.44L383.08,430.61L384.67,431.33L387.85,435.53L389.44,436.3L391.03,438.82L392.62,439.93L394.21,443.6L395.8,445.32L397.39,446.66L398.98,446.62L400.57,448.16L402.16,448.62L403.74,448.92L405.33,450.14L406.92,450.39L408.51,449.25L411.69,447.6L413.28,446.51L424.41,437.68L426,436.16L427.59,433.97L429.18,433.5L432.36,432.75L433.95,431.77L438.71,429.17L440.3,427.93L445.07,424.92L446.66,424.99L449.84,423.4L451.43,422.35L454.61,420.91L456.2,419.54L462.56,418.96L464.15,419.17L470.51,419.61L472.09,418.94L475.27,418.08L476.86,418.39L478.45,417.86L480.04,418.24L483.22,417.34L484.81,416.48L491.17,414.9L492.76,414.76L495.94,413.93L497.53,413.78L513.42,414.12L515.01,413.74L516.6,413.72L518.19,412.82L524.55,411.82L526.14,412.13L529.32,412.25L530.91,412.54L534.09,412.37L535.68,412.3L545.21,410.65L546.8,409.94L551.57,408.59L553.16,407.95L564.29,405.45L565.88,405.59L573.83,407.87L575.42,409.5L577,409.97L578.59,412.14L581.77,413.53L583.36,414.16L584.95,414.39L586.54,416.3L588.13,417.65L589.72,420.18L596.08,426.52L597.67,428.7L602.44,434.36L604.03,435.19L610.39,438.82L611.98,439.32L621.51,445.1L623.1,445.59L626.28,446.59L627.87,447.18L637.41,454.89L639,457.54L642.18,460.19L643.77,461.47L648.53,465.47L650.12,465.32L651.71,466.36L653.3,465.9L654.89,467L656.48,466.1L658.07,467.28L659.66,466.27L661.25,465.23L662.84,465.67L664.43,464.77L666.02,465.44L667.61,463.73L669.2,464.26L672.38,463.25L673.97,462.65L680.33,458.98L681.91,459.76L685.09,458.86L686.68,460.07L688.27,459.77L689.86,460.5L693.04,460.16L694.63,461.52L697.81,459.37L699.4,459.85L700.99,458.79L702.58,459.55L704.17,459.28L705.76,457.93L708.94,457.92L710.53,456.69L712.12,457.38L713.71,456.21L715.29,455.24L716.88,455.49L723.24,453.01L724.83,452.67L728.01,451.3L729.6,451.26L734.37,451.01L735.96,450.95L737.55,451L739.14,450.14L745.5,445.74L747.09,444.35L751.85,441.53L753.44,441.14L755.03,439.92L756.62,439.79L762.98,433.33L764.57,431.15L767.75,427.91L769.34,426.7L772.52,423.58L774.11,422L782.06,416.2L783.65,415.38L786.82,414.42L788.41,412.59L796.36,407.6L797.95,405.88L802.72,403.29L804.31,401.51L807.49,399.62L809.08,399.29L810.67,399.36L812.26,398.55L817.03,395.37L818.62,394.68L821.79,392.91L823.38,391.94L826.56,391.06L828.15,391.35L831.33,390.62L832.92,389.9L840.87,386.25L842.46,385.96L845.64,386.31L847.23,386.64L852,387.36L853.59,388.78L855.17,389.47L856.76,391.11L863.12,394.01L864.71,394.37L867.89,393.46L869.48,393.25L882.2,385.12L883.79,384.89L886.97,383.88L888.56,383.64L891.73,382.92L893.32,383.31L898.09,383.97L899.68,385.23L904.45,386.37L906.04,386.79L910.81,388.49L912.4,388.66L917.17,388.45L918.76,388.09L928.29,383.57L929.88,383.51L933.06,382.89L934.65,383.1L944.19,386.69L945.78,387.56L948.96,389.21L950.55,389.86L960.08,391.54L961.67,391.82L964.85,393.07L966.44,393.33L968.03,394.15L969.62,395.97L974.39,399.9L975.98,401.95L977.57,402.27L979.16,403.49L980.75,403.53L982.34,404.79L985.52,406.23L987.11,407.43L990.29,408.68L991.88,408.22L995.05,407.02L996.64,408L1003,407.09L1004.59,406.86L1014.13,401.98L1015.72,400.85L1022.08,397.19L1023.67,396.78L1031.61,393.85L1033.2,392.72L1034.79,392.37L1036.38,391.17L1041.15,388.32L1042.74,386.53L1049.1,384.9L1050.69,385.77L1055.46,380.96L1057.05,379L1060.23,374.29L1061.82,373.57L1064.99,370.18L1066.58,369.22L1068.17,368.72L1069.76,367.24L1072.94,365.01L1074.53,363.93L1084.07,355.66L1085.66,353.85L1092.02,348.71L1093.61,347.69L1098.37,346.13L1099.96,345.98L1106.32,344.87L1107.91,344L1112.68,340.33L1114.27,339.54L1119.04,336.31L1120.63,334.7L1126.99,333.95L1128.58,333.35L1130.17,332.85L1131.76,331.39L1133.34,330.42L1134.93,328.15L1138.11,325.95L1139.7,322.21L1141.29,322.02L1142.88,319.51L1144.47,319.67L1146.06,316.78L1149.24,318L1150.83,316.12L1152.42,318.51L1154.01,316.81L1155.6,318.24L1157.19,317.58L1163.55,319.74L1165.14,319.73L1169.9,320.33L1171.49,320.87L1173.08,321.3L1174.67,323.79L1179.44,326.98L1181.03,326.93L1182.62,329.96L1184.21,329.89L1185.8,330.25L1187.39,331.78L1192.16,330.47L1193.75,330.2L1201.7,327.57L1203.28,327.64L1206.46,327.66L1208.05,327.69L1211.23,329.07L1212.82,328.88L1217.59,330.26L1219.18,329.84L1220.77,329.92L1222.36,331.84L1223.95,332.33L1225.54,333.67L1227.13,332.79L1228.72,334.54L1233.49,337.37L1235.08,337.75L1236.67,338.95L1238.25,338.29L1239.84,338.6L1241.43,337.68L1247.79,336.01L1249.38,336.67L1250.97,336.89L1252.56,335.83L1254.15,335.44L1255.74,333.59L1262.1,332.32L1263.69,330.01L1266.87,327.01L1268.46,322.94L1274.81,306.27L1276.4,304.1L1277.99,302.54L1279.58,302.17L1281.17,301.68L1282.76,302.44L1285.94,303.22L1287.53,302.37L1289.12,302.24L1290.71,303.24L1293.89,301.83L1295.48,302.35L1297.07,302.1L1298.66,300.84L1300.25,300.78L1301.84,301.52L1305.02,301.18L1306.6,302.18L1311.37,306L1312.96,306.27L1316.14,307.61L1317.73,308.9L1324.09,312.48L1325.68,312.33L1330.45,311.72L1332.04,313.24L1336.81,314.52L1338.4,314.47L1343.16,316.91L1344.75,317.46L1349.52,320.51L1351.11,321.6L1357.47,319.93L1359.06,319.09L1362.24,315.35L1363.83,314.4L1365.42,313.5L1367.01,313.57L1368.6,312.21L1370.19,313.31L1371.78,312.71L1373.37,312.95L1378.13,314.71L1379.72,316.51L1381.31,318.45L1382.9,317.36L1386.08,318.48L1387.67,317.25L1389.26,317.79L1390.85,317.44L1397.21,316.63L1398.8,318.28L1401.98,320.8L1403.57,322.77L1405.16,324.22L1406.75,327.4L1409.93,330.79L1411.51,335.24L1414.69,344.13L1416.28,347.1L1417.87,346.76L1419.46,348.42L1421.05,349.52L1422.64,348.93L1424.23,350.09L1425.82,350.17L1427.41,350.29L1429,352.08" style="vector-effect: none; fill: none; stroke: rgb(99, 110, 250); stroke-opacity: 1; stroke-width: 3px; opacity: 1;"/></g><g class="points"/><g class="text"/></g><g class="trace scatter trace499175" style="stroke-miterlimit: 2; opacity: 1;"><g class="fills"/><g class="errorbars"/><g class="lines"><path class="js-line" d="M0,358.79L4.77,357.19L6.36,356.46L12.72,354.65L14.31,355.53L17.49,356.1L19.08,355.07L27.02,345.8L28.61,342.47L31.79,337.03L33.38,333.81L38.15,319.62L39.74,314.39L42.92,306L44.51,301.39L52.46,271.67L54.05,268.07L58.81,262.34L60.4,259.08L63.58,257.77L65.17,259.13L66.76,257.05L68.35,256.89L69.94,254.54L71.53,255L73.12,252.54L74.71,251.55L76.3,253.44L77.89,251.79L79.48,251.59L81.07,253.32L85.84,261.33L87.43,262.79L89.02,264.87L90.61,260.31L92.19,262.38L93.78,261.91L95.37,263.99L96.96,263.31L98.55,262.7L100.14,264.64L101.73,265.17L103.32,267.33L104.91,268.58L106.5,273.91L108.09,279.17L109.68,281.48L111.27,283.07L112.86,287.46L116.04,297.75L117.63,298.16L120.81,304.48L122.4,307.85L127.16,319.91L128.76,320.46L130.34,323.9L131.93,332.49L133.52,342.38L135.11,358.41L136.7,366.91L138.29,366.82L141.47,363.42L143.06,359.8L144.65,356.5L146.24,345.35L149.42,342.39L151.01,343.1L154.19,338.37L155.78,337.71L157.37,336.09L158.96,339.86L160.55,335.52L162.13,334.17L163.73,333.88L165.31,330.32L168.49,338.4L170.08,338.21L171.67,340.02L173.26,339.77L174.85,345.36L176.44,346.52L178.03,351.59L179.62,350.33L181.21,349.81L182.8,356.2L184.39,355.97L185.98,353.22L187.57,351.5L189.16,353.27L190.75,355.81L192.34,355.99L193.93,359.37L195.52,359.84L197.1,359.58L198.69,363.96L200.28,366.44L201.87,373.54L203.46,375.28L205.05,379.49L208.23,383.82L209.82,382.88L211.41,381.87L213,386.7L214.59,388.98L216.18,393.17L217.77,393.16L219.36,395.53L222.54,400.31L224.13,401.9L227.31,399.89L228.9,397.71L230.49,396.92L232.07,394.41L233.66,393.55L235.25,393.89L236.84,394.39L238.43,396.74L241.61,402.01L243.2,399.85L244.79,402.08L246.38,402.54L249.56,403.64L251.15,403.09L255.92,398.69L257.51,395.99L259.1,396.8L260.69,395.81L263.87,393.2L265.45,393.5L268.63,394.48L270.22,392.47L271.81,392.74L273.4,390.37L274.99,389.76L276.58,387.47L278.17,385.85L279.76,385.54L286.12,381.14L287.71,381.62L290.89,380.3L292.48,380.85L294.07,382.9L295.66,386.37L298.84,391.17L300.42,391.85L303.6,392.86L305.19,392.48L309.96,391.8L311.55,391.83L316.32,392.66L317.91,392.17L319.5,392.77L321.09,392.26L324.27,394.04L325.86,393.52L330.63,393.38L332.22,391.62L333.81,391.27L335.39,389.68L336.98,390.28L338.57,390.04L340.16,391.4L341.75,391.04L346.52,390.47L348.11,384.88L356.06,360.74L357.65,359.53L359.24,358.62L360.83,356.74L362.42,355.34L364.01,352.93L365.6,352.55L367.19,350.62L370.36,346.74L371.95,343.92L373.54,342.01L375.13,336.6L376.72,333.12L378.31,327.16L379.9,324.74L381.49,319.09L383.08,314.72L384.67,313.23L386.26,306.99L387.85,304.16L394.21,285.41L395.8,276.34L397.39,275.9L398.98,266.43L402.16,250.38L403.75,242.84L405.33,239.19L406.92,232.94L408.51,229.34L410.1,223.53L413.28,216.86L414.87,211.06L416.46,209.62L418.05,204.05L419.64,202.45L421.23,198.93L424.41,195.58L426,192.67L427.59,190.98L429.18,190.46L430.77,189.83L432.36,188L435.54,185.87L437.13,184.11L440.3,182.16L441.9,182.74L443.48,181.96L445.07,182.48L448.25,183.49L449.84,184.83L451.43,187.07L453.02,187.31L454.61,186.97L456.2,187.81L462.56,194.32L464.15,198.51L467.33,203.81L468.92,209.55L473.69,221.55L475.27,228.25L476.86,233.23L478.45,240.76L480.04,243.54L481.63,252.37L484.81,260.39L486.4,269.62L487.99,273.95L489.58,285.35L491.17,290.9L492.76,302.25L494.35,307.12L495.94,317.06L499.12,326.61L500.71,335.67L502.3,339.59L503.89,348.94L505.48,352.17L507.07,357.83L515.01,373.76L516.6,375.47L519.78,377.86L521.37,378.6L527.73,382.23L529.32,383.8L530.91,384.52L532.5,386.19L534.09,386.56L535.68,385.99L538.86,385.52L540.45,386.46L548.39,384.87L549.98,385.57L551.57,386.12L553.16,385.84L556.34,384.82L557.93,383.67L562.7,382.45L564.29,381.93L567.47,380.95L569.06,380.05L575.42,378.64L577.01,377.16L581.77,375.22L583.36,373.68L584.95,373.02L586.54,370.34L589.72,368.63L591.31,366.87L596.08,364.88L597.67,362.14L600.85,360.88L602.44,359.63L604.03,359.57L605.62,357.75L607.21,357.43L608.8,355.27L611.98,354.52L613.56,353.45L618.33,352.77L619.92,351.1L621.51,351.86L623.1,350.89L624.69,350.14L626.28,351.67L627.87,351.31L629.46,351.73L632.64,351.69L634.23,352.83L635.82,353.37L637.41,352.47L640.59,351.37L642.18,349.96L646.95,346.21L648.53,344.78L650.12,344.17L651.71,345.66L659.66,349.42L661.25,351.17L664.43,352.43L666.02,353.85L670.79,352.72L672.38,351.37L675.56,347.25L677.15,344.52L680.33,341.62L681.92,341.87L683.5,341.56L685.09,342.3L686.68,341.78L688.27,342.28L689.86,342.58L691.45,344.04L693.04,344.68L694.63,346.42L699.4,347.18L700.99,346.66L704.17,343.43L705.76,340.13L708.94,335.95L710.53,336.07L712.12,334.93L713.71,334.99L716.89,333.85L718.47,333.65L726.42,339.28L728.01,341.39L731.19,343.44L732.78,344.74L740.73,348.93L742.32,349.23L743.91,349.03L745.5,349.88L750.27,348.68L751.86,348.93L755.03,349.16L756.62,350.27L759.8,350.03L761.39,347.64L764.57,346.68L766.16,347.25L769.34,348.94L770.93,348.6L775.7,350.36L777.29,351.76L786.83,365.37L788.41,365.64L790,366.53L791.59,365.74L793.18,365.12L794.77,363.1L799.54,356.28L801.13,354.87L802.72,354.09L804.31,354.26L805.9,354.31L807.49,357.18L810.67,357.75L812.26,358.48L818.62,362.02L820.21,362.58L823.38,364.03L824.97,363.64L826.56,362.73L828.15,360.56L832.92,355.92L834.51,355.02L839.28,354.55L840.87,356.04L845.64,359.14L847.23,360.75L850.41,361.54L852,361.54L863.12,361.73L864.71,360.53L871.07,360.74L872.66,360.67L875.84,360.59L877.43,361.26L879.02,361.67L880.61,360.7L883.79,360.44L885.38,359.71L888.56,357.47L890.15,354.72L893.32,349.03L894.91,347.05L902.86,339.43L904.45,338.9L906.04,336.17L907.63,335.44L913.99,327.28L915.58,327.3L920.35,320.04L921.94,319.35L923.53,317.51L925.12,314.36L931.47,304.89L933.06,304.29L936.24,301.47L937.83,300.93L939.42,299.35L941.01,299.3L944.19,297.39L945.78,297.57L953.73,294.7L955.32,292.92L958.5,293.96L960.09,296.04L968.03,307.17L969.62,309.83L974.39,317.84L975.98,319.12L980.75,326.43L982.34,331.03L987.11,341.53L988.7,346.21L990.29,348.29L991.88,349.05L993.47,351.67L995.06,352.07L998.24,352.74L999.82,355.03L1004.59,360.95L1006.18,362.63L1007.77,365.2L1009.36,366.2L1014.13,373.54L1015.72,374.93L1020.49,379.99L1022.08,381.27L1023.67,384.03L1025.26,384.56L1026.85,384.83L1028.44,383.1L1031.61,382.44L1033.2,382.19L1034.79,380.86L1036.38,380.86L1039.56,378.22L1041.15,377.93L1042.74,377.74L1044.33,376.18L1045.92,375.36L1047.51,373.51L1050.69,370.98L1052.28,369.91L1053.87,367.5L1055.46,366.58L1058.64,361.44L1060.23,359.32L1066.58,348.93L1068.17,346.69L1072.94,343.07L1074.53,343.26L1076.12,342.5L1077.71,343.31L1080.89,345.74L1082.48,348.19L1084.07,349.91L1085.66,353.26L1087.25,354.87L1088.84,358.19L1101.55,372.83L1103.14,375.44L1114.27,383.73L1115.86,384.07L1123.81,382.15L1125.4,379.49L1126.99,378.1L1128.58,374.82L1133.35,369.51L1134.93,369.23L1138.11,368.29L1139.7,368.64L1146.06,371.74L1147.65,371.36L1158.78,369.51L1160.37,369.99L1163.55,371.24L1165.14,371.68L1168.32,372.6L1169.9,373.6L1174.67,374.98L1176.26,374.44L1182.62,373.45L1184.21,374.12L1187.39,373.7L1188.98,373.87L1190.57,375.28L1192.16,375.44L1193.75,376.43L1195.34,378.97L1200.11,381.71L1201.7,381.62L1204.87,380.82L1206.46,382.04L1209.64,380.27L1211.23,380.33L1214.41,378.01L1216,375.31L1217.59,374.64L1219.18,372.3L1225.54,370.36L1227.13,372.13L1231.9,372.64L1233.49,373.36L1235.08,374.77L1236.67,374.37L1239.84,376.28L1241.43,376.83L1243.02,377.13L1244.61,378.51L1257.33,399.64L1258.92,401.28L1260.51,402.39L1262.1,402.27L1263.69,401.98L1265.28,400.74L1268.46,395.8L1270.05,394.03L1273.23,390.22L1274.81,389.04L1276.41,388.99L1277.99,387.64L1279.58,387.26L1281.17,388.15L1285.94,383.77L1287.53,384.96L1289.12,380.94L1290.71,379.25L1297.07,369.15L1298.66,367.8L1301.84,360.21L1303.43,356.21L1305.02,351.44L1306.61,350.8L1308.2,349.93L1309.78,334.1L1311.37,328.73L1312.96,328.36L1314.55,327.64L1316.14,325.96L1319.32,325.52L1320.91,324.04L1325.68,323.83L1327.27,325.46L1328.86,326.81L1330.45,329.29L1332.04,332.84L1333.63,334.24L1336.81,340.98L1338.4,347.59L1339.99,349.07L1341.58,352.62L1343.17,352.83L1344.75,354.04L1347.93,354.84L1349.52,354.34L1351.11,353.73L1352.7,357.2L1357.47,361.39L1359.06,361.27L1367.01,361.48L1368.6,360.13L1373.37,359.1L1374.96,357.6L1378.14,356.97L1379.72,355.68L1381.31,354.66L1382.9,352.59L1384.49,352.34L1386.08,351.33L1387.67,350.48L1389.26,348.52L1394.03,344.5L1395.62,346.64L1397.21,344.4L1398.8,344.14L1400.39,343.38L1401.98,343.51L1405.16,337.66L1406.75,336L1411.52,331.34L1413.1,331.15L1416.28,329.67L1417.87,331.44L1419.46,333.45L1421.05,333.9L1422.64,334.75L1424.23,334.62L1429,329.27" style="vector-effect: none; fill: none; stroke: rgb(239, 85, 59); stroke-opacity: 1; stroke-width: 3px; opacity: 1;"/></g><g class="points"/><g class="text"/></g><g class="trace scatter tracee4fc72" style="stroke-miterlimit: 2; opacity: 1;"><g class="fills"/><g class="errorbars"/><g class="lines"><path class="js-line" d="M0,356.24L1.59,357.33L3.18,357.5L6.36,361.18L7.95,361.67L12.72,363.37L14.31,364.29L19.08,364.91L20.66,365.06L22.25,364.91L23.84,363.96L25.43,362.86L27.02,360.52L33.38,344.84L34.97,340.3L39.74,325.14L41.33,316.91L42.92,313.68L44.51,307.8L47.69,292.98L49.28,284.69L58.81,251.92L60.4,242.59L61.99,239.38L63.58,233.22L68.35,219.13L69.94,217.73L71.53,215.18L73.12,216.06L76.3,214.94L77.89,215.89L84.25,214.6L85.84,212.69L90.61,215.03L92.19,214.37L93.78,216.28L95.37,216.17L96.96,217.8L98.55,218.16L101.73,221.6L103.32,224.78L104.91,227.12L106.5,224.56L108.09,226.42L109.68,226.15L111.27,230.98L112.86,231.42L114.45,234.51L116.04,239.31L119.22,248.82L120.81,249.27L122.4,255.03L123.99,256.12L125.58,260.22L127.16,258.35L128.75,258.58L130.34,260.22L131.93,260.18L133.52,264.54L135.11,262.64L136.7,263.47L138.29,261.77L139.88,262.9L141.47,264.79L143.06,270.25L146.24,276.17L147.83,276.79L151.01,276.18L152.6,275L154.19,275.28L155.78,270.75L158.96,263.61L160.55,264.44L162.13,262.16L163.72,264.24L165.31,269.03L166.9,269.3L168.49,270.83L170.08,271.08L171.67,269.21L173.26,265.72L174.85,264.36L176.44,259.94L178.03,259.31L179.62,257.34L181.21,257.17L182.8,259.15L184.39,259.16L185.98,261.76L187.57,266.78L189.16,268.96L192.34,277.94L193.93,274.49L195.52,269.95L197.1,261.53L198.69,249.81L200.28,252.26L201.87,257.58L203.46,256.96L205.05,251.39L206.64,250.12L208.23,251.9L209.82,248.49L213,244.88L214.59,245.28L217.77,245.53L219.36,241.89L220.95,241.33L222.54,243.22L232.07,259.33L233.66,260.79L235.25,257.78L236.84,257.61L238.43,263.72L240.02,266.03L241.61,263.65L243.2,265.41L246.38,267.89L247.97,268.64L251.15,272.44L252.74,273.68L255.92,277.05L257.51,276.38L262.28,274.03L263.87,274.6L268.63,278.92L270.22,277.67L273.4,277.68L274.99,274.98L276.58,275.39L278.17,272.56L279.76,272.77L281.35,272.08L282.94,271.54L284.53,271.87L287.71,274.85L289.3,282.39L290.89,290.56L292.48,304.43L298.83,334.41L300.42,339.65L302.01,339.41L303.6,340.04L305.19,340.03L306.78,347.61L311.55,345.95L313.14,345.02L314.73,345.91L316.32,344.35L319.5,339.61L321.09,338.92L322.68,339.08L324.27,337.24L330.63,334.45L332.22,333.08L335.39,331.5L336.98,331.29L338.57,331.47L340.16,330.57L344.93,319.52L346.52,315.98L348.11,314.02L349.7,309.9L354.47,302.45L356.06,301.03L359.24,296.02L360.83,291.05L362.42,290.76L364.01,289.02L365.6,289.4L367.19,288.3L368.78,291.78L370.36,292.63L375.13,310.38L376.72,314.58L378.31,317.85L379.9,326.68L381.49,329.23L383.08,336.09L384.67,337.59L386.26,340.79L387.85,342.59L389.44,346.29L391.03,349.23L392.62,350.08L394.21,353.77L395.8,355.44L397.39,358.98L398.98,360.68L403.75,369.52L405.33,371.57L410.1,373.24L411.69,374.74L416.46,380.39L418.05,380.93L422.82,383.1L424.41,382.81L426,383.86L427.59,383.41L429.18,383.91L430.77,383.45L432.36,383.35L433.95,384.29L435.54,384.69L437.13,386.06L443.48,386.95L445.07,386.48L446.66,386.91L448.25,385.95L449.84,387.03L451.43,386.71L457.79,388.56L459.38,388.52L462.56,389.57L464.15,389.88L467.33,390.87L468.92,391.59L470.51,391.67L472.1,393.39L475.27,394.07L476.86,394.63L480.04,394.36L481.63,394.52L484.81,395.99L486.4,396.25L491.17,396.24L492.76,395.87L495.94,394.8L497.53,394.45L505.48,393.87L507.07,394.45L516.6,396.54L518.19,396.15L522.96,395.59L524.55,395.15L527.73,394.83L529.32,394.44L532.5,395.11L534.09,396.05L540.45,397.88L542.04,397.4L546.8,397.61L548.39,398.48L549.98,398.26L551.57,399.16L553.16,398.83L554.75,399.27L556.34,399.08L557.93,397.83L559.52,395.53L561.11,394.86L562.7,393.43L564.29,390.25L565.88,388.9L567.47,385.97L569.06,384.67L570.65,381.69L573.83,380.65L575.42,378.88L577,378.47L578.59,376.87L581.77,373.06L583.36,373.55L586.54,373.14L588.13,374.07L589.72,374L591.31,375.15L592.9,374L594.49,371.65L597.67,366.03L599.26,358.12L600.85,352.16L602.44,342.6L605.62,337.29L607.21,339.16L611.97,346.23L613.56,349.86L615.15,350.91L616.74,353.38L618.33,353.55L619.92,356.63L624.69,358.82L626.28,357.66L629.46,356.17L631.05,353.22L635.82,348.27L637.41,348.83L646.94,344.14L648.53,345.7L654.89,352.61L656.48,353.79L662.84,354.81L664.43,354.39L666.02,353.99L667.61,352.6L669.2,352.95L670.79,351.64L672.38,350.66L673.97,348.77L677.15,346.98L678.74,347.4L686.68,348.84L688.27,348.61L693.04,346.76L694.63,345.75L697.81,344.96L699.4,346.13L700.99,347.76L702.58,348.31L704.17,349.96L705.76,350.14L708.94,350.37L710.53,350.31L712.12,350.69L713.71,350.23L716.89,348.79L718.47,347.47L723.24,344.66L724.83,344.16L728.01,343.86L729.6,343.34L734.37,340.21L735.96,338.61L739.14,338.34L740.73,338.63L742.32,339.7L743.91,341.89L751.86,351.12L753.44,351.66L756.62,353.44L758.21,354.04L759.8,354.53L761.39,356.69L766.16,360.5L767.75,361.97L770.93,364.28L772.52,365.16L778.88,369.12L780.47,370.76L785.24,373.03L786.82,373.71L793.18,375.62L794.77,376.6L802.72,377.04L804.31,376.21L807.49,376L809.08,375.87L817.03,375.46L818.62,375.03L820.21,375.66L821.79,375.01L824.97,375.03L826.56,374.47L831.33,374.62L832.92,374.68L842.46,374.28L844.05,374.63L847.23,375.32L848.82,375.96L850.41,375.88L852,376.93L855.17,377.51L856.76,378.28L859.94,379.48L861.53,379.62L866.3,379.47L867.89,379.22L871.07,378.19L872.66,377.84L877.43,378.52L879.02,378.51L885.38,379.28L886.97,378.96L893.32,381.27L894.91,381.5L904.45,382.47L906.04,382.17L909.22,381.58L910.81,381.5L918.76,379.33L920.35,378.49L926.7,376.66L928.29,376.69L933.06,377.29L934.65,377.48L937.83,377.02L939.42,376.37L941.01,376.24L942.6,375.35L944.19,375.73L945.78,374.98L948.96,373.96L950.55,372.06L960.09,359.18L961.67,358.41L968.03,353.16L969.62,353.01L972.8,352.39L974.39,352.82L979.16,354.51L980.75,355.65L982.34,355.26L983.93,355.68L990.29,356.53L991.88,356.1L998.23,354.25L999.82,353.2L1004.59,350.48L1006.18,349.89L1009.36,348.79L1010.95,347.85L1018.9,345.6L1020.49,345.58L1023.67,345.43L1025.26,345.25L1039.56,341.91L1041.15,342.36L1045.92,343.47L1047.51,344.06L1052.28,344.74L1053.87,344.37L1055.46,344.05L1057.05,344.61L1061.82,344.02L1063.41,344.46L1066.58,344.23L1068.17,343.63L1071.35,343.1L1072.94,342.86L1076.12,342.8L1077.71,342.46L1088.84,345.68L1090.43,347.2L1096.79,350.57L1098.38,351.48L1103.14,354.04L1104.73,355.27L1109.5,357.95L1111.09,358.1L1119.04,363.08L1120.63,363.06L1123.81,364.53L1125.4,366.41L1130.17,370.32L1131.76,371.35L1138.11,376.5L1139.7,376.97L1147.65,383.21L1149.24,384.11L1150.83,386.71L1152.42,387.82L1154.01,389.8L1155.6,393.26L1158.78,397.14L1160.37,401.56L1163.55,405.61L1165.14,406.88L1168.31,408.16L1169.9,407.47L1177.85,403.63L1179.44,403.3L1181.03,401.43L1182.62,401.73L1184.21,401.23L1185.8,401.85L1188.98,400.37L1190.57,398.68L1195.34,402.99L1196.93,400.91L1204.87,405.62L1206.46,405.58L1212.82,406.73L1214.41,407.66L1219.18,406.12L1220.77,406.17L1225.54,406.88L1227.13,406.9L1231.9,405.13L1233.49,403.88L1239.84,401.23L1241.43,400.86L1246.2,398.88L1247.79,398.48L1255.74,397.03L1257.33,397.38L1258.92,397.76L1260.51,397.32L1263.69,397.5L1265.28,398.19L1266.87,397.71L1268.46,398.02L1273.23,396.16L1274.81,396.57L1279.58,396.55L1281.17,396.72L1282.76,396.85L1284.35,397.76L1287.53,397.74L1289.12,396.91L1290.71,396.32L1292.3,396.65L1293.89,396.08L1295.48,394.32L1300.25,390.36L1301.84,387.76L1303.43,386.41L1305.02,383.75L1308.2,382.33L1309.78,381.7L1317.73,383.83L1319.32,383.71L1322.5,383.84L1324.09,384.89L1325.68,384.73L1327.27,385.96L1328.86,384.5L1330.45,385.23L1335.22,389.23L1336.81,389.34L1338.4,393.09L1339.99,393.36L1341.58,394.96L1343.16,394.14L1344.75,395.98L1346.34,395.08L1347.93,395.46L1349.52,399.42L1351.11,399.75L1352.7,401.53L1359.06,395.63L1360.65,396.87L1362.24,394.32L1363.83,393.4L1365.42,392.74L1367.01,393.37L1368.6,392.46L1370.19,393.53L1373.37,393.96L1374.96,396.58L1378.13,396.36L1379.72,394.45L1381.31,395.28L1382.9,394.99L1386.08,394.49L1387.67,394.73L1392.44,396.9L1394.03,397.04L1398.8,393.91L1400.39,390.92L1401.98,389.52L1403.57,386.9L1406.75,385.93L1408.34,386.23L1409.93,386.12L1411.51,387.23L1414.69,387.8L1416.28,388.59L1427.41,390.9L1429,390.3" style="vector-effect: none; fill: none; stroke: rgb(0, 204, 150); stroke-opacity: 1; stroke-width: 3px; opacity: 1;"/></g><g class="points"/><g class="text"/></g><g class="trace scatter trace0a9025" style="stroke-miterlimit: 2; opacity: 1;"><g class="fills"/><g class="errorbars"/><g class="lines"><path class="js-line" d="M0,399.58L3.18,398.01L4.77,397.9L9.54,395.7L11.13,394.63L15.9,390.38L17.49,387.9L20.66,382.08L22.25,379.08L23.84,375.81L25.43,370.05L30.2,350.59L31.79,344.1L36.56,330.82L38.15,325.34L39.74,321.89L41.33,316.52L46.1,302.45L47.69,299.48L50.87,288.18L52.46,284.49L55.63,274.72L57.22,273.91L61.99,249.42L63.58,243.14L65.17,239.15L66.76,239.08L68.35,235.85L69.94,236.25L71.53,236.84L73.12,232.59L74.71,233.42L76.3,232.59L77.89,234.89L79.48,239.87L81.07,238.52L82.66,245.78L84.25,249.98L85.84,258.71L89.01,255.02L90.6,267.29L92.19,267.17L93.78,268.44L95.37,268.09L96.96,273.2L98.55,273.32L100.14,277.25L103.32,284.29L104.91,285.45L106.5,286.35L108.09,289.33L109.68,289.89L111.27,294.23L112.86,294.22L114.45,296.56L116.04,297.99L117.63,300.88L120.81,303.25L122.4,306.29L123.98,306.72L125.57,308.59L127.16,310.54L128.75,314.28L136.7,332.02L138.29,334.04L144.65,349.34L146.24,348.4L147.83,349.03L149.42,353.26L152.6,357.45L154.19,358.6L157.37,363.86L158.95,364.22L162.13,363.96L163.72,361.4L166.9,349.49L168.49,346.64L170.08,342.45L171.67,340.66L173.26,336.46L174.85,336.05L176.44,332.99L178.03,331.58L179.62,329.32L181.21,330.91L182.8,332.8L184.39,336L190.75,365.13L192.34,368.4L193.92,371.13L195.51,375.48L197.1,376.75L198.69,375.46L203.46,374.33L205.05,374.39L208.23,370.42L209.82,371.07L211.41,372.11L213,375.03L214.59,375.63L216.18,377.09L217.77,376.53L219.36,374.19L224.13,376.37L225.72,376.5L228.89,384.08L230.48,388.22L232.07,387.7L233.66,388.71L235.25,390.05L236.84,388.54L238.43,385.94L240.02,380.05L241.61,378.95L243.2,372.82L246.38,364.17L247.97,356.3L249.56,351.46L251.15,342.19L252.74,338.77L254.33,332.73L255.92,330.74L257.51,327.15L259.1,326.82L260.69,324.51L263.86,327.58L265.45,326.2L271.81,326.32L273.4,324.23L274.99,323.31L276.58,321.31L279.76,319.34L281.35,316.72L284.53,314.71L286.12,315.6L287.71,316.27L289.3,314.74L290.89,311.52L292.48,312.13L294.07,313.56L295.66,317.11L300.42,323.19L302.01,327.98L303.6,330.63L305.19,335.38L306.78,336.99L308.37,340.89L309.96,343.69L311.55,343.93L314.73,347.07L316.32,343.63L319.5,341.81L321.09,342.76L322.68,344.58L324.27,344.13L325.86,344.91L327.45,347.13L329.04,347.53L330.63,349.38L335.39,351.99L336.98,352.64L338.57,354L340.16,353.79L341.75,353.18L343.34,351.01L344.93,346.59L346.52,344.91L348.11,344.15L349.7,341.66L351.29,339.44L352.88,339.2L354.47,339.06L356.06,340.35L357.65,340.18L359.24,343.44L367.18,363.41L368.77,366.16L370.36,370.7L371.95,371.61L375.13,374.14L376.72,375.9L379.9,378.07L381.49,377.17L383.08,376.28L384.67,374.24L387.85,373L389.44,370.19L391.03,369.65L392.62,368.17L398.98,362.52L400.57,359.71L402.15,358.59L403.74,356.36L405.33,353.99L406.92,348.48L410.1,342.46L411.69,341.89L413.28,341.49L414.87,339.99L418.05,340.91L419.64,340.76L424.41,344.76L426,345.75L433.95,360.32L435.54,364.13L437.12,365.82L438.71,368.65L441.89,372.55L443.48,372.3L448.25,370.75L449.84,370.69L453.02,371.85L454.61,373.3L464.15,384.79L465.74,385.62L467.33,386.85L468.92,385.93L470.51,385.46L472.09,384.03L473.68,383.6L475.27,384.06L476.86,383.16L478.45,383.63L480.04,383.24L481.63,384.82L483.22,384.46L484.81,385.37L489.58,384.77L491.17,383.92L494.35,381.33L495.94,380.56L497.53,380.75L499.12,377.6L502.3,377.5L503.89,377.52L511.83,378.76L513.42,378.65L519.78,378.37L521.37,377.52L524.55,375.2L526.14,374.85L537.27,373.97L538.86,374.74L545.21,377.03L546.8,377.09L548.39,376.98L549.98,377.86L551.57,377.73L553.16,378.62L559.52,379.05L561.11,379.49L564.29,380.26L565.88,381.39L567.47,381.76L569.06,380.99L570.65,381.37L572.24,380.27L575.41,380.84L577,380.97L580.18,382.03L581.77,381.81L584.95,382.31L586.54,383.61L591.31,384.23L592.9,385.68L594.49,386.44L596.08,386.2L600.85,387.06L602.44,387.49L608.8,390.36L610.38,390.44L613.56,391.5L615.15,391.97L616.74,390.87L618.33,391.69L621.51,391.2L623.1,390.56L629.46,387.45L631.05,386.04L635.82,385L637.41,384.81L639,383.69L640.59,383.79L648.53,384.7L650.12,383.56L661.25,374.29L662.84,373.46L666.02,371.66L667.61,370.73L672.38,369.82L673.97,370.29L683.5,371.77L685.09,372.49L688.27,374.57L689.86,375.51L691.45,377.01L693.04,377.16L694.63,377.91L696.22,377.73L699.4,378.97L700.99,380.57L705.76,384.97L707.35,386.93L712.12,391.09L713.71,391.69L715.29,391.11L716.88,391.64L721.65,392.78L723.24,392.87L726.42,392.33L728.01,390.61L731.19,388.98L732.78,388.79L743.91,386.96L745.49,386.17L753.44,382.07L755.03,381.63L756.62,380.94L758.21,381.11L762.98,380.95L764.57,381.31L767.75,381.53L769.34,381.82L772.52,381.42L774.11,379.62L778.88,377.7L780.47,377.95L785.23,376.94L786.82,377.3L793.18,377.48L794.77,377.39L797.95,377.8L799.54,378.88L801.13,378.8L802.72,379.54L807.49,378.26L809.08,378.66L813.85,379.42L815.44,380.24L820.2,381.85L821.8,383.16L824.97,385.18L826.56,385.67L829.74,386.45L831.33,386.68L832.92,386.23L834.51,382.82L837.69,382.58L839.28,383.97L842.46,388.58L844.05,390.64L848.82,393.68L850.41,393.92L855.17,395.05L856.76,394.53L859.94,394.9L861.53,394.84L867.89,391.98L869.48,390.49L872.66,389.96L874.25,388.95L875.84,388.22L877.43,388.41L879.02,387.35L880.61,387.76L883.78,388.19L885.37,387.47L886.96,387.26L888.55,386.26L891.73,383.03L893.32,382.6L896.5,382.57L898.09,383.36L904.45,384.44L906.04,383.4L907.63,383.67L909.22,385.24L910.81,386.47L912.4,389.1L915.58,392.53L917.17,392.69L925.11,401.25L926.7,402.12L928.29,401.34L929.88,397.63L933.06,393.52L934.65,388.26L936.24,385.96L937.83,381.11L939.42,380.94L941.01,378.12L942.6,378.34L944.19,377.26L947.37,379.63L948.96,379.31L952.14,380.79L953.73,382.85L960.08,387.04L961.67,387.56L966.44,390.71L968.03,390.1L975.98,390.32L977.57,389.39L988.7,390.21L990.29,391.22L993.46,392.54L995.05,394.29L996.64,394.43L998.23,396.75L999.82,396.96L1001.41,398.25L1010.95,399.97L1012.54,399.51L1014.13,400.59L1015.72,400.12L1017.31,400.45L1018.9,400L1025.26,403.07L1026.84,404.29L1028.43,404.29L1030.02,405.19L1037.97,409.34L1039.56,409.4L1044.33,411.01L1045.92,410.86L1052.28,408.62L1053.87,408.1L1055.46,407.14L1057.05,407.52L1060.23,406.76L1061.82,406.4L1069.76,403.42L1071.35,401.82L1079.3,395.55L1080.89,393.48L1084.07,390.24L1085.66,389.66L1087.25,389.32L1088.84,386.59L1090.43,385.75L1092.02,384.06L1095.2,382.05L1096.78,380.32L1098.37,379.52L1099.97,377.16L1101.55,376.04L1103.14,373.89L1112.68,367.39L1114.27,366.96L1115.86,365.99L1117.45,366.11L1120.63,365.85L1122.22,365.79L1130.17,364.14L1131.75,364.11L1138.11,364.04L1139.7,363.73L1144.47,361.08L1146.06,360.83L1150.83,360.42L1152.42,360.81L1157.19,361.66L1158.78,362.13L1165.13,362.14L1166.72,362.56L1173.08,363.03L1174.67,362.78L1177.85,362.02L1179.44,361.93L1184.21,363.04L1185.8,363.65L1188.98,364.85L1190.57,366.47L1192.16,367.32L1193.75,369.13L1196.93,372.72L1198.52,375.25L1200.11,376.14L1201.69,377.96L1212.82,390.62L1214.41,393.15L1217.59,395.3L1219.18,396.27L1223.95,398.1L1225.54,399.21L1231.9,405.01L1233.49,408.72L1243.02,416.59L1244.61,417.19L1254.15,425.75L1255.74,428.98L1257.33,430.04L1258.92,433.21L1260.51,435.31L1262.1,438.92L1270.05,456.22L1271.63,457.6L1274.81,463.13L1276.4,465.42L1279.58,468.07L1281.17,467.71L1284.35,467.51L1285.94,472.55L1287.53,471.22L1289.12,472.54L1290.71,472.01L1292.3,473L1293.89,472.39L1295.48,473.49L1301.83,469.72L1303.43,467.23L1305.01,465.14L1306.6,465.86L1308.19,463.11L1309.78,462.67L1314.55,455.05L1316.14,450.04L1317.73,448.93L1319.32,443.13L1330.45,417.82L1332.04,416.35L1335.22,413.55L1336.81,409.81L1341.57,401.87L1343.16,401.36L1347.93,395.46L1349.52,394.89L1352.7,394.12L1354.29,394.05L1359.06,393.76L1360.65,393.91L1362.24,392.75L1363.83,393.37L1365.42,391.89L1367.01,391.74L1368.6,391.69L1370.19,389.68L1376.54,385.95L1378.14,385.07L1386.08,384.61L1387.67,383.18L1389.26,383.09L1390.85,382.19L1392.44,381.86L1394.03,380.6L1397.21,378.57L1398.8,377.27L1400.39,377.07L1401.98,375.66L1405.16,374.7L1406.75,377.17L1411.51,381.81L1413.1,381.2L1414.69,380.52L1416.28,377.96L1419.46,373.78L1421.05,370.13L1425.82,362.27L1427.41,360.05L1429,357.21" style="vector-effect: none; fill: none; stroke: rgb(171, 99, 250); stroke-opacity: 1; stroke-width: 3px; opacity: 1;"/></g><g class="points"/><g class="text"/></g><g class="trace scatter tracec4b0b0" style="stroke-miterlimit: 2; opacity: 1;"><g class="fills"/><g class="errorbars"/><g class="lines"><path class="js-line" d="M0,348.62L9.54,347.64L11.13,348.36L12.72,346.98L14.31,346.67L19.08,344.49L20.66,341.35L23.84,338.15L25.43,334.97L27.02,331.9L28.61,326.43L31.79,318.45L33.38,317.21L39.74,305.23L41.33,301.1L44.51,292.63L46.1,287.92L47.69,285.97L49.28,280.51L50.87,279.33L52.46,275.44L54.05,274.26L55.63,270.17L57.22,269.87L58.81,265.88L61.99,260.3L63.58,254.57L65.17,255.08L66.76,250.38L68.35,246.64L69.94,245.01L71.53,243.36L73.12,239.96L74.71,236.43L76.3,218.4L79.48,211.19L81.07,210.67L82.66,208.88L84.25,208.67L85.84,206.53L87.43,206.43L89.02,203.88L90.6,204.27L93.78,198.97L95.37,36L98.55,48.27L100.14,111.74L104.91,251.86L106.5,273.61L108.09,294.42L109.68,299.67L111.27,308.27L112.86,322.36L116.04,338.98L117.63,354.56L120.81,381.62L122.4,390.15L123.99,399.53L125.57,424.39L127.16,432.25L128.75,444.88L130.34,451.44L131.93,466.11L133.52,475.93L135.11,490.91L136.7,494.13L138.29,505.77L139.88,515.18L141.47,518.46L146.24,556.67L147.83,560.57L149.42,567.29L151.01,568.75L152.6,569.27L154.19,571.52L155.78,572.32L157.37,576.2L158.95,573.27L160.54,582.42L162.13,591.98L163.72,593.18L166.9,603.68L168.49,603.84L170.08,603.33L171.67,613.83L173.26,625.07L174.85,626.13L178.03,657.84L179.62,675.53L181.21,677.61L182.8,684L184.39,672.1L185.98,671.55L187.57,657.9L189.16,635.5L190.75,626.35L192.34,624.95L193.93,622.51L195.51,613.05L197.1,610.77L198.69,604.82L201.87,589.42L203.46,590.33L205.05,588.55L206.64,596.48L208.23,598.47L209.82,609.4L211.41,615.88L213,625.95L214.59,625.83L216.18,630.72L220.95,639.26L222.54,645.24L224.13,646.76L225.72,649.58L227.31,655.75L228.89,658.33L230.48,648.96L232.08,651.17L235.25,612.45L236.84,613.04L238.43,599.1L240.02,596.09L241.61,587.38L243.2,587.87L244.79,585.62L246.38,587.39L247.97,587.9L249.56,594.09L252.74,599.45L254.33,598.77L257.51,606.35L259.1,606.04L262.28,608.8L263.86,610.39L267.04,610.93L268.63,605.48L271.81,600.14L273.4,600.66L274.99,602.66L276.58,601.71L278.17,602.65L279.76,601.62L284.53,598.55L286.12,597.92L287.71,598.85L289.3,597.76L292.48,598.5L294.07,600.68L295.66,601.25L297.25,598.61L298.83,597.8L300.43,581.48L302.01,570.5L303.6,526.2L305.19,487.44L306.78,425.34L313.14,378.88L314.73,371.5L316.32,374.31L317.91,372.46L321.09,373.43L322.68,375.33L327.45,386.8L329.04,387.83L330.63,390.29L332.22,390.11L333.8,393.17L335.39,398.46L336.98,406.78L338.57,408.4L340.16,409.99L341.75,415.64L344.93,417.77L346.52,415.31L349.7,402.11L351.29,397.98L356.06,370.43L357.65,367.79L359.24,364.2L360.83,365.89L362.42,364.24L364.01,360.3L367.19,346.86L368.77,345.76L371.95,337.51L373.54,337.24L375.13,343.73L376.72,344.43L378.31,344.33L379.9,345.74L381.49,351.14L383.08,352.24L389.44,349.39L391.03,347.77L392.62,345.44L394.21,347.56L395.8,346.48L397.39,343.73L398.98,341.01L400.57,343.42L402.16,341.66L403.74,341.72L405.33,339.47L406.92,333.28L410.1,329.42L411.69,331.84L416.46,321.6L418.05,321.38L419.64,319.6L421.23,316.18L424.41,307L426,305.54L429.18,296.18L430.77,294.56L435.54,285.85L437.12,285.51L438.71,282.98L440.3,283.02L441.89,284.8L443.48,282.71L446.66,275.05L448.25,276.62L451.43,275.82L453.02,274.5L454.61,274.17L456.2,272.89L457.79,271.82L459.38,272.61L462.56,272.79L464.15,274.5L468.92,279.31L470.51,279.91L473.68,281.4L475.27,283.13L480.04,288.47L481.63,289.85L486.4,292.68L487.99,294.8L491.17,299.06L492.76,300.42L497.53,305.18L499.12,305.46L502.3,306.26L503.89,307.74L505.48,308.77L507.06,311.37L511.83,315.07L513.42,315.03L515.01,315.1L516.6,315.93L518.19,316.18L519.78,317.39L522.96,319.19L524.55,319.38L529.32,322.34L530.91,323.25L532.5,324.47L534.09,324.02L535.68,323.52L537.27,323.85L538.86,323.92L540.45,323.01L543.62,321.09L545.21,320.59L548.39,319.87L549.98,319.93L551.57,319.17L553.16,319.46L554.75,318.41L556.34,318.84L557.93,318.33L559.52,318.68L561.11,319.76L562.7,319.92L565.88,319.39L567.47,318.16L569.06,317.9L570.65,316.61L577,314.25L578.6,314.04L581.77,313.85L583.36,314.21L591.31,317.5L592.9,317.67L594.49,317.73L596.08,315.58L599.26,315.38L600.85,314.04L604.03,313.32L605.62,314.57L608.8,316.64L610.39,317.7L616.74,324.6L618.33,326.99L621.51,329.49L623.1,329.58L626.28,331.31L627.87,330.68L631.05,328.96L632.64,326.77L640.59,319.52L642.18,319.14L643.77,318.19L645.36,318.69L648.53,320.1L650.12,321.57L651.71,322.18L653.3,323.92L658.07,329.44L659.66,331.07L661.25,333.19L662.84,337.15L664.43,339.23L666.02,338.83L667.61,338.19L669.2,335.04L675.56,324.2L677.15,322.68L678.74,321.48L680.33,318.7L681.91,318.81L683.5,318.02L686.68,318.55L688.27,319.17L689.86,319.39L691.45,322.29L693.04,323.16L694.63,325.8L699.4,330.19L700.99,328.28L704.17,326.39L705.76,324.57L707.35,325.29L708.94,327.07L710.53,327.8L712.12,330.07L715.29,333.55L716.88,336.08L718.47,336.52L720.06,335.85L721.65,335.93L723.24,336.99L724.83,336.01L726.42,337.52L728.01,337.58L729.6,339.01L731.19,339.76L732.78,339L734.37,338.69L735.96,340.51L740.73,337.6L742.32,335.51L745.5,334.45L747.09,333.28L750.27,332.68L751.85,332.59L753.44,333.11L755.03,332.45L762.98,334.88L764.57,335.06L767.75,336.24L769.34,336.53L774.11,334.55L775.7,333.81L777.29,333.08L778.88,333.2L780.47,332.92L782.06,333.54L796.36,349.74L797.95,350.88L799.54,350.81L801.13,349.91L809.08,344.04L810.67,343.03L815.44,343.73L817.03,345.62L818.62,345.91L820.2,347L823.38,347.78L824.97,348.68L828.15,347.56L829.74,346.62L836.1,339.2L837.69,339.43L840.87,339.54L842.46,340.7L848.82,345.44L850.4,345.61L855.17,345.4L856.77,344.13L859.94,344.03L861.53,344.74L867.89,347.87L869.48,348.2L871.07,349.1L872.66,348.93L875.84,348.16L877.43,347.55L879.02,346.87L880.61,347.43L883.79,348.24L885.38,348.28L886.97,349L888.56,348.87L891.73,349.99L893.32,350.05L899.68,348.37L901.27,346.92L904.45,345.68L906.04,346.35L907.63,346L909.22,346.42L910.81,345.81L912.4,346.16L913.99,346.57L915.58,348L921.94,349.73L923.53,349.22L926.7,349.42L928.29,349.85L933.06,350.7L934.65,350.65L936.24,350.12L937.83,350.9L939.42,351.37L941.01,354.25L942.6,356.56L944.19,360.73L947.37,366.81L948.96,369.81L952.14,373.47L953.73,374.65L966.44,385.07L968.03,385.86L969.62,386.75L971.21,386.35L974.39,387.3L975.98,389.05L980.75,393.82L982.34,394.93L985.52,394.29L987.11,392.05L993.46,386.73L995.05,385.73L1001.41,382.25L1003,380.29L1004.59,380.05L1006.18,377.68L1007.77,377.28L1009.36,375.97L1010.95,375.65L1012.54,373.84L1015.72,371.3L1017.31,368.27L1023.67,357.9L1025.26,357.39L1030.02,357.9L1031.61,357.15L1039.56,354.34L1041.15,354.45L1045.92,354.53L1047.51,353.49L1050.69,352.21L1052.28,349.88L1058.64,344.91L1060.23,344.94L1064.99,343.76L1066.58,343.76L1074.53,343.95L1076.12,344.64L1080.89,349.27L1082.48,349.39L1090.43,354.13L1092.02,355.89L1095.2,359.47L1096.79,361.57L1099.96,365.46L1101.55,366.59L1106.32,368.79L1107.91,368.76L1111.09,369.46L1112.68,369L1115.86,368.48L1117.45,369.69L1119.04,369.78L1120.63,370.85L1123.81,372.1L1125.4,371.53L1126.99,370.92L1128.57,368.66L1131.76,365.87L1133.34,366.08L1134.94,366.14L1136.52,367.93L1138.11,368.72L1139.7,370.57L1141.29,372.4L1142.88,372.84L1144.47,373.7L1146.06,373.35L1147.65,373.76L1149.24,373.37L1150.83,373.25L1152.42,374.17L1154.01,374.48L1155.6,375.93L1161.96,378.3L1163.55,378.58L1166.73,378.83L1168.31,379.39L1181.03,380.83L1182.62,381.92L1184.21,381.53L1185.8,382.16L1195.34,381.88L1196.93,380.64L1198.52,381.11L1200.11,380.25L1204.87,380.41L1206.46,381.58L1211.23,386.6L1212.82,388.27L1216,392.62L1217.59,393.64L1220.77,394.72L1222.36,394.46L1223.95,394.81L1225.54,393.24L1228.72,392.2L1230.31,392.86L1231.9,392.48L1233.49,390.91L1236.67,391.58L1238.25,391.6L1239.84,391.29L1241.43,392.69L1244.61,392.23L1246.2,393.87L1247.79,393.33L1249.38,393.87L1252.56,393.58L1254.15,394.39L1257.33,395.76L1258.92,396.32L1260.51,398.02L1262.1,401.51L1266.87,407.23L1268.46,408.77L1271.63,409.09L1273.22,407.44L1274.81,407.08L1276.4,405.32L1277.99,404.73L1279.58,403.12L1282.76,399.43L1284.35,396.35L1287.53,391.15L1289.12,392.27L1290.71,387.15L1292.3,386.71L1293.89,385.08L1295.48,385.59L1297.07,385.47L1298.66,384.22L1300.25,384.08L1301.84,381.53L1305.02,381.72L1306.6,378.24L1314.55,365.17L1316.14,360.66L1320.91,353.87L1322.5,350.63L1324.09,349.23L1325.68,346.67L1328.86,343.52L1330.45,342.86L1332.04,342.54L1333.63,340.93L1339.99,335.91L1341.57,333.94L1347.93,329.28L1349.52,329.49L1351.11,327.97L1352.7,327.92L1359.06,324.27L1360.65,322.7L1362.24,320.31L1363.83,319.56L1370.19,313.48L1371.78,313.54L1373.37,310.21L1374.96,309.48L1376.54,306.25L1378.13,305.09L1381.31,302.37L1382.9,301.49L1384.49,298.83L1386.08,298.34L1392.44,292.47L1394.03,291.54L1395.62,291.6L1397.21,290.45L1411.51,284.93L1413.1,283.89L1419.46,280.2L1421.05,282.77L1424.23,284.55L1425.82,284.82L1427.41,285.7L1429,285.14" style="vector-effect: none; fill: none; stroke: rgb(255, 161, 90); stroke-opacity: 1; stroke-width: 3px; opacity: 1;"/></g><g class="points"/><g class="text"/></g></g></g></g><path class="xlines-above crisp" d="M0,0" style="fill: none;"/><path class="ylines-above crisp" d="M0,0" style="fill: none;"/><g class="overlines-above"/><g class="xaxislayer-above"><g class="xtick"><text text-anchor="middle" x="0" y="841" transform="translate(248.37,0)" style="font-family: 'Open Sans', verdana, arial, sans-serif; font-size: 20px; fill: rgb(42, 63, 95); fill-opacity: 1; white-space: pre; opacity: 1;">2</text></g><g class="xtick"><text text-anchor="middle" x="0" y="841" style="font-family: 'Open Sans', verdana, arial, sans-serif; font-size: 20px; fill: rgb(42, 63, 95); fill-opacity: 1; white-space: pre; opacity: 1;" transform="translate(407.32,0)">4</text></g><g class="xtick"><text text-anchor="middle" x="0" y="841" style="font-family: 'Open Sans', verdana, arial, sans-serif; font-size: 20px; fill: rgb(42, 63, 95); fill-opacity: 1; white-space: pre; opacity: 1;" transform="translate(566.27,0)">6</text></g><g class="xtick"><text text-anchor="middle" x="0" y="841" style="font-family: 'Open Sans', verdana, arial, sans-serif; font-size: 20px; fill: rgb(42, 63, 95); fill-opacity: 1; white-space: pre; opacity: 1;" transform="translate(725.23,0)">8</text></g><g class="xtick"><text text-anchor="middle" x="0" y="841" style="font-family: 'Open Sans', verdana, arial, sans-serif; font-size: 20px; fill: rgb(42, 63, 95); fill-opacity: 1; white-space: pre; opacity: 1;" transform="translate(884.18,0)">10</text></g><g class="xtick"><text text-anchor="middle" x="0" y="841" style="font-family: 'Open Sans', verdana, arial, sans-serif; font-size: 20px; fill: rgb(42, 63, 95); fill-opacity: 1; white-space: pre; opacity: 1;" transform="translate(1043.1399999999999,0)">12</text></g><g class="xtick"><text text-anchor="middle" x="0" y="841" style="font-family: 'Open Sans', verdana, arial, sans-serif; font-size: 20px; fill: rgb(42, 63, 95); fill-opacity: 1; white-space: pre; opacity: 1;" transform="translate(1202.09,0)">14</text></g><g class="xtick"><text text-anchor="middle" x="0" y="841" style="font-family: 'Open Sans', verdana, arial, sans-serif; font-size: 20px; fill: rgb(42, 63, 95); fill-opacity: 1; white-space: pre; opacity: 1;" transform="translate(1361.05,0)">16</text></g><g class="xtick"><text text-anchor="middle" x="0" y="841" style="font-family: 'Open Sans', verdana, arial, sans-serif; font-size: 20px; fill: rgb(42, 63, 95); fill-opacity: 1; white-space: pre; opacity: 1;" transform="translate(1520,0)">18</text></g></g><g class="yaxislayer-above"><g class="ytick"><text text-anchor="end" x="90" y="7" transform="translate(0,781.79)" style="font-family: 'Open Sans', verdana, arial, sans-serif; font-size: 20px; fill: rgb(42, 63, 95); fill-opacity: 1; white-space: pre; opacity: 1;">−0.3</text></g><g class="ytick"><text text-anchor="end" x="90" y="7" style="font-family: 'Open Sans', verdana, arial, sans-serif; font-size: 20px; fill: rgb(42, 63, 95); fill-opacity: 1; white-space: pre; opacity: 1;" transform="translate(0,671.24)">−0.2</text></g><g class="ytick"><text text-anchor="end" x="90" y="7" style="font-family: 'Open Sans', verdana, arial, sans-serif; font-size: 20px; fill: rgb(42, 63, 95); fill-opacity: 1; white-space: pre; opacity: 1;" transform="translate(0,560.69)">−0.1</text></g><g class="ytick"><text text-anchor="end" x="90" y="7" style="font-family: 'Open Sans', verdana, arial, sans-serif; font-size: 20px; fill: rgb(42, 63, 95); fill-opacity: 1; white-space: pre; opacity: 1;" transform="translate(0,450.14)">0</text></g><g class="ytick"><text text-anchor="end" x="90" y="7" style="font-family: 'Open Sans', verdana, arial, sans-serif; font-size: 20px; fill: rgb(42, 63, 95); fill-opacity: 1; white-space: pre; opacity: 1;" transform="translate(0,339.59000000000003)">0.1</text></g><g class="ytick"><text text-anchor="end" x="90" y="7" style="font-family: 'Open Sans', verdana, arial, sans-serif; font-size: 20px; fill: rgb(42, 63, 95); fill-opacity: 1; white-space: pre; opacity: 1;" transform="translate(0,229.04)">0.2</text></g><g class="ytick"><text text-anchor="end" x="90" y="7" style="font-family: 'Open Sans', verdana, arial, sans-serif; font-size: 20px; fill: rgb(42, 63, 95); fill-opacity: 1; white-space: pre; opacity: 1;" transform="translate(0,118.49)">0.3</text></g></g><g class="overaxes-above"/></g></g><g class="polarlayer"/><g class="smithlayer"/><g class="ternarylayer"/><g class="geolayer"/><g class="funnelarealayer"/><g class="pielayer"/><g class="iciclelayer"/><g class="treemaplayer"/><g class="sunburstlayer"/><g class="glimages"/><defs id="topdefs-080bfa"><g class="clips"/><clipPath id="legend080bfa"><rect width="84" height="181" x="0" y="0"/></clipPath></defs><g class="layer-above"><g class="imagelayer"/><g class="shapelayer"/></g><g class="infolayer"><g class="legend" pointer-events="all" transform="translate(252.477,110.08000000000001)"><rect class="bg" shape-rendering="crispEdges" width="84" height="181" x="0" y="0" style="stroke: rgb(68, 68, 68); stroke-opacity: 1; fill: rgb(255, 255, 255); fill-opacity: 1; stroke-width: 0px;"/><g class="scrollbox" transform="" clip-path="url(#legend080bfa)"><g class="groups"><g class="traces" transform="translate(0,22.1)" style="opacity: 1;"><text class="legendtext" text-anchor="start" x="40" y="9.360000000000001" style="font-family: 'Open Sans', verdana, arial, sans-serif; font-size: 24px; fill: rgb(42, 63, 95); fill-opacity: 1; white-space: pre;">1m</text><g class="layers" style="opacity: 1;"><g class="legendfill"/><g class="legendlines"><path class="js-line" d="M5,0h30" style="fill: none; stroke: rgb(99, 110, 250); stroke-opacity: 1; stroke-width: 3px;"/></g><g class="legendsymbols"><g class="legendpoints"/></g></g><rect class="legendtoggle" x="0" y="-17.1" width="78.609375" height="34.2" style="fill: rgb(0, 0, 0); fill-opacity: 0;"/></g><g class="traces" transform="translate(0,56.300000000000004)" style="opacity: 1;"><text class="legendtext" text-anchor="start" x="40" y="9.360000000000001" style="font-family: 'Open Sans', verdana, arial, sans-serif; font-size: 24px; fill: rgb(42, 63, 95); fill-opacity: 1; white-space: pre;">2m</text><g class="layers" style="opacity: 1;"><g class="legendfill"/><g class="legendlines"><path class="js-line" d="M5,0h30" style="fill: none; stroke: rgb(239, 85, 59); stroke-opacity: 1; stroke-width: 3px;"/></g><g class="legendsymbols"><g class="legendpoints"/></g></g><rect class="legendtoggle" x="0" y="-17.1" width="78.609375" height="34.2" style="fill: rgb(0, 0, 0); fill-opacity: 0;"/></g><g class="traces" transform="translate(0,90.5)" style="opacity: 1;"><text class="legendtext" text-anchor="start" x="40" y="9.360000000000001" style="font-family: 'Open Sans', verdana, arial, sans-serif; font-size: 24px; fill: rgb(42, 63, 95); fill-opacity: 1; white-space: pre;">3m</text><g class="layers" style="opacity: 1;"><g class="legendfill"/><g class="legendlines"><path class="js-line" d="M5,0h30" style="fill: none; stroke: rgb(0, 204, 150); stroke-opacity: 1; stroke-width: 3px;"/></g><g class="legendsymbols"><g class="legendpoints"/></g></g><rect class="legendtoggle" x="0" y="-17.1" width="78.609375" height="34.2" style="fill: rgb(0, 0, 0); fill-opacity: 0;"/></g><g class="traces" transform="translate(0,124.70000000000002)" style="opacity: 1;"><text class="legendtext" text-anchor="start" x="40" y="9.360000000000001" style="font-family: 'Open Sans', verdana, arial, sans-serif; font-size: 24px; fill: rgb(42, 63, 95); fill-opacity: 1; white-space: pre;">4m</text><g class="layers" style="opacity: 1;"><g class="legendfill"/><g class="legendlines"><path class="js-line" d="M5,0h30" style="fill: none; stroke: rgb(171, 99, 250); stroke-opacity: 1; stroke-width: 3px;"/></g><g class="legendsymbols"><g class="legendpoints"/></g></g><rect class="legendtoggle" x="0" y="-17.1" width="78.609375" height="34.2" style="fill: rgb(0, 0, 0); fill-opacity: 0;"/></g><g class="traces" transform="translate(0,158.9)" style="opacity: 1;"><text class="legendtext" text-anchor="start" x="40" y="9.360000000000001" style="font-family: 'Open Sans', verdana, arial, sans-serif; font-size: 24px; fill: rgb(42, 63, 95); fill-opacity: 1; white-space: pre;">5m</text><g class="layers" style="opacity: 1;"><g class="legendfill"/><g class="legendlines"><path class="js-line" d="M5,0h30" style="fill: none; stroke: rgb(255, 161, 90); stroke-opacity: 1; stroke-width: 3px;"/></g><g class="legendsymbols"><g class="legendpoints"/></g></g><rect class="legendtoggle" x="0" y="-17.1" width="78.609375" height="34.2" style="fill: rgb(0, 0, 0); fill-opacity: 0;"/></g></g></g><rect class="scrollbar" rx="20" ry="3" width="0" height="0" x="0" y="0" style="fill: rgb(128, 139, 164); fill-opacity: 1;"/></g><g class="g-gtitle"><text class="gtitle" x="800" y="50" text-anchor="middle" dy="0.7em" style="opacity: 1; font-family: 'Open Sans', verdana, arial, sans-serif; font-size: 20px; fill: rgb(42, 63, 95); fill-opacity: 1; font-weight: bold; white-space: pre;">Yieding, Front and eHMI</text></g><g class="g-xtitle"><text class="xtitle" x="805.5" y="873.5" text-anchor="middle" style="opacity: 1; font-family: 'Open Sans', verdana, arial, sans-serif; font-size: 20px; fill: rgb(42, 63, 95); fill-opacity: 1; white-space: pre;">Time (in seconds)</text></g><g class="g-ytitle" transform="translate(0.578125,0)"><text class="ytitle" transform="rotate(-90,19.421875,460)" x="19.421875" y="460" text-anchor="middle" style="opacity: 1; font-family: 'Open Sans', verdana, arial, sans-serif; font-size: 20px; fill: rgb(42, 63, 95); fill-opacity: 1; white-space: pre;">Yaw Angle (in radians)</text></g></g></svg>