<svg class="main-svg" xmlns="http://www.w3.org/2000/svg" xmlns:xlink="http://www.w3.org/1999/xlink" width="4800" height="2700" style="" viewBox="0 0 1600 900"><rect x="0" y="0" width="1600" height="900" style="fill: rgb(255, 255, 255); fill-opacity: 1;"/><defs id="defs-985620"><g class="clips"><clipPath id="clip985620xyplot" class="plotclip"><rect width="1429" height="720"/></clipPath><clipPath class="axesclip" id="clip985620x"><rect x="91" y="0" width="1429" height="900"/></clipPath><clipPath class="axesclip" id="clip985620y"><rect x="0" y="100" width="1600" height="720"/></clipPath><clipPath class="axesclip" id="clip985620xy"><rect x="91" y="100" width="1429" height="720"/></clipPath></g><g class="gradients"/><g class="patterns"/></defs><g class="bglayer"><rect class="bg" x="91" y="100" width="1429" height="720" style="fill: rgb(229, 236, 246); fill-opacity: 1; stroke-width: 0;"/></g><g class="layer-below"><g class="imagelayer"/><g class="shapelayer"/></g><g class="cartesianlayer"><g class="subplot xy"><g class="layer-subplot"><g class="shapelayer"/><g class="imagelayer"/></g><g class="minor-gridlayer"><g class="x"/><g class="y"/></g><g class="gridlayer"><g class="x"><path class="xgrid crisp" transform="translate(231.32,0)" d="M0,100v720" style="stroke: rgb(255, 255, 255); stroke-opacity: 1; stroke-width: 1px;"/><path class="xgrid crisp" transform="translate(374.51,0)" d="M0,100v720" style="stroke: rgb(255, 255, 255); stroke-opacity: 1; stroke-width: 1px;"/><path class="xgrid crisp" transform="translate(517.7,0)" d="M0,100v720" style="stroke: rgb(255, 255, 255); stroke-opacity: 1; stroke-width: 1px;"/><path class="xgrid crisp" transform="translate(660.88,0)" d="M0,100v720" style="stroke: rgb(255, 255, 255); stroke-opacity: 1; stroke-width: 1px;"/><path class="xgrid crisp" transform="translate(804.07,0)" d="M0,100v720" style="stroke: rgb(255, 255, 255); stroke-opacity: 1; stroke-width: 1px;"/><path class="xgrid crisp" transform="translate(947.25,0)" d="M0,100v720" style="stroke: rgb(255, 255, 255); stroke-opacity: 1; stroke-width: 1px;"/><path class="xgrid crisp" transform="translate(1090.44,0)" d="M0,100v720" style="stroke: rgb(255, 255, 255); stroke-opacity: 1; stroke-width: 1px;"/><path class="xgrid crisp" transform="translate(1233.63,0)" d="M0,100v720" style="stroke: rgb(255, 255, 255); stroke-opacity: 1; stroke-width: 1px;"/><path class="xgrid crisp" transform="translate(1376.81,0)" d="M0,100v720" style="stroke: rgb(255, 255, 255); stroke-opacity: 1; stroke-width: 1px;"/></g><g class="y"><path class="ygrid crisp" transform="translate(0,726.59)" d="M91,0h1429" style="stroke: rgb(255, 255, 255); stroke-opacity: 1; stroke-width: 1px;"/><path class="ygrid crisp" transform="translate(0,610.23)" d="M91,0h1429" style="stroke: rgb(255, 255, 255); stroke-opacity: 1; stroke-width: 1px;"/><path class="ygrid crisp" transform="translate(0,377.5)" d="M91,0h1429" style="stroke: rgb(255, 255, 255); stroke-opacity: 1; stroke-width: 1px;"/><path class="ygrid crisp" transform="translate(0,261.14)" d="M91,0h1429" style="stroke: rgb(255, 255, 255); stroke-opacity: 1; stroke-width: 1px;"/><path class="ygrid crisp" transform="translate(0,144.78)" d="M91,0h1429" style="stroke: rgb(255, 255, 255); stroke-opacity: 1; stroke-width: 1px;"/></g></g><g class="zerolinelayer"><path class="yzl zl crisp" transform="translate(0,493.86)" d="M91,0h1429" style="stroke: rgb(255, 255, 255); stroke-opacity: 1; stroke-width: 2px;"/></g><g class="layer-between"><g class="shapelayer"/><g class="imagelayer"/></g><path class="xlines-below"/><path class="ylines-below"/><g class="overlines-below"/><g class="xaxislayer-below"/><g class="yaxislayer-below"/><g class="overaxes-below"/><g class="overplot"><g class="xy" transform="translate(91,100)" clip-path="url(#clip985620xyplot)"><g class="scatterlayer mlayer"><g class="trace scatter trace678435" style="stroke-miterlimit: 2; opacity: 1;"><g class="fills"/><g class="errorbars"/><g class="lines"><path class="js-line" d="M0,379.25L2.86,379.29L5.73,380.12L11.45,380.57L14.32,380.38L20.05,379.87L22.91,379.33L34.36,375.83L37.23,374.68L42.96,371.51L45.82,369.14L54.41,363.14L57.27,360.54L60.14,357.32L63,352.55L68.73,346.06L71.59,337.1L74.46,334.2L77.32,329.26L80.18,324.71L83.05,316.17L85.91,310.44L88.78,301.97L91.64,294.95L94.5,284.61L103.09,264.4L105.96,259.92L114.55,241.05L117.41,237.51L131.73,213.13L134.59,209.29L137.46,204.13L140.32,204.95L143.19,203.41L146.05,203.92L148.91,201.3L151.78,201.83L154.64,202.8L157.51,204.83L160.37,207.43L163.23,207.93L168.96,206.51L171.82,208.81L174.69,209.15L177.55,214.07L180.41,217.33L183.28,223.63L189.01,237L191.87,244.46L200.46,262.71L203.33,269.52L206.19,277.47L209.05,282.83L211.92,288.19L214.78,295.5L217.64,300.1L220.51,307.06L223.37,311.38L226.23,314.28L231.96,322.52L234.83,324.77L237.69,326.61L240.55,329.51L243.42,332.29L246.28,337.73L249.14,342.14L252.01,350.98L254.87,350.19L257.74,358.58L260.6,362.56L263.46,358.52L266.33,355.67L269.19,350.56L272.05,345.89L274.92,338.16L286.37,321.49L289.24,320.74L292.1,317.43L294.96,316.82L300.69,315.29L303.55,315.7L306.42,316.06L309.28,315.39L312.15,312.89L315.01,312.32L317.87,314.2L320.74,311.49L329.33,313.33L332.19,312.62L335.06,312.03L337.92,307.55L340.78,305.13L343.65,299.53L346.51,298.37L349.37,293.33L352.24,295.63L355.1,295.4L357.97,295.27L360.83,296.25L363.69,296.4L366.56,297.36L369.42,298.82L372.28,298.49L375.15,299.85L378.01,299.83L380.88,299.21L383.74,299.68L386.6,298.14L389.47,299.13L398.06,300.49L400.92,301.61L403.78,302.74L406.65,302.35L409.51,302.22L412.38,302.92L415.24,304.85L418.1,305.87L420.97,307.31L423.83,307.87L432.42,312.58L435.29,315.32L441.01,318.72L443.88,320.24L446.74,322.74L449.6,323.97L458.2,330.85L461.06,334.02L463.92,335.66L466.79,338.35L469.65,339.57L472.52,344.27L475.38,346.28L478.24,350.59L481.11,351.14L483.97,349.8L486.83,351.44L489.7,351.33L492.56,352.77L495.42,352.98L501.15,353.92L504.02,353.61L515.47,366.58L518.33,371.92L521.2,372.26L524.06,377.08L529.79,379.75L532.65,382.55L535.52,385.05L538.38,390.27L541.24,394.12L544.11,399.73L546.97,400.36L549.84,403.13L552.7,404.03L555.56,406.12L558.43,410.47L561.29,412.28L569.88,419.83L572.75,420.91L575.61,423.06L578.47,427.24L584.2,433.77L587.06,434.66L589.93,437.34L592.79,438.05L601.38,439.99L604.25,439.73L609.97,439.68L612.84,438.83L615.7,438.3L618.56,436.64L624.29,436.88L627.16,437.54L630.02,438.57L632.88,438.68L638.61,440.63L641.48,441.29L647.2,440.79L650.07,439.18L658.66,437.67L661.52,437.55L667.25,436.59L670.11,435.4L672.98,434.38L675.84,431.41L681.57,428.05L684.43,428.11L687.29,427.05L690.16,426.96L693.02,428.23L695.89,425.4L698.75,422.43L701.61,418.08L710.2,422.24L713.07,423.55L715.93,422.36L718.8,419L727.39,414.59L730.25,413.84L733.11,411.79L735.98,411.77L738.84,411.82L741.7,410.57L744.57,410.96L747.43,409.58L753.16,408.67L756.02,408.33L764.61,406.8L767.48,405.76L776.07,402.33L778.93,401.14L781.8,399.43L784.66,396.5L787.52,395.42L790.39,397.78L793.25,398.54L796.12,401.39L798.98,404L801.84,403.9L810.43,400.89L813.3,400.59L821.89,400.83L824.75,401.67L827.62,402.31L830.48,401.56L844.8,405.92L847.66,406.45L861.98,406.86L864.85,408.31L867.71,409.16L870.57,411.08L876.3,413.31L879.16,414.54L890.62,415.34L893.48,414.76L899.21,413.97L902.07,413.73L904.94,414.79L907.8,416.72L913.53,419.3L916.39,420.42L919.26,420.58L922.12,422.52L927.85,422.33L930.71,423.58L933.57,422.74L936.44,423.49L945.03,427.76L947.89,428.94L950.76,431.15L953.62,431.67L956.48,433.05L959.35,433.12L967.94,435.46L970.8,436L973.67,436.54L976.53,438.25L990.85,442.2L993.71,442.41L996.58,444.05L999.44,444.3L1008.03,446.66L1010.89,447.02L1016.62,449.62L1019.49,452.35L1025.21,455.26L1028.08,457.54L1033.81,462.15L1036.67,462.89L1048.12,469.25L1050.99,470.11L1056.71,472.3L1059.58,473.35L1062.44,474.07L1065.3,475.92L1079.63,476.63L1082.49,477.04L1091.08,477.74L1093.94,477.45L1096.81,477.54L1099.67,479.23L1105.4,479.91L1108.26,479.91L1116.85,479.45L1119.72,480.1L1136.9,478.74L1139.76,479.01L1154.08,479.15L1156.94,477.91L1165.54,477.28L1168.4,476.37L1171.26,475.86L1174.13,473.93L1176.99,474.36L1179.85,473.56L1182.72,474.67L1185.58,473.95L1188.45,474.53L1191.31,472.93L1197.04,473.11L1199.9,472.38L1205.63,470.65L1208.49,468.86L1211.36,468.12L1214.22,466.35L1219.95,464.4L1222.81,461.97L1225.67,460.9L1228.54,458.71L1237.13,452.4L1239.99,450.62L1242.86,448.96L1245.72,445.64L1251.45,441.1L1254.31,438.25L1260.04,434.15L1262.9,431.24L1265.77,427.72L1268.63,426.76L1274.36,421.34L1277.22,420.46L1280.08,418.64L1282.95,418.31L1285.81,417.04L1288.68,416.97L1294.4,416.76L1297.27,418.35L1300.13,420.1L1303,423.11L1305.86,423.71L1308.72,425.31L1311.59,428.15L1314.45,428.31L1320.18,433.4L1323.04,433.95L1328.77,437.81L1331.63,441.12L1337.36,446.15L1340.22,446.33L1343.09,447.71L1345.95,447.13L1348.82,449.42L1351.68,453.55L1357.41,456.33L1360.27,458.12L1371.72,466.49L1374.59,467.15L1377.45,469.34L1380.32,469.93L1383.18,471.85L1386.04,471.35L1391.77,472.42L1394.63,473.29L1397.5,472.93L1400.36,474.12L1406.09,473.92L1408.95,473.61L1417.54,472.97L1420.41,473.03L1426.14,470.97L1429,473.36" style="vector-effect: none; fill: none; stroke: rgb(99, 110, 250); stroke-opacity: 1; stroke-width: 3px; opacity: 1;"/></g><g class="points"/><g class="text"/></g><g class="trace scatter trace0356e5" style="stroke-miterlimit: 2; opacity: 1;"><g class="fills"/><g class="errorbars"/><g class="lines"><path class="js-line" d="M0,400.14L2.86,399.21L5.73,399.44L11.45,401.06L14.32,401.78L31.5,402.49L34.37,401.91L45.82,395.64L48.68,393.16L51.55,391.79L54.41,388.69L60.14,383.79L63,379.52L65.87,377.42L68.73,373.25L71.59,370.16L74.46,363.7L77.32,358.94L80.19,351.21L83.05,345.26L85.91,342.01L88.78,346.7L91.64,334.46L94.5,328.33L97.37,326.95L100.23,323.3L103.1,321.29L105.96,321.17L108.82,315.51L111.69,312.25L114.55,305.24L117.41,302.61L120.28,295.22L123.14,291.93L126,290.4L128.87,285.16L131.73,286.94L134.6,282.83L137.46,283.35L140.32,278L143.19,276.36L146.05,280.51L148.91,281.39L151.78,281.57L154.64,290.06L160.37,303.45L163.23,304.22L166.1,306.17L168.96,306.97L171.82,305.85L174.69,307.63L177.55,304.07L180.41,304.79L183.28,301.69L186.14,304.7L189.01,308.5L191.87,314.71L194.73,318.44L197.6,327.5L200.46,337.69L203.32,343.97L206.19,353.42L209.05,356.18L211.92,364.18L214.78,369.9L220.51,374.86L223.37,374.38L226.23,375.32L229.1,373.34L231.96,378.09L234.83,373.48L237.69,373.68L240.55,379.38L243.42,378.57L246.28,384.19L252.01,399.03L254.87,402.91L257.74,405.57L260.6,411.99L263.46,412.45L266.33,415.21L269.19,419.44L272.05,420.92L274.92,420.87L277.78,417.65L280.64,413.88L283.51,408.09L286.37,400.96L289.24,399.24L292.1,390.52L294.97,386.23L297.83,380.92L300.69,381.95L303.56,380.98L306.42,376.38L309.28,376.48L312.15,377.72L315.01,380.68L317.87,381.03L323.6,376.49L326.47,375.15L329.33,372.1L332.19,370.29L337.92,367.51L340.78,368.67L343.65,366.68L346.51,366.96L352.24,364.25L355.1,364.3L357.97,360.27L360.83,360.96L369.42,345.24L372.29,343.18L378.01,337.04L380.88,331.27L386.6,327.65L389.47,321.23L392.33,317.11L395.19,309.75L398.06,304.51L400.92,296.55L403.78,292.61L406.65,286.52L409.51,282.19L412.38,276.45L415.24,269.06L418.1,264.49L420.97,259.73L423.83,257.36L426.7,253.06L429.56,250.95L432.42,246.33L435.29,244.96L438.15,240.06L441.01,238.75L443.88,235.78L446.74,239.73L449.6,239.68L452.47,236.76L455.33,239.22L458.2,237.83L461.06,246.27L463.92,247.74L466.79,252.55L469.65,252.97L472.52,258.71L475.38,262.65L478.24,263.96L481.11,268.6L483.97,270.05L486.83,272.66L498.29,285.59L501.15,290.93L506.88,300.81L509.75,307.13L515.47,317.38L518.34,317.84L524.06,324.4L526.93,326.21L529.79,327.87L532.65,325.72L535.52,330.31L538.38,327.95L546.97,334.39L549.84,337.42L555.56,345.38L558.43,347.08L564.16,352.73L567.02,352.76L572.75,359.5L575.61,361.75L578.47,363.31L581.34,370.09L587.06,376.55L589.93,383.98L601.38,405.66L604.25,408.69L607.11,415.81L609.97,418.38L612.84,421.57L615.7,426.41L624.29,434.4L627.16,436.18L630.02,436.84L632.88,438.51L635.75,440.01L638.61,440.4L641.48,441.94L644.34,442.36L647.2,443.6L650.07,443.82L652.93,444.98L655.79,445.15L661.52,441.18L664.38,442.1L667.25,443.35L670.11,443.34L675.84,442.94L678.7,439.62L681.57,437.51L684.43,437.12L690.16,429.12L693.02,428.95L695.89,423.04L698.75,423.07L701.61,415L704.48,414.73L707.34,406.68L710.2,404.72L715.93,402.74L718.79,400.74L724.52,400.1L727.39,400.33L730.25,401.36L733.12,410.92L738.84,413.61L741.71,418.82L744.57,418.58L747.43,420.54L753.16,420.02L756.02,419.46L767.48,415.7L770.34,416.84L773.21,415.76L776.07,416.47L778.94,417.32L781.8,416.59L784.66,418.8L787.53,419.55L793.25,420.17L796.12,421.42L798.98,422.06L801.84,419.18L804.71,420.66L807.57,420.51L810.43,423.02L813.3,422.72L816.16,425.03L819.03,424.4L821.89,424.44L824.75,425.4L833.34,423.24L836.21,423.92L839.07,423.59L841.94,421.99L844.8,422.08L847.66,421.39L853.39,416.92L856.25,414.62L861.98,410.24L864.85,410.28L867.71,407.76L870.57,407.78L873.44,415.22L876.3,416.35L879.16,415.75L882.03,415.99L887.75,417.47L890.62,418.59L893.48,418.68L896.35,420.43L899.21,420.99L902.07,428.38L904.94,428.89L907.8,428.58L910.67,425.89L913.53,421.17L916.39,419.92L919.26,417.26L924.98,415.76L927.85,415.25L930.71,415.47L933.57,413.44L950.76,408.16L953.62,405.37L956.49,403.84L959.35,400.94L965.08,397.82L967.94,397.66L970.8,398.1L973.67,395.42L976.53,394.68L979.39,395.81L982.26,396.43L985.12,395.2L990.85,395.68L993.71,395.5L996.58,394.46L999.44,397.39L1005.17,396.99L1008.03,396.97L1010.9,395.78L1013.76,395.98L1019.49,395.85L1022.35,396.14L1025.21,394.95L1028.08,395.71L1030.94,394.96L1033.81,395.7L1036.67,395.93L1039.53,397.46L1042.4,398.56L1045.26,398.55L1048.12,401.07L1050.99,402.23L1053.85,404.54L1056.72,405.15L1059.58,407.58L1062.44,408.17L1065.31,408.78L1068.17,410.8L1079.63,412.29L1082.49,413.25L1088.22,415.48L1091.08,416.15L1099.67,419.02L1102.53,419.56L1105.4,420.65L1108.26,420.87L1113.99,420.72L1116.85,419.92L1119.72,419.52L1122.58,418.26L1128.31,417.36L1131.17,415.75L1134.04,415.03L1136.9,415.69L1145.49,416.03L1148.35,416.42L1156.95,416.6L1159.81,415.51L1162.67,414.17L1165.54,414.66L1174.13,413.08L1176.99,412.5L1179.86,412.25L1182.72,413.34L1188.45,414.34L1191.31,413.37L1194.17,412.76L1197.04,414.24L1205.63,416.22L1208.49,419.07L1222.81,420.37L1225.68,420.03L1228.54,420.09L1231.4,417.44L1237.13,415.29L1239.99,413.98L1242.86,412.89L1245.72,412.68L1248.58,412.7L1251.45,411.09L1254.31,412.27L1257.18,412.09L1262.9,412.73L1265.77,412.82L1274.36,414.16L1277.22,415.29L1282.95,417.14L1285.81,418.89L1288.68,419.67L1291.54,422.04L1294.4,422.44L1297.27,424.03L1303,424.78L1305.86,427.16L1320.18,432.83L1323.04,431.21L1328.77,431.6L1331.63,433.28L1334.5,434.13L1337.36,435.83L1340.22,436.27L1343.09,438.01L1348.82,437.58L1351.68,437.76L1354.54,438.53L1357.41,440.27L1368.86,447.57L1371.72,450.79L1377.45,454.83L1380.32,456.03L1386.04,461.62L1388.91,463.39L1391.77,462.25L1394.64,459.86L1397.5,455.71L1400.36,454.32L1403.23,451.49L1406.09,450.41L1408.95,448.99L1411.82,448.97L1420.41,451.97L1423.27,452.77L1426.13,453.27L1429,452.73" style="vector-effect: none; fill: none; stroke: rgb(239, 85, 59); stroke-opacity: 1; stroke-width: 3px; opacity: 1;"/></g><g class="points"/><g class="text"/></g><g class="trace scatter tracea96572" style="stroke-miterlimit: 2; opacity: 1;"><g class="fills"/><g class="errorbars"/><g class="lines"><path class="js-line" d="M0,372.49L11.46,371.75L14.32,371.48L31.5,364.69L34.37,364.02L37.23,361.69L40.09,362.1L42.96,358.98L45.82,357.26L54.41,349.59L57.28,343.28L63,335.49L65.87,333.21L68.73,325.51L71.59,321.33L83.05,297.22L85.91,289.31L88.78,284.87L91.64,281.92L94.5,279.19L97.37,278.13L100.23,279.06L103.09,277.16L105.96,274.39L108.82,273.7L111.69,270.86L114.55,274.53L117.41,273.32L120.28,273.43L126.01,269.53L128.87,269.47L134.6,260.94L137.46,255.93L140.32,254.55L143.19,250.85L146.05,248.84L148.91,248.67L151.78,246.21L154.64,245.42L157.51,245.05L160.37,248.31L163.23,248.8L166.1,252.48L168.96,252.9L171.83,256.19L177.55,262.18L180.42,267.77L189.01,281.55L191.87,281.34L197.6,285.03L200.46,286.49L203.32,289.98L206.19,288.29L214.78,291.66L217.65,296.13L220.51,299.09L223.37,304.51L229.1,312.57L231.96,313.01L234.83,314.56L237.69,319.77L240.55,322.14L243.42,326.67L246.28,330.39L249.14,332.18L254.87,341.91L257.74,347.05L260.6,347.95L263.46,350.86L266.33,354.28L269.19,359.67L274.92,365.78L277.78,367.78L280.65,370.41L283.51,371.44L286.37,373.17L289.24,371.41L292.1,370.81L294.96,371.46L300.69,370.39L303.56,369.08L309.28,366.95L312.15,365.93L315.01,365.87L317.87,362.79L320.74,364.58L323.6,362.88L329.33,358.29L332.19,357.56L335.06,356.79L337.92,353.8L340.78,351.79L343.65,348.79L349.38,347.27L352.24,346.2L355.1,346.34L357.97,345.72L360.83,346.85L363.69,345.75L366.56,346.56L369.42,346.24L372.28,345.23L375.15,346.09L378.01,348.19L380.88,348.69L386.6,351.01L389.47,350.91L392.33,350.3L395.2,352.33L400.92,354.48L403.79,355.14L406.65,357.27L409.51,356.68L412.38,360.22L415.24,367.25L418.1,370.22L420.97,376.33L423.83,377.73L426.7,381.49L432.43,383.18L435.29,382.65L438.15,387.11L441.02,385.23L443.88,438.51L446.74,633.72L449.61,647.35L452.47,653.33L455.33,661.39L458.2,665.43L461.06,670.06L463.92,673.23L466.79,677.59L469.65,678.2L472.52,681.67L475.38,683.17L478.24,684L481.11,75.07L483.97,75.3L486.84,76.72L489.7,79.54L492.56,80.88L495.43,85.67L498.29,87.92L501.15,87.64L504.02,93.2L506.88,96.04L509.74,95.81L512.61,97.52L515.47,98.12L524.06,94.61L526.93,92.74L535.52,84.32L538.38,80.23L541.24,70.76L544.11,65.05L546.97,61.64L549.84,59.49L558.43,55.58L561.29,57.43L564.16,58.91L567.02,61.28L569.88,60.39L572.75,60.96L578.47,60.49L581.34,61.6L592.79,60.41L595.65,59.19L598.52,57.3L601.38,57.68L604.25,58.03L607.11,56.46L609.98,54.4L612.84,50.49L618.57,45.3L621.43,41.3L624.29,36L627.16,643.78L630.02,637.69L632.88,635.64L635.75,631.88L638.61,631.6L641.48,630.08L644.34,625.98L647.2,623.27L650.07,626.23L655.8,599.64L658.66,598L661.52,579.54L664.39,571.07L667.25,561.7L670.11,540.6L672.98,532.78L675.84,514.93L678.7,515.86L681.57,499.81L684.43,488.69L687.29,480.83L693.02,476.15L695.89,469.05L698.75,466.05L701.61,455.26L704.48,450.75L707.34,442.36L710.21,435.15L713.07,430.86L715.93,426.43L718.8,426.46L721.66,430.87L724.52,430.05L733.11,434.44L735.98,435.04L744.57,438.62L747.43,439.37L756.02,443.01L758.89,444.03L767.48,448.33L770.34,450.18L790.39,450.37L793.25,450.21L801.84,453.18L804.71,454.97L810.43,457.27L813.3,458.35L821.89,458.53L824.76,458.02L839.07,455.95L841.94,456.84L856.25,457.66L859.12,457.11L864.85,458.18L867.71,458.53L879.17,459.86L882.03,457.62L890.62,459.13L893.48,457.82L904.94,461.15L907.8,461.78L910.66,462.91L913.53,461.97L933.58,467.96L936.44,468.5L939.3,468.56L942.17,467.49L953.62,466.83L956.48,467.04L965.08,467.11L967.94,467.98L970.8,468.54L973.67,466.48L982.26,466.83L985.12,465.86L996.58,464.87L999.44,465.41L1002.3,464.21L1005.17,464.36L1008.03,462.72L1010.9,463.36L1013.76,464.39L1016.62,463.76L1022.35,464.86L1025.21,465.85L1030.94,469.02L1033.8,469.69L1036.67,470.81L1039.53,469.13L1042.4,469.84L1045.26,469.64L1053.85,467.73L1056.72,465.9L1059.58,465.63L1062.44,464.02L1065.31,463.96L1068.17,462.63L1076.76,460.31L1079.63,461.13L1085.35,462.22L1088.22,462.48L1096.81,462.15L1099.67,463.8L1108.26,461.75L1111.13,462.53L1125.44,460.08L1128.31,459.09L1131.17,459.4L1134.04,458.74L1136.9,457.71L1139.77,458.47L1142.63,458.19L1145.49,457.09L1151.22,457.29L1154.08,457.43L1159.81,457.34L1162.67,455.86L1165.54,456.28L1168.4,454.97L1174.13,455.87L1176.99,455.23L1188.45,457.96L1191.31,459.51L1197.04,457.42L1199.9,458.56L1202.77,456.66L1205.63,456.08L1208.49,454.77L1211.36,454.88L1214.22,455.13L1217.08,453.42L1219.95,453.54L1222.81,452.14L1231.4,446.75L1234.27,446.06L1237.13,440.67L1239.99,437.08L1242.86,433.79L1245.72,435.29L1248.58,429.15L1251.45,426.92L1257.18,421.16L1260.04,418.57L1265.77,412.81L1268.63,410.93L1271.5,411.17L1274.36,407.57L1277.22,406.08L1280.09,402.13L1282.95,401.59L1285.81,400.15L1288.68,399.24L1291.54,399.41L1294.4,398.03L1297.27,398.55L1303,398.94L1305.86,399L1308.72,398.93L1311.59,397.4L1314.45,397.42L1317.32,396.28L1323.04,395.8L1325.91,393.36L1331.63,392.99L1334.5,393.5L1340.22,395.8L1343.09,398.21L1345.95,398.2L1348.82,401.14L1354.54,404.55L1357.41,404.77L1360.27,407.17L1363.14,408.2L1366,409.42L1368.86,409.6L1371.73,408.62L1374.59,409.18L1380.32,411.41L1383.18,409.67L1388.91,409.88L1391.77,411.19L1394.64,412.19L1397.5,412.04L1403.23,412.44L1406.09,411.02L1408.95,411.56L1411.82,409.21L1420.41,405.89L1423.27,404.8L1426.14,404.21L1429,404.9" style="vector-effect: none; fill: none; stroke: rgb(0, 204, 150); stroke-opacity: 1; stroke-width: 3px; opacity: 1;"/></g><g class="points"/><g class="text"/></g><g class="trace scatter tracef9c145" style="stroke-miterlimit: 2; opacity: 1;"><g class="fills"/><g class="errorbars"/><g class="lines"><path class="js-line" d="M0,386.01L8.59,383.95L11.46,382.37L22.91,376.93L25.78,375.09L28.64,374.04L31.5,374.08L37.23,373.35L40.09,372.85L42.96,371.78L45.82,369.8L48.69,368.3L51.55,365.85L54.41,363.4L57.28,362.4L65.87,356.95L68.73,356.94L71.59,356.31L74.46,356.91L77.32,357.59L80.19,362.61L85.91,361.52L88.78,358.89L91.64,356.04L94.5,354.67L100.23,342.42L103.1,339.37L105.96,341.57L108.82,336.23L111.69,334.14L114.55,334.05L117.42,332.7L120.28,329.35L123.14,327.52L126.01,331.15L131.73,332.08L134.6,336.86L137.46,336.68L140.32,342.42L143.19,345.69L146.05,347.79L151.78,345.01L154.64,345.73L157.51,349.25L160.37,351.33L163.24,353.3L166.1,357.56L171.83,363.79L174.69,365.02L177.55,365.52L180.42,364.49L189.01,363.5L191.87,362.53L197.6,355.92L200.47,353.32L203.33,351.99L206.19,347.87L209.05,343.63L211.92,340.77L214.78,340.73L217.65,338.77L220.51,336.39L223.37,336.55L229.1,335.16L231.96,335.98L240.56,341.46L243.42,345.35L249.14,352.97L252.01,363.78L254.87,368.62L257.74,380.48L263.46,397.37L266.33,402.44L269.19,403.72L272.06,404.15L274.92,404.63L277.78,403.83L280.65,404L283.51,402.81L286.37,400.66L289.24,402.95L292.1,400.43L294.97,401.05L297.83,402.33L300.69,402.39L303.56,404.34L306.42,404.24L309.28,408.94L312.15,405.8L315.01,405.35L317.88,403.87L320.74,405.55L323.6,404.89L326.47,406.78L329.33,409.85L335.06,417.74L337.92,422.46L340.78,434.11L343.65,441.28L352.24,461.91L355.1,470.62L357.97,472.82L360.83,485.76L363.7,484.63L366.56,489.83L369.42,492.72L372.29,497.33L375.15,499.52L378.01,505.82L386.61,518.69L389.47,520.69L392.33,526.03L395.2,525.15L398.06,529.8L400.92,527.96L403.79,529.13L406.65,532.47L409.51,533.62L412.38,536.68L418.11,543.61L420.97,546.03L423.83,543.14L426.7,543.25L429.56,543.72L432.43,538.67L435.29,538.9L438.15,549.55L441.01,555.21L443.88,558.53L446.74,568.31L449.61,572.92L452.47,579.95L455.33,582.93L463.92,583.23L466.79,585.69L469.65,584.87L472.52,580.96L475.38,578.87L478.24,574.44L481.11,569.58L483.97,567.84L489.7,561.03L492.56,562.46L495.43,562.91L498.29,552.8L509.75,544.18L512.61,540.91L515.47,536.76L518.34,529.75L524.06,526.9L526.93,521.67L538.38,514.39L541.25,511.72L544.11,507.17L546.98,504.73L549.84,499.35L552.7,498.05L555.56,498.8L558.43,495.41L561.29,495.09L564.16,491.62L567.02,489.27L569.88,485.51L578.48,486L581.34,485.8L584.2,486.29L587.07,485.31L592.79,482.84L595.66,482.62L598.52,484.33L601.39,490.84L604.25,495.73L607.11,498.29L609.98,498.24L612.84,499.51L615.7,499.77L618.57,501.1L627.16,498.32L630.02,500.01L632.89,504.54L635.75,507.01L638.61,507.11L641.48,504.16L644.34,504.69L647.21,503.25L650.07,503.61L652.93,505.95L655.79,507.89L658.66,507.55L661.52,507.54L664.39,512.23L667.25,515.53L670.11,517.13L672.98,514.64L675.84,513.9L678.7,513.15L681.57,513.58L687.3,514.83L690.16,516.61L693.02,520.1L695.89,520.84L698.75,520.9L701.62,518.66L704.48,516.82L707.34,517.03L713.07,521.94L715.93,522.71L718.8,521.96L721.66,520.06L727.39,510.27L730.25,505.36L733.11,495.61L735.98,491L738.84,484.17L741.71,482.28L744.57,481L747.43,481.98L753.16,482.51L756.02,481.79L758.89,478.93L761.76,478.52L767.48,481.76L770.34,481.56L773.21,484.21L776.07,483.57L778.94,486.6L781.8,488.49L787.53,494.71L790.39,501.45L793.25,502.91L796.12,503.11L798.98,503.73L801.84,503.05L807.57,500.23L810.44,500.73L819.03,502.28L821.89,503.75L836.21,502.48L839.07,502.78L841.94,503.13L844.8,502.28L856.25,497.77L859.12,497.63L861.98,497.53L864.85,496.65L867.71,496.49L870.57,494.96L873.44,492.52L876.3,492.1L879.17,491.24L882.03,489.36L896.35,482.47L899.21,481.27L904.94,479.31L907.8,477.06L910.66,476.2L913.53,473.62L927.85,469.46L930.71,469.95L933.58,468.33L936.44,467.68L942.17,466.88L945.03,466.55L953.62,468.76L956.49,468.82L959.35,468.81L962.21,469.99L970.8,471.22L973.67,471.65L987.99,472.18L990.85,472.96L999.44,474.18L1002.3,474.78L1019.49,474.63L1022.35,475.45L1039.53,477.33L1042.4,477.35L1050.99,476.82L1053.85,476.41L1062.45,473.26L1065.31,471.45L1085.35,452.73L1088.22,451.46L1091.08,450.56L1093.95,446.48L1096.81,444.57L1099.67,441.01L1102.54,438.35L1105.4,432.89L1108.26,430.09L1111.13,428.39L1113.99,425.09L1116.86,423.32L1119.72,420.68L1122.58,419.07L1125.44,416.69L1128.31,415.71L1134.04,411.83L1136.9,410.28L1142.63,407.9L1145.49,407.53L1151.22,406.22L1154.09,406.19L1159.81,407.94L1162.67,409.19L1165.54,409.48L1168.4,410.92L1171.27,410.25L1174.13,410.76L1176.99,410.41L1179.86,411.17L1188.45,414.62L1191.31,414.9L1194.17,416.59L1197.04,417.18L1199.9,418.52L1202.77,420.81L1208.5,425.01L1211.36,427.31L1214.22,428.98L1217.08,429.53L1219.95,431.61L1222.81,432.4L1231.4,436.03L1234.27,437.31L1237.13,438.15L1240,440.98L1242.86,440.75L1245.72,443.13L1257.18,445.26L1260.04,444.83L1265.77,445.14L1268.63,446.05L1271.5,446.72L1274.36,443.75L1277.23,443.25L1280.09,441.84L1282.95,440.06L1285.81,434.1L1288.68,431.86L1291.54,426.18L1294.41,423.43L1297.27,417.77L1305.86,413.24L1308.73,412.9L1311.59,411.64L1314.45,412.04L1317.32,412.31L1320.18,413.85L1331.64,419.5L1334.5,421.61L1340.22,424.51L1343.09,425.78L1345.96,426.07L1348.82,428.14L1357.41,432.68L1360.27,434.17L1371.72,442.56L1374.59,443.61L1377.45,445.41L1380.32,448.24L1388.91,454.3L1391.77,457.85L1394.63,458.72L1397.5,461.68L1403.23,466.11L1406.09,469.76L1417.55,484.29L1420.41,486.32L1426.14,493.34L1429,496.7" style="vector-effect: none; fill: none; stroke: rgb(171, 99, 250); stroke-opacity: 1; stroke-width: 3px; opacity: 1;"/></g><g class="points"/><g class="text"/></g><g class="trace scatter tracec29c0d" style="stroke-miterlimit: 2; opacity: 1;"><g class="fills"/><g class="errorbars"/><g class="lines"><path class="js-line" d="M0,369.3L22.91,365.97L25.77,365.1L31.5,362.19L34.37,361.99L40.09,358.37L42.96,357.07L51.55,350.1L54.41,349.59L57.28,345.44L60.14,343.49L65.87,336.41L68.73,332.77L74.46,324.38L77.32,317.36L80.18,312.44L83.05,305.88L91.64,276.03L94.5,270.26L97.37,265L100.23,263.86L105.96,258.51L108.82,259.77L111.69,255.93L114.55,257.35L123.14,255.58L126.01,250.98L128.87,253.84L131.73,253.86L134.6,254.18L137.46,253.03L140.32,255.23L143.19,254.68L146.05,256.25L148.92,256.49L151.78,258.28L154.64,256.32L157.51,255.59L160.37,261.75L163.23,261.23L166.1,259.28L168.96,258.57L171.82,255.07L174.69,254.84L177.55,256.59L180.42,256.64L183.28,261.58L186.14,264.13L189.01,272.04L194.73,284.33L197.6,288.74L200.46,295.37L203.33,296.65L206.19,300.69L209.05,306.41L211.92,312.31L214.78,320.2L223.37,339.88L226.24,350.11L237.69,376.93L240.55,380.37L243.42,380.88L246.28,384.23L249.15,381.37L252.01,386.12L254.87,386.12L257.74,384.16L260.6,383.56L263.46,377.4L266.33,375.79L269.19,371.58L272.06,370.61L274.92,370.49L280.65,375.2L283.51,378.99L286.37,383.2L289.24,389.02L292.1,395.15L294.96,404.86L297.83,410.58L300.69,420.71L303.56,425.42L306.42,425.5L309.28,419.62L312.15,419.25L317.87,416.45L320.74,417.81L323.6,410.51L326.47,416.31L329.33,414.76L332.19,417.57L335.06,419.28L337.92,418.18L340.79,419.76L343.65,418.33L346.51,418.45L349.37,414.66L352.24,414.21L355.1,411.92L357.97,408.83L360.83,408.83L366.56,404.41L369.42,404.59L372.28,402.59L375.15,402.59L380.88,403.79L383.74,403.18L389.47,402.11L392.33,404.69L395.19,404.56L398.06,405.79L406.65,418.06L409.51,424.01L415.24,434.11L418.11,437.93L420.97,438.36L423.83,447.08L426.7,453.32L429.56,461.54L432.42,474.47L435.29,481.42L438.15,492.64L441.01,498.82L443.88,509.55L446.74,515.38L449.61,524.13L452.47,526.46L455.33,534.39L458.2,530.92L461.06,528.56L463.93,519.86L466.79,516.74L469.65,506.49L472.52,502.73L475.38,494.78L478.24,490.27L481.11,487.37L483.97,483.37L486.83,481.62L489.7,480.58L492.56,484L495.43,482.06L498.29,485.87L501.15,487.25L504.02,490.14L506.88,493.06L509.74,494.74L512.61,497L515.47,498.01L526.93,493.36L529.79,490.89L535.52,487.99L538.38,484.74L546.97,480.17L549.84,478.06L552.7,478.16L555.56,475.54L558.43,474.85L561.29,470.67L567.02,463.6L569.88,458.14L572.75,455.3L575.61,451.27L587.06,442.93L589.93,441.43L592.79,441.02L595.66,441.89L598.52,441.52L601.38,442.56L604.25,442.62L607.11,441.88L609.97,440.48L612.84,437.86L615.7,439.33L618.57,436.23L624.29,435.35L627.16,436.96L635.75,434.06L638.61,435.09L641.48,436.6L644.34,435.88L652.93,437.24L655.79,436.21L661.52,438.37L664.39,439.67L672.98,443.6L675.84,445.06L681.57,446.68L684.43,449.05L693.02,453.22L695.89,453.61L698.75,455.23L701.61,455.02L704.48,455.56L707.34,453.59L710.2,453.14L713.07,451.92L715.93,452.21L718.8,453.35L733.12,452.08L735.98,450.93L741.7,448.45L744.57,448.11L758.89,441.79L761.75,441.75L773.21,441.71L776.07,442.34L778.93,443.2L781.8,443.08L787.53,442.4L790.39,442.32L813.3,441.37L816.16,440.93L819.03,440.69L821.89,439.29L827.62,438.73L830.48,437.08L839.07,435.65L841.94,435.84L847.66,434.16L850.53,435.36L853.39,434.92L856.25,439.29L859.12,441.53L861.98,446.65L864.85,448.07L867.71,450.86L873.44,451.6L876.3,451.91L879.17,451.73L882.03,455.27L884.89,456.62L887.76,459.43L893.48,466.19L896.35,471.06L902.07,474.52L904.94,474.95L907.8,476.43L910.67,476.81L916.39,477.43L919.26,477.27L922.12,478.35L924.98,477.35L933.58,470.56L936.44,464.84L939.3,460.1L942.17,459.08L945.03,458.43L947.9,459.73L950.76,460.28L953.62,463.44L956.48,464.86L959.35,467.21L965.08,468.25L967.94,470.12L976.53,473.76L979.39,474.89L987.99,475.51L990.85,474.94L993.71,475.5L996.58,474.25L1005.17,471.99L1008.03,471.95L1016.62,471.12L1019.49,470.83L1030.94,472.34L1033.81,472.24L1042.4,470.76L1045.26,470.4L1053.85,470.72L1056.72,470.63L1062.44,470.01L1065.31,470.5L1071.03,469.86L1073.9,470.33L1076.76,469.18L1079.63,469.29L1085.35,467.86L1088.22,468.8L1091.08,467.93L1093.94,467.87L1096.81,469.07L1099.67,469L1102.53,468.22L1105.4,468.33L1125.45,459.72L1128.31,458.92L1136.9,457.02L1139.76,455.52L1145.49,453.05L1148.36,453.11L1151.22,450.72L1154.08,449.32L1159.81,446.16L1162.67,444.81L1165.54,442.55L1168.4,441.76L1176.99,436.1L1179.86,435.28L1182.72,434.8L1185.58,432.88L1188.45,432.06L1191.31,429.56L1205.63,420.79L1208.49,420.27L1217.09,418.83L1219.95,419.74L1222.81,419.01L1225.67,420.2L1228.54,421.04L1231.4,420.78L1234.27,421.57L1237.13,421.45L1242.86,421.11L1245.72,420.58L1260.04,419.37L1262.9,418.14L1268.63,414.28L1271.5,413.76L1280.09,408.71L1282.95,407.63L1291.54,407.05L1294.41,405.36L1297.27,406.3L1300.13,402.93L1303,402.5L1305.86,399.7L1308.72,398.99L1311.59,395.65L1320.18,393.47L1323.04,393.8L1325.9,391.04L1328.77,392.99L1331.63,391.84L1334.5,393.19L1337.36,391.35L1340.23,391.28L1363.13,392.76L1366,392.52L1371.73,392.85L1374.59,394.42L1388.91,397.42L1391.77,397.49L1394.64,398.73L1397.5,397.4L1403.23,398.46L1406.09,398.21L1408.95,398.79L1411.82,397.93L1414.68,399.61L1417.54,397.06L1420.41,396.2L1423.27,393.53L1426.14,392.19L1429,403.1" style="vector-effect: none; fill: none; stroke: rgb(255, 161, 90); stroke-opacity: 1; stroke-width: 3px; opacity: 1;"/></g><g class="points"/><g class="text"/></g></g></g></g><path class="xlines-above crisp" d="M0,0" style="fill: none;"/><path class="ylines-above crisp" d="M0,0" style="fill: none;"/><g class="overlines-above"/><g class="xaxislayer-above"><g class="xtick"><text text-anchor="middle" x="0" y="841" transform="translate(231.32,0)" style="font-family: 'Open Sans', verdana, arial, sans-serif; font-size: 20px; fill: rgb(42, 63, 95); fill-opacity: 1; white-space: pre; opacity: 1;">1</text></g><g class="xtick"><text text-anchor="middle" x="0" y="841" style="font-family: 'Open Sans', verdana, arial, sans-serif; font-size: 20px; fill: rgb(42, 63, 95); fill-opacity: 1; white-space: pre; opacity: 1;" transform="translate(374.51,0)">2</text></g><g class="xtick"><text text-anchor="middle" x="0" y="841" style="font-family: 'Open Sans', verdana, arial, sans-serif; font-size: 20px; fill: rgb(42, 63, 95); fill-opacity: 1; white-space: pre; opacity: 1;" transform="translate(517.7,0)">3</text></g><g class="xtick"><text text-anchor="middle" x="0" y="841" style="font-family: 'Open Sans', verdana, arial, sans-serif; font-size: 20px; fill: rgb(42, 63, 95); fill-opacity: 1; white-space: pre; opacity: 1;" transform="translate(660.88,0)">4</text></g><g class="xtick"><text text-anchor="middle" x="0" y="841" style="font-family: 'Open Sans', verdana, arial, sans-serif; font-size: 20px; fill: rgb(42, 63, 95); fill-opacity: 1; white-space: pre; opacity: 1;" transform="translate(804.07,0)">5</text></g><g class="xtick"><text text-anchor="middle" x="0" y="841" style="font-family: 'Open Sans', verdana, arial, sans-serif; font-size: 20px; fill: rgb(42, 63, 95); fill-opacity: 1; white-space: pre; opacity: 1;" transform="translate(947.25,0)">6</text></g><g class="xtick"><text text-anchor="middle" x="0" y="841" style="font-family: 'Open Sans', verdana, arial, sans-serif; font-size: 20px; fill: rgb(42, 63, 95); fill-opacity: 1; white-space: pre; opacity: 1;" transform="translate(1090.44,0)">7</text></g><g class="xtick"><text text-anchor="middle" x="0" y="841" style="font-family: 'Open Sans', verdana, arial, sans-serif; font-size: 20px; fill: rgb(42, 63, 95); fill-opacity: 1; white-space: pre; opacity: 1;" transform="translate(1233.63,0)">8</text></g><g class="xtick"><text text-anchor="middle" x="0" y="841" style="font-family: 'Open Sans', verdana, arial, sans-serif; font-size: 20px; fill: rgb(42, 63, 95); fill-opacity: 1; white-space: pre; opacity: 1;" transform="translate(1376.81,0)">9</text></g><g class="xtick"><text text-anchor="middle" x="0" y="841" style="font-family: 'Open Sans', verdana, arial, sans-serif; font-size: 20px; fill: rgb(42, 63, 95); fill-opacity: 1; white-space: pre; opacity: 1;" transform="translate(1520,0)">10</text></g></g><g class="yaxislayer-above"><g class="ytick"><text text-anchor="end" x="90" y="7" transform="translate(0,726.59)" style="font-family: 'Open Sans', verdana, arial, sans-serif; font-size: 20px; fill: rgb(42, 63, 95); fill-opacity: 1; white-space: pre; opacity: 1;">−0.2</text></g><g class="ytick"><text text-anchor="end" x="90" y="7" style="font-family: 'Open Sans', verdana, arial, sans-serif; font-size: 20px; fill: rgb(42, 63, 95); fill-opacity: 1; white-space: pre; opacity: 1;" transform="translate(0,610.23)">−0.1</text></g><g class="ytick"><text text-anchor="end" x="90" y="7" style="font-family: 'Open Sans', verdana, arial, sans-serif; font-size: 20px; fill: rgb(42, 63, 95); fill-opacity: 1; white-space: pre; opacity: 1;" transform="translate(0,493.86)">0</text></g><g class="ytick"><text text-anchor="end" x="90" y="7" style="font-family: 'Open Sans', verdana, arial, sans-serif; font-size: 20px; fill: rgb(42, 63, 95); fill-opacity: 1; white-space: pre; opacity: 1;" transform="translate(0,377.5)">0.1</text></g><g class="ytick"><text text-anchor="end" x="90" y="7" style="font-family: 'Open Sans', verdana, arial, sans-serif; font-size: 20px; fill: rgb(42, 63, 95); fill-opacity: 1; white-space: pre; opacity: 1;" transform="translate(0,261.14)">0.2</text></g><g class="ytick"><text text-anchor="end" x="90" y="7" style="font-family: 'Open Sans', verdana, arial, sans-serif; font-size: 20px; fill: rgb(42, 63, 95); fill-opacity: 1; white-space: pre; opacity: 1;" transform="translate(0,144.78)">0.3</text></g></g><g class="overaxes-above"/></g></g><g class="polarlayer"/><g class="smithlayer"/><g class="ternarylayer"/><g class="geolayer"/><g class="funnelarealayer"/><g class="pielayer"/><g class="iciclelayer"/><g class="treemaplayer"/><g class="sunburstlayer"/><g class="glimages"/><defs id="topdefs-985620"><g class="clips"/><clipPath id="legend985620"><rect width="84" height="181" x="0" y="0"/></clipPath></defs><g class="layer-above"><g class="imagelayer"/><g class="shapelayer"/></g><g class="infolayer"><g class="legend" pointer-events="all" transform="translate(252.477,110.08000000000001)"><rect class="bg" shape-rendering="crispEdges" width="84" height="181" x="0" y="0" style="stroke: rgb(68, 68, 68); stroke-opacity: 1; fill: rgb(255, 255, 255); fill-opacity: 1; stroke-width: 0px;"/><g class="scrollbox" transform="" clip-path="url(#legend985620)"><g class="groups"><g class="traces" transform="translate(0,22.1)" style="opacity: 1;"><text class="legendtext" text-anchor="start" x="40" y="9.360000000000001" style="font-family: 'Open Sans', verdana, arial, sans-serif; font-size: 24px; fill: rgb(42, 63, 95); fill-opacity: 1; white-space: pre;">1m</text><g class="layers" style="opacity: 1;"><g class="legendfill"/><g class="legendlines"><path class="js-line" d="M5,0h30" style="fill: none; stroke: rgb(99, 110, 250); stroke-opacity: 1; stroke-width: 3px;"/></g><g class="legendsymbols"><g class="legendpoints"/></g></g><rect class="legendtoggle" x="0" y="-17.1" width="78.609375" height="34.2" style="fill: rgb(0, 0, 0); fill-opacity: 0;"/></g><g class="traces" transform="translate(0,56.300000000000004)" style="opacity: 1;"><text class="legendtext" text-anchor="start" x="40" y="9.360000000000001" style="font-family: 'Open Sans', verdana, arial, sans-serif; font-size: 24px; fill: rgb(42, 63, 95); fill-opacity: 1; white-space: pre;">2m</text><g class="layers" style="opacity: 1;"><g class="legendfill"/><g class="legendlines"><path class="js-line" d="M5,0h30" style="fill: none; stroke: rgb(239, 85, 59); stroke-opacity: 1; stroke-width: 3px;"/></g><g class="legendsymbols"><g class="legendpoints"/></g></g><rect class="legendtoggle" x="0" y="-17.1" width="78.609375" height="34.2" style="fill: rgb(0, 0, 0); fill-opacity: 0;"/></g><g class="traces" transform="translate(0,90.5)" style="opacity: 1;"><text class="legendtext" text-anchor="start" x="40" y="9.360000000000001" style="font-family: 'Open Sans', verdana, arial, sans-serif; font-size: 24px; fill: rgb(42, 63, 95); fill-opacity: 1; white-space: pre;">3m</text><g class="layers" style="opacity: 1;"><g class="legendfill"/><g class="legendlines"><path class="js-line" d="M5,0h30" style="fill: none; stroke: rgb(0, 204, 150); stroke-opacity: 1; stroke-width: 3px;"/></g><g class="legendsymbols"><g class="legendpoints"/></g></g><rect class="legendtoggle" x="0" y="-17.1" width="78.609375" height="34.2" style="fill: rgb(0, 0, 0); fill-opacity: 0;"/></g><g class="traces" transform="translate(0,124.70000000000002)" style="opacity: 1;"><text class="legendtext" text-anchor="start" x="40" y="9.360000000000001" style="font-family: 'Open Sans', verdana, arial, sans-serif; font-size: 24px; fill: rgb(42, 63, 95); fill-opacity: 1; white-space: pre;">4m</text><g class="layers" style="opacity: 1;"><g class="legendfill"/><g class="legendlines"><path class="js-line" d="M5,0h30" style="fill: none; stroke: rgb(171, 99, 250); stroke-opacity: 1; stroke-width: 3px;"/></g><g class="legendsymbols"><g class="legendpoints"/></g></g><rect class="legendtoggle" x="0" y="-17.1" width="78.609375" height="34.2" style="fill: rgb(0, 0, 0); fill-opacity: 0;"/></g><g class="traces" transform="translate(0,158.9)" style="opacity: 1;"><text class="legendtext" text-anchor="start" x="40" y="9.360000000000001" style="font-family: 'Open Sans', verdana, arial, sans-serif; font-size: 24px; fill: rgb(42, 63, 95); fill-opacity: 1; white-space: pre;">5m</text><g class="layers" style="opacity: 1;"><g class="legendfill"/><g class="legendlines"><path class="js-line" d="M5,0h30" style="fill: none; stroke: rgb(255, 161, 90); stroke-opacity: 1; stroke-width: 3px;"/></g><g class="legendsymbols"><g class="legendpoints"/></g></g><rect class="legendtoggle" x="0" y="-17.1" width="78.609375" height="34.2" style="fill: rgb(0, 0, 0); fill-opacity: 0;"/></g></g></g><rect class="scrollbar" rx="20" ry="3" width="0" height="0" x="0" y="0" style="fill: rgb(128, 139, 164); fill-opacity: 1;"/></g><g class="g-gtitle"><text class="gtitle" x="800" y="50" text-anchor="middle" dy="0.7em" style="opacity: 1; font-family: 'Open Sans', verdana, arial, sans-serif; font-size: 20px; fill: rgb(42, 63, 95); fill-opacity: 1; font-weight: bold; white-space: pre;">No Yielding, Front and no eHMI</text></g><g class="g-xtitle"><text class="xtitle" x="805.5" y="873.5" text-anchor="middle" style="opacity: 1; font-family: 'Open Sans', verdana, arial, sans-serif; font-size: 20px; fill: rgb(42, 63, 95); fill-opacity: 1; white-space: pre;">Time (in seconds)</text></g><g class="g-ytitle" transform="translate(0.578125,0)"><text class="ytitle" transform="rotate(-90,19.421875,460)" x="19.421875" y="460" text-anchor="middle" style="opacity: 1; font-family: 'Open Sans', verdana, arial, sans-serif; font-size: 20px; fill: rgb(42, 63, 95); fill-opacity: 1; white-space: pre;">Yaw Angle (in radians)</text></g></g></svg>