<svg class="main-svg" xmlns="http://www.w3.org/2000/svg" xmlns:xlink="http://www.w3.org/1999/xlink" width="4800" height="2700" style="" viewBox="0 0 1600 900"><rect x="0" y="0" width="1600" height="900" style="fill: rgb(255, 255, 255); fill-opacity: 1;"/><defs id="defs-261c13"><g class="clips"><clipPath id="clip261c13xyplot" class="plotclip"><rect width="1429" height="720"/></clipPath><clipPath class="axesclip" id="clip261c13x"><rect x="91" y="0" width="1429" height="900"/></clipPath><clipPath class="axesclip" id="clip261c13y"><rect x="0" y="100" width="1600" height="720"/></clipPath><clipPath class="axesclip" id="clip261c13xy"><rect x="91" y="100" width="1429" height="720"/></clipPath></g><g class="gradients"/><g class="patterns"/></defs><g class="bglayer"><rect class="bg" x="91" y="100" width="1429" height="720" style="fill: rgb(229, 236, 246); fill-opacity: 1; stroke-width: 0;"/></g><g class="layer-below"><g class="imagelayer"/><g class="shapelayer"/></g><g class="cartesianlayer"><g class="subplot xy"><g class="layer-subplot"><g class="shapelayer"/><g class="imagelayer"/></g><g class="minor-gridlayer"><g class="x"/><g class="y"/></g><g class="gridlayer"><g class="x"><path class="xgrid crisp" transform="translate(248.37,0)" d="M0,100v720" style="stroke: rgb(255, 255, 255); stroke-opacity: 1; stroke-width: 1px;"/><path class="xgrid crisp" transform="translate(407.32,0)" d="M0,100v720" style="stroke: rgb(255, 255, 255); stroke-opacity: 1; stroke-width: 1px;"/><path class="xgrid crisp" transform="translate(566.27,0)" d="M0,100v720" style="stroke: rgb(255, 255, 255); stroke-opacity: 1; stroke-width: 1px;"/><path class="xgrid crisp" transform="translate(725.23,0)" d="M0,100v720" style="stroke: rgb(255, 255, 255); stroke-opacity: 1; stroke-width: 1px;"/><path class="xgrid crisp" transform="translate(884.18,0)" d="M0,100v720" style="stroke: rgb(255, 255, 255); stroke-opacity: 1; stroke-width: 1px;"/><path class="xgrid crisp" transform="translate(1043.1399999999999,0)" d="M0,100v720" style="stroke: rgb(255, 255, 255); stroke-opacity: 1; stroke-width: 1px;"/><path class="xgrid crisp" transform="translate(1202.09,0)" d="M0,100v720" style="stroke: rgb(255, 255, 255); stroke-opacity: 1; stroke-width: 1px;"/><path class="xgrid crisp" transform="translate(1361.05,0)" d="M0,100v720" style="stroke: rgb(255, 255, 255); stroke-opacity: 1; stroke-width: 1px;"/></g><g class="y"><path class="ygrid crisp" transform="translate(0,711.64)" d="M91,0h1429" style="stroke: rgb(255, 255, 255); stroke-opacity: 1; stroke-width: 1px;"/><path class="ygrid crisp" transform="translate(0,584.96)" d="M91,0h1429" style="stroke: rgb(255, 255, 255); stroke-opacity: 1; stroke-width: 1px;"/><path class="ygrid crisp" transform="translate(0,331.61)" d="M91,0h1429" style="stroke: rgb(255, 255, 255); stroke-opacity: 1; stroke-width: 1px;"/><path class="ygrid crisp" transform="translate(0,204.93)" d="M91,0h1429" style="stroke: rgb(255, 255, 255); stroke-opacity: 1; stroke-width: 1px;"/></g></g><g class="zerolinelayer"><path class="yzl zl crisp" transform="translate(0,458.28)" d="M91,0h1429" style="stroke: rgb(255, 255, 255); stroke-opacity: 1; stroke-width: 2px;"/></g><g class="layer-between"><g class="shapelayer"/><g class="imagelayer"/></g><path class="xlines-below"/><path class="ylines-below"/><g class="overlines-below"/><g class="xaxislayer-below"/><g class="yaxislayer-below"/><g class="overaxes-below"/><g class="overplot"><g class="xy" transform="translate(91,100)" clip-path="url(#clip261c13xyplot)"><g class="scatterlayer mlayer"><g class="trace scatter tracedf219d" style="stroke-miterlimit: 2; opacity: 1;"><g class="fills"/><g class="errorbars"/><g class="lines"><path class="js-line" d="M0,351.76L4.77,351.26L6.36,350.51L11.13,349.57L12.72,350.21L19.08,349.25L20.66,348.56L22.25,349.35L23.84,347.71L28.61,341.67L30.2,339.14L33.38,333.05L34.97,327.15L38.15,319.23L39.74,313.62L44.51,295.08L46.1,286.52L47.69,280.33L49.28,268.81L57.22,218.54L58.81,208.15L61.99,179.83L63.58,156.01L68.35,110.77L69.94,90.09L71.53,102.14L73.12,86.8L74.71,96.97L76.3,100.77L77.89,103.7L79.48,112.24L85.84,123.67L87.43,124.44L89.02,126.37L90.6,129.72L92.19,133.06L93.78,138.86L95.37,138.78L96.96,143.44L98.55,145.62L100.14,149.81L101.73,150.76L103.32,155.78L104.91,157.71L106.5,161.66L111.27,180.25L112.86,187.47L117.63,204.33L119.22,208L122.4,213.46L123.99,213.25L125.57,214.28L127.16,213.5L130.34,216.47L131.93,220L133.52,222.99L135.11,229.91L139.88,247.69L141.47,251.24L146.24,265.03L147.83,268.48L152.6,279.94L154.19,281.8L157.37,289.26L158.96,293.33L162.13,299.92L163.72,306.04L166.9,315.55L168.49,317.95L178.03,337.22L179.62,338.75L184.39,345.62L185.98,346.76L189.16,347.8L190.75,346.93L192.34,347.58L193.93,346.5L197.1,346.73L198.69,345.67L201.87,341.72L203.46,341L205.05,341.02L206.64,340.15L211.41,335.7L213,335.26L216.18,331.15L217.77,326.59L219.36,325.26L220.95,318.87L227.31,296.65L228.89,287.88L233.66,271.16L235.25,266.81L236.84,258.27L238.43,254.84L241.61,245.51L243.2,235.2L244.79,230.08L246.38,218.4L247.97,214.33L249.56,204.84L252.74,195.99L254.33,187.68L259.1,172.52L260.69,170.21L265.45,161.43L267.04,160.07L271.81,153.12L273.4,152.08L274.99,149.85L276.58,149.19L279.76,146.16L281.35,147.03L282.94,149.81L284.53,151.01L290.89,157.15L292.48,157.85L297.25,157.2L298.83,156.17L300.42,155.87L302.01,157.09L305.19,156.62L306.78,155.53L311.55,153.44L313.14,154.8L314.73,155L316.32,156.18L319.5,158.71L321.09,160.67L330.63,175.55L332.22,176.9L333.8,180.72L335.39,182.08L336.98,184.99L338.57,186.23L340.16,188.72L341.75,188.23L343.34,190.07L344.93,190.61L346.52,191.05L348.11,192.57L349.7,192.22L351.29,194.54L352.88,196.27L354.47,201.33L357.65,208.27L359.24,216.9L360.83,220.88L362.42,229.26L364.01,233.73L365.6,242.51L367.19,245.81L368.77,252.71L371.95,256.61L373.54,262.52L375.13,264.41L376.72,270.74L378.31,272.65L379.9,279.64L381.49,281.66L383.08,287.55L386.26,294.67L387.85,304.37L389.44,308.79L391.03,316.65L392.62,319.45L394.21,326.11L395.8,327.67L397.39,330.47L398.98,336.35L400.57,337.94L402.16,341.62L403.74,343.16L405.33,348.21L406.92,349.94L410.1,357.04L411.69,358.95L413.28,366.68L414.87,370.18L416.46,378.12L418.05,378.95L419.64,383.42L421.23,385.06L422.82,387.19L424.41,388.02L430.77,390.23L432.36,389.43L433.95,394.02L435.54,393.01L438.71,395.12L440.3,392.09L441.89,390.83L443.48,388.41L445.07,386.75L446.66,383.74L449.84,381.99L451.43,379.53L453.02,379.25L454.61,377.87L457.79,378.95L459.38,381.29L460.97,384.5L462.56,385.87L468.92,390.16L470.51,390.53L476.86,385.89L478.45,386.21L480.04,385.69L481.63,386.24L484.81,386.81L486.4,388.44L489.58,389.84L491.17,391.13L494.35,391.54L495.94,390.99L503.89,385.63L505.48,385.64L510.24,388.03L511.83,389.16L516.6,388.84L518.19,388.21L524.55,384.04L526.14,384.18L527.73,383.01L529.32,383.31L530.91,383.26L532.5,384.27L535.68,386.25L537.27,388.74L538.86,388.92L540.45,388.34L548.39,388.83L549.98,388.58L551.57,389.51L553.16,388.88L554.75,390.06L556.34,389.93L561.11,391.09L562.7,392.07L565.88,393.23L567.47,392.53L570.65,392.65L572.24,394.28L573.83,394.33L575.42,395.21L577,396.59L578.59,396.88L580.18,397.63L581.77,397.23L584.95,398.1L586.54,398.53L591.31,397.64L592.9,397.29L604.03,396.17L605.62,397.27L607.21,396.72L608.8,397.1L610.39,396.7L611.97,397.52L615.15,396L616.74,396.26L619.92,395.33L621.51,394.13L623.1,394.18L624.69,393.29L629.46,393.48L631.05,393.3L634.23,393.06L635.82,393L640.59,393.92L642.18,393.58L645.36,392.66L646.94,392.63L650.12,391.35L651.71,390.82L654.89,389.45L656.48,389.35L662.84,387.82L664.43,387.76L669.2,387.36L670.79,387.82L672.38,386.78L673.97,386.76L675.56,386.31L677.15,386.85L678.74,387.29L680.33,386.9L681.91,388.17L683.5,388.42L691.45,389.07L693.04,388.93L699.4,390.43L700.99,389.98L705.76,390.59L707.35,390.06L710.53,388.53L712.12,386.9L713.71,385.76L715.3,383.62L724.83,377.94L726.42,378.84L728.01,380L729.6,379.93L739.14,380.41L740.73,379.91L742.32,379.79L743.91,378.1L747.09,376.57L748.68,376.01L751.85,374.46L753.44,374.32L758.21,372.99L759.8,372.98L774.11,380.54L775.7,381.63L778.88,382.52L780.47,383.17L785.23,384.81L786.82,385.7L788.41,385.44L790,386.08L797.95,389.08L799.54,389.2L802.72,389.68L804.31,389.18L810.67,389.43L812.26,389.43L834.51,388.66L836.1,388.28L840.87,388.07L842.46,387.94L850.41,386.44L852,388.32L856.76,389.17L858.35,386.69L859.94,383.8L861.53,376.95L866.3,370.01L867.89,370.07L871.07,371.06L872.66,373.08L877.43,377.62L879.02,380.14L883.79,384.39L885.38,384.65L888.56,384.94L890.14,382.92L898.09,377.69L899.68,377.03L904.45,379.11L906.04,380.42L907.63,380.94L909.22,382.85L913.99,384.55L915.58,384.48L917.17,384.99L918.76,384.23L921.94,382.62L923.53,381.44L926.7,379.05L928.29,378.14L931.47,376.68L933.06,376.91L942.6,379.17L944.19,379.21L948.96,381.15L950.55,380.93L953.73,382.86L955.32,384.38L956.91,385.51L958.5,387.75L961.67,391.05L963.26,394.47L964.85,395.59L966.44,397.72L971.21,401.34L972.8,400.3L974.39,402.38L975.98,402.28L977.57,403.85L979.16,403.46L982.34,398.93L983.93,395.97L991.88,382.22L993.47,379.74L998.23,374.61L999.82,373.76L1006.18,373.41L1007.77,374.47L1009.36,374.03L1010.95,375.06L1012.54,375.38L1014.13,376.69L1022.08,380.67L1023.67,382.27L1026.85,384.77L1028.44,385.04L1033.2,388L1034.79,386.87L1042.74,381.09L1044.33,381.66L1045.92,380.64L1047.51,380.94L1049.1,379.55L1050.69,380.01L1052.28,379L1053.87,379.07L1058.64,380.41L1060.23,381.48L1061.82,380.49L1063.4,380.81L1064.99,381.44L1066.58,380.6L1068.17,381.78L1069.76,381.83L1072.94,381.43L1074.53,380.44L1076.12,379.04L1077.71,379.39L1079.3,378.78L1080.89,380.34L1082.48,380.06L1084.07,381.49L1085.66,385.37L1087.25,386.5L1088.84,387.99L1090.43,388.28L1093.61,388.51L1095.2,388.44L1103.14,382.94L1104.73,382.86L1109.5,381L1111.09,380.35L1112.68,378.84L1114.27,379.53L1125.4,381.23L1126.99,381.82L1131.75,385.23L1133.34,384.82L1138.11,385.46L1139.7,386.59L1146.06,388.44L1147.65,389.35L1150.83,388.33L1152.42,387.25L1158.78,382.73L1160.37,382.82L1169.9,380.87L1171.49,381.73L1174.67,381.33L1176.26,382.33L1181.03,384.2L1182.62,383.16L1188.98,377.92L1190.57,377.42L1196.93,376.44L1198.52,377.48L1200.11,378.03L1201.7,379.49L1206.46,381.24L1208.05,380.69L1214.41,386.13L1216,386.3L1219.18,386.15L1220.77,386.85L1225.54,381.83L1227.13,381.09L1228.72,380.85L1230.31,381.52L1233.49,382.62L1235.08,381.83L1236.67,382.44L1238.25,382.14L1247.79,387.14L1249.38,387.05L1250.97,386.44L1252.56,384.59L1258.92,378.62L1260.51,378.49L1265.28,374.58L1266.87,374.32L1268.46,373.51L1270.05,373.89L1274.81,375.25L1276.4,374.61L1279.58,372.96L1281.17,370.63L1285.94,364.93L1287.53,362.43L1290.71,355.16L1292.3,353.8L1293.89,353.04L1295.48,348.8L1300.25,343.76L1301.84,342.66L1308.19,338.71L1309.78,337.18L1311.37,335.45L1312.96,331.9L1314.55,329.7L1316.14,325.45L1317.73,323.99L1319.32,317.95L1320.91,312.09L1322.5,310.15L1327.27,298.59L1328.86,296.87L1330.45,293.8L1332.04,292.73L1335.22,290.62L1336.81,290.34L1339.99,290.53L1341.57,290.47L1343.16,291.24L1344.75,291.09L1349.52,293.24L1351.11,294.69L1354.29,297.06L1355.88,297.18L1360.65,303.67L1362.24,306.57L1365.42,311.76L1367.01,316.79L1368.6,320.28L1370.19,326.15L1373.37,333.9L1374.96,336.57L1381.31,344.26L1382.9,345.18L1384.49,347.21L1386.08,347.85L1390.85,350.62L1392.44,350.04L1395.62,353.49L1397.21,353.01L1400.39,352.87L1401.98,351.55L1403.57,350.93L1405.16,349.46L1406.75,350.27L1408.34,349.97L1411.51,348.64L1413.1,346.94L1414.69,346.94L1416.28,343.3L1419.46,339.25L1421.05,339.13L1422.64,339.83L1424.23,339.49L1427.41,337.1L1429,336.4" style="vector-effect: none; fill: none; stroke: rgb(99, 110, 250); stroke-opacity: 1; stroke-width: 3px; opacity: 1;"/></g><g class="points"/><g class="text"/></g><g class="trace scatter trace105055" style="stroke-miterlimit: 2; opacity: 1;"><g class="fills"/><g class="errorbars"/><g class="lines"><path class="js-line" d="M0,383.72L3.18,381.51L4.77,381.03L9.54,377.58L11.13,375.64L17.49,368.36L19.08,367.45L27.02,364.06L28.61,362.74L34.97,356.03L36.56,354.03L39.74,346.11L41.33,344.66L54.04,289.55L55.63,289.31L57.22,285.55L58.81,279.63L60.4,275.64L61.99,269.13L73.12,214.95L74.71,209.95L81.07,187.51L82.66,184.48L84.25,184.66L85.84,183.32L87.43,182.38L89.02,184.05L90.61,181.12L92.19,179.93L93.78,180.64L95.37,182.97L96.96,182.67L98.55,177.31L100.14,176.44L101.73,172.84L103.32,180.7L104.91,181.41L108.09,194.11L109.68,196.39L112.86,207.72L114.45,207.26L123.99,231.77L125.57,233.54L127.16,234.95L128.75,252.12L130.34,252.4L131.93,255.32L135.11,262.84L136.7,264.74L138.29,268L139.88,268.5L141.47,270.07L143.06,266.44L144.65,266.53L146.24,265.49L147.83,267.55L149.42,267.54L151.01,271.3L152.6,270.51L154.19,272.27L155.78,272.87L157.37,274.99L158.96,280.93L160.54,286.46L162.13,296.31L166.9,316.99L168.49,321.79L171.67,332.05L173.26,331.5L174.85,333.43L176.44,331.29L178.03,329.46L179.62,330.93L181.21,333.94L182.8,345.61L184.39,339.64L185.98,350.06L187.57,357.29L189.16,373.47L192.34,408.8L193.93,451.49L195.51,484.34L197.1,541.9L198.69,563.25L200.28,594.73L205.05,619.91L206.64,621.89L208.23,622.17L209.82,619.48L211.41,620.89L213,618.4L214.59,618.37L216.18,617.31L219.36,621.46L220.95,619.8L224.13,619.08L225.72,617.56L227.31,618.95L228.9,619.05L235.25,616.51L236.84,613.81L238.43,614.63L240.02,617.21L241.61,617.43L243.2,616.15L244.79,615.04L246.38,615.24L249.56,617.43L251.15,615.37L252.74,616.62L254.33,616.08L255.92,616.98L257.51,616.76L259.1,617.79L260.69,622.06L262.28,624.17L263.87,622.42L265.45,624.93L267.04,623.87L268.63,623.41L270.22,624.15L271.81,626.6L273.4,625.74L274.99,625.62L276.58,623.31L278.17,620.91L279.76,616.16L284.53,613.47L286.12,613.76L287.71,612.1L289.3,611.87L292.48,612.62L294.07,614.36L295.66,614.85L297.25,617.07L298.84,615.46L300.42,615.08L303.6,608.23L305.19,579.04L306.78,519.94L308.37,409.1L309.96,337.13L311.55,327.21L313.14,317.81L314.73,313.95L316.32,309.06L317.91,307.75L319.5,309.55L321.09,307.64L322.68,309.14L324.27,307.66L325.86,309.84L327.45,310.53L330.63,311.67L332.22,310.47L338.57,305.62L340.16,305.22L343.34,301.07L344.93,296.98L348.11,292.83L349.7,292.93L351.29,289.93L352.88,288.61L354.47,289.9L356.06,294.67L359.24,296.22L360.83,298.03L362.42,301.96L364.01,303.34L367.19,303.89L368.78,305.07L371.95,306.65L373.54,308.05L379.9,309.21L381.49,308.71L383.08,310.28L384.67,310.42L386.26,310.55L387.85,312.71L389.44,311.82L391.03,313.31L392.62,313.45L394.21,314.8L398.98,321.32L400.57,324.72L402.16,327.06L403.74,326.28L405.33,326.24L406.92,325.21L408.51,325.68L410.1,325.03L411.69,324.04L413.28,321.99L416.46,319.82L418.05,317.47L419.64,316.82L421.23,314.14L426,312.06L427.59,311.72L430.77,311.68L432.36,312.08L437.13,311.54L438.71,312.22L446.66,316.66L448.25,318.36L453.02,321.6L454.61,324.52L456.2,326.46L457.79,330.36L459.38,331.89L460.97,336.12L462.56,338.34L464.15,342.94L467.33,347.83L468.92,351.27L470.51,353.42L472.1,357.9L473.68,359.49L475.27,363.4L478.45,365.97L480.04,370.24L483.22,373.91L484.81,374.55L489.58,379.59L491.17,380.36L494.35,381.67L495.94,382.3L497.53,382.26L499.12,380.25L502.3,378.77L503.89,376.95L507.07,374.37L508.65,373.54L511.83,373.09L513.42,374.03L521.37,377.49L522.96,377.75L526.14,378.02L527.73,378.16L530.91,377.57L532.5,376.66L535.68,375.79L537.27,375.79L542.04,377.22L543.62,378.49L548.39,380.12L549.98,381.2L556.34,382.41L557.93,381.71L559.52,382L561.11,381.45L565.88,378.83L567.47,378.42L570.65,378.07L572.24,376.27L580.18,375.38L581.77,375.76L589.72,380.97L591.31,381.6L597.67,379.63L599.26,379.87L607.21,378.97L608.8,378.8L611.97,379.54L613.56,379.21L616.74,381.5L618.33,383.52L621.51,386.11L623.1,386.07L626.28,388.23L627.87,388.84L634.23,386.16L635.82,386.51L639,387.15L640.59,387.88L642.18,388.77L643.77,388.57L648.53,388.6L650.12,389.13L664.43,383.5L666.02,384.07L669.2,384.28L670.79,384.36L677.15,384.16L678.74,382.86L685.09,379.87L686.68,379.49L689.86,380.5L691.45,380.21L693.04,380.21L694.63,381.28L699.4,381.32L700.99,381.23L704.17,380.38L705.76,380.48L710.53,379.39L712.12,379.25L720.06,373.57L721.65,372.62L724.83,371.4L726.42,369.64L729.6,368.33L731.19,368.22L740.73,366.39L742.32,366.58L743.91,369.51L745.5,367.48L747.09,366.29L748.68,367.26L755.03,368.39L756.62,367.97L758.21,367.89L759.8,369.28L762.98,368.85L764.57,368.35L766.16,368.37L767.75,367.3L770.93,366.91L772.52,365.8L775.7,364.1L777.29,363.7L778.88,363.06L780.47,363.23L782.06,360.94L783.65,360.65L785.24,360.24L786.82,362.51L790,356.28L791.59,356.03L794.77,354.51L796.36,354.03L801.13,351.85L802.72,352.31L809.08,350.86L810.67,350.83L813.85,351.46L815.44,352.53L817.03,352.32L818.62,353.23L826.56,356.93L828.15,357.51L831.33,358.71L832.92,360.44L839.28,364.18L840.87,364.15L844.05,365.84L845.64,367.84L850.41,372.07L852,373.8L853.59,377.48L855.18,378.49L858.35,381.58L859.94,382.48L864.71,382.73L866.3,382.11L874.25,385.91L875.84,386.2L877.43,385.55L879.02,390.3L880.61,389.47L882.2,390.7L883.79,390.15L885.38,391.02L890.14,391.94L891.73,393.02L898.09,398.55L899.68,399.35L901.27,399.6L902.86,399.09L904.45,399.15L906.04,397L909.22,397.09L910.81,396.77L912.4,397.8L913.99,397.53L918.76,397.36L920.35,394.08L921.94,393.22L923.53,389.16L929.88,378.09L931.47,377.08L936.24,374.76L937.83,371.86L939.42,371.74L941.01,369.28L942.6,368.77L944.19,366.59L948.96,362.32L950.55,363.17L952.14,362.82L953.73,363.32L955.32,364.72L956.91,364.84L958.5,364.21L960.09,364.57L964.85,363.74L966.44,362.66L968.03,362.07L969.62,359.61L974.39,355.82L975.98,355.3L980.75,354.57L982.34,357.3L987.11,361.22L988.7,362.76L990.29,363.58L991.88,368.45L993.47,369.44L995.05,372.35L999.82,381.27L1001.41,380.54L1003,384.38L1004.59,386.17L1007.77,387.73L1009.36,383.88L1012.54,382.35L1014.13,377.95L1015.72,375.12L1017.31,374.99L1020.49,373.97L1022.08,372.93L1023.67,371.03L1025.26,370.43L1030.02,373.52L1031.61,376.54L1033.2,377.37L1034.79,381L1036.38,383.57L1037.97,384.45L1042.74,387.63L1044.33,388.11L1047.51,386.16L1049.1,383.28L1050.69,382.17L1052.28,379.02L1055.46,375.04L1057.05,373.32L1058.64,370.98L1060.23,371.04L1061.82,370.48L1063.41,371.72L1064.99,372.54L1066.58,375.03L1068.17,376.2L1069.76,379.05L1074.53,381.42L1076.12,382.35L1079.3,383.97L1080.89,384.87L1084.07,385.6L1085.66,386.26L1092.02,388.6L1093.61,388.84L1095.2,389.52L1096.79,388.97L1099.96,388.86L1101.55,387.4L1104.73,385.53L1106.32,385.73L1109.5,385.66L1111.09,384.39L1115.86,383.04L1117.45,381.47L1120.63,379.62L1122.22,379.16L1125.4,378.7L1126.99,378.81L1128.58,379.67L1130.17,379.67L1131.76,380.06L1133.35,379.19L1134.93,378.72L1136.52,377.39L1141.29,375.64L1142.88,376.5L1149.24,378.78L1150.83,377.29L1152.42,376.54L1154.01,374.48L1158.78,371.99L1160.37,372.68L1163.55,374.38L1165.14,375.11L1171.49,371.58L1173.08,369.6L1181.03,363.63L1182.62,363.26L1187.39,358.98L1188.98,358.18L1193.75,351.74L1195.34,350.76L1198.52,349.78L1200.11,350.31L1201.7,349.29L1203.28,349.79L1204.87,349.18L1206.46,349.39L1208.05,351.09L1209.64,351.18L1211.23,352.66L1212.82,352.12L1217.59,350.05L1219.18,349.82L1222.36,349.87L1223.95,350.76L1225.54,350.23L1227.13,350.78L1236.67,355.26L1238.26,354.33L1239.84,355.43L1241.43,355.12L1246.2,353.33L1247.79,354.26L1249.38,355.18L1250.97,355.11L1252.56,355.97L1254.15,355.56L1255.74,355.53L1257.33,354.09L1258.92,353.91L1260.51,352.14L1263.69,352.38L1265.28,351.78L1270.05,352.38L1271.64,351.73L1276.4,350.88L1277.99,351.42L1279.58,350.94L1281.17,352.03L1282.76,351.91L1284.35,352.81L1287.53,354.08L1289.12,355.59L1290.71,355.98L1292.3,357.32L1293.89,357.46L1295.48,359.37L1298.66,361.28L1300.25,363.15L1301.84,363.34L1303.43,364.76L1306.61,366.36L1308.19,367.33L1319.32,377.14L1320.91,379L1325.68,381.27L1327.27,381.19L1330.45,380.38L1332.04,380.81L1336.81,382.11L1338.4,382.1L1343.16,380.79L1344.75,378.49L1346.34,378.3L1347.93,376.74L1354.29,378.36L1355.88,377.97L1359.06,376.88L1360.65,376.08L1362.24,375.12L1363.83,372.17L1367.01,368.64L1368.6,368.7L1370.19,369.16L1371.78,368.02L1376.55,367.33L1378.13,368.86L1379.72,369.71L1381.31,369.54L1386.08,370.33L1387.67,371.26L1390.85,372.73L1392.44,373.93L1397.21,377.36L1398.8,377.32L1400.39,376.06L1401.98,377.46L1405.16,377.68L1406.75,376.51L1416.28,372.2L1417.87,370.03L1419.46,369.36L1421.05,367.1L1425.82,362.27L1427.41,362.52L1429,362.93" style="vector-effect: none; fill: none; stroke: rgb(239, 85, 59); stroke-opacity: 1; stroke-width: 3px; opacity: 1;"/></g><g class="points"/><g class="text"/></g><g class="trace scatter traced6ab0e" style="stroke-miterlimit: 2; opacity: 1;"><g class="fills"/><g class="errorbars"/><g class="lines"><path class="js-line" d="M0,333.55L22.25,326.98L23.84,325.51L27.02,322.95L28.61,320.86L36.56,305.37L38.15,300.48L42.92,287.15L44.51,278.5L49.28,259.79L50.87,252.92L54.05,241.85L55.63,233.69L61.99,205.98L63.58,202.84L68.35,192.67L69.94,186.29L74.71,182.01L76.3,180.84L77.89,179.51L79.48,175.83L84.25,161.49L85.84,159.48L89.02,158.06L90.6,160.2L96.96,176.25L98.55,177.15L100.14,178.18L101.73,182.34L103.32,182.58L104.91,187.9L106.5,186.93L108.09,189.7L111.27,192.85L112.86,195.4L114.45,195.16L116.04,197.86L117.63,200L119.22,198.17L122.4,203.32L123.99,208.59L125.57,210.28L127.16,220.2L136.7,250.83L138.29,255.16L151.01,283.87L152.6,285.46L154.19,291.05L155.78,291.99L160.55,297.65L162.13,298.45L163.72,296.07L165.31,297.22L166.9,298.43L168.49,298.37L170.08,296.52L171.67,296.19L173.26,295.27L174.85,296.64L179.62,300.82L181.21,302.08L184.39,303.92L185.98,307.1L187.57,308.37L189.16,314.72L190.75,316.92L192.34,321.94L193.93,324.64L195.51,329.36L197.1,331.38L198.69,332.18L200.28,335.39L201.87,335.67L203.46,336.73L205.05,336.05L206.64,337.79L208.23,337.27L209.82,338.41L211.41,337.55L214.59,334.33L216.18,334.3L217.77,332.43L219.36,331.78L220.95,332.68L222.54,331.62L224.13,331.73L225.72,330.84L228.89,329.57L230.48,327.07L233.66,323.87L235.25,324L236.84,323.47L238.43,323.97L244.79,332.86L246.38,333.77L247.97,334.73L249.56,334.79L251.15,336.78L252.74,336.38L255.92,335.82L257.51,334.84L263.86,336.04L265.45,337.94L270.22,344.09L271.81,344.6L273.4,346.19L274.99,345.61L276.58,346.37L278.17,345.85L279.76,346.93L281.35,345.64L284.53,346.08L286.12,345.62L292.48,345.66L294.07,346.64L295.66,346.99L297.25,346.35L305.19,351.6L306.78,352.69L308.37,352.26L309.96,353.56L313.14,354.67L314.73,355.85L321.09,356.8L322.68,357.48L324.27,357.53L325.86,356.02L329.04,353.99L330.63,307.06L332.22,71.64L333.8,38.45L336.98,36L338.57,38.06L340.16,40.2L341.75,40.73L344.93,44.97L346.52,49.43L349.7,52.92L351.29,55.97L352.88,57.97L354.47,61.93L356.06,62.52L357.65,65.86L359.24,66.52L360.83,68.66L362.42,68.74L364.01,69.77L367.19,73.73L368.77,75.59L375.13,81.25L376.72,81.66L378.31,82.21L379.9,81.77L381.49,81.23L383.08,81.74L384.67,81.64L386.26,80.69L387.85,81.2L389.44,80.6L392.62,83.48L394.21,84.32L395.8,88.17L397.39,89.88L400.57,100.64L402.16,116.05L403.74,134.31L405.33,176.11L406.92,309.42L408.51,338.47L410.1,361.4L411.69,368.39L414.87,381.43L416.46,386.5L421.23,395.57L422.82,399.21L432.36,408.25L433.95,409.14L437.13,410.53L438.72,411.6L446.66,416.09L448.25,416.46L449.84,417.36L451.43,416.29L454.61,414.64L456.2,413.28L464.15,411.79L465.74,412.05L467.33,411.6L468.92,412.02L476.86,414.98L478.45,415.59L483.22,416.1L484.81,415.88L487.99,415.25L489.58,414.87L494.35,413.68L495.94,412.35L502.3,409.12L503.89,409.28L507.06,408.28L508.65,408.41L510.24,409.63L511.83,409.47L519.78,413.31L521.37,414.91L527.73,417.43L529.32,417.6L538.86,420.53L540.45,420.41L548.39,419.38L549.98,419.48L557.93,421.05L559.52,421.79L565.88,422.5L567.47,423.09L570.65,422.93L572.24,423.8L575.42,424.2L577,424.81L580.18,427.53L581.77,427.67L583.36,428.61L584.95,428.44L588.13,427.51L589.72,428.15L594.49,427.36L596.08,427.92L602.44,431.08L604.03,432.11L607.21,431.92L608.8,432.59L613.56,433.15L615.15,433.97L621.51,433.22L623.1,432.62L624.69,431.83L626.28,429.94L631.05,426.61L632.64,425.06L635.82,423.95L637.41,423.28L643.77,421.26L645.36,420.6L654.89,420.06L656.48,420.71L659.66,419.36L661.25,418.55L667.61,413.5L669.2,412.64L672.38,411.05L673.97,409.31L678.74,404.11L680.33,401.52L688.27,395.65L689.86,395.46L691.45,394.77L693.04,394.98L699.4,394.41L700.99,393.74L705.76,391.38L707.35,390.02L710.53,386.75L712.12,385.49L715.3,382.93L716.89,381.83L720.06,380.01L721.65,379.65L724.83,379.01L726.42,379.79L728.01,375.99L729.6,375.3L731.19,375.78L732.78,374.93L734.37,375.68L735.96,375.46L737.55,377.01L739.14,377.48L740.73,377.56L742.32,379.85L747.09,381.1L748.68,381.75L751.85,380.86L753.44,380.2L755.03,380.24L756.62,378.66L759.8,374.71L761.39,374.11L764.57,372.51L766.16,372.19L767.75,372.24L769.34,371.42L774.11,374.27L775.7,375.49L780.47,381.1L782.06,382.97L783.65,384.28L785.23,386.63L788.41,389.34L790,390.7L794.77,393.01L796.36,392.79L799.54,394.17L801.13,394.72L804.31,395.36L805.9,396.93L810.67,398.22L812.26,398.09L815.44,399.46L817.03,402.42L818.62,402.25L820.21,404.07L824.97,405.83L826.56,405.23L829.74,406.13L831.33,405.76L834.51,406.07L836.1,407.25L837.69,406.36L839.28,407.39L840.87,407.43L842.46,408.37L844.05,408.55L845.64,410.62L848.82,412.08L850.41,413.35L853.59,415.4L855.18,416.75L856.76,418.83L858.35,418.47L861.53,418.54L863.12,417.86L867.89,412.57L869.48,409.74L877.43,382.48L879.02,378.37L882.2,372.23L883.79,370.78L886.97,368.9L888.56,369.23L890.14,367.07L891.73,366.28L893.32,364.1L894.91,363.7L899.68,359.47L901.27,354.91L902.86,351.8L904.45,346.84L906.04,343.96L907.63,339L915.58,324.2L917.17,323.33L918.76,321.8L920.35,322.42L923.52,319.83L925.11,321.76L928.29,318.53L929.88,317.12L931.47,317.32L933.06,315.87L934.65,315.49L936.24,313.91L939.42,313.52L941.01,313.92L944.19,315.56L945.78,315.68L948.96,317.55L950.55,320.38L953.73,322L955.32,323.78L960.09,328.93L961.67,332.06L968.03,336.6L969.62,336.39L974.39,335.62L975.98,336.82L977.57,336.57L979.16,337.8L982.34,339.49L983.93,340.71L985.52,341.19L987.11,342.53L990.29,343.49L991.88,345.42L996.64,357.61L998.23,359.44L1003,361.28L1004.59,362.44L1009.36,367.04L1010.95,368.16L1012.54,369.8L1014.13,369.64L1015.72,370.03L1017.31,369.39L1020.49,367.15L1022.08,367.21L1031.61,360.73L1033.2,358.95L1036.38,356.97L1037.97,354.76L1050.69,343.79L1052.28,341.32L1061.82,329.43L1063.4,326.79L1069.76,321.44L1071.35,318.59L1072.94,318.83L1074.53,316.84L1080.89,316.88L1082.48,317.18L1087.25,317.91L1088.84,318.46L1090.43,319.37L1092.02,319.17L1095.2,317.81L1096.79,317.1L1099.96,315.67L1101.55,314.57L1109.5,312.37L1111.09,312.93L1112.68,313.83L1114.27,313.83L1117.45,316.08L1119.04,316.99L1120.63,319.2L1122.22,320.11L1125.4,322.62L1126.99,323.65L1131.76,327.03L1133.35,327.33L1136.52,330.25L1138.11,330.56L1142.88,333.13L1144.47,333.18L1149.24,333.9L1150.83,335.35L1152.42,335.95L1154.01,337.46L1155.6,338.22L1157.19,339.95L1158.78,340.43L1160.37,342.38L1161.96,343.75L1163.55,342.74L1165.14,342.77L1166.73,341.44L1168.31,339.67L1169.9,339.27L1171.49,336.86L1173.08,335.99L1174.67,336.06L1176.26,335.06L1181.03,332.51L1182.62,329.05L1193.75,311.77L1195.34,310.63L1198.52,308.41L1200.11,309.1L1203.28,308.7L1204.87,308.31L1206.46,307.39L1208.05,309.06L1209.64,307.57L1211.23,309.8L1214.41,310.3L1216,311.48L1217.59,311.37L1219.18,315.12L1220.77,315.58L1222.36,319.88L1223.95,320.16L1225.54,324.4L1228.72,327.61L1230.31,329.48L1231.9,330.29L1233.49,332.18L1235.08,331.54L1236.67,333.31L1250.97,351.31L1252.56,356.08L1254.15,357.86L1255.74,363.07L1257.33,364.84L1258.92,369.22L1260.51,368.83L1262.1,371.93L1263.69,372.46L1265.28,375.23L1266.87,375.12L1268.46,377.33L1271.64,379.55L1273.23,382.65L1277.99,384.66L1279.58,386.88L1282.76,387.96L1284.35,389.9L1289.12,395.01L1290.71,398.08L1295.48,402.89L1297.07,403.94L1298.66,406.56L1300.25,407.14L1303.43,406.58L1305.02,407.78L1308.19,407.81L1309.78,409L1311.37,408.35L1312.96,409.31L1316.14,407.95L1317.73,407.86L1324.09,400.19L1325.68,399.23L1328.86,396.97L1330.45,395.41L1336.81,390.61L1338.4,387.59L1339.99,385.58L1341.57,382.26L1343.16,379.73L1344.75,378.88L1346.34,378.02L1347.93,375.85L1349.52,375.63L1351.11,374.59L1359.06,368.44L1360.65,368.7L1363.83,365.69L1365.42,364.92L1370.19,359.41L1371.78,358.98L1373.37,357.22L1374.96,357.22L1378.13,354.53L1379.72,354.03L1381.31,354.25L1382.9,353.61L1384.49,353.33L1386.08,352.14L1387.67,350.81L1389.26,350.54L1390.85,347.33L1392.44,347.64L1397.21,346.61L1398.8,346.42L1403.57,347.06L1405.16,346.08L1409.93,342.49L1411.52,340.7L1413.1,336.93L1414.69,336.04L1417.87,333.01L1419.46,332.45L1421.05,328.04L1422.64,326.53L1424.23,323.16L1425.82,322.84L1427.41,320.66L1429,322.52" style="vector-effect: none; fill: none; stroke: rgb(0, 204, 150); stroke-opacity: 1; stroke-width: 3px; opacity: 1;"/></g><g class="points"/><g class="text"/></g><g class="trace scatter trace84c375" style="stroke-miterlimit: 2; opacity: 1;"><g class="fills"/><g class="errorbars"/><g class="lines"><path class="js-line" d="M0,392.85L4.77,387.32L6.36,382.9L14.31,368.94L15.9,368.17L17.49,362.95L19.07,360.78L20.66,358.93L22.25,354.9L33.38,330.53L34.97,329.02L36.56,327.75L38.15,317.5L39.74,315.1L41.33,305.51L42.92,304.16L44.51,295.4L46.1,291.04L47.69,283.03L50.87,273.29L52.46,271.28L55.63,243.82L57.22,239.79L60.4,222.13L61.99,215.59L66.76,201.22L68.35,201.48L69.94,196.04L71.53,194.56L73.12,196.9L74.71,195.22L76.3,195.03L77.89,193.7L79.48,194.22L81.07,193.66L87.43,190.49L89.01,195.56L90.6,196.5L92.19,199.3L93.78,197.2L95.37,199.97L96.96,199.98L98.55,202.27L100.14,203.9L101.73,204.4L104.91,211.35L106.5,210.83L109.68,213.73L111.27,213.36L112.86,216.26L114.45,217.55L116.04,218.19L117.63,220.83L119.22,220.73L120.81,223.23L123.98,225.23L125.57,227.14L128.75,227.49L130.34,229.14L131.93,228.69L133.52,229.17L135.11,227.94L136.7,229.96L141.47,239.74L143.06,242.04L144.65,244.83L146.24,249.49L147.83,248.76L149.42,250.62L151.01,253.28L152.6,253.89L154.19,258.09L155.78,259.22L162.13,265.83L163.72,266.84L166.9,268.1L168.49,267.63L170.08,267.32L171.67,270.92L173.26,272.58L174.85,276.72L176.44,280.25L178.03,281.15L179.62,284.75L181.21,284.76L185.98,284.1L187.57,283.37L189.16,280.98L190.75,280.1L192.34,279.52L193.92,277.88L195.51,276.89L197.1,274.38L198.69,273.19L200.28,270.95L201.87,270.67L203.46,273.1L206.64,279.5L208.23,290.09L214.59,307.38L216.18,308.87L217.77,307.93L219.36,308.77L222.54,305.76L224.13,302.14L225.72,298.26L227.31,297.82L230.48,302.54L232.07,303.77L233.66,305.2L235.25,308.34L238.43,313.94L240.02,313.39L241.61,315.27L243.2,315.55L244.79,318.86L246.38,318.67L252.74,327.1L254.33,331.39L257.51,336.24L259.1,342.84L263.86,352.25L265.45,354.18L270.22,361.08L271.81,362.09L273.4,364.01L274.99,363.91L281.35,371.4L282.94,372.04L284.53,374.12L286.12,374.72L289.3,379.6L290.89,385.61L292.48,387.77L294.07,391.41L297.24,401.63L298.83,414.33L300.42,424.04L302.01,461.12L305.19,540.73L306.78,611.65L309.96,648.21L311.55,652.3L314.73,648.81L316.32,635.54L319.5,608.87L321.09,545.27L324.27,457.78L325.86,444.09L327.45,424.58L329.04,418.37L330.63,414.45L332.21,408.45L333.8,405.94L335.39,401.79L336.98,400.41L338.57,398.03L340.16,400.33L341.75,399.3L343.34,398.95L344.93,400.54L346.52,400.37L348.11,402.04L349.7,401.25L351.29,401.56L352.88,400.52L354.47,400.98L359.24,399.12L360.83,398.78L362.42,399.28L364.01,398.62L365.6,398.57L367.18,397.47L371.95,393.35L373.54,393.59L376.72,395.5L378.31,397.52L379.9,399.14L381.49,402.33L384.67,404.25L386.26,404.01L387.85,404.07L389.44,400.13L391.03,398.11L392.62,394.23L397.39,393.1L398.98,394.7L402.15,397.06L403.74,399.33L406.92,401.85L408.51,402.12L411.69,405.16L413.28,410.93L418.05,422.61L419.64,423.99L421.23,426.26L422.82,427.04L427.59,427.35L429.18,428.54L437.12,433.89L438.71,434.97L445.07,441.14L446.66,441.03L448.25,440.65L449.84,438.96L451.43,438.44L453.02,435.62L456.2,433.42L457.79,431.08L459.38,430.03L460.97,427.94L465.74,423.39L467.33,422.2L472.09,411.65L473.68,408.85L475.27,403.8L476.86,401.79L478.45,402.12L480.04,396.31L481.63,392.96L483.22,385.97L484.81,381.55L486.4,374.12L487.99,370.49L489.58,364.01L492.76,356.94L494.35,350.88L495.94,347.82L497.53,338.49L499.12,336.71L500.71,331.21L502.3,329.42L503.89,326.46L507.06,323.39L508.65,323.22L510.24,322.71L511.83,323.58L513.42,323.96L515.01,325.76L516.6,327.34L518.19,327.7L522.96,331.12L524.55,331.68L527.73,331.96L529.32,333.26L534.09,336.35L535.68,335.9L540.44,337.61L542.03,338.87L545.21,342.71L546.8,344.3L553.16,352.87L554.75,354.94L556.34,355.94L557.93,358.92L561.11,359.96L562.7,361.4L564.29,361.51L565.88,362.45L570.65,365.43L572.24,367.25L578.59,368.75L580.18,369.72L591.31,369.28L592.9,368.91L597.67,366.81L599.26,366.34L608.8,366.17L610.38,366.5L619.92,370.42L621.51,371.53L624.69,373.75L626.28,374.77L634.23,378.17L635.82,377.86L645.35,381.19L646.94,381.34L651.71,381.1L653.3,379.98L654.89,379.76L656.48,378.13L659.66,376.27L661.25,376.16L666.02,375.87L667.61,374.9L678.74,371.75L680.32,372.4L683.5,372.11L685.09,372.65L688.27,372.41L689.86,372.84L693.04,373.25L694.63,373.66L697.81,374.08L699.4,373.47L707.35,373.19L708.94,373.46L715.29,374.26L716.88,374.68L720.06,373.99L721.65,374.61L724.83,374.88L726.42,374L729.6,373.46L731.19,373.2L735.96,371.76L737.55,371.45L740.73,371.34L742.32,372.06L750.26,372.88L751.85,373.28L759.8,375.03L761.39,376.2L766.16,377.42L767.75,377.04L774.11,380.32L775.7,380.8L777.29,381.06L778.88,382.41L782.06,382.91L783.65,384.19L788.41,385.71L790,385.59L793.18,386.41L794.77,386.48L799.54,386.6L801.13,387.17L802.72,387.23L804.31,389.4L805.9,389.77L807.49,389.15L810.67,392.96L812.26,392.43L817.03,391.65L818.62,392.05L820.2,391.87L821.79,392.48L832.92,390.77L834.51,389.36L839.28,387.34L840.87,386.63L847.23,384.78L848.82,384.11L852,382.69L853.58,383.38L855.17,382.15L856.76,382.44L859.94,381.45L861.53,381.9L863.12,381.22L864.71,381.39L869.48,380.43L871.07,379.59L875.84,378.39L877.43,377.21L879.02,375.78L880.61,376.22L885.38,374.39L886.97,372.85L890.14,371.57L891.73,369.87L894.91,368.31L896.5,365.86L898.09,363.82L899.68,359.34L902.86,357.56L904.45,355.22L907.63,353.79L909.22,354.59L910.81,354.08L912.4,355.14L917.17,359.15L918.76,361.41L923.52,366.49L925.11,369.05L931.47,373.87L933.06,373.05L934.65,374.37L936.24,373.82L939.42,375.15L941.01,375.62L942.6,375.5L944.19,376.89L945.78,377.58L947.37,376.84L948.96,377.78L950.55,376.5L952.14,377.11L953.73,375.63L956.91,374.7L958.49,376.13L960.08,375.47L961.68,375.83L964.85,375.05L966.44,373.86L969.62,371.07L971.21,369.67L974.39,368.87L975.98,365.12L980.75,361.55L982.34,361.35L985.52,358.85L987.11,358.45L991.88,356.49L993.46,354.57L996.64,350.01L998.23,349.33L1004.59,340.12L1006.18,339.74L1009.36,335.64L1010.95,332.28L1012.54,331.7L1014.13,329.63L1015.72,328.84L1017.31,325.36L1022.08,318.68L1023.66,316.65L1026.85,315.47L1028.43,314.04L1031.61,315.13L1033.2,315.82L1034.79,316.7L1036.38,316.45L1037.97,315.83L1039.56,316.15L1044.33,314.58L1045.92,311.34L1047.51,310.62L1049.1,309L1050.69,307.17L1052.28,306.6L1055.46,302.85L1057.05,301.22L1060.23,299.36L1061.81,298.26L1066.58,295.5L1068.17,294.91L1069.76,295.15L1071.35,293.87L1074.53,291.36L1076.12,289.68L1085.66,284.4L1087.25,285.55L1088.84,285.22L1090.43,285.71L1093.61,283.88L1095.2,282.03L1098.37,279.25L1099.96,277.41L1101.55,276.89L1103.14,278.02L1106.32,278.51L1107.91,281.09L1109.5,281.96L1111.09,283.75L1112.68,285.01L1114.27,287.61L1117.45,289.99L1119.04,293.54L1120.63,295.21L1122.22,299.21L1123.81,300.53L1125.4,304.14L1126.99,305.15L1128.58,307.59L1131.75,310.48L1133.34,313.48L1134.93,314.87L1136.52,317.29L1141.29,322.47L1142.88,324.83L1150.83,331.25L1152.42,331.97L1157.19,336.2L1158.78,337.57L1165.14,343.83L1166.72,344.61L1169.9,347.16L1171.49,347.65L1176.26,349.39L1177.85,349.67L1179.44,350.44L1181.03,350.31L1187.39,349.73L1188.98,349.44L1190.57,348.9L1192.16,349.17L1200.11,351.35L1201.69,351.9L1204.87,353.91L1206.46,354.33L1208.05,355.89L1209.64,356.14L1212.82,356.61L1214.41,358.53L1217.59,359.51L1219.18,360.42L1223.95,362.03L1225.54,363.29L1227.13,366.18L1228.72,367.43L1233.49,374.02L1235.08,377.02L1236.66,379.4L1238.25,383.43L1239.85,384.18L1241.43,389.14L1244.61,391.09L1246.2,391.36L1247.79,391.46L1249.38,394.06L1260.51,401L1262.1,401.67L1265.28,405.48L1266.87,407.02L1271.63,414.15L1273.22,416.18L1274.81,418.21L1276.4,417.81L1277.99,417.16L1279.58,418.8L1281.17,416.39L1282.76,416.56L1285.94,415.68L1287.53,415.82L1290.71,413.36L1292.3,413.38L1293.89,413.8L1295.48,413.27L1297.07,413.02L1298.66,411.75L1300.25,412.19L1301.83,414.25L1303.43,415.28L1305.02,415.2L1308.19,414.4L1309.78,413.08L1311.37,412.54L1312.96,409.66L1314.55,408.99L1316.14,405.97L1324.09,394.73L1325.68,393.61L1327.27,391.3L1328.86,390.42L1332.04,389.34L1333.63,390.38L1335.22,389.56L1336.81,389.94L1339.98,389.08L1341.57,389.76L1343.16,389.64L1344.75,392.08L1346.34,392L1347.93,390.55L1351.11,386.21L1352.7,385.59L1355.88,382.03L1357.47,379.53L1359.06,377.48L1360.65,376.92L1370.19,363.54L1371.78,361.74L1373.37,359.84L1374.96,359.19L1376.54,358.59L1378.13,359.09L1381.31,360.34L1382.9,361.03L1386.08,360.84L1387.67,359.86L1389.26,360.4L1390.85,359.33L1392.44,359.53L1394.03,358.36L1395.62,358.63L1397.21,357.74L1400.39,357.53L1401.98,356.86L1411.51,351.54L1413.1,351.18L1416.28,349.7L1417.87,350.73L1419.46,351.01L1421.05,350.29L1429,349.95" style="vector-effect: none; fill: none; stroke: rgb(171, 99, 250); stroke-opacity: 1; stroke-width: 3px; opacity: 1;"/></g><g class="points"/><g class="text"/></g><g class="trace scatter tracebd8038" style="stroke-miterlimit: 2; opacity: 1;"><g class="fills"/><g class="errorbars"/><g class="lines"><path class="js-line" d="M0,356.43L3.18,355.95L4.77,356.34L9.54,355.31L11.13,354.56L12.72,353.62L14.31,351.76L22.25,342.58L23.84,338.73L27.02,334.83L28.61,330.04L30.2,327.31L31.79,321.99L34.97,313.7L36.56,304.81L42.92,268.66L44.51,255.18L46.1,243.17L47.69,237.19L49.28,229.01L50.87,225.53L58.81,205.71L60.4,198.59L63.58,189.8L65.17,182.47L69.94,163.94L71.53,158.57L76.3,148.23L77.89,147.24L79.48,144.04L81.07,145.36L82.66,143.1L84.25,145.3L85.84,143.27L87.43,145.55L89.02,143.94L90.6,146.66L92.19,144.78L93.78,146.64L98.55,144L100.14,146.21L101.73,147.49L103.32,149.78L106.5,152.76L108.09,150.78L109.68,153.55L111.27,158.9L116.04,172.85L117.63,174.6L123.99,182.82L125.57,185.8L128.75,193.47L130.34,190.96L131.93,193.2L133.52,197.41L135.11,197.15L136.7,199.69L138.29,203.79L139.88,205.39L141.47,208.4L143.06,209.56L147.83,212.08L149.42,212.35L152.6,217.58L154.19,218.83L155.78,223.29L157.37,223.29L158.96,231.54L160.54,227.19L162.13,230.2L163.72,230.65L165.31,254.48L166.9,252.5L168.49,252.67L170.08,261.88L171.67,263.59L173.26,262.76L176.44,265.09L178.03,269L179.62,264.11L181.21,267.56L187.57,273.59L189.16,270.64L190.75,269.02L192.34,268.48L195.51,264.21L197.1,267.01L198.69,263.97L200.28,269.07L203.46,265.21L205.05,265.06L208.23,260.18L209.82,257.84L214.59,255.89L216.18,253.24L222.54,244.97L224.13,241.36L225.72,240.72L227.31,242.83L228.9,242.49L230.48,244.84L243.2,283.25L244.79,286.8L249.56,297.57L251.15,299.01L254.33,302.28L255.92,306.25L259.1,308.32L260.69,306.66L263.87,307.32L265.45,306.18L270.22,297.79L271.81,294.13L273.4,289.98L274.99,289.86L278.17,288.59L279.76,286.2L282.94,283.33L284.53,283.83L289.3,283.1L290.89,282.01L292.48,281.91L294.07,280.49L297.24,277.77L298.83,274.61L303.6,270.69L305.19,270L309.96,270.62L311.55,270.99L319.5,283.8L321.09,285.6L327.45,291.88L329.04,291.85L330.63,293.38L332.22,293.16L333.8,292.82L335.39,294.07L340.16,298.71L341.75,299.08L343.34,299.11L344.93,297.78L346.52,296.9L348.11,297.44L349.7,296.24L351.29,296.18L354.47,295.16L356.06,295.24L359.24,294.29L360.83,295.08L364.01,296.23L365.6,295.71L367.19,296.51L368.77,296.19L371.95,297.65L373.54,298.46L376.72,298.36L378.31,299.26L379.9,298.93L381.49,296.53L386.26,292.43L387.85,292.01L389.44,293.58L391.03,291.1L394.21,288.1L395.8,286.99L397.39,285.76L398.98,285.83L402.16,283.87L403.74,283.77L408.51,280.54L410.1,280.88L414.87,282.59L416.46,283.02L421.23,283.77L422.82,284.79L427.59,285.79L429.18,286.88L435.54,289.77L437.13,289.19L441.89,289.26L443.48,288.21L448.25,287.79L449.84,287.67L451.43,287.2L453.02,287.99L459.38,286.31L460.97,283.74L464.15,279.49L465.74,279.09L473.68,283.54L475.27,285.35L478.45,287.67L480.04,289.46L486.4,291.42L487.99,291.46L497.53,293.31L499.12,293.03L513.42,291.37L515.01,290.3L516.6,290.2L518.19,290.95L519.78,291.28L521.37,292.47L526.14,293.89L527.73,294.27L530.91,297.41L532.5,297.59L534.09,296.82L535.68,297.45L537.27,297.17L538.86,297.76L543.62,300.05L545.21,300.06L549.98,301.92L551.57,301.47L557.93,302.21L559.52,302.66L564.29,304.31L565.88,306.31L570.65,310.64L572.24,311.31L575.41,312.46L577,312.95L580.18,314.23L581.77,314.15L584.95,316.27L586.54,318.06L589.72,320.24L591.31,320.45L594.49,320.4L596.08,320.89L604.03,321.73L605.62,322.25L611.97,324.26L613.56,323.44L615.15,323.55L616.74,322.78L623.1,319.7L624.69,319.15L627.87,318.34L629.46,318.95L631.05,318.99L632.64,320.04L634.23,320.3L635.82,321.99L643.77,325.38L645.36,325.34L654.89,327.24L656.48,326.95L659.66,325.96L661.25,326L669.2,325.31L670.79,326.32L675.56,326.09L677.15,325.14L688.27,322.31L689.86,322.48L693.04,321.75L694.63,322.48L699.4,321.25L700.99,321.25L702.58,321.49L704.17,319.06L708.94,318.99L710.53,317.41L715.3,312.81L716.88,311.99L720.06,309.33L721.65,309.02L724.83,307.8L726.42,307.42L728.01,306.61L729.6,306.68L732.78,303.91L734.37,304.1L737.55,303.45L739.14,303.45L742.32,304.07L743.91,304.69L747.09,305.46L748.68,305.05L750.27,305.39L751.85,306.73L755.03,307.49L756.62,307.29L762.98,307.95L764.57,308.55L767.75,310.48L769.34,311.23L774.11,313.81L775.7,314.67L777.29,315.84L778.88,315.96L783.65,320.69L785.24,321.06L786.82,321.43L788.41,320.83L796.36,316.68L797.95,315.52L801.13,313.5L802.72,312.14L807.49,308.71L809.08,308.12L810.67,309.38L812.26,309.4L813.85,310.3L815.44,309.67L821.79,305.79L823.38,305.32L829.74,304.51L831.33,304.02L832.92,303.92L834.51,302.96L837.69,301.84L839.28,302.43L842.46,303.72L844.05,304.43L852,307.41L853.59,306.76L856.76,306.51L858.35,305.11L863.12,303.23L864.71,301.52L867.89,299.96L869.48,299.65L872.66,298.75L874.25,299.18L879.02,300.1L880.61,300.69L885.38,303.05L886.97,303.51L893.32,305.47L894.91,304.92L898.09,306.05L899.68,306.33L904.45,306.8L906.04,306.81L912.4,308.81L913.99,310.12L915.58,310.96L917.17,312.79L923.52,319.04L925.11,322.67L929.88,330.16L931.47,333.46L933.06,335.06L934.65,338.77L936.24,341.09L937.83,345.32L942.6,356.55L944.19,358.37L945.78,359.31L947.37,359.26L950.55,361.7L952.14,363.4L953.73,365.33L955.32,365.49L956.91,366.16L958.5,365.88L960.08,365.56L961.67,366.06L964.85,364.21L966.44,362.58L969.62,361.69L971.21,361.7L977.57,355.77L979.16,354.99L980.75,355.35L982.34,354.91L988.7,357.02L990.29,356.18L991.88,356.46L993.47,355.36L995.05,354.96L996.64,352.19L998.23,351.92L999.82,346.86L1004.59,338.21L1006.18,337.09L1009.36,332.13L1010.95,330.05L1014.13,325.93L1015.72,322.85L1028.44,298.63L1030.02,297.47L1034.79,292.78L1036.38,290.55L1037.97,289.52L1039.56,286.48L1041.15,286.06L1042.74,283.33L1044.33,283L1045.92,279.44L1047.51,279.53L1049.1,278.15L1052.28,274.23L1053.87,270.52L1055.46,268.02L1057.05,268.49L1058.64,265.29L1060.23,268.22L1061.81,269.42L1063.41,272.79L1066.58,273.84L1068.17,276.88L1071.35,278.98L1072.94,281.16L1074.53,282.38L1076.12,284.98L1080.89,295.29L1082.48,301.13L1085.66,307.74L1087.25,310.57L1088.84,313.22L1090.43,313.13L1096.79,312.72L1098.38,313.06L1099.96,314.59L1101.55,315.08L1104.73,316.41L1106.32,317.18L1109.5,317.44L1111.09,315.41L1114.27,312.62L1115.86,310.29L1119.04,306.2L1120.63,305.11L1122.22,304.43L1123.81,301.95L1125.4,300.73L1126.99,297.84L1128.58,297.69L1130.17,295.49L1134.93,291.6L1136.52,292.16L1139.7,293.63L1141.29,295.15L1142.88,296.62L1144.47,302.29L1146.06,305.69L1147.65,310.99L1152.42,321.29L1154.01,323.54L1157.19,328.79L1158.78,330.79L1160.37,331.66L1161.96,333.7L1166.72,336.85L1168.31,337.38L1171.49,338.71L1173.08,339.88L1174.67,341.34L1176.26,344.19L1181.03,348.33L1182.62,348.53L1184.21,350.38L1185.8,353.42L1187.39,356.02L1188.98,357.16L1193.75,360.13L1195.34,360.74L1196.93,360.73L1198.52,359.53L1200.11,359.6L1201.69,360.44L1203.28,359.64L1204.87,361.77L1206.46,360.85L1208.05,361.24L1209.64,361.02L1211.23,362.37L1212.82,362.22L1214.41,363.77L1216,364.11L1217.59,366.51L1222.36,368.4L1223.95,368.26L1225.54,368.19L1227.13,369.38L1228.72,368.95L1230.31,367.37L1231.9,367.66L1233.49,366.42L1235.08,367.05L1236.67,366.45L1238.25,366.33L1239.84,367.31L1241.43,367.52L1243.02,368.61L1244.61,369.17L1246.2,370.99L1247.79,371.65L1249.38,375.01L1252.56,376.52L1254.15,376.05L1255.74,375.62L1257.33,377.27L1258.92,377.63L1260.51,380.29L1262.1,380.69L1263.69,382.29L1266.87,384.19L1268.46,386.16L1271.64,390.63L1273.22,393.68L1276.4,400.27L1277.99,403.72L1279.58,405.61L1281.17,409.66L1284.35,414.06L1285.94,416.26L1289.12,421.34L1290.71,422.48L1298.66,433.4L1300.25,432.9L1301.84,435.36L1303.43,435.29L1305.02,434.62L1306.61,435.7L1312.96,427.28L1314.55,426.76L1316.14,424.68L1317.73,424.9L1319.32,422.06L1320.91,421.68L1322.5,419.15L1324.09,418.75L1325.68,416.02L1327.27,415.46L1328.86,413.26L1330.45,409.23L1332.04,406.92L1333.63,402.6L1338.4,395.61L1339.99,394.23L1341.58,391.73L1343.16,391.8L1349.52,387.8L1351.11,387.8L1355.88,386.37L1357.47,384.93L1359.06,384.68L1360.65,383.21L1370.19,379.33L1371.78,378.33L1376.55,379.09L1378.13,379.48L1379.72,379.19L1381.31,379.91L1382.9,381.38L1384.49,381.34L1386.08,382L1387.67,381.47L1394.03,379.64L1395.62,379.97L1398.8,383.27L1400.39,387.86L1401.98,389.81L1403.57,397.44L1405.16,402.57L1406.75,419.37L1408.34,430.61L1409.92,447.18L1414.69,585.89L1416.28,606.2L1417.87,629.95L1419.46,637.5L1421.05,642.3L1422.64,650.62L1424.23,652.88L1425.82,656.59L1427.41,657.7L1429,684" style="vector-effect: none; fill: none; stroke: rgb(255, 161, 90); stroke-opacity: 1; stroke-width: 3px; opacity: 1;"/></g><g class="points"/><g class="text"/></g></g></g></g><path class="xlines-above crisp" d="M0,0" style="fill: none;"/><path class="ylines-above crisp" d="M0,0" style="fill: none;"/><g class="overlines-above"/><g class="xaxislayer-above"><g class="xtick"><text text-anchor="middle" x="0" y="841" transform="translate(248.37,0)" style="font-family: 'Open Sans', verdana, arial, sans-serif; font-size: 20px; fill: rgb(42, 63, 95); fill-opacity: 1; white-space: pre; opacity: 1;">2</text></g><g class="xtick"><text text-anchor="middle" x="0" y="841" style="font-family: 'Open Sans', verdana, arial, sans-serif; font-size: 20px; fill: rgb(42, 63, 95); fill-opacity: 1; white-space: pre; opacity: 1;" transform="translate(407.32,0)">4</text></g><g class="xtick"><text text-anchor="middle" x="0" y="841" style="font-family: 'Open Sans', verdana, arial, sans-serif; font-size: 20px; fill: rgb(42, 63, 95); fill-opacity: 1; white-space: pre; opacity: 1;" transform="translate(566.27,0)">6</text></g><g class="xtick"><text text-anchor="middle" x="0" y="841" style="font-family: 'Open Sans', verdana, arial, sans-serif; font-size: 20px; fill: rgb(42, 63, 95); fill-opacity: 1; white-space: pre; opacity: 1;" transform="translate(725.23,0)">8</text></g><g class="xtick"><text text-anchor="middle" x="0" y="841" style="font-family: 'Open Sans', verdana, arial, sans-serif; font-size: 20px; fill: rgb(42, 63, 95); fill-opacity: 1; white-space: pre; opacity: 1;" transform="translate(884.18,0)">10</text></g><g class="xtick"><text text-anchor="middle" x="0" y="841" style="font-family: 'Open Sans', verdana, arial, sans-serif; font-size: 20px; fill: rgb(42, 63, 95); fill-opacity: 1; white-space: pre; opacity: 1;" transform="translate(1043.1399999999999,0)">12</text></g><g class="xtick"><text text-anchor="middle" x="0" y="841" style="font-family: 'Open Sans', verdana, arial, sans-serif; font-size: 20px; fill: rgb(42, 63, 95); fill-opacity: 1; white-space: pre; opacity: 1;" transform="translate(1202.09,0)">14</text></g><g class="xtick"><text text-anchor="middle" x="0" y="841" style="font-family: 'Open Sans', verdana, arial, sans-serif; font-size: 20px; fill: rgb(42, 63, 95); fill-opacity: 1; white-space: pre; opacity: 1;" transform="translate(1361.05,0)">16</text></g><g class="xtick"><text text-anchor="middle" x="0" y="841" style="font-family: 'Open Sans', verdana, arial, sans-serif; font-size: 20px; fill: rgb(42, 63, 95); fill-opacity: 1; white-space: pre; opacity: 1;" transform="translate(1520,0)">18</text></g></g><g class="yaxislayer-above"><g class="ytick"><text text-anchor="end" x="90" y="7" transform="translate(0,711.64)" style="font-family: 'Open Sans', verdana, arial, sans-serif; font-size: 20px; fill: rgb(42, 63, 95); fill-opacity: 1; white-space: pre; opacity: 1;">−0.2</text></g><g class="ytick"><text text-anchor="end" x="90" y="7" style="font-family: 'Open Sans', verdana, arial, sans-serif; font-size: 20px; fill: rgb(42, 63, 95); fill-opacity: 1; white-space: pre; opacity: 1;" transform="translate(0,584.96)">−0.1</text></g><g class="ytick"><text text-anchor="end" x="90" y="7" style="font-family: 'Open Sans', verdana, arial, sans-serif; font-size: 20px; fill: rgb(42, 63, 95); fill-opacity: 1; white-space: pre; opacity: 1;" transform="translate(0,458.28)">0</text></g><g class="ytick"><text text-anchor="end" x="90" y="7" style="font-family: 'Open Sans', verdana, arial, sans-serif; font-size: 20px; fill: rgb(42, 63, 95); fill-opacity: 1; white-space: pre; opacity: 1;" transform="translate(0,331.61)">0.1</text></g><g class="ytick"><text text-anchor="end" x="90" y="7" style="font-family: 'Open Sans', verdana, arial, sans-serif; font-size: 20px; fill: rgb(42, 63, 95); fill-opacity: 1; white-space: pre; opacity: 1;" transform="translate(0,204.93)">0.2</text></g></g><g class="overaxes-above"/></g></g><g class="polarlayer"/><g class="smithlayer"/><g class="ternarylayer"/><g class="geolayer"/><g class="funnelarealayer"/><g class="pielayer"/><g class="iciclelayer"/><g class="treemaplayer"/><g class="sunburstlayer"/><g class="glimages"/><defs id="topdefs-261c13"><g class="clips"/><clipPath id="legend261c13"><rect width="84" height="181" x="0" y="0"/></clipPath></defs><g class="layer-above"><g class="imagelayer"/><g class="shapelayer"/></g><g class="infolayer"><g class="legend" pointer-events="all" transform="translate(252.477,110.08000000000001)"><rect class="bg" shape-rendering="crispEdges" width="84" height="181" x="0" y="0" style="stroke: rgb(68, 68, 68); stroke-opacity: 1; fill: rgb(255, 255, 255); fill-opacity: 1; stroke-width: 0px;"/><g class="scrollbox" transform="" clip-path="url(#legend261c13)"><g class="groups"><g class="traces" transform="translate(0,22.1)" style="opacity: 1;"><text class="legendtext" text-anchor="start" x="40" y="9.360000000000001" style="font-family: 'Open Sans', verdana, arial, sans-serif; font-size: 24px; fill: rgb(42, 63, 95); fill-opacity: 1; white-space: pre;">1m</text><g class="layers" style="opacity: 1;"><g class="legendfill"/><g class="legendlines"><path class="js-line" d="M5,0h30" style="fill: none; stroke: rgb(99, 110, 250); stroke-opacity: 1; stroke-width: 3px;"/></g><g class="legendsymbols"><g class="legendpoints"/></g></g><rect class="legendtoggle" x="0" y="-17.1" width="78.609375" height="34.2" style="fill: rgb(0, 0, 0); fill-opacity: 0;"/></g><g class="traces" transform="translate(0,56.300000000000004)" style="opacity: 1;"><text class="legendtext" text-anchor="start" x="40" y="9.360000000000001" style="font-family: 'Open Sans', verdana, arial, sans-serif; font-size: 24px; fill: rgb(42, 63, 95); fill-opacity: 1; white-space: pre;">2m</text><g class="layers" style="opacity: 1;"><g class="legendfill"/><g class="legendlines"><path class="js-line" d="M5,0h30" style="fill: none; stroke: rgb(239, 85, 59); stroke-opacity: 1; stroke-width: 3px;"/></g><g class="legendsymbols"><g class="legendpoints"/></g></g><rect class="legendtoggle" x="0" y="-17.1" width="78.609375" height="34.2" style="fill: rgb(0, 0, 0); fill-opacity: 0;"/></g><g class="traces" transform="translate(0,90.5)" style="opacity: 1;"><text class="legendtext" text-anchor="start" x="40" y="9.360000000000001" style="font-family: 'Open Sans', verdana, arial, sans-serif; font-size: 24px; fill: rgb(42, 63, 95); fill-opacity: 1; white-space: pre;">3m</text><g class="layers" style="opacity: 1;"><g class="legendfill"/><g class="legendlines"><path class="js-line" d="M5,0h30" style="fill: none; stroke: rgb(0, 204, 150); stroke-opacity: 1; stroke-width: 3px;"/></g><g class="legendsymbols"><g class="legendpoints"/></g></g><rect class="legendtoggle" x="0" y="-17.1" width="78.609375" height="34.2" style="fill: rgb(0, 0, 0); fill-opacity: 0;"/></g><g class="traces" transform="translate(0,124.70000000000002)" style="opacity: 1;"><text class="legendtext" text-anchor="start" x="40" y="9.360000000000001" style="font-family: 'Open Sans', verdana, arial, sans-serif; font-size: 24px; fill: rgb(42, 63, 95); fill-opacity: 1; white-space: pre;">4m</text><g class="layers" style="opacity: 1;"><g class="legendfill"/><g class="legendlines"><path class="js-line" d="M5,0h30" style="fill: none; stroke: rgb(171, 99, 250); stroke-opacity: 1; stroke-width: 3px;"/></g><g class="legendsymbols"><g class="legendpoints"/></g></g><rect class="legendtoggle" x="0" y="-17.1" width="78.609375" height="34.2" style="fill: rgb(0, 0, 0); fill-opacity: 0;"/></g><g class="traces" transform="translate(0,158.9)" style="opacity: 1;"><text class="legendtext" text-anchor="start" x="40" y="9.360000000000001" style="font-family: 'Open Sans', verdana, arial, sans-serif; font-size: 24px; fill: rgb(42, 63, 95); fill-opacity: 1; white-space: pre;">5m</text><g class="layers" style="opacity: 1;"><g class="legendfill"/><g class="legendlines"><path class="js-line" d="M5,0h30" style="fill: none; stroke: rgb(255, 161, 90); stroke-opacity: 1; stroke-width: 3px;"/></g><g class="legendsymbols"><g class="legendpoints"/></g></g><rect class="legendtoggle" x="0" y="-17.1" width="78.609375" height="34.2" style="fill: rgb(0, 0, 0); fill-opacity: 0;"/></g></g></g><rect class="scrollbar" rx="20" ry="3" width="0" height="0" x="0" y="0" style="fill: rgb(128, 139, 164); fill-opacity: 1;"/></g><g class="g-gtitle"><text class="gtitle" x="800" y="50" text-anchor="middle" dy="0.7em" style="opacity: 1; font-family: 'Open Sans', verdana, arial, sans-serif; font-size: 20px; fill: rgb(42, 63, 95); fill-opacity: 1; font-weight: bold; white-space: pre;">Yielding, Front and no eHMI</text></g><g class="g-xtitle"><text class="xtitle" x="805.5" y="873.5" text-anchor="middle" style="opacity: 1; font-family: 'Open Sans', verdana, arial, sans-serif; font-size: 20px; fill: rgb(42, 63, 95); fill-opacity: 1; white-space: pre;">Time (in seconds)</text></g><g class="g-ytitle" transform="translate(0.578125,0)"><text class="ytitle" transform="rotate(-90,19.421875,460)" x="19.421875" y="460" text-anchor="middle" style="opacity: 1; font-family: 'Open Sans', verdana, arial, sans-serif; font-size: 20px; fill: rgb(42, 63, 95); fill-opacity: 1; white-space: pre;">Yaw Angle (in radians)</text></g></g></svg>