<svg class="main-svg" xmlns="http://www.w3.org/2000/svg" xmlns:xlink="http://www.w3.org/1999/xlink" width="4800" height="2700" style="" viewBox="0 0 1600 900"><rect x="0" y="0" width="1600" height="900" style="fill: rgb(255, 255, 255); fill-opacity: 1;"/><defs id="defs-ac81f3"><g class="clips"><clipPath id="clipac81f3xyplot" class="plotclip"><rect width="1429" height="720"/></clipPath><clipPath class="axesclip" id="clipac81f3x"><rect x="91" y="0" width="1429" height="900"/></clipPath><clipPath class="axesclip" id="clipac81f3y"><rect x="0" y="100" width="1600" height="720"/></clipPath><clipPath class="axesclip" id="clipac81f3xy"><rect x="91" y="100" width="1429" height="720"/></clipPath></g><g class="gradients"/><g class="patterns"/></defs><g class="bglayer"><rect class="bg" x="91" y="100" width="1429" height="720" style="fill: rgb(229, 236, 246); fill-opacity: 1; stroke-width: 0;"/></g><g class="layer-below"><g class="imagelayer"/><g class="shapelayer"/></g><g class="cartesianlayer"><g class="subplot xy"><g class="layer-subplot"><g class="shapelayer"/><g class="imagelayer"/></g><g class="minor-gridlayer"><g class="x"/><g class="y"/></g><g class="gridlayer"><g class="x"><path class="xgrid crisp" transform="translate(231.32,0)" d="M0,100v720" style="stroke: rgb(255, 255, 255); stroke-opacity: 1; stroke-width: 1px;"/><path class="xgrid crisp" transform="translate(374.51,0)" d="M0,100v720" style="stroke: rgb(255, 255, 255); stroke-opacity: 1; stroke-width: 1px;"/><path class="xgrid crisp" transform="translate(517.7,0)" d="M0,100v720" style="stroke: rgb(255, 255, 255); stroke-opacity: 1; stroke-width: 1px;"/><path class="xgrid crisp" transform="translate(660.88,0)" d="M0,100v720" style="stroke: rgb(255, 255, 255); stroke-opacity: 1; stroke-width: 1px;"/><path class="xgrid crisp" transform="translate(804.07,0)" d="M0,100v720" style="stroke: rgb(255, 255, 255); stroke-opacity: 1; stroke-width: 1px;"/><path class="xgrid crisp" transform="translate(947.25,0)" d="M0,100v720" style="stroke: rgb(255, 255, 255); stroke-opacity: 1; stroke-width: 1px;"/><path class="xgrid crisp" transform="translate(1090.44,0)" d="M0,100v720" style="stroke: rgb(255, 255, 255); stroke-opacity: 1; stroke-width: 1px;"/><path class="xgrid crisp" transform="translate(1233.63,0)" d="M0,100v720" style="stroke: rgb(255, 255, 255); stroke-opacity: 1; stroke-width: 1px;"/><path class="xgrid crisp" transform="translate(1376.81,0)" d="M0,100v720" style="stroke: rgb(255, 255, 255); stroke-opacity: 1; stroke-width: 1px;"/></g><g class="y"><path class="ygrid crisp" transform="translate(0,805.12)" d="M91,0h1429" style="stroke: rgb(255, 255, 255); stroke-opacity: 1; stroke-width: 1px;"/><path class="ygrid crisp" transform="translate(0,700.95)" d="M91,0h1429" style="stroke: rgb(255, 255, 255); stroke-opacity: 1; stroke-width: 1px;"/><path class="ygrid crisp" transform="translate(0,492.61)" d="M91,0h1429" style="stroke: rgb(255, 255, 255); stroke-opacity: 1; stroke-width: 1px;"/><path class="ygrid crisp" transform="translate(0,388.43)" d="M91,0h1429" style="stroke: rgb(255, 255, 255); stroke-opacity: 1; stroke-width: 1px;"/><path class="ygrid crisp" transform="translate(0,284.26)" d="M91,0h1429" style="stroke: rgb(255, 255, 255); stroke-opacity: 1; stroke-width: 1px;"/><path class="ygrid crisp" transform="translate(0,180.09)" d="M91,0h1429" style="stroke: rgb(255, 255, 255); stroke-opacity: 1; stroke-width: 1px;"/></g></g><g class="zerolinelayer"><path class="yzl zl crisp" transform="translate(0,596.78)" d="M91,0h1429" style="stroke: rgb(255, 255, 255); stroke-opacity: 1; stroke-width: 2px;"/></g><g class="layer-between"><g class="shapelayer"/><g class="imagelayer"/></g><path class="xlines-below"/><path class="ylines-below"/><g class="overlines-below"/><g class="xaxislayer-below"/><g class="yaxislayer-below"/><g class="overaxes-below"/><g class="overplot"><g class="xy" transform="translate(91,100)" clip-path="url(#clipac81f3xyplot)"><g class="scatterlayer mlayer"><g class="trace scatter traceadfbcb" style="stroke-miterlimit: 2; opacity: 1;"><g class="fills"/><g class="errorbars"/><g class="lines"><path class="js-line" d="M0,495.2L5.73,494.26L8.59,493.62L20.05,490.34L22.91,489.14L25.78,488.44L28.64,486.93L31.5,486.74L34.37,485.07L40.09,483.76L42.96,481.07L45.82,480.99L48.68,478.14L51.55,476.54L54.41,471.66L60.14,464.77L63,459.7L71.59,448.01L74.46,442.15L77.32,431.82L80.19,429.46L85.91,418.32L88.78,409.53L91.64,406.69L94.5,398.91L100.23,390.38L103.1,389.5L105.96,388.65L108.82,384.35L111.69,387.21L114.55,386.65L117.41,389.75L120.28,388.84L126.01,390.53L128.87,389.89L134.6,383.2L137.46,382.72L140.32,380.66L143.19,374.01L148.92,368.41L151.78,370.68L154.64,362.62L157.51,362.25L160.37,369.3L163.24,361.77L166.1,365.75L168.96,366.91L171.82,367.1L174.69,368.42L177.55,366.49L180.42,368.58L183.28,371.33L186.14,376.67L189.01,369.31L191.87,369.16L194.73,362.78L197.6,361.92L200.46,354.08L203.33,349.79L206.19,343.51L209.05,328.19L211.92,319.69L214.78,306.11L217.65,297.05L220.51,273.42L223.37,260.53L226.23,230.41L231.96,191.13L234.83,160.98L246.28,87.69L249.15,75.78L252.01,59.82L254.87,51.91L257.74,44.43L260.6,41.08L263.46,36L266.33,41.77L269.19,43.55L272.06,76.58L274.92,118.49L277.78,186.54L280.64,201.69L283.51,210.42L286.37,220.73L289.24,225.6L294.96,236.25L297.83,248.16L300.69,258.84L303.56,280.49L306.42,292.27L309.28,320.34L312.15,335.98L315.01,358.9L317.87,373.05L320.74,392.07L326.47,412.57L329.33,421.98L343.65,468.53L346.51,479.23L349.38,487.47L352.24,501.77L363.7,564.03L366.56,573.53L369.42,583.84L372.28,589.98L375.15,595.71L378.01,596.93L380.88,600.9L383.74,602.33L392.33,616.91L395.2,623.83L398.06,625.15L400.92,627.76L403.79,628.13L406.65,632.87L409.51,631.92L412.38,633.73L415.24,633.74L418.11,634.88L423.83,635.96L426.7,639.78L429.56,643.36L432.42,642.4L438.15,638.8L441.01,637.21L443.88,636.42L446.74,634.28L449.61,631.61L452.47,630.74L455.33,629.25L458.2,624.69L461.06,624.08L463.93,621.17L469.65,618.78L472.52,616.43L475.38,614.64L478.24,611.07L481.11,609.82L483.97,606.26L489.7,599.77L492.56,594.34L495.42,590.93L498.29,584.28L501.15,580.15L504.02,572.64L506.88,568.04L509.74,565.1L512.61,559.61L515.47,557.51L518.34,551.42L521.2,548.92L524.06,543.28L526.93,541.14L529.79,536.86L532.65,534.24L535.52,533.02L538.38,530.49L541.25,529.73L544.11,527.52L549.84,524.67L552.7,525.22L558.43,526.54L561.29,527.95L567.02,533.24L569.88,539.26L572.75,543.39L575.61,553.08L584.2,572.63L587.06,575.31L589.93,576.27L592.79,575.71L598.52,570.39L601.38,567.05L604.25,563.93L607.11,562.22L609.98,557.29L612.84,556.5L618.57,550.29L621.43,550.73L624.29,548.13L627.16,544.36L630.02,542.7L632.88,542.44L638.61,536.54L641.48,537.58L650.07,534.67L652.93,534.98L655.79,534.91L658.66,536.11L661.52,536.93L664.39,536.57L670.11,541.81L672.98,541.12L675.84,545.1L678.7,544.86L681.57,547.48L684.43,548.65L687.3,552.62L690.16,554.86L693.02,555.52L695.89,559.79L701.61,566.34L704.48,566.27L707.34,569.05L710.2,569.93L715.93,569.4L718.8,568.28L721.66,566.97L724.52,567.22L730.25,565.54L733.12,565.43L738.84,567.1L741.71,567.25L744.57,567.64L747.43,566.99L756.03,563.28L758.89,562.7L761.75,561.01L764.61,560.26L767.48,560.12L770.34,559.22L773.21,556.37L776.07,555.3L778.94,554.82L781.8,558.81L784.66,560.17L787.53,563.52L790.39,563.5L793.25,565.37L801.84,563.27L804.71,561.58L807.57,559.11L810.44,558.46L816.16,553.01L819.03,549.27L824.76,545.22L827.62,541.92L830.48,541.71L833.35,544.03L836.21,546.44L839.07,551.83L841.94,554.63L844.8,558.64L856.25,564.88L859.12,568.15L867.71,572.11L870.57,572.74L879.17,569.06L882.03,566.85L884.89,562.75L887.75,560.74L890.62,558.82L893.48,555.26L896.35,553.45L899.21,549.8L902.07,548.41L904.94,546.06L910.67,544.63L913.53,546.23L919.26,546.74L922.12,546.74L930.71,545.53L933.58,545.5L939.3,545.44L942.17,545.39L945.03,546.79L947.89,546.61L962.21,551.46L965.08,552.78L967.94,553.22L970.81,552.61L973.67,551.9L976.53,552.49L990.85,554.66L993.71,554.8L1019.49,551.61L1022.35,550.75L1025.22,550.79L1028.08,550.07L1033.81,550.7L1036.67,550.96L1045.26,550.8L1048.13,551.84L1073.9,552.65L1076.76,553.42L1079.63,553.52L1082.49,554.64L1105.4,556.76L1108.26,558.04L1111.13,558.66L1113.99,560.16L1122.58,560.72L1125.45,560.96L1136.9,563.78L1139.76,564.98L1156.95,570.82L1159.81,571.19L1165.54,570.87L1168.4,570.72L1171.27,571.22L1174.13,570.38L1176.99,570.93L1179.86,570.05L1188.45,570.96L1191.31,570.9L1197.04,571.44L1199.9,571.31L1202.77,571.4L1205.63,569.89L1211.36,568.82L1214.22,568.19L1217.08,568.17L1219.95,567.01L1225.68,566.51L1228.54,566.99L1231.4,567.32L1234.27,566.52L1239.99,565.8L1242.86,565.74L1245.72,565.98L1248.59,564.94L1254.31,565.18L1257.18,563.97L1260.04,563.4L1262.9,561.37L1268.63,559.63L1271.5,559.99L1282.95,559.96L1285.81,561.42L1288.68,561.61L1291.54,562.97L1297.27,564.59L1300.13,566.37L1305.86,568.16L1308.73,568.35L1314.45,570.8L1317.31,571.42L1323.04,571.55L1325.91,572.39L1328.77,572.47L1331.63,574.18L1348.82,579.67L1351.68,579.18L1357.41,579.47L1360.27,581.82L1371.72,579.89L1374.59,580.82L1380.32,583.69L1383.18,583.96L1388.91,587.08L1391.77,590.26L1394.64,591.26L1397.5,590.94L1403.23,589.77L1406.09,591L1411.82,592.2L1414.68,591.43L1423.27,592.59L1426.13,592.53L1429,590.51" style="vector-effect: none; fill: none; stroke: rgb(99, 110, 250); stroke-opacity: 1; stroke-width: 3px; opacity: 1;"/></g><g class="points"/><g class="text"/></g><g class="trace scatter tracec82a48" style="stroke-miterlimit: 2; opacity: 1;"><g class="fills"/><g class="errorbars"/><g class="lines"><path class="js-line" d="M0,501.2L2.86,501.5L5.73,500.94L11.46,502.11L14.32,501.47L20.05,498.34L22.91,498.93L25.78,498.47L28.64,496.83L31.5,494.52L34.37,497.11L40.09,494.17L42.96,493.35L45.82,485.05L48.69,482.79L51.55,481.38L54.41,476.73L57.27,471.19L60.14,462.83L63.01,459.69L65.87,451.35L71.59,441.77L74.46,438.71L77.32,424.99L80.19,418.9L83.05,411.54L85.91,407.34L88.78,402.13L91.64,400.04L94.5,397.27L97.37,391.53L100.23,391.56L103.09,388.16L105.96,377.87L108.82,374.34L111.69,369.71L114.55,367.1L117.42,363.53L120.28,361.6L123.14,360.56L126.01,361.48L128.87,364.68L131.73,365.61L134.6,370.21L137.46,370.61L140.32,370.89L143.19,372.72L146.05,373.09L148.91,376.19L151.78,378.58L154.64,382.23L157.51,382.15L160.37,380.23L163.23,385.24L166.1,386.13L168.96,380.63L171.82,381.23L174.69,380.25L177.55,364.95L180.41,360.19L183.28,365.2L186.14,372.75L189.01,377.4L194.73,393.5L197.6,392.24L200.46,388.74L203.32,386.75L206.19,380.54L209.05,372.14L211.92,372.08L214.78,369.8L220.51,365.38L223.37,365.77L226.24,365.33L229.1,366.37L231.96,369.18L234.82,375.57L243.42,385.6L246.28,388.17L249.15,393.12L252.01,394.53L254.87,398.89L257.74,400.65L260.6,405.28L263.46,407.59L266.33,408.79L269.19,411.14L272.05,414.93L274.92,421.62L277.78,422.86L280.65,428.53L286.37,437.61L289.24,447.46L292.1,453.69L294.97,463.92L297.83,471.95L300.69,484.12L306.42,498.24L309.28,500.27L315.01,504.63L317.87,504.92L320.74,501.1L323.6,501.39L326.47,503.06L329.33,502.7L332.2,500.44L335.06,504.29L337.92,507.58L340.78,507.39L343.65,513.24L346.51,514.81L352.24,528.18L355.1,533.53L357.97,539.54L360.83,541.8L363.69,542.1L366.56,538.85L372.28,533.12L375.15,534.18L378.01,534.44L380.88,536.16L383.74,540.28L386.6,542.85L389.47,545.53L392.33,547.13L395.19,550.22L398.06,551.4L400.92,550.33L403.79,553.01L409.51,549.99L412.38,545.4L420.97,536.43L423.83,535.37L429.56,521.11L432.42,517.95L441.01,502.9L443.88,501.34L446.74,498.97L449.6,498.52L452.47,498.78L455.33,497.78L458.2,497.25L461.06,495.64L463.93,495.08L466.79,491.54L472.52,490.36L475.38,497.06L478.24,483.77L481.11,491.67L483.97,493.18L486.83,493.25L489.7,491.28L492.56,490.38L495.43,484.2L498.29,481.11L506.88,470.74L509.75,473.07L512.61,474.36L515.47,477.48L521.2,483.93L524.06,483.42L526.93,483.03L529.79,484.97L532.65,487.04L535.52,490.12L538.38,485.6L541.24,490.69L546.97,490.93L549.84,492.39L558.43,495.38L561.29,498.66L564.16,502.2L567.02,502.26L572.75,509.71L575.61,509.54L581.34,516.43L584.2,517.83L589.93,518.57L592.79,517.23L595.65,519.44L598.52,519.27L601.38,517L604.25,518.35L607.11,521.46L609.97,522.89L618.57,526.44L621.43,525L630.02,523.15L632.88,522.01L641.48,518.93L644.34,516.55L650.07,514.35L652.93,514.01L655.79,512.23L658.66,513.19L661.52,514.24L664.38,514.19L670.11,513.36L672.98,511.75L684.43,511.16L687.3,510.65L690.16,510.69L693.02,511.58L698.75,511.32L701.61,512.85L704.48,512.6L707.34,513.79L710.21,513.73L713.07,514.53L718.8,515.08L721.66,519.82L724.53,519.4L727.39,521.05L733.12,523L735.98,523.92L738.84,523.94L741.71,525.17L744.57,524.51L747.43,525.47L753.16,524.84L756.02,525.62L758.89,525.7L761.75,524.21L764.62,522.9L767.48,523.71L770.34,525.16L773.21,524.58L778.94,525.28L781.8,524.51L787.53,525.41L790.39,526.34L793.25,529.63L796.12,530.6L798.98,532.45L801.84,533.4L804.71,534.28L807.57,533.94L810.43,533L813.3,530.51L819.02,529.27L821.89,524.41L827.62,521.52L830.48,521.13L833.35,522.35L836.21,521.81L841.94,518.81L844.8,520.4L847.66,520.21L850.53,521.79L853.39,522.73L856.25,522.45L859.12,523.75L861.98,523.43L864.85,523.59L867.71,522.82L870.57,523.28L873.44,520.34L876.3,519.14L879.16,518.83L882.03,512.85L884.89,510.56L887.76,508.16L890.62,506.86L896.35,505.97L899.21,505.33L902.07,504.76L904.94,505.84L910.67,506.92L913.53,506.6L919.26,508.4L922.12,510.46L927.85,511.54L930.71,511.68L936.44,512.34L939.3,514.42L942.17,514.89L945.03,516.13L950.76,516.89L953.62,518.24L959.35,519.23L962.21,518.9L967.94,520.22L970.8,521.57L976.53,524.87L979.4,524.99L985.12,527.7L987.99,527.97L1008.03,525.81L1010.9,523.88L1013.76,522.46L1016.62,521.95L1028.08,521.57L1030.94,522.98L1033.8,523.03L1036.67,524.11L1042.4,524.86L1045.26,525.26L1050.99,523.91L1053.85,522.16L1056.72,521.48L1059.58,519.27L1065.31,517.43L1068.17,515.34L1071.03,514.57L1073.9,512.3L1076.76,512.07L1079.63,510.69L1082.49,510.41L1085.35,509.1L1091.08,508.69L1093.94,506.93L1102.53,503.66L1105.4,501.55L1113.99,498.25L1116.85,497.43L1119.72,495.12L1122.58,494.61L1125.45,492.91L1128.31,492.83L1134.04,492.92L1136.9,493.25L1142.63,493.44L1145.49,494.59L1148.35,495.05L1151.22,497.33L1154.08,498.92L1156.95,501.58L1165.54,510.03L1168.4,513.01L1171.27,517.1L1174.13,519.73L1182.72,525.62L1185.58,527.54L1197.04,536.74L1199.9,537.27L1202.76,539.49L1205.63,540.06L1211.36,541.68L1214.22,542L1217.08,542.72L1219.95,542.42L1222.81,544.2L1225.68,544.01L1228.54,545.97L1231.4,545.28L1242.86,549.92L1245.72,550.48L1251.45,553.31L1254.31,555.56L1265.77,560.16L1268.63,561.61L1280.09,562.48L1282.95,560.69L1288.68,559.25L1291.54,559.85L1294.4,560.56L1297.27,559.6L1305.86,558.81L1308.72,559.58L1314.45,559.19L1317.31,557.54L1323.04,557.59L1325.9,557.22L1334.5,558.58L1337.36,557L1343.09,556.72L1345.95,553.52L1351.68,551.4L1354.54,551.12L1357.41,551.3L1360.27,552.54L1363.13,550.83L1366,550.31L1371.73,548.93L1374.59,546.05L1380.31,545.86L1383.18,543.93L1386.05,544.08L1388.91,542.42L1391.77,541.71L1394.64,540.13L1397.5,539.19L1400.36,540.11L1403.23,539.5L1406.09,536.18L1408.95,534.88L1411.82,534.44L1420.41,531.91L1423.27,531.48L1429,529.59" style="vector-effect: none; fill: none; stroke: rgb(239, 85, 59); stroke-opacity: 1; stroke-width: 3px; opacity: 1;"/></g><g class="points"/><g class="text"/></g><g class="trace scatter trace0dbbed" style="stroke-miterlimit: 2; opacity: 1;"><g class="fills"/><g class="errorbars"/><g class="lines"><path class="js-line" d="M0,502.31L5.73,501.37L8.59,500.14L20.05,500.47L22.91,500.18L28.64,498.94L31.5,498.36L34.36,497.69L37.23,496.09L40.09,497.32L42.96,494.22L48.68,492.43L51.55,490.74L54.41,490.3L57.28,488.05L60.14,486.98L63,482.79L65.87,478.82L68.73,477.82L71.59,471.79L74.46,471.38L77.32,466.68L80.19,465.23L85.91,458.64L88.78,458.62L91.64,454.52L94.5,452.98L97.37,451.11L100.23,454.41L103.1,444.28L105.96,442.29L108.82,438.69L111.69,437.36L117.42,431.22L120.28,427.56L128.87,417.35L131.73,408.87L137.46,393.92L140.32,385.96L148.91,368.5L151.78,366.59L157.51,362.57L160.37,357.61L166.1,354.87L168.96,352.98L171.83,351.95L174.69,352.22L177.55,351.71L180.42,348.44L183.28,344.87L186.14,343.5L191.87,339.14L194.73,338.24L197.6,334.48L200.46,334.3L203.32,333.05L206.19,333.81L211.92,329.61L214.78,331.59L217.65,331.2L220.51,337.37L226.24,343.99L229.1,345.96L234.83,342.15L237.69,332.08L240.55,328.23L243.42,318.95L249.14,312.31L252.01,311L254.87,311.47L257.74,310.83L266.33,320.6L269.19,328.37L272.06,334.97L274.92,339.4L280.65,352.25L283.51,354.44L292.1,348.38L294.97,338.95L300.69,331.37L303.56,332.31L306.42,329.17L309.28,329.41L312.15,327.65L315.01,329.7L317.88,332.06L320.74,336.02L323.6,339.99L326.47,341.64L329.33,346.28L332.19,346.59L335.06,348.28L337.92,345.71L340.78,356.73L343.65,358.47L346.51,357.71L349.38,360.97L352.24,361.87L355.1,366.53L357.97,365.1L360.83,367.41L363.69,363.89L366.56,363.72L369.42,369.17L372.29,365.98L375.15,369.71L378.01,370.23L380.88,373L383.74,373.24L389.47,377.47L392.33,380.87L395.2,381.63L398.06,385.72L400.92,391.1L403.79,399.79L406.65,404.98L409.51,415.48L412.38,418.31L415.24,422.85L418.1,431.36L420.97,437.03L423.83,442.89L426.7,445.2L429.56,449.33L432.42,450.09L435.29,451.65L438.15,452.09L441.02,452.97L443.88,452.31L446.74,452.11L449.61,452.95L458.2,455.89L461.06,456.76L463.92,460.22L466.79,462.04L469.65,463.35L472.52,466.14L478.24,467.59L481.1,470.29L486.84,470.74L489.7,472.58L492.56,474.31L495.42,473.95L501.15,477.32L504.02,477.34L506.88,477.39L509.75,478.78L512.61,480.18L515.47,487.92L518.33,491.25L521.2,498.84L524.06,502.32L526.93,514.56L529.79,519.47L532.65,522.44L535.52,522.18L538.38,526.2L541.25,528.1L544.11,531.44L549.84,536.59L552.7,541.76L558.43,540.72L561.29,539.09L564.16,539.51L567.02,538.75L569.88,540.15L572.75,542.71L575.61,534.47L578.47,536.63L581.34,535L584.2,526.67L587.06,527.27L589.93,513.41L592.79,512.47L595.66,512.35L598.52,492.51L601.39,491.29L604.25,459.73L607.11,461.47L609.97,461.22L612.84,430.34L615.7,430.11L618.57,402.05L624.29,402.88L627.16,380.48L632.88,381.84L635.75,372.47L638.61,374.2L641.48,374.48L644.34,375.12L647.2,380.77L652.93,381.68L655.8,382.16L658.66,398.78L661.52,398.34L664.39,440.66L667.25,441.45L670.11,443.11L672.98,505.72L678.7,515.16L681.57,559.85L687.29,564.37L690.16,582.26L693.02,577.5L695.88,575.46L698.75,586.96L701.61,587.88L704.48,592.25L707.34,593.36L713.07,596.05L715.93,595.54L721.66,596.96L724.52,599.37L730.25,602.76L733.11,605.02L738.84,606.39L741.71,603.61L747.43,600.41L750.3,600.51L758.89,592.37L761.75,582.59L767.48,574.65L770.34,566.68L776.07,556.17L778.94,554.11L781.8,551.62L784.66,546.2L793.25,534.63L796.12,532.27L801.84,529.92L804.71,526.93L813.3,524.42L816.17,523.09L819.03,521.09L821.89,516.98L824.75,515.43L827.62,512.1L833.35,508.09L836.21,506.37L839.07,505.23L841.94,505.14L844.8,505.5L847.66,505.01L853.39,503.23L856.25,503.22L861.98,504.03L864.84,503.36L870.58,503.07L873.44,503.96L882.03,507.81L884.89,508.34L887.76,509.76L890.62,510.04L899.21,513.43L902.07,515.46L913.53,522.03L916.39,522.73L922.12,524.66L924.98,524.87L930.71,525.84L933.58,526.3L942.17,528.53L945.03,529.73L947.89,528.74L950.76,529.13L956.49,530.32L959.35,531.11L965.07,533L967.94,533.01L976.53,533.64L979.4,534.68L987.99,535.77L990.85,536.32L1002.3,537.61L1005.17,536.78L1019.49,535.76L1022.35,535.06L1028.08,534.17L1030.94,533.23L1039.53,530.14L1042.4,529.9L1062.44,528.59L1065.31,527.93L1068.17,528.42L1071.03,527.56L1073.9,527.52L1076.76,526.46L1082.49,525.81L1085.36,524.41L1102.54,520.96L1105.4,521.48L1108.26,521.52L1111.13,520.49L1128.31,519.77L1131.17,520.75L1145.49,521.24L1148.36,520.84L1151.22,519.26L1154.08,519.71L1159.81,523.75L1162.67,524.12L1168.4,527.71L1171.26,527.32L1174.13,527.75L1176.99,527.23L1185.59,533.65L1188.45,536.22L1191.31,538.46L1194.17,543.27L1197.04,546.36L1199.9,548.25L1208.49,551.81L1211.36,553.27L1214.22,555.52L1217.08,556.73L1222.81,565.56L1225.68,574.53L1231.4,584.63L1234.27,595.76L1237.13,601.47L1239.99,614.26L1242.86,621.76L1245.72,636.7L1248.59,642.73L1251.45,655.74L1254.31,663.82L1257.18,667.65L1260.04,674.09L1262.91,677.32L1268.63,684L1271.49,677.5L1274.36,670.23L1277.22,641.59L1282.95,596.37L1285.81,564.41L1291.54,551.55L1294.4,552.73L1297.27,552.38L1300.13,555.37L1303,557.03L1305.86,560.06L1311.59,561.77L1314.45,562.02L1320.18,564.79L1323.04,565.01L1325.91,568.22L1328.77,569.71L1331.63,570.67L1334.5,573.4L1343.09,579.86L1345.95,580.64L1348.81,583.43L1351.68,584.05L1354.54,585.95L1357.41,586.21L1360.27,587.68L1363.14,587.2L1366,587.07L1368.86,588.44L1371.73,588.46L1374.59,587.37L1377.45,585.66L1380.32,585.62L1383.18,581.45L1386.04,579.49L1388.91,574.87L1391.77,571.75L1394.63,567.76L1397.5,566.52L1400.36,560.4L1403.23,558.89L1406.09,558.24L1408.95,558.79L1411.82,559.4L1414.68,555.9L1420.41,554.47L1423.27,554.87L1426.14,554.22L1429,550.4" style="vector-effect: none; fill: none; stroke: rgb(0, 204, 150); stroke-opacity: 1; stroke-width: 3px; opacity: 1;"/></g><g class="points"/><g class="text"/></g><g class="trace scatter tracef7fab6" style="stroke-miterlimit: 2; opacity: 1;"><g class="fills"/><g class="errorbars"/><g class="lines"><path class="js-line" d="M0,515.06L14.32,512.64L17.18,511.56L20.05,510.6L22.91,508.68L25.77,507.3L28.64,504.78L31.5,502.78L34.37,497.11L37.23,494.15L40.09,490.04L42.96,482L45.82,476.34L51.55,461.78L54.41,454.76L63,438.24L65.87,428.43L71.59,411.42L74.46,403.94L77.32,396.18L80.18,391.06L83.05,379.79L85.91,375.22L88.78,368.9L91.64,365.52L94.5,354.77L97.37,351.79L100.23,348.44L103.1,341.77L105.96,340.36L108.82,337.34L114.55,333.38L117.41,332.72L120.28,333.1L123.14,330.14L126,328.75L128.87,324.7L131.73,325.65L134.59,325.73L137.46,328.45L140.32,333.84L143.19,332.62L146.05,336.02L151.78,330.89L154.64,331.85L157.51,333.96L160.37,337.86L163.23,340.38L166.1,348.68L168.96,350.07L171.82,357.51L174.69,359.92L177.55,363.61L180.42,364.29L183.28,364.01L186.14,364.19L189.01,360.75L191.87,360.06L194.73,358.23L200.46,352.07L203.32,350.77L206.19,349.76L209.05,346.49L211.92,342.81L214.78,335.37L217.65,333.52L220.51,328.59L223.37,324.74L226.23,323.82L229.1,324.53L231.96,323.82L237.69,315.66L240.55,315.12L246.28,306.19L249.14,304.14L252.01,298.7L254.87,296.95L260.6,290.17L263.46,285.51L266.33,278.88L269.19,276.32L277.78,259.6L280.65,258.59L283.51,255.92L286.37,255.18L289.24,258.79L292.1,259.66L294.96,264.34L297.83,260.13L300.69,255L303.56,257.72L306.42,259.13L309.28,255.47L312.15,251.86L315.01,250.84L320.74,248.09L323.6,244.92L329.33,239.87L332.19,239.32L335.06,239.04L337.92,237.48L340.78,236.68L343.65,233.41L349.37,230.31L352.24,230.47L360.83,234.69L363.69,233.98L366.56,235.59L369.42,240L375.15,248.74L378.01,251.44L380.88,252.07L383.74,253.92L389.47,253.96L392.33,252.6L395.2,251.03L398.06,251.55L400.92,249.57L403.78,250.77L409.51,249.23L412.38,250.39L415.24,249.33L418.1,250.29L420.97,251.56L423.83,254.38L432.42,261.42L435.29,265.12L438.15,267.66L441.01,272.87L443.88,277.5L446.74,284.5L449.61,288.02L452.47,299.26L458.2,310.08L461.06,316.89L463.92,321.74L466.79,330.86L469.65,335.2L472.52,343.1L475.38,345.99L478.24,350.87L481.11,356.16L483.97,359.61L486.83,370.51L489.7,375.1L492.56,386.11L495.43,390.86L498.29,394.33L501.15,395.67L504.02,386.39L506.88,389.29L512.61,400.38L515.47,402.75L524.06,410.05L526.93,409.42L529.79,409.46L532.65,413.22L544.11,415.39L546.97,412.72L549.84,411.29L552.7,408.37L561.29,402.47L564.15,402.94L569.88,402.74L572.75,402.88L578.47,401.7L581.34,403.07L584.2,401.31L587.06,401.04L589.93,397.18L592.79,395.59L601.38,377.89L604.25,370.55L609.97,357.09L612.84,353.38L615.7,350.34L618.56,348.73L621.43,348.62L624.29,350.1L627.16,350.37L630.02,347.59L644.34,344.75L647.2,346L650.06,346.71L652.93,349.7L655.79,355.3L658.66,358.4L661.52,365.25L664.39,368.74L667.25,377.16L670.11,380.71L672.98,387.7L675.84,389.47L678.7,391.66L681.57,395.63L684.43,397L687.29,400.63L690.16,402.06L693.02,405.23L698.75,408.74L701.61,410.84L704.48,412.1L707.34,414.27L713.07,416.88L715.93,420.87L718.8,420.82L721.66,421.8L724.52,422.72L727.39,422.68L730.25,423.96L733.11,423.57L735.98,424.2L738.84,425.88L747.43,429.85L750.3,431.75L753.16,435.09L756.02,436.41L761.75,439.33L764.62,439.53L767.48,439.56L770.34,440.38L776.07,442.37L778.93,444.72L781.8,445.16L784.66,446.92L793.25,449.04L796.11,449.23L801.84,447.75L804.71,445.76L807.57,445.63L810.43,443.75L813.3,444.01L816.16,445.81L819.03,446.8L821.89,449.74L833.34,464.66L836.21,465.43L844.8,469.3L847.66,475.02L850.53,475.91L853.39,478.37L859.12,481.03L861.98,481.55L867.71,483.35L870.57,482.47L876.3,479.64L879.17,477.16L882.03,473.9L884.89,472.28L887.76,469.99L890.62,470.17L899.21,467.86L902.07,465.87L910.67,466.93L913.53,467.03L919.26,469.38L922.12,469.2L927.85,471.82L930.71,473.22L936.44,478.28L939.3,479.48L945.03,484L947.89,485.74L950.76,485.7L953.62,486.98L967.94,486.58L970.8,487.25L976.53,488.4L979.4,488.76L985.12,488.46L987.99,488.08L999.44,485.24L1002.3,485.22L1008.03,485.17L1010.89,485.27L1028.08,487.16L1030.94,487.83L1036.67,490.03L1039.53,491.13L1045.26,492.51L1048.12,492.95L1053.85,492.9L1056.72,492.29L1065.3,490.42L1068.17,489.93L1073.9,488.29L1076.76,485.77L1082.49,484.19L1085.35,481.35L1088.22,479.8L1091.08,477.2L1093.94,475.9L1096.81,472.51L1099.67,471.34L1102.53,467.84L1105.4,466.36L1108.26,461.88L1113.99,453.35L1116.85,450.17L1119.72,447.31L1122.58,442.58L1125.45,440.07L1128.31,433.2L1131.17,431.24L1134.04,427.29L1139.76,414.6L1142.63,400.9L1145.49,390.87L1148.36,373.22L1151.22,365.72L1154.08,347.33L1159.81,333.07L1162.67,319.73L1165.54,315.1L1168.4,308.15L1171.26,305.76L1174.13,300.35L1176.99,299.8L1179.86,298.1L1191.31,295.82L1194.17,294.19L1197.04,295.08L1199.9,295.09L1202.77,295.82L1205.63,294.84L1211.36,295.34L1214.22,295.31L1217.08,295.63L1219.95,294.79L1222.81,296.01L1225.67,296.22L1228.54,297.92L1231.4,298.51L1239.99,302.07L1242.86,304.99L1245.72,307.45L1248.58,311.52L1251.45,313.79L1254.31,319.59L1257.18,322.57L1260.04,326.79L1262.9,329.31L1265.77,332.85L1274.36,339.99L1277.22,341.19L1280.08,344.02L1282.95,345.03L1288.68,349.44L1291.54,349.03L1294.4,350.68L1297.27,351.21L1305.86,355.14L1308.72,354.79L1311.59,353.56L1314.45,356.06L1317.31,357.06L1320.18,356.07L1325.91,361.46L1328.77,369.6L1331.63,470.57L1334.5,543.53L1337.36,577.69L1340.23,584.8L1343.09,592L1345.95,595.45L1348.81,597.79L1351.68,595.64L1354.54,593.12L1357.41,598.4L1360.27,600L1363.14,604.67L1371.72,613.98L1374.59,614.66L1377.45,613.12L1380.32,608.53L1383.18,605.4L1386.04,603.53L1391.77,599.86L1394.64,598.95L1397.5,596.65L1400.36,596.36L1403.23,595.21L1406.09,595.35L1408.95,594.93L1411.82,592.39L1414.68,590.74L1417.54,587.82L1423.27,579.73L1426.14,578.36L1429,575.84" style="vector-effect: none; fill: none; stroke: rgb(171, 99, 250); stroke-opacity: 1; stroke-width: 3px; opacity: 1;"/></g><g class="points"/><g class="text"/></g><g class="trace scatter trace332f80" style="stroke-miterlimit: 2; opacity: 1;"><g class="fills"/><g class="errorbars"/><g class="lines"><path class="js-line" d="M0,501.87L17.18,496.97L20.05,495.29L25.77,492.83L28.64,490.43L34.37,485.95L37.23,483.42L45.82,473.38L48.68,468.64L57.27,455.43L60.14,450.34L83.05,408.95L85.91,400.62L91.64,389.49L94.5,383.49L105.96,362.12L108.82,358.02L117.41,343.82L120.28,336.58L123.14,328.3L126.01,322.92L128.87,317.98L131.73,310.85L134.6,307.14L137.46,296.98L140.32,293.56L143.19,291.97L148.91,286.1L151.78,284.37L157.51,277.49L160.37,275.8L166.1,271.87L168.96,268.3L171.82,265.98L174.69,264.97L177.55,263.42L180.42,264.27L183.28,261.98L186.14,262.09L197.6,267.91L200.46,271.44L206.19,275.92L209.05,280.04L211.92,282.48L214.78,287.39L217.64,289.16L220.51,291.98L223.37,293.8L226.24,291.94L229.1,293.36L231.96,295.62L234.83,296.76L237.69,298.89L240.55,301.06L243.42,298.03L246.28,297.14L249.14,297.53L252.01,298.48L254.87,297.88L257.74,296.87L260.6,296.77L263.46,296.56L266.33,297.66L269.19,298.26L272.05,297.95L280.65,298.75L283.51,297.1L286.37,296.77L289.24,297.51L300.69,299.16L303.56,300.76L309.28,302.33L312.15,304.5L315.01,304.45L317.87,302.75L320.74,301.7L323.6,297.94L326.46,297.73L329.33,295.93L335.06,297.81L337.92,295.98L340.78,296.59L343.65,298.41L349.38,297.99L352.24,297.65L357.97,299.91L360.83,301.45L363.69,301.37L366.56,303.17L369.42,304.38L372.29,304.41L378.01,307.57L380.88,307.16L389.47,307.52L392.33,309.85L395.2,311.61L398.06,315.72L403.79,319.24L406.65,322.72L412.38,326.47L415.24,327.28L420.97,328.23L423.83,327.93L426.7,325.6L429.56,325.47L432.42,323.64L435.29,323.36L438.15,321.84L441.02,318.71L446.74,314.64L449.61,314.77L455.33,312.51L458.2,312.25L461.06,309.84L463.92,308.72L466.79,302.29L469.65,299.99L472.52,293.25L475.38,293.06L478.24,288.73L481.11,290.28L483.97,292.17L486.83,290.5L489.7,292.54L492.56,291.76L495.42,294.32L498.29,295.46L504.02,297.66L506.88,300.12L515.47,307.5L518.33,311.23L529.79,323.22L532.65,325.02L541.24,333.84L544.11,336.82L546.97,339.93L549.84,340.22L555.56,345.85L558.43,348.65L561.29,349.93L564.16,349.4L567.02,349.9L569.88,349.41L572.75,349.51L575.61,347.35L584.2,346.83L587.07,344.39L589.93,343.37L592.79,341.28L595.66,341.14L598.52,340.19L601.38,338.88L604.25,338.46L607.11,337.68L609.97,339.52L615.7,345.51L618.57,341.78L621.43,342.05L624.29,343.32L627.16,344.35L630.02,346.19L632.88,351.42L635.75,354.39L641.48,359.45L644.34,363.86L647.2,364.42L650.07,367.1L655.79,369.91L658.66,371.21L661.52,371.58L664.39,374.08L670.11,378.58L672.98,379.42L675.84,380.64L678.7,378.88L681.57,380.8L684.43,380.01L687.29,380.34L690.16,378.5L695.89,378.09L698.75,376.16L701.61,376.1L704.48,373.94L707.34,375.06L710.2,370.89L713.07,369.9L715.93,365.35L718.8,364.77L721.66,361.55L724.52,357.44L727.39,355.87L730.25,352.12L733.11,350.84L738.84,346.34L741.71,348.09L747.43,349.68L750.3,352.21L753.16,354.69L756.02,358.46L767.48,369.45L770.34,375.99L773.21,379.77L776.07,385.97L778.93,387.9L781.8,392.84L790.39,403.4L793.25,404.97L801.84,413.3L804.71,417.23L807.57,419.85L810.44,419.97L813.3,423.76L816.16,425.68L819.03,427.24L821.89,427.13L824.75,427.93L827.62,429.63L830.48,429.11L833.35,429.46L836.21,429.36L839.07,430.32L853.39,432.69L856.25,433.67L867.71,437.64L870.57,437.45L876.3,439.92L879.17,439.27L890.62,440.27L893.48,440.14L899.21,439.04L902.07,438.44L907.8,438.21L910.67,438.13L922.12,441.43L924.98,441.72L933.58,442.26L936.44,442.66L945.03,443.14L947.89,442.83L970.8,443.81L973.67,444.22L976.53,444.69L979.39,444.31L987.99,444.66L990.85,444.88L996.58,445.23L999.44,446.01L1005.17,446.09L1008.03,446.82L1016.62,448L1019.49,447.95L1033.81,449.97L1036.67,450.17L1042.4,450.91L1045.26,451.56L1048.13,453.02L1050.99,453.15L1065.31,454.33L1068.17,456.33L1071.03,457.22L1073.9,459.28L1079.63,461.37L1082.49,463.56L1088.22,467.36L1091.08,468.58L1093.95,470.43L1096.81,470.92L1099.67,472.77L1102.54,473.38L1108.26,475.03L1111.13,475.81L1116.85,477.16L1119.72,477.57L1122.58,477.77L1125.45,476.11L1131.17,476.66L1134.04,477.88L1154.08,483.13L1156.95,483.08L1171.26,486.27L1174.13,486.52L1176.99,484.97L1179.86,484.93L1188.45,483.86L1191.31,482.56L1194.17,481.95L1197.04,480.45L1199.9,479.5L1202.77,477.51L1208.49,475.77L1211.36,475.3L1219.95,478.01L1222.81,477.86L1225.68,478.81L1228.54,478.37L1231.4,479.44L1234.27,477.96L1237.13,478.1L1239.99,479.46L1242.86,480.79L1245.72,481.16L1248.58,480.46L1251.45,480.8L1254.31,483.34L1257.18,487.13L1260.04,489.54L1262.9,493.36L1265.77,496.47L1268.63,501.09L1274.36,509.29L1277.22,511.14L1280.09,515.09L1282.95,517.39L1285.81,520.18L1288.68,521.1L1291.54,524.38L1294.4,525.33L1305.86,532.11L1308.72,532.52L1320.18,541.5L1323.04,544.34L1328.77,550.66L1331.63,552.21L1334.5,553.77L1337.36,554.19L1345.95,556.76L1348.82,555.4L1351.68,554.72L1354.54,554.91L1357.41,556.84L1360.27,556.56L1363.13,555.77L1366,555.83L1371.73,554.76L1374.59,553.69L1380.32,552.57L1383.18,551.2L1386.04,549L1388.91,551.27L1391.77,549.05L1394.63,547.94L1397.5,547.56L1400.36,549.08L1403.23,548.91L1406.09,545.37L1408.95,543.36L1411.82,542.26L1417.54,538.73L1420.41,538.56L1423.27,537.21L1426.14,534.99L1429,535.12" style="vector-effect: none; fill: none; stroke: rgb(255, 161, 90); stroke-opacity: 1; stroke-width: 3px; opacity: 1;"/></g><g class="points"/><g class="text"/></g></g></g></g><path class="xlines-above crisp" d="M0,0" style="fill: none;"/><path class="ylines-above crisp" d="M0,0" style="fill: none;"/><g class="overlines-above"/><g class="xaxislayer-above"><g class="xtick"><text text-anchor="middle" x="0" y="841" transform="translate(231.32,0)" style="font-family: 'Open Sans', verdana, arial, sans-serif; font-size: 20px; fill: rgb(42, 63, 95); fill-opacity: 1; white-space: pre; opacity: 1;">1</text></g><g class="xtick"><text text-anchor="middle" x="0" y="841" style="font-family: 'Open Sans', verdana, arial, sans-serif; font-size: 20px; fill: rgb(42, 63, 95); fill-opacity: 1; white-space: pre; opacity: 1;" transform="translate(374.51,0)">2</text></g><g class="xtick"><text text-anchor="middle" x="0" y="841" style="font-family: 'Open Sans', verdana, arial, sans-serif; font-size: 20px; fill: rgb(42, 63, 95); fill-opacity: 1; white-space: pre; opacity: 1;" transform="translate(517.7,0)">3</text></g><g class="xtick"><text text-anchor="middle" x="0" y="841" style="font-family: 'Open Sans', verdana, arial, sans-serif; font-size: 20px; fill: rgb(42, 63, 95); fill-opacity: 1; white-space: pre; opacity: 1;" transform="translate(660.88,0)">4</text></g><g class="xtick"><text text-anchor="middle" x="0" y="841" style="font-family: 'Open Sans', verdana, arial, sans-serif; font-size: 20px; fill: rgb(42, 63, 95); fill-opacity: 1; white-space: pre; opacity: 1;" transform="translate(804.07,0)">5</text></g><g class="xtick"><text text-anchor="middle" x="0" y="841" style="font-family: 'Open Sans', verdana, arial, sans-serif; font-size: 20px; fill: rgb(42, 63, 95); fill-opacity: 1; white-space: pre; opacity: 1;" transform="translate(947.25,0)">6</text></g><g class="xtick"><text text-anchor="middle" x="0" y="841" style="font-family: 'Open Sans', verdana, arial, sans-serif; font-size: 20px; fill: rgb(42, 63, 95); fill-opacity: 1; white-space: pre; opacity: 1;" transform="translate(1090.44,0)">7</text></g><g class="xtick"><text text-anchor="middle" x="0" y="841" style="font-family: 'Open Sans', verdana, arial, sans-serif; font-size: 20px; fill: rgb(42, 63, 95); fill-opacity: 1; white-space: pre; opacity: 1;" transform="translate(1233.63,0)">8</text></g><g class="xtick"><text text-anchor="middle" x="0" y="841" style="font-family: 'Open Sans', verdana, arial, sans-serif; font-size: 20px; fill: rgb(42, 63, 95); fill-opacity: 1; white-space: pre; opacity: 1;" transform="translate(1376.81,0)">9</text></g><g class="xtick"><text text-anchor="middle" x="0" y="841" style="font-family: 'Open Sans', verdana, arial, sans-serif; font-size: 20px; fill: rgb(42, 63, 95); fill-opacity: 1; white-space: pre; opacity: 1;" transform="translate(1520,0)">10</text></g></g><g class="yaxislayer-above"><g class="ytick"><text text-anchor="end" x="90" y="7" transform="translate(0,805.12)" style="font-family: 'Open Sans', verdana, arial, sans-serif; font-size: 20px; fill: rgb(42, 63, 95); fill-opacity: 1; white-space: pre; opacity: 1;">−0.2</text></g><g class="ytick"><text text-anchor="end" x="90" y="7" style="font-family: 'Open Sans', verdana, arial, sans-serif; font-size: 20px; fill: rgb(42, 63, 95); fill-opacity: 1; white-space: pre; opacity: 1;" transform="translate(0,700.95)">−0.1</text></g><g class="ytick"><text text-anchor="end" x="90" y="7" style="font-family: 'Open Sans', verdana, arial, sans-serif; font-size: 20px; fill: rgb(42, 63, 95); fill-opacity: 1; white-space: pre; opacity: 1;" transform="translate(0,596.78)">0</text></g><g class="ytick"><text text-anchor="end" x="90" y="7" style="font-family: 'Open Sans', verdana, arial, sans-serif; font-size: 20px; fill: rgb(42, 63, 95); fill-opacity: 1; white-space: pre; opacity: 1;" transform="translate(0,492.61)">0.1</text></g><g class="ytick"><text text-anchor="end" x="90" y="7" style="font-family: 'Open Sans', verdana, arial, sans-serif; font-size: 20px; fill: rgb(42, 63, 95); fill-opacity: 1; white-space: pre; opacity: 1;" transform="translate(0,388.43)">0.2</text></g><g class="ytick"><text text-anchor="end" x="90" y="7" style="font-family: 'Open Sans', verdana, arial, sans-serif; font-size: 20px; fill: rgb(42, 63, 95); fill-opacity: 1; white-space: pre; opacity: 1;" transform="translate(0,284.26)">0.3</text></g><g class="ytick"><text text-anchor="end" x="90" y="7" style="font-family: 'Open Sans', verdana, arial, sans-serif; font-size: 20px; fill: rgb(42, 63, 95); fill-opacity: 1; white-space: pre; opacity: 1;" transform="translate(0,180.09)">0.4</text></g></g><g class="overaxes-above"/></g></g><g class="polarlayer"/><g class="smithlayer"/><g class="ternarylayer"/><g class="geolayer"/><g class="funnelarealayer"/><g class="pielayer"/><g class="iciclelayer"/><g class="treemaplayer"/><g class="sunburstlayer"/><g class="glimages"/><defs id="topdefs-ac81f3"><g class="clips"/><clipPath id="legendac81f3"><rect width="84" height="181" x="0" y="0"/></clipPath></defs><g class="layer-above"><g class="imagelayer"/><g class="shapelayer"/></g><g class="infolayer"><g class="legend" pointer-events="all" transform="translate(252.477,110.08000000000001)"><rect class="bg" shape-rendering="crispEdges" width="84" height="181" x="0" y="0" style="stroke: rgb(68, 68, 68); stroke-opacity: 1; fill: rgb(255, 255, 255); fill-opacity: 1; stroke-width: 0px;"/><g class="scrollbox" transform="" clip-path="url(#legendac81f3)"><g class="groups"><g class="traces" transform="translate(0,22.1)" style="opacity: 1;"><text class="legendtext" text-anchor="start" x="40" y="9.360000000000001" style="font-family: 'Open Sans', verdana, arial, sans-serif; font-size: 24px; fill: rgb(42, 63, 95); fill-opacity: 1; white-space: pre;">1m</text><g class="layers" style="opacity: 1;"><g class="legendfill"/><g class="legendlines"><path class="js-line" d="M5,0h30" style="fill: none; stroke: rgb(99, 110, 250); stroke-opacity: 1; stroke-width: 3px;"/></g><g class="legendsymbols"><g class="legendpoints"/></g></g><rect class="legendtoggle" x="0" y="-17.1" width="78.609375" height="34.2" style="fill: rgb(0, 0, 0); fill-opacity: 0;"/></g><g class="traces" transform="translate(0,56.300000000000004)" style="opacity: 1;"><text class="legendtext" text-anchor="start" x="40" y="9.360000000000001" style="font-family: 'Open Sans', verdana, arial, sans-serif; font-size: 24px; fill: rgb(42, 63, 95); fill-opacity: 1; white-space: pre;">2m</text><g class="layers" style="opacity: 1;"><g class="legendfill"/><g class="legendlines"><path class="js-line" d="M5,0h30" style="fill: none; stroke: rgb(239, 85, 59); stroke-opacity: 1; stroke-width: 3px;"/></g><g class="legendsymbols"><g class="legendpoints"/></g></g><rect class="legendtoggle" x="0" y="-17.1" width="78.609375" height="34.2" style="fill: rgb(0, 0, 0); fill-opacity: 0;"/></g><g class="traces" transform="translate(0,90.5)" style="opacity: 1;"><text class="legendtext" text-anchor="start" x="40" y="9.360000000000001" style="font-family: 'Open Sans', verdana, arial, sans-serif; font-size: 24px; fill: rgb(42, 63, 95); fill-opacity: 1; white-space: pre;">3m</text><g class="layers" style="opacity: 1;"><g class="legendfill"/><g class="legendlines"><path class="js-line" d="M5,0h30" style="fill: none; stroke: rgb(0, 204, 150); stroke-opacity: 1; stroke-width: 3px;"/></g><g class="legendsymbols"><g class="legendpoints"/></g></g><rect class="legendtoggle" x="0" y="-17.1" width="78.609375" height="34.2" style="fill: rgb(0, 0, 0); fill-opacity: 0;"/></g><g class="traces" transform="translate(0,124.70000000000002)" style="opacity: 1;"><text class="legendtext" text-anchor="start" x="40" y="9.360000000000001" style="font-family: 'Open Sans', verdana, arial, sans-serif; font-size: 24px; fill: rgb(42, 63, 95); fill-opacity: 1; white-space: pre;">4m</text><g class="layers" style="opacity: 1;"><g class="legendfill"/><g class="legendlines"><path class="js-line" d="M5,0h30" style="fill: none; stroke: rgb(171, 99, 250); stroke-opacity: 1; stroke-width: 3px;"/></g><g class="legendsymbols"><g class="legendpoints"/></g></g><rect class="legendtoggle" x="0" y="-17.1" width="78.609375" height="34.2" style="fill: rgb(0, 0, 0); fill-opacity: 0;"/></g><g class="traces" transform="translate(0,158.9)" style="opacity: 1;"><text class="legendtext" text-anchor="start" x="40" y="9.360000000000001" style="font-family: 'Open Sans', verdana, arial, sans-serif; font-size: 24px; fill: rgb(42, 63, 95); fill-opacity: 1; white-space: pre;">5m</text><g class="layers" style="opacity: 1;"><g class="legendfill"/><g class="legendlines"><path class="js-line" d="M5,0h30" style="fill: none; stroke: rgb(255, 161, 90); stroke-opacity: 1; stroke-width: 3px;"/></g><g class="legendsymbols"><g class="legendpoints"/></g></g><rect class="legendtoggle" x="0" y="-17.1" width="78.609375" height="34.2" style="fill: rgb(0, 0, 0); fill-opacity: 0;"/></g></g></g><rect class="scrollbar" rx="20" ry="3" width="0" height="0" x="0" y="0" style="fill: rgb(128, 139, 164); fill-opacity: 1;"/></g><g class="g-gtitle"><text class="gtitle" x="800" y="50" text-anchor="middle" dy="0.7em" style="opacity: 1; font-family: 'Open Sans', verdana, arial, sans-serif; font-size: 20px; fill: rgb(42, 63, 95); fill-opacity: 1; font-weight: bold; white-space: pre;">No Yielding, Back and eHMI</text></g><g class="g-xtitle"><text class="xtitle" x="805.5" y="873.5" text-anchor="middle" style="opacity: 1; font-family: 'Open Sans', verdana, arial, sans-serif; font-size: 20px; fill: rgb(42, 63, 95); fill-opacity: 1; white-space: pre;">Time (in seconds)</text></g><g class="g-ytitle" transform="translate(0.578125,0)"><text class="ytitle" transform="rotate(-90,19.421875,460)" x="19.421875" y="460" text-anchor="middle" style="opacity: 1; font-family: 'Open Sans', verdana, arial, sans-serif; font-size: 20px; fill: rgb(42, 63, 95); fill-opacity: 1; white-space: pre;">Yaw Angle (in radians)</text></g></g></svg>