<svg class="main-svg" xmlns="http://www.w3.org/2000/svg" xmlns:xlink="http://www.w3.org/1999/xlink" width="4800" height="2700" style="" viewBox="0 0 1600 900"><rect x="0" y="0" width="1600" height="900" style="fill: rgb(255, 255, 255); fill-opacity: 1;"/><defs id="defs-c071cc"><g class="clips"><clipPath id="clipc071ccxyplot" class="plotclip"><rect width="1416" height="720"/></clipPath><clipPath class="axesclip" id="clipc071ccx"><rect x="104" y="0" width="1416" height="900"/></clipPath><clipPath class="axesclip" id="clipc071ccy"><rect x="0" y="100" width="1600" height="720"/></clipPath><clipPath class="axesclip" id="clipc071ccxy"><rect x="104" y="100" width="1416" height="720"/></clipPath></g><g class="gradients"/><g class="patterns"/></defs><g class="bglayer"><rect class="bg" x="104" y="100" width="1416" height="720" style="fill: rgb(229, 236, 246); fill-opacity: 1; stroke-width: 0;"/></g><g class="layer-below"><g class="imagelayer"/><g class="shapelayer"/></g><g class="cartesianlayer"><g class="subplot xy"><g class="layer-subplot"><g class="shapelayer"/><g class="imagelayer"/></g><g class="minor-gridlayer"><g class="x"/><g class="y"/></g><g class="gridlayer"><g class="x"><path class="xgrid crisp" transform="translate(259.93,0)" d="M0,100v720" style="stroke: rgb(255, 255, 255); stroke-opacity: 1; stroke-width: 1px;"/><path class="xgrid crisp" transform="translate(417.44,0)" d="M0,100v720" style="stroke: rgb(255, 255, 255); stroke-opacity: 1; stroke-width: 1px;"/><path class="xgrid crisp" transform="translate(574.95,0)" d="M0,100v720" style="stroke: rgb(255, 255, 255); stroke-opacity: 1; stroke-width: 1px;"/><path class="xgrid crisp" transform="translate(732.46,0)" d="M0,100v720" style="stroke: rgb(255, 255, 255); stroke-opacity: 1; stroke-width: 1px;"/><path class="xgrid crisp" transform="translate(889.97,0)" d="M0,100v720" style="stroke: rgb(255, 255, 255); stroke-opacity: 1; stroke-width: 1px;"/><path class="xgrid crisp" transform="translate(1047.48,0)" d="M0,100v720" style="stroke: rgb(255, 255, 255); stroke-opacity: 1; stroke-width: 1px;"/><path class="xgrid crisp" transform="translate(1204.98,0)" d="M0,100v720" style="stroke: rgb(255, 255, 255); stroke-opacity: 1; stroke-width: 1px;"/><path class="xgrid crisp" transform="translate(1362.49,0)" d="M0,100v720" style="stroke: rgb(255, 255, 255); stroke-opacity: 1; stroke-width: 1px;"/></g><g class="y"><path class="ygrid crisp" transform="translate(0,768.61)" d="M104,0h1416" style="stroke: rgb(255, 255, 255); stroke-opacity: 1; stroke-width: 1px;"/><path class="ygrid crisp" transform="translate(0,687.32)" d="M104,0h1416" style="stroke: rgb(255, 255, 255); stroke-opacity: 1; stroke-width: 1px;"/><path class="ygrid crisp" transform="translate(0,524.73)" d="M104,0h1416" style="stroke: rgb(255, 255, 255); stroke-opacity: 1; stroke-width: 1px;"/><path class="ygrid crisp" transform="translate(0,443.44)" d="M104,0h1416" style="stroke: rgb(255, 255, 255); stroke-opacity: 1; stroke-width: 1px;"/><path class="ygrid crisp" transform="translate(0,362.15)" d="M104,0h1416" style="stroke: rgb(255, 255, 255); stroke-opacity: 1; stroke-width: 1px;"/><path class="ygrid crisp" transform="translate(0,280.86)" d="M104,0h1416" style="stroke: rgb(255, 255, 255); stroke-opacity: 1; stroke-width: 1px;"/><path class="ygrid crisp" transform="translate(0,199.57)" d="M104,0h1416" style="stroke: rgb(255, 255, 255); stroke-opacity: 1; stroke-width: 1px;"/><path class="ygrid crisp" transform="translate(0,118.28)" d="M104,0h1416" style="stroke: rgb(255, 255, 255); stroke-opacity: 1; stroke-width: 1px;"/></g></g><g class="zerolinelayer"><path class="yzl zl crisp" transform="translate(0,606.03)" d="M104,0h1416" style="stroke: rgb(255, 255, 255); stroke-opacity: 1; stroke-width: 2px;"/></g><g class="layer-between"><g class="shapelayer"/><g class="imagelayer"/></g><path class="xlines-below"/><path class="ylines-below"/><g class="overlines-below"/><g class="xaxislayer-below"/><g class="yaxislayer-below"/><g class="overaxes-below"/><g class="overplot"><g class="xy" transform="translate(104,100)" clip-path="url(#clipc071ccxyplot)"><g class="scatterlayer mlayer"><g class="trace scatter trace52e7ee" style="stroke-miterlimit: 2; opacity: 1;"><g class="fills"/><g class="errorbars"/><g class="lines"><path class="js-line" d="M0,466.12L1.58,464.43L3.15,464.6L9.45,459.88L11.03,460.18L12.6,458.89L14.18,460.06L15.75,459.62L17.33,460.89L22.05,459.12L23.63,456.5L25.2,456.77L26.78,453.51L28.35,451.25L29.93,447.56L34.65,435.58L36.23,431.17L37.8,418.49L39.38,412.88L47.25,361.13L48.83,352.95L50.4,349.29L51.98,341.31L53.55,338.67L55.13,333.31L56.7,334.24L58.28,329.58L59.85,324.24L61.43,321.54L63,314.44L64.58,311.52L69.31,293.68L70.88,290.58L72.45,288.08L74.03,279.69L75.61,275.51L77.18,264.77L78.76,260.13L80.33,246.94L85.06,222.7L86.63,214.27L88.21,205.63L89.78,201.57L91.36,196.01L92.93,194.34L94.51,181.68L96.08,179.46L99.23,172.36L100.81,165.14L102.38,150.06L103.96,144.02L107.11,128.1L108.68,125.89L110.26,123.49L111.83,117.62L113.41,115.11L114.98,115.01L116.56,122.68L118.13,125.25L122.86,153.16L124.43,171.37L127.58,190.9L129.16,191.63L130.73,194.4L132.31,193.86L133.88,196.57L135.46,197.24L138.61,207.67L140.18,208.21L141.76,222.32L143.33,226.67L151.21,263.45L152.78,274.62L154.36,276.76L155.93,275.24L159.08,283.25L160.66,286.3L163.81,284.26L165.39,284.8L168.53,280.63L170.11,280.08L174.84,285.88L176.41,289.32L177.99,291.81L179.56,292.44L181.14,293.59L182.71,293.1L184.29,293.53L185.86,291.6L189.01,292.69L190.59,293.47L192.16,294.6L193.74,298.42L195.31,305L196.89,307.89L203.19,342.67L204.76,347.48L206.34,348.4L207.91,347.22L209.49,350.54L211.06,350.8L215.79,375.76L217.36,382.93L218.94,386.84L220.51,386.85L222.09,388.36L223.66,375.49L228.39,354.24L229.96,349.94L231.54,340.78L233.11,342.91L234.69,342.6L236.26,346.19L237.84,346.59L239.41,348.83L240.99,353.63L242.56,355.89L244.14,352.62L245.71,362.33L247.29,357.65L248.86,361.11L252.01,360.56L253.59,361.79L255.16,360.9L256.74,357.49L258.31,355.41L259.89,351.32L261.47,350.52L263.04,348.67L264.61,347.58L266.19,348.31L269.34,342.46L270.92,341.71L272.49,340.83L274.07,338.66L277.22,336.87L278.79,338.49L280.37,341.58L281.94,341.7L286.67,341.43L288.24,342.79L291.39,340.12L292.97,340.52L296.12,345.46L297.69,347.95L299.27,351.3L300.84,352.51L303.99,355.23L305.57,354.35L310.29,351.32L311.87,350.3L315.02,351.49L316.59,353.74L319.74,355.63L321.32,360.36L322.89,360.82L324.47,362.38L326.04,364.13L327.62,363.63L329.19,362.17L330.77,356.51L333.92,347.17L335.49,345.29L340.22,333.43L341.79,332.17L346.52,332.24L348.09,332.86L351.24,335.47L352.82,336.08L354.39,337.05L355.97,338.94L357.54,337.71L359.12,334.47L360.7,331.04L362.27,329.6L363.84,330.98L365.42,327.1L367,320.59L368.57,318.2L373.3,300.56L374.87,290.02L379.6,273.28L381.17,272.8L382.75,271.57L384.32,274.77L385.9,274.88L387.47,276.46L390.62,276.9L392.2,274.14L393.77,272.31L395.35,273.83L396.92,273.26L398.5,271.55L400.07,271.55L401.65,273.23L404.8,274.82L406.37,277.2L411.1,279.29L412.67,278.72L415.82,279.71L417.4,282.69L418.97,285.14L420.55,289.46L423.7,295.79L425.27,297.28L430,307.41L431.57,313.23L433.15,315.1L434.72,318.66L436.3,319.52L437.87,323.52L439.45,325.49L441.02,329.33L450.47,350.98L452.05,352.72L456.77,366.43L458.35,368.14L461.5,372.91L463.08,373.29L469.38,379.8L470.95,381.82L472.53,382.46L474.1,382L477.25,379.92L478.83,379.31L481.98,378.39L483.55,378.3L486.7,380.24L488.28,382.14L493,385.55L494.58,386.09L496.15,388.46L497.73,389.05L499.3,389.39L500.88,388.75L505.6,387.79L507.18,386.82L508.75,387.73L510.33,387.03L511.9,386.9L513.48,385.24L515.05,383.63L516.63,383.14L519.78,381.13L521.35,380.98L526.08,377.36L527.65,376.26L529.23,374.9L530.8,374.96L532.38,374.28L533.95,374.99L541.83,374.81L543.4,375.21L552.86,378.04L554.43,378.15L562.31,380.24L563.88,381.5L568.61,383.62L570.18,385.46L573.33,386.21L574.91,385.7L579.63,385.43L581.21,387.1L585.93,390.46L587.51,391.98L590.66,393.23L592.23,394.6L595.38,394.92L596.96,395.92L601.68,397.25L603.26,396.97L606.41,395.83L607.98,395.83L611.13,396.72L612.71,397.31L619.01,399.63L620.58,401.43L622.16,403.47L623.73,403.48L626.88,404.2L628.46,404.67L630.03,405.51L631.61,405.08L634.76,405.55L636.33,405.14L639.48,407.1L641.06,408.31L644.21,409.32L645.78,408.89L648.93,408.35L650.51,409.18L653.66,410.95L655.24,411.78L658.39,412.9L659.96,413.01L663.11,414.06L664.69,415.47L672.56,418.67L674.14,420.18L677.29,421.09L678.86,420.85L682.01,422.36L683.59,423.13L691.46,429.01L693.04,431.08L696.19,434.27L697.76,434.49L700.91,436.87L702.49,437.75L711.94,438.31L713.51,437.85L719.81,436.37L721.39,436.8L733.99,440.97L735.56,439.15L737.14,438.72L738.72,439.36L741.86,439.1L743.44,439.65L745.02,440.09L746.59,442.09L756.04,448.07L757.62,447.44L763.92,447.29L765.49,448.15L767.07,448.68L768.64,450.26L773.37,458.8L774.94,463.81L776.52,466.87L778.09,471.66L781.24,477.28L782.82,481.13L785.97,484.55L787.54,485.15L790.69,488.84L792.27,490.02L793.84,491.34L795.42,491.66L798.57,492.18L800.14,491.88L801.72,491.43L803.29,489.7L808.02,487.34L809.59,487.93L812.74,490.67L814.32,493.66L820.62,501.97L822.19,503.29L825.34,505.75L826.92,505.82L828.49,507.38L830.07,507.87L833.22,510.4L834.8,510.95L836.37,511.46L837.94,511.1L842.67,513.77L844.25,514.07L845.82,514.87L847.4,514.69L848.97,515.06L850.55,514.64L852.12,514.05L853.7,514.37L855.27,512.66L856.85,512.81L858.42,512.15L860,512.45L861.57,512.44L863.15,511.57L864.72,512.73L866.3,511.62L867.87,510.37L869.45,507.21L872.6,502.3L874.17,501.38L880.47,493.74L882.05,493.01L883.62,489.86L885.2,488.55L886.77,486.94L888.35,486.6L891.5,487.75L893.07,487.44L896.22,488.13L897.8,487.67L899.37,487.51L900.95,486.47L904.1,488.04L905.67,490.7L907.25,492.07L908.82,494.48L910.4,496.1L911.97,499.65L915.12,502.42L916.7,502.42L921.42,503.23L923,503.02L926.15,502.91L927.72,502.83L937.17,501.15L938.75,501.84L941.9,498.86L943.48,495.32L946.63,490.7L948.2,488.01L951.35,485.45L952.93,485.6L956.08,481.79L957.65,482.51L962.38,481.95L963.95,482.92L965.53,482.01L967.1,482.34L968.68,481.78L970.25,484.44L973.4,486.79L974.98,489.14L981.28,496.1L982.85,496.2L984.43,498.06L986,498.51L987.58,499.57L989.15,499.47L992.3,500.06L993.88,501.09L995.45,501.59L997.03,503.54L998.6,504.05L1000.18,506.6L1001.75,507.06L1003.33,508.63L1006.48,509.85L1008.05,511.44L1009.63,512.19L1011.2,514.38L1012.78,514.55L1014.35,517.49L1017.5,518.79L1019.08,516.43L1022.23,515.14L1023.8,511.55L1025.38,506.42L1026.95,505.65L1030.11,499.36L1031.68,495.93L1039.56,468.8L1041.13,465.5L1042.71,460.08L1044.28,458.36L1045.86,456.13L1047.43,452.22L1049.01,449.71L1050.58,445.59L1052.16,443.53L1053.73,438.74L1055.31,437.68L1056.88,437.7L1058.46,436.62L1060.03,437.59L1063.18,437.35L1064.76,436.47L1071.06,434.44L1072.63,432.28L1077.36,432.86L1078.93,432.39L1080.51,433.01L1082.08,434.7L1083.66,436.3L1085.23,436.78L1088.38,437.71L1089.96,440.12L1091.53,440.43L1093.11,443.78L1094.68,446.13L1096.26,450.57L1099.41,451.39L1100.98,453.49L1105.71,456.02L1107.28,455.66L1108.86,455.82L1110.43,455.17L1112.01,455.9L1113.58,455.42L1118.31,452.75L1119.88,452.65L1124.61,450.48L1126.19,450.59L1129.34,450.88L1130.91,450.62L1134.06,451.35L1135.64,452.59L1138.79,453.39L1140.36,455.08L1141.94,456.18L1143.51,458.22L1151.39,464.66L1152.96,465.01L1156.11,466.64L1157.69,467.53L1160.84,470.57L1162.41,472.55L1165.56,476.25L1167.14,477.13L1168.71,478.06L1170.29,479.89L1175.01,483.7L1176.59,485.82L1178.16,487.44L1179.74,490.33L1181.31,491.67L1182.89,494.8L1184.46,496.51L1186.04,496.99L1187.61,497.3L1189.19,498.69L1190.76,498.65L1192.34,499.4L1201.79,513.08L1203.36,516.25L1206.51,523.28L1208.09,526.83L1209.66,529.1L1211.24,535.04L1212.81,537.13L1214.39,543.37L1217.54,548.74L1219.11,550.28L1222.27,552.59L1223.84,553.24L1228.57,552.04L1230.14,551.76L1236.44,546.3L1238.02,544.56L1239.59,541.97L1241.17,540.84L1245.89,533.74L1247.47,522.71L1249.04,520.43L1250.62,515.89L1255.34,504.31L1256.92,502.04L1260.07,495.67L1261.64,493.1L1264.79,487.57L1266.37,486.27L1271.09,487.36L1272.67,485.91L1274.24,484.9L1275.82,484.93L1277.39,485.19L1278.97,486.66L1280.54,485.9L1282.12,486.09L1283.69,488.05L1285.27,488.53L1288.42,492.62L1289.99,497.54L1291.57,498.8L1293.14,503.31L1294.72,504.64L1296.29,507.31L1301.02,519.55L1302.59,521.66L1308.89,540.31L1310.47,545.34L1316.77,570.57L1318.34,580.09L1321.5,590.25L1323.07,601.2L1324.65,607.39L1326.22,620.1L1330.95,639.49L1332.52,644.42L1335.67,652.64L1337.25,659.66L1338.82,663.73L1340.4,661.7L1343.55,657.1L1345.12,657.07L1348.27,642.24L1349.85,635.71L1351.42,626.67L1353,623.58L1354.57,617.78L1356.15,615.93L1357.72,612.32L1359.3,613.27L1360.87,613.03L1362.45,609.67L1364.02,607.06L1365.6,601.38L1367.17,599.34L1368.75,595.01L1370.32,594.85L1371.9,590.92L1375.05,594.7L1376.62,598.99L1378.2,602.14L1379.77,608.01L1381.35,611.7L1382.92,610.09L1384.5,610.4L1386.07,613.53L1389.22,619.89L1390.8,618.11L1392.37,620.41L1393.95,624.71L1397.1,631.13L1398.67,638.7L1400.25,645.25L1401.82,656.32L1403.4,661.9L1404.97,671.23L1409.7,683.98L1411.27,682.11L1412.85,684L1414.42,683.17L1416,681.15" style="vector-effect: none; fill: none; stroke: rgb(99, 110, 250); stroke-opacity: 1; stroke-width: 3px; opacity: 1;"/></g><g class="points"/><g class="text"/></g><g class="trace scatter traceea4bfc" style="stroke-miterlimit: 2; opacity: 1;"><g class="fills"/><g class="errorbars"/><g class="lines"><path class="js-line" d="M0,571.01L3.15,569.97L4.72,569.37L7.88,568.28L9.45,566.95L12.6,564.43L14.17,562.87L18.9,556.7L20.48,552.67L23.63,543.47L25.2,538.17L31.5,507.22L33.08,500.62L42.53,442.78L44.1,434.32L48.83,405.27L50.4,400.24L51.98,395.93L53.55,388.09L55.13,384L56.7,375.42L58.28,372.03L59.85,364.13L64.58,341.86L66.15,338.74L69.3,329.31L70.88,331.51L72.45,330.31L74.03,326.6L75.6,326.83L77.18,319.27L80.33,324.41L81.9,328.27L85.05,321.27L86.63,323.68L88.2,323.18L89.78,320.41L91.36,318.72L92.93,315.09L94.51,314.54L96.08,315.91L97.66,319.45L99.23,320.66L102.38,318.06L103.96,315.1L105.53,313.49L107.11,313.97L108.68,312.97L110.26,317.88L111.83,321.39L113.41,327.23L116.56,329.96L118.13,328.22L119.71,327.04L121.28,328.68L122.86,331.1L124.43,336.23L126.01,338.06L127.58,346.88L129.16,356.18L130.73,357.99L132.31,363.14L133.88,363.6L135.46,362.28L137.03,355.24L138.61,352.98L140.18,345.64L141.76,341.86L143.33,340.92L144.91,339.48L146.48,345.01L148.06,340.86L149.63,346.68L152.78,344.92L154.36,342.81L159.08,334.09L160.66,335.62L162.23,341.09L163.81,351.38L166.96,364.79L168.53,370.69L170.11,378.5L171.68,376.87L176.41,397.69L177.98,407.72L181.13,424.47L182.71,426.99L184.28,420.53L185.86,422.05L187.44,421.37L189.01,417.94L193.73,399.81L195.31,398.9L198.46,400.3L200.04,399.05L201.61,397.47L203.19,404.63L206.34,416.27L207.91,426.21L211.06,447.76L212.64,453.15L214.21,459.27L215.79,458.1L217.36,462.66L218.94,458.4L220.51,448.58L222.09,443.56L223.66,431.79L225.24,427.92L226.81,422.71L228.39,425.92L229.96,421.85L231.54,424.23L233.11,428.47L234.69,426.01L239.41,432.15L240.99,434.35L242.56,433.79L244.14,435.66L245.71,437.36L247.29,436.68L248.86,437.14L250.44,436.13L252.01,441.55L253.59,442.95L255.16,446.5L256.74,447.72L259.89,455.46L261.46,455.59L263.04,459.26L264.61,459.3L266.19,459.24L267.77,461.4L270.91,459.44L272.49,460.1L278.79,451.95L280.36,454.19L283.52,446.12L285.09,448.46L288.24,448.7L289.81,449.96L291.39,451.99L292.97,451.06L296.12,448.02L297.69,443.88L299.27,446.92L300.84,441.6L303.99,435.87L305.57,431.96L307.14,430.74L308.72,433.47L310.29,435.53L311.87,434.79L313.44,433.63L315.02,429.98L316.59,424.59L318.17,426.8L319.74,424.87L321.32,418.41L326.04,410.97L327.62,406.94L330.77,396.3L332.34,393.31L333.92,385.33L335.49,382.92L337.07,380.27L338.64,379.35L341.79,375.06L343.37,374.23L344.94,370.77L346.52,373.81L348.09,374.24L349.67,368.56L351.24,365.06L352.82,363.44L354.39,360.75L355.97,361.57L362.27,345.04L363.84,350.17L368.57,342.4L370.14,341.83L371.72,335.27L373.29,335.43L378.02,329.57L379.6,330.57L381.17,333.26L382.75,327.73L384.32,324.88L385.9,324.05L389.05,320.28L390.62,320.75L396.92,311.83L398.5,313.13L400.07,314.3L401.65,317.04L403.22,317.17L404.8,320.53L406.37,318.56L407.95,319.08L409.52,320.38L411.1,318.04L417.4,314.87L418.97,315.95L420.55,317.93L422.12,318.05L423.7,319.6L425.27,316.65L426.85,316.22L428.42,311.54L431.57,300.92L433.15,299.33L434.72,299.94L436.3,297.33L437.87,296.9L439.45,295.15L441.02,294.42L442.6,291.99L445.75,293.49L447.32,289.78L448.9,293.27L450.47,292.54L452.05,293.35L453.62,288.77L456.77,289.81L458.35,289.17L461.5,284.4L463.07,284.58L466.22,284.79L467.8,287.83L469.37,289.26L470.95,292.93L474.1,299.11L475.68,306.85L477.25,313.42L478.83,324.5L480.4,330.76L481.98,341.55L485.13,348.37L486.7,355.17L488.28,357.37L489.85,361.37L493,364.12L494.58,368.45L497.73,378.08L499.3,379.05L504.03,383.57L505.6,383.56L510.33,390.77L511.9,394.19L513.48,394.09L515.05,392.87L518.2,392.91L519.78,395.04L521.35,396.83L522.93,396.22L526.08,397.36L527.65,399.75L532.38,405.34L533.95,406.11L537.1,408.25L538.68,408.98L540.25,408.11L541.83,408.39L543.4,409.28L544.98,408.51L546.55,408.85L548.13,404.77L549.7,404.33L551.28,405.69L552.85,405.44L554.43,406.33L556,406.5L557.58,407.49L560.73,410.65L562.3,410.85L565.45,414.71L567.03,414.58L571.75,415.97L573.33,414.59L578.05,415.52L579.63,415.7L585.93,418.9L587.51,419.34L589.08,421.77L590.66,421.95L592.23,423.86L593.81,424.34L595.38,425.99L596.96,429.42L603.26,437.82L604.83,438.32L607.98,441.54L609.56,442.39L619.01,445.79L620.58,447.51L625.31,448.52L626.88,448.09L628.46,448.41L630.03,447.92L631.61,446.79L633.18,447.3L637.91,449.04L639.48,448.93L642.63,451.13L644.21,452.87L648.93,456.27L650.51,457.16L652.09,458.18L653.66,456.5L658.38,457.23L659.96,456.07L663.11,460.91L664.68,461.16L667.84,462.72L669.41,462.72L672.56,460.99L674.14,460.24L675.71,459.78L677.29,460.13L678.86,458.43L680.44,457.88L682.01,458L683.59,456.95L686.74,456.83L688.31,457.73L689.89,457.91L691.46,459.25L696.19,462.1L697.76,461.89L699.34,462.14L700.91,463.65L702.49,463.77L704.06,465.89L705.64,467.54L707.21,467.11L710.36,469.55L711.94,468.35L715.09,468.76L716.66,469.18L718.24,469.07L719.81,469.94L721.39,470.19L722.96,472.05L726.11,473.05L727.69,474.31L729.26,474.12L730.84,473.06L733.99,473.62L735.56,473.04L737.14,473.13L738.71,474.28L740.29,475.29L741.86,477.3L751.31,487.51L752.89,489.49L756.04,491.68L757.61,493.3L760.77,495.86L762.34,496.18L765.49,499.27L767.06,499.24L768.64,500.89L770.22,500.78L774.94,504.16L776.52,504.31L779.67,506.94L781.24,507.93L782.82,509.18L784.39,509.15L787.54,510.55L789.12,511.41L790.69,511.07L792.27,511.99L795.42,512.95L796.99,514.55L800.14,516.22L801.72,516.07L804.87,517.87L806.44,518.29L811.17,518.43L812.74,518.78L815.89,519.21L817.47,519.05L819.04,517.81L820.62,518.59L823.77,518.26L825.34,518.94L826.92,518.22L828.49,518.39L831.64,518.54L833.22,518.75L834.79,517.73L836.37,518.03L837.94,518.45L839.52,517.53L844.24,518.74L845.82,520.33L850.54,523.44L852.12,523.49L856.84,525.71L858.42,526.36L859.99,525.89L861.57,526.68L863.14,528.26L864.72,531.17L866.3,534.81L867.87,535.98L869.45,538.46L871.02,538.77L872.6,539.84L874.17,542.15L875.75,543.18L877.32,545.15L878.9,546.16L880.47,548.95L886.77,550.84L888.35,550.28L889.92,551.15L891.5,550.33L894.65,548.37L896.22,544.99L899.37,539.08L900.95,533.02L902.52,529.89L904.1,524.81L905.67,522.67L907.25,519.04L908.82,518.18L910.4,514.15L913.55,511.1L915.12,508.14L916.7,505.93L918.27,498.87L921.42,489.57L923,486.2L926.15,480.09L927.73,476.91L929.3,471.53L930.87,470.4L932.45,469.33L934.02,466.98L935.6,462.42L937.17,450.72L940.32,439.3L941.9,426.21L946.63,392.84L948.2,388.24L949.77,386.67L951.35,383.74L954.5,381.65L956.08,385.3L957.65,391.44L959.22,392.45L963.95,402.1L965.53,401.02L968.68,397.48L970.25,396.77L971.83,398.94L973.4,402.82L976.55,410.93L978.13,411.21L981.28,416.83L982.85,422.6L984.43,424.48L986,428.6L990.73,432.47L992.3,434.35L993.88,435.95L995.45,436.33L998.6,442.12L1000.18,444.62L1003.33,450.35L1004.9,451.9L1012.78,463.25L1014.35,464.41L1017.5,466.32L1019.08,466.1L1020.65,464.62L1022.23,464.72L1025.38,461.03L1026.95,461.41L1033.25,462.12L1034.83,461.94L1039.56,466.92L1041.13,467.33L1044.28,469.14L1045.86,470.37L1052.15,474.15L1053.73,476.82L1063.18,488.57L1064.76,492.12L1066.33,494.73L1067.91,499.03L1071.06,506.17L1072.63,507.56L1074.21,507.1L1075.78,510.98L1080.51,522.97L1082.08,524.02L1083.66,523.69L1085.23,525.22L1086.81,525.7L1088.38,524.95L1091.53,527.7L1093.11,530.16L1094.68,529.96L1096.26,532.09L1099.41,532.45L1100.98,531.78L1104.13,531.62L1105.71,530.47L1110.43,534L1112.01,534.44L1118.31,537.67L1119.88,539.31L1121.46,542.53L1123.03,543.2L1126.18,547.03L1127.76,549.22L1130.91,555.71L1132.48,557.69L1135.63,562.39L1137.21,564.78L1138.78,564.27L1140.36,565.87L1141.93,569.61L1143.51,570.42L1145.09,572.1L1146.66,571.92L1148.24,572.87L1149.81,572.3L1151.38,573.27L1152.96,573.07L1157.69,571.77L1159.26,570.3L1162.41,567.62L1163.99,566.81L1170.29,565.55L1171.86,566.12L1175.01,564.96L1176.59,565.51L1182.89,557.46L1184.46,556.93L1186.04,555.44L1187.61,552.07L1190.76,549.3L1192.34,548.01L1195.49,546.27L1197.06,543.96L1200.21,540.42L1201.79,540.54L1204.94,545.94L1206.51,546.72L1208.09,546.7L1209.66,548.28L1211.24,546.86L1212.81,547.85L1215.96,546.51L1217.54,547.63L1220.69,547.27L1222.26,548.44L1223.84,546.69L1225.41,546.83L1226.99,547.83L1228.56,547.65L1230.14,548.62L1231.71,550.64L1234.86,555.27L1236.44,557.01L1239.59,559.68L1241.17,560.31L1242.74,563.81L1244.31,563.67L1245.89,564.35L1247.47,563.91L1249.04,561.46L1250.62,561.21L1253.76,562.46L1255.34,561.32L1256.92,558.04L1258.49,556.6L1260.07,559.22L1261.64,556.94L1264.79,553.55L1266.37,549.53L1269.52,544.49L1271.09,545.3L1272.67,539.67L1274.24,537.85L1278.97,531.94L1280.54,528.95L1283.69,522.7L1285.27,522.59L1288.42,521.88L1289.99,521.88L1291.57,523.22L1293.14,525.55L1301.02,533.19L1302.59,533.31L1304.17,531.49L1305.74,532.7L1307.32,533.22L1308.89,530.76L1312.04,528.94L1313.62,529.01L1315.19,528.38L1316.77,524.06L1318.34,522.11L1319.92,518.89L1321.5,517.81L1323.07,515.35L1324.65,514.56L1326.22,514.62L1329.37,511.94L1330.95,508.89L1332.52,506.68L1334.09,503.13L1341.97,488.62L1343.55,489.32L1345.12,488.16L1346.7,490.92L1348.27,491.12L1349.85,492.41L1351.42,495.17L1353,495.72L1354.57,500.06L1356.15,500.08L1357.72,501.44L1359.3,500.85L1365.6,500.59L1367.17,500.07L1368.75,499.09L1370.32,499.32L1376.62,495.29L1378.2,494.91L1379.77,493.16L1381.35,493.05L1386.07,489.66L1387.65,490.44L1390.8,490.15L1392.37,489.6L1393.95,489.32L1395.52,490.11L1400.25,487.99L1401.82,486.43L1411.27,484.46L1412.85,485.25L1416,485.75" style="vector-effect: none; fill: none; stroke: rgb(239, 85, 59); stroke-opacity: 1; stroke-width: 3px; opacity: 1;"/></g><g class="points"/><g class="text"/></g><g class="trace scatter trace0eb886" style="stroke-miterlimit: 2; opacity: 1;"><g class="fills"/><g class="errorbars"/><g class="lines"><path class="js-line" d="M0,540.43L3.15,540.52L4.73,539.73L6.3,539.09L7.88,539.77L9.45,540.51L11.03,540.41L12.6,538.24L14.18,537.56L18.9,533.9L20.48,532.7L25.2,526.98L26.78,524.58L28.35,523.45L29.93,520.3L36.23,504.39L37.8,498.83L39.38,495.36L40.95,488.29L44.1,472.97L45.68,470.31L48.83,451.62L50.4,447.81L55.13,416.58L56.7,411.19L63,362.73L64.58,352.64L66.15,341.76L67.73,337.55L75.6,310.84L77.18,311.46L78.75,305.6L80.33,303.17L81.91,302.65L83.48,297.15L85.06,296.36L86.63,293.92L88.21,291.44L89.78,283.64L91.36,281.56L92.93,276.03L97.66,245.05L99.23,240.88L100.81,237.59L102.38,238.06L103.96,234.32L105.53,233.61L107.11,233.45L108.68,229.1L110.26,229.64L111.83,224.54L116.56,237.27L118.13,239.23L122.86,259.62L124.43,262.89L126.01,270.2L127.58,272.69L129.16,275.84L130.73,281.37L132.31,283.11L133.88,289.94L137.03,299.65L138.61,299.39L141.76,301.5L143.33,299.91L144.91,294.68L146.48,295.27L148.06,298.22L149.63,294.82L151.21,294.14L152.78,290.96L154.36,291.94L155.93,286.89L157.51,284.44L159.08,284.69L160.66,285.32L162.23,284.92L163.81,286.03L165.38,285.45L168.53,281.16L170.11,276.74L171.68,278.95L173.26,277.5L174.83,272.8L176.41,259.65L179.56,254.31L181.14,254.69L182.71,254.61L184.29,251.25L185.86,250.75L187.44,253.24L189.01,253.21L190.59,256.25L192.16,253.25L193.74,254.04L195.31,253.34L196.89,255.47L198.46,257.84L200.04,262.14L201.61,264.45L203.19,263.55L206.34,268.1L207.91,271.02L212.64,278.69L214.21,282.79L217.36,271.32L218.94,260.04L222.09,211.98L223.66,167.6L225.24,147.72L226.81,108.72L228.39,96.65L229.96,68.93L234.69,40.54L236.26,41.17L237.84,36L239.41,38.89L240.99,37.98L242.56,41.81L244.14,40.76L245.71,42.72L247.29,45.38L248.86,42.49L250.44,46.91L252.01,48.27L253.59,54.53L255.16,56.05L256.74,58.29L258.31,64.34L259.89,62.98L261.46,67.8L263.04,68.74L264.61,75.08L267.76,78.18L269.34,84.71L270.92,88.71L272.49,95.71L277.22,104.29L278.79,106.71L285.09,129.46L286.67,123.62L288.24,131.6L289.82,122.31L291.39,130.58L292.97,126.48L294.54,145.54L296.12,154.01L297.69,155.56L299.27,187.28L300.84,199.11L302.42,224.12L303.99,235.87L305.57,259.22L307.14,267.23L308.72,282.46L316.59,337.36L318.17,342.39L319.74,351.36L321.32,354.49L322.89,362.28L324.47,365.71L326.04,369.34L327.62,379.92L330.77,390.57L332.34,396.4L335.49,413.83L337.07,418.16L338.64,427.68L340.22,431.93L341.79,437.86L343.37,439.05L346.52,448.94L348.09,450.67L354.39,460.63L355.97,466.13L357.54,468.25L359.12,474.11L362.27,476.58L363.84,476.7L370.15,481.28L371.72,483.71L373.3,487.54L374.87,489.11L379.6,494.38L381.17,497.35L382.75,499.44L384.32,503.81L385.9,505.03L387.47,509.07L389.05,512.82L390.62,522.1L393.77,531.66L395.35,542.68L398.5,562.68L400.07,565.01L401.65,567.66L403.22,567.22L404.8,566.13L406.37,560.87L407.95,558.46L409.52,557.6L411.1,558.71L412.67,557.52L414.25,555.88L415.82,547.16L417.4,541.32L418.97,538.8L420.55,529.76L422.12,526.66L423.7,521.49L425.27,519.46L426.85,516.95L428.42,519.73L430,521.53L431.57,512.45L433.15,513.15L434.72,511.34L436.3,509.68L437.87,509.82L439.45,509.16L441.02,507.69L444.17,504.33L445.75,503.19L447.32,502.71L448.9,501.43L450.47,503.11L452.05,500.31L455.2,497.81L456.77,496.18L458.35,493.16L459.92,491.8L463.08,490.44L464.65,487.45L466.23,487.34L467.8,486.11L469.38,485.54L470.95,483.72L474.1,481.57L475.68,481.33L481.98,475.6L483.55,474.7L485.13,474.42L486.7,473.09L491.43,468.55L493,468.26L496.15,463.91L497.73,458.7L500.88,454.49L502.45,449.82L504.03,447.38L505.6,442.23L507.18,442L508.75,438.38L511.9,433.96L513.48,433.27L515.05,431.03L516.63,432.27L524.5,438.88L526.08,438.65L529.23,440.73L530.8,442.36L533.95,444.12L535.53,444.96L538.68,448.08L540.25,449.17L554.43,463.21L556,464.39L559.16,467.69L560.73,470.57L563.88,474.79L565.46,475.7L570.18,476.91L571.76,478.57L574.91,480.87L576.48,480.08L581.21,480.79L582.78,482.18L587.51,481.66L589.08,480.77L598.53,478.07L600.11,476.97L606.41,475.88L607.98,474.79L614.28,474.15L615.86,473.62L620.58,471.72L622.16,472.06L623.73,471.71L625.31,472.49L628.46,472.11L630.03,472.49L633.18,472.96L634.76,472.73L637.91,471.58L639.48,467.96L641.06,466.95L642.63,463.71L647.36,460.36L648.93,460.62L652.08,462.01L653.66,461.39L658.39,461.85L659.96,461.51L667.84,463.05L669.41,464.28L672.56,464.13L674.14,464.3L677.29,466.63L678.86,466.59L685.16,468.3L686.74,469.91L689.89,472.22L691.46,472.75L694.61,473.59L696.19,472.83L700.91,474.84L702.49,474.83L705.64,477.16L707.21,477.63L711.94,478.6L713.51,479.79L718.24,481.09L719.81,480.89L729.26,485.76L730.84,486.96L733.99,490.79L735.56,494.98L737.14,498.01L738.71,502.66L746.59,520.49L748.17,522.09L752.89,530.68L754.47,532.03L756.04,533.31L757.62,535.6L759.19,535.81L760.77,537.52L762.34,537.5L763.92,538.41L765.49,538.42L767.07,540.03L770.22,542.6L771.79,544.67L773.37,545.31L774.94,547.16L781.24,553.22L782.82,552.84L784.39,552.87L785.97,554.47L787.54,555.09L789.12,557.14L790.69,557.08L792.27,558.45L796.99,560.69L798.57,559.26L803.29,556.4L804.87,554.12L811.17,547.04L812.74,543.36L817.47,535.1L819.04,534.55L830.07,519.64L831.64,518.99L833.22,519.16L834.79,518.52L839.52,515.92L841.09,516.29L845.82,518.33L847.4,519.3L850.55,520.71L852.12,522.22L855.27,524.31L856.85,524.59L860,526.21L861.57,526.45L864.72,526.42L866.3,526.09L872.6,523.17L874.17,521.66L878.9,519.5L880.47,518.95L885.2,519.01L886.77,519.82L891.5,518.92L893.07,518.15L899.37,517.58L900.95,518.71L902.52,518.12L904.1,518.36L907.25,518.11L908.82,517.56L910.4,519.1L911.97,518.32L916.7,513.97L918.27,511.15L930.87,485.37L932.45,484.11L934.02,481.01L935.6,480.96L937.17,477.48L938.75,477.02L940.33,474.42L941.9,473.47L945.05,468.21L946.63,468.66L948.2,467.48L949.78,467.76L951.35,467.35L952.93,468.23L956.08,467.08L957.65,467.41L960.8,465.17L962.38,467.38L968.68,469.24L970.25,468.38L971.83,470.63L973.4,469.01L974.98,468.18L976.55,466.38L978.13,466.35L979.7,463.95L982.85,461.03L984.43,456.66L990.73,441.83L992.3,439.29L998.6,433.39L1000.18,434.47L1001.75,432.75L1003.33,432.85L1004.9,431.21L1006.48,433.29L1008.05,432.18L1009.63,433.11L1014.35,430.43L1015.93,429.25L1019.08,424.53L1020.65,424.11L1023.8,424.96L1025.38,422.48L1030.11,418.6L1031.68,417.97L1033.25,415.41L1034.83,415.43L1037.98,415.78L1039.56,416.41L1042.71,416.78L1044.28,415.16L1045.86,415.88L1047.43,413.76L1049.01,415.18L1050.58,415.01L1053.73,413.27L1055.31,414.25L1058.46,412.1L1060.03,413.33L1061.61,414.41L1063.18,413.67L1066.33,414.09L1067.91,416.44L1069.48,415.56L1071.06,415.97L1072.63,417.56L1074.21,417.47L1075.78,418.64L1077.36,417.94L1078.93,419.27L1080.51,418.22L1082.08,421.23L1083.66,417.62L1085.23,419.11L1086.81,417.38L1088.38,412.2L1089.96,411.71L1091.53,407.02L1093.11,406.32L1094.68,398.37L1096.26,395.9L1097.83,392.43L1099.41,385.83L1102.56,370.11L1104.13,366.39L1105.71,361.3L1107.28,360.04L1108.86,359.38L1110.43,359.92L1112.01,362.56L1113.58,369.33L1116.73,380.02L1118.31,388.49L1121.46,398.92L1123.03,401.31L1124.61,404.91L1126.18,405.02L1127.76,405.18L1129.33,404.39L1130.91,407.8L1132.49,408.97L1134.06,417.64L1135.64,421.91L1137.21,427.37L1138.79,438.57L1140.36,445.92L1141.94,460.24L1143.51,467.98L1145.09,479.63L1148.24,485.42L1149.81,482.48L1151.39,483.96L1152.96,479.31L1156.11,477.44L1157.69,474.53L1159.26,476.2L1160.84,481.26L1167.14,502.37L1168.71,506.14L1170.29,507.9L1171.86,513.08L1173.44,514.89L1175.01,512.96L1176.59,511.89L1178.16,508.12L1179.74,507.77L1181.31,506.28L1182.89,500.59L1184.46,499.78L1186.04,497.39L1187.61,497.07L1190.76,490.82L1192.34,489.93L1193.91,486.85L1195.49,487L1197.06,483.78L1198.64,483.2L1200.21,480.99L1201.79,484.12L1204.94,484.77L1206.51,483.93L1209.66,481.39L1211.24,482.26L1212.81,482.07L1214.39,483.48L1217.54,487.52L1219.11,489.79L1220.69,489.96L1222.26,492.7L1223.84,494.27L1225.41,497.39L1226.99,498.53L1228.57,501.13L1230.14,502.44L1231.72,505.21L1241.17,517.97L1242.74,519.83L1244.32,522.02L1245.89,521.66L1249.04,526.78L1250.62,528.92L1253.77,531.11L1255.34,535.8L1256.92,537.4L1258.49,540.41L1269.52,562.97L1271.09,563.38L1274.24,566.43L1275.82,565.94L1278.97,566.95L1280.54,565.61L1285.27,556.59L1286.84,550.22L1288.42,547.49L1289.99,542.03L1291.57,540.15L1293.14,536.66L1297.87,526.06L1299.44,524.94L1301.02,521.39L1302.59,520.39L1304.17,516.73L1305.74,516.63L1307.32,515.39L1308.89,515.32L1312.04,515.03L1313.62,516.31L1315.19,517.7L1316.77,520.88L1318.34,522.57L1319.92,526.08L1321.49,527.03L1323.07,529.21L1324.65,529.77L1326.22,531.87L1327.8,532.23L1329.37,534.16L1330.95,534.22L1332.52,535.23L1334.1,536.7L1335.67,534.9L1337.25,534.92L1338.82,532.92L1340.4,531.92L1341.97,529.48L1343.55,528.68L1345.12,529.05L1349.85,527.36L1351.42,528.45L1354.57,526.89L1356.15,527.37L1359.3,526.3L1360.87,525.62L1365.6,520.8L1367.17,519.6L1370.32,517.25L1371.9,514.08L1376.62,511.06L1378.2,510.92L1379.77,509.46L1381.35,509.39L1382.92,509.01L1384.5,509.64L1386.07,508.8L1387.65,509.88L1389.22,508.1L1390.8,509.07L1392.37,506.63L1393.95,506.07L1395.52,506.79L1397.1,505.7L1398.67,506.49L1400.25,505.74L1401.82,504.55L1403.4,502.09L1404.97,499.59L1406.55,495.47L1408.12,490L1409.7,488.61L1411.27,486.57L1412.85,488.07L1414.43,489.02L1416,491.46" style="vector-effect: none; fill: none; stroke: rgb(0, 204, 150); stroke-opacity: 1; stroke-width: 3px; opacity: 1;"/></g><g class="points"/><g class="text"/></g><g class="trace scatter tracef87298" style="stroke-miterlimit: 2; opacity: 1;"><g class="fills"/><g class="errorbars"/><g class="lines"><path class="js-line" d="M0,481.79L6.3,482.83L7.88,482.82L12.6,482.29L14.18,482.11L15.75,481.59L17.33,480.11L20.48,479.88L22.05,477.81L26.78,470.39L28.35,465.5L31.5,459.21L33.08,453.67L36.23,444.46L37.8,438.28L42.53,413.92L44.1,399.76L45.68,390.67L47.25,377.23L48.83,370.39L50.4,356.58L59.85,304.77L61.43,298.74L64.58,286.63L66.15,284.75L67.73,280.98L69.3,280.86L70.88,278.59L72.45,278.61L77.18,272.7L78.76,267.1L80.33,265.41L81.91,261.09L86.63,242.84L88.21,240.53L91.36,230.79L92.93,230.63L94.51,224.68L96.08,222.47L97.66,219.13L99.23,219.27L100.81,221.01L102.38,224.42L107.11,230.35L108.68,234.52L113.41,240.37L114.98,240.81L118.13,245.67L119.71,247.09L122.86,257.8L124.43,265.72L127.58,284.53L129.16,296.33L133.88,334.47L135.46,335.84L137.03,331.06L138.61,331.12L140.18,331.16L141.76,332.89L144.91,344.55L146.48,348.8L149.63,360.53L151.21,370.65L159.08,416.46L160.66,421.08L163.81,433.48L165.38,425.71L166.96,440.55L168.53,444.86L170.11,434.89L171.69,440.98L173.26,443.52L174.83,439.18L177.99,440.08L179.56,436.72L181.14,435.8L182.71,438.35L184.29,438.81L185.86,438.23L187.44,441.39L189.01,438.85L190.59,436.58L192.16,435.86L195.31,418.26L196.89,421.43L198.46,410.74L200.04,408.48L201.61,409.66L203.19,413.42L204.76,419.64L206.34,418.59L207.91,420.69L209.49,427.15L211.06,429.96L212.64,436.76L215.79,461.66L217.36,464.36L220.51,462.93L222.09,465.6L223.66,462.62L225.24,462.58L226.81,461.56L228.39,458.52L229.96,461.33L231.54,456.42L233.11,458.94L234.69,458.42L236.26,456.09L237.84,462.2L239.41,461.93L240.99,468.2L242.56,469.51L244.14,472.33L245.71,468.99L247.29,468.16L248.86,468.42L250.44,469.96L252.01,472.08L253.59,472.91L255.16,472.79L256.74,468.37L258.31,467.47L259.89,460.74L261.46,460.18L263.04,455.04L266.19,451.21L267.76,446.95L269.34,444.99L270.91,440.91L274.07,434.27L275.64,434.84L277.21,436.77L278.79,433.75L280.37,436.13L281.94,433.77L283.52,438.64L285.09,438.93L289.82,441.87L291.39,440.23L294.54,444.34L296.12,442.62L297.69,444.17L299.27,442.11L300.84,442.96L302.42,441.89L305.57,439.96L307.14,438.91L308.72,436.21L310.29,435.12L313.44,433.34L315.02,434.11L316.59,431.29L318.17,430.71L319.74,425.79L321.32,426.13L322.89,422.21L324.47,420.61L326.04,417.51L327.62,417.42L329.19,415.59L330.77,416.39L332.34,417.58L333.92,420.17L341.79,428.93L343.37,429.76L344.94,430.84L346.52,430.62L349.67,430.28L351.24,430.99L352.82,432.63L354.39,432.87L357.54,434.86L359.12,434.95L360.69,434.33L362.27,430.54L368.57,420.38L370.15,416.25L371.72,414.26L373.3,409.89L374.87,408.18L376.45,404.54L378.02,405.22L379.6,404.3L381.17,403.33L382.75,403.51L384.32,402.58L385.9,403.97L387.47,404.01L389.05,402.89L392.2,394.76L393.77,393.28L395.35,390.16L396.92,388.9L398.5,388.28L400.07,385.68L401.65,386.49L403.22,385.29L406.37,386.35L407.95,386.39L409.52,386L411.1,383.5L412.67,381.3L414.25,375.78L415.82,371.12L417.4,362.48L418.97,358.21L420.55,350.71L425.27,335.8L426.85,335.08L428.42,331.12L430,329.84L431.57,326.86L433.15,325.95L441.02,320.79L442.6,318.07L445.75,316.22L447.32,315.84L452.05,319.07L453.62,321.25L458.35,333.69L459.92,341.74L463.08,351L464.65,364.3L466.23,369.22L467.8,378.29L469.38,382.7L470.95,389.65L475.68,400.86L477.25,404.03L483.55,417.85L485.13,423.55L486.7,425.63L488.28,429.39L491.43,436.38L493,440.85L496.15,448.26L497.73,449.43L499.3,454.08L500.88,455.12L510.33,469.23L511.9,470.42L513.48,472.62L515.05,472.98L516.63,472.76L518.2,471.64L521.35,468.73L522.93,468.72L524.5,468.41L526.08,469.45L529.23,471.58L530.8,470.28L535.53,470.04L537.1,470.82L540.25,471.12L541.83,469.44L544.98,468.93L546.55,467.51L552.85,463.64L554.43,463.34L557.58,461.88L559.15,461.52L560.73,460.32L562.31,460.68L576.48,455.24L578.06,455.24L579.63,454.33L581.21,454.8L585.93,455.61L587.51,456.65L589.08,457.07L590.66,458.4L592.23,458.21L593.81,459.45L596.96,460.8L598.53,460.2L601.68,459.59L603.26,459.5L604.83,459.93L606.41,459.19L609.56,458.99L611.13,459.53L614.28,458.78L615.86,458.53L617.43,457.78L619.01,458.09L622.16,459.76L623.73,460.44L630.03,460.75L631.61,461.68L634.76,462.68L636.33,462.74L639.48,462.83L641.06,463.77L656.81,474.98L658.39,477.22L663.11,478.14L664.69,480.58L666.26,480.82L667.84,482.33L669.41,483.9L670.99,484.36L675.71,487.53L677.29,489.89L689.89,503.83L691.46,505.87L693.04,507.66L694.61,510.63L696.19,511.8L697.76,514.67L702.49,520.55L704.06,522.33L708.79,526.35L710.36,527.12L715.09,530.8L716.66,532.62L718.24,533.67L719.81,535.79L722.96,537.5L724.54,537.79L726.11,539.33L727.69,539.79L729.26,540.53L730.84,540.11L733.99,538.65L735.56,537.72L737.14,539.63L738.71,540.3L745.01,545.21L746.59,545.12L748.17,546.35L749.74,546.5L756.04,546.36L757.62,545.91L760.77,545.88L762.34,545.13L763.92,544.18L765.49,544.26L768.64,543.45L770.22,543.74L771.79,543.08L773.37,543.9L778.09,543.4L779.67,545.28L784.39,548.2L785.97,547.6L792.27,547.53L793.84,548.6L795.42,548.06L796.99,549.42L800.14,548.51L801.72,549.22L808.02,544.16L809.59,543.57L812.74,540.31L814.32,540.85L815.89,540.08L817.47,538.46L820.62,537.72L822.19,537.25L828.49,532.35L830.07,533.72L834.79,530.74L836.37,532.1L841.09,535.16L842.67,537.36L844.24,539.27L845.82,539.99L848.97,543.81L850.55,543.91L853.7,546.77L855.27,547.47L858.42,548.27L860,547.96L861.57,548.35L863.15,547.24L864.72,547.46L866.3,550.67L867.87,550.28L869.45,552.69L871.02,552.93L872.6,554.13L874.17,554.78L875.75,557.11L878.9,558.65L880.47,560.43L882.05,559.78L883.62,560.47L889.92,558.86L891.5,558.28L896.22,559.17L897.8,562.78L899.37,563.75L900.95,567.88L902.52,568.1L904.1,566.14L905.67,574.27L907.25,575.27L908.82,582.78L910.4,580.17L913.55,577.67L915.12,584.59L921.42,574.47L923,573.09L924.57,572.28L926.15,569.9L927.72,570.38L929.3,569.5L930.87,569.34L932.45,570.65L934.02,571.73L935.6,571.57L937.17,569.03L938.75,571.25L940.33,572.65L941.9,571.06L946.62,567.61L948.2,564.78L949.78,561.49L951.35,561.63L952.93,560.75L954.5,558.15L956.08,550.42L957.65,548.77L962.38,531.86L963.95,528L965.53,520.65L967.1,519.1L970.25,509.65L971.83,506.43L973.4,508.66L974.98,507.62L976.55,506.07L978.13,507.87L981.28,504.22L982.85,499.52L986,489.01L987.58,488.19L990.73,481.59L992.3,480.55L993.88,477.79L995.45,478.14L997.03,475.56L998.6,477.4L1000.18,477.35L1001.75,473.18L1004.9,471.6L1006.48,468.75L1009.63,461.84L1011.2,459.62L1012.78,460.63L1014.35,462.61L1015.93,461.94L1017.5,464.87L1019.08,470.62L1020.65,471.86L1025.38,480.01L1026.95,481.55L1028.53,485.94L1030.1,488.03L1031.68,490.77L1033.25,495.16L1034.83,495.04L1036.4,496.81L1037.98,499.02L1039.56,499.82L1042.71,501.83L1044.28,504.53L1045.86,504.71L1047.43,503.19L1050.58,503.18L1052.16,503.15L1055.31,503.11L1056.88,501.28L1058.46,502.19L1060.03,501.18L1063.18,501.77L1064.76,503.14L1067.91,503.4L1069.48,505.82L1074.21,509.29L1075.78,511.17L1078.93,513.17L1080.51,513.4L1083.66,516.51L1085.23,517.9L1088.38,522.43L1089.96,523.72L1097.83,528.69L1099.41,527.91L1102.56,531.31L1104.13,532.88L1105.71,533.86L1107.28,533.01L1112.01,532.1L1113.58,530.02L1118.31,526.15L1119.88,525.17L1121.46,521.49L1123.04,520.5L1127.76,514.62L1129.33,512.19L1134.06,505.36L1135.64,502.16L1138.78,498.3L1140.36,495.2L1148.24,485.01L1149.81,483.05L1151.39,479.92L1152.96,479.48L1156.11,477.77L1157.69,475.35L1168.71,464.35L1170.29,464.59L1179.74,466.88L1181.31,466.25L1184.46,465.48L1186.04,465.69L1189.19,467.81L1190.76,468.5L1192.34,467.64L1193.91,469.73L1197.06,471.99L1198.64,476.78L1204.94,499.78L1206.51,504.6L1209.66,514.99L1211.24,523.33L1217.54,547.46L1219.11,553.4L1223.84,567.46L1225.42,569.29L1226.99,575.74L1228.57,579.04L1231.71,584.5L1233.29,589.52L1236.44,597.29L1238.02,602.48L1241.17,607.1L1242.74,608.85L1244.32,610.96L1245.89,614.74L1247.47,614.42L1249.04,616.15L1252.19,622.4L1253.77,625.27L1261.64,634.25L1263.22,635.36L1264.79,637.51L1266.37,638.27L1274.24,633.87L1275.82,631.05L1278.97,627.1L1280.54,626.19L1283.69,622.02L1285.27,621.71L1286.84,620.86L1288.42,621.1L1289.99,621.64L1291.57,620.5L1293.14,621.44L1294.72,620.94L1296.29,618.26L1297.87,617.31L1301.02,615.64L1302.59,613.72L1310.47,600.28L1312.04,597.18L1316.77,586.69L1318.34,583.19L1319.92,579.82L1321.49,573.08L1323.07,569.11L1324.65,562.81L1330.94,540.52L1332.52,538.02L1335.67,535.49L1337.25,533.43L1338.82,530.52L1340.4,529.35L1343.55,527.73L1345.12,527.34L1346.7,526.62L1348.27,527.46L1349.85,526.44L1351.42,524.43L1356.15,519.1L1357.72,518.49L1359.3,516.26L1360.87,516.59L1362.45,517.48L1364.02,516.46L1365.6,516.09L1367.17,514.68L1368.75,512.59L1370.32,508.6L1373.47,504.09L1375.05,502.76L1376.62,503.29L1378.2,502.3L1379.77,503.44L1381.35,503.29L1382.92,504.07L1384.5,502.8L1387.65,501.2L1389.22,501.38L1392.37,502.04L1393.95,501.2L1398.67,501.55L1400.25,500.52L1401.82,499.1L1403.4,499.64L1406.55,499.67L1408.12,498.35L1409.7,498.97L1411.27,498.22L1414.42,498.28L1416,485.44" style="vector-effect: none; fill: none; stroke: rgb(171, 99, 250); stroke-opacity: 1; stroke-width: 3px; opacity: 1;"/></g><g class="points"/><g class="text"/></g><g class="trace scatter traceba9ea7" style="stroke-miterlimit: 2; opacity: 1;"><g class="fills"/><g class="errorbars"/><g class="lines"><path class="js-line" d="M0,574.32L4.73,569.28L6.3,566.04L9.45,558.4L11.03,556.76L15.75,540.06L17.33,536.19L20.48,526L22.05,521.51L28.35,501.48L29.93,494.62L33.08,478.93L34.65,474.71L39.38,447.17L40.95,434.57L45.68,400.82L47.25,390.72L48.83,384.97L50.4,374.74L53.55,359.48L55.13,350.35L59.85,329.46L61.43,322.26L80.33,228.12L81.91,225.72L83.48,216.1L85.06,215.37L86.63,203.93L88.21,204.65L89.78,202.57L91.36,203.39L92.93,212.23L94.51,214.44L96.08,222.49L97.66,221.18L99.23,231.76L100.81,236.98L102.38,243.06L103.96,245.53L105.53,245.69L107.11,248.21L108.68,240.86L110.26,245.53L111.83,245.27L113.41,237.67L114.98,237.82L116.56,227.22L118.13,227.48L119.71,218.49L121.28,221.24L122.86,230.87L124.43,239.25L126.01,252.25L129.16,288.36L130.73,309.06L132.31,316.02L133.88,330.03L137.03,342.2L138.61,341.81L141.76,348.05L143.33,349.49L144.91,349.92L146.48,351.8L148.06,352.04L149.64,355.21L151.21,360.25L152.78,367.9L154.36,355.2L155.93,355.3L157.51,350.85L159.09,352.6L160.66,351.6L162.23,355.96L165.38,368.37L166.96,371.99L168.54,373.16L170.11,379.7L173.26,396.58L174.84,399.24L176.41,400.59L177.99,400.74L181.14,411.22L182.71,406.51L184.29,401.76L185.86,403.02L187.44,402.81L189.01,399.31L190.59,399.56L192.16,395.32L193.74,401.62L195.31,402.11L196.89,404.5L198.46,414.92L200.04,415.83L201.61,420.58L204.76,419.13L206.34,422.27L211.06,416.79L212.64,417.26L214.21,413.28L215.79,411.48L217.36,413.67L218.94,413.02L223.66,407.9L225.24,407.93L229.96,413.54L231.54,420.46L234.69,432.92L236.26,436.17L242.56,455.61L244.14,462.57L245.71,476.9L247.29,482.56L248.86,488.27L250.44,489L252.01,485.97L253.59,488.63L255.16,485.07L256.74,488.29L258.32,484.01L259.89,485.62L261.47,480.71L263.04,481.17L264.61,478.62L266.19,472.32L267.77,470.66L269.34,463.28L274.07,450.31L275.64,451.27L277.22,451L278.79,449.29L280.37,448.52L281.94,444.76L283.52,443.52L285.09,438.16L286.67,439.53L288.24,439.78L289.82,442.18L291.39,441.67L292.97,443.77L294.54,440.41L296.12,439.07L297.69,440.4L299.27,436.19L300.84,429.04L302.42,422.03L303.99,422.15L305.57,414.91L307.14,413.34L308.72,415.97L310.29,412.46L311.87,414.29L313.44,411.78L315.02,404.83L316.59,404.99L318.17,399.5L319.74,397.05L321.32,394.51L322.89,393.51L327.62,388.14L329.19,383.58L330.77,383.67L332.34,386.89L337.07,381.41L338.64,382.66L341.8,376.82L343.37,378.41L344.94,378.87L346.52,376.9L348.09,377.19L349.67,372.79L355.97,360.6L357.54,363.35L359.12,357.99L360.7,357.18L362.27,357.52L363.85,352.88L370.15,356.19L371.72,357.65L373.3,358.96L374.87,359.12L378.02,360.87L379.6,359.58L381.17,358.95L382.75,357.43L384.32,357.41L385.9,359.56L390.62,366.79L392.2,372.5L393.77,376.3L395.35,382.11L400.07,399.41L401.65,401.62L404.8,407.94L406.37,409.56L407.95,414.94L409.52,416.63L411.1,419.75L412.67,419.86L415.82,424.9L417.4,425.92L420.55,429.4L422.12,428.53L423.7,427.36L425.27,424.75L433.15,417.24L434.72,416.33L436.3,415.16L437.87,412.72L442.6,410.33L444.18,408.65L450.48,407.69L452.05,408.51L456.78,407.39L458.35,406.06L459.93,406.15L461.5,404.77L464.65,404.97L466.23,402.16L467.8,401.57L469.38,394.85L472.53,391.43L474.1,385.04L477.25,380.74L478.83,376.22L481.98,372.46L483.55,369.23L485.13,367.54L486.7,368.78L488.28,366.89L489.85,369.9L491.43,369.55L493,372.83L494.58,372.34L496.15,374.61L499.3,375.08L500.88,375.72L504.03,375.78L505.6,374.17L508.75,375.2L510.33,375.96L515.05,378.67L516.63,380.92L519.78,381.8L521.35,382.95L527.65,385.18L529.23,384.72L535.53,383.93L537.1,384.76L541.83,386.81L543.41,387.21L544.98,388.28L546.55,388.01L556.01,395.46L557.58,395.68L559.16,397.67L560.73,398.32L562.31,398.54L563.88,397.83L570.18,398.6L571.76,398.36L573.33,397.79L574.91,398.59L578.06,400.19L579.63,400.73L581.21,402.06L582.78,401.79L584.36,402.31L585.93,401.51L590.66,401.42L592.23,401.82L595.38,402.48L596.96,401.32L598.53,400.98L600.11,399.85L604.83,398.77L606.41,399.46L609.56,400.98L611.13,401.64L614.28,404.03L615.86,404.76L620.58,409.12L622.16,409.56L625.31,412.47L626.88,413.08L634.76,416.76L636.34,415.55L637.91,417.42L639.48,417.02L645.79,422.42L647.36,424.56L650.51,428L652.09,428.97L661.54,439.88L663.11,441.18L664.69,440.7L666.26,441.27L667.84,441.38L669.41,443.04L674.14,443.69L675.71,443.12L677.29,444.24L678.86,444.14L680.44,446.2L682.01,447.01L683.59,446.9L685.16,447.99L688.31,450.55L689.89,453.52L691.46,453.27L693.04,454.46L694.61,455.68L696.19,455.28L697.76,455.53L699.34,457.41L704.06,459.64L705.64,462.45L708.79,466.98L710.36,468.14L715.09,476.17L716.66,476.56L718.24,479.25L719.81,480.15L722.96,481.58L724.54,481.61L726.11,481.78L727.69,480.35L729.26,481.28L730.84,481.1L732.41,480.4L733.99,481.32L735.57,479.83L737.14,481.37L740.29,483.41L741.86,485.65L751.32,494.73L752.89,496.46L757.62,500.33L759.19,502.55L770.22,511.95L771.79,513.52L776.52,517.3L778.09,518.98L784.39,523.67L785.97,525.36L790.69,527.98L792.27,528.43L793.84,527.37L795.42,527.28L800.14,527.16L801.72,527.04L806.44,527.95L808.02,529.36L812.74,532.33L814.32,533.16L822.19,539.27L823.77,541.52L830.07,549.93L831.64,550.74L836.37,553.3L837.95,553.6L841.1,555.64L842.67,556.79L847.4,561.69L848.97,562.73L852.12,565.71L853.7,566.24L855.27,566.21L856.85,565.42L858.42,564.34L860,558.95L861.57,556.81L863.15,556.74L864.72,556.95L866.3,558.42L867.87,558.92L869.45,560.34L871.02,559.88L872.6,560.69L874.17,562.26L875.75,561.97L878.9,562.47L880.47,562.2L882.05,562.7L883.62,561.64L886.77,561.35L888.35,561.08L894.65,555.2L896.22,553.71L899.37,547.74L900.95,545.49L904.1,542.43L905.67,539.91L910.4,535.14L911.97,531.95L916.7,527.08L918.27,525.01L919.85,524.86L921.42,522.24L924.57,515.18L926.15,513.05L927.73,511.39L929.3,508.56L930.88,505.33L932.45,504.29L934.02,504.46L935.6,503.07L938.75,501.72L940.33,502.12L941.9,501.99L943.48,500.96L945.05,499.3L946.63,499.46L949.78,497.99L951.35,497.09L956.08,498.1L957.65,496.99L959.23,495.99L960.8,495.93L963.95,493.69L965.53,491.15L967.1,488L968.68,486.89L970.25,484.79L971.83,484L976.55,478.92L978.13,479.08L981.28,476.35L982.85,475.89L986,473.85L987.58,472.98L990.73,469.41L992.3,468.85L995.45,467.81L997.03,468.08L1000.18,470.32L1001.75,470.98L1003.33,471.76L1004.9,473.83L1008.05,474.79L1009.63,477.38L1014.35,474.84L1015.93,474.88L1017.5,472.85L1019.08,472.22L1026.96,466.38L1028.53,466.34L1031.68,470.17L1033.25,469.85L1034.83,474.98L1036.41,476.1L1037.98,478.31L1039.56,478.51L1042.71,475.78L1044.28,476.49L1045.86,474.43L1047.43,474.14L1050.58,473.1L1052.16,473.49L1053.73,472.59L1055.31,470.79L1058.46,468.87L1060.03,469.18L1069.48,476.81L1071.06,478.67L1075.78,483.1L1077.36,485.18L1078.93,486.57L1080.51,489.02L1083.66,492.25L1085.23,495.44L1086.81,496.27L1088.38,498.75L1089.96,498.68L1091.53,500.41L1093.11,501.28L1094.68,503.15L1099.41,509.53L1100.98,509.76L1102.56,510.8L1104.13,510.32L1105.71,510.87L1107.28,510.62L1110.43,504.91L1112.01,502.24L1118.31,498.94L1119.89,498.74L1129.34,496.71L1130.91,496.93L1132.49,496.4L1134.06,494.33L1137.21,490.11L1138.79,488.23L1141.94,488.09L1143.51,488.91L1146.66,492.88L1148.24,494.28L1149.81,495.1L1151.39,497.03L1159.26,506.24L1160.84,508.69L1171.86,528.14L1173.44,530.11L1181.31,534.02L1182.89,534.95L1184.46,537.23L1186.04,537.19L1190.76,536.76L1192.34,537.35L1193.91,540.61L1195.49,541.1L1197.06,542.69L1198.64,545.44L1200.21,547.96L1201.79,552.54L1203.37,554.66L1204.94,558.25L1208.09,561.83L1209.66,562.82L1211.24,563.26L1212.82,562.59L1214.39,562.66L1215.96,564.88L1217.54,566.3L1219.11,566.69L1220.69,567.76L1222.27,570.12L1223.84,569.6L1225.42,572.46L1228.57,573.56L1230.14,573.59L1233.29,570.21L1234.87,571.37L1238.02,570.67L1239.59,571.05L1244.32,569.94L1245.89,568.81L1247.47,568.24L1249.04,566.87L1250.62,565.82L1252.19,562.86L1255.34,562.94L1256.92,563.68L1267.94,551.93L1269.52,549.64L1271.09,548.28L1272.67,545.16L1274.24,539.99L1275.82,537.78L1278.97,531.46L1280.54,527.39L1282.12,525.54L1283.69,521.32L1286.85,519.97L1288.42,516.9L1294.72,514.62L1296.29,512.61L1299.44,509.42L1301.02,508.88L1304.17,507.48L1305.75,507.47L1308.89,507.35L1310.47,508.4L1316.77,509.65L1318.35,510.83L1319.92,512.07L1321.5,511.91L1323.07,512.1L1324.65,511.31L1326.22,511.94L1327.8,513.79L1332.52,511.97L1334.1,513.27L1335.67,512.51L1337.25,513.02L1341.97,512.96L1343.55,510.62L1345.12,508.85L1346.7,505.77L1348.27,503.89L1349.85,500.64L1353,495.02L1354.57,493.94L1357.72,493.64L1359.3,495.46L1360.87,495.25L1362.45,495.88L1364.02,495.75L1365.6,496.53L1367.17,497.91L1368.75,497.93L1370.32,498.97L1371.9,498.52L1373.47,499.58L1375.05,499.42L1384.5,497.99L1386.07,499.21L1395.52,494.81L1397.1,495.25L1398.67,495.55L1400.25,498.32L1409.7,503.33L1411.27,503.04L1416,504.15" style="vector-effect: none; fill: none; stroke: rgb(255, 161, 90); stroke-opacity: 1; stroke-width: 3px; opacity: 1;"/></g><g class="points"/><g class="text"/></g></g></g></g><path class="xlines-above crisp" d="M0,0" style="fill: none;"/><path class="ylines-above crisp" d="M0,0" style="fill: none;"/><g class="overlines-above"/><g class="xaxislayer-above"><g class="xtick"><text text-anchor="middle" x="0" y="841" transform="translate(259.93,0)" style="font-family: 'Open Sans', verdana, arial, sans-serif; font-size: 20px; fill: rgb(42, 63, 95); fill-opacity: 1; white-space: pre; opacity: 1;">2</text></g><g class="xtick"><text text-anchor="middle" x="0" y="841" style="font-family: 'Open Sans', verdana, arial, sans-serif; font-size: 20px; fill: rgb(42, 63, 95); fill-opacity: 1; white-space: pre; opacity: 1;" transform="translate(417.44,0)">4</text></g><g class="xtick"><text text-anchor="middle" x="0" y="841" style="font-family: 'Open Sans', verdana, arial, sans-serif; font-size: 20px; fill: rgb(42, 63, 95); fill-opacity: 1; white-space: pre; opacity: 1;" transform="translate(574.95,0)">6</text></g><g class="xtick"><text text-anchor="middle" x="0" y="841" style="font-family: 'Open Sans', verdana, arial, sans-serif; font-size: 20px; fill: rgb(42, 63, 95); fill-opacity: 1; white-space: pre; opacity: 1;" transform="translate(732.46,0)">8</text></g><g class="xtick"><text text-anchor="middle" x="0" y="841" style="font-family: 'Open Sans', verdana, arial, sans-serif; font-size: 20px; fill: rgb(42, 63, 95); fill-opacity: 1; white-space: pre; opacity: 1;" transform="translate(889.97,0)">10</text></g><g class="xtick"><text text-anchor="middle" x="0" y="841" style="font-family: 'Open Sans', verdana, arial, sans-serif; font-size: 20px; fill: rgb(42, 63, 95); fill-opacity: 1; white-space: pre; opacity: 1;" transform="translate(1047.48,0)">12</text></g><g class="xtick"><text text-anchor="middle" x="0" y="841" style="font-family: 'Open Sans', verdana, arial, sans-serif; font-size: 20px; fill: rgb(42, 63, 95); fill-opacity: 1; white-space: pre; opacity: 1;" transform="translate(1204.98,0)">14</text></g><g class="xtick"><text text-anchor="middle" x="0" y="841" style="font-family: 'Open Sans', verdana, arial, sans-serif; font-size: 20px; fill: rgb(42, 63, 95); fill-opacity: 1; white-space: pre; opacity: 1;" transform="translate(1362.49,0)">16</text></g><g class="xtick"><text text-anchor="middle" x="0" y="841" style="font-family: 'Open Sans', verdana, arial, sans-serif; font-size: 20px; fill: rgb(42, 63, 95); fill-opacity: 1; white-space: pre; opacity: 1;" transform="translate(1520,0)">18</text></g></g><g class="yaxislayer-above"><g class="ytick"><text text-anchor="end" x="103" y="7" transform="translate(0,768.61)" style="font-family: 'Open Sans', verdana, arial, sans-serif; font-size: 20px; fill: rgb(42, 63, 95); fill-opacity: 1; white-space: pre; opacity: 1;">0.1</text></g><g class="ytick"><text text-anchor="end" x="103" y="7" style="font-family: 'Open Sans', verdana, arial, sans-serif; font-size: 20px; fill: rgb(42, 63, 95); fill-opacity: 1; white-space: pre; opacity: 1;" transform="translate(0,687.32)">0.05</text></g><g class="ytick"><text text-anchor="end" x="103" y="7" style="font-family: 'Open Sans', verdana, arial, sans-serif; font-size: 20px; fill: rgb(42, 63, 95); fill-opacity: 1; white-space: pre; opacity: 1;" transform="translate(0,606.03)">0</text></g><g class="ytick"><text text-anchor="end" x="103" y="7" style="font-family: 'Open Sans', verdana, arial, sans-serif; font-size: 20px; fill: rgb(42, 63, 95); fill-opacity: 1; white-space: pre; opacity: 1;" transform="translate(0,524.73)">0.05</text></g><g class="ytick"><text text-anchor="end" x="103" y="7" style="font-family: 'Open Sans', verdana, arial, sans-serif; font-size: 20px; fill: rgb(42, 63, 95); fill-opacity: 1; white-space: pre; opacity: 1;" transform="translate(0,443.44)">0.1</text></g><g class="ytick"><text text-anchor="end" x="103" y="7" style="font-family: 'Open Sans', verdana, arial, sans-serif; font-size: 20px; fill: rgb(42, 63, 95); fill-opacity: 1; white-space: pre; opacity: 1;" transform="translate(0,362.15)">0.15</text></g><g class="ytick"><text text-anchor="end" x="103" y="7" style="font-family: 'Open Sans', verdana, arial, sans-serif; font-size: 20px; fill: rgb(42, 63, 95); fill-opacity: 1; white-space: pre; opacity: 1;" transform="translate(0,280.86)">0.2</text></g><g class="ytick"><text text-anchor="end" x="103" y="7" style="font-family: 'Open Sans', verdana, arial, sans-serif; font-size: 20px; fill: rgb(42, 63, 95); fill-opacity: 1; white-space: pre; opacity: 1;" transform="translate(0,199.57)">0.25</text></g><g class="ytick"><text text-anchor="end" x="103" y="7" style="font-family: 'Open Sans', verdana, arial, sans-serif; font-size: 20px; fill: rgb(42, 63, 95); fill-opacity: 1; white-space: pre; opacity: 1;" transform="translate(0,118.28)">0.3</text></g></g><g class="overaxes-above"/></g></g><g class="polarlayer"/><g class="smithlayer"/><g class="ternarylayer"/><g class="geolayer"/><g class="funnelarealayer"/><g class="pielayer"/><g class="iciclelayer"/><g class="treemaplayer"/><g class="sunburstlayer"/><g class="glimages"/><defs id="topdefs-c071cc"><g class="clips"/><clipPath id="legendc071cc"><rect width="84" height="181" x="0" y="0"/></clipPath></defs><g class="layer-above"><g class="imagelayer"/><g class="shapelayer"/></g><g class="infolayer"><g class="legend" pointer-events="all" transform="translate(264.00800000000004,110.08000000000001)"><rect class="bg" shape-rendering="crispEdges" width="84" height="181" x="0" y="0" style="stroke: rgb(68, 68, 68); stroke-opacity: 1; fill: rgb(255, 255, 255); fill-opacity: 1; stroke-width: 0px;"/><g class="scrollbox" transform="" clip-path="url(#legendc071cc)"><g class="groups"><g class="traces" transform="translate(0,22.1)" style="opacity: 1;"><text class="legendtext" text-anchor="start" x="40" y="9.360000000000001" style="font-family: 'Open Sans', verdana, arial, sans-serif; font-size: 24px; fill: rgb(42, 63, 95); fill-opacity: 1; white-space: pre;">1m</text><g class="layers" style="opacity: 1;"><g class="legendfill"/><g class="legendlines"><path class="js-line" d="M5,0h30" style="fill: none; stroke: rgb(99, 110, 250); stroke-opacity: 1; stroke-width: 3px;"/></g><g class="legendsymbols"><g class="legendpoints"/></g></g><rect class="legendtoggle" x="0" y="-17.1" width="78.609375" height="34.2" style="fill: rgb(0, 0, 0); fill-opacity: 0;"/></g><g class="traces" transform="translate(0,56.300000000000004)" style="opacity: 1;"><text class="legendtext" text-anchor="start" x="40" y="9.360000000000001" style="font-family: 'Open Sans', verdana, arial, sans-serif; font-size: 24px; fill: rgb(42, 63, 95); fill-opacity: 1; white-space: pre;">2m</text><g class="layers" style="opacity: 1;"><g class="legendfill"/><g class="legendlines"><path class="js-line" d="M5,0h30" style="fill: none; stroke: rgb(239, 85, 59); stroke-opacity: 1; stroke-width: 3px;"/></g><g class="legendsymbols"><g class="legendpoints"/></g></g><rect class="legendtoggle" x="0" y="-17.1" width="78.609375" height="34.2" style="fill: rgb(0, 0, 0); fill-opacity: 0;"/></g><g class="traces" transform="translate(0,90.5)" style="opacity: 1;"><text class="legendtext" text-anchor="start" x="40" y="9.360000000000001" style="font-family: 'Open Sans', verdana, arial, sans-serif; font-size: 24px; fill: rgb(42, 63, 95); fill-opacity: 1; white-space: pre;">3m</text><g class="layers" style="opacity: 1;"><g class="legendfill"/><g class="legendlines"><path class="js-line" d="M5,0h30" style="fill: none; stroke: rgb(0, 204, 150); stroke-opacity: 1; stroke-width: 3px;"/></g><g class="legendsymbols"><g class="legendpoints"/></g></g><rect class="legendtoggle" x="0" y="-17.1" width="78.609375" height="34.2" style="fill: rgb(0, 0, 0); fill-opacity: 0;"/></g><g class="traces" transform="translate(0,124.70000000000002)" style="opacity: 1;"><text class="legendtext" text-anchor="start" x="40" y="9.360000000000001" style="font-family: 'Open Sans', verdana, arial, sans-serif; font-size: 24px; fill: rgb(42, 63, 95); fill-opacity: 1; white-space: pre;">4m</text><g class="layers" style="opacity: 1;"><g class="legendfill"/><g class="legendlines"><path class="js-line" d="M5,0h30" style="fill: none; stroke: rgb(171, 99, 250); stroke-opacity: 1; stroke-width: 3px;"/></g><g class="legendsymbols"><g class="legendpoints"/></g></g><rect class="legendtoggle" x="0" y="-17.1" width="78.609375" height="34.2" style="fill: rgb(0, 0, 0); fill-opacity: 0;"/></g><g class="traces" transform="translate(0,158.9)" style="opacity: 1;"><text class="legendtext" text-anchor="start" x="40" y="9.360000000000001" style="font-family: 'Open Sans', verdana, arial, sans-serif; font-size: 24px; fill: rgb(42, 63, 95); fill-opacity: 1; white-space: pre;">5m</text><g class="layers" style="opacity: 1;"><g class="legendfill"/><g class="legendlines"><path class="js-line" d="M5,0h30" style="fill: none; stroke: rgb(255, 161, 90); stroke-opacity: 1; stroke-width: 3px;"/></g><g class="legendsymbols"><g class="legendpoints"/></g></g><rect class="legendtoggle" x="0" y="-17.1" width="78.609375" height="34.2" style="fill: rgb(0, 0, 0); fill-opacity: 0;"/></g></g></g><rect class="scrollbar" rx="20" ry="3" width="0" height="0" x="0" y="0" style="fill: rgb(128, 139, 164); fill-opacity: 1;"/></g><g class="g-gtitle"><text class="gtitle" x="800" y="50" text-anchor="middle" dy="0.7em" style="opacity: 1; font-family: 'Open Sans', verdana, arial, sans-serif; font-size: 20px; fill: rgb(42, 63, 95); fill-opacity: 1; font-weight: bold; white-space: pre;">Yielding, Back and no eHMI</text></g><g class="g-xtitle"><text class="xtitle" x="812" y="873.5" text-anchor="middle" style="opacity: 1; font-family: 'Open Sans', verdana, arial, sans-serif; font-size: 20px; fill: rgb(42, 63, 95); fill-opacity: 1; white-space: pre;">Time (in seconds)</text></g><g class="g-ytitle" transform="translate(0.296875,0)"><text class="ytitle" transform="rotate(-90,19.703125,460)" x="19.703125" y="460" text-anchor="middle" style="opacity: 1; font-family: 'Open Sans', verdana, arial, sans-serif; font-size: 20px; fill: rgb(42, 63, 95); fill-opacity: 1; white-space: pre;">Yaw Angle (in radians)</text></g></g></svg>