<svg class="main-svg" xmlns="http://www.w3.org/2000/svg" xmlns:xlink="http://www.w3.org/1999/xlink" width="4800" height="2700" style="" viewBox="0 0 1600 900"><rect x="0" y="0" width="1600" height="900" style="fill: rgb(255, 255, 255); fill-opacity: 1;"/><defs id="defs-351edc"><g class="clips"><clipPath id="clip351edcxyplot" class="plotclip"><rect width="1429" height="720"/></clipPath><clipPath class="axesclip" id="clip351edcx"><rect x="91" y="0" width="1429" height="900"/></clipPath><clipPath class="axesclip" id="clip351edcy"><rect x="0" y="100" width="1600" height="720"/></clipPath><clipPath class="axesclip" id="clip351edcxy"><rect x="91" y="100" width="1429" height="720"/></clipPath></g><g class="gradients"/><g class="patterns"/></defs><g class="bglayer"><rect class="bg" x="91" y="100" width="1429" height="720" style="fill: rgb(229, 236, 246); fill-opacity: 1; stroke-width: 0;"/></g><g class="layer-below"><g class="imagelayer"/><g class="shapelayer"/></g><g class="cartesianlayer"><g class="subplot xy"><g class="layer-subplot"><g class="shapelayer"/><g class="imagelayer"/></g><g class="minor-gridlayer"><g class="x"/><g class="y"/></g><g class="gridlayer"><g class="x"><path class="xgrid crisp" transform="translate(248.37,0)" d="M0,100v720" style="stroke: rgb(255, 255, 255); stroke-opacity: 1; stroke-width: 1px;"/><path class="xgrid crisp" transform="translate(407.32,0)" d="M0,100v720" style="stroke: rgb(255, 255, 255); stroke-opacity: 1; stroke-width: 1px;"/><path class="xgrid crisp" transform="translate(566.27,0)" d="M0,100v720" style="stroke: rgb(255, 255, 255); stroke-opacity: 1; stroke-width: 1px;"/><path class="xgrid crisp" transform="translate(725.23,0)" d="M0,100v720" style="stroke: rgb(255, 255, 255); stroke-opacity: 1; stroke-width: 1px;"/><path class="xgrid crisp" transform="translate(884.18,0)" d="M0,100v720" style="stroke: rgb(255, 255, 255); stroke-opacity: 1; stroke-width: 1px;"/><path class="xgrid crisp" transform="translate(1043.1399999999999,0)" d="M0,100v720" style="stroke: rgb(255, 255, 255); stroke-opacity: 1; stroke-width: 1px;"/><path class="xgrid crisp" transform="translate(1202.09,0)" d="M0,100v720" style="stroke: rgb(255, 255, 255); stroke-opacity: 1; stroke-width: 1px;"/><path class="xgrid crisp" transform="translate(1361.05,0)" d="M0,100v720" style="stroke: rgb(255, 255, 255); stroke-opacity: 1; stroke-width: 1px;"/></g><g class="y"><path class="ygrid crisp" transform="translate(0,783.86)" d="M91,0h1429" style="stroke: rgb(255, 255, 255); stroke-opacity: 1; stroke-width: 1px;"/><path class="ygrid crisp" transform="translate(0,665.48)" d="M91,0h1429" style="stroke: rgb(255, 255, 255); stroke-opacity: 1; stroke-width: 1px;"/><path class="ygrid crisp" transform="translate(0,547.1)" d="M91,0h1429" style="stroke: rgb(255, 255, 255); stroke-opacity: 1; stroke-width: 1px;"/><path class="ygrid crisp" transform="translate(0,310.35)" d="M91,0h1429" style="stroke: rgb(255, 255, 255); stroke-opacity: 1; stroke-width: 1px;"/><path class="ygrid crisp" transform="translate(0,191.97)" d="M91,0h1429" style="stroke: rgb(255, 255, 255); stroke-opacity: 1; stroke-width: 1px;"/></g></g><g class="zerolinelayer"><path class="yzl zl crisp" transform="translate(0,428.72)" d="M91,0h1429" style="stroke: rgb(255, 255, 255); stroke-opacity: 1; stroke-width: 2px;"/></g><g class="layer-between"><g class="shapelayer"/><g class="imagelayer"/></g><path class="xlines-below"/><path class="ylines-below"/><g class="overlines-below"/><g class="xaxislayer-below"/><g class="yaxislayer-below"/><g class="overaxes-below"/><g class="overplot"><g class="xy" transform="translate(91,100)" clip-path="url(#clip351edcxyplot)"><g class="scatterlayer mlayer"><g class="trace scatter trace227150" style="stroke-miterlimit: 2; opacity: 1;"><g class="fills"/><g class="errorbars"/><g class="lines"><path class="js-line" d="M0,354.87L4.77,349.4L6.36,348.71L9.54,344.12L11.13,342.78L15.9,336.82L17.49,336.44L20.67,334.24L22.26,334.64L25.43,329.97L27.02,326.88L28.61,324.35L30.2,318.03L31.79,314.21L33.38,304.79L34.97,298.48L36.56,287.76L39.74,276.04L41.33,263.26L44.51,237.54L46.1,232.11L49.28,218.79L50.87,218.1L54.05,212.08L55.64,213.62L60.4,211.16L61.99,208.55L63.59,202.81L65.17,200.65L66.76,195.03L68.35,193.86L69.94,191.34L71.53,190.26L73.12,192.85L74.71,187.3L76.3,191.02L77.89,186.68L79.48,189.14L81.07,184.68L82.66,182.37L84.25,184.47L85.84,178.75L87.43,178.41L90.61,188.39L92.2,195.75L93.79,197.07L95.38,185.68L98.55,179.95L100.14,172.48L101.73,168.83L103.32,170.42L104.91,165.92L106.5,170.76L108.09,168.73L109.68,160.25L111.27,166.84L112.86,165.51L114.45,166.13L116.04,180.25L117.63,189.29L119.22,191.16L120.81,204.26L122.4,209.64L123.99,214.28L125.58,227.37L127.17,249.52L128.75,251.63L130.34,254.6L131.94,264.2L133.52,274.77L135.11,291.95L136.7,296.77L138.29,294.56L141.47,304.2L143.06,287.37L144.65,289.4L146.24,271.48L149.42,276.39L151.01,264.53L152.6,268.58L154.19,275.23L155.78,271.88L157.37,272.69L160.55,268.15L162.14,263.03L163.73,254.42L165.31,252.64L166.91,241.53L168.49,238.35L170.08,231.6L171.67,230.63L173.26,223.66L174.85,223.75L176.44,207.44L178.03,208.66L179.62,184.15L181.21,185.33L182.8,185.69L184.39,201.59L185.98,194.68L187.57,181.37L190.75,153.23L192.34,147.65L193.93,127.69L195.52,130.67L197.1,116.7L198.69,118.74L200.28,123.43L201.87,124.95L203.46,128.67L205.05,140.69L208.23,171.01L209.82,171.26L213,193.37L214.59,198.32L216.18,193.56L217.77,196.01L219.36,193.59L220.95,195.2L222.54,187.74L224.13,183.92L225.72,189.45L227.31,188.33L228.9,193.41L230.49,191.58L232.08,191.57L233.66,190.52L235.25,185.55L236.84,183.71L241.61,174.7L243.2,168.83L244.79,158.5L246.38,157.05L249.56,153.91L251.15,156.03L254.33,155.06L255.92,153.17L259.1,163.25L260.69,165.52L263.87,168.48L265.46,160.63L267.04,155.69L268.63,160.17L270.22,153.08L271.82,150.65L273.4,149.83L274.99,152.46L276.58,156.48L278.17,153.88L279.76,162.25L281.35,165.9L284.53,175.79L286.12,173.26L289.3,174.49L290.89,160.48L294.07,157.72L295.66,158.5L297.25,160.14L298.84,160.21L300.43,161.76L302.02,159.03L305.19,152.13L306.78,155.9L308.37,145.9L309.96,149.46L311.55,144.39L313.14,144.59L321.09,163.35L322.68,169.87L327.45,182.03L329.04,182.83L330.63,184.84L332.22,183.87L335.4,175.98L336.98,171.4L340.16,169.72L341.75,164.62L344.93,166.93L346.52,170.12L351.29,182.09L352.88,189.24L354.47,192.9L356.06,201.4L360.83,211.43L362.42,218.34L368.78,231.89L370.37,240.83L376.72,256.11L378.31,259.77L379.9,262.32L381.49,267.29L383.08,270.31L384.67,275.67L387.85,282.09L389.44,283.49L391.03,285.2L392.62,285.59L394.21,284.37L395.8,287.56L397.39,287.29L398.98,288.55L402.16,291.12L403.75,294.21L408.51,299.47L410.1,303.62L411.69,305.35L413.28,305.36L414.87,306.84L416.46,305.66L418.05,307.93L419.64,307.42L422.82,305.58L424.41,303.17L427.59,301.79L429.18,303.16L432.36,299.58L433.95,299.31L438.72,301.54L440.31,301.71L441.9,302.02L443.48,299.8L446.66,294.34L448.25,292.85L451.43,293.62L453.02,293.59L454.61,291.7L456.2,292.28L459.38,295.31L460.97,295.48L464.15,297.51L465.74,296.97L468.92,289.76L470.51,285.61L473.69,283.13L475.27,280.87L476.86,278.26L478.45,279.4L481.63,281.58L483.22,284.69L484.81,286.93L486.4,287.82L487.99,287.9L489.58,285.99L491.17,285.99L492.76,284.13L494.35,284.32L495.94,286.3L497.53,285.4L499.12,290.36L500.71,291.71L502.3,294.07L503.89,295.75L505.48,293.67L507.07,295.24L508.66,298.39L511.83,307.15L513.42,305.45L515.01,305.45L516.6,302.84L518.19,296.87L519.78,294.49L526.14,281.84L527.73,282.71L530.91,283.15L532.5,288.19L535.68,290.06L537.27,292.13L540.45,293.59L542.04,296.68L545.21,302.2L546.8,303.51L549.99,308.73L551.57,307.68L553.16,305.92L554.75,309.1L557.93,306.53L559.52,307.71L562.7,305.13L564.29,305.5L565.88,304.03L567.47,304.78L570.65,304.71L572.24,305.29L573.83,306.31L575.42,305.5L577.01,307.44L578.6,308.07L580.19,311.13L581.77,311.31L583.36,310.62L584.95,313.47L586.54,314.4L588.13,316.65L591.31,317.56L592.9,316.35L596.08,317.51L597.67,317.56L600.85,315.61L602.44,313.41L604.03,311.92L605.62,312.4L608.8,311.44L610.39,312.34L611.98,312.5L613.57,314.73L616.74,316.7L618.33,319.75L624.69,328.86L626.28,332.52L627.87,335.27L629.46,336.18L631.05,335.94L632.64,337.93L634.23,336.77L635.82,338.55L639,339.26L640.59,340.98L645.35,346.04L646.95,346.42L659.66,357.4L661.25,358.31L664.43,360.27L666.02,360.65L673.97,368.39L675.56,370.15L677.15,371.94L678.74,372.55L680.33,373.14L681.92,372.24L685.09,370.68L686.68,370.08L689.86,369.37L691.45,369.47L697.81,369.37L699.4,368.32L700.99,366.88L702.58,366.78L704.17,364.99L705.76,365.04L707.35,363.92L708.94,363.89L710.53,363.95L712.12,362.98L713.71,363.04L715.29,362.12L716.89,362.18L718.48,360.27L724.83,358.9L726.42,356.43L728.01,356.83L729.6,355.58L731.19,355.49L732.78,350.7L739.14,350.95L740.73,349.98L742.32,351.01L743.91,355.62L747.09,359.99L748.68,361.48L753.44,362.35L755.03,362.63L758.21,363.51L759.8,363.86L764.57,366.9L766.16,367.36L769.34,368.01L770.93,368.66L775.7,369.72L777.29,369.35L780.47,368.89L782.06,368.04L783.65,367.14L785.23,365.29L791.59,363.07L793.18,362.84L797.95,363.07L799.54,363.04L802.72,362.49L804.31,362.91L815.44,357.74L817.03,357.25L820.21,357.8L821.8,358.3L831.33,365.94L832.92,367.4L836.1,368.59L837.69,367.74L840.87,368.34L842.46,367.88L845.64,368.93L847.23,370.4L850.41,371.92L852,372.95L853.59,375.21L855.18,375.99L863.12,379.52L864.71,379.84L869.48,382.21L871.07,381.62L877.43,382.48L879.02,383.63L880.61,384.3L882.2,387.37L888.56,393.29L890.15,393.06L893.32,392.44L894.91,393.19L898.09,393.65L899.68,393.33L902.86,392.97L904.45,393.36L906.04,393.41L907.63,392.53L909.22,391.51L910.81,389.53L912.4,388.76L913.99,386.43L915.58,384.53L917.17,380.94L920.35,380.62L921.94,379.37L925.12,377.51L926.71,377.02L929.88,373.89L931.47,373.46L939.42,371.38L941.01,370.87L942.6,372.58L944.19,373.05L945.78,373.82L947.37,375.81L950.55,375.5L952.14,374.12L958.5,368.59L960.09,367.56L964.85,363.53L966.44,361.16L969.62,357.73L971.21,356.32L975.98,349.51L977.57,346.92L982.34,342.53L983.93,341.6L990.29,339.71L991.88,339.78L996.65,336.25L998.24,335.42L1003,334.4L1004.59,335.14L1007.77,335.77L1009.36,337.08L1012.54,339.08L1014.13,340.1L1015.72,340.43L1017.31,341.65L1018.9,342.46L1020.49,344.16L1022.08,344.97L1023.67,347.88L1025.26,349.25L1026.85,351.81L1031.61,359.35L1033.2,359.39L1039.56,364.09L1041.15,364.73L1045.92,369.77L1047.51,370.41L1052.28,373.59L1053.87,374.06L1055.46,373.96L1057.05,377.94L1061.82,387.75L1063.4,389.28L1065,389.97L1066.59,391.83L1068.17,393L1069.76,392.17L1071.35,394.17L1072.94,394L1079.3,394.08L1080.89,393.68L1082.48,393.64L1084.07,394.53L1085.66,393.56L1087.25,395.26L1088.84,395.12L1090.43,396.8L1092.02,394.97L1093.61,396.06L1095.2,393.59L1096.79,392.99L1098.38,391.98L1099.97,389.9L1101.55,389.41L1103.14,384.66L1104.73,383.76L1106.32,377.76L1107.91,375.61L1109.5,374.84L1111.09,373.83L1112.68,376.21L1117.45,379.9L1119.04,383.13L1120.63,386.48L1122.22,387.72L1123.81,389.54L1125.4,390.14L1126.99,392.56L1128.58,392.48L1133.35,394.69L1134.94,397.22L1136.53,396.23L1138.11,397.02L1139.7,396.76L1141.29,397.79L1146.06,393.05L1147.65,391.27L1150.83,386.24L1152.42,380.21L1154.01,378.02L1155.6,374.29L1160.37,367.59L1161.96,365.87L1163.55,362.89L1165.14,362.21L1168.32,362.31L1169.91,361.63L1173.08,362.91L1174.67,361.62L1177.85,359.44L1179.44,357.25L1182.62,353.95L1184.21,353.15L1185.8,347.63L1187.39,346.72L1188.98,347.19L1190.57,348.55L1192.16,348.42L1193.75,352.86L1195.34,355.65L1196.93,361.17L1198.52,362.25L1200.11,362.17L1201.69,365.57L1203.29,364.06L1206.47,363.26L1208.05,364.28L1209.64,364.57L1211.23,366.36L1212.82,368.38L1214.41,371.88L1217.59,369.41L1219.18,373.29L1222.36,369.07L1223.95,368.32L1225.54,365.73L1227.13,365.93L1230.31,358.65L1231.9,351.89L1235.08,342.09L1236.67,340.29L1238.26,337.12L1239.85,330.19L1241.43,326.3L1243.02,320.38L1244.61,317.56L1246.2,312.06L1247.79,305L1249.38,294.35L1254.15,284.77L1255.74,283.77L1258.92,287.24L1260.51,288.39L1262.1,290.52L1263.69,290.35L1265.28,291.74L1266.87,290.45L1268.46,293.3L1270.05,294.32L1271.63,295.41L1273.23,294.46L1277.99,298.05L1279.59,298.54L1281.17,292.45L1282.76,291.71L1289.12,285.13L1290.71,285.91L1292.3,286.31L1293.89,288.18L1298.66,291.25L1300.25,290.87L1303.43,292.2L1305.02,295.84L1306.61,294.68L1308.2,292.29L1309.78,288.58L1311.37,287.74L1317.73,278.25L1319.32,277.52L1322.5,274.42L1324.09,272.68L1330.45,262.6L1332.04,261.37L1336.81,252.2L1338.4,251.95L1341.57,248.59L1343.17,248.29L1344.76,247.28L1346.34,247.55L1347.93,248.37L1349.52,250.23L1354.29,257.57L1355.88,253L1357.47,244.31L1359.06,187.03L1360.65,151.9L1362.24,99.35L1365.42,69.11L1367.01,64.87L1370.19,54.36L1371.78,53.19L1374.96,52.74L1376.55,51.4L1378.14,50.99L1379.72,48.58L1382.9,46.99L1384.49,44.67L1389.26,42.02L1390.85,39.51L1394.03,37.53L1395.62,36.11L1398.8,36.22L1400.39,37.16L1403.57,38.67L1405.16,41.74L1408.34,45.75L1409.93,51.12L1411.52,54.28L1413.11,62.16L1414.7,61.31L1416.28,68.87L1417.87,86.8L1419.46,113.72L1421.05,115.85L1422.64,109.33L1425.82,90.66L1427.41,84.94L1429,83.33" style="vector-effect: none; fill: none; stroke: rgb(99, 110, 250); stroke-opacity: 1; stroke-width: 3px; opacity: 1;"/></g><g class="points"/><g class="text"/></g><g class="trace scatter trace271db1" style="stroke-miterlimit: 2; opacity: 1;"><g class="fills"/><g class="errorbars"/><g class="lines"><path class="js-line" d="M0,338.99L3.18,342.87L4.77,343.16L6.36,343.33L7.95,346.39L12.72,346.19L14.31,347.17L19.08,347.67L20.66,345.07L22.25,344.68L23.84,345.07L25.43,345.57L27.02,342.14L28.61,341.95L30.2,339.32L33.38,339.02L34.97,334.5L36.56,334.14L38.15,326.61L39.74,319.97L41.33,322.16L46.1,314.78L47.69,313.64L49.28,310.25L50.87,310.73L54.05,303.33L55.64,298.34L57.23,292.4L58.81,290.49L60.4,285.15L61.99,283.67L63.58,276.98L65.17,275.49L66.76,274.12L68.35,271.39L69.94,269.92L71.53,267.02L74.71,262.42L76.3,262.38L77.89,254.3L79.48,252.89L82.66,244.88L84.25,239.24L87.43,233.34L89.01,224.38L90.6,222.98L92.19,218.06L93.78,217.28L95.38,208.03L98.55,203.54L100.14,203.54L101.73,201.36L103.32,203.09L104.91,205.23L106.5,206.04L111.27,236.48L112.86,250.49L114.45,279.58L116.04,287.95L117.63,278.3L119.22,262.59L122.4,238.89L123.99,234.24L125.58,229.83L127.17,227.7L128.75,219.47L130.34,216.05L131.93,211.76L133.52,210.7L136.7,205.9L138.29,205.13L139.88,208.83L141.47,209.24L143.06,212.73L144.65,220.68L151.01,245.81L152.6,250.46L154.19,259.87L155.78,263.75L158.95,275.21L160.54,281.51L163.73,291.07L165.31,296.57L166.9,300.29L168.49,308.25L171.67,316.66L173.26,326.62L176.44,340.26L178.03,341.78L182.8,356.21L184.39,356.07L190.75,356.79L192.34,359.81L193.93,364.84L195.52,365.54L200.28,364.56L201.87,365.05L203.46,366.39L205.05,370.91L206.64,374.75L208.23,375.77L209.82,376.48L211.41,396.58L214.59,416.92L216.18,421.95L219.36,426.52L220.95,425.15L222.54,427.77L224.13,426.04L225.72,436.37L227.31,425.81L228.89,420.66L230.48,422.07L232.07,420.68L233.66,416.97L238.43,415.34L240.02,421.04L241.61,422.44L243.2,420.68L244.79,426.15L246.38,427.15L251.15,424.92L252.74,422.83L255.92,414.41L257.51,413.17L259.1,412.55L260.69,406.57L262.28,402.55L263.87,402.1L265.46,399.44L267.05,399.25L268.63,393.53L270.22,391.2L271.81,387.16L273.4,386.33L276.58,383.96L278.17,377.81L279.76,379.39L281.35,374.35L282.94,372.36L284.53,367.16L286.12,365.73L287.71,357.45L290.89,348.85L292.48,347.65L297.25,341.25L298.83,341.37L303.6,341.77L305.19,336.77L306.78,334.68L308.37,330.31L313.14,320.45L314.73,320.57L316.32,320.68L317.91,321.86L321.09,325.74L322.68,325.94L324.27,326.76L325.86,324.27L330.63,318.53L332.22,317.52L333.81,317.04L335.4,319.59L340.16,328.98L341.75,330.06L343.34,328.92L344.93,328.76L346.52,329.73L348.11,329.49L349.7,330.92L351.29,326.7L352.88,325.48L354.47,319.6L356.06,319.91L357.65,322.26L360.83,321.52L362.42,319.46L364.01,318.29L365.6,310.57L368.77,303.03L370.36,302.53L371.95,302.06L373.54,305.93L376.72,308.06L378.31,307.91L381.49,309.39L383.08,306.13L384.67,305.56L386.26,304.05L387.85,302.29L389.44,303.6L391.03,304.11L392.62,305.77L394.21,307.69L395.8,306.61L397.39,308.12L398.98,312L400.57,311.46L402.16,312.51L403.75,313.54L405.34,316.97L411.69,315.5L413.28,316.05L414.87,311.94L416.46,313.25L419.64,309.47L421.23,311.15L422.82,313.55L424.41,312.75L426,308.97L427.59,308.42L429.18,307.39L430.77,305.23L432.36,307.47L433.95,304.09L435.54,303.74L437.12,301.93L440.3,304.41L441.89,302.17L443.48,301.41L445.07,302.34L446.66,304.58L448.25,305.36L449.84,304.33L451.43,307.21L453.02,311.7L454.61,310.45L456.2,307.42L457.79,307.89L462.56,315.54L464.15,322.57L465.74,325.37L467.33,330.39L472.1,341.53L473.69,343.01L476.86,346.7L478.45,346.53L480.04,345.61L481.63,343.24L483.22,342.73L484.81,340.11L486.4,338.1L487.99,337.9L489.58,337.11L491.17,337.66L497.53,339.79L499.12,341.21L500.71,341.43L502.3,342.58L505.48,345.87L507.06,347.22L513.42,351.2L515.01,351.04L516.6,350.44L518.19,351.58L521.37,352.16L522.96,353.13L524.55,355.49L526.14,355.19L529.32,354.6L530.91,356.19L535.68,359.63L537.27,362.15L538.86,366.2L540.45,367.96L542.04,369.59L543.63,372.66L548.39,377.44L549.98,378.07L553.16,380.19L554.75,380.73L557.93,379.84L559.52,378.32L561.11,373.39L562.7,371.03L565.88,363.9L567.47,362.98L570.65,367.21L572.24,371.25L573.83,372.25L575.42,376.18L577,376.53L578.59,378.42L580.18,381.49L581.77,382.04L583.36,383.32L584.95,381.23L588.13,375.32L589.72,371.11L592.9,366.31L594.49,362.23L597.67,360.63L599.26,361.06L600.85,361.53L602.44,364.27L604.03,365.93L605.62,368.71L608.8,372.52L610.39,372.96L613.56,374.06L615.15,371.29L621.51,363.07L623.1,359.8L626.28,355.71L627.87,354.59L629.46,353.66L631.05,351.86L635.82,350.17L637.41,349.67L643.77,344.21L645.35,339.45L646.94,337.17L648.53,332.39L650.12,330.77L651.71,325.69L653.3,323.67L654.89,320.16L658.07,319.19L659.66,317.42L662.84,317.1L664.43,318.86L666.02,319.65L667.61,321.52L669.2,324.47L670.79,325.27L673.97,334.69L675.56,335.9L677.15,338.41L678.74,338.43L680.33,337.94L681.92,338.4L683.51,338.17L685.09,339.73L691.45,340.71L693.04,341.74L696.22,341.27L697.81,341.93L705.76,352.21L707.35,352.83L710.53,356.99L712.12,357.59L715.29,357.4L716.88,358.68L721.65,360.81L723.24,359.45L724.83,361.36L726.42,361.72L728.01,362.56L729.6,362.17L732.78,360.11L734.37,358.43L735.96,356.18L737.55,355.65L740.73,354.15L742.32,352.09L743.91,351.96L745.5,348.61L748.68,347L750.27,348.86L756.62,357.45L758.21,358.72L759.8,359.49L761.39,361.32L762.98,361.06L764.57,362.05L766.16,362.01L767.75,366.19L769.34,368.94L770.93,373.89L775.7,380.88L777.29,381.38L778.88,382.6L780.47,382.56L782.06,384.33L783.65,384.28L786.82,381.77L788.41,381.58L793.18,384.09L794.77,385.38L801.13,392.4L802.72,393.45L804.31,395.59L805.9,395.76L809.08,397.31L810.67,397.07L812.26,397.51L813.85,396.9L831.33,405.57L832.92,406.77L834.51,407.34L836.1,408.96L839.28,409.46L840.87,409.36L855.17,414.37L856.76,414.25L867.89,411.55L869.48,411.04L877.43,410.84L879.02,410.88L883.79,411.07L885.38,410.56L888.56,409.29L890.15,407.22L894.91,403.26L896.5,401.69L902.86,396.93L904.45,396.36L906.04,395.41L907.63,395.9L909.22,395.93L910.81,397.39L913.99,397.99L915.58,399.42L917.17,399.75L918.76,398.88L920.35,397.26L921.94,397.55L923.52,396.1L925.11,396.5L926.7,394.04L928.29,393.66L929.88,391.51L931.47,391.99L933.06,390.68L934.65,385.58L937.83,380.49L939.42,380.14L941.01,376.18L942.6,374.6L947.37,369.2L948.96,370.96L950.55,370.57L952.14,363.48L953.73,362.6L955.32,359.27L963.26,343.39L964.85,343.15L966.44,341.31L968.03,336.98L971.21,333.96L972.8,330.08L975.98,322.65L977.57,316.6L985.52,291.74L987.11,290.06L991.88,281.65L993.46,279.74L999.82,272.56L1001.41,271.53L1003,270.48L1004.59,270.44L1007.77,270.88L1009.36,271.25L1010.95,269.82L1012.54,272.07L1015.72,273.67L1017.31,272.44L1018.9,272.31L1020.49,270.51L1022.08,269.68L1023.67,270.52L1028.44,265.05L1030.03,264.86L1033.2,265.79L1034.79,262.51L1036.38,260.42L1037.97,259.72L1041.15,263.68L1042.74,263.6L1044.33,263.47L1045.92,264.29L1049.1,265.03L1050.69,264.3L1052.28,264.95L1053.87,267.64L1058.64,275.63L1060.23,279.44L1063.4,285.66L1064.99,286.73L1066.58,286.82L1068.17,294.65L1069.76,295.44L1071.35,298.04L1079.3,302.05L1080.89,300.78L1082.48,300.86L1084.07,304.56L1087.25,306.69L1088.84,306.96L1095.2,308L1096.79,306.08L1099.97,306.5L1101.55,305.82L1103.14,305.99L1104.73,305.1L1112.68,301.38L1114.27,301.24L1115.86,300.32L1117.45,300.76L1120.63,300.82L1122.22,300.92L1126.99,300.76L1128.58,299.28L1130.17,297.4L1131.75,290.9L1133.34,287.7L1134.93,278.47L1138.11,271.47L1139.7,265.35L1141.29,265.51L1142.88,272.24L1144.47,276.35L1146.06,283.48L1147.65,286.93L1149.24,292.38L1150.83,293.54L1152.42,296.36L1154.01,299.37L1155.6,298.56L1161.96,302.02L1163.54,301.19L1168.32,299.91L1169.9,301.06L1171.49,301.77L1173.08,305.79L1176.26,310.27L1177.85,311.16L1182.62,313.69L1184.21,314.76L1185.8,315.98L1187.39,316.12L1190.57,315.84L1192.16,315.49L1196.93,312.22L1198.52,311.7L1209.64,314.04L1211.23,315.26L1219.18,320.07L1220.77,320.47L1222.36,322.74L1223.95,323.33L1227.13,324.32L1228.72,325.23L1231.9,326.78L1233.49,326.22L1235.08,326.38L1236.67,327.62L1243.02,327.79L1244.61,326.81L1247.79,323.81L1249.38,319.14L1250.97,318.9L1252.56,316.4L1255.74,315.12L1257.33,311.69L1258.92,310.52L1260.51,305.34L1262.1,305.1L1263.69,305.64L1265.28,307.39L1266.87,296.05L1268.46,293.67L1270.05,293.36L1271.63,293.67L1273.22,296.21L1274.81,296.54L1276.4,300.37L1277.99,302.71L1279.58,307.45L1281.17,309.58L1282.76,313.47L1293.89,343.53L1295.48,344.02L1297.07,345.25L1298.66,343.3L1300.25,352.74L1301.84,354.64L1303.42,357.47L1305.02,358.36L1308.2,363.47L1309.78,364.71L1311.37,367.36L1312.96,366.87L1314.55,367.44L1316.14,371.6L1317.73,372.64L1319.32,372.02L1320.91,371.74L1322.5,370.37L1324.09,368.57L1325.68,368.3L1328.86,364.08L1330.45,365.24L1332.04,365.81L1333.63,363.12L1336.81,358.64L1338.4,353.56L1339.99,350.08L1341.57,343.13L1343.16,340.38L1344.75,335.18L1346.34,332.57L1347.93,327.56L1349.52,325.68L1351.11,320.46L1354.29,315.77L1355.88,310.9L1357.47,308.16L1359.06,302.7L1360.65,299.09L1362.24,293.07L1368.6,281.17L1370.19,278.81L1376.55,273.07L1378.14,273.06L1379.72,272.06L1381.31,269.98L1386.08,269.6L1387.67,270.92L1389.26,271.85L1390.85,271L1392.44,275.06L1394.03,275.77L1398.8,285L1400.39,286.31L1401.98,288.23L1403.57,288.71L1405.16,289.74L1406.75,289.42L1409.92,291.02L1411.51,290.51L1416.28,290.05L1417.87,290.54L1421.05,292.12L1422.64,292.48L1425.82,293.68L1427.41,293.93L1429,293.36" style="vector-effect: none; fill: none; stroke: rgb(239, 85, 59); stroke-opacity: 1; stroke-width: 3px; opacity: 1;"/></g><g class="points"/><g class="text"/></g><g class="trace scatter trace1d6892" style="stroke-miterlimit: 2; opacity: 1;"><g class="fills"/><g class="errorbars"/><g class="lines"><path class="js-line" d="M0,333.4L1.59,331.59L3.18,330.97L7.95,328.28L9.54,326.06L11.13,325.32L12.72,323.69L15.9,320.75L17.49,316.99L20.67,311.72L22.26,312.36L33.38,290.59L34.97,286.14L38.15,276.86L39.74,270.5L50.87,232.38L52.46,222.98L60.4,185.41L61.99,178.87L63.58,170.84L65.17,166.81L69.94,148.06L71.53,156.24L73.12,143.66L74.71,146.59L79.48,143.63L81.07,144.67L85.84,138.01L87.43,136.79L89.02,133.7L90.61,133.8L92.19,127.96L93.78,125.83L95.37,120.13L96.96,117.27L98.55,116.56L100.14,114.09L101.73,111.76L103.32,111.83L104.91,112.35L106.5,108.19L108.09,102.92L109.68,101.13L112.86,88.99L114.45,86.27L117.63,86.34L119.22,88.36L120.81,91.22L122.4,91.44L128.75,102.47L130.35,104.1L131.93,104.3L133.52,105.79L136.7,105.66L138.29,106.26L139.88,109.29L141.47,110.65L143.06,110.06L144.65,111.63L146.24,112.03L147.83,113.46L149.42,112.33L151.01,113.3L152.6,112.99L154.19,114.33L155.78,114.9L157.37,116.46L158.96,117.68L160.55,117.32L163.72,124.93L165.31,125.66L166.9,127.06L168.49,133.67L170.08,136.49L171.67,144.18L173.26,147.53L174.85,147.04L176.44,150L178.03,148.71L179.62,151.59L181.21,151.68L182.8,152.44L184.39,155.27L185.98,157.05L187.57,160.19L189.16,163.49L190.75,163.86L192.34,162.52L193.93,173.13L197.1,166.09L198.69,172.16L201.87,165.84L203.46,171.81L205.05,170.56L206.64,171.26L208.23,172.58L209.82,171.95L211.41,176.59L213,178.82L216.18,184.31L217.77,182.78L219.36,188.65L220.95,189.01L222.54,193.79L224.13,191.18L225.72,194.81L227.31,201.5L228.9,206.21L230.49,207.43L232.07,201.08L233.66,201.65L236.84,188.67L238.43,182.33L240.02,175.04L241.61,173.81L243.2,172L244.79,165.85L247.97,161.61L249.56,162.25L252.74,160.55L254.33,158.13L260.69,146.73L262.28,140.57L265.46,133.25L267.04,136.5L268.63,134.75L270.22,138.38L273.4,131.49L274.99,126.88L278.17,117.12L279.76,109.74L286.12,92.68L287.71,85.97L289.3,87.37L290.89,94.47L294.07,102.21L295.66,102.97L300.43,112.17L302.01,117.55L303.6,115.16L305.19,122.82L308.37,131L309.96,134.51L311.55,134.58L313.14,127.52L314.73,131.22L316.32,139.04L317.91,136.37L319.5,140.62L322.68,144.78L324.27,152.05L325.86,155.22L327.45,163.02L329.04,167.21L330.63,176.56L333.81,189.76L335.4,198.56L338.57,217.25L340.16,227.68L344.93,246.71L346.52,249.5L348.11,256.79L349.7,257.15L351.29,255.44L352.88,262.27L354.47,263.55L356.06,261.94L357.65,261.88L359.24,260.63L360.83,257.46L362.42,248.37L364.01,248.75L365.6,246.7L367.19,246.11L368.78,241.02L373.54,227.4L375.13,226.54L376.72,228.6L378.31,228.55L379.9,230.34L381.49,230.75L384.67,230.54L386.26,228.72L387.85,225.43L389.44,226.43L392.62,225.93L394.21,227.04L395.8,227.26L397.39,229.64L398.98,231.34L400.57,230.6L402.16,230.06L403.75,233.79L406.92,234.05L408.52,233.03L410.1,234.65L411.69,234.4L414.87,234.33L416.46,235.13L418.05,236.88L419.64,237.38L427.59,254.31L429.18,255.34L432.36,257.06L433.95,255.36L438.72,255.26L440.3,255.91L443.48,258.44L445.07,260.01L449.84,262.67L451.43,262.87L454.61,262.71L456.2,263.89L460.97,265.53L462.56,265.83L465.74,266.2L467.33,266.14L470.51,268.21L472.1,269.37L473.69,269.95L475.27,271.82L478.46,274.83L480.04,277.15L483.22,279.73L484.81,280.07L487.99,281.2L489.58,281.13L497.53,278.55L499.12,279L503.89,276.52L505.48,276.52L507.07,276.1L508.66,277.03L511.83,276.31L513.42,277.18L516.6,278.6L518.19,280.03L527.73,282.32L529.32,281.84L534.09,280.98L535.68,279.62L538.86,278.28L540.45,278.11L543.63,277.46L545.21,277.94L548.39,276.86L549.98,278.73L551.57,278.67L553.16,280.01L554.75,279.86L556.34,280.58L557.93,280.67L559.52,279.81L561.11,277.59L562.7,277.79L565.88,274.56L567.47,274.16L569.06,272.6L570.65,272.18L572.24,270.44L573.83,270.32L578.6,270.33L580.18,270.68L583.36,275.19L584.95,277.51L589.72,289.71L591.31,291.63L592.9,294.23L594.49,294.81L596.08,294.43L597.67,292.94L599.26,292L600.85,289L608.8,287.39L610.38,288.44L611.98,288.93L613.57,290.4L616.74,294.21L618.33,298.07L623.1,304.32L624.69,305.1L626.28,305.82L627.87,305.52L634.23,296.53L635.82,295.53L637.41,292.94L639,292.66L640.59,291.54L642.18,291.41L646.95,291.89L648.53,292.25L653.3,296.32L654.89,298.54L656.48,299.14L658.07,301.48L661.25,302.46L662.84,300.56L666.02,295.73L667.61,295.19L675.56,294.24L677.15,294.32L680.33,296.32L681.92,296.5L685.09,298.18L686.68,298.73L689.86,302.23L691.45,305.57L696.22,311.12L697.81,311.79L699.4,313.3L700.99,313.74L704.17,313.39L705.76,314.22L708.94,314.35L710.53,314.41L713.71,313.37L715.3,314.06L718.47,315.02L720.06,313.82L721.65,313.27L723.24,313.98L724.83,311.72L726.42,311.48L728.01,311.04L729.6,311.73L732.78,312L734.37,310.76L735.96,310.33L737.55,308.67L740.73,308.15L742.32,307.93L748.68,311.35L750.26,311.24L751.86,311.74L753.44,311.12L755.03,311.49L756.63,312.93L761.39,315.86L762.98,316.38L769.34,319.36L770.93,320L772.52,320.29L774.11,319.27L777.29,318.68L778.88,319.54L786.83,323.05L788.41,322.99L791.59,324.2L793.18,324.81L797.95,324.63L799.54,325.06L804.31,324.13L805.9,324.93L809.08,327.55L810.67,329.1L813.85,331.69L815.44,332.82L817.03,334.28L818.62,336.92L823.38,341.16L824.97,341.69L826.56,342.27L828.15,344.12L834.51,347.17L836.1,348.9L840.87,352.24L842.46,351.56L844.05,352.98L845.64,352.7L848.82,353.82L850.41,355.23L852,356.68L853.59,359.25L856.77,361.35L858.35,364.1L861.53,367.11L863.12,368.73L864.71,371.32L866.3,372.43L869.48,376.35L871.07,377.35L874.25,380.18L875.84,381.47L886.97,386.62L888.55,386.84L893.32,387.04L894.91,385.94L898.09,384.16L899.68,384.4L902.86,381.38L904.45,381.36L907.63,379.95L909.22,379.84L910.81,379.6L912.4,380.28L913.99,381.06L915.58,380.78L923.53,383.5L925.12,384.15L928.29,384.98L929.88,385.63L937.83,388.42L939.42,388.47L942.6,388.88L944.19,388.16L948.96,386.84L950.55,387.06L956.91,389.56L958.5,391.15L961.67,392.68L963.26,394.01L974.39,399.42L975.98,400.33L979.16,401.67L980.75,401.75L983.93,403.6L985.52,403.75L995.06,403.26L996.64,403.75L998.23,402.92L999.82,403.14L1001.41,402.45L1003,403.06L1006.18,401.85L1007.77,402.32L1009.36,403.52L1010.95,403.47L1014.13,401.95L1015.72,400.95L1017.31,399.78L1018.9,396.49L1020.49,396.55L1022.08,395.56L1023.67,396.13L1025.26,395.89L1033.2,393.37L1034.8,392.62L1036.38,392.09L1037.97,393.18L1041.15,393.43L1042.74,393.79L1050.69,394.04L1052.28,393.53L1053.87,393.99L1055.46,393.4L1058.64,392.84L1060.23,392.42L1065,389.31L1066.58,387.13L1071.35,384.31L1072.94,382.08L1076.12,378.97L1077.71,376.75L1082.48,370.56L1084.07,370.2L1087.25,368.28L1088.84,368.8L1092.02,368.22L1093.61,366.83L1095.2,364.4L1096.79,363.71L1098.37,362.05L1099.97,357.8L1101.55,354.05L1103.14,352.23L1106.32,350.52L1107.91,347.61L1109.5,348.83L1111.09,348L1112.68,347.26L1114.27,345.36L1115.86,344.53L1117.45,341.95L1122.22,339.78L1123.81,337.63L1125.4,337.47L1126.99,338.15L1130.17,338.97L1131.76,337.95L1136.52,338.37L1138.11,340.55L1139.7,341.3L1141.29,340.56L1146.06,340.88L1147.65,340.27L1150.83,337.73L1152.42,335.83L1154.01,335.17L1155.6,332.84L1157.19,334.09L1158.78,334.11L1160.37,332.13L1161.96,333.29L1166.72,335.15L1168.31,337.83L1171.49,339.25L1173.08,338.78L1174.67,336.9L1176.26,337.37L1177.85,336.73L1179.44,339.09L1184.21,341.78L1185.8,341.92L1188.98,342.45L1190.57,341.98L1192.16,341.46L1193.75,341.76L1196.93,340.65L1198.52,340.08L1201.7,339.38L1203.29,340.61L1211.23,343.67L1212.82,345.76L1214.41,346.05L1216,347.66L1217.59,348.32L1219.18,349.89L1223.95,352.19L1225.54,352.27L1227.13,353.36L1228.72,353.48L1230.31,354.53L1231.9,353.26L1233.49,358.83L1235.08,357.57L1236.67,358.77L1238.26,361.48L1239.84,361.18L1241.43,363.98L1243.02,365L1244.61,367.93L1249.38,373.32L1250.97,375.56L1252.56,377.53L1254.15,377.95L1255.74,379.42L1257.33,377.93L1260.51,375.43L1262.1,375.53L1263.69,374.93L1265.28,376.21L1268.46,372.52L1270.05,371.33L1271.64,371.36L1273.23,369.01L1274.81,370.63L1276.4,367.85L1277.99,367.34L1279.58,365.93L1281.17,364.98L1282.76,365.53L1284.35,362.83L1285.94,362.54L1293.89,356.71L1295.48,353.12L1297.07,352.3L1298.66,350.24L1300.25,349.92L1301.84,348.31L1305.02,346.52L1306.6,343.89L1311.37,336.22L1312.97,333.52L1316.14,328.88L1317.73,328.34L1319.32,327.94L1320.91,325.99L1322.5,325.49L1324.09,323.2L1325.68,322.84L1327.27,320.29L1332.04,316.98L1333.63,315L1335.22,312.63L1336.81,311.94L1339.99,310.35L1341.58,310.69L1343.17,309.93L1344.75,310.79L1347.93,312.19L1349.52,311.37L1354.29,311.33L1355.88,312.64L1359.06,313.08L1360.65,313.26L1363.83,314.58L1365.42,314.02L1367.01,313.04L1368.6,310.97L1371.78,308.88L1373.37,305.59L1374.96,304.56L1376.54,302.3L1381.31,295.03L1382.9,294.93L1389.26,287.35L1390.85,286.53L1395.62,275.99L1397.21,275.01L1398.8,272.8L1400.39,269.21L1401.98,265.85L1403.57,265.19L1406.75,258.42L1408.34,258.03L1409.93,254.08L1411.52,252.81L1414.69,249.07L1416.28,250.18L1417.87,250.83L1419.46,250.1L1421.05,247.19L1422.64,246.61L1425.82,247.94L1427.41,251.54L1429,256.23" style="vector-effect: none; fill: none; stroke: rgb(0, 204, 150); stroke-opacity: 1; stroke-width: 3px; opacity: 1;"/></g><g class="points"/><g class="text"/></g><g class="trace scatter trace59692d" style="stroke-miterlimit: 2; opacity: 1;"><g class="fills"/><g class="errorbars"/><g class="lines"><path class="js-line" d="M0,326.54L3.18,324.89L4.77,324.43L6.36,324.55L7.95,323.21L11.13,321.02L12.72,320.24L19.08,317.09L20.67,316.69L22.26,313.17L23.84,312.66L27.02,304.61L28.61,304.05L34.97,294.56L36.56,289.16L38.15,283.8L39.74,275.69L41.33,269.18L42.92,259.02L44.51,254.82L46.1,246.73L49.28,236.21L50.87,233.78L52.46,230.11L54.05,228.92L55.64,225.96L57.22,224.7L60.4,220.69L61.99,219.06L65.17,217.82L66.76,214.79L73.12,215.05L74.71,213.47L76.3,213.38L77.89,207.56L81.07,209.79L82.66,206.97L85.84,209.12L87.43,211.64L89.02,213.04L90.61,217.15L92.19,219.48L93.78,226.75L95.37,223.77L96.96,227.05L98.55,227.49L100.14,229.11L103.32,234.05L104.91,234.28L106.5,232.3L108.09,232.12L111.27,229.97L112.86,230.4L116.04,230.71L117.63,226.65L120.81,223.19L122.4,216.29L123.99,196.3L125.58,186.08L127.17,169.17L128.75,162.27L130.34,157.45L131.93,156.54L133.52,158.23L135.11,165.01L136.7,168.78L138.29,175.82L139.88,180.38L141.47,193.42L146.24,213.24L147.83,223.3L149.42,226.48L151.01,237.44L154.19,240.38L155.78,252.42L157.37,254.11L158.96,273.69L160.54,275.09L162.13,287.65L163.72,288.4L165.31,293.1L166.9,291.23L168.49,291.12L170.08,297.65L171.67,294.27L174.85,298.6L176.44,297.05L178.03,297.75L179.62,296.76L182.8,295.11L184.39,298.72L185.98,296.03L187.57,320.23L192.34,330.36L193.93,364.82L195.51,372.99L197.1,376.71L198.69,369.92L200.28,371.38L201.87,370.42L203.46,374.85L205.05,380.06L206.64,371.39L208.23,370.86L209.82,368.36L211.41,365.72L213,358.18L216.18,349.48L217.77,346.93L219.36,343.03L220.95,343.35L222.54,342.56L224.13,348.87L225.72,344.84L227.31,343.54L230.48,337.89L232.07,334.5L233.66,333.77L235.25,323.49L236.84,321.59L238.43,316.66L240.02,317.6L241.61,310.81L243.2,312.77L244.79,310.81L246.38,304.99L247.97,291.86L249.56,293.68L251.15,293.86L252.74,299.3L254.33,293.18L257.51,278.49L259.1,273L260.69,263.58L262.28,261.02L265.45,253.19L267.05,255.08L268.63,259.91L270.22,275.52L271.81,272.3L273.4,276.11L276.58,283.76L278.17,282.74L281.35,284.49L282.94,287.58L284.53,288.97L286.12,286.89L287.71,285.15L289.3,287.15L294.07,292.91L295.66,297.08L298.84,305.09L300.42,306.23L303.6,319.28L305.19,320.83L308.37,322.38L309.96,320.4L311.55,322.99L313.14,322.8L316.32,322.91L317.91,321.3L319.5,319.75L321.09,323.24L322.68,323.48L324.27,326.96L325.86,328.92L327.45,334.65L329.04,346.64L330.63,351.2L335.39,379.01L336.98,383.89L340.16,384.41L341.75,383.11L343.34,378.59L344.93,377.55L346.52,376.01L348.11,369.37L349.7,365.06L351.29,363.24L352.88,361.76L354.47,355.18L356.06,352.56L357.65,347.05L360.83,343.23L362.42,339.43L365.6,332.14L367.19,331.89L368.78,326.55L370.36,325.79L371.95,322.17L373.54,321.7L378.31,314.99L379.9,313.6L381.49,313.95L383.08,312.79L384.67,312.51L386.26,313.73L389.44,316.2L391.03,319.25L392.62,319.97L394.21,319.09L395.8,319.75L397.39,318.94L400.57,314.16L402.16,314.59L403.75,317.07L405.33,317.8L406.92,316.7L408.51,316.83L411.69,313.42L413.28,311.76L414.87,310.03L416.46,310.59L422.82,310.65L424.41,311.53L429.18,313.46L430.77,312.68L432.36,312.36L433.95,313.23L435.54,313.45L437.13,312.78L443.48,310.4L445.07,311.6L446.66,312.19L448.25,313.84L449.84,314.94L451.43,315.09L454.61,316.9L456.2,316.06L460.97,317.8L462.56,317.93L468.92,316.76L470.51,316.94L472.1,317.57L473.68,320.07L475.27,320.32L476.86,321.85L481.63,324.36L483.22,324.88L484.81,324.81L486.4,325.67L489.58,325.81L491.17,325.26L494.35,324.27L495.94,323.98L500.71,323.6L502.3,323.56L503.89,323.08L505.48,325.13L510.24,324.6L511.83,325.4L513.42,325.83L515.01,325.41L518.19,325.95L519.78,326.08L522.96,328.37L524.55,330.04L527.73,329.83L529.32,328.68L534.09,326.6L535.68,326.09L542.03,325.11L543.62,325.44L548.39,325.57L549.98,326.28L554.75,328.54L556.34,328.55L562.7,331.45L564.29,330.82L572.24,332.09L573.83,332.94L580.18,334.23L581.77,335.31L584.95,335.48L586.54,335.37L591.31,335.53L592.9,335.62L594.49,335.96L596.08,334.65L602.44,334.48L604.03,335.24L610.39,334.48L611.98,335.33L621.51,339.84L623.1,340.87L627.87,341.27L629.46,341.21L631.05,340.52L632.64,340.98L639,340.68L640.59,340.98L643.77,340.43L645.36,341.34L646.95,341.15L648.53,341.77L651.71,342.82L653.3,342.46L658.07,344.46L659.66,344.93L661.25,344.87L662.84,346.23L669.2,346.46L670.79,347.08L672.38,347.77L673.97,347.11L677.15,348.36L678.74,349.19L680.33,351L681.92,351.59L685.09,355.1L686.68,356.16L689.86,359.23L691.45,360.56L694.63,363.92L696.22,364.87L699.4,366.83L700.99,366.38L704.17,362.16L705.76,361.85L707.35,359.81L708.94,359.54L715.3,361.85L716.88,361.51L721.65,361.9L723.24,361.59L724.83,362.13L726.42,361.48L728.01,361.86L729.6,361.2L734.37,361L735.96,361.77L740.73,363.16L742.32,363.96L747.09,364.23L748.68,363.58L751.85,362.95L753.44,363.03L758.21,363.72L759.8,364.54L762.98,364.85L764.57,365.87L767.75,367.72L769.34,367.55L772.52,368.87L774.11,369.74L778.88,369.2L780.47,368.84L783.65,366.99L785.24,367.49L794.77,365.61L796.36,365.82L799.54,365.75L801.13,365.9L805.9,367.71L807.49,368.18L812.26,369.01L813.85,370.14L817.03,370.74L818.62,370.82L823.38,372.28L824.97,373.52L828.15,374.8L829.74,375.5L832.92,377.37L834.51,377.47L836.1,378.82L837.69,378.95L840.87,381.07L842.46,381.93L847.23,384.32L848.82,384.44L850.41,385.99L852,386.03L863.12,386.96L864.71,386.83L877.43,385.19L879.02,384.85L880.61,384.9L882.2,384.13L886.96,383.05L888.55,382.61L898.09,380.68L899.68,379.73L902.86,379.02L904.45,377.47L907.63,375.32L909.22,373.48L912.4,370.94L913.99,369.7L917.17,368.43L918.76,367.83L921.94,367.93L923.52,366.24L925.12,365.89L926.7,362.54L931.47,360.7L933.06,360.6L936.24,360.35L937.83,360.73L941.01,361.12L942.6,359.41L945.78,359.91L947.37,356.65L952.14,355.63L953.73,356.03L955.32,357.54L956.91,357.99L958.5,359.13L960.09,358.6L961.68,361.43L963.26,360.34L964.85,362.63L966.44,362.59L968.03,362.64L969.62,365.97L975.98,367.2L977.57,367.1L979.16,366.58L980.75,367.31L985.52,367.44L987.11,368.03L990.29,369.81L991.88,370.23L993.47,371.22L995.05,373.6L999.82,375.36L1001.41,378.59L1006.18,380.28L1007.77,381.04L1010.95,381.41L1012.54,382.38L1015.72,383.64L1017.31,385.03L1018.9,386.48L1020.49,389.36L1022.08,390.19L1023.67,389.61L1025.26,389.58L1026.85,391.68L1030.02,392.06L1031.61,391.31L1036.38,389.2L1037.97,388.93L1039.56,388.53L1041.15,389.03L1042.74,389.67L1044.33,391.59L1049.1,393.37L1050.69,393.66L1052.28,394.45L1053.87,394.14L1057.05,394.66L1058.64,394.64L1063.41,389.7L1064.99,387.73L1066.58,385.9L1068.17,385.94L1072.94,382.2L1074.53,380.97L1076.12,380.4L1077.71,378.83L1079.3,377.52L1080.89,375.12L1085.66,370.49L1087.25,370.02L1090.43,367.46L1092.02,367.08L1095.2,366.34L1096.79,365.38L1101.55,363.95L1103.14,364.44L1104.73,364.81L1106.32,364.23L1117.45,363.46L1119.04,363.01L1122.22,360.8L1123.81,360.72L1126.99,361.05L1128.58,361.33L1130.17,360.42L1131.76,360.62L1136.52,360L1138.11,359.23L1142.88,359.21L1144.47,358.53L1146.06,358.98L1147.65,358.61L1150.83,359.56L1152.42,359.57L1157.19,360.6L1158.78,360.28L1165.13,359.41L1166.72,358.52L1171.49,357.5L1173.08,356.6L1176.26,355.6L1177.85,353.9L1181.03,354.75L1182.62,355.92L1184.21,357.47L1185.8,360.86L1188.98,361.69L1190.57,361.48L1192.16,364.28L1193.75,363.32L1196.93,363.87L1198.52,363.55L1200.11,363.17L1201.69,363.62L1204.87,364.09L1206.46,366.32L1208.05,366.5L1209.64,368.8L1212.82,371.22L1214.41,373.25L1216,374.16L1217.59,376.57L1220.77,380.77L1222.36,381.11L1223.95,382.34L1225.54,382.56L1227.13,382.82L1228.72,383.88L1230.31,383.19L1231.9,383.57L1233.49,382.28L1235.08,382.26L1238.26,382.26L1239.84,380.42L1244.61,380.1L1246.2,380.55L1247.79,381.67L1249.38,381.36L1252.56,380.46L1254.15,381.44L1255.74,381.07L1257.33,381.68L1260.51,381.69L1262.1,380.91L1265.28,379.59L1266.87,378.24L1270.05,375.82L1271.64,371.58L1273.22,369.14L1274.81,369.75L1276.4,369.43L1277.99,370.03L1279.58,371.21L1281.17,369.46L1282.76,370.93L1284.35,370.23L1287.53,373.91L1289.12,370.38L1292.3,368.77L1293.89,368.87L1298.66,364.77L1300.25,365.28L1301.84,367.04L1303.43,370.8L1305.01,371.96L1306.6,376.16L1311.37,385.72L1312.96,386.93L1317.73,395.96L1319.32,396.76L1320.91,399L1322.5,404.17L1324.09,406.6L1325.68,413.02L1330.45,426.4L1332.04,437.26L1335.22,453.97L1336.81,465.52L1339.99,473.88L1341.58,472.72L1343.16,472.9L1344.75,471.58L1346.34,473.32L1347.93,476.94L1349.52,476.2L1351.11,473.42L1352.7,470.3L1354.29,463.13L1355.88,459.35L1357.47,457.93L1359.06,459.96L1360.65,460.76L1362.24,460.75L1363.83,458.68L1370.19,447.8L1371.78,449.36L1373.37,449.96L1374.96,449.55L1376.54,449.06L1378.13,447.39L1382.9,441.71L1384.49,442.09L1386.08,438.32L1387.67,438.47L1394.03,438.01L1395.62,437.16L1400.39,427.51L1401.98,420.94L1403.57,416.37L1405.16,401.33L1406.75,389.78L1408.34,367.01L1409.93,354.99L1411.52,332.27L1414.69,318.83L1416.28,315.53L1419.46,314.38L1421.05,314.65L1424.23,314.19L1425.82,315L1427.41,315.12L1429,316.36" style="vector-effect: none; fill: none; stroke: rgb(171, 99, 250); stroke-opacity: 1; stroke-width: 3px; opacity: 1;"/></g><g class="points"/><g class="text"/></g><g class="trace scatter trace55b77c" style="stroke-miterlimit: 2; opacity: 1;"><g class="fills"/><g class="errorbars"/><g class="lines"><path class="js-line" d="M0,350.48L7.95,346.99L9.54,345.23L12.72,341.2L14.31,338.81L23.84,323.71L25.43,318.55L27.02,316.09L28.61,311.44L39.74,275.35L41.33,266.74L44.51,252.75L46.1,239.07L49.28,222.12L50.87,220.03L52.46,205.16L54.05,201.04L55.63,199.36L57.22,201.16L58.81,200.81L60.4,198.45L65.17,192.35L66.76,186.58L71.53,178.6L73.12,170.85L76.3,161.85L77.89,157.12L81.07,149.72L82.66,148.94L85.84,143.14L87.43,140.34L89.02,141.65L90.61,144.58L92.2,143.63L93.78,140.72L96.96,133.53L98.55,135.73L101.73,135.89L103.32,134.69L104.91,136.11L106.5,134.65L111.27,128.78L112.86,125.71L116.04,121.37L117.63,122.27L119.22,121.37L120.81,124.5L122.4,128.4L123.99,135.21L125.57,128.73L127.16,131.73L128.75,141.96L130.35,144.61L131.94,145.4L133.52,144.38L135.11,146.17L136.7,144.06L138.29,141.32L139.88,141.96L141.47,139.96L143.06,141.91L146.24,142.31L147.83,142.62L149.42,144.34L151.01,149.04L152.6,153.35L154.19,161.55L155.78,169.22L157.37,188.41L160.55,203.17L162.14,206.73L163.72,209.63L165.31,210.77L166.9,212.54L168.49,220.48L171.67,226L173.26,227.23L176.44,237.3L178.03,239.03L185.98,252.89L187.57,255.48L189.16,258.76L190.75,259.41L192.34,260.03L193.92,257.35L195.51,256.79L197.1,253.49L201.87,249.14L203.46,248.14L205.05,242.42L206.64,241.91L209.82,240.96L211.41,238.62L216.18,236.66L217.77,236.85L219.36,236.09L220.95,237.45L222.54,239.34L224.13,243.34L227.31,246.44L228.9,247.09L230.49,248.15L232.08,246.22L233.66,243.77L235.25,245.27L236.84,240.41L238.43,239.61L240.02,236.04L241.61,236.67L243.2,236.58L244.79,237.66L246.38,240.2L247.97,244.49L254.33,256.15L255.92,257.45L259.1,261.3L260.69,261.71L262.28,261.73L263.86,260.98L268.63,261.64L270.23,259.08L271.81,257.85L273.4,257.85L274.99,258.75L276.58,258.06L279.76,254.61L281.35,254.25L284.53,255.74L286.12,254.69L287.71,254.07L289.3,255.27L290.89,255.75L292.48,254.92L294.07,254.04L295.66,255.14L297.25,255.71L298.84,251.72L300.43,251.57L302.01,253.99L303.6,255.71L305.19,254.72L306.78,252.72L308.37,251.97L309.96,256.78L311.55,257.88L314.73,259.82L316.32,262.05L322.68,268.19L324.27,269.4L325.86,269.91L327.45,271.49L329.04,272.44L330.63,274.3L332.22,274.87L333.8,276.25L336.98,283.7L338.57,284.92L340.16,286.7L341.75,290.29L343.34,291.79L344.93,294.4L348.11,296.21L349.7,296.73L351.29,297.32L352.88,296.54L354.47,295.46L356.06,292.72L357.65,291.97L359.24,292.33L364.01,286.07L365.6,284.89L367.19,282L368.78,281.22L370.37,279.93L371.95,279.93L379.9,271.33L381.49,267.95L384.67,264.43L386.26,261.53L389.44,258.44L391.03,257.85L395.8,251.27L397.39,249.92L402.16,247.11L403.74,245.2L406.92,241.37L408.52,241.76L411.69,240.36L413.28,240.59L419.64,237.4L421.23,238.51L430.77,241.49L432.36,244.02L433.95,245.54L435.54,246L437.13,247.63L438.72,247.98L443.48,251.94L445.07,252.52L449.84,256.91L451.43,260.02L454.61,267.62L456.2,274.74L459.38,284.11L460.97,287.03L462.56,289.76L464.15,296.37L467.33,303.7L468.92,304.97L470.51,304.87L472.09,308.34L473.68,309.19L475.27,308.08L476.87,308.82L478.45,308.63L484.81,310.4L486.4,310.92L487.99,312.13L489.58,312.23L492.76,311.3L494.35,311.58L497.53,312.97L499.12,312.92L505.48,315.81L507.07,317.03L510.25,318.62L511.83,319.2L516.6,319.77L518.19,320.16L521.37,319.9L522.96,320.23L524.55,320.23L526.14,319.15L529.32,319.65L530.91,319.21L538.86,317.18L540.44,316.27L543.63,315.98L545.21,316.8L546.8,317.31L548.4,318.67L559.52,321.17L561.11,321.28L569.06,320.47L570.65,320.81L572.24,319.84L573.83,319.86L577.01,321.07L578.6,321.3L592.9,327.14L594.49,328.44L602.44,332.64L604.03,334.03L607.21,338.72L608.8,343.69L613.56,348.53L615.15,349.5L618.33,351.8L619.92,351.54L621.51,351.75L623.1,353.12L629.46,354.7L631.05,356.45L637.41,360.66L639,360.91L642.18,362.7L643.77,363.21L646.95,362.91L648.54,363.46L651.71,364.53L653.3,365.52L656.48,367.2L658.07,368.3L661.25,370.18L662.84,371.1L669.2,372.55L670.79,372.85L672.38,372.86L673.97,373.97L677.15,375.27L678.74,375.42L680.33,377.44L681.91,377.52L688.27,377.35L689.86,378.51L691.45,379.16L693.04,378.97L696.22,378.95L697.81,379.58L700.99,380.41L702.58,381.08L710.53,381.29L712.12,380.61L715.3,380.52L716.89,378.25L718.48,376.66L720.06,373.84L721.65,372.41L723.24,369.56L728.01,359.67L729.6,357.54L731.19,353.67L732.78,352.15L734.37,350.81L735.96,347.82L740.73,345.09L742.32,342.33L745.5,340.74L747.09,341.6L748.68,341.71L750.26,340.85L753.44,340.55L755.03,340.27L758.21,340.85L759.8,340.48L772.52,342.35L774.11,342.76L782.06,346.18L783.65,347.41L796.36,355.02L797.95,356.73L804.31,360.6L805.9,361.29L810.67,364.33L812.26,365.69L813.85,366.37L815.44,367.97L818.62,370.65L820.2,371.97L826.56,377.32L828.15,378.04L832.92,380.42L834.51,381.17L840.87,385.21L842.46,385.1L845.64,384.57L847.23,384.43L852,383.53L853.59,383.57L858.35,383.52L859.94,384.36L866.3,386.49L867.89,386.53L871.07,388.32L872.66,389.41L877.43,394.02L879.02,395.87L882.2,397.61L883.79,397.03L888.55,397.13L890.14,397.57L893.32,396.8L894.91,398.79L898.09,398.05L899.68,398.4L904.45,399.87L906.04,400.35L907.63,400.78L909.22,402.42L918.76,410.24L920.35,410.96L921.94,411.61L923.53,410.93L925.12,411.33L926.71,410.15L929.88,407.99L931.47,405.72L939.42,396.03L941.01,397.11L944.19,399.5L945.78,399.17L947.37,399.69L948.96,397.44L952.14,394.86L953.73,393.23L958.5,388.94L960.08,389.56L963.26,388.78L964.85,390.51L968.03,390.43L969.62,391.41L971.21,392.08L972.8,388.74L974.39,389.81L975.98,389.51L979.16,387.42L980.75,387.79L982.34,388.27L983.93,385.83L985.52,386.6L987.11,384.84L988.7,385.67L990.29,384.46L991.88,385.14L993.47,389.3L995.06,389.92L996.65,393.19L998.23,394.23L999.82,396.27L1001.41,396.91L1003,395.76L1004.59,396.61L1006.18,394.94L1007.77,395.72L1009.36,394.55L1010.95,395.39L1012.54,393.5L1014.13,394.08L1015.72,393.51L1017.31,390.3L1018.9,391.3L1022.08,387.67L1023.67,387.01L1025.26,386.95L1026.85,388.49L1028.43,389.81L1030.02,389.22L1033.2,386.39L1034.79,386.56L1052.28,368.51L1053.87,367.69L1055.46,367.09L1057.05,365.56L1058.64,364.59L1060.23,364.53L1066.58,363.43L1068.17,363.76L1074.53,362L1076.12,361.13L1079.3,361.39L1080.89,361.09L1084.07,360.38L1085.66,360.96L1087.25,361L1088.84,361.84L1092.02,367.13L1093.61,372.2L1095.2,374.86L1096.78,379.97L1103.14,394.83L1104.73,396.31L1109.5,401.95L1111.09,403.24L1112.68,402.02L1114.27,402.91L1115.86,397.59L1117.45,395.8L1122.22,386.46L1123.81,384.21L1128.58,373.11L1130.17,371.03L1131.76,369.58L1133.35,362.56L1141.29,351.56L1142.88,348.65L1144.47,346.76L1146.06,346.61L1147.65,346.67L1149.24,347.94L1150.83,343.11L1152.42,342.06L1157.19,336.95L1158.78,332.04L1160.37,329.35L1161.96,322.79L1165.14,319.44L1166.72,316.62L1168.31,315.38L1169.9,315.51L1173.08,314.61L1174.67,314.62L1177.85,312.56L1179.44,312.43L1181.03,311.93L1182.62,305.63L1187.39,291.74L1188.98,286.8L1190.57,283.04L1192.16,281.56L1195.34,277.4L1196.93,275.88L1198.52,276.19L1200.11,273.63L1201.7,274.43L1203.29,274.28L1204.88,272.74L1206.46,273.39L1208.05,274.91L1209.64,275.24L1211.23,275.36L1212.82,277.07L1219.18,277.52L1220.77,278.95L1223.95,280.5L1225.54,284.14L1235.08,296.86L1236.67,297.17L1238.25,297.88L1239.84,299.43L1243.02,304.59L1244.61,303.43L1249.38,310.91L1250.97,312.08L1255.74,320.05L1257.33,320.47L1260.51,323.14L1262.1,323.39L1265.28,321.34L1266.87,323.37L1268.46,325.46L1270.05,323.67L1271.64,322.83L1273.23,319.95L1274.82,318.2L1276.4,314.7L1277.99,313.22L1279.58,309.21L1282.76,285.08L1284.35,240.75L1285.94,210.24L1287.53,145.06L1292.3,75.26L1293.89,68.41L1295.48,56.62L1297.07,50.47L1298.66,660.63L1300.25,659.73L1301.84,661.13L1303.43,659.88L1308.19,654.5L1309.78,655.68L1312.96,656.28L1314.55,658.53L1316.14,659.1L1317.73,661.05L1322.5,665.34L1324.09,665.82L1330.45,671.6L1332.04,673.09L1335.22,674.54L1336.81,675.03L1339.99,674.57L1341.58,675.67L1344.75,675.87L1346.34,678.34L1349.52,679.04L1351.11,678.1L1359.06,679.44L1360.65,681.16L1365.42,683.88L1367.01,684L1368.6,681.44L1370.19,681.6L1371.78,679.29L1373.37,451.69L1374.95,403.11L1376.54,396.4L1378.14,388.47L1379.72,385.9L1381.31,385.14L1382.9,385.34L1386.08,381.47L1387.67,381.85L1397.21,366.52L1398.8,365.48L1400.39,364.61L1401.98,365.02L1406.75,366.2L1408.34,364.94L1409.93,363.88L1411.52,360.81L1413.11,360.11L1414.69,355.37L1416.28,354.71L1417.87,354.9L1419.46,353.61L1421.05,353.94L1427.41,346.35L1429,347.25" style="vector-effect: none; fill: none; stroke: rgb(255, 161, 90); stroke-opacity: 1; stroke-width: 3px; opacity: 1;"/></g><g class="points"/><g class="text"/></g></g></g></g><path class="xlines-above crisp" d="M0,0" style="fill: none;"/><path class="ylines-above crisp" d="M0,0" style="fill: none;"/><g class="overlines-above"/><g class="xaxislayer-above"><g class="xtick"><text text-anchor="middle" x="0" y="841" transform="translate(248.37,0)" style="font-family: 'Open Sans', verdana, arial, sans-serif; font-size: 20px; fill: rgb(42, 63, 95); fill-opacity: 1; white-space: pre; opacity: 1;">2</text></g><g class="xtick"><text text-anchor="middle" x="0" y="841" style="font-family: 'Open Sans', verdana, arial, sans-serif; font-size: 20px; fill: rgb(42, 63, 95); fill-opacity: 1; white-space: pre; opacity: 1;" transform="translate(407.32,0)">4</text></g><g class="xtick"><text text-anchor="middle" x="0" y="841" style="font-family: 'Open Sans', verdana, arial, sans-serif; font-size: 20px; fill: rgb(42, 63, 95); fill-opacity: 1; white-space: pre; opacity: 1;" transform="translate(566.27,0)">6</text></g><g class="xtick"><text text-anchor="middle" x="0" y="841" style="font-family: 'Open Sans', verdana, arial, sans-serif; font-size: 20px; fill: rgb(42, 63, 95); fill-opacity: 1; white-space: pre; opacity: 1;" transform="translate(725.23,0)">8</text></g><g class="xtick"><text text-anchor="middle" x="0" y="841" style="font-family: 'Open Sans', verdana, arial, sans-serif; font-size: 20px; fill: rgb(42, 63, 95); fill-opacity: 1; white-space: pre; opacity: 1;" transform="translate(884.18,0)">10</text></g><g class="xtick"><text text-anchor="middle" x="0" y="841" style="font-family: 'Open Sans', verdana, arial, sans-serif; font-size: 20px; fill: rgb(42, 63, 95); fill-opacity: 1; white-space: pre; opacity: 1;" transform="translate(1043.1399999999999,0)">12</text></g><g class="xtick"><text text-anchor="middle" x="0" y="841" style="font-family: 'Open Sans', verdana, arial, sans-serif; font-size: 20px; fill: rgb(42, 63, 95); fill-opacity: 1; white-space: pre; opacity: 1;" transform="translate(1202.09,0)">14</text></g><g class="xtick"><text text-anchor="middle" x="0" y="841" style="font-family: 'Open Sans', verdana, arial, sans-serif; font-size: 20px; fill: rgb(42, 63, 95); fill-opacity: 1; white-space: pre; opacity: 1;" transform="translate(1361.05,0)">16</text></g><g class="xtick"><text text-anchor="middle" x="0" y="841" style="font-family: 'Open Sans', verdana, arial, sans-serif; font-size: 20px; fill: rgb(42, 63, 95); fill-opacity: 1; white-space: pre; opacity: 1;" transform="translate(1520,0)">18</text></g></g><g class="yaxislayer-above"><g class="ytick"><text text-anchor="end" x="90" y="7" transform="translate(0,783.86)" style="font-family: 'Open Sans', verdana, arial, sans-serif; font-size: 20px; fill: rgb(42, 63, 95); fill-opacity: 1; white-space: pre; opacity: 1;">0.3</text></g><g class="ytick"><text text-anchor="end" x="90" y="7" style="font-family: 'Open Sans', verdana, arial, sans-serif; font-size: 20px; fill: rgb(42, 63, 95); fill-opacity: 1; white-space: pre; opacity: 1;" transform="translate(0,665.48)">0.2</text></g><g class="ytick"><text text-anchor="end" x="90" y="7" style="font-family: 'Open Sans', verdana, arial, sans-serif; font-size: 20px; fill: rgb(42, 63, 95); fill-opacity: 1; white-space: pre; opacity: 1;" transform="translate(0,547.1)">0.1</text></g><g class="ytick"><text text-anchor="end" x="90" y="7" style="font-family: 'Open Sans', verdana, arial, sans-serif; font-size: 20px; fill: rgb(42, 63, 95); fill-opacity: 1; white-space: pre; opacity: 1;" transform="translate(0,428.72)">0</text></g><g class="ytick"><text text-anchor="end" x="90" y="7" style="font-family: 'Open Sans', verdana, arial, sans-serif; font-size: 20px; fill: rgb(42, 63, 95); fill-opacity: 1; white-space: pre; opacity: 1;" transform="translate(0,310.35)">0.1</text></g><g class="ytick"><text text-anchor="end" x="90" y="7" style="font-family: 'Open Sans', verdana, arial, sans-serif; font-size: 20px; fill: rgb(42, 63, 95); fill-opacity: 1; white-space: pre; opacity: 1;" transform="translate(0,191.97)">0.2</text></g></g><g class="overaxes-above"/></g></g><g class="polarlayer"/><g class="smithlayer"/><g class="ternarylayer"/><g class="geolayer"/><g class="funnelarealayer"/><g class="pielayer"/><g class="iciclelayer"/><g class="treemaplayer"/><g class="sunburstlayer"/><g class="glimages"/><defs id="topdefs-351edc"><g class="clips"/><clipPath id="legend351edc"><rect width="84" height="181" x="0" y="0"/></clipPath></defs><g class="layer-above"><g class="imagelayer"/><g class="shapelayer"/></g><g class="infolayer"><g class="legend" pointer-events="all" transform="translate(252.477,110.08000000000001)"><rect class="bg" shape-rendering="crispEdges" width="84" height="181" x="0" y="0" style="stroke: rgb(68, 68, 68); stroke-opacity: 1; fill: rgb(255, 255, 255); fill-opacity: 1; stroke-width: 0px;"/><g class="scrollbox" transform="" clip-path="url(#legend351edc)"><g class="groups"><g class="traces" transform="translate(0,22.1)" style="opacity: 1;"><text class="legendtext" text-anchor="start" x="40" y="9.360000000000001" style="font-family: 'Open Sans', verdana, arial, sans-serif; font-size: 24px; fill: rgb(42, 63, 95); fill-opacity: 1; white-space: pre;">1m</text><g class="layers" style="opacity: 1;"><g class="legendfill"/><g class="legendlines"><path class="js-line" d="M5,0h30" style="fill: none; stroke: rgb(99, 110, 250); stroke-opacity: 1; stroke-width: 3px;"/></g><g class="legendsymbols"><g class="legendpoints"/></g></g><rect class="legendtoggle" x="0" y="-17.1" width="78.609375" height="34.2" style="fill: rgb(0, 0, 0); fill-opacity: 0;"/></g><g class="traces" transform="translate(0,56.300000000000004)" style="opacity: 1;"><text class="legendtext" text-anchor="start" x="40" y="9.360000000000001" style="font-family: 'Open Sans', verdana, arial, sans-serif; font-size: 24px; fill: rgb(42, 63, 95); fill-opacity: 1; white-space: pre;">2m</text><g class="layers" style="opacity: 1;"><g class="legendfill"/><g class="legendlines"><path class="js-line" d="M5,0h30" style="fill: none; stroke: rgb(239, 85, 59); stroke-opacity: 1; stroke-width: 3px;"/></g><g class="legendsymbols"><g class="legendpoints"/></g></g><rect class="legendtoggle" x="0" y="-17.1" width="78.609375" height="34.2" style="fill: rgb(0, 0, 0); fill-opacity: 0;"/></g><g class="traces" transform="translate(0,90.5)" style="opacity: 1;"><text class="legendtext" text-anchor="start" x="40" y="9.360000000000001" style="font-family: 'Open Sans', verdana, arial, sans-serif; font-size: 24px; fill: rgb(42, 63, 95); fill-opacity: 1; white-space: pre;">3m</text><g class="layers" style="opacity: 1;"><g class="legendfill"/><g class="legendlines"><path class="js-line" d="M5,0h30" style="fill: none; stroke: rgb(0, 204, 150); stroke-opacity: 1; stroke-width: 3px;"/></g><g class="legendsymbols"><g class="legendpoints"/></g></g><rect class="legendtoggle" x="0" y="-17.1" width="78.609375" height="34.2" style="fill: rgb(0, 0, 0); fill-opacity: 0;"/></g><g class="traces" transform="translate(0,124.70000000000002)" style="opacity: 1;"><text class="legendtext" text-anchor="start" x="40" y="9.360000000000001" style="font-family: 'Open Sans', verdana, arial, sans-serif; font-size: 24px; fill: rgb(42, 63, 95); fill-opacity: 1; white-space: pre;">4m</text><g class="layers" style="opacity: 1;"><g class="legendfill"/><g class="legendlines"><path class="js-line" d="M5,0h30" style="fill: none; stroke: rgb(171, 99, 250); stroke-opacity: 1; stroke-width: 3px;"/></g><g class="legendsymbols"><g class="legendpoints"/></g></g><rect class="legendtoggle" x="0" y="-17.1" width="78.609375" height="34.2" style="fill: rgb(0, 0, 0); fill-opacity: 0;"/></g><g class="traces" transform="translate(0,158.9)" style="opacity: 1;"><text class="legendtext" text-anchor="start" x="40" y="9.360000000000001" style="font-family: 'Open Sans', verdana, arial, sans-serif; font-size: 24px; fill: rgb(42, 63, 95); fill-opacity: 1; white-space: pre;">5m</text><g class="layers" style="opacity: 1;"><g class="legendfill"/><g class="legendlines"><path class="js-line" d="M5,0h30" style="fill: none; stroke: rgb(255, 161, 90); stroke-opacity: 1; stroke-width: 3px;"/></g><g class="legendsymbols"><g class="legendpoints"/></g></g><rect class="legendtoggle" x="0" y="-17.1" width="78.609375" height="34.2" style="fill: rgb(0, 0, 0); fill-opacity: 0;"/></g></g></g><rect class="scrollbar" rx="20" ry="3" width="0" height="0" x="0" y="0" style="fill: rgb(128, 139, 164); fill-opacity: 1;"/></g><g class="g-gtitle"><text class="gtitle" x="800" y="50" text-anchor="middle" dy="0.7em" style="opacity: 1; font-family: 'Open Sans', verdana, arial, sans-serif; font-size: 20px; fill: rgb(42, 63, 95); fill-opacity: 1; font-weight: bold; white-space: pre;">Yielding, Back and eHMI</text></g><g class="g-xtitle"><text class="xtitle" x="805.5" y="873.5" text-anchor="middle" style="opacity: 1; font-family: 'Open Sans', verdana, arial, sans-serif; font-size: 20px; fill: rgb(42, 63, 95); fill-opacity: 1; white-space: pre;">Time (in seconds)</text></g><g class="g-ytitle" transform="translate(0.578125,0)"><text class="ytitle" transform="rotate(-90,19.421875,460)" x="19.421875" y="460" text-anchor="middle" style="opacity: 1; font-family: 'Open Sans', verdana, arial, sans-serif; font-size: 20px; fill: rgb(42, 63, 95); fill-opacity: 1; white-space: pre;">Yaw Angle (in radians)</text></g></g></svg>