<svg class="main-svg" xmlns="http://www.w3.org/2000/svg" xmlns:xlink="http://www.w3.org/1999/xlink" width="4800" height="2700" style="" viewBox="0 0 1600 900"><rect x="0" y="0" width="1600" height="900" style="fill: rgb(255, 255, 255); fill-opacity: 1;"/><defs id="defs-26c3f5"><g class="clips"><clipPath id="clip26c3f5xyplot" class="plotclip"><rect width="1416" height="720"/></clipPath><clipPath class="axesclip" id="clip26c3f5x"><rect x="104" y="0" width="1416" height="900"/></clipPath><clipPath class="axesclip" id="clip26c3f5y"><rect x="0" y="100" width="1600" height="720"/></clipPath><clipPath class="axesclip" id="clip26c3f5xy"><rect x="104" y="100" width="1416" height="720"/></clipPath></g><g class="gradients"/><g class="patterns"/></defs><g class="bglayer"><rect class="bg" x="104" y="100" width="1416" height="720" style="fill: rgb(229, 236, 246); fill-opacity: 1; stroke-width: 0;"/></g><g class="layer-below"><g class="imagelayer"/><g class="shapelayer"/></g><g class="cartesianlayer"><g class="subplot xy"><g class="layer-subplot"><g class="shapelayer"/><g class="imagelayer"/></g><g class="minor-gridlayer"><g class="x"/><g class="y"/></g><g class="gridlayer"><g class="x"><path class="xgrid crisp" transform="translate(243.05,0)" d="M0,100v720" style="stroke: rgb(255, 255, 255); stroke-opacity: 1; stroke-width: 1px;"/><path class="xgrid crisp" transform="translate(384.93,0)" d="M0,100v720" style="stroke: rgb(255, 255, 255); stroke-opacity: 1; stroke-width: 1px;"/><path class="xgrid crisp" transform="translate(526.8199999999999,0)" d="M0,100v720" style="stroke: rgb(255, 255, 255); stroke-opacity: 1; stroke-width: 1px;"/><path class="xgrid crisp" transform="translate(668.7,0)" d="M0,100v720" style="stroke: rgb(255, 255, 255); stroke-opacity: 1; stroke-width: 1px;"/><path class="xgrid crisp" transform="translate(810.58,0)" d="M0,100v720" style="stroke: rgb(255, 255, 255); stroke-opacity: 1; stroke-width: 1px;"/><path class="xgrid crisp" transform="translate(952.47,0)" d="M0,100v720" style="stroke: rgb(255, 255, 255); stroke-opacity: 1; stroke-width: 1px;"/><path class="xgrid crisp" transform="translate(1094.35,0)" d="M0,100v720" style="stroke: rgb(255, 255, 255); stroke-opacity: 1; stroke-width: 1px;"/><path class="xgrid crisp" transform="translate(1236.23,0)" d="M0,100v720" style="stroke: rgb(255, 255, 255); stroke-opacity: 1; stroke-width: 1px;"/><path class="xgrid crisp" transform="translate(1378.12,0)" d="M0,100v720" style="stroke: rgb(255, 255, 255); stroke-opacity: 1; stroke-width: 1px;"/></g><g class="y"><path class="ygrid crisp" transform="translate(0,809.09)" d="M104,0h1416" style="stroke: rgb(255, 255, 255); stroke-opacity: 1; stroke-width: 1px;"/><path class="ygrid crisp" transform="translate(0,722.73)" d="M104,0h1416" style="stroke: rgb(255, 255, 255); stroke-opacity: 1; stroke-width: 1px;"/><path class="ygrid crisp" transform="translate(0,550.01)" d="M104,0h1416" style="stroke: rgb(255, 255, 255); stroke-opacity: 1; stroke-width: 1px;"/><path class="ygrid crisp" transform="translate(0,463.65)" d="M104,0h1416" style="stroke: rgb(255, 255, 255); stroke-opacity: 1; stroke-width: 1px;"/><path class="ygrid crisp" transform="translate(0,377.29)" d="M104,0h1416" style="stroke: rgb(255, 255, 255); stroke-opacity: 1; stroke-width: 1px;"/><path class="ygrid crisp" transform="translate(0,290.93)" d="M104,0h1416" style="stroke: rgb(255, 255, 255); stroke-opacity: 1; stroke-width: 1px;"/><path class="ygrid crisp" transform="translate(0,204.57)" d="M104,0h1416" style="stroke: rgb(255, 255, 255); stroke-opacity: 1; stroke-width: 1px;"/><path class="ygrid crisp" transform="translate(0,118.21000000000001)" d="M104,0h1416" style="stroke: rgb(255, 255, 255); stroke-opacity: 1; stroke-width: 1px;"/></g></g><g class="zerolinelayer"><path class="yzl zl crisp" transform="translate(0,636.37)" d="M104,0h1416" style="stroke: rgb(255, 255, 255); stroke-opacity: 1; stroke-width: 2px;"/></g><g class="layer-between"><g class="shapelayer"/><g class="imagelayer"/></g><path class="xlines-below"/><path class="ylines-below"/><g class="overlines-below"/><g class="xaxislayer-below"/><g class="yaxislayer-below"/><g class="overaxes-below"/><g class="overplot"><g class="xy" transform="translate(104,100)" clip-path="url(#clip26c3f5xyplot)"><g class="scatterlayer mlayer"><g class="trace scatter trace32ecec" style="stroke-miterlimit: 2; opacity: 1;"><g class="fills"/><g class="errorbars"/><g class="lines"><path class="js-line" d="M0,524.04L14.19,517.05L17.03,514.58L19.87,511.41L22.71,509.97L25.54,509.02L28.38,507.17L36.89,498.11L39.73,491.53L42.57,486.28L45.41,483.42L48.24,481.23L51.08,477.33L59.6,466.66L62.43,463.02L68.11,450.88L70.95,442.18L76.62,430.14L79.46,420.62L87.97,398.15L90.81,394.5L96.49,385.36L99.32,378.46L105,366.64L107.84,358.03L110.67,350.4L113.51,345.83L116.35,343.8L119.19,338.9L122.02,337.75L124.86,333.34L127.7,329.6L130.54,324.37L133.37,320.76L136.21,321.26L139.05,310.9L141.89,309.19L144.72,303.7L147.56,302.28L150.4,301.29L153.24,301.35L156.08,303.95L158.91,302.72L161.75,304.12L164.59,303.55L167.43,301.75L170.26,298.57L175.94,298.67L178.78,301.01L181.61,298.77L184.45,298.55L187.29,300.12L190.13,298.36L192.97,304.25L195.8,313.28L198.64,317.42L201.48,324.24L204.32,328.91L207.15,338.43L209.99,342.92L212.83,344.96L215.67,346.74L218.5,350.29L229.86,358.51L232.69,359.25L235.53,358.83L238.37,359.78L244.04,363.16L246.88,366.46L249.72,367.58L252.56,377.06L255.39,377.13L258.23,379.91L263.91,382.09L266.75,385.84L269.58,387.48L272.42,393.4L280.93,412.14L283.77,411.09L289.45,413.14L292.28,418.02L295.12,419.72L297.96,424.58L300.8,428.93L303.63,431.37L306.47,434.46L309.31,435L314.98,442.85L317.82,444.45L323.5,443.77L326.34,448.17L329.17,445.44L332.01,447.99L334.85,446.71L337.69,450.83L343.36,461.42L346.2,462.6L349.04,471.75L351.87,477.61L354.71,484.87L357.55,488.09L360.39,493.06L363.23,493.27L366.06,495.76L368.9,496.37L371.74,499.05L374.58,498.94L377.41,500.41L380.25,499.35L383.09,501.46L385.93,501.66L388.77,499.76L391.6,499.54L397.28,497.73L400.12,495.87L402.95,495.74L405.79,497.26L408.63,497.41L411.46,495.31L414.3,486.63L417.14,485.71L419.98,483.61L422.82,483.84L428.49,479.77L431.33,478.53L437,463.15L439.84,458.27L445.52,455.54L448.36,455.36L451.19,453.06L454.03,454.55L462.54,451.69L465.38,446.04L468.22,442.99L471.06,441.22L476.73,437.92L479.57,433.68L485.25,425.99L488.08,423.44L502.27,396.72L505.11,393.1L507.95,389.48L510.78,387.17L516.46,381.82L519.3,381.18L524.97,379.68L527.81,381.66L536.32,388.4L539.16,391.7L544.84,396.57L547.67,396.3L550.51,396.17L553.35,396.82L556.19,398.62L559.02,398.55L561.86,399.02L564.7,398.69L567.54,399.74L570.37,399.38L573.21,399.64L576.05,398.51L578.89,397.35L581.73,400.23L587.4,406L590.24,407.76L593.08,410.23L595.91,408.97L598.75,407.93L601.59,411.08L604.43,410.88L607.26,407.65L612.94,410.43L615.78,403.61L618.62,404.09L621.45,402.39L629.97,396.84L632.8,395.36L635.64,393.91L638.48,393.69L641.32,391.94L644.15,394.49L649.83,399.12L652.67,402.71L655.51,406.1L658.34,411.57L661.18,415.22L664.02,416.19L672.53,422.77L675.37,427.22L678.21,428.68L681.04,431.58L683.88,436.61L686.72,439.3L692.4,438.25L695.23,438.14L703.75,437.14L706.58,433.72L712.26,432.25L715.1,432.74L723.61,430.9L726.45,431.53L729.28,432.43L732.12,431.56L737.8,425.9L740.64,421.25L749.15,408.15L751.99,403.43L757.66,396.67L760.5,395.44L763.34,387.7L766.17,385.61L769.01,383.94L771.85,381.37L774.69,381.92L777.52,381.13L780.36,382.17L783.2,381.34L786.04,383.06L788.88,383.16L794.55,383.52L797.39,385.56L803.06,386.25L805.9,388.37L808.74,389.29L811.58,393.24L814.42,395.84L817.25,396.89L825.77,404.85L828.6,404.57L834.28,408.93L837.12,409.29L845.63,409.46L848.47,408.29L856.98,406.9L859.82,406.91L865.49,403.07L868.33,400.86L871.17,397.97L874.01,396.71L876.84,394.64L879.68,394.35L885.36,393.15L888.19,391.65L905.22,391.43L908.06,392.08L913.73,394.18L916.57,395.27L919.41,396.81L922.25,397.47L925.08,400.22L927.92,401.45L933.6,404.33L936.43,404L939.27,403.73L942.11,407.29L950.62,415.01L953.46,418.24L961.97,423.59L964.81,426.17L967.65,425.79L970.49,428.13L976.16,429.75L979,430.82L981.84,432.42L984.68,435.25L987.51,436.08L990.35,438.48L1001.7,442.53L1004.54,444.54L1007.38,444.88L1010.21,447.81L1015.89,450.69L1018.73,451.37L1027.24,454.89L1030.08,455.68L1041.43,456.39L1044.27,456.38L1052.78,455.6L1055.62,456.86L1064.13,458.05L1066.97,459.45L1075.48,465.55L1078.32,467.28L1081.16,469.82L1083.99,471.18L1086.83,474.76L1089.67,476.6L1095.34,482.2L1098.18,484.03L1101.02,487.01L1103.86,488.28L1109.53,491.75L1112.37,494.4L1118.05,498.7L1120.88,500.04L1123.72,503.53L1126.56,505.2L1129.4,506.78L1132.23,509.98L1140.75,518.3L1143.59,522.19L1146.42,524.94L1149.26,526.64L1152.1,529.67L1154.94,531.18L1160.61,535.3L1163.45,536.86L1169.12,540.95L1171.96,544.35L1177.64,546.69L1180.47,549.01L1183.31,550.84L1186.15,551.37L1188.99,552.48L1191.82,554.79L1203.17,563.93L1206.01,564.88L1208.85,566.23L1211.69,566.25L1214.53,567.88L1217.36,568.4L1223.04,568.43L1225.88,568.77L1228.71,569.65L1231.55,569.35L1240.07,567.38L1242.9,569.5L1245.74,569.97L1248.58,571.5L1254.25,571.51L1257.09,575.44L1262.77,580.15L1265.6,585.23L1271.28,596.9L1274.12,600.48L1279.79,601.77L1282.63,603L1285.47,603.04L1288.3,605.59L1291.14,606.48L1293.98,605.36L1299.66,611.09L1302.49,613.16L1305.33,614.37L1308.17,614.69L1313.84,610.75L1316.68,604.4L1319.52,598.52L1322.36,594.43L1328.03,582.44L1330.87,579.74L1333.71,577.19L1336.55,575.77L1339.38,572.94L1342.22,573.77L1345.06,575L1347.9,573.8L1350.73,573.36L1353.57,577.7L1359.25,585.01L1362.08,587.17L1364.92,587.89L1367.76,590.92L1370.6,592.34L1373.44,596.37L1384.79,601.4L1387.62,604.93L1390.46,606.17L1393.3,603.41L1396.14,602.79L1398.97,600.64L1407.49,593.55L1410.33,593.68L1416,592.79" style="vector-effect: none; fill: none; stroke: rgb(99, 110, 250); stroke-opacity: 1; stroke-width: 3px; opacity: 1;"/></g><g class="points"/><g class="text"/></g><g class="trace scatter tracecc789b" style="stroke-miterlimit: 2; opacity: 1;"><g class="fills"/><g class="errorbars"/><g class="lines"><path class="js-line" d="M0,538.53L5.68,538.74L8.51,537.34L11.35,536.25L14.19,536.86L19.86,535.66L22.7,534.18L25.54,534.33L28.38,532.46L31.22,531.7L34.06,528.77L36.89,524.91L39.73,519.16L42.57,516.84L45.4,511.99L48.24,504.52L51.08,500.16L53.92,491.16L56.75,485.44L59.59,476.71L62.43,470.45L70.94,445.64L73.78,430.2L76.62,419.59L79.46,405.6L85.13,387.03L87.97,377.47L90.81,369.21L93.64,354.92L99.32,339.77L102.16,339.77L105,329.55L107.83,328.53L110.67,328.27L113.51,323.94L124.86,302.05L127.69,296.16L130.53,294.04L133.37,294.78L136.21,290.35L139.05,290.38L141.88,285.79L144.72,284.93L150.4,282.5L153.24,282.97L156.07,276.58L158.91,279.06L161.75,277.54L164.59,280.04L167.42,278.22L170.26,282.22L173.1,284.94L175.94,290.73L178.77,295.49L181.61,304.16L184.45,311.93L187.29,322.07L195.8,362.32L198.64,375.3L204.31,393.98L207.15,404.42L218.5,449.7L221.34,455.97L224.18,460.55L227.02,461.95L229.85,462.91L232.69,462.31L235.53,460.74L238.36,461.37L244.04,460.86L246.88,463.76L252.55,458.93L255.39,454.95L258.23,452.83L261.07,449.65L263.91,441.76L266.74,439.64L269.58,428.18L272.42,425.26L275.25,413.35L278.09,415.29L280.93,421.87L283.77,421.81L286.61,427.22L289.44,420.12L292.28,426.06L295.12,417.36L297.96,417.42L300.79,405.01L303.63,403.56L306.47,392.52L309.31,388.96L312.14,391.85L314.98,396.61L317.82,403.08L320.66,415.22L323.49,431.17L326.33,455.67L329.17,467.25L334.85,485.7L337.68,474.04L340.52,476.01L343.36,469.09L346.2,471.23L349.03,471.26L351.87,465.23L354.71,467.51L357.55,465.19L360.39,469.91L363.22,468.7L366.06,468.46L368.9,469.83L371.74,477.35L380.25,494.13L383.09,497.77L385.93,499.17L388.76,498.12L391.6,498.21L394.44,492.53L397.27,488.59L400.11,491.24L402.95,494.16L405.79,495.38L408.62,490.46L411.46,482.84L414.3,476.57L417.14,465.95L419.98,459.64L422.82,450.9L428.49,430.13L431.33,422.52L442.68,382.38L445.52,374.77L448.35,362.48L451.19,353.73L454.03,345.2L456.87,339.12L468.22,320.6L471.05,321.66L473.89,324.02L476.73,321.18L479.57,323.63L482.4,322.03L485.24,319.11L488.08,300.75L490.92,288.92L493.76,268.7L496.59,233.5L499.43,207.89L502.27,161.08L505.11,142.55L507.94,108.93L510.78,94.97L513.62,84.44L516.46,70.36L519.29,73.75L522.13,69.75L524.97,69.62L527.81,67.54L530.65,58.59L533.48,54.04L539.16,40.84L542,38.85L544.83,36L547.67,38.24L550.51,45.13L553.35,42.18L556.18,42.26L559.02,44.5L561.86,45.33L564.7,49.25L567.53,57.73L570.37,61.59L573.21,65.18L576.05,66.96L578.89,71.91L581.72,79.21L584.56,86.32L587.4,90.28L590.24,96.1L593.07,116.05L595.91,131.6L598.75,180.89L601.59,214.6L604.42,289L607.26,320.17L610.1,337.85L612.94,362.01L615.78,371.61L618.62,384.34L621.45,389.43L624.29,397.92L627.13,401.89L635.64,412.85L638.48,413.05L644.15,416.24L646.99,416.04L652.67,421.55L655.5,423.08L661.18,425.38L664.01,425.47L666.85,424.41L669.69,426.46L672.53,425.97L675.37,427.14L681.04,428.75L683.88,429.91L686.72,432.43L689.56,433.04L695.23,438.06L698.07,438.12L700.9,437.93L703.74,436.92L709.42,440.12L712.26,439.5L715.09,439.35L717.93,438.06L720.77,438.85L723.61,438.86L726.44,437.19L729.28,437.13L732.12,437.58L734.96,440.04L740.63,441.74L743.47,441.61L749.14,445.11L751.98,443.73L754.82,439.49L757.66,440.38L760.5,440.12L763.33,441.26L769.01,438.9L771.85,440.09L774.68,441.03L777.52,439.84L780.36,439.59L783.2,436.67L794.55,430.59L797.39,430.52L805.9,432.03L808.74,430.8L811.58,430.34L814.42,432.85L817.25,430.76L820.09,430.16L825.76,429.77L828.6,428.9L839.95,426.99L842.79,427.19L854.14,429.6L856.98,429.78L859.81,429.44L862.65,429.95L871.17,428.06L874,427.7L879.68,427.69L882.52,428.18L885.36,432.21L888.19,432.46L891.03,433.96L893.87,432.85L896.7,432.33L899.54,433.07L902.38,432.52L905.22,434.17L919.41,439.83L922.24,440.34L930.76,442.48L933.59,441.48L936.43,442.54L939.27,442.69L947.78,439.02L950.62,438.81L953.46,437.7L956.3,439.43L961.97,440.26L964.81,440.06L967.65,441.29L970.48,441.56L973.32,440.99L976.16,441.56L987.51,441.31L990.35,441.25L1001.7,441.81L1004.54,442.15L1018.72,444.44L1021.56,444.07L1027.24,446.2L1030.07,447.45L1035.75,449.04L1038.59,450.78L1041.43,451.64L1044.27,453.42L1047.1,455.05L1049.94,455.62L1055.61,456.55L1058.45,455.98L1066.96,456.01L1069.8,454.99L1075.48,456.52L1078.32,454.98L1089.66,454.04L1092.5,454.74L1095.34,453.38L1098.18,453.13L1101.02,453.02L1103.85,454.33L1106.69,454.87L1109.53,453.99L1112.37,454.29L1115.21,455.38L1118.04,456.23L1120.88,458.14L1123.72,460.68L1126.55,462.19L1132.23,466.73L1135.07,470.37L1137.91,470.22L1140.74,472.2L1146.42,477.91L1149.26,481L1163.44,500.04L1166.28,502.98L1169.12,506.49L1171.96,508.69L1177.63,515.32L1180.47,518.6L1186.15,522.95L1188.98,523.79L1191.82,524.98L1194.66,528.12L1197.5,527.18L1200.33,528.41L1206.01,528.85L1208.85,529.51L1217.36,532.11L1220.2,532.02L1223.04,533.93L1225.87,532.6L1228.71,535.21L1231.55,536.38L1240.07,542.95L1242.9,544.2L1245.74,546.24L1248.57,545.4L1251.41,546.03L1254.25,543.95L1257.09,543.65L1259.93,544.37L1262.76,544.14L1265.6,546.67L1268.44,548L1271.28,550.42L1274.12,553.05L1276.95,553.94L1282.63,560.66L1285.46,561.18L1288.3,562.45L1291.14,562.82L1293.98,562.03L1296.82,560.09L1302.49,550.19L1305.33,541.58L1308.17,538.5L1311.01,537.11L1313.84,535.7L1316.68,532.51L1319.52,533.73L1322.35,533.22L1325.19,536.28L1328.03,536.56L1333.7,544L1336.54,547.08L1339.38,554.43L1342.22,559.12L1345.06,563.78L1347.89,563.59L1350.73,562.78L1353.57,561.16L1359.24,558.14L1362.08,557.74L1367.76,559.73L1370.59,562.4L1373.43,562.08L1376.27,562.8L1381.95,561.7L1384.78,564.34L1387.62,565.8L1390.46,565.86L1393.3,564.18L1396.13,560.82L1398.97,559.17L1401.81,555.95L1404.65,552.7L1407.48,551.3L1410.32,549.1L1413.16,549.99L1416,551.03" style="vector-effect: none; fill: none; stroke: rgb(239, 85, 59); stroke-opacity: 1; stroke-width: 3px; opacity: 1;"/></g><g class="points"/><g class="text"/></g><g class="trace scatter tracef5bcac" style="stroke-miterlimit: 2; opacity: 1;"><g class="fills"/><g class="errorbars"/><g class="lines"><path class="js-line" d="M0.01,557.14L5.68,555.81L8.52,554.56L11.36,552.8L14.19,551.97L19.87,548.82L22.71,546.18L25.54,544.17L28.38,541.11L31.22,540.29L34.06,537.78L36.89,536.29L39.73,533.17L45.41,529.29L48.25,525.82L51.08,521.56L53.92,518.96L59.6,510.54L62.43,504.42L76.62,467.12L79.46,454.11L87.97,429.01L90.81,424.02L93.65,418.09L96.49,416.09L102.16,415.64L105,417.72L107.84,411.85L110.67,411.8L116.35,412.77L119.19,409.18L124.86,404.72L127.7,397.55L130.54,393.67L133.38,394.69L136.21,390.69L139.05,380.61L141.89,373.08L144.73,368.58L147.56,365.15L150.4,358.94L153.24,354.29L156.08,345.48L158.91,335.06L161.75,334.87L164.59,336.14L167.43,327.08L173.1,316.5L175.94,312.99L178.78,302.77L181.62,305.33L184.45,307.83L187.29,317.05L195.8,341.69L198.64,332.53L201.48,334.88L204.32,335.34L207.16,326.92L209.99,332.14L212.83,327.42L215.67,336.7L218.51,331.02L221.34,341L224.18,345.13L227.02,345.15L229.86,345.93L232.69,340.61L235.53,340.42L238.37,326.58L241.21,335.25L244.05,329.87L246.88,333.4L249.72,325.15L252.56,323.23L255.39,323.32L258.23,321.52L261.07,325.22L263.91,355.53L266.75,398.7L269.58,592.54L272.42,646.5L275.26,670.36L278.1,675.41L283.77,667.12L286.61,680.45L289.45,684L292.29,670.5L297.96,641.27L300.8,633.49L306.47,620.01L309.31,612.15L312.15,617.22L314.99,618.57L317.82,623.12L320.66,623.6L326.34,612.89L329.18,602.39L334.85,585.66L337.69,577.99L346.2,563.78L349.04,564.92L351.87,536.22L354.71,527.51L357.55,521.1L360.39,518.37L363.23,525.65L366.06,524.03L368.9,517.57L371.74,514.19L374.58,511.71L377.41,513.26L380.25,508.49L383.09,508.26L385.93,502.08L388.76,507.49L391.6,504.45L394.44,505.4L397.28,501.41L400.12,501.57L402.95,498.11L405.79,510.19L408.63,508.87L411.47,518.23L414.3,519.33L417.14,534.82L419.98,537.54L422.82,542.72L425.66,546.88L428.49,564.71L431.33,566.11L434.17,577.02L437.01,577.96L439.84,577.27L442.68,578.89L445.52,575.98L451.19,571.98L454.03,577.42L456.87,586.51L459.71,587.57L462.54,595.68L465.38,609.85L471.06,623.23L473.9,630.03L476.73,639.14L479.57,644.65L485.25,653.74L488.08,655.49L490.92,655.74L493.76,651.72L496.6,650.63L499.43,641.82L502.27,642.59L505.11,635.19L507.95,642.45L510.78,637.55L513.62,637.86L516.46,634.52L519.3,633.15L522.14,625.29L524.97,623.53L527.81,623.84L530.65,622.59L533.49,626.59L539.16,637.03L542,638.33L544.84,638.97L547.67,640.56L550.51,634.85L553.35,639L556.19,638.11L559.03,635.35L561.86,631.49L564.7,633.03L567.54,627.47L570.38,624.73L573.21,635.29L576.05,610.79L578.89,625.18L581.73,622.38L584.56,612.53L587.4,609.38L590.24,605.88L593.08,603.65L595.92,597.39L598.75,593.18L601.59,587.25L604.43,584.7L607.27,582.49L610.1,575.32L612.94,576.67L615.78,573.35L618.61,572.52L621.45,562.76L624.29,567.97L627.13,561.52L629.97,553.64L632.81,549.09L635.64,544.46L638.48,543.01L641.32,539.15L644.16,539.29L646.99,535.45L649.83,530.21L652.67,529.13L655.51,529.36L658.34,526.78L661.18,525.77L666.86,516.98L669.7,511.5L672.53,508.06L675.37,500.98L678.21,497.99L681.05,493.26L683.88,487.08L686.72,482.86L692.4,474.94L695.23,469.45L698.07,466.39L700.91,466.33L706.58,465.56L709.42,464.24L720.77,464.05L723.61,461.8L726.45,460.97L729.29,459.09L740.64,451.62L743.47,450.53L746.31,448.77L749.15,447.99L757.66,450.98L760.5,452.35L763.34,454.44L766.17,458.15L774.69,466.75L777.52,467.78L786.04,469.53L788.88,471.81L797.39,474.33L800.23,476.28L808.74,477.39L811.58,478.63L814.41,479.39L817.25,481.03L820.09,482.53L822.93,482.81L825.77,483.26L828.6,484.79L831.44,486.07L834.28,485.65L837.12,485.85L839.95,484.97L842.79,485.38L845.63,484.16L848.47,482.36L851.31,482.3L854.14,481.75L856.98,481.99L859.82,483.11L862.66,481.5L868.33,479.97L871.17,477.87L874.01,477.06L876.84,475.22L882.52,473.51L885.36,471.92L891.03,471.13L893.87,470.29L905.22,470.17L908.06,468.57L910.9,468.59L913.73,471.79L916.57,473.59L919.41,477.68L922.25,480.35L925.08,484.3L930.76,486.84L933.6,492.94L936.43,492.4L939.27,492.86L950.62,491.7L953.46,492.65L956.3,492.41L959.14,493.72L961.97,494.32L964.81,494.13L973.32,492.42L976.16,492.87L979,492.88L981.84,491.6L987.51,490.78L990.35,490.28L993.19,489.34L996.03,489.52L1001.7,489.61L1004.54,488.25L1010.21,485.46L1013.05,485.76L1018.73,487.32L1021.57,487.86L1024.4,490.96L1027.24,491.58L1032.92,492.03L1035.75,491.51L1044.26,491.27L1047.11,491.9L1049.94,492.7L1052.78,496.01L1055.62,496.62L1058.46,498.32L1061.29,501.03L1064.13,502.4L1069.81,507.35L1072.64,510L1078.32,513.61L1081.16,516.54L1086.83,522.2L1089.67,523.56L1095.35,528.3L1098.18,530.45L1101.02,532.45L1103.86,533.52L1106.7,535.61L1109.53,539.59L1112.37,540.87L1115.21,543.43L1120.88,548.79L1123.72,555.44L1132.23,562.54L1135.07,564.95L1137.91,568.09L1140.75,570.1L1146.42,572.48L1149.26,574.12L1154.94,576.9L1157.77,579.29L1163.45,586.46L1166.29,590.44L1169.12,595.81L1171.96,597.12L1177.64,598.67L1180.48,600.57L1183.31,603.47L1186.15,604.58L1188.99,607.03L1191.82,608.16L1194.66,608.48L1197.5,607.83L1206.01,604.8L1208.85,602.95L1211.69,601.83L1214.53,604.31L1217.36,602.72L1220.2,603.73L1223.04,606.03L1225.88,602.66L1228.71,606.01L1231.55,606.47L1234.39,605.57L1237.23,603.74L1240.06,602.75L1242.9,600.54L1245.74,598.73L1248.58,598.72L1251.42,598.6L1254.26,600.8L1257.09,596.85L1259.93,599.92L1262.77,597.69L1265.6,599.17L1271.28,599.92L1274.12,601.75L1276.96,603.12L1279.79,607.22L1282.63,608.1L1285.47,606.37L1288.31,603.32L1291.14,609.35L1293.98,609.29L1296.82,611.04L1299.66,613.68L1302.49,613.61L1305.33,616.63L1308.17,617.61L1311.01,621.8L1313.85,621.05L1319.52,623.27L1322.36,626.13L1325.2,625.86L1328.03,624.09L1333.71,622.44L1336.55,623.11L1339.38,621.35L1342.22,621.09L1347.9,617.06L1350.73,614.1L1353.57,615.15L1356.41,612.63L1359.25,608.92L1362.09,606.55L1364.92,602.27L1367.76,600.08L1370.6,597.37L1373.44,593.06L1376.27,591.94L1379.11,591.92L1381.95,591.07L1384.79,591.99L1387.62,590.93L1390.46,591.19L1396.14,589.69L1398.97,588.06L1401.81,587.28L1404.65,588.18L1407.49,589.38L1410.33,588.77L1413.16,593.64L1416,593.18" style="vector-effect: none; fill: none; stroke: rgb(0, 204, 150); stroke-opacity: 1; stroke-width: 3px; opacity: 1;"/></g><g class="points"/><g class="text"/></g><g class="trace scatter trace2b35f0" style="stroke-miterlimit: 2; opacity: 1;"><g class="fills"/><g class="errorbars"/><g class="lines"><path class="js-line" d="M0,614.56L8.52,610.92L11.36,610.1L14.19,609.05L17.03,608.8L22.71,607.93L25.54,607.22L28.38,604.91L31.22,604.62L34.05,600.91L36.9,599.1L39.73,593.51L42.57,590.89L45.41,584.92L48.24,584.32L51.08,582.07L53.92,573.48L56.76,571.68L59.6,565.33L70.95,545.02L73.78,542.37L76.62,540.65L79.46,527.38L82.3,515.6L85.13,510.44L87.97,500.19L90.81,494.18L93.65,484.02L96.49,478.97L102.16,466.17L105,458.61L110.67,441.92L113.51,438.15L124.86,410.51L127.7,400.4L139.05,378.38L141.89,380.59L144.72,376.14L147.56,374.23L150.4,371.5L153.24,372.04L156.07,373.45L158.91,372.19L161.75,372.12L164.59,368.91L170.26,371.29L173.1,368.77L178.78,363.61L181.61,362.29L184.45,362.13L187.29,364.85L190.13,367.46L192.97,372.15L195.8,376.71L198.64,379.16L204.32,389.15L207.16,393.79L212.83,398.43L215.67,401.22L218.5,402.09L221.34,401.93L224.18,398.97L227.02,397.26L229.85,395.04L232.69,400.27L235.53,407.4L238.37,409.88L241.21,409.44L244.04,406.18L249.72,416.58L252.56,415.1L255.39,417.92L258.23,416.92L261.07,414.91L263.91,419.02L266.75,419.87L269.58,424.53L272.42,424.77L275.26,428.3L278.1,430.37L280.93,434.57L283.77,436.34L286.61,441.74L295.12,441.75L297.96,444.43L300.8,449.67L303.64,449.05L317.82,462.43L320.66,462.29L323.5,465.22L326.34,465.77L332.01,474.16L334.85,469.54L346.2,473.46L349.04,478.52L351.87,484.3L354.71,487.21L357.55,492.03L360.39,499.18L366.06,508.01L368.9,508.45L371.74,512.48L374.58,518.62L377.41,520.34L380.25,526.07L383.09,527.92L385.93,531.52L388.76,532.92L391.6,530.71L394.44,533.24L397.28,532.22L400.12,527.44L402.95,525.3L408.63,523L411.47,521.58L417.14,521.62L419.98,522.4L422.82,521.82L425.65,519.71L428.49,520.12L431.33,519.53L434.17,520.37L437.01,518.35L439.84,520.36L442.68,520.64L448.36,521.98L451.19,517.47L454.03,514.87L456.87,508.45L468.22,488.18L471.06,481.78L473.9,477.96L476.73,470.14L482.41,460.59L485.25,459.13L488.08,456.83L490.92,458.88L493.76,458.56L496.6,459.97L499.43,460.56L502.27,458.96L505.11,459.31L507.95,457.49L513.62,457.61L516.46,460.12L519.3,461.65L522.14,459.38L524.97,458.13L527.81,458.13L530.65,457.28L533.49,454.36L536.32,452.27L539.16,451.68L544.84,451.24L547.67,452.01L550.51,452.52L553.35,451.49L561.86,452.54L564.7,452.83L570.37,454.27L573.21,458.19L581.72,467.27L584.56,470.68L587.4,475.23L590.24,477.48L593.08,480.67L595.91,482L604.43,486.8L607.26,486.27L615.78,484.92L618.62,484.18L621.45,483.69L624.29,485.21L629.97,486.84L632.81,486.54L635.64,487.1L638.48,485.92L641.32,485.54L644.15,486.04L649.83,484.42L652.67,484.77L658.34,485.43L661.18,488.39L664.02,490.63L666.86,491.89L669.69,495.64L672.53,497.16L678.21,500.34L681.04,499.88L683.88,501.62L686.72,502.07L692.4,504.61L695.23,506.75L698.07,508.36L700.91,511.7L703.75,513.92L706.58,514.34L712.26,518.62L715.1,523.8L720.77,528.03L723.61,528.42L726.45,531.53L729.29,533.18L732.12,532.73L734.96,533.49L740.64,533.02L743.47,534.61L749.15,535.25L751.99,534.59L757.66,534.63L760.5,534L763.34,534.61L766.17,536.87L771.85,538.99L774.69,542.71L777.52,536.66L780.36,541.87L783.2,541.63L786.04,542.88L791.71,546.83L794.55,547.31L797.39,550.41L800.23,551.61L805.9,553.83L808.74,554.01L811.58,554.75L814.41,553.73L817.25,554.37L820.09,554.12L828.6,552.79L831.44,553.84L834.28,554.61L837.12,554.2L839.95,554.62L842.79,553.67L845.63,553.77L848.47,553.02L854.14,553.36L856.98,554.68L868.33,560.71L871.17,560.7L874.01,562.5L876.84,563.13L879.68,563.28L882.52,564.65L885.36,563.85L888.2,563.84L896.71,563.45L899.55,563.37L908.06,563.27L910.9,564.18L919.41,565.56L922.25,566.4L927.92,566.7L930.76,566.52L933.6,567.1L936.43,566.83L939.27,567.1L942.11,566.27L959.14,564.85L961.97,566.16L976.16,568.95L979,569.33L981.84,569.47L984.68,568.48L993.19,567.12L996.02,565.49L998.86,564.54L1001.7,564.4L1007.38,563.95L1010.21,564.51L1018.73,566.22L1021.57,567.07L1027.24,568.08L1030.08,569.66L1035.75,571.36L1038.59,571.17L1044.27,570.68L1047.1,569.44L1052.78,571.12L1055.62,573.02L1061.29,576.56L1064.13,577.9L1069.8,581.37L1072.64,581.26L1081.16,580.86L1083.99,581.69L1086.83,581.62L1089.67,580.4L1092.51,579.35L1095.34,580.65L1098.18,580.38L1101.02,581.72L1103.86,581.58L1106.69,582.49L1112.37,585.62L1115.21,586.14L1123.72,588.55L1126.56,589.22L1135.07,596.28L1137.91,599.05L1140.75,603.7L1143.59,604.93L1149.26,609.17L1152.1,612.2L1166.29,625.17L1169.12,626.89L1171.96,628.23L1174.8,631.84L1177.64,625.94L1180.47,623.7L1183.31,619.1L1186.15,617.11L1191.82,609.31L1194.66,606.88L1197.5,607.09L1200.34,609.56L1203.17,614.02L1206.01,615.99L1211.69,600.88L1214.53,597.96L1223.04,585.47L1225.88,583L1228.71,581.36L1231.55,583.61L1234.39,584.42L1237.23,578.85L1242.9,581.38L1245.74,580.19L1248.58,580.25L1251.42,578.58L1254.25,578.37L1257.09,576.3L1262.77,581.72L1265.6,579.08L1268.44,582.38L1271.28,580.04L1274.12,582.34L1276.95,582.46L1279.79,586.09L1282.63,587.91L1288.31,591.14L1291.14,590.73L1299.66,592.65L1302.49,591.67L1305.33,592.67L1308.17,592.73L1313.85,594.95L1316.68,593.82L1319.52,595.17L1322.36,594.28L1330.87,592.9L1333.71,591.39L1339.38,587.61L1342.22,586.65L1347.9,583.7L1350.73,583.89L1353.57,580.46L1356.41,581.19L1362.08,575.71L1364.92,572.43L1367.76,568.16L1370.6,561.68L1373.44,558.02L1376.27,556.42L1379.11,555.34L1381.95,555.65L1384.79,558.97L1387.62,556.51L1390.46,559.57L1393.3,560.81L1396.14,561.04L1398.97,559.85L1401.81,559.53L1404.65,558.22L1410.33,557.11L1413.16,554.54L1416,550.55" style="vector-effect: none; fill: none; stroke: rgb(171, 99, 250); stroke-opacity: 1; stroke-width: 3px; opacity: 1;"/></g><g class="points"/><g class="text"/></g><g class="trace scatter tracebc86ac" style="stroke-miterlimit: 2; opacity: 1;"><g class="fills"/><g class="errorbars"/><g class="lines"><path class="js-line" d="M0,521.22L8.52,518.33L11.35,516.76L14.19,513.97L17.03,517.33L19.87,516.38L22.71,513.74L25.54,513.25L28.38,510.64L31.22,509.56L34.06,507.28L39.73,501.61L42.57,496.47L45.41,494.09L48.24,488.87L51.08,487.47L53.92,477.88L56.76,474.23L59.6,468.34L65.27,462.72L68.11,457.77L70.95,454.32L73.78,448.07L79.46,445.32L82.3,448.62L85.13,448.7L87.97,444.58L90.81,443.08L93.65,435.68L105,409.27L107.83,397.74L119.19,371.56L122.02,368.7L127.7,350.21L130.54,345.26L136.21,327.59L139.05,321.13L141.89,316.51L144.72,308.35L147.56,302.57L150.4,292.87L153.24,284.93L156.08,281.37L158.91,274.58L161.75,271.77L164.59,262.31L167.43,264.03L173.1,259.63L175.94,253.89L178.78,248.84L181.61,245.63L184.45,246.27L187.29,243.44L192.97,250.93L195.8,256.61L198.64,263.54L201.48,266.99L204.32,273.54L207.15,276.07L215.67,304.16L218.5,315.44L224.18,337.02L227.02,340.66L229.86,350.45L232.69,356.42L235.53,361.43L238.37,358.73L244.04,355.65L246.88,348.93L249.72,351.69L252.56,352.03L255.39,353.09L258.23,350.87L261.07,353.24L263.91,338.7L269.58,318.25L272.42,299.77L275.26,295.63L278.09,287.09L280.93,288.88L283.77,283.18L286.61,283.31L289.45,280.11L295.12,291.71L297.96,295.66L303.63,309.38L306.47,322.56L309.31,328.73L312.15,340.07L314.98,347.89L317.82,351.53L323.5,365.08L326.34,366.19L329.17,373.45L332.01,382.86L334.85,388.58L337.69,404.99L340.52,414.82L343.36,435.36L346.2,448.57L349.04,466.28L357.55,497.73L360.39,501.56L363.23,508.11L366.06,511.61L368.9,518.52L371.74,513.36L374.58,522.89L377.41,520.71L380.25,522.79L383.09,520.95L385.93,520.09L388.77,522.79L391.6,519.36L394.44,525.52L397.28,522.96L400.12,526.26L402.95,518.79L405.79,514.78L408.63,513.82L411.47,504.76L419.98,489.46L422.82,485.82L425.65,485.41L428.49,487.48L431.33,486.72L434.17,487.31L437,483.58L439.84,486.65L442.68,482.5L445.52,484.85L448.36,481.56L451.19,479.53L454.03,478.53L456.87,481.67L459.71,484.9L462.54,483.46L465.38,487.17L468.22,482.15L471.06,480.53L473.89,475.68L479.57,469.29L482.41,461.78L485.25,456.98L488.08,448.93L490.92,446.98L493.76,443.36L496.6,443.46L499.43,441.06L502.27,435.36L505.11,432.79L510.78,417.79L513.62,400.52L516.46,396.24L519.3,387.69L527.81,373.53L530.65,373.49L536.32,373.83L539.16,379.65L542,379.78L544.84,385.5L547.67,384.51L550.51,385.88L553.35,395.09L556.19,397.04L559.02,405.23L561.86,410.72L564.7,423.36L567.54,430.47L570.37,442.26L573.21,449.95L581.73,471.66L584.56,477L587.4,477.27L590.24,478.58L593.08,474.73L595.91,467.57L598.75,467.22L601.59,462.15L604.43,461.32L607.26,456.24L612.94,450.87L615.78,452.21L618.62,456.51L621.45,463.23L624.29,471.19L627.13,483.16L635.64,510.21L638.48,512.75L641.32,515.82L644.15,514.72L649.83,516.28L652.67,512.22L658.34,512.91L661.18,515.08L669.69,515.92L672.53,514.85L675.37,520.35L678.21,528.72L681.04,531.23L683.88,529.99L686.72,530.08L689.56,529.31L695.23,526.41L698.07,522.27L700.91,520.92L703.74,515.61L706.58,511.62L709.42,506.32L715.1,501.84L717.93,495.59L720.77,491.93L723.61,492.05L732.12,486.05L734.96,484.46L743.47,486.16L746.31,488.41L749.15,496.42L751.99,500.26L754.82,505.57L757.66,507.39L760.5,508.74L763.34,511.23L769.01,510.12L771.85,511.48L774.69,512.06L777.52,516.23L780.36,520.66L783.2,523.42L788.88,531.51L791.71,531.07L797.39,535.78L800.23,540.99L803.06,550.81L805.9,549.36L808.74,550.57L811.58,550.94L814.42,551.74L817.25,555.23L822.93,559.8L825.77,560.17L828.6,563.82L831.44,565.84L837.12,569.84L839.95,571.06L842.79,571.5L845.63,570.22L851.3,567.6L854.14,567.79L859.82,569.18L862.65,571.63L871.17,578.91L874.01,583.12L879.68,587.65L882.52,590.17L888.19,597.51L891.03,599.89L893.87,604.2L896.71,606.69L899.54,607.35L902.38,606.65L908.06,603.8L910.9,600.61L913.73,598.18L916.57,598.03L919.41,594.4L922.25,593.12L927.92,589.94L930.76,586.88L942.11,576.41L944.95,575.37L947.79,574.15L950.62,573.86L961.97,568.61L964.81,568.4L973.32,569.13L976.16,568.12L979,569.3L981.84,569.54L987.51,570.12L990.35,570.75L998.86,570.85L1001.7,569.75L1004.54,568.96L1007.38,569.8L1015.89,564.97L1018.73,564.49L1021.56,562.44L1024.4,562.22L1027.24,560.16L1030.08,555.99L1032.91,553.99L1035.75,550.17L1044.27,549.62L1047.1,551.8L1049.94,557.77L1052.78,560.33L1055.62,567.25L1058.45,570.4L1061.29,574.17L1064.13,575L1066.97,576.3L1069.8,576.52L1072.64,576.92L1075.48,574.92L1081.16,571.98L1083.99,570.94L1086.83,571.7L1089.67,570.3L1092.51,569.2L1095.34,570.17L1101.02,570.37L1103.86,569.37L1118.05,563.69L1120.88,561.52L1123.72,559.72L1126.56,559.06L1132.23,550.16L1135.07,538.59L1137.91,533.77L1140.75,531.26L1143.58,530.41L1146.42,531.13L1149.26,530.75L1152.1,529.53L1154.94,531.32L1157.77,532.15L1163.45,534.3L1166.28,533.69L1174.8,532.22L1177.64,533.9L1180.47,531.28L1183.31,531.4L1186.15,532.92L1188.99,532.67L1191.82,533.3L1194.66,531.52L1203.17,531.59L1206.01,532.78L1208.85,530.98L1211.69,530.2L1214.53,529.55L1217.36,529.71L1220.2,527.74L1223.04,527.15L1225.88,520.38L1228.71,519.54L1231.55,514.05L1234.39,514.51L1237.23,515.8L1240.07,515.3L1242.9,515.74L1245.74,514.38L1251.42,517.26L1254.25,522.06L1257.09,526.74L1259.93,533.29L1265.6,541.4L1268.44,546.05L1271.28,549.65L1274.12,555.52L1276.95,559.72L1279.79,565.64L1285.47,573.33L1288.3,579.32L1291.14,582.4L1293.98,589.87L1296.82,590.44L1299.66,596.46L1302.49,598.11L1305.33,605.89L1308.17,608.16L1311.01,613.89L1313.84,623.26L1316.68,628.37L1319.52,634.06L1322.36,637.76L1325.19,643.65L1328.03,644.39L1330.87,646.01L1333.71,644.89L1336.55,642.97L1339.38,646.71L1342.22,647L1345.06,650.64L1350.73,648.04L1353.57,649.54L1356.41,650.07L1359.25,648.66L1362.08,648.03L1364.92,648.41L1367.76,642.87L1370.6,639.37L1373.44,632.17L1376.27,630.01L1379.11,624.21L1381.95,623.12L1384.79,614.16L1387.62,612.83L1390.46,608.42L1393.3,609.32L1396.14,611.03L1398.97,614.31L1401.81,618.07L1404.65,616.27L1407.49,616.76L1410.32,611.37L1413.16,610.12L1416,606.14" style="vector-effect: none; fill: none; stroke: rgb(255, 161, 90); stroke-opacity: 1; stroke-width: 3px; opacity: 1;"/></g><g class="points"/><g class="text"/></g></g></g></g><path class="xlines-above crisp" d="M0,0" style="fill: none;"/><path class="ylines-above crisp" d="M0,0" style="fill: none;"/><g class="overlines-above"/><g class="xaxislayer-above"><g class="xtick"><text text-anchor="middle" x="0" y="841" transform="translate(243.05,0)" style="font-family: 'Open Sans', verdana, arial, sans-serif; font-size: 20px; fill: rgb(42, 63, 95); fill-opacity: 1; white-space: pre; opacity: 1;">1</text></g><g class="xtick"><text text-anchor="middle" x="0" y="841" style="font-family: 'Open Sans', verdana, arial, sans-serif; font-size: 20px; fill: rgb(42, 63, 95); fill-opacity: 1; white-space: pre; opacity: 1;" transform="translate(384.93,0)">2</text></g><g class="xtick"><text text-anchor="middle" x="0" y="841" style="font-family: 'Open Sans', verdana, arial, sans-serif; font-size: 20px; fill: rgb(42, 63, 95); fill-opacity: 1; white-space: pre; opacity: 1;" transform="translate(526.8199999999999,0)">3</text></g><g class="xtick"><text text-anchor="middle" x="0" y="841" style="font-family: 'Open Sans', verdana, arial, sans-serif; font-size: 20px; fill: rgb(42, 63, 95); fill-opacity: 1; white-space: pre; opacity: 1;" transform="translate(668.7,0)">4</text></g><g class="xtick"><text text-anchor="middle" x="0" y="841" style="font-family: 'Open Sans', verdana, arial, sans-serif; font-size: 20px; fill: rgb(42, 63, 95); fill-opacity: 1; white-space: pre; opacity: 1;" transform="translate(810.58,0)">5</text></g><g class="xtick"><text text-anchor="middle" x="0" y="841" style="font-family: 'Open Sans', verdana, arial, sans-serif; font-size: 20px; fill: rgb(42, 63, 95); fill-opacity: 1; white-space: pre; opacity: 1;" transform="translate(952.47,0)">6</text></g><g class="xtick"><text text-anchor="middle" x="0" y="841" style="font-family: 'Open Sans', verdana, arial, sans-serif; font-size: 20px; fill: rgb(42, 63, 95); fill-opacity: 1; white-space: pre; opacity: 1;" transform="translate(1094.35,0)">7</text></g><g class="xtick"><text text-anchor="middle" x="0" y="841" style="font-family: 'Open Sans', verdana, arial, sans-serif; font-size: 20px; fill: rgb(42, 63, 95); fill-opacity: 1; white-space: pre; opacity: 1;" transform="translate(1236.23,0)">8</text></g><g class="xtick"><text text-anchor="middle" x="0" y="841" style="font-family: 'Open Sans', verdana, arial, sans-serif; font-size: 20px; fill: rgb(42, 63, 95); fill-opacity: 1; white-space: pre; opacity: 1;" transform="translate(1378.12,0)">9</text></g><g class="xtick"><text text-anchor="middle" x="0" y="841" style="font-family: 'Open Sans', verdana, arial, sans-serif; font-size: 20px; fill: rgb(42, 63, 95); fill-opacity: 1; white-space: pre; opacity: 1;" transform="translate(1520,0)">10</text></g></g><g class="yaxislayer-above"><g class="ytick"><text text-anchor="end" x="103" y="7" transform="translate(0,809.09)" style="font-family: 'Open Sans', verdana, arial, sans-serif; font-size: 20px; fill: rgb(42, 63, 95); fill-opacity: 1; white-space: pre; opacity: 1;">−0.1</text></g><g class="ytick"><text text-anchor="end" x="103" y="7" style="font-family: 'Open Sans', verdana, arial, sans-serif; font-size: 20px; fill: rgb(42, 63, 95); fill-opacity: 1; white-space: pre; opacity: 1;" transform="translate(0,722.73)">−0.05</text></g><g class="ytick"><text text-anchor="end" x="103" y="7" style="font-family: 'Open Sans', verdana, arial, sans-serif; font-size: 20px; fill: rgb(42, 63, 95); fill-opacity: 1; white-space: pre; opacity: 1;" transform="translate(0,636.37)">0</text></g><g class="ytick"><text text-anchor="end" x="103" y="7" style="font-family: 'Open Sans', verdana, arial, sans-serif; font-size: 20px; fill: rgb(42, 63, 95); fill-opacity: 1; white-space: pre; opacity: 1;" transform="translate(0,550.01)">0.05</text></g><g class="ytick"><text text-anchor="end" x="103" y="7" style="font-family: 'Open Sans', verdana, arial, sans-serif; font-size: 20px; fill: rgb(42, 63, 95); fill-opacity: 1; white-space: pre; opacity: 1;" transform="translate(0,463.65)">0.1</text></g><g class="ytick"><text text-anchor="end" x="103" y="7" style="font-family: 'Open Sans', verdana, arial, sans-serif; font-size: 20px; fill: rgb(42, 63, 95); fill-opacity: 1; white-space: pre; opacity: 1;" transform="translate(0,377.29)">0.15</text></g><g class="ytick"><text text-anchor="end" x="103" y="7" style="font-family: 'Open Sans', verdana, arial, sans-serif; font-size: 20px; fill: rgb(42, 63, 95); fill-opacity: 1; white-space: pre; opacity: 1;" transform="translate(0,290.93)">0.2</text></g><g class="ytick"><text text-anchor="end" x="103" y="7" style="font-family: 'Open Sans', verdana, arial, sans-serif; font-size: 20px; fill: rgb(42, 63, 95); fill-opacity: 1; white-space: pre; opacity: 1;" transform="translate(0,204.57)">0.25</text></g><g class="ytick"><text text-anchor="end" x="103" y="7" style="font-family: 'Open Sans', verdana, arial, sans-serif; font-size: 20px; fill: rgb(42, 63, 95); fill-opacity: 1; white-space: pre; opacity: 1;" transform="translate(0,118.21000000000001)">0.3</text></g></g><g class="overaxes-above"/></g></g><g class="polarlayer"/><g class="smithlayer"/><g class="ternarylayer"/><g class="geolayer"/><g class="funnelarealayer"/><g class="pielayer"/><g class="iciclelayer"/><g class="treemaplayer"/><g class="sunburstlayer"/><g class="glimages"/><defs id="topdefs-26c3f5"><g class="clips"/><clipPath id="legend26c3f5"><rect width="84" height="181" x="0" y="0"/></clipPath></defs><g class="layer-above"><g class="imagelayer"/><g class="shapelayer"/></g><g class="infolayer"><g class="legend" pointer-events="all" transform="translate(264.00800000000004,110.08000000000001)"><rect class="bg" shape-rendering="crispEdges" width="84" height="181" x="0" y="0" style="stroke: rgb(68, 68, 68); stroke-opacity: 1; fill: rgb(255, 255, 255); fill-opacity: 1; stroke-width: 0px;"/><g class="scrollbox" transform="" clip-path="url(#legend26c3f5)"><g class="groups"><g class="traces" transform="translate(0,22.1)" style="opacity: 1;"><text class="legendtext" text-anchor="start" x="40" y="9.360000000000001" style="font-family: 'Open Sans', verdana, arial, sans-serif; font-size: 24px; fill: rgb(42, 63, 95); fill-opacity: 1; white-space: pre;">1m</text><g class="layers" style="opacity: 1;"><g class="legendfill"/><g class="legendlines"><path class="js-line" d="M5,0h30" style="fill: none; stroke: rgb(99, 110, 250); stroke-opacity: 1; stroke-width: 3px;"/></g><g class="legendsymbols"><g class="legendpoints"/></g></g><rect class="legendtoggle" x="0" y="-17.1" width="78.609375" height="34.2" style="fill: rgb(0, 0, 0); fill-opacity: 0;"/></g><g class="traces" transform="translate(0,56.300000000000004)" style="opacity: 1;"><text class="legendtext" text-anchor="start" x="40" y="9.360000000000001" style="font-family: 'Open Sans', verdana, arial, sans-serif; font-size: 24px; fill: rgb(42, 63, 95); fill-opacity: 1; white-space: pre;">2m</text><g class="layers" style="opacity: 1;"><g class="legendfill"/><g class="legendlines"><path class="js-line" d="M5,0h30" style="fill: none; stroke: rgb(239, 85, 59); stroke-opacity: 1; stroke-width: 3px;"/></g><g class="legendsymbols"><g class="legendpoints"/></g></g><rect class="legendtoggle" x="0" y="-17.1" width="78.609375" height="34.2" style="fill: rgb(0, 0, 0); fill-opacity: 0;"/></g><g class="traces" transform="translate(0,90.5)" style="opacity: 1;"><text class="legendtext" text-anchor="start" x="40" y="9.360000000000001" style="font-family: 'Open Sans', verdana, arial, sans-serif; font-size: 24px; fill: rgb(42, 63, 95); fill-opacity: 1; white-space: pre;">3m</text><g class="layers" style="opacity: 1;"><g class="legendfill"/><g class="legendlines"><path class="js-line" d="M5,0h30" style="fill: none; stroke: rgb(0, 204, 150); stroke-opacity: 1; stroke-width: 3px;"/></g><g class="legendsymbols"><g class="legendpoints"/></g></g><rect class="legendtoggle" x="0" y="-17.1" width="78.609375" height="34.2" style="fill: rgb(0, 0, 0); fill-opacity: 0;"/></g><g class="traces" transform="translate(0,124.70000000000002)" style="opacity: 1;"><text class="legendtext" text-anchor="start" x="40" y="9.360000000000001" style="font-family: 'Open Sans', verdana, arial, sans-serif; font-size: 24px; fill: rgb(42, 63, 95); fill-opacity: 1; white-space: pre;">4m</text><g class="layers" style="opacity: 1;"><g class="legendfill"/><g class="legendlines"><path class="js-line" d="M5,0h30" style="fill: none; stroke: rgb(171, 99, 250); stroke-opacity: 1; stroke-width: 3px;"/></g><g class="legendsymbols"><g class="legendpoints"/></g></g><rect class="legendtoggle" x="0" y="-17.1" width="78.609375" height="34.2" style="fill: rgb(0, 0, 0); fill-opacity: 0;"/></g><g class="traces" transform="translate(0,158.9)" style="opacity: 1;"><text class="legendtext" text-anchor="start" x="40" y="9.360000000000001" style="font-family: 'Open Sans', verdana, arial, sans-serif; font-size: 24px; fill: rgb(42, 63, 95); fill-opacity: 1; white-space: pre;">5m</text><g class="layers" style="opacity: 1;"><g class="legendfill"/><g class="legendlines"><path class="js-line" d="M5,0h30" style="fill: none; stroke: rgb(255, 161, 90); stroke-opacity: 1; stroke-width: 3px;"/></g><g class="legendsymbols"><g class="legendpoints"/></g></g><rect class="legendtoggle" x="0" y="-17.1" width="78.609375" height="34.2" style="fill: rgb(0, 0, 0); fill-opacity: 0;"/></g></g></g><rect class="scrollbar" rx="20" ry="3" width="0" height="0" x="0" y="0" style="fill: rgb(128, 139, 164); fill-opacity: 1;"/></g><g class="g-gtitle"><text class="gtitle" x="800" y="50" text-anchor="middle" dy="0.7em" style="opacity: 1; font-family: 'Open Sans', verdana, arial, sans-serif; font-size: 20px; fill: rgb(42, 63, 95); fill-opacity: 1; font-weight: bold; white-space: pre;">No Yielding, Back and no eHMI</text></g><g class="g-xtitle"><text class="xtitle" x="812" y="873.5" text-anchor="middle" style="opacity: 1; font-family: 'Open Sans', verdana, arial, sans-serif; font-size: 20px; fill: rgb(42, 63, 95); fill-opacity: 1; white-space: pre;">Time (in seconds)</text></g><g class="g-ytitle" transform="translate(0.296875,0)"><text class="ytitle" transform="rotate(-90,19.703125,460)" x="19.703125" y="460" text-anchor="middle" style="opacity: 1; font-family: 'Open Sans', verdana, arial, sans-serif; font-size: 20px; fill: rgb(42, 63, 95); fill-opacity: 1; white-space: pre;">Yaw Angle (in radians)</text></g></g></svg>