<svg class="main-svg" xmlns="http://www.w3.org/2000/svg" xmlns:xlink="http://www.w3.org/1999/xlink" width="4800" height="2700" style="" viewBox="0 0 1600 900"><rect x="0" y="0" width="1600" height="900" style="fill: rgb(255, 255, 255); fill-opacity: 1;"/><defs id="defs-3ce68c"><g class="clips"><clipPath id="clip3ce68cxyplot" class="plotclip"><rect width="1416" height="720"/></clipPath><clipPath class="axesclip" id="clip3ce68cx"><rect x="104" y="0" width="1416" height="900"/></clipPath><clipPath class="axesclip" id="clip3ce68cy"><rect x="0" y="100" width="1600" height="720"/></clipPath><clipPath class="axesclip" id="clip3ce68cxy"><rect x="104" y="100" width="1416" height="720"/></clipPath></g><g class="gradients"/><g class="patterns"/></defs><g class="bglayer"><rect class="bg" x="104" y="100" width="1416" height="720" style="fill: rgb(229, 236, 246); fill-opacity: 1; stroke-width: 0;"/></g><g class="layer-below"><g class="imagelayer"/><g class="shapelayer"/></g><g class="cartesianlayer"><g class="subplot xy"><g class="layer-subplot"><g class="shapelayer"/><g class="imagelayer"/></g><g class="minor-gridlayer"><g class="x"/><g class="y"/></g><g class="gridlayer"><g class="x"><path class="xgrid crisp" transform="translate(243.05,0)" d="M0,100v720" style="stroke: rgb(255, 255, 255); stroke-opacity: 1; stroke-width: 1px;"/><path class="xgrid crisp" transform="translate(384.93,0)" d="M0,100v720" style="stroke: rgb(255, 255, 255); stroke-opacity: 1; stroke-width: 1px;"/><path class="xgrid crisp" transform="translate(526.8199999999999,0)" d="M0,100v720" style="stroke: rgb(255, 255, 255); stroke-opacity: 1; stroke-width: 1px;"/><path class="xgrid crisp" transform="translate(668.7,0)" d="M0,100v720" style="stroke: rgb(255, 255, 255); stroke-opacity: 1; stroke-width: 1px;"/><path class="xgrid crisp" transform="translate(810.58,0)" d="M0,100v720" style="stroke: rgb(255, 255, 255); stroke-opacity: 1; stroke-width: 1px;"/><path class="xgrid crisp" transform="translate(952.47,0)" d="M0,100v720" style="stroke: rgb(255, 255, 255); stroke-opacity: 1; stroke-width: 1px;"/><path class="xgrid crisp" transform="translate(1094.35,0)" d="M0,100v720" style="stroke: rgb(255, 255, 255); stroke-opacity: 1; stroke-width: 1px;"/><path class="xgrid crisp" transform="translate(1236.23,0)" d="M0,100v720" style="stroke: rgb(255, 255, 255); stroke-opacity: 1; stroke-width: 1px;"/><path class="xgrid crisp" transform="translate(1378.12,0)" d="M0,100v720" style="stroke: rgb(255, 255, 255); stroke-opacity: 1; stroke-width: 1px;"/></g><g class="y"><path class="ygrid crisp" transform="translate(0,749.22)" d="M104,0h1416" style="stroke: rgb(255, 255, 255); stroke-opacity: 1; stroke-width: 1px;"/><path class="ygrid crisp" transform="translate(0,650.84)" d="M104,0h1416" style="stroke: rgb(255, 255, 255); stroke-opacity: 1; stroke-width: 1px;"/><path class="ygrid crisp" transform="translate(0,552.46)" d="M104,0h1416" style="stroke: rgb(255, 255, 255); stroke-opacity: 1; stroke-width: 1px;"/><path class="ygrid crisp" transform="translate(0,355.7)" d="M104,0h1416" style="stroke: rgb(255, 255, 255); stroke-opacity: 1; stroke-width: 1px;"/><path class="ygrid crisp" transform="translate(0,257.33000000000004)" d="M104,0h1416" style="stroke: rgb(255, 255, 255); stroke-opacity: 1; stroke-width: 1px;"/><path class="ygrid crisp" transform="translate(0,158.95)" d="M104,0h1416" style="stroke: rgb(255, 255, 255); stroke-opacity: 1; stroke-width: 1px;"/></g></g><g class="zerolinelayer"><path class="yzl zl crisp" transform="translate(0,454.08)" d="M104,0h1416" style="stroke: rgb(255, 255, 255); stroke-opacity: 1; stroke-width: 2px;"/></g><g class="layer-between"><g class="shapelayer"/><g class="imagelayer"/></g><path class="xlines-below"/><path class="ylines-below"/><g class="overlines-below"/><g class="xaxislayer-below"/><g class="yaxislayer-below"/><g class="overaxes-below"/><g class="overplot"><g class="xy" transform="translate(104,100)" clip-path="url(#clip3ce68cxyplot)"><g class="scatterlayer mlayer"><g class="trace scatter traceb8e6e6" style="stroke-miterlimit: 2; opacity: 1;"><g class="fills"/><g class="errorbars"/><g class="lines"><path class="js-line" d="M0,436.92L5.68,428.48L8.51,426.96L17.03,421.03L19.87,416.61L22.7,414.46L25.54,410.96L28.38,408.71L31.22,403.17L36.89,395.51L39.73,386.26L48.24,362.85L51.08,353.95L53.92,346.16L56.75,333.27L59.59,324.55L62.43,313.36L65.27,300.47L68.11,291.83L73.78,273.26L76.62,263.69L79.46,259.82L82.29,249.14L85.13,245.22L87.97,236.22L93.65,225.6L96.48,224.5L99.32,225.62L102.16,221.22L105,222.81L107.83,222.5L110.67,220.62L113.51,231.51L116.35,231.56L119.18,228.7L124.86,238.68L127.7,237.51L130.54,238.77L133.37,237.37L141.88,245.14L144.72,245.49L147.56,244.17L150.4,247.27L153.24,251.41L156.07,258.36L158.91,258.07L161.75,263.94L164.59,267.29L167.42,273.77L170.26,278.55L173.1,284.91L178.77,298.03L181.61,308.29L184.45,318.11L187.29,322.62L190.13,321.2L192.96,321.36L195.8,320.19L198.64,318.1L204.31,316.5L207.15,312.67L212.83,303.26L215.67,302.92L218.5,299.71L221.34,295.32L224.18,296.33L227.02,305.3L229.85,310.5L232.69,306.77L235.53,301.63L238.37,293.75L241.2,300.18L244.04,303.33L246.88,294.32L249.72,292.77L252.55,287.44L255.39,288.11L258.23,282.11L261.07,279.4L263.91,274.86L266.74,268.2L269.58,268.21L272.42,271.15L275.26,264.67L278.09,261.01L280.93,260.07L283.77,255.59L286.61,252.45L289.45,241.98L292.28,238.63L295.12,233.77L300.79,226.18L303.63,229.98L306.47,232.33L309.31,239.45L312.14,244.65L314.98,245.55L317.82,240.89L320.66,241.86L326.33,251.85L329.17,261.22L332.01,268.01L334.85,272.05L340.52,245.24L343.36,199.33L346.2,188.61L349.04,183.96L351.87,184.75L354.71,183.53L357.55,177.12L360.39,174.18L363.22,169.22L366.06,167.55L368.9,163.92L371.74,163.65L374.57,160L377.41,160.2L380.25,157.66L383.09,157.77L385.92,156.8L388.76,160.67L391.6,164.79L394.44,170.29L397.28,175.48L400.11,178.45L402.95,179.65L405.79,179.39L408.63,183.72L411.46,185.76L414.3,190.79L417.14,193L419.98,197.06L422.82,198.56L425.65,200.12L428.49,199.94L431.33,204.4L434.17,201.45L437,203.28L439.84,226.23L442.68,234.01L445.52,238.64L451.19,248.28L454.03,255.16L456.87,253.94L459.7,256.27L462.54,256.2L465.38,263.46L468.22,270.12L471.05,281.01L476.73,292.29L479.57,292.9L482.41,295.82L485.24,294.18L490.92,302.52L493.76,304.4L496.59,306.82L499.43,305.99L505.11,309.67L507.94,309.93L513.62,311.91L516.46,313.68L519.3,313.98L522.13,315.35L527.81,316.84L530.65,314.86L533.48,312.22L536.32,314.1L542,315L544.84,313.81L550.51,311.16L553.35,307.83L556.19,306.99L559.02,302.98L561.86,303.91L564.7,302.55L570.37,303.83L573.21,301.86L576.05,302.09L578.89,304.02L581.72,306.29L584.56,307.41L587.4,308.44L590.24,308.44L595.91,306.35L598.75,306.95L601.59,307.78L604.42,310.51L607.26,314.77L610.1,316.66L618.62,324.66L621.45,325L624.29,328.06L627.13,327.31L629.96,327.55L632.8,329.39L638.48,332.8L641.32,334.18L644.15,336.84L646.99,337.65L652.67,340.94L655.5,338.45L658.34,336.59L661.18,331.15L666.85,324.68L669.69,319.84L675.37,310.37L678.2,300.86L681.04,298.49L683.88,291.2L686.72,289.6L689.56,280.44L692.39,275.71L695.23,265.96L700.91,261.89L703.74,251.86L706.58,249.65L709.42,240.2L712.26,235.24L715.1,227.06L726.45,203.94L729.28,195.33L732.12,191.45L734.96,183.73L737.8,179.14L740.63,173.09L743.47,170.68L746.31,165.52L754.82,165.18L757.66,168.77L760.5,168.84L763.33,172.04L766.17,179.85L769.01,182.03L771.85,187.3L774.69,186.33L777.52,186.7L780.36,185.66L783.2,186L786.04,185.02L788.87,184.27L791.71,180.82L794.55,180.22L797.39,176.83L800.22,179.21L803.06,178.79L805.9,177.43L808.74,173.92L814.41,171.32L817.25,171.6L820.09,169.35L822.93,168.49L825.76,165.67L828.6,164.26L831.44,164.08L834.28,165.91L839.95,166.19L842.79,163.6L845.63,162.49L848.47,158.76L851.3,158.04L854.14,156.18L856.98,158.93L859.82,158.17L865.49,166.52L868.33,166.86L871.17,171.6L874,171.15L876.84,176.15L879.68,176.08L888.19,182.35L891.03,186.67L896.71,193.1L899.54,194.62L902.38,194.39L905.22,197.25L908.06,196.32L910.89,196.98L916.57,196.56L919.41,194.21L927.92,182.96L930.76,179.25L933.6,173.47L936.43,171.07L939.27,165.24L942.11,164.27L944.95,163.14L947.78,163.35L950.62,165.37L953.46,172.03L956.3,178.41L959.13,192.21L961.97,234.4L964.81,260.62L967.65,291.69L970.49,391.85L973.32,423.38L976.16,443.84L979,474.18L981.84,484.7L984.67,490.26L987.51,504.61L990.35,508.9L993.18,515.43L996.02,517.13L998.86,522.05L1001.7,523.33L1004.54,527.19L1018.72,530.1L1021.56,530.17L1024.4,530.61L1027.24,528.82L1030.08,530.06L1032.91,528.86L1038.59,527.1L1041.43,526.41L1044.27,527.79L1047.1,526.89L1052.78,523.55L1055.62,524.08L1061.29,525.03L1064.13,526.82L1072.64,529.72L1075.48,532.28L1083.99,538.05L1086.83,538.82L1095.34,545.11L1098.18,546.71L1101.02,547.27L1103.86,549.05L1106.69,549.79L1109.53,552.44L1126.56,553.16L1129.4,551.73L1137.91,550.27L1140.75,550.53L1143.58,550.15L1146.42,548.64L1152.1,547.5L1154.93,547.91L1157.77,545.5L1160.61,546.55L1166.28,546.68L1169.12,547.2L1171.96,547.39L1174.8,549.78L1177.64,550.19L1180.47,548.75L1186.15,549.61L1188.98,551.08L1191.82,549.51L1194.66,550.43L1197.5,551.83L1200.34,549.86L1203.17,551.63L1206.01,548L1208.85,544.98L1211.69,546.31L1214.52,544.83L1217.36,531.61L1220.2,520.3L1223.04,519.19L1231.55,500.27L1234.39,496.93L1237.23,490.91L1240.06,488.8L1242.9,487.4L1245.74,480.44L1257.09,467.1L1259.93,467.15L1262.76,462.26L1265.6,461.99L1271.28,459.99L1274.12,457.3L1279.79,453.62L1282.63,453.48L1285.47,451.81L1288.3,454L1293.98,454.15L1296.82,452.13L1299.66,451.21L1302.49,452.44L1305.33,452.51L1308.17,453.46L1311.01,454.43L1313.84,458.54L1319.52,461.7L1322.36,464.13L1325.19,464.17L1328.03,466.18L1330.87,466.44L1333.71,464.66L1336.54,463.17L1339.38,463.66L1342.22,464.74L1345.06,463.86L1347.89,465.08L1350.73,464.32L1353.57,466L1356.41,464.88L1364.92,465.07L1367.76,466.48L1370.6,466.4L1373.43,467.89L1376.27,468.17L1379.11,467.02L1384.78,464.67L1387.62,462.5L1390.46,461.63L1393.3,457.41L1396.14,456.22L1398.97,456.07L1401.81,454.75L1404.65,452.02L1407.49,451.84L1410.32,449.23L1416,444.8" style="vector-effect: none; fill: none; stroke: rgb(99, 110, 250); stroke-opacity: 1; stroke-width: 3px; opacity: 1;"/></g><g class="points"/><g class="text"/></g><g class="trace scatter trace30bba8" style="stroke-miterlimit: 2; opacity: 1;"><g class="fills"/><g class="errorbars"/><g class="lines"><path class="js-line" d="M0,376.89L5.68,373.61L8.52,372.2L19.87,365.03L22.7,361.7L25.54,360.46L28.38,356.31L34.05,351.18L36.89,346.04L48.24,331.98L51.08,327.07L56.76,316.95L59.59,313.34L62.43,305.65L65.27,301.03L70.94,288.07L73.78,277.94L87.97,230.07L90.81,220.64L93.65,212.5L96.48,201.06L99.32,195.62L102.16,183.94L105,176.73L107.83,166.34L110.67,156.47L113.51,151.15L116.35,141.98L119.18,141.44L122.02,129.12L124.86,122.58L130.53,104.54L133.37,97.28L136.21,90.76L139.05,88.13L141.89,83.1L144.72,81.93L147.56,83.03L150.4,73.19L153.24,73.37L156.07,70.15L158.91,69.56L161.75,66.06L164.59,64.89L167.42,61.83L170.26,61.66L173.1,66.19L178.78,69.21L181.61,68.86L184.45,69.45L187.29,71.46L190.13,69.52L192.96,70.11L198.64,69.04L201.48,70.32L204.31,74.41L207.15,75.05L209.99,78.65L212.83,83.68L215.67,86.7L218.5,91.07L221.34,91.25L224.18,89.2L227.02,87.38L229.85,88.39L232.69,85.21L235.53,86.38L238.37,82.58L241.2,83.13L249.72,77.45L252.55,70.68L255.39,69.5L258.23,65.89L263.91,68.25L266.74,71.56L269.58,73.22L272.42,73.18L275.26,78.46L278.09,75.84L280.93,78.59L283.77,76.49L286.61,78.69L289.44,77.48L292.28,78.43L295.12,81.31L297.96,84.39L300.8,93.7L303.63,98.88L306.47,105.82L309.31,112.83L312.15,117.28L317.82,130.84L320.66,136.94L326.33,143.95L329.17,150.29L332.01,151.76L334.85,158.81L337.69,161.83L340.52,171.29L346.2,184.23L349.04,189.12L351.87,191.6L354.71,192.94L357.55,190.09L360.39,196.92L366.06,204.77L368.9,207.21L374.57,211.26L377.41,213.78L380.25,227.52L383.09,233.75L388.76,244.04L391.6,249.69L394.44,253.18L397.28,253.51L400.11,256.68L402.95,257.89L408.63,261.24L411.46,260.14L414.3,261.4L417.14,259.29L419.98,259.69L422.82,257.84L425.65,258.88L428.49,256.89L431.33,254.97L434.17,255.22L437,253.52L439.84,256.92L442.68,256.36L445.52,257.4L448.35,258.21L451.19,256.65L456.87,260.65L459.7,261.38L465.38,264.65L468.22,264.25L473.89,263.35L476.73,262.24L479.57,263.42L482.41,261.71L485.24,264.8L488.08,263.61L490.92,264.44L493.76,263L499.43,266.26L502.27,268.09L510.78,274.33L513.62,276.89L516.46,281.11L519.3,283.85L522.13,284.7L524.97,287.4L530.65,288.62L533.48,287.23L536.32,286.25L539.16,286.68L542,286.2L544.83,287.28L547.67,286.91L550.51,288.8L553.35,288.59L556.18,289.96L559.02,289.68L561.86,290.79L564.7,291.11L567.54,294.45L570.37,295.49L573.21,297.78L576.05,300.04L578.89,300.3L587.4,307.9L590.24,309.18L593.08,311.34L595.91,312.5L598.75,315.72L601.59,315.34L604.43,314.56L607.26,314.71L610.1,315.18L612.94,314.35L618.61,314.89L621.45,313.17L624.29,313.6L627.13,312.8L629.97,312.81L632.8,311.53L635.64,310.8L638.48,308.48L641.32,308.84L644.15,307.48L649.83,306.9L652.67,305.89L655.5,305.86L658.34,305.05L661.18,305.51L664.02,305.2L666.85,303.95L669.69,303.98L675.37,304.03L678.21,303.99L681.04,303.67L683.88,304.5L686.72,304.05L689.56,304.72L700.91,303.74L703.74,305.3L706.58,305.11L709.42,307.75L720.77,308.86L723.61,310.55L729.28,308.71L732.12,307.21L737.8,306.69L740.63,305.8L743.47,306.75L746.31,305.86L757.66,308.4L760.5,308.34L766.17,308.69L769.01,308.47L774.69,310.44L777.52,313.11L780.36,314.42L783.2,314.39L794.55,314.17L797.39,315.32L800.22,316.87L803.06,317.2L808.74,318.82L811.58,320.31L817.25,325.24L820.09,329.19L822.93,331.03L825.76,336.96L828.6,340.54L831.44,345.49L834.28,346.69L837.12,346.82L839.95,348.88L842.79,348.35L845.63,351.73L848.47,351.8L851.3,354.7L854.14,356.36L856.98,358.37L859.82,361.87L862.65,362.39L865.49,365.12L868.33,367.54L871.17,371.11L874.01,371.97L876.84,375.83L879.68,378.05L882.52,379.31L885.36,382.84L888.19,384.6L891.03,388.09L893.87,388.48L902.38,397.15L905.22,399.23L908.06,401.14L910.89,404.54L913.73,406.71L916.57,409.9L930.76,421.02L933.6,421.98L950.62,429.42L953.46,428.92L959.14,428.11L961.97,428.57L967.65,429.44L970.49,429.44L973.32,429.42L976.16,430.36L984.67,432.51L987.51,432.6L990.35,434.1L993.19,434.43L998.86,434.87L1001.7,433.97L1010.21,432.23L1013.05,432.98L1018.73,434.02L1021.56,434.1L1027.24,433.36L1030.08,434.09L1038.59,432.32L1041.43,430.02L1044.26,429.19L1047.1,427.48L1049.94,428.34L1052.78,427.01L1055.62,426.91L1058.45,427.59L1061.29,427.91L1064.13,429.08L1069.8,430.61L1072.64,431.17L1075.48,432.79L1078.32,432.81L1083.99,431.6L1086.83,431.33L1089.67,431.45L1092.51,429.9L1098.18,427.23L1101.02,428.01L1109.53,428.82L1112.37,430.21L1118.04,431.48L1120.88,430.97L1123.72,428.87L1126.56,425.49L1129.39,424.26L1132.23,424.14L1135.07,422.46L1137.91,422L1140.75,419.27L1143.58,419.72L1149.26,419.68L1152.1,419.06L1154.93,420.22L1157.77,419.37L1160.61,418.97L1163.45,419.51L1169.12,419.08L1171.96,417.13L1174.8,417.6L1177.64,417.17L1183.31,417.08L1186.15,415.52L1191.82,416.19L1194.66,415.46L1208.85,413.48L1211.69,414.13L1214.53,414.66L1217.36,413.56L1223.04,414.01L1225.88,414.41L1231.55,413.7L1234.39,412.26L1240.06,406.74L1242.9,407.67L1248.58,405.94L1251.41,403.32L1254.25,401.46L1257.09,400.8L1265.6,389.74L1268.44,390.95L1274.12,392.4L1276.95,392.75L1279.79,392.94L1282.63,394.43L1285.47,396.26L1288.3,395.16L1296.82,394.11L1299.66,390.92L1302.49,390.4L1305.33,388.84L1311.01,389.59L1313.84,388.64L1316.68,389.67L1319.52,389.19L1325.19,388.63L1328.03,386.38L1330.87,386.53L1333.71,384.98L1336.54,385.72L1339.38,383.86L1342.22,384.06L1345.06,383.11L1347.9,384.46L1350.73,383.54L1353.57,380.93L1356.41,379.86L1359.25,380.11L1362.08,377.26L1364.92,377.46L1367.76,379.57L1370.6,378.97L1373.43,382.11L1387.62,405.15L1390.46,407.06L1401.81,417.84L1404.65,419.19L1407.49,421.06L1410.32,421.03L1413.16,421.59L1416,425.02" style="vector-effect: none; fill: none; stroke: rgb(239, 85, 59); stroke-opacity: 1; stroke-width: 3px; opacity: 1;"/></g><g class="points"/><g class="text"/></g><g class="trace scatter trace845a03" style="stroke-miterlimit: 2; opacity: 1;"><g class="fills"/><g class="errorbars"/><g class="lines"><path class="js-line" d="M0,442.97L2.84,441.45L5.68,441L17.03,434.56L19.87,431.39L25.54,427.11L28.38,424.06L31.22,420.75L34.05,415.84L36.89,411.79L39.73,405.09L45.4,391.58L48.24,384.69L51.08,379.97L53.92,368.08L56.75,359.64L59.59,348.02L68.11,320.14L70.94,305.08L73.78,289.02L76.62,277.63L87.97,209.98L90.81,189.05L93.64,179.25L96.48,172.6L99.32,142.55L102.16,131.25L105,114.72L107.83,105.15L110.67,99.63L113.51,91.59L119.18,86.33L122.02,76.98L124.86,65.96L127.7,62.59L130.53,65.38L133.37,54.24L141.89,47.45L144.72,45.97L147.56,45.98L150.4,36L153.24,37.15L156.07,39.57L158.91,37.22L161.75,38.56L164.58,37.02L167.42,38.88L170.26,42.98L173.1,53.14L175.94,58.95L178.78,76.56L181.61,90.13L184.45,94.42L187.29,114.76L190.12,118.12L192.96,123.08L195.8,125.11L198.64,125.25L201.47,120.42L204.31,128.43L207.15,132.09L209.99,140.14L212.83,152.86L215.66,152.89L218.5,154.76L221.34,162.73L224.18,165.97L227.02,163.22L229.85,188.25L232.69,184.21L235.53,177.69L238.36,173.09L241.2,199.67L246.88,182.78L249.72,182.12L252.55,176.76L255.39,178.81L258.23,174.03L261.07,173.1L263.91,171.72L266.74,180.02L269.58,176.78L272.42,180.48L278.09,182.26L280.93,192.35L283.77,188.92L286.61,196L289.44,199.66L292.28,207.45L297.96,220.57L300.8,222.95L303.63,216.73L306.47,221.2L309.31,212.36L312.14,207.41L317.82,182.53L320.66,196.33L323.5,169.72L326.33,151.33L329.17,141.25L332.01,144L334.85,143.79L337.68,135.94L340.52,129.93L343.36,120.18L346.2,133.14L349.03,152.12L351.87,164.75L354.71,181.47L357.55,191.8L360.38,194.63L366.06,216.12L368.9,217.91L371.74,215.54L374.57,210.54L377.41,204.32L380.25,206.17L383.09,204.5L385.92,208.38L388.76,204.95L391.6,206.74L394.44,203.77L397.27,203.65L400.11,204.49L402.95,203.96L405.79,211.61L408.63,214.49L411.46,221.77L414.3,221.53L417.14,227.76L419.98,230.3L422.82,229.13L425.65,239L428.49,242.02L431.33,254.03L434.16,262.5L437,284.38L439.84,295.66L442.68,315.29L448.35,333.73L451.19,351.13L454.03,359.45L456.87,365.31L459.71,367.18L462.54,360.59L465.38,357.22L468.22,351.44L471.05,352.31L473.89,340.79L476.73,339.87L479.57,339.91L485.24,331.09L488.08,328.95L490.92,330.35L493.76,329.13L496.6,333.46L499.43,321.04L502.27,314.78L505.11,311.69L507.94,297.18L510.78,306.16L513.62,300.46L516.46,292.37L519.29,270.9L522.13,270.77L524.97,267.19L527.81,275.52L530.65,274.54L533.48,265.21L536.32,262.25L539.16,257.61L542,258.34L544.83,260.22L547.67,263.7L550.51,265.45L553.35,270.82L556.18,279.15L559.02,275.05L561.86,267.16L567.54,267.94L570.37,270.5L576.05,273.39L578.89,281.93L584.56,285.12L587.4,285.63L590.24,289.06L593.07,294.13L598.75,297.9L601.59,295.29L604.43,292.51L607.26,293.5L610.1,293.16L612.94,287.93L615.77,288.49L618.62,293.46L621.45,293.56L624.29,294.74L627.12,296.52L629.96,293.69L632.8,288.33L635.64,281.05L638.48,278.3L641.31,270.51L644.15,265.86L646.99,259.04L649.83,253.46L652.67,250.64L661.18,238.23L664.01,238.94L669.69,249.02L672.53,249.49L675.37,248.75L678.2,244.69L686.72,240.38L689.56,237.22L692.39,237.48L695.23,234.99L698.07,238.14L700.9,237.78L712.26,256.27L715.09,255.95L720.77,263.68L723.61,268.39L726.45,272.74L729.28,275.42L732.12,277.8L734.96,285.91L737.79,289.99L740.63,287.63L743.47,288.07L746.31,286.73L749.15,288.28L751.98,288.01L754.82,290.04L757.66,288.75L760.5,289.06L763.33,290.7L766.17,293.08L769.01,297.34L771.85,301.87L774.68,302.19L777.52,302.73L780.36,304.36L783.2,304.63L786.04,303.15L788.87,300.27L791.71,301.63L797.39,304.14L800.23,303.96L803.06,304.63L805.9,308.99L811.57,319.41L814.41,320.83L817.25,330.03L820.09,334.38L822.92,342.46L825.76,344.42L828.6,347.17L831.44,347.76L834.28,349.77L837.11,349.63L839.95,354.29L842.79,355.77L845.63,356.28L848.47,354.34L851.3,348.79L854.14,346.59L856.98,340.96L859.81,337.73L865.49,325.34L868.33,320.8L874,318.9L876.84,319.37L882.52,320.98L885.35,323.92L891.03,324.76L893.87,322.77L896.7,328.61L899.54,330.78L902.38,330.8L905.22,332.81L913.73,329.99L916.57,325.08L919.41,324.8L922.25,319.13L930.76,315.82L933.59,313.51L939.27,314.06L942.11,312.26L944.94,312.54L947.78,310.5L953.46,306.07L956.3,301.32L961.97,295.9L964.81,295.26L967.65,295.7L970.48,294.9L976.16,295.67L979,295.1L984.67,293.56L987.51,295.03L993.19,292.92L996.02,289.46L998.86,286.72L1001.7,281.26L1007.37,274.98L1010.21,273.43L1013.05,272.81L1015.89,269.09L1024.4,268.56L1027.24,270.17L1032.91,271.29L1035.75,273.15L1044.27,275.67L1047.1,274.6L1049.94,273.98L1052.78,274.63L1055.61,276.52L1058.45,276.92L1066.97,279.56L1069.8,279.73L1075.48,281.91L1078.32,282.38L1081.15,282.07L1083.99,282.53L1086.83,282.67L1089.66,279.04L1092.5,278.35L1095.34,276.84L1103.85,275.88L1106.69,276.39L1112.37,277.21L1115.21,277.72L1118.04,277.71L1120.88,279.31L1123.72,279.43L1126.55,281.08L1137.91,283.56L1140.74,284.5L1143.58,285.4L1146.42,287.25L1149.26,286.84L1152.1,287.77L1154.93,288.23L1157.77,287.74L1160.61,287.95L1163.45,289.1L1174.8,294.02L1177.63,291.78L1180.47,292.66L1183.31,291.28L1186.15,292.19L1188.99,290.84L1191.82,291.63L1194.66,291.58L1200.33,293.13L1203.17,295.56L1206.01,296.32L1208.85,300.6L1211.69,302.68L1214.52,308.2L1217.36,312.68L1220.2,318.81L1223.04,325.29L1225.88,329.19L1228.71,334.59L1231.55,338.18L1234.39,343.63L1237.23,345.68L1242.9,354.73L1245.74,360.68L1251.41,370.98L1254.25,373.48L1262.76,381.47L1265.6,379.66L1268.44,382.22L1271.28,383L1274.12,380.01L1276.95,382.14L1279.79,384.74L1282.63,375.91L1285.46,374.36L1288.3,374.26L1291.14,374.06L1293.98,373.02L1296.82,374.37L1299.65,373.72L1302.49,374.61L1305.33,377.53L1308.17,380.2L1311.01,380.09L1313.84,379.79L1316.68,381.96L1319.52,386.26L1322.35,388.75L1325.19,387.89L1328.03,390.88L1330.87,394.35L1333.71,395.87L1336.54,400.28L1339.38,400.19L1342.22,403.35L1345.06,405.32L1347.9,404.96L1350.73,409.7L1353.57,411.46L1356.41,410.93L1362.08,415.2L1364.92,417.76L1367.76,417.42L1370.59,414.72L1373.43,413.24L1376.27,405.85L1379.11,401.23L1381.95,398.28L1387.62,386.69L1390.46,383.33L1393.3,383.37L1396.13,387.91L1404.65,401.98L1407.48,403.41L1410.32,405.57L1413.16,405.97L1416,407.86" style="vector-effect: none; fill: none; stroke: rgb(0, 204, 150); stroke-opacity: 1; stroke-width: 3px; opacity: 1;"/></g><g class="points"/><g class="text"/></g><g class="trace scatter tracee30476" style="stroke-miterlimit: 2; opacity: 1;"><g class="fills"/><g class="errorbars"/><g class="lines"><path class="js-line" d="M0,423.4L14.19,415.27L17.03,413.73L19.87,412.09L22.71,409.17L28.38,400.99L31.22,394.46L34.05,388.57L36.89,380.9L42.57,368.03L45.41,361.38L48.24,357.25L51.08,350.71L53.92,346.15L56.76,339.72L62.43,327.3L65.27,320.23L68.11,313.47L70.94,309.22L73.78,303.51L76.62,292.23L79.46,283.15L82.29,277.91L85.13,272.69L87.97,261.58L93.65,244.5L96.48,235.41L102.16,215.39L105,213.73L107.84,196.23L110.67,190.23L116.35,180.98L119.19,178.86L124.86,173.71L127.7,174.42L130.54,173.05L133.37,174.34L136.21,179.99L139.05,181.55L141.89,189.15L144.73,192.43L147.56,198.44L150.4,202.15L153.24,206.97L156.08,216.88L164.59,239.2L167.43,246.54L184.45,325.92L187.29,335.35L190.13,341.97L192.96,353.02L198.64,373.97L201.48,395.78L204.31,408.24L207.15,443.39L209.99,458.19L212.83,467.5L215.67,472.98L218.51,480.6L221.34,491.76L224.18,499.21L229.85,507.84L232.69,509.59L235.53,505.26L238.37,504.94L241.2,500.07L244.04,499.5L249.72,490.69L252.56,488.2L255.4,479.45L258.23,477.73L261.07,477.09L263.91,477.91L266.74,476.82L269.58,479.46L272.42,476.56L275.26,474.75L278.09,477.24L280.93,477.9L283.77,474.36L286.61,476.71L289.45,513.41L292.28,511.95L295.12,509.39L297.96,497.4L300.8,506.8L303.63,510.43L306.47,515.63L309.31,513.98L314.99,520.53L317.82,526.49L320.66,529.05L323.5,527.94L326.34,527.58L329.17,529.21L334.85,531.7L337.69,531.11L340.52,532.87L343.36,537.05L349.04,546.32L351.87,555.15L357.55,570.9L360.39,576.11L366.06,591.47L368.9,597.47L371.74,602.31L374.58,600.95L380.25,601.98L383.09,603.65L385.93,601.28L388.76,603.7L394.44,603.87L397.28,605.22L400.11,604.99L402.95,606.28L405.79,605.99L408.63,607.82L411.47,606.93L414.31,609.27L417.14,614.77L419.98,622.8L422.82,630.78L425.65,633.23L428.49,629.9L431.33,631.02L434.17,628.78L437,625.59L439.84,616.43L442.68,616.45L448.36,613.35L451.19,612.88L454.03,613.68L456.87,613.55L459.7,608.87L462.54,608.67L468.22,598.07L471.06,585.48L473.89,582.85L476.73,581.74L482.41,586.85L485.25,591.62L493.76,590.27L496.6,587.91L499.43,585.33L502.27,586.74L505.11,584.39L507.94,583.39L510.79,579.55L513.62,573.18L516.46,563.16L519.3,557.56L524.97,549.83L527.81,549.76L536.32,530.55L539.16,528.16L542,527.28L544.84,529.94L547.67,522.02L550.51,517.6L559.02,525.83L561.86,524.06L564.7,526L567.54,524.81L570.38,523.39L573.21,520.68L576.05,519.45L578.89,523.1L581.73,523.9L584.56,526.59L587.4,529.27L590.24,527.31L593.08,527.45L595.91,526.67L598.75,525.76L601.59,523.44L604.43,522.55L607.27,524.84L612.94,525.49L615.78,524.64L621.45,525.58L624.29,526.24L627.13,528.94L629.97,533.09L632.8,536.5L635.64,537.44L638.48,544.74L641.32,548.1L644.16,548.67L646.99,546.27L652.67,547.69L655.5,545.68L658.34,547.48L661.18,546.69L664.02,548.77L666.86,549.78L669.69,552.67L672.53,547.96L678.21,550.79L681.05,549.51L683.88,548.87L686.72,545.86L689.56,543.49L692.39,539.62L695.23,534.75L698.07,527.2L700.91,526.41L703.74,518.52L706.58,515.32L709.42,510.13L715.1,497.42L717.93,490.38L720.77,480.6L723.61,474.2L729.29,463.32L732.12,446.67L737.8,425.72L740.64,417.78L743.47,410.52L746.31,399.22L751.99,385.85L754.82,381.96L760.5,377.08L763.34,366.67L774.69,350.89L777.52,347.32L780.36,342.61L783.2,340.39L786.04,338.75L788.88,336.17L791.71,334.76L794.55,332.08L803.07,323.26L805.9,321.57L814.41,319.3L817.25,317.3L820.09,316.87L822.93,315.66L831.44,314.17L834.28,315.17L837.12,317.41L839.96,315.3L842.79,316.39L845.63,315.35L848.47,315.29L851.3,318.4L862.65,322.64L865.49,323.19L868.33,323.59L871.17,325.02L876.84,326.17L879.68,327.52L885.36,325.14L888.19,325.81L896.71,328.71L899.54,328.21L902.38,325.83L905.22,324.65L908.06,326.08L910.9,326.36L916.57,327.28L919.41,327.89L922.25,325.75L925.09,325.74L927.92,324.54L930.76,322.46L933.6,323.65L936.44,320.79L939.27,321.32L942.11,318.81L947.79,317.34L950.62,314.8L959.14,311.95L961.98,311.82L967.65,311.54L970.49,310.33L976.16,309.01L979,307.46L981.84,307.58L984.67,306.34L990.35,305.23L993.19,302.78L996.03,303.03L998.86,302.38L1001.7,302.86L1004.54,301.48L1013.05,299.96L1015.89,301.29L1018.73,301.35L1021.56,302.21L1024.4,302.73L1027.24,304.73L1030.08,306.51L1032.92,307.04L1035.76,309.19L1038.59,309.62L1041.43,311.31L1044.27,311.29L1055.62,316.24L1058.45,319.8L1061.29,322.62L1064.13,324.18L1069.81,328L1072.64,330.67L1081.15,337.62L1083.99,337.78L1086.83,341.53L1089.67,343.26L1095.34,347.87L1098.18,349.45L1106.7,355.41L1109.53,355.34L1112.37,356.25L1115.21,355.21L1120.88,358.09L1123.72,357.57L1126.56,359.43L1129.4,359.44L1135.07,361.78L1137.91,362.83L1143.59,365.84L1146.42,369.99L1152.1,371.95L1154.94,371.37L1157.77,372.52L1160.61,372.56L1166.29,374.49L1169.12,375.15L1171.96,375.61L1174.8,377.88L1180.47,380.69L1183.31,382.98L1191.83,384.16L1194.66,384.77L1197.5,385.44L1200.34,385.12L1203.17,386.71L1206.01,386.87L1214.53,389.81L1217.36,392L1225.88,394.88L1228.72,395.1L1237.23,396.19L1240.06,395.61L1242.9,397.09L1245.74,397.21L1248.58,397.23L1251.42,394.38L1254.25,394.93L1257.09,391.44L1259.93,392.9L1262.77,393.2L1265.61,390.64L1268.44,390.33L1271.28,389.94L1274.12,390.52L1276.95,388.65L1279.79,389L1282.63,388.35L1285.47,389.64L1288.3,390.52L1291.14,392.2L1293.98,388.95L1296.82,389.15L1299.66,388.1L1302.49,378.32L1305.33,376.27L1308.17,366.01L1311.01,364.55L1313.85,360.62L1316.68,353.78L1319.52,353.66L1322.36,351.25L1325.2,353.58L1328.03,350.53L1330.87,351.74L1333.71,360.23L1336.55,365.29L1345.06,373.3L1347.9,375.18L1356.41,392.6L1359.25,395.18L1367.76,409.87L1370.6,417.46L1373.44,420.78L1376.27,428.71L1379.11,431.12L1381.95,441.82L1384.79,444.83L1387.63,449.88L1396.14,463.75L1398.97,466.32L1401.81,469.73L1404.65,469.87L1407.49,471.84L1410.32,471.11L1416,467.25" style="vector-effect: none; fill: none; stroke: rgb(171, 99, 250); stroke-opacity: 1; stroke-width: 3px; opacity: 1;"/></g><g class="points"/><g class="text"/></g><g class="trace scatter traceeff8a4" style="stroke-miterlimit: 2; opacity: 1;"><g class="fills"/><g class="errorbars"/><g class="lines"><path class="js-line" d="M0,452.76L2.84,447.94L5.68,445.69L8.52,444.02L11.36,439.35L14.19,437.11L17.03,431.83L22.7,425.65L25.54,420.86L31.22,412.24L34.06,408.03L36.89,402.55L39.73,400.8L42.57,391.08L45.41,386.58L51.08,371.42L53.92,358.72L62.43,332.14L65.27,328.93L68.11,322.71L70.95,313.26L73.78,318.47L76.62,317.82L79.46,338.5L82.3,344.35L85.13,355.82L87.97,380.92L90.81,390.43L93.65,390.45L99.32,379.27L102.16,370.99L105,368.59L107.84,368.86L110.67,366.68L113.51,373.87L119.19,385.27L122.02,375.68L124.86,367.91L127.7,356.18L130.54,349.05L133.37,351.84L136.21,358.83L139.05,401.16L141.89,426.85L144.73,465.51L147.56,472.59L150.4,491.86L153.24,490.58L156.07,486.89L158.91,494.71L161.75,494.34L164.59,494.49L167.43,496.87L170.26,496.87L173.1,489.27L175.94,485.38L178.78,473.83L181.61,466.78L184.45,454.64L187.29,445.8L190.13,431.45L192.96,431.19L195.8,425.86L201.48,427L204.32,422.85L207.15,422.34L209.99,416.64L212.83,413.72L215.67,409.18L218.5,403.4L221.34,400.09L224.18,397.53L227.02,398.35L229.86,399.16L232.69,395.39L235.53,395.54L238.37,399.74L241.21,398.77L244.04,402.16L246.88,404.1L249.72,416.34L252.56,423.38L255.39,423.67L258.23,427.32L261.07,438.97L266.75,453.77L269.58,465.43L272.42,470.37L275.26,472.33L286.61,468.54L289.44,469.3L295.12,481.44L297.96,481.97L300.8,478.92L303.63,466.71L306.47,472.75L309.31,470.91L314.99,373.18L317.82,352.06L320.66,330.5L323.5,317.26L326.33,300.28L329.17,295.99L332.01,298.46L334.85,298.36L337.69,302.1L340.53,311.8L346.2,330.82L349.04,340.76L351.87,351.02L354.71,357.16L360.39,371.44L363.23,375.93L380.25,409.33L383.09,412.53L385.93,419.25L388.76,422.82L394.44,430.03L397.28,434.29L400.11,435.45L402.95,437.68L405.79,440.34L408.63,438.82L411.47,441.09L414.3,438.14L417.14,434.75L419.98,433.03L422.82,429.54L425.65,430.87L428.49,429.8L431.33,435.74L434.17,436.14L437.01,447.64L442.68,459.34L445.52,472L448.35,480.16L451.19,497.42L454.03,506.73L456.87,518.89L462.54,515.01L465.38,515.61L468.22,519.64L471.06,521.14L473.9,521.53L476.73,523.66L479.57,523.27L482.41,523.9L485.24,524.26L488.08,526.6L493.76,546.02L496.6,557.13L499.43,565.09L502.27,577.12L505.11,585.75L507.95,598.71L510.78,605.25L513.62,615.34L516.46,619.01L519.3,625.44L524.97,622.71L527.81,614.56L530.65,612.48L533.49,614.77L536.32,617.67L539.16,625.51L542,627.7L544.84,632.04L547.67,631.92L550.51,630.59L553.35,628.81L556.19,630.1L559.03,633.42L561.86,640.91L564.7,668.24L567.54,680.26L570.38,684L573.21,681.99L578.89,679.68L581.72,676.07L593.08,664.82L595.91,662.43L601.59,658.45L604.43,659.38L610.1,660.03L612.94,659.38L615.78,657.28L618.62,657.8L621.45,657.49L624.29,654.55L627.13,652.14L629.97,645.92L632.81,642.25L635.64,639.84L641.32,636.92L644.15,633.23L646.99,632.11L649.83,629.01L658.34,624.67L661.18,621.21L669.69,621.72L672.53,620.4L675.37,616.89L678.21,615.55L681.04,615.99L683.88,613.53L686.72,611.52L689.56,607.83L703.75,591.84L706.58,589.25L709.42,584.91L712.26,583.2L715.1,579.09L717.93,577.55L720.77,574.63L723.61,573.22L726.45,568.92L729.29,566.15L732.12,564.09L734.96,560.47L737.8,560.63L740.64,558.72L743.47,557.96L746.31,554.93L749.15,553.35L751.98,550.43L754.82,550.17L757.66,548.13L760.5,548.12L763.34,547.24L766.18,550.44L769.01,551.83L771.85,555.54L774.69,555.9L786.04,554.04L788.88,552.45L791.71,554.39L794.55,554.18L797.39,555.86L800.23,555.6L803.06,554.86L805.9,554.92L808.74,553.17L811.58,553.56L817.25,550.98L820.09,548.58L822.93,544.71L825.77,542.54L828.61,538.08L831.44,535.54L834.28,531.09L837.12,530.64L839.95,526.87L842.79,526.35L845.63,525.53L848.47,522.39L854.14,518L856.98,517.59L868.33,509.37L871.17,508.12L874,506.43L876.84,506.4L879.68,505.04L882.52,505.79L885.36,505.71L888.19,503.54L893.87,501.27L896.71,501.78L908.06,495.19L910.89,491.66L913.73,489.16L916.57,487.71L919.41,482.69L922.25,480.81L925.08,477.36L927.92,475.95L930.76,473.44L933.6,473.13L936.43,470.8L939.27,470.23L942.11,469.95L944.95,467.96L947.78,466.66L950.62,464.03L953.46,463.02L956.3,460.36L959.14,461L961.97,459.75L970.49,460.02L973.32,459.78L979,459.19L981.84,460.21L984.68,460.28L987.51,459.43L993.19,460.05L996.03,459.65L1001.7,458.64L1004.54,459.81L1007.37,459.13L1010.22,459.91L1013.05,459.68L1015.89,458.44L1021.57,455.34L1024.4,454.47L1035.75,448.46L1038.59,448.3L1041.43,448.21L1044.27,446.43L1047.1,444.11L1049.94,443.25L1052.78,442.59L1055.62,443.64L1058.46,443.91L1061.29,443.24L1066.97,441.38L1069.8,441.41L1072.64,439.83L1075.48,439.71L1078.32,438.03L1081.16,437.48L1083.99,437.75L1086.83,435.72L1089.67,434.43L1092.51,431.23L1095.35,431.42L1098.18,432.6L1106.69,434.76L1109.53,434.71L1112.37,434.16L1115.21,436.43L1126.56,437.69L1129.4,439.98L1135.07,437.99L1137.91,438.42L1143.58,437.52L1146.42,439.13L1149.26,437.68L1152.1,440.27L1154.94,439.96L1157.77,440.54L1160.61,443.57L1163.45,444.68L1166.29,445.6L1169.12,448.21L1174.8,451.32L1177.64,455.13L1180.47,456.45L1183.31,460.78L1188.99,462.77L1191.83,468.14L1194.66,468.47L1197.5,474.14L1203.17,483.14L1206.01,485.71L1208.85,493.14L1211.69,494.67L1214.53,493.3L1217.37,496.43L1220.2,496.23L1223.04,498.57L1225.88,500.44L1228.71,504.36L1237.23,509.17L1240.07,509.8L1242.9,511.41L1245.74,509.19L1251.42,508.38L1254.26,504.79L1257.09,504.85L1259.93,499.74L1262.77,501.69L1265.6,498.89L1271.28,498.32L1274.12,499.75L1276.96,499.98L1279.79,498.43L1282.63,497.63L1285.47,490.61L1288.31,489.52L1291.14,485.59L1293.98,485.86L1296.82,481.5L1302.49,480.06L1305.33,476.68L1308.17,473.76L1311.01,467.96L1313.85,465.04L1316.68,463.85L1322.36,458.62L1325.2,452.21L1328.03,450.01L1330.87,445.9L1333.71,447.31L1336.55,446.92L1339.38,447.75L1342.22,446.52L1345.06,446.33L1347.9,447.33L1353.57,445.84L1356.41,439.75L1359.25,436.04L1362.08,426.74L1364.92,421.59L1367.76,414.1L1370.6,401.02L1373.44,401.38L1376.27,398.72L1379.11,401.8L1381.95,403.37L1384.79,401.54L1387.62,404.22L1390.46,403.8L1393.3,406.46L1396.14,404.93L1398.97,408.15L1401.81,408.19L1404.65,409.71L1407.49,413.78L1410.33,417.36L1413.16,424.3L1416,415.62" style="vector-effect: none; fill: none; stroke: rgb(255, 161, 90); stroke-opacity: 1; stroke-width: 3px; opacity: 1;"/></g><g class="points"/><g class="text"/></g></g></g></g><path class="xlines-above crisp" d="M0,0" style="fill: none;"/><path class="ylines-above crisp" d="M0,0" style="fill: none;"/><g class="overlines-above"/><g class="xaxislayer-above"><g class="xtick"><text text-anchor="middle" x="0" y="841" transform="translate(243.05,0)" style="font-family: 'Open Sans', verdana, arial, sans-serif; font-size: 20px; fill: rgb(42, 63, 95); fill-opacity: 1; white-space: pre; opacity: 1;">1</text></g><g class="xtick"><text text-anchor="middle" x="0" y="841" style="font-family: 'Open Sans', verdana, arial, sans-serif; font-size: 20px; fill: rgb(42, 63, 95); fill-opacity: 1; white-space: pre; opacity: 1;" transform="translate(384.93,0)">2</text></g><g class="xtick"><text text-anchor="middle" x="0" y="841" style="font-family: 'Open Sans', verdana, arial, sans-serif; font-size: 20px; fill: rgb(42, 63, 95); fill-opacity: 1; white-space: pre; opacity: 1;" transform="translate(526.8199999999999,0)">3</text></g><g class="xtick"><text text-anchor="middle" x="0" y="841" style="font-family: 'Open Sans', verdana, arial, sans-serif; font-size: 20px; fill: rgb(42, 63, 95); fill-opacity: 1; white-space: pre; opacity: 1;" transform="translate(668.7,0)">4</text></g><g class="xtick"><text text-anchor="middle" x="0" y="841" style="font-family: 'Open Sans', verdana, arial, sans-serif; font-size: 20px; fill: rgb(42, 63, 95); fill-opacity: 1; white-space: pre; opacity: 1;" transform="translate(810.58,0)">5</text></g><g class="xtick"><text text-anchor="middle" x="0" y="841" style="font-family: 'Open Sans', verdana, arial, sans-serif; font-size: 20px; fill: rgb(42, 63, 95); fill-opacity: 1; white-space: pre; opacity: 1;" transform="translate(952.47,0)">6</text></g><g class="xtick"><text text-anchor="middle" x="0" y="841" style="font-family: 'Open Sans', verdana, arial, sans-serif; font-size: 20px; fill: rgb(42, 63, 95); fill-opacity: 1; white-space: pre; opacity: 1;" transform="translate(1094.35,0)">7</text></g><g class="xtick"><text text-anchor="middle" x="0" y="841" style="font-family: 'Open Sans', verdana, arial, sans-serif; font-size: 20px; fill: rgb(42, 63, 95); fill-opacity: 1; white-space: pre; opacity: 1;" transform="translate(1236.23,0)">8</text></g><g class="xtick"><text text-anchor="middle" x="0" y="841" style="font-family: 'Open Sans', verdana, arial, sans-serif; font-size: 20px; fill: rgb(42, 63, 95); fill-opacity: 1; white-space: pre; opacity: 1;" transform="translate(1378.12,0)">9</text></g><g class="xtick"><text text-anchor="middle" x="0" y="841" style="font-family: 'Open Sans', verdana, arial, sans-serif; font-size: 20px; fill: rgb(42, 63, 95); fill-opacity: 1; white-space: pre; opacity: 1;" transform="translate(1520,0)">10</text></g></g><g class="yaxislayer-above"><g class="ytick"><text text-anchor="end" x="103" y="7" transform="translate(0,749.22)" style="font-family: 'Open Sans', verdana, arial, sans-serif; font-size: 20px; fill: rgb(42, 63, 95); fill-opacity: 1; white-space: pre; opacity: 1;">−0.15</text></g><g class="ytick"><text text-anchor="end" x="103" y="7" style="font-family: 'Open Sans', verdana, arial, sans-serif; font-size: 20px; fill: rgb(42, 63, 95); fill-opacity: 1; white-space: pre; opacity: 1;" transform="translate(0,650.84)">−0.1</text></g><g class="ytick"><text text-anchor="end" x="103" y="7" style="font-family: 'Open Sans', verdana, arial, sans-serif; font-size: 20px; fill: rgb(42, 63, 95); fill-opacity: 1; white-space: pre; opacity: 1;" transform="translate(0,552.46)">−0.05</text></g><g class="ytick"><text text-anchor="end" x="103" y="7" style="font-family: 'Open Sans', verdana, arial, sans-serif; font-size: 20px; fill: rgb(42, 63, 95); fill-opacity: 1; white-space: pre; opacity: 1;" transform="translate(0,454.08)">0</text></g><g class="ytick"><text text-anchor="end" x="103" y="7" style="font-family: 'Open Sans', verdana, arial, sans-serif; font-size: 20px; fill: rgb(42, 63, 95); fill-opacity: 1; white-space: pre; opacity: 1;" transform="translate(0,355.7)">0.05</text></g><g class="ytick"><text text-anchor="end" x="103" y="7" style="font-family: 'Open Sans', verdana, arial, sans-serif; font-size: 20px; fill: rgb(42, 63, 95); fill-opacity: 1; white-space: pre; opacity: 1;" transform="translate(0,257.33000000000004)">0.1</text></g><g class="ytick"><text text-anchor="end" x="103" y="7" style="font-family: 'Open Sans', verdana, arial, sans-serif; font-size: 20px; fill: rgb(42, 63, 95); fill-opacity: 1; white-space: pre; opacity: 1;" transform="translate(0,158.95)">0.15</text></g></g><g class="overaxes-above"/></g></g><g class="polarlayer"/><g class="smithlayer"/><g class="ternarylayer"/><g class="geolayer"/><g class="funnelarealayer"/><g class="pielayer"/><g class="iciclelayer"/><g class="treemaplayer"/><g class="sunburstlayer"/><g class="glimages"/><defs id="topdefs-3ce68c"><g class="clips"/><clipPath id="legend3ce68c"><rect width="84" height="181" x="0" y="0"/></clipPath></defs><g class="layer-above"><g class="imagelayer"/><g class="shapelayer"/></g><g class="infolayer"><g class="legend" pointer-events="all" transform="translate(264.00800000000004,110.08000000000001)"><rect class="bg" shape-rendering="crispEdges" width="84" height="181" x="0" y="0" style="stroke: rgb(68, 68, 68); stroke-opacity: 1; fill: rgb(255, 255, 255); fill-opacity: 1; stroke-width: 0px;"/><g class="scrollbox" transform="" clip-path="url(#legend3ce68c)"><g class="groups"><g class="traces" transform="translate(0,22.1)" style="opacity: 1;"><text class="legendtext" text-anchor="start" x="40" y="9.360000000000001" style="font-family: 'Open Sans', verdana, arial, sans-serif; font-size: 24px; fill: rgb(42, 63, 95); fill-opacity: 1; white-space: pre;">1m</text><g class="layers" style="opacity: 1;"><g class="legendfill"/><g class="legendlines"><path class="js-line" d="M5,0h30" style="fill: none; stroke: rgb(99, 110, 250); stroke-opacity: 1; stroke-width: 3px;"/></g><g class="legendsymbols"><g class="legendpoints"/></g></g><rect class="legendtoggle" x="0" y="-17.1" width="78.609375" height="34.2" style="fill: rgb(0, 0, 0); fill-opacity: 0;"/></g><g class="traces" transform="translate(0,56.300000000000004)" style="opacity: 1;"><text class="legendtext" text-anchor="start" x="40" y="9.360000000000001" style="font-family: 'Open Sans', verdana, arial, sans-serif; font-size: 24px; fill: rgb(42, 63, 95); fill-opacity: 1; white-space: pre;">2m</text><g class="layers" style="opacity: 1;"><g class="legendfill"/><g class="legendlines"><path class="js-line" d="M5,0h30" style="fill: none; stroke: rgb(239, 85, 59); stroke-opacity: 1; stroke-width: 3px;"/></g><g class="legendsymbols"><g class="legendpoints"/></g></g><rect class="legendtoggle" x="0" y="-17.1" width="78.609375" height="34.2" style="fill: rgb(0, 0, 0); fill-opacity: 0;"/></g><g class="traces" transform="translate(0,90.5)" style="opacity: 1;"><text class="legendtext" text-anchor="start" x="40" y="9.360000000000001" style="font-family: 'Open Sans', verdana, arial, sans-serif; font-size: 24px; fill: rgb(42, 63, 95); fill-opacity: 1; white-space: pre;">3m</text><g class="layers" style="opacity: 1;"><g class="legendfill"/><g class="legendlines"><path class="js-line" d="M5,0h30" style="fill: none; stroke: rgb(0, 204, 150); stroke-opacity: 1; stroke-width: 3px;"/></g><g class="legendsymbols"><g class="legendpoints"/></g></g><rect class="legendtoggle" x="0" y="-17.1" width="78.609375" height="34.2" style="fill: rgb(0, 0, 0); fill-opacity: 0;"/></g><g class="traces" transform="translate(0,124.70000000000002)" style="opacity: 1;"><text class="legendtext" text-anchor="start" x="40" y="9.360000000000001" style="font-family: 'Open Sans', verdana, arial, sans-serif; font-size: 24px; fill: rgb(42, 63, 95); fill-opacity: 1; white-space: pre;">4m</text><g class="layers" style="opacity: 1;"><g class="legendfill"/><g class="legendlines"><path class="js-line" d="M5,0h30" style="fill: none; stroke: rgb(171, 99, 250); stroke-opacity: 1; stroke-width: 3px;"/></g><g class="legendsymbols"><g class="legendpoints"/></g></g><rect class="legendtoggle" x="0" y="-17.1" width="78.609375" height="34.2" style="fill: rgb(0, 0, 0); fill-opacity: 0;"/></g><g class="traces" transform="translate(0,158.9)" style="opacity: 1;"><text class="legendtext" text-anchor="start" x="40" y="9.360000000000001" style="font-family: 'Open Sans', verdana, arial, sans-serif; font-size: 24px; fill: rgb(42, 63, 95); fill-opacity: 1; white-space: pre;">5m</text><g class="layers" style="opacity: 1;"><g class="legendfill"/><g class="legendlines"><path class="js-line" d="M5,0h30" style="fill: none; stroke: rgb(255, 161, 90); stroke-opacity: 1; stroke-width: 3px;"/></g><g class="legendsymbols"><g class="legendpoints"/></g></g><rect class="legendtoggle" x="0" y="-17.1" width="78.609375" height="34.2" style="fill: rgb(0, 0, 0); fill-opacity: 0;"/></g></g></g><rect class="scrollbar" rx="20" ry="3" width="0" height="0" x="0" y="0" style="fill: rgb(128, 139, 164); fill-opacity: 1;"/></g><g class="g-gtitle"><text class="gtitle" x="800" y="50" text-anchor="middle" dy="0.7em" style="opacity: 1; font-family: 'Open Sans', verdana, arial, sans-serif; font-size: 20px; fill: rgb(42, 63, 95); fill-opacity: 1; font-weight: bold; white-space: pre;">No Yielding, Front and eHMI</text></g><g class="g-xtitle"><text class="xtitle" x="812" y="873.5" text-anchor="middle" style="opacity: 1; font-family: 'Open Sans', verdana, arial, sans-serif; font-size: 20px; fill: rgb(42, 63, 95); fill-opacity: 1; white-space: pre;">Time (in seconds)</text></g><g class="g-ytitle" transform="translate(0.296875,0)"><text class="ytitle" transform="rotate(-90,19.703125,460)" x="19.703125" y="460" text-anchor="middle" style="opacity: 1; font-family: 'Open Sans', verdana, arial, sans-serif; font-size: 20px; fill: rgb(42, 63, 95); fill-opacity: 1; white-space: pre;">Yaw Angle (in radians)</text></g></g></svg>